<svg xmlns="http://www.w3.org/2000/svg" xmlns:xlink="http://www.w3.org/1999/xlink" id="body_7" preserveAspectRatio="xMinYMin meet" viewBox="0 0 792 1121"><defs><clipPath id="1"><path d="M0 841L0 -0.9199829L0 -0.9199829L594.96 -0.9199829L594.96 -0.9199829L594.96 841L594.96 841L0 841z" /></clipPath><clipPath id="2"><path d="M0 -0.9199829L595.2 -0.9199829L595.2 -0.9199829L595.2 841.24L595.2 841.24L0 841.24z" /></clipPath><clipPath id="3"><path d="M0 55.0802L594.9999 55.0802L594.9999 55.0802L594.9999 790.389L594.9999 790.389L0 790.389z" /></clipPath></defs><g transform="matrix(1.333333 0 0 1.333333 0 0)"><g><g clip-path="url(#1)"><g clip-path="url(#2)"><path transform="matrix(1 0 0 -1 0 841)" d="M0 841.92L792.9999 841.92L792.9999 841.92L792.9999 -280.0799L792.9999 -280.0799L0 -280.0799z" stroke="none" fill="#FFFFFF" fill-rule="winding" /><path transform="matrix(1 0 0 -1 0 841)" d="M0 796.92L594.9999 796.92L594.9999 796.92L594.9999 795.92L594.9999 795.92L0 795.92z" stroke="none" fill="#B7B5B5" fill-rule="winding" /><g transform="matrix(0.1840659 0 0 0.1886792 510 12.08002)"><g transform="matrix(1 0 0 1 0 0)"><image x="0" y="0" xlink:href="img_01.png" width="364" height="106" /></g></g></g><g clip-path="url(#3)"><path transform="matrix(1 0 0 -1 0 841)" d="M0 5197.773L594.9999 5197.773L594.9999 5197.773L594.9999 -14293.17L594.9999 -14293.17L0 -14293.17z" stroke="none" fill="#FFFFFF" fill-rule="winding" /><path transform="matrix(1 0 0 -1 0 841)" d="M487.7049 1315.642L488.4552 1315.642L488.4552 1315.642L488.4552 100.1313L488.4552 100.1313L487.7049 100.1313z" stroke="none" fill="#B5B6B5" fill-rule="winding" /><path transform="matrix(1 0 0 -1 0 841)" d="M503.8366 52.11084C 503.8366 51.79102 503.8054 51.47363 503.7429 51.15967C 503.6805 50.8457 503.5879 50.54053 503.4654 50.24512C 503.3428 49.94922 503.1926 49.66846 503.0147 49.40186C 502.8368 49.13574 502.6346 48.88965 502.4082 48.6626C 502.1818 48.43652 501.9355 48.23438 501.6692 48.05664C 501.4028 47.87891 501.1218 47.72852 500.826 47.60596C 500.5301 47.4834 500.2252 47.39111 499.911 47.32861C 499.5969 47.26563 499.2798 47.23438 498.9596 47.23438C 498.6393 47.23438 498.3222 47.26563 498.0081 47.32861C 497.694 47.39111 497.389 47.4834 497.0932 47.60596C 496.7974 47.72852 496.5163 47.87891 496.25 48.05664C 495.9838 48.23438 495.7374 48.43652 495.511 48.6626C 495.2845 48.88965 495.0824 49.13574 494.9045 49.40186C 494.7266 49.66846 494.5764 49.94922 494.4538 50.24512C 494.3312 50.54053 494.2387 50.8457 494.1762 51.15967C 494.1138 51.47363 494.0826 51.79102 494.0826 52.11084C 494.0826 52.43164 494.1138 52.74902 494.1762 53.06299C 494.2387 53.37695 494.3312 53.68213 494.4538 53.97803C 494.5764 54.27393 494.7266 54.55518 494.9045 54.82129C 495.0824 55.08789 495.2845 55.33398 495.511 55.56006C 495.7374 55.78613 495.9838 55.98877 496.25 56.1665C 496.5163 56.34424 496.7974 56.49463 497.0932 56.61719C 497.389 56.73975 497.694 56.83203 498.0081 56.89453C 498.3222 56.95703 498.6393 56.98779 498.9596 56.98779C 499.2798 56.98779 499.5969 56.95703 499.911 56.89453C 500.2252 56.83203 500.5301 56.73975 500.826 56.61719C 501.1218 56.49463 501.4028 56.34424 501.6692 56.1665C 501.9355 55.98877 502.1818 55.78613 502.4082 55.56006C 502.6346 55.33398 502.8368 55.08789 503.0147 54.82129C 503.1926 54.55518 503.3428 54.27393 503.4654 53.97803C 503.5879 53.68213 503.6805 53.37695 503.7429 53.06299C 503.8054 52.74902 503.8366 52.43164 503.8366 52.11084z" stroke="#C3C4C3" stroke-width="0.7503152" fill="none" /><path transform="matrix(1 0 0 -1 0 841)" d="M531.5983 52.11084C 531.5983 51.79102 531.5671 51.47363 531.5046 51.15967C 531.4421 50.8457 531.3495 50.54053 531.227 50.24512C 531.1044 49.94922 530.9542 49.66846 530.7763 49.40186C 530.5984 49.13574 530.3962 48.88965 530.1698 48.6626C 529.9434 48.43652 529.697 48.23438 529.4307 48.05664C 529.1644 47.87891 528.8834 47.72852 528.5875 47.60596C 528.2917 47.4834 527.9868 47.39111 527.6727 47.32861C 527.3586 47.26563 527.0414 47.23438 526.7213 47.23438C 526.401 47.23438 526.0839 47.26563 525.7698 47.32861C 525.4556 47.39111 525.1507 47.4834 524.8548 47.60596C 524.559 47.72852 524.2779 47.87891 524.0117 48.05664C 523.7454 48.23438 523.499 48.43652 523.2726 48.6626C 523.0461 48.88965 522.844 49.13574 522.6661 49.40186C 522.4882 49.66846 522.338 49.94922 522.2154 50.24512C 522.0928 50.54053 522.0003 50.8457 521.9379 51.15967C 521.8754 51.47363 521.8442 51.79102 521.8442 52.11084C 521.8442 52.43164 521.8754 52.74902 521.9378 53.06299C 522.0003 53.37695 522.0928 53.68213 522.2154 53.97803C 522.338 54.27393 522.4882 54.55518 522.6661 54.82129C 522.844 55.08789 523.0461 55.33398 523.2726 55.56006C 523.499 55.78613 523.7454 55.98877 524.0117 56.1665C 524.2779 56.34424 524.559 56.49463 524.8548 56.61719C 525.1507 56.73975 525.4556 56.83203 525.7697 56.89453C 526.0839 56.95703 526.401 56.98779 526.7213 56.98779C 527.0414 56.98779 527.3586 56.95703 527.6727 56.89453C 527.9868 56.83203 528.2917 56.73975 528.5875 56.61719C 528.8834 56.49463 529.1644 56.34424 529.4307 56.1665C 529.697 55.98877 529.9434 55.78613 530.1698 55.56006C 530.3962 55.33398 530.5984 55.08789 530.7763 54.82129C 530.9542 54.55518 531.1044 54.27393 531.227 53.97803C 531.3495 53.68213 531.4421 53.37695 531.5046 53.06299C 531.5671 52.74902 531.5983 52.43164 531.5983 52.11084z" stroke="#C3C4C3" stroke-width="0.7503152" fill="none" /><path transform="matrix(1 0 0 -1 0 841)" d="M560.1103 52.11084C 560.1103 51.79102 560.079 51.47363 560.0165 51.15967C 559.9541 50.8457 559.8616 50.54053 559.739 50.24512C 559.6165 49.94922 559.4662 49.66846 559.2883 49.40186C 559.1104 49.13574 558.9083 48.88965 558.6818 48.6626C 558.4553 48.43652 558.2089 48.23438 557.9427 48.05664C 557.6765 47.87891 557.3954 47.72852 557.0995 47.60596C 556.8036 47.4834 556.4987 47.39111 556.1846 47.32861C 555.8706 47.26563 555.5535 47.23438 555.2332 47.23438C 554.913 47.23438 554.5958 47.26563 554.2817 47.32861C 553.9676 47.39111 553.6627 47.4834 553.3668 47.60596C 553.0709 47.72852 552.7899 47.87891 552.5236 48.05664C 552.2573 48.23438 552.011 48.43652 551.7846 48.6626C 551.5582 48.88965 551.356 49.13574 551.178 49.40186C 551.0001 49.66846 550.8499 49.94922 550.7274 50.24512C 550.6048 50.54053 550.5123 50.8457 550.4498 51.15967C 550.3874 51.47363 550.3561 51.79102 550.3562 52.11084C 550.3561 52.43164 550.3874 52.74902 550.4498 53.06299C 550.5123 53.37695 550.6048 53.68213 550.7274 53.97803C 550.8499 54.27393 551.0001 54.55518 551.178 54.82129C 551.356 55.08789 551.5582 55.33398 551.7846 55.56006C 552.011 55.78613 552.2573 55.98877 552.5236 56.1665C 552.7899 56.34424 553.0709 56.49463 553.3668 56.61719C 553.6627 56.73975 553.9676 56.83203 554.2817 56.89453C 554.5958 56.95703 554.913 56.98779 555.2332 56.98779C 555.5535 56.98779 555.8706 56.95703 556.1846 56.89453C 556.4987 56.83203 556.8036 56.73975 557.0995 56.61719C 557.3954 56.49463 557.6765 56.34424 557.9427 56.1665C 558.2089 55.98877 558.4553 55.78613 558.6818 55.56006C 558.9083 55.33398 559.1104 55.08789 559.2883 54.82129C 559.4662 54.55518 559.6165 54.27393 559.739 53.97803C 559.8616 53.68213 559.9541 53.37695 560.0165 53.06299C 560.079 52.74902 560.1103 52.43164 560.1103 52.11084z" stroke="#C3C4C3" stroke-width="0.7503152" fill="none" /><path transform="matrix(1 0 0 -1 0 841)" d="M487.7049 100.1313L594.9999 100.1313L594.9999 100.1313L594.9999 99.38086L594.9999 99.38086L487.7049 99.38086z" stroke="none" fill="#B5B6B5" fill-rule="winding" /><path transform="matrix(1 0 0 -1 0 841)" d="M0 100.1313L487.7049 100.1313L487.7049 100.1313L487.7049 99.38086L487.7049 99.38086L0 99.38086z" stroke="none" fill="#B5B6B5" fill-rule="winding" /><path transform="matrix(1 0 0 -1 0 841)" d="M487.7049 100.1313L488.4552 100.1313L488.4552 100.1313L488.4552 -1104.125L488.4552 -1104.125L487.7049 -1104.125z" stroke="none" fill="#B5B6B5" fill-rule="winding" /><g transform="matrix(0.7503152 0 0 0.7503151 14.25599 68.58582)"><g transform="matrix(1 0 0 1 0 0)"><image x="0" y="0" xlink:href="img_23.png" width="359" height="293" /></g></g><g transform="matrix(0.7503151 0 0 0.7503152 14.25599 358.2077)"><g transform="matrix(1 0 0 1 0 0)"><image x="0" y="0" xlink:href="img_24.png" width="423" height="138" /></g></g><g transform="matrix(0.7503152 0 0 0.7503152 14.25599 545.0359)"><g transform="matrix(1 0 0 1 0 0)"><image x="0" y="0" xlink:href="img_25.png" width="519" height="196" /></g></g></g></g></g></g></svg>