<svg xmlns="http://www.w3.org/2000/svg" xmlns:xlink="http://www.w3.org/1999/xlink" id="body_20" preserveAspectRatio="xMinYMin meet" viewBox="0 0 792 1121"><defs><clipPath id="1"><path d="M0 841L0 -0.9199829L0 -0.9199829L594.96 -0.9199829L594.96 -0.9199829L594.96 841L594.96 841L0 841z" /></clipPath><clipPath id="2"><path d="M0 -0.9199829L595.2 -0.9199829L595.2 -0.9199829L595.2 841.24L595.2 841.24L0 841.24z" /></clipPath><clipPath id="3"><path d="M0 55.07971L594.9999 55.07971L594.9999 55.07971L594.9999 790.3881L594.9999 790.3881L0 790.3881z" /></clipPath><clipPath id="4"><path d="M14.25599 99.34845L293.3733 99.34845L293.3733 99.34845L293.3733 100.0984L293.3733 100.0984L14.25599 100.0984z" /></clipPath><clipPath id="5"><path d="M14.25599 512.0219L293.3733 512.0219L293.3733 512.0219L293.3733 512.7719L293.3733 512.7719L14.25599 512.7719z" /></clipPath><clipPath id="6"><path d="M14.25599 735.6156L293.3733 735.6156L293.3733 735.6156L293.3733 736.3656L293.3733 736.3656L14.25599 736.3656z" /></clipPath><clipPath id="7"><path d="M302.377 237.4066L580.744 237.4066L580.744 237.4066L580.744 238.1566L580.744 238.1566L302.377 238.1566z" /></clipPath><clipPath id="8"><path d="M302.377 528.5284L580.744 528.5284L580.744 528.5284L580.744 529.2784L580.744 529.2784L302.377 529.2784z" /></clipPath><clipPath id="9"><path d="M0 55.07971L297.8752 55.07971L297.8752 55.07971L297.8752 790.3881L297.8752 790.3881L0 790.3881z" /></clipPath><clipPath id="10"><path d="M297.8752 55.07971L594.9999 55.07971L594.9999 55.07971L594.9999 790.3881L594.9999 790.3881L297.8752 790.3881z" /></clipPath><clipPath id="11"><path d="M0 55.07971L297.8752 55.07971L297.8752 55.07971L297.8752 790.3881L297.8752 790.3881L0 790.3881z" /></clipPath><clipPath id="12"><path d="M297.8752 55.07971L594.9999 55.07971L594.9999 55.07971L594.9999 790.3881L594.9999 790.3881L297.8752 790.3881z" /></clipPath></defs><g transform="matrix(1.333333 0 0 1.333333 0 0)"><g><g clip-path="url(#1)"><g clip-path="url(#2)"><path transform="matrix(1 0 0 -1 0 841)" d="M0 841.92L792.9999 841.92L792.9999 841.92L792.9999 -280.0799L792.9999 -280.0799L0 -280.0799z" stroke="none" fill="#FFFFFF" fill-rule="winding" /><path transform="matrix(1 0 0 -1 0 841)" d="M0 796.92L594.9999 796.92L594.9999 796.92L594.9999 795.92L594.9999 795.92L0 795.92z" stroke="none" fill="#B7B5B5" fill-rule="winding" /><g transform="matrix(0.1840659 0 0 0.1886792 510 12.08002)"><g transform="matrix(1 0 0 1 0 0)"><image x="0" y="0" xlink:href="img_01.png" width="364" height="106" /></g></g></g><g clip-path="url(#3)"><path transform="matrix(1 0 0 -1 0 841)" d="M0 14756.79L594.9999 14756.79L594.9999 14756.79L594.9999 -5469.459L594.9999 -5469.459L0 -5469.459z" stroke="none" fill="#FFFFFF" fill-rule="winding" /><path transform="matrix(1 0 0 -1 0 841)" d="M297.1248 1476.209L297.8751 1476.209L297.8751 1476.209L297.8751 -540.6387L297.8751 -540.6387L297.1248 -540.6387z" stroke="none" fill="#767D71" fill-rule="winding" /></g><g clip-path="url(#4)"><path transform="matrix(1 0 0 -1 0 841)" d="M291.1223 741.6504L293.3732 741.6504L293.3732 741.6504L293.3732 740.9004L293.3732 740.9004L291.1223 740.9004M287.3809 741.6504L289.6318 741.6504L289.6318 741.6504L289.6318 740.9004L289.6318 740.9004L287.3809 740.9004M283.6394 741.6504L285.8904 741.6504L285.8904 741.6504L285.8904 740.9004L285.8904 740.9004L283.6394 740.9004M279.898 741.6504L282.1489 741.6504L282.1489 741.6504L282.1489 740.9004L282.1489 740.9004L279.898 740.9004M276.1566 741.6504L278.4075 741.6504L278.4075 741.6504L278.4075 740.9004L278.4075 740.9004L276.1566 740.9004M272.4151 741.6504L274.666 741.6504L274.666 741.6504L274.666 740.9004L274.666 740.9004L272.4151 740.9004M268.6737 741.6504L270.9246 741.6504L270.9246 741.6504L270.9246 740.9004L270.9246 740.9004L268.6737 740.9004M264.9323 741.6504L267.1832 741.6504L267.1832 741.6504L267.1832 740.9004L267.1832 740.9004L264.9323 740.9004M261.1908 741.6504L263.4417 741.6504L263.4417 741.6504L263.4417 740.9004L263.4417 740.9004L261.1908 740.9004M257.4494 741.6504L259.7003 741.6504L259.7003 741.6504L259.7003 740.9004L259.7003 740.9004L257.4494 740.9004M253.7079 741.6504L255.9589 741.6504L255.9589 741.6504L255.9589 740.9004L255.9589 740.9004L253.7079 740.9004M249.9665 741.6504L252.2174 741.6504L252.2174 741.6504L252.2174 740.9004L252.2174 740.9004L249.9665 740.9004M246.2251 741.6504L248.476 741.6504L248.476 741.6504L248.476 740.9004L248.476 740.9004L246.2251 740.9004M242.4836 741.6504L244.7346 741.6504L244.7346 741.6504L244.7346 740.9004L244.7346 740.9004L242.4836 740.9004M238.7422 741.6504L240.9931 741.6504L240.9931 741.6504L240.9931 740.9004L240.9931 740.9004L238.7422 740.9004M235.0007 741.6504L237.2517 741.6504L237.2517 741.6504L237.2517 740.9004L237.2517 740.9004L235.0007 740.9004M231.2593 741.6504L233.5103 741.6504L233.5103 741.6504L233.5103 740.9004L233.5103 740.9004L231.2593 740.9004M227.5179 741.6504L229.7688 741.6504L229.7688 741.6504L229.7688 740.9004L229.7688 740.9004L227.5179 740.9004M223.7764 741.6504L226.0274 741.6504L226.0274 741.6504L226.0274 740.9004L226.0274 740.9004L223.7764 740.9004M220.035 741.6504L222.2859 741.6504L222.2859 741.6504L222.2859 740.9004L222.2859 740.9004L220.035 740.9004M216.2936 741.6504L218.5445 741.6504L218.5445 741.6504L218.5445 740.9004L218.5445 740.9004L216.2936 740.9004M212.5521 741.6504L214.8031 741.6504L214.8031 741.6504L214.8031 740.9004L214.8031 740.9004L212.5521 740.9004M208.8107 741.6504L211.0616 741.6504L211.0616 741.6504L211.0616 740.9004L211.0616 740.9004L208.8107 740.9004M205.0692 741.6504L207.3202 741.6504L207.3202 741.6504L207.3202 740.9004L207.3202 740.9004L205.0692 740.9004M201.3278 741.6504L203.5788 741.6504L203.5788 741.6504L203.5788 740.9004L203.5788 740.9004L201.3278 740.9004M197.5864 741.6504L199.8373 741.6504L199.8373 741.6504L199.8373 740.9004L199.8373 740.9004L197.5864 740.9004M193.8449 741.6504L196.0959 741.6504L196.0959 741.6504L196.0959 740.9004L196.0959 740.9004L193.8449 740.9004M190.1035 741.6504L192.3545 741.6504L192.3545 741.6504L192.3545 740.9004L192.3545 740.9004L190.1035 740.9004M186.3621 741.6504L188.613 741.6504L188.613 741.6504L188.613 740.9004L188.613 740.9004L186.3621 740.9004M182.6206 741.6504L184.8716 741.6504L184.8716 741.6504L184.8716 740.9004L184.8716 740.9004L182.6206 740.9004M178.8792 741.6504L181.1301 741.6504L181.1301 741.6504L181.1301 740.9004L181.1301 740.9004L178.8792 740.9004M175.1378 741.6504L177.3887 741.6504L177.3887 741.6504L177.3887 740.9004L177.3887 740.9004L175.1378 740.9004M171.3963 741.6504L173.6473 741.6504L173.6473 741.6504L173.6473 740.9004L173.6473 740.9004L171.3963 740.9004M167.6549 741.6504L169.9058 741.6504L169.9058 741.6504L169.9058 740.9004L169.9058 740.9004L167.6549 740.9004M163.9135 741.6504L166.1644 741.6504L166.1644 741.6504L166.1644 740.9004L166.1644 740.9004L163.9135 740.9004M160.172 741.6504L162.423 741.6504L162.423 741.6504L162.423 740.9004L162.423 740.9004L160.172 740.9004M156.4306 741.6504L158.6815 741.6504L158.6815 741.6504L158.6815 740.9004L158.6815 740.9004L156.4306 740.9004M152.6891 741.6504L154.9401 741.6504L154.9401 741.6504L154.9401 740.9004L154.9401 740.9004L152.6891 740.9004M148.9477 741.6504L151.1987 741.6504L151.1987 741.6504L151.1987 740.9004L151.1987 740.9004L148.9477 740.9004M145.2063 741.6504L147.4572 741.6504L147.4572 741.6504L147.4572 740.9004L147.4572 740.9004L145.2063 740.9004M141.4648 741.6504L143.7158 741.6504L143.7158 741.6504L143.7158 740.9004L143.7158 740.9004L141.4648 740.9004M137.7234 741.6504L139.9743 741.6504L139.9743 741.6504L139.9743 740.9004L139.9743 740.9004L137.7234 740.9004M133.982 741.6504L136.2329 741.6504L136.2329 741.6504L136.2329 740.9004L136.2329 740.9004L133.982 740.9004M130.2405 741.6504L132.4915 741.6504L132.4915 741.6504L132.4915 740.9004L132.4915 740.9004L130.2405 740.9004M126.4991 741.6504L128.75 741.6504L128.75 741.6504L128.75 740.9004L128.75 740.9004L126.4991 740.9004M122.7577 741.6504L125.0086 741.6504L125.0086 741.6504L125.0086 740.9004L125.0086 740.9004L122.7577 740.9004M119.0162 741.6504L121.2672 741.6504L121.2672 741.6504L121.2672 740.9004L121.2672 740.9004L119.0162 740.9004M115.2748 741.6504L117.5257 741.6504L117.5257 741.6504L117.5257 740.9004L117.5257 740.9004L115.2748 740.9004M111.5333 741.6504L113.7843 741.6504L113.7843 741.6504L113.7843 740.9004L113.7843 740.9004L111.5333 740.9004M107.7919 741.6504L110.0429 741.6504L110.0429 741.6504L110.0429 740.9004L110.0429 740.9004L107.7919 740.9004M104.0505 741.6504L106.3014 741.6504L106.3014 741.6504L106.3014 740.9004L106.3014 740.9004L104.0505 740.9004M100.309 741.6504L102.56 741.6504L102.56 741.6504L102.56 740.9004L102.56 740.9004L100.309 740.9004M96.56759 741.6504L98.81853 741.6504L98.81853 741.6504L98.81853 740.9004L98.81853 740.9004L96.56759 740.9004M92.82616 741.6504L95.0771 741.6504L95.0771 741.6504L95.0771 740.9004L95.0771 740.9004L92.82616 740.9004M89.08472 741.6504L91.33566 741.6504L91.33566 741.6504L91.33566 740.9004L91.33566 740.9004L89.08472 740.9004M85.34328 741.6504L87.59422 741.6504L87.59422 741.6504L87.59422 740.9004L87.59422 740.9004L85.34328 740.9004M81.60185 741.6504L83.85279 741.6504L83.85279 741.6504L83.85279 740.9004L83.85279 740.9004L81.60185 740.9004M77.86041 741.6504L80.11136 741.6504L80.11136 741.6504L80.11136 740.9004L80.11136 740.9004L77.86041 740.9004M74.11897 741.6504L76.36992 741.6504L76.36992 741.6504L76.36992 740.9004L76.36992 740.9004L74.11897 740.9004M70.37753 741.6504L72.62848 741.6504L72.62848 741.6504L72.62848 740.9004L72.62848 740.9004L70.37753 740.9004M66.63609 741.6504L68.88704 741.6504L68.88704 741.6504L68.88704 740.9004L68.88704 740.9004L66.63609 740.9004M62.89466 741.6504L65.14561 741.6504L65.14561 741.6504L65.14561 740.9004L65.14561 740.9004L62.89466 740.9004M59.15322 741.6504L61.40417 741.6504L61.40417 741.6504L61.40417 740.9004L61.40417 740.9004L59.15322 740.9004M55.41179 741.6504L57.66273 741.6504L57.66273 741.6504L57.66273 740.9004L57.66273 740.9004L55.41179 740.9004M51.67036 741.6504L53.9213 741.6504L53.9213 741.6504L53.9213 740.9004L53.9213 740.9004L51.67036 740.9004M47.92892 741.6504L50.17986 741.6504L50.17986 741.6504L50.17986 740.9004L50.17986 740.9004L47.92892 740.9004M44.18748 741.6504L46.43843 741.6504L46.43843 741.6504L46.43843 740.9004L46.43843 740.9004L44.18748 740.9004M40.44604 741.6504L42.69699 741.6504L42.69699 741.6504L42.69699 740.9004L42.69699 740.9004L40.44604 740.9004M36.70461 741.6504L38.95555 741.6504L38.95555 741.6504L38.95555 740.9004L38.95555 740.9004L36.70461 740.9004M32.96317 741.6504L35.21412 741.6504L35.21412 741.6504L35.21412 740.9004L35.21412 740.9004L32.96317 740.9004M29.22174 741.6504L31.47268 741.6504L31.47268 741.6504L31.47268 740.9004L31.47268 740.9004L29.22174 740.9004M25.4803 741.6504L27.73124 741.6504L27.73124 741.6504L27.73124 740.9004L27.73124 740.9004L25.4803 740.9004M21.73886 741.6504L23.98981 741.6504L23.98981 741.6504L23.98981 740.9004L23.98981 740.9004L21.73886 740.9004M17.99743 741.6504L20.24837 741.6504L20.24837 741.6504L20.24837 740.9004L20.24837 740.9004L17.99743 740.9004M14.25599 741.6504L16.50694 741.6504L16.50694 741.6504L16.50694 740.9004L16.50694 740.9004L14.25599 740.9004" stroke="none" fill="#E3E4E3" fill-rule="winding" /></g><g clip-path="url(#5)"><path transform="matrix(1 0 0 -1 0 841)" d="M291.1223 328.9775L293.3732 328.9775L293.3732 328.9775L293.3732 328.2266L293.3732 328.2266L291.1223 328.2266M287.3809 328.9775L289.6318 328.9775L289.6318 328.9775L289.6318 328.2266L289.6318 328.2266L287.3809 328.2266M283.6394 328.9775L285.8904 328.9775L285.8904 328.9775L285.8904 328.2266L285.8904 328.2266L283.6394 328.2266M279.898 328.9775L282.1489 328.9775L282.1489 328.9775L282.1489 328.2266L282.1489 328.2266L279.898 328.2266M276.1566 328.9775L278.4075 328.9775L278.4075 328.9775L278.4075 328.2266L278.4075 328.2266L276.1566 328.2266M272.4151 328.9775L274.666 328.9775L274.666 328.9775L274.666 328.2266L274.666 328.2266L272.4151 328.2266M268.6737 328.9775L270.9246 328.9775L270.9246 328.9775L270.9246 328.2266L270.9246 328.2266L268.6737 328.2266M264.9323 328.9775L267.1832 328.9775L267.1832 328.9775L267.1832 328.2266L267.1832 328.2266L264.9323 328.2266M261.1908 328.9775L263.4417 328.9775L263.4417 328.9775L263.4417 328.2266L263.4417 328.2266L261.1908 328.2266M257.4494 328.9775L259.7003 328.9775L259.7003 328.9775L259.7003 328.2266L259.7003 328.2266L257.4494 328.2266M253.7079 328.9775L255.9589 328.9775L255.9589 328.9775L255.9589 328.2266L255.9589 328.2266L253.7079 328.2266M249.9665 328.9775L252.2174 328.9775L252.2174 328.9775L252.2174 328.2266L252.2174 328.2266L249.9665 328.2266M246.2251 328.9775L248.476 328.9775L248.476 328.9775L248.476 328.2266L248.476 328.2266L246.2251 328.2266M242.4836 328.9775L244.7346 328.9775L244.7346 328.9775L244.7346 328.2266L244.7346 328.2266L242.4836 328.2266M238.7422 328.9775L240.9931 328.9775L240.9931 328.9775L240.9931 328.2266L240.9931 328.2266L238.7422 328.2266M235.0007 328.9775L237.2517 328.9775L237.2517 328.9775L237.2517 328.2266L237.2517 328.2266L235.0007 328.2266M231.2593 328.9775L233.5103 328.9775L233.5103 328.9775L233.5103 328.2266L233.5103 328.2266L231.2593 328.2266M227.5179 328.9775L229.7688 328.9775L229.7688 328.9775L229.7688 328.2266L229.7688 328.2266L227.5179 328.2266M223.7764 328.9775L226.0274 328.9775L226.0274 328.9775L226.0274 328.2266L226.0274 328.2266L223.7764 328.2266M220.035 328.9775L222.2859 328.9775L222.2859 328.9775L222.2859 328.2266L222.2859 328.2266L220.035 328.2266M216.2936 328.9775L218.5445 328.9775L218.5445 328.9775L218.5445 328.2266L218.5445 328.2266L216.2936 328.2266M212.5521 328.9775L214.8031 328.9775L214.8031 328.9775L214.8031 328.2266L214.8031 328.2266L212.5521 328.2266M208.8107 328.9775L211.0616 328.9775L211.0616 328.9775L211.0616 328.2266L211.0616 328.2266L208.8107 328.2266M205.0692 328.9775L207.3202 328.9775L207.3202 328.9775L207.3202 328.2266L207.3202 328.2266L205.0692 328.2266M201.3278 328.9775L203.5788 328.9775L203.5788 328.9775L203.5788 328.2266L203.5788 328.2266L201.3278 328.2266M197.5864 328.9775L199.8373 328.9775L199.8373 328.9775L199.8373 328.2266L199.8373 328.2266L197.5864 328.2266M193.8449 328.9775L196.0959 328.9775L196.0959 328.9775L196.0959 328.2266L196.0959 328.2266L193.8449 328.2266M190.1035 328.9775L192.3545 328.9775L192.3545 328.9775L192.3545 328.2266L192.3545 328.2266L190.1035 328.2266M186.3621 328.9775L188.613 328.9775L188.613 328.9775L188.613 328.2266L188.613 328.2266L186.3621 328.2266M182.6206 328.9775L184.8716 328.9775L184.8716 328.9775L184.8716 328.2266L184.8716 328.2266L182.6206 328.2266M178.8792 328.9775L181.1301 328.9775L181.1301 328.9775L181.1301 328.2266L181.1301 328.2266L178.8792 328.2266M175.1378 328.9775L177.3887 328.9775L177.3887 328.9775L177.3887 328.2266L177.3887 328.2266L175.1378 328.2266M171.3963 328.9775L173.6473 328.9775L173.6473 328.9775L173.6473 328.2266L173.6473 328.2266L171.3963 328.2266M167.6549 328.9775L169.9058 328.9775L169.9058 328.9775L169.9058 328.2266L169.9058 328.2266L167.6549 328.2266M163.9135 328.9775L166.1644 328.9775L166.1644 328.9775L166.1644 328.2266L166.1644 328.2266L163.9135 328.2266M160.172 328.9775L162.423 328.9775L162.423 328.9775L162.423 328.2266L162.423 328.2266L160.172 328.2266M156.4306 328.9775L158.6815 328.9775L158.6815 328.9775L158.6815 328.2266L158.6815 328.2266L156.4306 328.2266M152.6891 328.9775L154.9401 328.9775L154.9401 328.9775L154.9401 328.2266L154.9401 328.2266L152.6891 328.2266M148.9477 328.9775L151.1987 328.9775L151.1987 328.9775L151.1987 328.2266L151.1987 328.2266L148.9477 328.2266M145.2063 328.9775L147.4572 328.9775L147.4572 328.9775L147.4572 328.2266L147.4572 328.2266L145.2063 328.2266M141.4648 328.9775L143.7158 328.9775L143.7158 328.9775L143.7158 328.2266L143.7158 328.2266L141.4648 328.2266M137.7234 328.9775L139.9743 328.9775L139.9743 328.9775L139.9743 328.2266L139.9743 328.2266L137.7234 328.2266M133.982 328.9775L136.2329 328.9775L136.2329 328.9775L136.2329 328.2266L136.2329 328.2266L133.982 328.2266M130.2405 328.9775L132.4915 328.9775L132.4915 328.9775L132.4915 328.2266L132.4915 328.2266L130.2405 328.2266M126.4991 328.9775L128.75 328.9775L128.75 328.9775L128.75 328.2266L128.75 328.2266L126.4991 328.2266M122.7577 328.9775L125.0086 328.9775L125.0086 328.9775L125.0086 328.2266L125.0086 328.2266L122.7577 328.2266M119.0162 328.9775L121.2672 328.9775L121.2672 328.9775L121.2672 328.2266L121.2672 328.2266L119.0162 328.2266M115.2748 328.9775L117.5257 328.9775L117.5257 328.9775L117.5257 328.2266L117.5257 328.2266L115.2748 328.2266M111.5333 328.9775L113.7843 328.9775L113.7843 328.9775L113.7843 328.2266L113.7843 328.2266L111.5333 328.2266M107.7919 328.9775L110.0429 328.9775L110.0429 328.9775L110.0429 328.2266L110.0429 328.2266L107.7919 328.2266M104.0505 328.9775L106.3014 328.9775L106.3014 328.9775L106.3014 328.2266L106.3014 328.2266L104.0505 328.2266M100.309 328.9775L102.56 328.9775L102.56 328.9775L102.56 328.2266L102.56 328.2266L100.309 328.2266M96.56759 328.9775L98.81853 328.9775L98.81853 328.9775L98.81853 328.2266L98.81853 328.2266L96.56759 328.2266M92.82616 328.9775L95.0771 328.9775L95.0771 328.9775L95.0771 328.2266L95.0771 328.2266L92.82616 328.2266M89.08472 328.9775L91.33566 328.9775L91.33566 328.9775L91.33566 328.2266L91.33566 328.2266L89.08472 328.2266M85.34328 328.9775L87.59422 328.9775L87.59422 328.9775L87.59422 328.2266L87.59422 328.2266L85.34328 328.2266M81.60185 328.9775L83.85279 328.9775L83.85279 328.9775L83.85279 328.2266L83.85279 328.2266L81.60185 328.2266M77.86041 328.9775L80.11136 328.9775L80.11136 328.9775L80.11136 328.2266L80.11136 328.2266L77.86041 328.2266M74.11897 328.9775L76.36992 328.9775L76.36992 328.9775L76.36992 328.2266L76.36992 328.2266L74.11897 328.2266M70.37753 328.9775L72.62848 328.9775L72.62848 328.9775L72.62848 328.2266L72.62848 328.2266L70.37753 328.2266M66.63609 328.9775L68.88704 328.9775L68.88704 328.9775L68.88704 328.2266L68.88704 328.2266L66.63609 328.2266M62.89466 328.9775L65.14561 328.9775L65.14561 328.9775L65.14561 328.2266L65.14561 328.2266L62.89466 328.2266M59.15322 328.9775L61.40417 328.9775L61.40417 328.9775L61.40417 328.2266L61.40417 328.2266L59.15322 328.2266M55.41179 328.9775L57.66273 328.9775L57.66273 328.9775L57.66273 328.2266L57.66273 328.2266L55.41179 328.2266M51.67036 328.9775L53.9213 328.9775L53.9213 328.9775L53.9213 328.2266L53.9213 328.2266L51.67036 328.2266M47.92892 328.9775L50.17986 328.9775L50.17986 328.9775L50.17986 328.2266L50.17986 328.2266L47.92892 328.2266M44.18748 328.9775L46.43843 328.9775L46.43843 328.9775L46.43843 328.2266L46.43843 328.2266L44.18748 328.2266M40.44604 328.9775L42.69699 328.9775L42.69699 328.9775L42.69699 328.2266L42.69699 328.2266L40.44604 328.2266M36.70461 328.9775L38.95555 328.9775L38.95555 328.9775L38.95555 328.2266L38.95555 328.2266L36.70461 328.2266M32.96317 328.9775L35.21412 328.9775L35.21412 328.9775L35.21412 328.2266L35.21412 328.2266L32.96317 328.2266M29.22174 328.9775L31.47268 328.9775L31.47268 328.9775L31.47268 328.2266L31.47268 328.2266L29.22174 328.2266M25.4803 328.9775L27.73124 328.9775L27.73124 328.9775L27.73124 328.2266L27.73124 328.2266L25.4803 328.2266M21.73886 328.9775L23.98981 328.9775L23.98981 328.9775L23.98981 328.2266L23.98981 328.2266L21.73886 328.2266M17.99743 328.9775L20.24837 328.9775L20.24837 328.9775L20.24837 328.2266L20.24837 328.2266L17.99743 328.2266M14.25599 328.9775L16.50694 328.9775L16.50694 328.9775L16.50694 328.2266L16.50694 328.2266L14.25599 328.2266" stroke="none" fill="#E3E4E3" fill-rule="winding" /></g><g clip-path="url(#6)"><path transform="matrix(1 0 0 -1 0 841)" d="M291.1223 105.3828L293.3732 105.3828L293.3732 105.3828L293.3732 104.6328L293.3732 104.6328L291.1223 104.6328M287.3809 105.3828L289.6318 105.3828L289.6318 105.3828L289.6318 104.6328L289.6318 104.6328L287.3809 104.6328M283.6394 105.3828L285.8904 105.3828L285.8904 105.3828L285.8904 104.6328L285.8904 104.6328L283.6394 104.6328M279.898 105.3828L282.1489 105.3828L282.1489 105.3828L282.1489 104.6328L282.1489 104.6328L279.898 104.6328M276.1566 105.3828L278.4075 105.3828L278.4075 105.3828L278.4075 104.6328L278.4075 104.6328L276.1566 104.6328M272.4151 105.3828L274.666 105.3828L274.666 105.3828L274.666 104.6328L274.666 104.6328L272.4151 104.6328M268.6737 105.3828L270.9246 105.3828L270.9246 105.3828L270.9246 104.6328L270.9246 104.6328L268.6737 104.6328M264.9323 105.3828L267.1832 105.3828L267.1832 105.3828L267.1832 104.6328L267.1832 104.6328L264.9323 104.6328M261.1908 105.3828L263.4417 105.3828L263.4417 105.3828L263.4417 104.6328L263.4417 104.6328L261.1908 104.6328M257.4494 105.3828L259.7003 105.3828L259.7003 105.3828L259.7003 104.6328L259.7003 104.6328L257.4494 104.6328M253.7079 105.3828L255.9589 105.3828L255.9589 105.3828L255.9589 104.6328L255.9589 104.6328L253.7079 104.6328M249.9665 105.3828L252.2174 105.3828L252.2174 105.3828L252.2174 104.6328L252.2174 104.6328L249.9665 104.6328M246.2251 105.3828L248.476 105.3828L248.476 105.3828L248.476 104.6328L248.476 104.6328L246.2251 104.6328M242.4836 105.3828L244.7346 105.3828L244.7346 105.3828L244.7346 104.6328L244.7346 104.6328L242.4836 104.6328M238.7422 105.3828L240.9931 105.3828L240.9931 105.3828L240.9931 104.6328L240.9931 104.6328L238.7422 104.6328M235.0007 105.3828L237.2517 105.3828L237.2517 105.3828L237.2517 104.6328L237.2517 104.6328L235.0007 104.6328M231.2593 105.3828L233.5103 105.3828L233.5103 105.3828L233.5103 104.6328L233.5103 104.6328L231.2593 104.6328M227.5179 105.3828L229.7688 105.3828L229.7688 105.3828L229.7688 104.6328L229.7688 104.6328L227.5179 104.6328M223.7764 105.3828L226.0274 105.3828L226.0274 105.3828L226.0274 104.6328L226.0274 104.6328L223.7764 104.6328M220.035 105.3828L222.2859 105.3828L222.2859 105.3828L222.2859 104.6328L222.2859 104.6328L220.035 104.6328M216.2936 105.3828L218.5445 105.3828L218.5445 105.3828L218.5445 104.6328L218.5445 104.6328L216.2936 104.6328M212.5521 105.3828L214.8031 105.3828L214.8031 105.3828L214.8031 104.6328L214.8031 104.6328L212.5521 104.6328M208.8107 105.3828L211.0616 105.3828L211.0616 105.3828L211.0616 104.6328L211.0616 104.6328L208.8107 104.6328M205.0692 105.3828L207.3202 105.3828L207.3202 105.3828L207.3202 104.6328L207.3202 104.6328L205.0692 104.6328M201.3278 105.3828L203.5788 105.3828L203.5788 105.3828L203.5788 104.6328L203.5788 104.6328L201.3278 104.6328M197.5864 105.3828L199.8373 105.3828L199.8373 105.3828L199.8373 104.6328L199.8373 104.6328L197.5864 104.6328M193.8449 105.3828L196.0959 105.3828L196.0959 105.3828L196.0959 104.6328L196.0959 104.6328L193.8449 104.6328M190.1035 105.3828L192.3545 105.3828L192.3545 105.3828L192.3545 104.6328L192.3545 104.6328L190.1035 104.6328M186.3621 105.3828L188.613 105.3828L188.613 105.3828L188.613 104.6328L188.613 104.6328L186.3621 104.6328M182.6206 105.3828L184.8716 105.3828L184.8716 105.3828L184.8716 104.6328L184.8716 104.6328L182.6206 104.6328M178.8792 105.3828L181.1301 105.3828L181.1301 105.3828L181.1301 104.6328L181.1301 104.6328L178.8792 104.6328M175.1378 105.3828L177.3887 105.3828L177.3887 105.3828L177.3887 104.6328L177.3887 104.6328L175.1378 104.6328M171.3963 105.3828L173.6473 105.3828L173.6473 105.3828L173.6473 104.6328L173.6473 104.6328L171.3963 104.6328M167.6549 105.3828L169.9058 105.3828L169.9058 105.3828L169.9058 104.6328L169.9058 104.6328L167.6549 104.6328M163.9135 105.3828L166.1644 105.3828L166.1644 105.3828L166.1644 104.6328L166.1644 104.6328L163.9135 104.6328M160.172 105.3828L162.423 105.3828L162.423 105.3828L162.423 104.6328L162.423 104.6328L160.172 104.6328M156.4306 105.3828L158.6815 105.3828L158.6815 105.3828L158.6815 104.6328L158.6815 104.6328L156.4306 104.6328M152.6891 105.3828L154.9401 105.3828L154.9401 105.3828L154.9401 104.6328L154.9401 104.6328L152.6891 104.6328M148.9477 105.3828L151.1987 105.3828L151.1987 105.3828L151.1987 104.6328L151.1987 104.6328L148.9477 104.6328M145.2063 105.3828L147.4572 105.3828L147.4572 105.3828L147.4572 104.6328L147.4572 104.6328L145.2063 104.6328M141.4648 105.3828L143.7158 105.3828L143.7158 105.3828L143.7158 104.6328L143.7158 104.6328L141.4648 104.6328M137.7234 105.3828L139.9743 105.3828L139.9743 105.3828L139.9743 104.6328L139.9743 104.6328L137.7234 104.6328M133.982 105.3828L136.2329 105.3828L136.2329 105.3828L136.2329 104.6328L136.2329 104.6328L133.982 104.6328M130.2405 105.3828L132.4915 105.3828L132.4915 105.3828L132.4915 104.6328L132.4915 104.6328L130.2405 104.6328M126.4991 105.3828L128.75 105.3828L128.75 105.3828L128.75 104.6328L128.75 104.6328L126.4991 104.6328M122.7577 105.3828L125.0086 105.3828L125.0086 105.3828L125.0086 104.6328L125.0086 104.6328L122.7577 104.6328M119.0162 105.3828L121.2672 105.3828L121.2672 105.3828L121.2672 104.6328L121.2672 104.6328L119.0162 104.6328M115.2748 105.3828L117.5257 105.3828L117.5257 105.3828L117.5257 104.6328L117.5257 104.6328L115.2748 104.6328M111.5333 105.3828L113.7843 105.3828L113.7843 105.3828L113.7843 104.6328L113.7843 104.6328L111.5333 104.6328M107.7919 105.3828L110.0429 105.3828L110.0429 105.3828L110.0429 104.6328L110.0429 104.6328L107.7919 104.6328M104.0505 105.3828L106.3014 105.3828L106.3014 105.3828L106.3014 104.6328L106.3014 104.6328L104.0505 104.6328M100.309 105.3828L102.56 105.3828L102.56 105.3828L102.56 104.6328L102.56 104.6328L100.309 104.6328M96.56759 105.3828L98.81853 105.3828L98.81853 105.3828L98.81853 104.6328L98.81853 104.6328L96.56759 104.6328M92.82616 105.3828L95.0771 105.3828L95.0771 105.3828L95.0771 104.6328L95.0771 104.6328L92.82616 104.6328M89.08472 105.3828L91.33566 105.3828L91.33566 105.3828L91.33566 104.6328L91.33566 104.6328L89.08472 104.6328M85.34328 105.3828L87.59422 105.3828L87.59422 105.3828L87.59422 104.6328L87.59422 104.6328L85.34328 104.6328M81.60185 105.3828L83.85279 105.3828L83.85279 105.3828L83.85279 104.6328L83.85279 104.6328L81.60185 104.6328M77.86041 105.3828L80.11136 105.3828L80.11136 105.3828L80.11136 104.6328L80.11136 104.6328L77.86041 104.6328M74.11897 105.3828L76.36992 105.3828L76.36992 105.3828L76.36992 104.6328L76.36992 104.6328L74.11897 104.6328M70.37753 105.3828L72.62848 105.3828L72.62848 105.3828L72.62848 104.6328L72.62848 104.6328L70.37753 104.6328M66.63609 105.3828L68.88704 105.3828L68.88704 105.3828L68.88704 104.6328L68.88704 104.6328L66.63609 104.6328M62.89466 105.3828L65.14561 105.3828L65.14561 105.3828L65.14561 104.6328L65.14561 104.6328L62.89466 104.6328M59.15322 105.3828L61.40417 105.3828L61.40417 105.3828L61.40417 104.6328L61.40417 104.6328L59.15322 104.6328M55.41179 105.3828L57.66273 105.3828L57.66273 105.3828L57.66273 104.6328L57.66273 104.6328L55.41179 104.6328M51.67036 105.3828L53.9213 105.3828L53.9213 105.3828L53.9213 104.6328L53.9213 104.6328L51.67036 104.6328M47.92892 105.3828L50.17986 105.3828L50.17986 105.3828L50.17986 104.6328L50.17986 104.6328L47.92892 104.6328M44.18748 105.3828L46.43843 105.3828L46.43843 105.3828L46.43843 104.6328L46.43843 104.6328L44.18748 104.6328M40.44604 105.3828L42.69699 105.3828L42.69699 105.3828L42.69699 104.6328L42.69699 104.6328L40.44604 104.6328M36.70461 105.3828L38.95555 105.3828L38.95555 105.3828L38.95555 104.6328L38.95555 104.6328L36.70461 104.6328M32.96317 105.3828L35.21412 105.3828L35.21412 105.3828L35.21412 104.6328L35.21412 104.6328L32.96317 104.6328M29.22174 105.3828L31.47268 105.3828L31.47268 105.3828L31.47268 104.6328L31.47268 104.6328L29.22174 104.6328M25.4803 105.3828L27.73124 105.3828L27.73124 105.3828L27.73124 104.6328L27.73124 104.6328L25.4803 104.6328M21.73886 105.3828L23.98981 105.3828L23.98981 105.3828L23.98981 104.6328L23.98981 104.6328L21.73886 104.6328M17.99743 105.3828L20.24837 105.3828L20.24837 105.3828L20.24837 104.6328L20.24837 104.6328L17.99743 104.6328M14.25599 105.3828L16.50694 105.3828L16.50694 105.3828L16.50694 104.6328L16.50694 104.6328L14.25599 104.6328" stroke="none" fill="#E3E4E3" fill-rule="winding" /></g><g clip-path="url(#7)"><path transform="matrix(1 0 0 -1 0 841)" d="M578.493 603.5928L580.744 603.5928L580.744 603.5928L580.744 602.8418L580.744 602.8418L578.493 602.8418M574.7617 603.5928L577.0127 603.5928L577.0127 603.5928L577.0127 602.8418L577.0127 602.8418L574.7617 602.8418M571.0305 603.5928L573.2814 603.5928L573.2814 603.5928L573.2814 602.8418L573.2814 602.8418L571.0305 602.8418M567.2991 603.5928L569.55 603.5928L569.55 603.5928L569.55 602.8418L569.55 602.8418L567.2991 602.8418M563.5679 603.5928L565.8188 603.5928L565.8188 603.5928L565.8188 602.8418L565.8188 602.8418L563.5679 602.8418M559.8365 603.5928L562.0875 603.5928L562.0875 603.5928L562.0875 602.8418L562.0875 602.8418L559.8365 602.8418M556.1052 603.5928L558.3562 603.5928L558.3562 603.5928L558.3562 602.8418L558.3562 602.8418L556.1052 602.8418M552.374 603.5928L554.6249 603.5928L554.6249 603.5928L554.6249 602.8418L554.6249 602.8418L552.374 602.8418M548.6426 603.5928L550.8936 603.5928L550.8936 603.5928L550.8936 602.8418L550.8936 602.8418L548.6426 602.8418M544.9114 603.5928L547.1623 603.5928L547.1623 603.5928L547.1623 602.8418L547.1623 602.8418L544.9114 602.8418M541.1801 603.5928L543.431 603.5928L543.431 603.5928L543.431 602.8418L543.431 602.8418L541.1801 602.8418M537.4487 603.5928L539.6997 603.5928L539.6997 603.5928L539.6997 602.8418L539.6997 602.8418L537.4487 602.8418M533.7175 603.5928L535.9684 603.5928L535.9684 603.5928L535.9684 602.8418L535.9684 602.8418L533.7175 602.8418M529.9861 603.5928L532.2371 603.5928L532.2371 603.5928L532.2371 602.8418L532.2371 602.8418L529.9861 602.8418M526.2549 603.5928L528.5058 603.5928L528.5058 603.5928L528.5058 602.8418L528.5058 602.8418L526.2549 602.8418M522.5236 603.5928L524.7745 603.5928L524.7745 603.5928L524.7745 602.8418L524.7745 602.8418L522.5236 602.8418M518.7922 603.5928L521.0432 603.5928L521.0432 603.5928L521.0432 602.8418L521.0432 602.8418L518.7922 602.8418M515.061 603.5928L517.3119 603.5928L517.3119 603.5928L517.3119 602.8418L517.3119 602.8418L515.061 602.8418M511.3296 603.5928L513.5806 603.5928L513.5806 603.5928L513.5806 602.8418L513.5806 602.8418L511.3296 602.8418M507.5984 603.5928L509.8493 603.5928L509.8493 603.5928L509.8493 602.8418L509.8493 602.8418L507.5984 602.8418M503.8671 603.5928L506.118 603.5928L506.118 603.5928L506.118 602.8418L506.118 602.8418L503.8671 602.8418M500.1358 603.5928L502.3867 603.5928L502.3867 603.5928L502.3867 602.8418L502.3867 602.8418L500.1358 602.8418M496.4045 603.5928L498.6554 603.5928L498.6554 603.5928L498.6554 602.8418L498.6554 602.8418L496.4045 602.8418M492.6732 603.5928L494.9241 603.5928L494.9241 603.5928L494.9241 602.8418L494.9241 602.8418L492.6732 602.8418M488.9419 603.5928L491.1928 603.5928L491.1928 603.5928L491.1928 602.8418L491.1928 602.8418L488.9419 602.8418M485.2106 603.5928L487.4615 603.5928L487.4615 603.5928L487.4615 602.8418L487.4615 602.8418L485.2106 602.8418M481.4793 603.5928L483.7302 603.5928L483.7302 603.5928L483.7302 602.8418L483.7302 602.8418L481.4793 602.8418M477.748 603.5928L479.9989 603.5928L479.9989 603.5928L479.9989 602.8418L479.9989 602.8418L477.748 602.8418M474.0167 603.5928L476.2676 603.5928L476.2676 603.5928L476.2676 602.8418L476.2676 602.8418L474.0167 602.8418M470.2854 603.5928L472.5363 603.5928L472.5363 603.5928L472.5363 602.8418L472.5363 602.8418L470.2854 602.8418M466.5541 603.5928L468.805 603.5928L468.805 603.5928L468.805 602.8418L468.805 602.8418L466.5541 602.8418M462.8228 603.5928L465.0737 603.5928L465.0737 603.5928L465.0737 602.8418L465.0737 602.8418L462.8228 602.8418M459.0915 603.5928L461.3424 603.5928L461.3424 603.5928L461.3424 602.8418L461.3424 602.8418L459.0915 602.8418M455.3602 603.5928L457.6112 603.5928L457.6112 603.5928L457.6112 602.8418L457.6112 602.8418L455.3602 602.8418M451.6289 603.5928L453.8799 603.5928L453.8799 603.5928L453.8799 602.8418L453.8799 602.8418L451.6289 602.8418M447.8976 603.5928L450.1485 603.5928L450.1485 603.5928L450.1485 602.8418L450.1485 602.8418L447.8976 602.8418M444.1663 603.5928L446.4172 603.5928L446.4172 603.5928L446.4172 602.8418L446.4172 602.8418L444.1663 602.8418M440.435 603.5928L442.686 603.5928L442.686 603.5928L442.686 602.8418L442.686 602.8418L440.435 602.8418M436.7037 603.5928L438.9547 603.5928L438.9547 603.5928L438.9547 602.8418L438.9547 602.8418L436.7037 602.8418M432.9724 603.5928L435.2234 603.5928L435.2234 603.5928L435.2234 602.8418L435.2234 602.8418L432.9724 602.8418M429.2411 603.5928L431.4921 603.5928L431.4921 603.5928L431.4921 602.8418L431.4921 602.8418L429.2411 602.8418M425.5098 603.5928L427.7608 603.5928L427.7608 603.5928L427.7608 602.8418L427.7608 602.8418L425.5098 602.8418M421.7785 603.5928L424.0295 603.5928L424.0295 603.5928L424.0295 602.8418L424.0295 602.8418L421.7785 602.8418M418.0472 603.5928L420.2982 603.5928L420.2982 603.5928L420.2982 602.8418L420.2982 602.8418L418.0472 602.8418M414.3159 603.5928L416.5669 603.5928L416.5669 603.5928L416.5669 602.8418L416.5669 602.8418L414.3159 602.8418M410.5846 603.5928L412.8356 603.5928L412.8356 603.5928L412.8356 602.8418L412.8356 602.8418L410.5846 602.8418M406.8533 603.5928L409.1043 603.5928L409.1043 603.5928L409.1043 602.8418L409.1043 602.8418L406.8533 602.8418M403.122 603.5928L405.373 603.5928L405.373 603.5928L405.373 602.8418L405.373 602.8418L403.122 602.8418M399.3907 603.5928L401.6417 603.5928L401.6417 603.5928L401.6417 602.8418L401.6417 602.8418L399.3907 602.8418M395.6595 603.5928L397.9104 603.5928L397.9104 603.5928L397.9104 602.8418L397.9104 602.8418L395.6595 602.8418M391.9281 603.5928L394.1791 603.5928L394.1791 603.5928L394.1791 602.8418L394.1791 602.8418L391.9281 602.8418M388.1968 603.5928L390.4478 603.5928L390.4478 603.5928L390.4478 602.8418L390.4478 602.8418L388.1968 602.8418M384.4655 603.5928L386.7165 603.5928L386.7165 603.5928L386.7165 602.8418L386.7165 602.8418L384.4655 602.8418M380.7343 603.5928L382.9852 603.5928L382.9852 603.5928L382.9852 602.8418L382.9852 602.8418L380.7343 602.8418M377.003 603.5928L379.2539 603.5928L379.2539 603.5928L379.2539 602.8418L379.2539 602.8418L377.003 602.8418M373.2717 603.5928L375.5226 603.5928L375.5226 603.5928L375.5226 602.8418L375.5226 602.8418L373.2717 602.8418M369.5404 603.5928L371.7913 603.5928L371.7913 603.5928L371.7913 602.8418L371.7913 602.8418L369.5404 602.8418M365.8091 603.5928L368.06 603.5928L368.06 603.5928L368.06 602.8418L368.06 602.8418L365.8091 602.8418M362.0778 603.5928L364.3287 603.5928L364.3287 603.5928L364.3287 602.8418L364.3287 602.8418L362.0778 602.8418M358.3465 603.5928L360.5974 603.5928L360.5974 603.5928L360.5974 602.8418L360.5974 602.8418L358.3465 602.8418M354.6152 603.5928L356.8661 603.5928L356.8661 603.5928L356.8661 602.8418L356.8661 602.8418L354.6152 602.8418M350.8839 603.5928L353.1348 603.5928L353.1348 603.5928L353.1348 602.8418L353.1348 602.8418L350.8839 602.8418M347.1526 603.5928L349.4035 603.5928L349.4035 603.5928L349.4035 602.8418L349.4035 602.8418L347.1526 602.8418M343.4213 603.5928L345.6722 603.5928L345.6722 603.5928L345.6722 602.8418L345.6722 602.8418L343.4213 602.8418M339.69 603.5928L341.9409 603.5928L341.9409 603.5928L341.9409 602.8418L341.9409 602.8418L339.69 602.8418M335.9587 603.5928L338.2096 603.5928L338.2096 603.5928L338.2096 602.8418L338.2096 602.8418L335.9587 602.8418M332.2274 603.5928L334.4783 603.5928L334.4783 603.5928L334.4783 602.8418L334.4783 602.8418L332.2274 602.8418M328.4961 603.5928L330.747 603.5928L330.747 603.5928L330.747 602.8418L330.747 602.8418L328.4961 602.8418M324.7648 603.5928L327.0157 603.5928L327.0157 603.5928L327.0157 602.8418L327.0157 602.8418L324.7648 602.8418M321.0335 603.5928L323.2845 603.5928L323.2845 603.5928L323.2845 602.8418L323.2845 602.8418L321.0335 602.8418M317.3022 603.5928L319.5532 603.5928L319.5532 603.5928L319.5532 602.8418L319.5532 602.8418L317.3022 602.8418M313.5709 603.5928L315.8219 603.5928L315.8219 603.5928L315.8219 602.8418L315.8219 602.8418L313.5709 602.8418M309.8396 603.5928L312.0906 603.5928L312.0906 603.5928L312.0906 602.8418L312.0906 602.8418L309.8396 602.8418M306.1083 603.5928L308.3593 603.5928L308.3593 603.5928L308.3593 602.8418L308.3593 602.8418L306.1083 602.8418M302.377 603.5928L304.628 603.5928L304.628 603.5928L304.628 602.8418L304.628 602.8418L302.377 602.8418" stroke="none" fill="#E3E4E3" fill-rule="winding" /></g><g clip-path="url(#8)"><path transform="matrix(1 0 0 -1 0 841)" d="M578.493 312.4697L580.744 312.4697L580.744 312.4697L580.744 311.7197L580.744 311.7197L578.493 311.7197M574.7617 312.4697L577.0127 312.4697L577.0127 312.4697L577.0127 311.7197L577.0127 311.7197L574.7617 311.7197M571.0305 312.4697L573.2814 312.4697L573.2814 312.4697L573.2814 311.7197L573.2814 311.7197L571.0305 311.7197M567.2991 312.4697L569.55 312.4697L569.55 312.4697L569.55 311.7197L569.55 311.7197L567.2991 311.7197M563.5679 312.4697L565.8188 312.4697L565.8188 312.4697L565.8188 311.7197L565.8188 311.7197L563.5679 311.7197M559.8365 312.4697L562.0875 312.4697L562.0875 312.4697L562.0875 311.7197L562.0875 311.7197L559.8365 311.7197M556.1052 312.4697L558.3562 312.4697L558.3562 312.4697L558.3562 311.7197L558.3562 311.7197L556.1052 311.7197M552.374 312.4697L554.6249 312.4697L554.6249 312.4697L554.6249 311.7197L554.6249 311.7197L552.374 311.7197M548.6426 312.4697L550.8936 312.4697L550.8936 312.4697L550.8936 311.7197L550.8936 311.7197L548.6426 311.7197M544.9114 312.4697L547.1623 312.4697L547.1623 312.4697L547.1623 311.7197L547.1623 311.7197L544.9114 311.7197M541.1801 312.4697L543.431 312.4697L543.431 312.4697L543.431 311.7197L543.431 311.7197L541.1801 311.7197M537.4487 312.4697L539.6997 312.4697L539.6997 312.4697L539.6997 311.7197L539.6997 311.7197L537.4487 311.7197M533.7175 312.4697L535.9684 312.4697L535.9684 312.4697L535.9684 311.7197L535.9684 311.7197L533.7175 311.7197M529.9861 312.4697L532.2371 312.4697L532.2371 312.4697L532.2371 311.7197L532.2371 311.7197L529.9861 311.7197M526.2549 312.4697L528.5058 312.4697L528.5058 312.4697L528.5058 311.7197L528.5058 311.7197L526.2549 311.7197M522.5236 312.4697L524.7745 312.4697L524.7745 312.4697L524.7745 311.7197L524.7745 311.7197L522.5236 311.7197M518.7922 312.4697L521.0432 312.4697L521.0432 312.4697L521.0432 311.7197L521.0432 311.7197L518.7922 311.7197M515.061 312.4697L517.3119 312.4697L517.3119 312.4697L517.3119 311.7197L517.3119 311.7197L515.061 311.7197M511.3296 312.4697L513.5806 312.4697L513.5806 312.4697L513.5806 311.7197L513.5806 311.7197L511.3296 311.7197M507.5984 312.4697L509.8493 312.4697L509.8493 312.4697L509.8493 311.7197L509.8493 311.7197L507.5984 311.7197M503.8671 312.4697L506.118 312.4697L506.118 312.4697L506.118 311.7197L506.118 311.7197L503.8671 311.7197M500.1358 312.4697L502.3867 312.4697L502.3867 312.4697L502.3867 311.7197L502.3867 311.7197L500.1358 311.7197M496.4045 312.4697L498.6554 312.4697L498.6554 312.4697L498.6554 311.7197L498.6554 311.7197L496.4045 311.7197M492.6732 312.4697L494.9241 312.4697L494.9241 312.4697L494.9241 311.7197L494.9241 311.7197L492.6732 311.7197M488.9419 312.4697L491.1928 312.4697L491.1928 312.4697L491.1928 311.7197L491.1928 311.7197L488.9419 311.7197M485.2106 312.4697L487.4615 312.4697L487.4615 312.4697L487.4615 311.7197L487.4615 311.7197L485.2106 311.7197M481.4793 312.4697L483.7302 312.4697L483.7302 312.4697L483.7302 311.7197L483.7302 311.7197L481.4793 311.7197M477.748 312.4697L479.9989 312.4697L479.9989 312.4697L479.9989 311.7197L479.9989 311.7197L477.748 311.7197M474.0167 312.4697L476.2676 312.4697L476.2676 312.4697L476.2676 311.7197L476.2676 311.7197L474.0167 311.7197M470.2854 312.4697L472.5363 312.4697L472.5363 312.4697L472.5363 311.7197L472.5363 311.7197L470.2854 311.7197M466.5541 312.4697L468.805 312.4697L468.805 312.4697L468.805 311.7197L468.805 311.7197L466.5541 311.7197M462.8228 312.4697L465.0737 312.4697L465.0737 312.4697L465.0737 311.7197L465.0737 311.7197L462.8228 311.7197M459.0915 312.4697L461.3424 312.4697L461.3424 312.4697L461.3424 311.7197L461.3424 311.7197L459.0915 311.7197M455.3602 312.4697L457.6112 312.4697L457.6112 312.4697L457.6112 311.7197L457.6112 311.7197L455.3602 311.7197M451.6289 312.4697L453.8799 312.4697L453.8799 312.4697L453.8799 311.7197L453.8799 311.7197L451.6289 311.7197M447.8976 312.4697L450.1485 312.4697L450.1485 312.4697L450.1485 311.7197L450.1485 311.7197L447.8976 311.7197M444.1663 312.4697L446.4172 312.4697L446.4172 312.4697L446.4172 311.7197L446.4172 311.7197L444.1663 311.7197M440.435 312.4697L442.686 312.4697L442.686 312.4697L442.686 311.7197L442.686 311.7197L440.435 311.7197M436.7037 312.4697L438.9547 312.4697L438.9547 312.4697L438.9547 311.7197L438.9547 311.7197L436.7037 311.7197M432.9724 312.4697L435.2234 312.4697L435.2234 312.4697L435.2234 311.7197L435.2234 311.7197L432.9724 311.7197M429.2411 312.4697L431.4921 312.4697L431.4921 312.4697L431.4921 311.7197L431.4921 311.7197L429.2411 311.7197M425.5098 312.4697L427.7608 312.4697L427.7608 312.4697L427.7608 311.7197L427.7608 311.7197L425.5098 311.7197M421.7785 312.4697L424.0295 312.4697L424.0295 312.4697L424.0295 311.7197L424.0295 311.7197L421.7785 311.7197M418.0472 312.4697L420.2982 312.4697L420.2982 312.4697L420.2982 311.7197L420.2982 311.7197L418.0472 311.7197M414.3159 312.4697L416.5669 312.4697L416.5669 312.4697L416.5669 311.7197L416.5669 311.7197L414.3159 311.7197M410.5846 312.4697L412.8356 312.4697L412.8356 312.4697L412.8356 311.7197L412.8356 311.7197L410.5846 311.7197M406.8533 312.4697L409.1043 312.4697L409.1043 312.4697L409.1043 311.7197L409.1043 311.7197L406.8533 311.7197M403.122 312.4697L405.373 312.4697L405.373 312.4697L405.373 311.7197L405.373 311.7197L403.122 311.7197M399.3907 312.4697L401.6417 312.4697L401.6417 312.4697L401.6417 311.7197L401.6417 311.7197L399.3907 311.7197M395.6595 312.4697L397.9104 312.4697L397.9104 312.4697L397.9104 311.7197L397.9104 311.7197L395.6595 311.7197M391.9281 312.4697L394.1791 312.4697L394.1791 312.4697L394.1791 311.7197L394.1791 311.7197L391.9281 311.7197M388.1968 312.4697L390.4478 312.4697L390.4478 312.4697L390.4478 311.7197L390.4478 311.7197L388.1968 311.7197M384.4655 312.4697L386.7165 312.4697L386.7165 312.4697L386.7165 311.7197L386.7165 311.7197L384.4655 311.7197M380.7343 312.4697L382.9852 312.4697L382.9852 312.4697L382.9852 311.7197L382.9852 311.7197L380.7343 311.7197M377.003 312.4697L379.2539 312.4697L379.2539 312.4697L379.2539 311.7197L379.2539 311.7197L377.003 311.7197M373.2717 312.4697L375.5226 312.4697L375.5226 312.4697L375.5226 311.7197L375.5226 311.7197L373.2717 311.7197M369.5404 312.4697L371.7913 312.4697L371.7913 312.4697L371.7913 311.7197L371.7913 311.7197L369.5404 311.7197M365.8091 312.4697L368.06 312.4697L368.06 312.4697L368.06 311.7197L368.06 311.7197L365.8091 311.7197M362.0778 312.4697L364.3287 312.4697L364.3287 312.4697L364.3287 311.7197L364.3287 311.7197L362.0778 311.7197M358.3465 312.4697L360.5974 312.4697L360.5974 312.4697L360.5974 311.7197L360.5974 311.7197L358.3465 311.7197M354.6152 312.4697L356.8661 312.4697L356.8661 312.4697L356.8661 311.7197L356.8661 311.7197L354.6152 311.7197M350.8839 312.4697L353.1348 312.4697L353.1348 312.4697L353.1348 311.7197L353.1348 311.7197L350.8839 311.7197M347.1526 312.4697L349.4035 312.4697L349.4035 312.4697L349.4035 311.7197L349.4035 311.7197L347.1526 311.7197M343.4213 312.4697L345.6722 312.4697L345.6722 312.4697L345.6722 311.7197L345.6722 311.7197L343.4213 311.7197M339.69 312.4697L341.9409 312.4697L341.9409 312.4697L341.9409 311.7197L341.9409 311.7197L339.69 311.7197M335.9587 312.4697L338.2096 312.4697L338.2096 312.4697L338.2096 311.7197L338.2096 311.7197L335.9587 311.7197M332.2274 312.4697L334.4783 312.4697L334.4783 312.4697L334.4783 311.7197L334.4783 311.7197L332.2274 311.7197M328.4961 312.4697L330.747 312.4697L330.747 312.4697L330.747 311.7197L330.747 311.7197L328.4961 311.7197M324.7648 312.4697L327.0157 312.4697L327.0157 312.4697L327.0157 311.7197L327.0157 311.7197L324.7648 311.7197M321.0335 312.4697L323.2845 312.4697L323.2845 312.4697L323.2845 311.7197L323.2845 311.7197L321.0335 311.7197M317.3022 312.4697L319.5532 312.4697L319.5532 312.4697L319.5532 311.7197L319.5532 311.7197L317.3022 311.7197M313.5709 312.4697L315.8219 312.4697L315.8219 312.4697L315.8219 311.7197L315.8219 311.7197L313.5709 311.7197M309.8396 312.4697L312.0906 312.4697L312.0906 312.4697L312.0906 311.7197L312.0906 311.7197L309.8396 311.7197M306.1083 312.4697L308.3593 312.4697L308.3593 312.4697L308.3593 311.7197L308.3593 311.7197L306.1083 311.7197M302.377 312.4697L304.628 312.4697L304.628 312.4697L304.628 311.7197L304.628 311.7197L302.377 311.7197" stroke="none" fill="#E3E4E3" fill-rule="winding" /></g><g clip-path="url(#9)"><path transform="matrix(1 0 0 -1 0 841)" d="M34.5145 724.3936C 34.5145 723.9023 34.46644 723.4141 34.37033 722.9307C 34.27421 722.4473 34.13189 721.9785 33.94335 721.5225C 33.75482 721.0684 33.5237 720.6357 33.24999 720.2256C 32.97628 719.8164 32.66524 719.4375 32.31688 719.0879C 31.96851 718.7393 31.58951 718.4287 31.17987 718.1563C 30.77024 717.8818 30.33784 717.6504 29.88268 717.4619C 29.42752 717.2725 28.95834 717.1309 28.47514 717.0352C 27.99194 716.9385 27.50401 716.8896 27.01135 716.8896C 26.51868 716.8896 26.03075 716.9385 25.54755 717.0352C 25.06436 717.1309 24.59518 717.2725 24.14001 717.4619C 23.68485 717.6504 23.25245 717.8818 22.84281 718.1563C 22.43318 718.4287 22.05418 718.7393 21.70581 719.0879C 21.35745 719.4375 21.04641 719.8164 20.7727 720.2256C 20.49899 720.6357 20.26787 721.0684 20.07933 721.5225C 19.8908 721.9785 19.74848 722.4473 19.65236 722.9307C 19.55625 723.4141 19.50819 723.9023 19.50819 724.3936C 19.50819 724.8857 19.55625 725.374 19.65236 725.8584C 19.74848 726.3428 19.8908 726.8115 20.07933 727.2666C 20.26787 727.7227 20.49899 728.1553 20.7727 728.5645C 21.04641 728.9727 21.35745 729.3525 21.70581 729.6992C 22.05418 730.0488 22.43318 730.3594 22.84281 730.6328C 23.25245 730.9063 23.68485 731.1377 24.14001 731.3262C 24.59518 731.5137 25.06436 731.6563 25.54755 731.7529C 26.03075 731.8477 26.51868 731.8965 27.01135 731.8965C 27.50401 731.8965 27.99194 731.8477 28.47514 731.7529C 28.95834 731.6563 29.42752 731.5137 29.88268 731.3262C 30.33784 731.1377 30.77024 730.9063 31.17987 730.6328C 31.58951 730.3594 31.96851 730.0488 32.31688 729.6992C 32.66524 729.3525 32.97628 728.9727 33.24999 728.5645C 33.5237 728.1553 33.75482 727.7227 33.94335 727.2666C 34.13189 726.8115 34.27421 726.3428 34.37033 725.8584C 34.46644 725.374 34.5145 724.8857 34.5145 724.3936z" stroke="none" fill="#333333" fill-rule="winding" /><path transform="matrix(1 0 0 -1 0 841)" d="M34.5145 311.7197C 34.5145 311.2256 34.46644 310.7393 34.37033 310.2578C 34.27421 309.7754 34.13189 309.3066 33.94335 308.8506C 33.75482 308.3965 33.5237 307.9639 33.24999 307.5537C 32.97628 307.1445 32.66524 306.7656 32.31688 306.416C 31.96851 306.0674 31.58951 305.7568 31.17987 305.4824C 30.77024 305.21 30.33784 304.9785 29.88268 304.79C 29.42752 304.6006 28.95834 304.459 28.47514 304.3623C 27.99194 304.2666 27.50401 304.2178 27.01135 304.2168C 26.51868 304.2178 26.03075 304.2666 25.54755 304.3623C 25.06436 304.459 24.59518 304.6006 24.14001 304.79C 23.68485 304.9785 23.25245 305.21 22.84281 305.4824C 22.43318 305.7568 22.05418 306.0674 21.70581 306.416C 21.35745 306.7656 21.04641 307.1445 20.7727 307.5537C 20.49899 307.9639 20.26787 308.3965 20.07933 308.8506C 19.8908 309.3066 19.74848 309.7754 19.65236 310.2578C 19.55625 310.7393 19.50819 311.2256 19.50819 311.7197C 19.50819 312.2139 19.55625 312.7021 19.65236 313.1855C 19.74848 313.6689 19.8908 314.1377 20.07933 314.5938C 20.26787 315.0498 20.49899 315.4814 20.7727 315.8906C 21.04641 316.3008 21.35745 316.6787 21.70581 317.0264C 22.05418 317.374 22.43318 317.6855 22.84281 317.96C 23.25245 318.2334 23.68485 318.4639 24.14001 318.6533C 24.59518 318.8418 25.06436 318.9824 25.54755 319.0781C 26.03075 319.1729 26.51868 319.2217 27.01135 319.2227C 27.50401 319.2217 27.99194 319.1729 28.47514 319.0781C 28.95834 318.9824 29.42752 318.8418 29.88268 318.6533C 30.33784 318.4639 30.77024 318.2324 31.17987 317.958C 31.58951 317.6846 31.96851 317.374 32.31688 317.0264C 32.66524 316.6787 32.97628 316.3008 33.24999 315.8906C 33.5237 315.4814 33.75482 315.0498 33.94335 314.5938C 34.13189 314.1377 34.27421 313.6689 34.37033 313.1855C 34.46644 312.7021 34.5145 312.2139 34.5145 311.7197z" stroke="none" fill="#333333" fill-rule="winding" /><path transform="matrix(1 0 0 -1 0 841)" d="M34.5145 88.12598C 34.5145 87.63379 34.46644 87.14551 34.37033 86.66309C 34.27421 86.18164 34.13189 85.71191 33.94335 85.25684C 33.75482 84.80078 33.5237 84.36816 33.24999 83.95996C 32.97628 83.54883 32.66524 83.16992 32.31688 82.82129C 31.96851 82.47363 31.58951 82.16309 31.17987 81.88867C 30.77024 81.61621 30.33784 81.38477 29.88268 81.19531C 29.42752 81.00684 28.95834 80.86426 28.47514 80.76758C 27.99194 80.67285 27.50401 80.62402 27.01135 80.62305C 26.51868 80.62402 26.03075 80.67285 25.54755 80.76758C 25.06436 80.86426 24.59518 81.00684 24.14001 81.19531C 23.68485 81.38477 23.25245 81.61621 22.84281 81.88867C 22.43318 82.16309 22.05418 82.47363 21.70581 82.82129C 21.35745 83.16992 21.04641 83.54883 20.7727 83.95996C 20.49899 84.36816 20.26787 84.80078 20.07933 85.25684C 19.8908 85.71191 19.74848 86.18164 19.65236 86.66309C 19.55625 87.14551 19.50819 87.63379 19.50819 88.12598C 19.50819 88.62012 19.55625 89.10742 19.65236 89.5918C 19.74848 90.0752 19.8908 90.54395 20.07933 91C 20.26787 91.45508 20.49899 91.8877 20.7727 92.29688C 21.04641 92.70703 21.35745 93.08496 21.70581 93.43262C 22.05418 93.78125 22.43318 94.0918 22.84281 94.36621C 23.25245 94.63965 23.68485 94.87012 24.14001 95.05859C 24.59518 95.24805 25.06436 95.39063 25.54755 95.48535C 26.03075 95.58105 26.51868 95.62891 27.01135 95.62891C 27.50401 95.62891 27.99194 95.58105 28.47514 95.48535C 28.95834 95.39063 29.42752 95.24805 29.88268 95.05859C 30.33784 94.87012 30.77024 94.63867 31.17987 94.36426C 31.58951 94.0918 31.96851 93.78125 32.31688 93.43262C 32.66524 93.08496 32.97628 92.70703 33.24999 92.29688C 33.5237 91.8877 33.75482 91.45508 33.94335 91C 34.13189 90.54395 34.27421 90.0752 34.37033 89.5918C 34.46644 89.10742 34.5145 88.62012 34.5145 88.12598z" stroke="none" fill="#333333" fill-rule="winding" /></g><g clip-path="url(#10)"><path transform="matrix(1 0 0 -1 0 841)" d="M322.6355 586.335C 322.6355 585.8447 322.5875 585.3564 322.4913 584.874C 322.3952 584.3906 322.2529 583.9219 322.0643 583.4658C 321.8758 583.0117 321.6447 582.5791 321.371 582.1689C 321.0973 581.7598 320.7863 581.3809 320.4379 581.0322C 320.0895 580.6826 319.7105 580.3721 319.3009 580.0996C 318.8912 579.8262 318.4588 579.5938 318.0037 579.4053C 317.5485 579.2158 317.0793 579.0742 316.5961 578.9775C 316.1129 578.8818 315.625 578.834 315.1324 578.832C 314.6397 578.834 314.1518 578.8818 313.6685 578.9775C 313.1853 579.0742 312.7162 579.2158 312.261 579.4053C 311.8058 579.5938 311.3734 579.8242 310.9638 580.0986C 310.5542 580.3721 310.1752 580.6826 309.8268 581.0322C 309.4785 581.3809 309.1674 581.7598 308.8937 582.1689C 308.62 582.5791 308.3889 583.0117 308.2003 583.4658C 308.0118 583.9219 307.8695 584.3906 307.7734 584.874C 307.6773 585.3564 307.6292 585.8447 307.6292 586.335C 307.6292 586.8281 307.6773 587.3154 307.7734 587.7988C 307.8695 588.2832 308.0118 588.752 308.2004 589.208C 308.3889 589.6631 308.62 590.0957 308.8937 590.5049C 309.1674 590.9131 309.4785 591.293 309.8268 591.6416C 310.1752 591.9922 310.5542 592.3027 310.9638 592.5752C 311.3734 592.8496 311.8058 593.0791 312.261 593.2686C 312.7162 593.457 313.1853 593.5996 313.6685 593.6943C 314.1518 593.79 314.6397 593.8389 315.1324 593.8389C 315.625 593.8389 316.1129 593.79 316.5961 593.6943C 317.0793 593.5996 317.5485 593.457 318.0037 593.2686C 318.4588 593.0791 318.8912 592.8496 319.3009 592.5752C 319.7105 592.3027 320.0895 591.9922 320.4379 591.6416C 320.7863 591.293 321.0973 590.9131 321.371 590.5049C 321.6447 590.0957 321.8758 589.6631 322.0643 589.208C 322.2529 588.752 322.3952 588.2832 322.4913 587.7988C 322.5875 587.3154 322.6355 586.8281 322.6355 586.335z" stroke="none" fill="#333333" fill-rule="winding" /><path transform="matrix(1 0 0 -1 0 841)" d="M322.6355 295.2129C 322.6355 294.7217 322.5875 294.2344 322.4913 293.75C 322.3952 293.2686 322.2529 292.7998 322.0643 292.3438C 321.8758 291.8896 321.6447 291.457 321.371 291.0469C 321.0973 290.6367 320.7863 290.2568 320.4379 289.9082C 320.0895 289.5605 319.7105 289.248 319.3009 288.9746C 318.8912 288.7002 318.4588 288.4688 318.0037 288.2813C 317.5485 288.0928 317.0793 287.9502 316.5961 287.8545C 316.1129 287.7598 315.625 287.7109 315.1324 287.71C 314.6397 287.7109 314.1518 287.7598 313.6685 287.8545C 313.1853 287.9502 312.7162 288.0928 312.261 288.2813C 311.8058 288.4688 311.3734 288.7002 310.9638 288.9746C 310.5542 289.248 310.1752 289.5605 309.8268 289.9082C 309.4785 290.2568 309.1674 290.6367 308.8937 291.0469C 308.62 291.457 308.3889 291.8896 308.2003 292.3438C 308.0118 292.7998 307.8695 293.2686 307.7734 293.75C 307.6773 294.2344 307.6292 294.7217 307.6292 295.2129C 307.6292 295.707 307.6773 296.1943 307.7734 296.6787C 307.8695 297.1602 308.0118 297.6309 308.2004 298.0869C 308.3889 298.542 308.62 298.9736 308.8937 299.3818C 309.1674 299.793 309.4785 300.1719 309.8268 300.5205C 310.1752 300.8691 310.5542 301.1807 310.9638 301.4541C 311.3734 301.7285 311.8058 301.96 312.261 302.1475C 312.7162 302.335 313.1853 302.4775 313.6685 302.5723C 314.1518 302.668 314.6397 302.7158 315.1324 302.7158C 315.625 302.7158 316.1129 302.668 316.5961 302.5723C 317.0793 302.4775 317.5485 302.335 318.0037 302.1475C 318.4588 301.96 318.8912 301.7285 319.3009 301.4541C 319.7105 301.1807 320.0895 300.8691 320.4379 300.5205C 320.7863 300.1719 321.0973 299.793 321.371 299.3838C 321.6447 298.9746 321.8758 298.542 322.0643 298.0869C 322.2529 297.6309 322.3952 297.1602 322.4913 296.6787C 322.5875 296.1943 322.6355 295.707 322.6355 295.2129z" stroke="none" fill="#333333" fill-rule="winding" /></g><g clip-path="url(#11)"></g><g clip-path="url(#12)"></g></g></g></g></svg>