<svg xmlns="http://www.w3.org/2000/svg" xmlns:xlink="http://www.w3.org/1999/xlink" id="body_12" preserveAspectRatio="xMinYMin meet" viewBox="0 0 792 1121"><defs><clipPath id="1"><path d="M0 841L0 -0.9199829L0 -0.9199829L594.96 -0.9199829L594.96 -0.9199829L594.96 841L594.96 841L0 841z" /></clipPath><clipPath id="2"><path d="M0 -0.9199829L595.2 -0.9199829L595.2 -0.9199829L595.2 841.24L595.2 841.24L0 841.24z" /></clipPath><clipPath id="3"><path d="M0 55.07971L594.9999 55.07971L594.9999 55.07971L594.9999 790.3881L594.9999 790.3881L0 790.3881z" /></clipPath><clipPath id="4"><path d="M19.5082 115.855L98.29129 115.855L98.29129 115.855L98.29129 116.605L98.29129 116.605L19.5082 116.605z" /></clipPath><clipPath id="5"><path d="M0 55.07971L594.9999 55.07971L594.9999 55.07971L594.9999 790.3881L594.9999 790.3881L0 790.3881z" /></clipPath><clipPath id="6"><path d="M19.5082 175.8803L98.29129 175.8803L98.29129 175.8803L98.29129 176.6303L98.29129 176.6303L19.5082 176.6303z" /></clipPath><clipPath id="7"><path d="M122.3014 394.2222L580.744 394.2222L580.744 394.2222L580.744 394.9722L580.744 394.9722L122.3014 394.9722z" /></clipPath><clipPath id="8"><path d="M0 55.07971L594.9999 55.07971L594.9999 55.07971L594.9999 790.3881L594.9999 790.3881L0 790.3881z" /></clipPath></defs><g transform="matrix(1.333333 0 0 1.333333 0 0)"><g><g clip-path="url(#1)"><g clip-path="url(#2)"><path transform="matrix(1 0 0 -1 0 841)" d="M0 841.92L792.9999 841.92L792.9999 841.92L792.9999 -280.0799L792.9999 -280.0799L0 -280.0799z" stroke="none" fill="#FFFFFF" fill-rule="winding" /><path transform="matrix(1 0 0 -1 0 841)" d="M0 796.92L594.9999 796.92L594.9999 796.92L594.9999 795.92L594.9999 795.92L0 795.92z" stroke="none" fill="#B7B5B5" fill-rule="winding" /><g transform="matrix(0.1840659 0 0 0.1886792 510 12.08002)"><g transform="matrix(1 0 0 1 0 0)"><image x="0" y="0" xlink:href="img_01.png" width="364" height="106" /></g></g></g><g clip-path="url(#3)"><path transform="matrix(1 0 0 -1 0 841)" d="M0 8874.318L594.9999 8874.318L594.9999 8874.318L594.9999 -11351.93L594.9999 -11351.93L0 -11351.93z" stroke="none" fill="#FFFFFF" fill-rule="winding" /></g><g clip-path="url(#4)"><path transform="matrix(1 0 0 -1 0 841)" d="M96.04034 725.1445L98.29129 725.1445L98.29129 725.1445L98.29129 724.394L98.29129 724.394L96.04034 724.394M92.21374 725.1445L94.46468 725.1445L94.46468 725.1445L94.46468 724.394L94.46468 724.394L92.21374 724.394M88.38712 725.1445L90.63807 725.1445L90.63807 725.1445L90.63807 724.394L90.63807 724.394L88.38712 724.394M84.56052 725.1445L86.81146 725.1445L86.81146 725.1445L86.81146 724.394L86.81146 724.394L84.56052 724.394M80.73391 725.1445L82.98486 725.1445L82.98486 725.1445L82.98486 724.394L82.98486 724.394L80.73391 724.394M76.90731 725.1445L79.15825 725.1445L79.15825 725.1445L79.15825 724.394L79.15825 724.394L76.90731 724.394M73.0807 725.1445L75.33165 725.1445L75.33165 725.1445L75.33165 724.394L75.33165 724.394L73.0807 724.394M69.25409 725.1445L71.50504 725.1445L71.50504 725.1445L71.50504 724.394L71.50504 724.394L69.25409 724.394M65.42748 725.1445L67.67843 725.1445L67.67843 725.1445L67.67843 724.394L67.67843 724.394L65.42748 724.394M61.60088 725.1445L63.85182 725.1445L63.85182 725.1445L63.85182 724.394L63.85182 724.394L61.60088 724.394M57.77427 725.1445L60.02522 725.1445L60.02522 725.1445L60.02522 724.394L60.02522 724.394L57.77427 724.394M53.94766 725.1445L56.1986 725.1445L56.1986 725.1445L56.1986 724.394L56.1986 724.394L53.94766 724.394M50.12106 725.1445L52.372 725.1445L52.372 725.1445L52.372 724.394L52.372 724.394L50.12106 724.394M46.29445 725.1445L48.54539 725.1445L48.54539 725.1445L48.54539 724.394L48.54539 724.394L46.29445 724.394M42.46784 725.1445L44.71878 725.1445L44.71878 725.1445L44.71878 724.394L44.71878 724.394L42.46784 724.394M38.64123 725.1445L40.89218 725.1445L40.89218 725.1445L40.89218 724.394L40.89218 724.394L38.64123 724.394M34.81462 725.1445L37.06557 725.1445L37.06557 725.1445L37.06557 724.394L37.06557 724.394L34.81462 724.394M30.98802 725.1445L33.23896 725.1445L33.23896 725.1445L33.23896 724.394L33.23896 724.394L30.98802 724.394M27.16141 725.1445L29.41236 725.1445L29.41236 725.1445L29.41236 724.394L29.41236 724.394L27.16141 724.394M23.3348 725.1445L25.58575 725.1445L25.58575 725.1445L25.58575 724.394L25.58575 724.394L23.3348 724.394M19.50819 725.1445L21.75914 725.1445L21.75914 725.1445L21.75914 724.394L21.75914 724.394L19.50819 724.394" stroke="none" fill="#B5B6B5" fill-rule="winding" /></g><g clip-path="url(#5)"><path transform="matrix(1 0 0 -1 0 841)" d="M29.63745 737.8999C 29.63745 737.5796 29.60621 737.2632 29.54374 736.9492C 29.48126 736.6353 29.38875 736.3301 29.2662 736.0342C 29.14366 735.7388 28.99343 735.4575 28.81552 735.1914C 28.6376 734.9258 28.43543 734.6787 28.20899 734.4521C 27.98255 734.2261 27.7362 734.0234 27.46994 733.8457C 27.20368 733.6675 26.92262 733.5176 26.62676 733.395C 26.33091 733.2725 26.02594 733.1797 25.71186 733.1172C 25.39779 733.0552 25.08063 733.0234 24.7604 733.0234C 24.44017 733.0234 24.12301 733.0552 23.80893 733.1172C 23.49485 733.1797 23.18989 733.2725 22.89403 733.395C 22.59818 733.5176 22.31712 733.6675 22.05085 733.8457C 21.78459 734.0234 21.53824 734.2261 21.3118 734.4521C 21.08537 734.6787 20.88319 734.9258 20.70528 735.1914C 20.52737 735.4575 20.37714 735.7388 20.25459 736.0342C 20.13205 736.3301 20.03954 736.6353 19.97706 736.9492C 19.91459 737.2632 19.88335 737.5796 19.88335 737.8999C 19.88335 738.2202 19.91459 738.5371 19.97706 738.8516C 20.03953 739.166 20.13204 739.4707 20.25459 739.7666C 20.37714 740.063 20.52737 740.3442 20.70528 740.6104C 20.88319 740.876 21.08537 741.1226 21.3118 741.3486C 21.53824 741.5752 21.78459 741.7773 22.05085 741.9556C 22.31712 742.1328 22.59818 742.2832 22.89403 742.4063C 23.18989 742.5283 23.49485 742.6206 23.80893 742.6831C 24.12301 742.7451 24.44017 742.7769 24.7604 742.7769C 25.08063 742.7769 25.39779 742.7451 25.71186 742.6831C 26.02594 742.6206 26.33091 742.5283 26.62676 742.4063C 26.92262 742.2832 27.20368 742.1328 27.46994 741.9556C 27.7362 741.7773 27.98255 741.5752 28.20899 741.3486C 28.43543 741.1226 28.6376 740.876 28.81552 740.6104C 28.99343 740.3442 29.14366 740.063 29.2662 739.7666C 29.38875 739.4707 29.48126 739.166 29.54374 738.8516C 29.60621 738.5371 29.63745 738.2202 29.63745 737.8999z" stroke="#C3C4C3" stroke-width="0.7503152" fill="none" /><path transform="matrix(1 0 0 -1 0 841)" d="M58.14943 737.8999C 58.14943 737.5796 58.11819 737.2632 58.05572 736.9492C 57.99325 736.6353 57.90073 736.3301 57.77819 736.0342C 57.65564 735.7388 57.50541 735.4575 57.32749 735.1914C 57.14958 734.9258 56.94741 734.6787 56.72097 734.4521C 56.49453 734.2261 56.24818 734.0234 55.98191 733.8457C 55.71565 733.6675 55.43459 733.5176 55.13874 733.395C 54.84288 733.2725 54.53791 733.1797 54.22384 733.1172C 53.90976 733.0552 53.59261 733.0234 53.27238 733.0234C 52.95215 733.0234 52.63499 733.0552 52.32091 733.1172C 52.00683 733.1797 51.70186 733.2725 51.40601 733.395C 51.11015 733.5176 50.82909 733.6675 50.56283 733.8457C 50.29657 734.0234 50.05022 734.2261 49.82378 734.4521C 49.59734 734.6787 49.39516 734.9258 49.21725 735.1914C 49.03934 735.4575 48.88911 735.7388 48.76657 736.0342C 48.64402 736.3301 48.55151 736.6353 48.48903 736.9492C 48.42656 737.2632 48.39533 737.5796 48.39533 737.8999C 48.39533 738.2202 48.42657 738.5371 48.48904 738.8516C 48.55151 739.166 48.64402 739.4707 48.76657 739.7666C 48.88911 740.063 49.03934 740.3442 49.21725 740.6104C 49.39516 740.876 49.59734 741.1226 49.82378 741.3486C 50.05022 741.5752 50.29657 741.7773 50.56283 741.9556C 50.82909 742.1328 51.11015 742.2832 51.40601 742.4063C 51.70186 742.5283 52.00683 742.6206 52.32091 742.6831C 52.63499 742.7451 52.95215 742.7769 53.27238 742.7769C 53.59261 742.7769 53.90976 742.7451 54.22384 742.6831C 54.53791 742.6206 54.84288 742.5283 55.13874 742.4063C 55.43459 742.2832 55.71565 742.1328 55.98191 741.9556C 56.24818 741.7773 56.49453 741.5752 56.72097 741.3486C 56.94741 741.1226 57.14958 740.876 57.32749 740.6104C 57.50541 740.3442 57.65564 740.063 57.77819 739.7666C 57.90073 739.4707 57.99325 739.166 58.05572 738.8516C 58.11819 738.5371 58.14943 738.2202 58.14943 737.8999z" stroke="#C3C4C3" stroke-width="0.7503152" fill="none" /><path transform="matrix(1 0 0 -1 0 841)" d="M86.66141 737.8999C 86.66141 737.5796 86.63017 737.2632 86.56768 736.9492C 86.5052 736.6353 86.4127 736.3301 86.29015 736.0342C 86.1676 735.7388 86.01737 735.4575 85.83946 735.1914C 85.66155 734.9258 85.45938 734.6787 85.23295 734.4521C 85.00651 734.2261 84.76015 734.0234 84.49389 733.8457C 84.22762 733.6675 83.94656 733.5176 83.65071 733.395C 83.35485 733.2725 83.04989 733.1797 82.73581 733.1172C 82.42174 733.0552 82.10458 733.0234 81.78436 733.0234C 81.46413 733.0234 81.14697 733.0552 80.83289 733.1172C 80.51881 733.1797 80.21384 733.2725 79.91798 733.395C 79.62213 733.5176 79.34107 733.6675 79.07481 733.8457C 78.80855 734.0234 78.5622 734.2261 78.33576 734.4521C 78.10932 734.6787 77.90714 734.9258 77.72923 735.1914C 77.55132 735.4575 77.40109 735.7388 77.27855 736.0342C 77.156 736.3301 77.06349 736.6353 77.00102 736.9492C 76.93854 737.2632 76.9073 737.5796 76.90731 737.8999C 76.9073 738.2202 76.93854 738.5371 77.00102 738.8516C 77.06348 739.166 77.156 739.4707 77.27855 739.7666C 77.40109 740.063 77.55132 740.3442 77.72923 740.6104C 77.90715 740.876 78.10932 741.1226 78.33576 741.3486C 78.5622 741.5752 78.80855 741.7773 79.07481 741.9556C 79.34107 742.1328 79.62213 742.2832 79.91798 742.4063C 80.21384 742.5283 80.51881 742.6206 80.83289 742.6831C 81.14697 742.7451 81.46413 742.7769 81.78436 742.7769C 82.10458 742.7769 82.42174 742.7451 82.73581 742.6831C 83.04989 742.6206 83.35485 742.5283 83.65071 742.4063C 83.94656 742.2832 84.22762 742.1328 84.49389 741.9556C 84.76015 741.7773 85.00651 741.5752 85.23295 741.3486C 85.45938 741.1226 85.66155 740.876 85.83946 740.6104C 86.01737 740.3442 86.1676 740.063 86.29015 739.7666C 86.4127 739.4707 86.5052 739.166 86.56768 738.8516C 86.63017 738.5371 86.66141 738.2202 86.66141 737.8999z" stroke="#C3C4C3" stroke-width="0.7503152" fill="none" /></g><g clip-path="url(#6)"><path transform="matrix(1 0 0 -1 0 841)" d="M96.04034 665.1191L98.29129 665.1191L98.29129 665.1191L98.29129 664.3691L98.29129 664.3691L96.04034 664.3691M92.21374 665.1191L94.46468 665.1191L94.46468 665.1191L94.46468 664.3691L94.46468 664.3691L92.21374 664.3691M88.38712 665.1191L90.63807 665.1191L90.63807 665.1191L90.63807 664.3691L90.63807 664.3691L88.38712 664.3691M84.56052 665.1191L86.81146 665.1191L86.81146 665.1191L86.81146 664.3691L86.81146 664.3691L84.56052 664.3691M80.73391 665.1191L82.98486 665.1191L82.98486 665.1191L82.98486 664.3691L82.98486 664.3691L80.73391 664.3691M76.90731 665.1191L79.15825 665.1191L79.15825 665.1191L79.15825 664.3691L79.15825 664.3691L76.90731 664.3691M73.0807 665.1191L75.33165 665.1191L75.33165 665.1191L75.33165 664.3691L75.33165 664.3691L73.0807 664.3691M69.25409 665.1191L71.50504 665.1191L71.50504 665.1191L71.50504 664.3691L71.50504 664.3691L69.25409 664.3691M65.42748 665.1191L67.67843 665.1191L67.67843 665.1191L67.67843 664.3691L67.67843 664.3691L65.42748 664.3691M61.60088 665.1191L63.85182 665.1191L63.85182 665.1191L63.85182 664.3691L63.85182 664.3691L61.60088 664.3691M57.77427 665.1191L60.02522 665.1191L60.02522 665.1191L60.02522 664.3691L60.02522 664.3691L57.77427 664.3691M53.94766 665.1191L56.1986 665.1191L56.1986 665.1191L56.1986 664.3691L56.1986 664.3691L53.94766 664.3691M50.12106 665.1191L52.372 665.1191L52.372 665.1191L52.372 664.3691L52.372 664.3691L50.12106 664.3691M46.29445 665.1191L48.54539 665.1191L48.54539 665.1191L48.54539 664.3691L48.54539 664.3691L46.29445 664.3691M42.46784 665.1191L44.71878 665.1191L44.71878 665.1191L44.71878 664.3691L44.71878 664.3691L42.46784 664.3691M38.64123 665.1191L40.89218 665.1191L40.89218 665.1191L40.89218 664.3691L40.89218 664.3691L38.64123 664.3691M34.81462 665.1191L37.06557 665.1191L37.06557 665.1191L37.06557 664.3691L37.06557 664.3691L34.81462 664.3691M30.98802 665.1191L33.23896 665.1191L33.23896 665.1191L33.23896 664.3691L33.23896 664.3691L30.98802 664.3691M27.16141 665.1191L29.41236 665.1191L29.41236 665.1191L29.41236 664.3691L29.41236 664.3691L27.16141 664.3691M23.3348 665.1191L25.58575 665.1191L25.58575 665.1191L25.58575 664.3691L25.58575 664.3691L23.3348 664.3691M19.50819 665.1191L21.75914 665.1191L21.75914 665.1191L21.75914 664.3691L21.75914 664.3691L19.50819 664.3691" stroke="none" fill="#B5B6B5" fill-rule="winding" /></g><g clip-path="url(#7)"><path transform="matrix(1 0 0 -1 0 841)" d="M578.493 446.7773L580.744 446.7773L580.744 446.7773L580.744 446.0273L580.744 446.0273L578.493 446.0273M574.7538 446.7773L577.0047 446.7773L577.0047 446.7773L577.0047 446.0273L577.0047 446.0273L574.7538 446.0273M571.0145 446.7773L573.2654 446.7773L573.2654 446.7773L573.2654 446.0273L573.2654 446.0273L571.0145 446.0273M567.2752 446.7773L569.5261 446.7773L569.5261 446.7773L569.5261 446.0273L569.5261 446.0273L567.2752 446.0273M563.5359 446.7773L565.7869 446.7773L565.7869 446.7773L565.7869 446.0273L565.7869 446.0273L563.5359 446.0273M559.7966 446.7773L562.0476 446.7773L562.0476 446.7773L562.0476 446.0273L562.0476 446.0273L559.7966 446.0273M556.0574 446.7773L558.3083 446.7773L558.3083 446.7773L558.3083 446.0273L558.3083 446.0273L556.0574 446.0273M552.3181 446.7773L554.569 446.7773L554.569 446.7773L554.569 446.0273L554.569 446.0273L552.3181 446.0273M548.5788 446.7773L550.8298 446.7773L550.8298 446.7773L550.8298 446.0273L550.8298 446.0273L548.5788 446.0273M544.8395 446.7773L547.0905 446.7773L547.0905 446.7773L547.0905 446.0273L547.0905 446.0273L544.8395 446.0273M541.1003 446.7773L543.3512 446.7773L543.3512 446.7773L543.3512 446.0273L543.3512 446.0273L541.1003 446.0273M537.361 446.7773L539.6119 446.7773L539.6119 446.7773L539.6119 446.0273L539.6119 446.0273L537.361 446.0273M533.6217 446.7773L535.8726 446.7773L535.8726 446.7773L535.8726 446.0273L535.8726 446.0273L533.6217 446.0273M529.8824 446.7773L532.1334 446.7773L532.1334 446.7773L532.1334 446.0273L532.1334 446.0273L529.8824 446.0273M526.1431 446.7773L528.3941 446.7773L528.3941 446.7773L528.3941 446.0273L528.3941 446.0273L526.1431 446.0273M522.4039 446.7773L524.6548 446.7773L524.6548 446.7773L524.6548 446.0273L524.6548 446.0273L522.4039 446.0273M518.6646 446.7773L520.9155 446.7773L520.9155 446.7773L520.9155 446.0273L520.9155 446.0273L518.6646 446.0273M514.9253 446.7773L517.1763 446.7773L517.1763 446.7773L517.1763 446.0273L517.1763 446.0273L514.9253 446.0273M511.1861 446.7773L513.437 446.7773L513.437 446.7773L513.437 446.0273L513.437 446.0273L511.1861 446.0273M507.4468 446.7773L509.6977 446.7773L509.6977 446.7773L509.6977 446.0273L509.6977 446.0273L507.4468 446.0273M503.7075 446.7773L505.9585 446.7773L505.9585 446.7773L505.9585 446.0273L505.9585 446.0273L503.7075 446.0273M499.9682 446.7773L502.2191 446.7773L502.2191 446.7773L502.2191 446.0273L502.2191 446.0273L499.9682 446.0273M496.2289 446.7773L498.4799 446.7773L498.4799 446.7773L498.4799 446.0273L498.4799 446.0273L496.2289 446.0273M492.4897 446.7773L494.7406 446.7773L494.7406 446.7773L494.7406 446.0273L494.7406 446.0273L492.4897 446.0273M488.7504 446.7773L491.0013 446.7773L491.0013 446.7773L491.0013 446.0273L491.0013 446.0273L488.7504 446.0273M485.0111 446.7773L487.2621 446.7773L487.2621 446.7773L487.2621 446.0273L487.2621 446.0273L485.0111 446.0273M481.2719 446.7773L483.5228 446.7773L483.5228 446.7773L483.5228 446.0273L483.5228 446.0273L481.2719 446.0273M477.5326 446.7773L479.7835 446.7773L479.7835 446.7773L479.7835 446.0273L479.7835 446.0273L477.5326 446.0273M473.7933 446.7773L476.0442 446.7773L476.0442 446.7773L476.0442 446.0273L476.0442 446.0273L473.7933 446.0273M470.054 446.7773L472.305 446.7773L472.305 446.7773L472.305 446.0273L472.305 446.0273L470.054 446.0273M466.3148 446.7773L468.5657 446.7773L468.5657 446.7773L468.5657 446.0273L468.5657 446.0273L466.3148 446.0273M462.5754 446.7773L464.8264 446.7773L464.8264 446.7773L464.8264 446.0273L464.8264 446.0273L462.5754 446.0273M458.8362 446.7773L461.0871 446.7773L461.0871 446.7773L461.0871 446.0273L461.0871 446.0273L458.8362 446.0273M455.0969 446.7773L457.3479 446.7773L457.3479 446.7773L457.3479 446.0273L457.3479 446.0273L455.0969 446.0273M451.3576 446.7773L453.6086 446.7773L453.6086 446.7773L453.6086 446.0273L453.6086 446.0273L451.3576 446.0273M447.6183 446.7773L449.8693 446.7773L449.8693 446.7773L449.8693 446.0273L449.8693 446.0273L447.6183 446.0273M443.8791 446.7773L446.1301 446.7773L446.1301 446.7773L446.1301 446.0273L446.1301 446.0273L443.8791 446.0273M440.1398 446.7773L442.3908 446.7773L442.3908 446.7773L442.3908 446.0273L442.3908 446.0273L440.1398 446.0273M436.4005 446.7773L438.6515 446.7773L438.6515 446.7773L438.6515 446.0273L438.6515 446.0273L436.4005 446.0273M432.6613 446.7773L434.9122 446.7773L434.9122 446.7773L434.9122 446.0273L434.9122 446.0273L432.6613 446.0273M428.922 446.7773L431.1729 446.7773L431.1729 446.7773L431.1729 446.0273L431.1729 446.0273L428.922 446.0273M425.1827 446.7773L427.4337 446.7773L427.4337 446.7773L427.4337 446.0273L427.4337 446.0273L425.1827 446.0273M421.4435 446.7773L423.6944 446.7773L423.6944 446.7773L423.6944 446.0273L423.6944 446.0273L421.4435 446.0273M417.7042 446.7773L419.9551 446.7773L419.9551 446.7773L419.9551 446.0273L419.9551 446.0273L417.7042 446.0273M413.9649 446.7773L416.2158 446.7773L416.2158 446.7773L416.2158 446.0273L416.2158 446.0273L413.9649 446.0273M410.2256 446.7773L412.4765 446.7773L412.4765 446.7773L412.4765 446.0273L412.4765 446.0273L410.2256 446.0273M406.4863 446.7773L408.7373 446.7773L408.7373 446.7773L408.7373 446.0273L408.7373 446.0273L406.4863 446.0273M402.7471 446.7773L404.998 446.7773L404.998 446.7773L404.998 446.0273L404.998 446.0273L402.7471 446.0273M399.0078 446.7773L401.2587 446.7773L401.2587 446.7773L401.2587 446.0273L401.2587 446.0273L399.0078 446.0273M395.2685 446.7773L397.5194 446.7773L397.5194 446.7773L397.5194 446.0273L397.5194 446.0273L395.2685 446.0273M391.5292 446.7773L393.7802 446.7773L393.7802 446.7773L393.7802 446.0273L393.7802 446.0273L391.5292 446.0273M387.7899 446.7773L390.0409 446.7773L390.0409 446.7773L390.0409 446.0273L390.0409 446.0273L387.7899 446.0273M384.0507 446.7773L386.3016 446.7773L386.3016 446.7773L386.3016 446.0273L386.3016 446.0273L384.0507 446.0273M380.3114 446.7773L382.5623 446.7773L382.5623 446.7773L382.5623 446.0273L382.5623 446.0273L380.3114 446.0273M376.5721 446.7773L378.8231 446.7773L378.8231 446.7773L378.8231 446.0273L378.8231 446.0273L376.5721 446.0273M372.8329 446.7773L375.0838 446.7773L375.0838 446.7773L375.0838 446.0273L375.0838 446.0273L372.8329 446.0273M369.0936 446.7773L371.3445 446.7773L371.3445 446.7773L371.3445 446.0273L371.3445 446.0273L369.0936 446.0273M365.3543 446.7773L367.6052 446.7773L367.6052 446.7773L367.6052 446.0273L367.6052 446.0273L365.3543 446.0273M361.615 446.7773L363.866 446.7773L363.866 446.7773L363.866 446.0273L363.866 446.0273L361.615 446.0273M357.8758 446.7773L360.1267 446.7773L360.1267 446.7773L360.1267 446.0273L360.1267 446.0273L357.8758 446.0273M354.1365 446.7773L356.3874 446.7773L356.3874 446.7773L356.3874 446.0273L356.3874 446.0273L354.1365 446.0273M350.3972 446.7773L352.6481 446.7773L352.6481 446.7773L352.6481 446.0273L352.6481 446.0273L350.3972 446.0273M346.6579 446.7773L348.9088 446.7773L348.9088 446.7773L348.9088 446.0273L348.9088 446.0273L346.6579 446.0273M342.9186 446.7773L345.1696 446.7773L345.1696 446.7773L345.1696 446.0273L345.1696 446.0273L342.9186 446.0273M339.1794 446.7773L341.4303 446.7773L341.4303 446.7773L341.4303 446.0273L341.4303 446.0273L339.1794 446.0273M335.4401 446.7773L337.691 446.7773L337.691 446.7773L337.691 446.0273L337.691 446.0273L335.4401 446.0273M331.7008 446.7773L333.9518 446.7773L333.9518 446.7773L333.9518 446.0273L333.9518 446.0273L331.7008 446.0273M327.9615 446.7773L330.2125 446.7773L330.2125 446.7773L330.2125 446.0273L330.2125 446.0273L327.9615 446.0273M324.2223 446.7773L326.4732 446.7773L326.4732 446.7773L326.4732 446.0273L326.4732 446.0273L324.2223 446.0273M320.483 446.7773L322.7339 446.7773L322.7339 446.7773L322.7339 446.0273L322.7339 446.0273L320.483 446.0273M316.7437 446.7773L318.9947 446.7773L318.9947 446.7773L318.9947 446.0273L318.9947 446.0273L316.7437 446.0273M313.0045 446.7773L315.2554 446.7773L315.2554 446.7773L315.2554 446.0273L315.2554 446.0273L313.0045 446.0273M309.2652 446.7773L311.5161 446.7773L311.5161 446.7773L311.5161 446.0273L311.5161 446.0273L309.2652 446.0273M305.5259 446.7773L307.7768 446.7773L307.7768 446.7773L307.7768 446.0273L307.7768 446.0273L305.5259 446.0273M301.7866 446.7773L304.0376 446.7773L304.0376 446.7773L304.0376 446.0273L304.0376 446.0273L301.7866 446.0273M298.0473 446.7773L300.2983 446.7773L300.2983 446.7773L300.2983 446.0273L300.2983 446.0273L298.0473 446.0273M294.3081 446.7773L296.559 446.7773L296.559 446.7773L296.559 446.0273L296.559 446.0273L294.3081 446.0273M290.5688 446.7773L292.8197 446.7773L292.8197 446.7773L292.8197 446.0273L292.8197 446.0273L290.5688 446.0273M286.8295 446.7773L289.0804 446.7773L289.0804 446.7773L289.0804 446.0273L289.0804 446.0273L286.8295 446.0273M283.0902 446.7773L285.3412 446.7773L285.3412 446.7773L285.3412 446.0273L285.3412 446.0273L283.0902 446.0273M279.351 446.7773L281.6019 446.7773L281.6019 446.7773L281.6019 446.0273L281.6019 446.0273L279.351 446.0273M275.6117 446.7773L277.8626 446.7773L277.8626 446.7773L277.8626 446.0273L277.8626 446.0273L275.6117 446.0273M271.8724 446.7773L274.1234 446.7773L274.1234 446.7773L274.1234 446.0273L274.1234 446.0273L271.8724 446.0273M268.1331 446.7773L270.3841 446.7773L270.3841 446.7773L270.3841 446.0273L270.3841 446.0273L268.1331 446.0273M264.3939 446.7773L266.6448 446.7773L266.6448 446.7773L266.6448 446.0273L266.6448 446.0273L264.3939 446.0273M260.6546 446.7773L262.9055 446.7773L262.9055 446.7773L262.9055 446.0273L262.9055 446.0273L260.6546 446.0273M256.9153 446.7773L259.1663 446.7773L259.1663 446.7773L259.1663 446.0273L259.1663 446.0273L256.9153 446.0273M253.176 446.7773L255.427 446.7773L255.427 446.7773L255.427 446.0273L255.427 446.0273L253.176 446.0273M249.4368 446.7773L251.6877 446.7773L251.6877 446.7773L251.6877 446.0273L251.6877 446.0273L249.4368 446.0273M245.6975 446.7773L247.9484 446.7773L247.9484 446.7773L247.9484 446.0273L247.9484 446.0273L245.6975 446.0273M241.9582 446.7773L244.2091 446.7773L244.2091 446.7773L244.2091 446.0273L244.2091 446.0273L241.9582 446.0273M238.2189 446.7773L240.4699 446.7773L240.4699 446.7773L240.4699 446.0273L240.4699 446.0273L238.2189 446.0273M234.4796 446.7773L236.7306 446.7773L236.7306 446.7773L236.7306 446.0273L236.7306 446.0273L234.4796 446.0273M230.7404 446.7773L232.9913 446.7773L232.9913 446.7773L232.9913 446.0273L232.9913 446.0273L230.7404 446.0273M227.0011 446.7773L229.252 446.7773L229.252 446.7773L229.252 446.0273L229.252 446.0273L227.0011 446.0273M223.2618 446.7773L225.5128 446.7773L225.5128 446.7773L225.5128 446.0273L225.5128 446.0273L223.2618 446.0273M219.5226 446.7773L221.7735 446.7773L221.7735 446.7773L221.7735 446.0273L221.7735 446.0273L219.5226 446.0273M215.7833 446.7773L218.0342 446.7773L218.0342 446.7773L218.0342 446.0273L218.0342 446.0273L215.7833 446.0273M212.044 446.7773L214.295 446.7773L214.295 446.7773L214.295 446.0273L214.295 446.0273L212.044 446.0273M208.3047 446.7773L210.5557 446.7773L210.5557 446.7773L210.5557 446.0273L210.5557 446.0273L208.3047 446.0273M204.5654 446.7773L206.8164 446.7773L206.8164 446.7773L206.8164 446.0273L206.8164 446.0273L204.5654 446.0273M200.8262 446.7773L203.0771 446.7773L203.0771 446.7773L203.0771 446.0273L203.0771 446.0273L200.8262 446.0273M197.0869 446.7773L199.3378 446.7773L199.3378 446.7773L199.3378 446.0273L199.3378 446.0273L197.0869 446.0273M193.3476 446.7773L195.5986 446.7773L195.5986 446.7773L195.5986 446.0273L195.5986 446.0273L193.3476 446.0273M189.6083 446.7773L191.8593 446.7773L191.8593 446.7773L191.8593 446.0273L191.8593 446.0273L189.6083 446.0273M185.8691 446.7773L188.12 446.7773L188.12 446.7773L188.12 446.0273L188.12 446.0273L185.8691 446.0273M182.1298 446.7773L184.3807 446.7773L184.3807 446.7773L184.3807 446.0273L184.3807 446.0273L182.1298 446.0273M178.3905 446.7773L180.6414 446.7773L180.6414 446.7773L180.6414 446.0273L180.6414 446.0273L178.3905 446.0273M174.6512 446.7773L176.9022 446.7773L176.9022 446.7773L176.9022 446.0273L176.9022 446.0273L174.6512 446.0273M170.912 446.7773L173.1629 446.7773L173.1629 446.7773L173.1629 446.0273L173.1629 446.0273L170.912 446.0273M167.1727 446.7773L169.4236 446.7773L169.4236 446.7773L169.4236 446.0273L169.4236 446.0273L167.1727 446.0273M163.4334 446.7773L165.6844 446.7773L165.6844 446.7773L165.6844 446.0273L165.6844 446.0273L163.4334 446.0273M159.6941 446.7773L161.9451 446.7773L161.9451 446.7773L161.9451 446.0273L161.9451 446.0273L159.6941 446.0273M155.9549 446.7773L158.2058 446.7773L158.2058 446.7773L158.2058 446.0273L158.2058 446.0273L155.9549 446.0273M152.2156 446.7773L154.4665 446.7773L154.4665 446.7773L154.4665 446.0273L154.4665 446.0273L152.2156 446.0273M148.4763 446.7773L150.7273 446.7773L150.7273 446.7773L150.7273 446.0273L150.7273 446.0273L148.4763 446.0273M144.737 446.7773L146.988 446.7773L146.988 446.7773L146.988 446.0273L146.988 446.0273L144.737 446.0273M140.9978 446.7773L143.2487 446.7773L143.2487 446.7773L143.2487 446.0273L143.2487 446.0273L140.9978 446.0273M137.2585 446.7773L139.5094 446.7773L139.5094 446.7773L139.5094 446.0273L139.5094 446.0273L137.2585 446.0273M133.5192 446.7773L135.7702 446.7773L135.7702 446.7773L135.7702 446.0273L135.7702 446.0273L133.5192 446.0273M129.7799 446.7773L132.0309 446.7773L132.0309 446.7773L132.0309 446.0273L132.0309 446.0273L129.7799 446.0273M126.0407 446.7773L128.2916 446.7773L128.2916 446.7773L128.2916 446.0273L128.2916 446.0273L126.0407 446.0273M122.3014 446.7773L124.5523 446.7773L124.5523 446.7773L124.5523 446.0273L124.5523 446.0273L122.3014 446.0273" stroke="none" fill="#C3C4C3" fill-rule="winding" /></g><g clip-path="url(#8)"><path transform="matrix(1 0 0 -1 0 841)" d="M107.2951 785.9199L594.9999 785.9199L594.9999 785.9199L594.9999 785.1694L594.9999 785.1694L107.2951 785.1694z" stroke="none" fill="#B5B6B5" fill-rule="winding" /><path transform="matrix(1 0 0 -1 0 841)" d="M0 785.9199L107.2951 785.9199L107.2951 785.9199L107.2951 785.1694L107.2951 785.1694L0 785.1694z" stroke="none" fill="#B5B6B5" fill-rule="winding" /><path transform="matrix(1 0 0 -1 0 841)" d="M107.2951 785.9199L108.0454 785.9199L108.0454 785.9199L108.0454 -197.7432L108.0454 -197.7432L107.2951 -197.7432z" stroke="none" fill="#B5B6B5" fill-rule="winding" /><g transform="matrix(0.7503152 0 0 0.7503152 122.3014 112.8541)"><g transform="matrix(1 0 0 1 0 0)"><image x="0" y="0" xlink:href="img_36.png" width="286" height="183" /></g></g><g transform="matrix(0.7503151 0 0 0.7503152 122.3014 594.5557)"><g transform="matrix(1 0 0 1 0 0)"><image x="0" y="0" xlink:href="img_38.png" width="432" height="161" /></g></g></g></g></g></g></svg>