<svg xmlns="http://www.w3.org/2000/svg" xmlns:xlink="http://www.w3.org/1999/xlink" id="body_21" preserveAspectRatio="xMinYMin meet" viewBox="0 0 792 1121"><defs><clipPath id="1"><path d="M0 841L0 -0.9199829L0 -0.9199829L594.96 -0.9199829L594.96 -0.9199829L594.96 841L594.96 841L0 841z" /></clipPath><clipPath id="2"><path d="M0 -0.9199829L595.2 -0.9199829L595.2 -0.9199829L595.2 841.24L595.2 841.24L0 841.24z" /></clipPath><clipPath id="3"><path d="M0 55.07971L594.9999 55.07971L594.9999 55.07971L594.9999 790.389L594.9999 790.389L0 790.389z" /></clipPath><clipPath id="4"><path d="M14.25599 348.4535L293.3733 348.4535L293.3733 348.4535L293.3733 349.2035L293.3733 349.2035L14.25599 349.2035z" /></clipPath><clipPath id="5"><path d="M14.25599 474.506L293.3733 474.506L293.3733 474.506L293.3733 475.2569L293.3733 475.2569L14.25599 475.2569z" /></clipPath><clipPath id="6"><path d="M14.25599 777.6334L293.3733 777.6334L293.3733 777.6334L293.3733 778.3834L293.3733 778.3834L14.25599 778.3834z" /></clipPath><clipPath id="7"><path d="M302.377 375.4647L580.744 375.4647L580.744 375.4647L580.744 376.2147L580.744 376.2147L302.377 376.2147z" /></clipPath><clipPath id="8"><path d="M302.377 638.0753L580.744 638.0753L580.744 638.0753L580.744 638.8253L580.744 638.8253L302.377 638.8253z" /></clipPath><clipPath id="9"><path d="M0 55.07971L297.8752 55.07971L297.8752 55.07971L297.8752 790.389L297.8752 790.389L0 790.389z" /></clipPath><clipPath id="10"><path d="M297.8752 100.0994L594.9999 100.0994L594.9999 100.0994L594.9999 790.389L594.9999 790.389L297.8752 790.389z" /></clipPath><clipPath id="11"><path d="M0 55.07971L297.8752 55.07971L297.8752 55.07971L297.8752 790.389L297.8752 790.389L0 790.389z" /></clipPath><clipPath id="12"><path d="M297.8752 100.0994L594.9999 100.0994L594.9999 100.0994L594.9999 790.389L594.9999 790.389L297.8752 790.389z" /></clipPath></defs><g transform="matrix(1.333333 0 0 1.333333 0 0)"><g><g clip-path="url(#1)"><g clip-path="url(#2)"><path transform="matrix(1 0 0 -1 0 841)" d="M0 841.92L792.9999 841.92L792.9999 841.92L792.9999 -280.0799L792.9999 -280.0799L0 -280.0799z" stroke="none" fill="#FFFFFF" fill-rule="winding" /><path transform="matrix(1 0 0 -1 0 841)" d="M0 796.92L594.9999 796.92L594.9999 796.92L594.9999 795.92L594.9999 795.92L0 795.92z" stroke="none" fill="#B7B5B5" fill-rule="winding" /><g transform="matrix(0.1840659 0 0 0.1886792 510 12.08002)"><g transform="matrix(1 0 0 1 0 0)"><image x="0" y="0" xlink:href="img_01.png" width="364" height="106" /></g></g></g><g clip-path="url(#3)"><path transform="matrix(1 0 0 -1 0 841)" d="M0 15492.1L594.9999 15492.1L594.9999 15492.1L594.9999 -3998.842L594.9999 -3998.842L0 -3998.842z" stroke="none" fill="#FFFFFF" fill-rule="winding" /><path transform="matrix(1 0 0 -1 0 841)" d="M297.1248 740.8994L297.8751 740.8994L297.8751 740.8994L297.8751 -3998.842L297.8751 -3998.842L297.1248 -3998.842z" stroke="none" fill="#767D71" fill-rule="winding" /></g><g clip-path="url(#4)"><path transform="matrix(1 0 0 -1 0 841)" d="M291.1223 492.5459L293.3732 492.5459L293.3732 492.5459L293.3732 491.7949L293.3732 491.7949L291.1223 491.7949M287.3809 492.5459L289.6318 492.5459L289.6318 492.5459L289.6318 491.7949L289.6318 491.7949L287.3809 491.7949M283.6394 492.5459L285.8904 492.5459L285.8904 492.5459L285.8904 491.7949L285.8904 491.7949L283.6394 491.7949M279.898 492.5459L282.1489 492.5459L282.1489 492.5459L282.1489 491.7949L282.1489 491.7949L279.898 491.7949M276.1566 492.5459L278.4075 492.5459L278.4075 492.5459L278.4075 491.7949L278.4075 491.7949L276.1566 491.7949M272.4151 492.5459L274.666 492.5459L274.666 492.5459L274.666 491.7949L274.666 491.7949L272.4151 491.7949M268.6737 492.5459L270.9246 492.5459L270.9246 492.5459L270.9246 491.7949L270.9246 491.7949L268.6737 491.7949M264.9323 492.5459L267.1832 492.5459L267.1832 492.5459L267.1832 491.7949L267.1832 491.7949L264.9323 491.7949M261.1908 492.5459L263.4417 492.5459L263.4417 492.5459L263.4417 491.7949L263.4417 491.7949L261.1908 491.7949M257.4494 492.5459L259.7003 492.5459L259.7003 492.5459L259.7003 491.7949L259.7003 491.7949L257.4494 491.7949M253.7079 492.5459L255.9589 492.5459L255.9589 492.5459L255.9589 491.7949L255.9589 491.7949L253.7079 491.7949M249.9665 492.5459L252.2174 492.5459L252.2174 492.5459L252.2174 491.7949L252.2174 491.7949L249.9665 491.7949M246.2251 492.5459L248.476 492.5459L248.476 492.5459L248.476 491.7949L248.476 491.7949L246.2251 491.7949M242.4836 492.5459L244.7346 492.5459L244.7346 492.5459L244.7346 491.7949L244.7346 491.7949L242.4836 491.7949M238.7422 492.5459L240.9931 492.5459L240.9931 492.5459L240.9931 491.7949L240.9931 491.7949L238.7422 491.7949M235.0007 492.5459L237.2517 492.5459L237.2517 492.5459L237.2517 491.7949L237.2517 491.7949L235.0007 491.7949M231.2593 492.5459L233.5103 492.5459L233.5103 492.5459L233.5103 491.7949L233.5103 491.7949L231.2593 491.7949M227.5179 492.5459L229.7688 492.5459L229.7688 492.5459L229.7688 491.7949L229.7688 491.7949L227.5179 491.7949M223.7764 492.5459L226.0274 492.5459L226.0274 492.5459L226.0274 491.7949L226.0274 491.7949L223.7764 491.7949M220.035 492.5459L222.2859 492.5459L222.2859 492.5459L222.2859 491.7949L222.2859 491.7949L220.035 491.7949M216.2936 492.5459L218.5445 492.5459L218.5445 492.5459L218.5445 491.7949L218.5445 491.7949L216.2936 491.7949M212.5521 492.5459L214.8031 492.5459L214.8031 492.5459L214.8031 491.7949L214.8031 491.7949L212.5521 491.7949M208.8107 492.5459L211.0616 492.5459L211.0616 492.5459L211.0616 491.7949L211.0616 491.7949L208.8107 491.7949M205.0692 492.5459L207.3202 492.5459L207.3202 492.5459L207.3202 491.7949L207.3202 491.7949L205.0692 491.7949M201.3278 492.5459L203.5788 492.5459L203.5788 492.5459L203.5788 491.7949L203.5788 491.7949L201.3278 491.7949M197.5864 492.5459L199.8373 492.5459L199.8373 492.5459L199.8373 491.7949L199.8373 491.7949L197.5864 491.7949M193.8449 492.5459L196.0959 492.5459L196.0959 492.5459L196.0959 491.7949L196.0959 491.7949L193.8449 491.7949M190.1035 492.5459L192.3545 492.5459L192.3545 492.5459L192.3545 491.7949L192.3545 491.7949L190.1035 491.7949M186.3621 492.5459L188.613 492.5459L188.613 492.5459L188.613 491.7949L188.613 491.7949L186.3621 491.7949M182.6206 492.5459L184.8716 492.5459L184.8716 492.5459L184.8716 491.7949L184.8716 491.7949L182.6206 491.7949M178.8792 492.5459L181.1301 492.5459L181.1301 492.5459L181.1301 491.7949L181.1301 491.7949L178.8792 491.7949M175.1378 492.5459L177.3887 492.5459L177.3887 492.5459L177.3887 491.7949L177.3887 491.7949L175.1378 491.7949M171.3963 492.5459L173.6473 492.5459L173.6473 492.5459L173.6473 491.7949L173.6473 491.7949L171.3963 491.7949M167.6549 492.5459L169.9058 492.5459L169.9058 492.5459L169.9058 491.7949L169.9058 491.7949L167.6549 491.7949M163.9135 492.5459L166.1644 492.5459L166.1644 492.5459L166.1644 491.7949L166.1644 491.7949L163.9135 491.7949M160.172 492.5459L162.423 492.5459L162.423 492.5459L162.423 491.7949L162.423 491.7949L160.172 491.7949M156.4306 492.5459L158.6815 492.5459L158.6815 492.5459L158.6815 491.7949L158.6815 491.7949L156.4306 491.7949M152.6891 492.5459L154.9401 492.5459L154.9401 492.5459L154.9401 491.7949L154.9401 491.7949L152.6891 491.7949M148.9477 492.5459L151.1987 492.5459L151.1987 492.5459L151.1987 491.7949L151.1987 491.7949L148.9477 491.7949M145.2063 492.5459L147.4572 492.5459L147.4572 492.5459L147.4572 491.7949L147.4572 491.7949L145.2063 491.7949M141.4648 492.5459L143.7158 492.5459L143.7158 492.5459L143.7158 491.7949L143.7158 491.7949L141.4648 491.7949M137.7234 492.5459L139.9743 492.5459L139.9743 492.5459L139.9743 491.7949L139.9743 491.7949L137.7234 491.7949M133.982 492.5459L136.2329 492.5459L136.2329 492.5459L136.2329 491.7949L136.2329 491.7949L133.982 491.7949M130.2405 492.5459L132.4915 492.5459L132.4915 492.5459L132.4915 491.7949L132.4915 491.7949L130.2405 491.7949M126.4991 492.5459L128.75 492.5459L128.75 492.5459L128.75 491.7949L128.75 491.7949L126.4991 491.7949M122.7577 492.5459L125.0086 492.5459L125.0086 492.5459L125.0086 491.7949L125.0086 491.7949L122.7577 491.7949M119.0162 492.5459L121.2672 492.5459L121.2672 492.5459L121.2672 491.7949L121.2672 491.7949L119.0162 491.7949M115.2748 492.5459L117.5257 492.5459L117.5257 492.5459L117.5257 491.7949L117.5257 491.7949L115.2748 491.7949M111.5333 492.5459L113.7843 492.5459L113.7843 492.5459L113.7843 491.7949L113.7843 491.7949L111.5333 491.7949M107.7919 492.5459L110.0429 492.5459L110.0429 492.5459L110.0429 491.7949L110.0429 491.7949L107.7919 491.7949M104.0505 492.5459L106.3014 492.5459L106.3014 492.5459L106.3014 491.7949L106.3014 491.7949L104.0505 491.7949M100.309 492.5459L102.56 492.5459L102.56 492.5459L102.56 491.7949L102.56 491.7949L100.309 491.7949M96.56759 492.5459L98.81853 492.5459L98.81853 492.5459L98.81853 491.7949L98.81853 491.7949L96.56759 491.7949M92.82616 492.5459L95.0771 492.5459L95.0771 492.5459L95.0771 491.7949L95.0771 491.7949L92.82616 491.7949M89.08472 492.5459L91.33566 492.5459L91.33566 492.5459L91.33566 491.7949L91.33566 491.7949L89.08472 491.7949M85.34328 492.5459L87.59422 492.5459L87.59422 492.5459L87.59422 491.7949L87.59422 491.7949L85.34328 491.7949M81.60185 492.5459L83.85279 492.5459L83.85279 492.5459L83.85279 491.7949L83.85279 491.7949L81.60185 491.7949M77.86041 492.5459L80.11136 492.5459L80.11136 492.5459L80.11136 491.7949L80.11136 491.7949L77.86041 491.7949M74.11897 492.5459L76.36992 492.5459L76.36992 492.5459L76.36992 491.7949L76.36992 491.7949L74.11897 491.7949M70.37753 492.5459L72.62848 492.5459L72.62848 492.5459L72.62848 491.7949L72.62848 491.7949L70.37753 491.7949M66.63609 492.5459L68.88704 492.5459L68.88704 492.5459L68.88704 491.7949L68.88704 491.7949L66.63609 491.7949M62.89466 492.5459L65.14561 492.5459L65.14561 492.5459L65.14561 491.7949L65.14561 491.7949L62.89466 491.7949M59.15322 492.5459L61.40417 492.5459L61.40417 492.5459L61.40417 491.7949L61.40417 491.7949L59.15322 491.7949M55.41179 492.5459L57.66273 492.5459L57.66273 492.5459L57.66273 491.7949L57.66273 491.7949L55.41179 491.7949M51.67036 492.5459L53.9213 492.5459L53.9213 492.5459L53.9213 491.7949L53.9213 491.7949L51.67036 491.7949M47.92892 492.5459L50.17986 492.5459L50.17986 492.5459L50.17986 491.7949L50.17986 491.7949L47.92892 491.7949M44.18748 492.5459L46.43843 492.5459L46.43843 492.5459L46.43843 491.7949L46.43843 491.7949L44.18748 491.7949M40.44604 492.5459L42.69699 492.5459L42.69699 492.5459L42.69699 491.7949L42.69699 491.7949L40.44604 491.7949M36.70461 492.5459L38.95555 492.5459L38.95555 492.5459L38.95555 491.7949L38.95555 491.7949L36.70461 491.7949M32.96317 492.5459L35.21412 492.5459L35.21412 492.5459L35.21412 491.7949L35.21412 491.7949L32.96317 491.7949M29.22174 492.5459L31.47268 492.5459L31.47268 492.5459L31.47268 491.7949L31.47268 491.7949L29.22174 491.7949M25.4803 492.5459L27.73124 492.5459L27.73124 492.5459L27.73124 491.7949L27.73124 491.7949L25.4803 491.7949M21.73886 492.5459L23.98981 492.5459L23.98981 492.5459L23.98981 491.7949L23.98981 491.7949L21.73886 491.7949M17.99743 492.5459L20.24837 492.5459L20.24837 492.5459L20.24837 491.7949L20.24837 491.7949L17.99743 491.7949M14.25599 492.5459L16.50694 492.5459L16.50694 492.5459L16.50694 491.7949L16.50694 491.7949L14.25599 491.7949" stroke="none" fill="#E3E4E3" fill-rule="winding" /></g><g clip-path="url(#5)"><path transform="matrix(1 0 0 -1 0 841)" d="M291.1223 366.4922L293.3732 366.4922L293.3732 366.4922L293.3732 365.7422L293.3732 365.7422L291.1223 365.7422M287.3809 366.4922L289.6318 366.4922L289.6318 366.4922L289.6318 365.7422L289.6318 365.7422L287.3809 365.7422M283.6394 366.4922L285.8904 366.4922L285.8904 366.4922L285.8904 365.7422L285.8904 365.7422L283.6394 365.7422M279.898 366.4922L282.1489 366.4922L282.1489 366.4922L282.1489 365.7422L282.1489 365.7422L279.898 365.7422M276.1566 366.4922L278.4075 366.4922L278.4075 366.4922L278.4075 365.7422L278.4075 365.7422L276.1566 365.7422M272.4151 366.4922L274.666 366.4922L274.666 366.4922L274.666 365.7422L274.666 365.7422L272.4151 365.7422M268.6737 366.4922L270.9246 366.4922L270.9246 366.4922L270.9246 365.7422L270.9246 365.7422L268.6737 365.7422M264.9323 366.4922L267.1832 366.4922L267.1832 366.4922L267.1832 365.7422L267.1832 365.7422L264.9323 365.7422M261.1908 366.4922L263.4417 366.4922L263.4417 366.4922L263.4417 365.7422L263.4417 365.7422L261.1908 365.7422M257.4494 366.4922L259.7003 366.4922L259.7003 366.4922L259.7003 365.7422L259.7003 365.7422L257.4494 365.7422M253.7079 366.4922L255.9589 366.4922L255.9589 366.4922L255.9589 365.7422L255.9589 365.7422L253.7079 365.7422M249.9665 366.4922L252.2174 366.4922L252.2174 366.4922L252.2174 365.7422L252.2174 365.7422L249.9665 365.7422M246.2251 366.4922L248.476 366.4922L248.476 366.4922L248.476 365.7422L248.476 365.7422L246.2251 365.7422M242.4836 366.4922L244.7346 366.4922L244.7346 366.4922L244.7346 365.7422L244.7346 365.7422L242.4836 365.7422M238.7422 366.4922L240.9931 366.4922L240.9931 366.4922L240.9931 365.7422L240.9931 365.7422L238.7422 365.7422M235.0007 366.4922L237.2517 366.4922L237.2517 366.4922L237.2517 365.7422L237.2517 365.7422L235.0007 365.7422M231.2593 366.4922L233.5103 366.4922L233.5103 366.4922L233.5103 365.7422L233.5103 365.7422L231.2593 365.7422M227.5179 366.4922L229.7688 366.4922L229.7688 366.4922L229.7688 365.7422L229.7688 365.7422L227.5179 365.7422M223.7764 366.4922L226.0274 366.4922L226.0274 366.4922L226.0274 365.7422L226.0274 365.7422L223.7764 365.7422M220.035 366.4922L222.2859 366.4922L222.2859 366.4922L222.2859 365.7422L222.2859 365.7422L220.035 365.7422M216.2936 366.4922L218.5445 366.4922L218.5445 366.4922L218.5445 365.7422L218.5445 365.7422L216.2936 365.7422M212.5521 366.4922L214.8031 366.4922L214.8031 366.4922L214.8031 365.7422L214.8031 365.7422L212.5521 365.7422M208.8107 366.4922L211.0616 366.4922L211.0616 366.4922L211.0616 365.7422L211.0616 365.7422L208.8107 365.7422M205.0692 366.4922L207.3202 366.4922L207.3202 366.4922L207.3202 365.7422L207.3202 365.7422L205.0692 365.7422M201.3278 366.4922L203.5788 366.4922L203.5788 366.4922L203.5788 365.7422L203.5788 365.7422L201.3278 365.7422M197.5864 366.4922L199.8373 366.4922L199.8373 366.4922L199.8373 365.7422L199.8373 365.7422L197.5864 365.7422M193.8449 366.4922L196.0959 366.4922L196.0959 366.4922L196.0959 365.7422L196.0959 365.7422L193.8449 365.7422M190.1035 366.4922L192.3545 366.4922L192.3545 366.4922L192.3545 365.7422L192.3545 365.7422L190.1035 365.7422M186.3621 366.4922L188.613 366.4922L188.613 366.4922L188.613 365.7422L188.613 365.7422L186.3621 365.7422M182.6206 366.4922L184.8716 366.4922L184.8716 366.4922L184.8716 365.7422L184.8716 365.7422L182.6206 365.7422M178.8792 366.4922L181.1301 366.4922L181.1301 366.4922L181.1301 365.7422L181.1301 365.7422L178.8792 365.7422M175.1378 366.4922L177.3887 366.4922L177.3887 366.4922L177.3887 365.7422L177.3887 365.7422L175.1378 365.7422M171.3963 366.4922L173.6473 366.4922L173.6473 366.4922L173.6473 365.7422L173.6473 365.7422L171.3963 365.7422M167.6549 366.4922L169.9058 366.4922L169.9058 366.4922L169.9058 365.7422L169.9058 365.7422L167.6549 365.7422M163.9135 366.4922L166.1644 366.4922L166.1644 366.4922L166.1644 365.7422L166.1644 365.7422L163.9135 365.7422M160.172 366.4922L162.423 366.4922L162.423 366.4922L162.423 365.7422L162.423 365.7422L160.172 365.7422M156.4306 366.4922L158.6815 366.4922L158.6815 366.4922L158.6815 365.7422L158.6815 365.7422L156.4306 365.7422M152.6891 366.4922L154.9401 366.4922L154.9401 366.4922L154.9401 365.7422L154.9401 365.7422L152.6891 365.7422M148.9477 366.4922L151.1987 366.4922L151.1987 366.4922L151.1987 365.7422L151.1987 365.7422L148.9477 365.7422M145.2063 366.4922L147.4572 366.4922L147.4572 366.4922L147.4572 365.7422L147.4572 365.7422L145.2063 365.7422M141.4648 366.4922L143.7158 366.4922L143.7158 366.4922L143.7158 365.7422L143.7158 365.7422L141.4648 365.7422M137.7234 366.4922L139.9743 366.4922L139.9743 366.4922L139.9743 365.7422L139.9743 365.7422L137.7234 365.7422M133.982 366.4922L136.2329 366.4922L136.2329 366.4922L136.2329 365.7422L136.2329 365.7422L133.982 365.7422M130.2405 366.4922L132.4915 366.4922L132.4915 366.4922L132.4915 365.7422L132.4915 365.7422L130.2405 365.7422M126.4991 366.4922L128.75 366.4922L128.75 366.4922L128.75 365.7422L128.75 365.7422L126.4991 365.7422M122.7577 366.4922L125.0086 366.4922L125.0086 366.4922L125.0086 365.7422L125.0086 365.7422L122.7577 365.7422M119.0162 366.4922L121.2672 366.4922L121.2672 366.4922L121.2672 365.7422L121.2672 365.7422L119.0162 365.7422M115.2748 366.4922L117.5257 366.4922L117.5257 366.4922L117.5257 365.7422L117.5257 365.7422L115.2748 365.7422M111.5333 366.4922L113.7843 366.4922L113.7843 366.4922L113.7843 365.7422L113.7843 365.7422L111.5333 365.7422M107.7919 366.4922L110.0429 366.4922L110.0429 366.4922L110.0429 365.7422L110.0429 365.7422L107.7919 365.7422M104.0505 366.4922L106.3014 366.4922L106.3014 366.4922L106.3014 365.7422L106.3014 365.7422L104.0505 365.7422M100.309 366.4922L102.56 366.4922L102.56 366.4922L102.56 365.7422L102.56 365.7422L100.309 365.7422M96.56759 366.4922L98.81853 366.4922L98.81853 366.4922L98.81853 365.7422L98.81853 365.7422L96.56759 365.7422M92.82616 366.4922L95.0771 366.4922L95.0771 366.4922L95.0771 365.7422L95.0771 365.7422L92.82616 365.7422M89.08472 366.4922L91.33566 366.4922L91.33566 366.4922L91.33566 365.7422L91.33566 365.7422L89.08472 365.7422M85.34328 366.4922L87.59422 366.4922L87.59422 366.4922L87.59422 365.7422L87.59422 365.7422L85.34328 365.7422M81.60185 366.4922L83.85279 366.4922L83.85279 366.4922L83.85279 365.7422L83.85279 365.7422L81.60185 365.7422M77.86041 366.4922L80.11136 366.4922L80.11136 366.4922L80.11136 365.7422L80.11136 365.7422L77.86041 365.7422M74.11897 366.4922L76.36992 366.4922L76.36992 366.4922L76.36992 365.7422L76.36992 365.7422L74.11897 365.7422M70.37753 366.4922L72.62848 366.4922L72.62848 366.4922L72.62848 365.7422L72.62848 365.7422L70.37753 365.7422M66.63609 366.4922L68.88704 366.4922L68.88704 366.4922L68.88704 365.7422L68.88704 365.7422L66.63609 365.7422M62.89466 366.4922L65.14561 366.4922L65.14561 366.4922L65.14561 365.7422L65.14561 365.7422L62.89466 365.7422M59.15322 366.4922L61.40417 366.4922L61.40417 366.4922L61.40417 365.7422L61.40417 365.7422L59.15322 365.7422M55.41179 366.4922L57.66273 366.4922L57.66273 366.4922L57.66273 365.7422L57.66273 365.7422L55.41179 365.7422M51.67036 366.4922L53.9213 366.4922L53.9213 366.4922L53.9213 365.7422L53.9213 365.7422L51.67036 365.7422M47.92892 366.4922L50.17986 366.4922L50.17986 366.4922L50.17986 365.7422L50.17986 365.7422L47.92892 365.7422M44.18748 366.4922L46.43843 366.4922L46.43843 366.4922L46.43843 365.7422L46.43843 365.7422L44.18748 365.7422M40.44604 366.4922L42.69699 366.4922L42.69699 366.4922L42.69699 365.7422L42.69699 365.7422L40.44604 365.7422M36.70461 366.4922L38.95555 366.4922L38.95555 366.4922L38.95555 365.7422L38.95555 365.7422L36.70461 365.7422M32.96317 366.4922L35.21412 366.4922L35.21412 366.4922L35.21412 365.7422L35.21412 365.7422L32.96317 365.7422M29.22174 366.4922L31.47268 366.4922L31.47268 366.4922L31.47268 365.7422L31.47268 365.7422L29.22174 365.7422M25.4803 366.4922L27.73124 366.4922L27.73124 366.4922L27.73124 365.7422L27.73124 365.7422L25.4803 365.7422M21.73886 366.4922L23.98981 366.4922L23.98981 366.4922L23.98981 365.7422L23.98981 365.7422L21.73886 365.7422M17.99743 366.4922L20.24837 366.4922L20.24837 366.4922L20.24837 365.7422L20.24837 365.7422L17.99743 365.7422M14.25599 366.4922L16.50694 366.4922L16.50694 366.4922L16.50694 365.7422L16.50694 365.7422L14.25599 365.7422" stroke="none" fill="#E3E4E3" fill-rule="winding" /></g><g clip-path="url(#6)"><path transform="matrix(1 0 0 -1 0 841)" d="M291.1223 63.36523L293.3732 63.36523L293.3732 63.36523L293.3732 62.61523L293.3732 62.61523L291.1223 62.61523M287.3809 63.36523L289.6318 63.36523L289.6318 63.36523L289.6318 62.61523L289.6318 62.61523L287.3809 62.61523M283.6394 63.36523L285.8904 63.36523L285.8904 63.36523L285.8904 62.61523L285.8904 62.61523L283.6394 62.61523M279.898 63.36523L282.1489 63.36523L282.1489 63.36523L282.1489 62.61523L282.1489 62.61523L279.898 62.61523M276.1566 63.36523L278.4075 63.36523L278.4075 63.36523L278.4075 62.61523L278.4075 62.61523L276.1566 62.61523M272.4151 63.36523L274.666 63.36523L274.666 63.36523L274.666 62.61523L274.666 62.61523L272.4151 62.61523M268.6737 63.36523L270.9246 63.36523L270.9246 63.36523L270.9246 62.61523L270.9246 62.61523L268.6737 62.61523M264.9323 63.36523L267.1832 63.36523L267.1832 63.36523L267.1832 62.61523L267.1832 62.61523L264.9323 62.61523M261.1908 63.36523L263.4417 63.36523L263.4417 63.36523L263.4417 62.61523L263.4417 62.61523L261.1908 62.61523M257.4494 63.36523L259.7003 63.36523L259.7003 63.36523L259.7003 62.61523L259.7003 62.61523L257.4494 62.61523M253.7079 63.36523L255.9589 63.36523L255.9589 63.36523L255.9589 62.61523L255.9589 62.61523L253.7079 62.61523M249.9665 63.36523L252.2174 63.36523L252.2174 63.36523L252.2174 62.61523L252.2174 62.61523L249.9665 62.61523M246.2251 63.36523L248.476 63.36523L248.476 63.36523L248.476 62.61523L248.476 62.61523L246.2251 62.61523M242.4836 63.36523L244.7346 63.36523L244.7346 63.36523L244.7346 62.61523L244.7346 62.61523L242.4836 62.61523M238.7422 63.36523L240.9931 63.36523L240.9931 63.36523L240.9931 62.61523L240.9931 62.61523L238.7422 62.61523M235.0007 63.36523L237.2517 63.36523L237.2517 63.36523L237.2517 62.61523L237.2517 62.61523L235.0007 62.61523M231.2593 63.36523L233.5103 63.36523L233.5103 63.36523L233.5103 62.61523L233.5103 62.61523L231.2593 62.61523M227.5179 63.36523L229.7688 63.36523L229.7688 63.36523L229.7688 62.61523L229.7688 62.61523L227.5179 62.61523M223.7764 63.36523L226.0274 63.36523L226.0274 63.36523L226.0274 62.61523L226.0274 62.61523L223.7764 62.61523M220.035 63.36523L222.2859 63.36523L222.2859 63.36523L222.2859 62.61523L222.2859 62.61523L220.035 62.61523M216.2936 63.36523L218.5445 63.36523L218.5445 63.36523L218.5445 62.61523L218.5445 62.61523L216.2936 62.61523M212.5521 63.36523L214.8031 63.36523L214.8031 63.36523L214.8031 62.61523L214.8031 62.61523L212.5521 62.61523M208.8107 63.36523L211.0616 63.36523L211.0616 63.36523L211.0616 62.61523L211.0616 62.61523L208.8107 62.61523M205.0692 63.36523L207.3202 63.36523L207.3202 63.36523L207.3202 62.61523L207.3202 62.61523L205.0692 62.61523M201.3278 63.36523L203.5788 63.36523L203.5788 63.36523L203.5788 62.61523L203.5788 62.61523L201.3278 62.61523M197.5864 63.36523L199.8373 63.36523L199.8373 63.36523L199.8373 62.61523L199.8373 62.61523L197.5864 62.61523M193.8449 63.36523L196.0959 63.36523L196.0959 63.36523L196.0959 62.61523L196.0959 62.61523L193.8449 62.61523M190.1035 63.36523L192.3545 63.36523L192.3545 63.36523L192.3545 62.61523L192.3545 62.61523L190.1035 62.61523M186.3621 63.36523L188.613 63.36523L188.613 63.36523L188.613 62.61523L188.613 62.61523L186.3621 62.61523M182.6206 63.36523L184.8716 63.36523L184.8716 63.36523L184.8716 62.61523L184.8716 62.61523L182.6206 62.61523M178.8792 63.36523L181.1301 63.36523L181.1301 63.36523L181.1301 62.61523L181.1301 62.61523L178.8792 62.61523M175.1378 63.36523L177.3887 63.36523L177.3887 63.36523L177.3887 62.61523L177.3887 62.61523L175.1378 62.61523M171.3963 63.36523L173.6473 63.36523L173.6473 63.36523L173.6473 62.61523L173.6473 62.61523L171.3963 62.61523M167.6549 63.36523L169.9058 63.36523L169.9058 63.36523L169.9058 62.61523L169.9058 62.61523L167.6549 62.61523M163.9135 63.36523L166.1644 63.36523L166.1644 63.36523L166.1644 62.61523L166.1644 62.61523L163.9135 62.61523M160.172 63.36523L162.423 63.36523L162.423 63.36523L162.423 62.61523L162.423 62.61523L160.172 62.61523M156.4306 63.36523L158.6815 63.36523L158.6815 63.36523L158.6815 62.61523L158.6815 62.61523L156.4306 62.61523M152.6891 63.36523L154.9401 63.36523L154.9401 63.36523L154.9401 62.61523L154.9401 62.61523L152.6891 62.61523M148.9477 63.36523L151.1987 63.36523L151.1987 63.36523L151.1987 62.61523L151.1987 62.61523L148.9477 62.61523M145.2063 63.36523L147.4572 63.36523L147.4572 63.36523L147.4572 62.61523L147.4572 62.61523L145.2063 62.61523M141.4648 63.36523L143.7158 63.36523L143.7158 63.36523L143.7158 62.61523L143.7158 62.61523L141.4648 62.61523M137.7234 63.36523L139.9743 63.36523L139.9743 63.36523L139.9743 62.61523L139.9743 62.61523L137.7234 62.61523M133.982 63.36523L136.2329 63.36523L136.2329 63.36523L136.2329 62.61523L136.2329 62.61523L133.982 62.61523M130.2405 63.36523L132.4915 63.36523L132.4915 63.36523L132.4915 62.61523L132.4915 62.61523L130.2405 62.61523M126.4991 63.36523L128.75 63.36523L128.75 63.36523L128.75 62.61523L128.75 62.61523L126.4991 62.61523M122.7577 63.36523L125.0086 63.36523L125.0086 63.36523L125.0086 62.61523L125.0086 62.61523L122.7577 62.61523M119.0162 63.36523L121.2672 63.36523L121.2672 63.36523L121.2672 62.61523L121.2672 62.61523L119.0162 62.61523M115.2748 63.36523L117.5257 63.36523L117.5257 63.36523L117.5257 62.61523L117.5257 62.61523L115.2748 62.61523M111.5333 63.36523L113.7843 63.36523L113.7843 63.36523L113.7843 62.61523L113.7843 62.61523L111.5333 62.61523M107.7919 63.36523L110.0429 63.36523L110.0429 63.36523L110.0429 62.61523L110.0429 62.61523L107.7919 62.61523M104.0505 63.36523L106.3014 63.36523L106.3014 63.36523L106.3014 62.61523L106.3014 62.61523L104.0505 62.61523M100.309 63.36523L102.56 63.36523L102.56 63.36523L102.56 62.61523L102.56 62.61523L100.309 62.61523M96.56759 63.36523L98.81853 63.36523L98.81853 63.36523L98.81853 62.61523L98.81853 62.61523L96.56759 62.61523M92.82616 63.36523L95.0771 63.36523L95.0771 63.36523L95.0771 62.61523L95.0771 62.61523L92.82616 62.61523M89.08472 63.36523L91.33566 63.36523L91.33566 63.36523L91.33566 62.61523L91.33566 62.61523L89.08472 62.61523M85.34328 63.36523L87.59422 63.36523L87.59422 63.36523L87.59422 62.61523L87.59422 62.61523L85.34328 62.61523M81.60185 63.36523L83.85279 63.36523L83.85279 63.36523L83.85279 62.61523L83.85279 62.61523L81.60185 62.61523M77.86041 63.36523L80.11136 63.36523L80.11136 63.36523L80.11136 62.61523L80.11136 62.61523L77.86041 62.61523M74.11897 63.36523L76.36992 63.36523L76.36992 63.36523L76.36992 62.61523L76.36992 62.61523L74.11897 62.61523M70.37753 63.36523L72.62848 63.36523L72.62848 63.36523L72.62848 62.61523L72.62848 62.61523L70.37753 62.61523M66.63609 63.36523L68.88704 63.36523L68.88704 63.36523L68.88704 62.61523L68.88704 62.61523L66.63609 62.61523M62.89466 63.36523L65.14561 63.36523L65.14561 63.36523L65.14561 62.61523L65.14561 62.61523L62.89466 62.61523M59.15322 63.36523L61.40417 63.36523L61.40417 63.36523L61.40417 62.61523L61.40417 62.61523L59.15322 62.61523M55.41179 63.36523L57.66273 63.36523L57.66273 63.36523L57.66273 62.61523L57.66273 62.61523L55.41179 62.61523M51.67036 63.36523L53.9213 63.36523L53.9213 63.36523L53.9213 62.61523L53.9213 62.61523L51.67036 62.61523M47.92892 63.36523L50.17986 63.36523L50.17986 63.36523L50.17986 62.61523L50.17986 62.61523L47.92892 62.61523M44.18748 63.36523L46.43843 63.36523L46.43843 63.36523L46.43843 62.61523L46.43843 62.61523L44.18748 62.61523M40.44604 63.36523L42.69699 63.36523L42.69699 63.36523L42.69699 62.61523L42.69699 62.61523L40.44604 62.61523M36.70461 63.36523L38.95555 63.36523L38.95555 63.36523L38.95555 62.61523L38.95555 62.61523L36.70461 62.61523M32.96317 63.36523L35.21412 63.36523L35.21412 63.36523L35.21412 62.61523L35.21412 62.61523L32.96317 62.61523M29.22174 63.36523L31.47268 63.36523L31.47268 63.36523L31.47268 62.61523L31.47268 62.61523L29.22174 62.61523M25.4803 63.36523L27.73124 63.36523L27.73124 63.36523L27.73124 62.61523L27.73124 62.61523L25.4803 62.61523M21.73886 63.36523L23.98981 63.36523L23.98981 63.36523L23.98981 62.61523L23.98981 62.61523L21.73886 62.61523M17.99743 63.36523L20.24837 63.36523L20.24837 63.36523L20.24837 62.61523L20.24837 62.61523L17.99743 62.61523M14.25599 63.36523L16.50694 63.36523L16.50694 63.36523L16.50694 62.61523L16.50694 62.61523L14.25599 62.61523" stroke="none" fill="#E3E4E3" fill-rule="winding" /></g><g clip-path="url(#7)"><path transform="matrix(1 0 0 -1 0 841)" d="M578.493 465.5342L580.744 465.5342L580.744 465.5342L580.744 464.7842L580.744 464.7842L578.493 464.7842M574.7617 465.5342L577.0127 465.5342L577.0127 465.5342L577.0127 464.7842L577.0127 464.7842L574.7617 464.7842M571.0305 465.5342L573.2814 465.5342L573.2814 465.5342L573.2814 464.7842L573.2814 464.7842L571.0305 464.7842M567.2991 465.5342L569.55 465.5342L569.55 465.5342L569.55 464.7842L569.55 464.7842L567.2991 464.7842M563.5679 465.5342L565.8188 465.5342L565.8188 465.5342L565.8188 464.7842L565.8188 464.7842L563.5679 464.7842M559.8365 465.5342L562.0875 465.5342L562.0875 465.5342L562.0875 464.7842L562.0875 464.7842L559.8365 464.7842M556.1052 465.5342L558.3562 465.5342L558.3562 465.5342L558.3562 464.7842L558.3562 464.7842L556.1052 464.7842M552.374 465.5342L554.6249 465.5342L554.6249 465.5342L554.6249 464.7842L554.6249 464.7842L552.374 464.7842M548.6426 465.5342L550.8936 465.5342L550.8936 465.5342L550.8936 464.7842L550.8936 464.7842L548.6426 464.7842M544.9114 465.5342L547.1623 465.5342L547.1623 465.5342L547.1623 464.7842L547.1623 464.7842L544.9114 464.7842M541.1801 465.5342L543.431 465.5342L543.431 465.5342L543.431 464.7842L543.431 464.7842L541.1801 464.7842M537.4487 465.5342L539.6997 465.5342L539.6997 465.5342L539.6997 464.7842L539.6997 464.7842L537.4487 464.7842M533.7175 465.5342L535.9684 465.5342L535.9684 465.5342L535.9684 464.7842L535.9684 464.7842L533.7175 464.7842M529.9861 465.5342L532.2371 465.5342L532.2371 465.5342L532.2371 464.7842L532.2371 464.7842L529.9861 464.7842M526.2549 465.5342L528.5058 465.5342L528.5058 465.5342L528.5058 464.7842L528.5058 464.7842L526.2549 464.7842M522.5236 465.5342L524.7745 465.5342L524.7745 465.5342L524.7745 464.7842L524.7745 464.7842L522.5236 464.7842M518.7922 465.5342L521.0432 465.5342L521.0432 465.5342L521.0432 464.7842L521.0432 464.7842L518.7922 464.7842M515.061 465.5342L517.3119 465.5342L517.3119 465.5342L517.3119 464.7842L517.3119 464.7842L515.061 464.7842M511.3296 465.5342L513.5806 465.5342L513.5806 465.5342L513.5806 464.7842L513.5806 464.7842L511.3296 464.7842M507.5984 465.5342L509.8493 465.5342L509.8493 465.5342L509.8493 464.7842L509.8493 464.7842L507.5984 464.7842M503.8671 465.5342L506.118 465.5342L506.118 465.5342L506.118 464.7842L506.118 464.7842L503.8671 464.7842M500.1358 465.5342L502.3867 465.5342L502.3867 465.5342L502.3867 464.7842L502.3867 464.7842L500.1358 464.7842M496.4045 465.5342L498.6554 465.5342L498.6554 465.5342L498.6554 464.7842L498.6554 464.7842L496.4045 464.7842M492.6732 465.5342L494.9241 465.5342L494.9241 465.5342L494.9241 464.7842L494.9241 464.7842L492.6732 464.7842M488.9419 465.5342L491.1928 465.5342L491.1928 465.5342L491.1928 464.7842L491.1928 464.7842L488.9419 464.7842M485.2106 465.5342L487.4615 465.5342L487.4615 465.5342L487.4615 464.7842L487.4615 464.7842L485.2106 464.7842M481.4793 465.5342L483.7302 465.5342L483.7302 465.5342L483.7302 464.7842L483.7302 464.7842L481.4793 464.7842M477.748 465.5342L479.9989 465.5342L479.9989 465.5342L479.9989 464.7842L479.9989 464.7842L477.748 464.7842M474.0167 465.5342L476.2676 465.5342L476.2676 465.5342L476.2676 464.7842L476.2676 464.7842L474.0167 464.7842M470.2854 465.5342L472.5363 465.5342L472.5363 465.5342L472.5363 464.7842L472.5363 464.7842L470.2854 464.7842M466.5541 465.5342L468.805 465.5342L468.805 465.5342L468.805 464.7842L468.805 464.7842L466.5541 464.7842M462.8228 465.5342L465.0737 465.5342L465.0737 465.5342L465.0737 464.7842L465.0737 464.7842L462.8228 464.7842M459.0915 465.5342L461.3424 465.5342L461.3424 465.5342L461.3424 464.7842L461.3424 464.7842L459.0915 464.7842M455.3602 465.5342L457.6112 465.5342L457.6112 465.5342L457.6112 464.7842L457.6112 464.7842L455.3602 464.7842M451.6289 465.5342L453.8799 465.5342L453.8799 465.5342L453.8799 464.7842L453.8799 464.7842L451.6289 464.7842M447.8976 465.5342L450.1485 465.5342L450.1485 465.5342L450.1485 464.7842L450.1485 464.7842L447.8976 464.7842M444.1663 465.5342L446.4172 465.5342L446.4172 465.5342L446.4172 464.7842L446.4172 464.7842L444.1663 464.7842M440.435 465.5342L442.686 465.5342L442.686 465.5342L442.686 464.7842L442.686 464.7842L440.435 464.7842M436.7037 465.5342L438.9547 465.5342L438.9547 465.5342L438.9547 464.7842L438.9547 464.7842L436.7037 464.7842M432.9724 465.5342L435.2234 465.5342L435.2234 465.5342L435.2234 464.7842L435.2234 464.7842L432.9724 464.7842M429.2411 465.5342L431.4921 465.5342L431.4921 465.5342L431.4921 464.7842L431.4921 464.7842L429.2411 464.7842M425.5098 465.5342L427.7608 465.5342L427.7608 465.5342L427.7608 464.7842L427.7608 464.7842L425.5098 464.7842M421.7785 465.5342L424.0295 465.5342L424.0295 465.5342L424.0295 464.7842L424.0295 464.7842L421.7785 464.7842M418.0472 465.5342L420.2982 465.5342L420.2982 465.5342L420.2982 464.7842L420.2982 464.7842L418.0472 464.7842M414.3159 465.5342L416.5669 465.5342L416.5669 465.5342L416.5669 464.7842L416.5669 464.7842L414.3159 464.7842M410.5846 465.5342L412.8356 465.5342L412.8356 465.5342L412.8356 464.7842L412.8356 464.7842L410.5846 464.7842M406.8533 465.5342L409.1043 465.5342L409.1043 465.5342L409.1043 464.7842L409.1043 464.7842L406.8533 464.7842M403.122 465.5342L405.373 465.5342L405.373 465.5342L405.373 464.7842L405.373 464.7842L403.122 464.7842M399.3907 465.5342L401.6417 465.5342L401.6417 465.5342L401.6417 464.7842L401.6417 464.7842L399.3907 464.7842M395.6595 465.5342L397.9104 465.5342L397.9104 465.5342L397.9104 464.7842L397.9104 464.7842L395.6595 464.7842M391.9281 465.5342L394.1791 465.5342L394.1791 465.5342L394.1791 464.7842L394.1791 464.7842L391.9281 464.7842M388.1968 465.5342L390.4478 465.5342L390.4478 465.5342L390.4478 464.7842L390.4478 464.7842L388.1968 464.7842M384.4655 465.5342L386.7165 465.5342L386.7165 465.5342L386.7165 464.7842L386.7165 464.7842L384.4655 464.7842M380.7343 465.5342L382.9852 465.5342L382.9852 465.5342L382.9852 464.7842L382.9852 464.7842L380.7343 464.7842M377.003 465.5342L379.2539 465.5342L379.2539 465.5342L379.2539 464.7842L379.2539 464.7842L377.003 464.7842M373.2717 465.5342L375.5226 465.5342L375.5226 465.5342L375.5226 464.7842L375.5226 464.7842L373.2717 464.7842M369.5404 465.5342L371.7913 465.5342L371.7913 465.5342L371.7913 464.7842L371.7913 464.7842L369.5404 464.7842M365.8091 465.5342L368.06 465.5342L368.06 465.5342L368.06 464.7842L368.06 464.7842L365.8091 464.7842M362.0778 465.5342L364.3287 465.5342L364.3287 465.5342L364.3287 464.7842L364.3287 464.7842L362.0778 464.7842M358.3465 465.5342L360.5974 465.5342L360.5974 465.5342L360.5974 464.7842L360.5974 464.7842L358.3465 464.7842M354.6152 465.5342L356.8661 465.5342L356.8661 465.5342L356.8661 464.7842L356.8661 464.7842L354.6152 464.7842M350.8839 465.5342L353.1348 465.5342L353.1348 465.5342L353.1348 464.7842L353.1348 464.7842L350.8839 464.7842M347.1526 465.5342L349.4035 465.5342L349.4035 465.5342L349.4035 464.7842L349.4035 464.7842L347.1526 464.7842M343.4213 465.5342L345.6722 465.5342L345.6722 465.5342L345.6722 464.7842L345.6722 464.7842L343.4213 464.7842M339.69 465.5342L341.9409 465.5342L341.9409 465.5342L341.9409 464.7842L341.9409 464.7842L339.69 464.7842M335.9587 465.5342L338.2096 465.5342L338.2096 465.5342L338.2096 464.7842L338.2096 464.7842L335.9587 464.7842M332.2274 465.5342L334.4783 465.5342L334.4783 465.5342L334.4783 464.7842L334.4783 464.7842L332.2274 464.7842M328.4961 465.5342L330.747 465.5342L330.747 465.5342L330.747 464.7842L330.747 464.7842L328.4961 464.7842M324.7648 465.5342L327.0157 465.5342L327.0157 465.5342L327.0157 464.7842L327.0157 464.7842L324.7648 464.7842M321.0335 465.5342L323.2845 465.5342L323.2845 465.5342L323.2845 464.7842L323.2845 464.7842L321.0335 464.7842M317.3022 465.5342L319.5532 465.5342L319.5532 465.5342L319.5532 464.7842L319.5532 464.7842L317.3022 464.7842M313.5709 465.5342L315.8219 465.5342L315.8219 465.5342L315.8219 464.7842L315.8219 464.7842L313.5709 464.7842M309.8396 465.5342L312.0906 465.5342L312.0906 465.5342L312.0906 464.7842L312.0906 464.7842L309.8396 464.7842M306.1083 465.5342L308.3593 465.5342L308.3593 465.5342L308.3593 464.7842L308.3593 464.7842L306.1083 464.7842M302.377 465.5342L304.628 465.5342L304.628 465.5342L304.628 464.7842L304.628 464.7842L302.377 464.7842" stroke="none" fill="#E3E4E3" fill-rule="winding" /></g><g clip-path="url(#8)"><path transform="matrix(1 0 0 -1 0 841)" d="M578.493 202.9238L580.744 202.9238L580.744 202.9238L580.744 202.1738L580.744 202.1738L578.493 202.1738M574.7617 202.9238L577.0127 202.9238L577.0127 202.9238L577.0127 202.1738L577.0127 202.1738L574.7617 202.1738M571.0305 202.9238L573.2814 202.9238L573.2814 202.9238L573.2814 202.1738L573.2814 202.1738L571.0305 202.1738M567.2991 202.9238L569.55 202.9238L569.55 202.9238L569.55 202.1738L569.55 202.1738L567.2991 202.1738M563.5679 202.9238L565.8188 202.9238L565.8188 202.9238L565.8188 202.1738L565.8188 202.1738L563.5679 202.1738M559.8365 202.9238L562.0875 202.9238L562.0875 202.9238L562.0875 202.1738L562.0875 202.1738L559.8365 202.1738M556.1052 202.9238L558.3562 202.9238L558.3562 202.9238L558.3562 202.1738L558.3562 202.1738L556.1052 202.1738M552.374 202.9238L554.6249 202.9238L554.6249 202.9238L554.6249 202.1738L554.6249 202.1738L552.374 202.1738M548.6426 202.9238L550.8936 202.9238L550.8936 202.9238L550.8936 202.1738L550.8936 202.1738L548.6426 202.1738M544.9114 202.9238L547.1623 202.9238L547.1623 202.9238L547.1623 202.1738L547.1623 202.1738L544.9114 202.1738M541.1801 202.9238L543.431 202.9238L543.431 202.9238L543.431 202.1738L543.431 202.1738L541.1801 202.1738M537.4487 202.9238L539.6997 202.9238L539.6997 202.9238L539.6997 202.1738L539.6997 202.1738L537.4487 202.1738M533.7175 202.9238L535.9684 202.9238L535.9684 202.9238L535.9684 202.1738L535.9684 202.1738L533.7175 202.1738M529.9861 202.9238L532.2371 202.9238L532.2371 202.9238L532.2371 202.1738L532.2371 202.1738L529.9861 202.1738M526.2549 202.9238L528.5058 202.9238L528.5058 202.9238L528.5058 202.1738L528.5058 202.1738L526.2549 202.1738M522.5236 202.9238L524.7745 202.9238L524.7745 202.9238L524.7745 202.1738L524.7745 202.1738L522.5236 202.1738M518.7922 202.9238L521.0432 202.9238L521.0432 202.9238L521.0432 202.1738L521.0432 202.1738L518.7922 202.1738M515.061 202.9238L517.3119 202.9238L517.3119 202.9238L517.3119 202.1738L517.3119 202.1738L515.061 202.1738M511.3296 202.9238L513.5806 202.9238L513.5806 202.9238L513.5806 202.1738L513.5806 202.1738L511.3296 202.1738M507.5984 202.9238L509.8493 202.9238L509.8493 202.9238L509.8493 202.1738L509.8493 202.1738L507.5984 202.1738M503.8671 202.9238L506.118 202.9238L506.118 202.9238L506.118 202.1738L506.118 202.1738L503.8671 202.1738M500.1358 202.9238L502.3867 202.9238L502.3867 202.9238L502.3867 202.1738L502.3867 202.1738L500.1358 202.1738M496.4045 202.9238L498.6554 202.9238L498.6554 202.9238L498.6554 202.1738L498.6554 202.1738L496.4045 202.1738M492.6732 202.9238L494.9241 202.9238L494.9241 202.9238L494.9241 202.1738L494.9241 202.1738L492.6732 202.1738M488.9419 202.9238L491.1928 202.9238L491.1928 202.9238L491.1928 202.1738L491.1928 202.1738L488.9419 202.1738M485.2106 202.9238L487.4615 202.9238L487.4615 202.9238L487.4615 202.1738L487.4615 202.1738L485.2106 202.1738M481.4793 202.9238L483.7302 202.9238L483.7302 202.9238L483.7302 202.1738L483.7302 202.1738L481.4793 202.1738M477.748 202.9238L479.9989 202.9238L479.9989 202.9238L479.9989 202.1738L479.9989 202.1738L477.748 202.1738M474.0167 202.9238L476.2676 202.9238L476.2676 202.9238L476.2676 202.1738L476.2676 202.1738L474.0167 202.1738M470.2854 202.9238L472.5363 202.9238L472.5363 202.9238L472.5363 202.1738L472.5363 202.1738L470.2854 202.1738M466.5541 202.9238L468.805 202.9238L468.805 202.9238L468.805 202.1738L468.805 202.1738L466.5541 202.1738M462.8228 202.9238L465.0737 202.9238L465.0737 202.9238L465.0737 202.1738L465.0737 202.1738L462.8228 202.1738M459.0915 202.9238L461.3424 202.9238L461.3424 202.9238L461.3424 202.1738L461.3424 202.1738L459.0915 202.1738M455.3602 202.9238L457.6112 202.9238L457.6112 202.9238L457.6112 202.1738L457.6112 202.1738L455.3602 202.1738M451.6289 202.9238L453.8799 202.9238L453.8799 202.9238L453.8799 202.1738L453.8799 202.1738L451.6289 202.1738M447.8976 202.9238L450.1485 202.9238L450.1485 202.9238L450.1485 202.1738L450.1485 202.1738L447.8976 202.1738M444.1663 202.9238L446.4172 202.9238L446.4172 202.9238L446.4172 202.1738L446.4172 202.1738L444.1663 202.1738M440.435 202.9238L442.686 202.9238L442.686 202.9238L442.686 202.1738L442.686 202.1738L440.435 202.1738M436.7037 202.9238L438.9547 202.9238L438.9547 202.9238L438.9547 202.1738L438.9547 202.1738L436.7037 202.1738M432.9724 202.9238L435.2234 202.9238L435.2234 202.9238L435.2234 202.1738L435.2234 202.1738L432.9724 202.1738M429.2411 202.9238L431.4921 202.9238L431.4921 202.9238L431.4921 202.1738L431.4921 202.1738L429.2411 202.1738M425.5098 202.9238L427.7608 202.9238L427.7608 202.9238L427.7608 202.1738L427.7608 202.1738L425.5098 202.1738M421.7785 202.9238L424.0295 202.9238L424.0295 202.9238L424.0295 202.1738L424.0295 202.1738L421.7785 202.1738M418.0472 202.9238L420.2982 202.9238L420.2982 202.9238L420.2982 202.1738L420.2982 202.1738L418.0472 202.1738M414.3159 202.9238L416.5669 202.9238L416.5669 202.9238L416.5669 202.1738L416.5669 202.1738L414.3159 202.1738M410.5846 202.9238L412.8356 202.9238L412.8356 202.9238L412.8356 202.1738L412.8356 202.1738L410.5846 202.1738M406.8533 202.9238L409.1043 202.9238L409.1043 202.9238L409.1043 202.1738L409.1043 202.1738L406.8533 202.1738M403.122 202.9238L405.373 202.9238L405.373 202.9238L405.373 202.1738L405.373 202.1738L403.122 202.1738M399.3907 202.9238L401.6417 202.9238L401.6417 202.9238L401.6417 202.1738L401.6417 202.1738L399.3907 202.1738M395.6595 202.9238L397.9104 202.9238L397.9104 202.9238L397.9104 202.1738L397.9104 202.1738L395.6595 202.1738M391.9281 202.9238L394.1791 202.9238L394.1791 202.9238L394.1791 202.1738L394.1791 202.1738L391.9281 202.1738M388.1968 202.9238L390.4478 202.9238L390.4478 202.9238L390.4478 202.1738L390.4478 202.1738L388.1968 202.1738M384.4655 202.9238L386.7165 202.9238L386.7165 202.9238L386.7165 202.1738L386.7165 202.1738L384.4655 202.1738M380.7343 202.9238L382.9852 202.9238L382.9852 202.9238L382.9852 202.1738L382.9852 202.1738L380.7343 202.1738M377.003 202.9238L379.2539 202.9238L379.2539 202.9238L379.2539 202.1738L379.2539 202.1738L377.003 202.1738M373.2717 202.9238L375.5226 202.9238L375.5226 202.9238L375.5226 202.1738L375.5226 202.1738L373.2717 202.1738M369.5404 202.9238L371.7913 202.9238L371.7913 202.9238L371.7913 202.1738L371.7913 202.1738L369.5404 202.1738M365.8091 202.9238L368.06 202.9238L368.06 202.9238L368.06 202.1738L368.06 202.1738L365.8091 202.1738M362.0778 202.9238L364.3287 202.9238L364.3287 202.9238L364.3287 202.1738L364.3287 202.1738L362.0778 202.1738M358.3465 202.9238L360.5974 202.9238L360.5974 202.9238L360.5974 202.1738L360.5974 202.1738L358.3465 202.1738M354.6152 202.9238L356.8661 202.9238L356.8661 202.9238L356.8661 202.1738L356.8661 202.1738L354.6152 202.1738M350.8839 202.9238L353.1348 202.9238L353.1348 202.9238L353.1348 202.1738L353.1348 202.1738L350.8839 202.1738M347.1526 202.9238L349.4035 202.9238L349.4035 202.9238L349.4035 202.1738L349.4035 202.1738L347.1526 202.1738M343.4213 202.9238L345.6722 202.9238L345.6722 202.9238L345.6722 202.1738L345.6722 202.1738L343.4213 202.1738M339.69 202.9238L341.9409 202.9238L341.9409 202.9238L341.9409 202.1738L341.9409 202.1738L339.69 202.1738M335.9587 202.9238L338.2096 202.9238L338.2096 202.9238L338.2096 202.1738L338.2096 202.1738L335.9587 202.1738M332.2274 202.9238L334.4783 202.9238L334.4783 202.9238L334.4783 202.1738L334.4783 202.1738L332.2274 202.1738M328.4961 202.9238L330.747 202.9238L330.747 202.9238L330.747 202.1738L330.747 202.1738L328.4961 202.1738M324.7648 202.9238L327.0157 202.9238L327.0157 202.9238L327.0157 202.1738L327.0157 202.1738L324.7648 202.1738M321.0335 202.9238L323.2845 202.9238L323.2845 202.9238L323.2845 202.1738L323.2845 202.1738L321.0335 202.1738M317.3022 202.9238L319.5532 202.9238L319.5532 202.9238L319.5532 202.1738L319.5532 202.1738L317.3022 202.1738M313.5709 202.9238L315.8219 202.9238L315.8219 202.9238L315.8219 202.1738L315.8219 202.1738L313.5709 202.1738M309.8396 202.9238L312.0906 202.9238L312.0906 202.9238L312.0906 202.1738L312.0906 202.1738L309.8396 202.1738M306.1083 202.9238L308.3593 202.9238L308.3593 202.9238L308.3593 202.1738L308.3593 202.1738L306.1083 202.1738M302.377 202.9238L304.628 202.9238L304.628 202.9238L304.628 202.1738L304.628 202.1738L302.377 202.1738" stroke="none" fill="#E3E4E3" fill-rule="winding" /></g><g clip-path="url(#9)"><path transform="matrix(1 0 0 -1 0 841)" d="M19.50819 720.6416L19.50819 729.6455C 19.50819 729.9453 19.56531 730.2324 19.67953 730.5078C 19.79376 730.7842 19.95641 731.0273 20.16748 731.2383C 20.37855 731.4492 20.62197 731.6113 20.89774 731.7266C 21.17351 731.8389 21.46065 731.8965 21.75914 731.8965L21.75914 731.8965L33.01387 731.8965C 33.31236 731.8965 33.59949 731.8389 33.87526 731.7266C 34.15103 731.6113 34.39445 731.4492 34.60552 731.2383C 34.81659 731.0273 34.97924 730.7842 35.09347 730.5078C 35.2077 730.2324 35.26481 729.9453 35.26481 729.6455L35.26481 729.6455L35.26481 720.6416C 35.26481 720.3438 35.2077 720.0576 35.09346 719.7813C 34.97924 719.5039 34.81659 719.2607 34.60552 719.0498C 34.39445 718.8389 34.15103 718.6758 33.87526 718.5615C 33.59949 718.4492 33.31236 718.3916 33.01387 718.3906L33.01387 718.3906L21.75914 718.3906C 21.46065 718.3916 21.17351 718.4492 20.89774 718.5615C 20.62197 718.6758 20.37855 718.8389 20.16748 719.0498C 19.95641 719.2607 19.79376 719.5039 19.67953 719.7813C 19.56531 720.0576 19.50819 720.3438 19.50819 720.6416z" stroke="none" fill="#333333" fill-rule="winding" /><path transform="matrix(1 0 0 -1 0 841)" d="M19.50819 471.5371L19.50819 480.54C 19.50819 480.8408 19.56531 481.1279 19.67953 481.4033C 19.79376 481.6787 19.95641 481.9229 20.16748 482.1318C 20.37855 482.3447 20.62197 482.5068 20.89774 482.6211C 21.17351 482.7344 21.46065 482.791 21.75914 482.791L21.75914 482.791L33.01387 482.791C 33.31236 482.791 33.59949 482.7344 33.87526 482.6211C 34.15103 482.5068 34.39445 482.3447 34.60552 482.1318C 34.81659 481.9229 34.97924 481.6787 35.09347 481.4033C 35.2077 481.1279 35.26481 480.8408 35.26481 480.54L35.26481 480.54L35.26481 471.5371C 35.26481 471.2393 35.2077 470.9531 35.09346 470.6768C 34.97924 470.4023 34.81659 470.1592 34.60552 469.9463C 34.39445 469.7373 34.15103 469.5742 33.87526 469.46C 33.59949 469.3447 33.31236 469.2871 33.01387 469.2861L33.01387 469.2861L21.75914 469.2861C 21.46065 469.2871 21.17351 469.3447 20.89774 469.46C 20.62197 469.5742 20.37855 469.7373 20.16748 469.9463C 19.95641 470.1592 19.79376 470.4023 19.67953 470.6768C 19.56531 470.9531 19.50819 471.2393 19.50819 471.5371z" stroke="none" fill="#333333" fill-rule="winding" /><path transform="matrix(1 0 0 -1 0 841)" d="M19.50819 345.4834L19.50819 354.4873C 19.50819 354.7881 19.56531 355.0752 19.67953 355.3506C 19.79376 355.626 19.95641 355.8691 20.16748 356.0801C 20.37855 356.291 20.62197 356.4541 20.89774 356.5684C 21.17351 356.6816 21.46065 356.7383 21.75914 356.7383L21.75914 356.7383L33.01387 356.7383C 33.31236 356.7383 33.59949 356.6816 33.87526 356.5684C 34.15103 356.4541 34.39445 356.291 34.60552 356.0801C 34.81659 355.8691 34.97924 355.626 35.09347 355.3506C 35.2077 355.0752 35.26481 354.7881 35.26481 354.4873L35.26481 354.4873L35.26481 345.4834C 35.26481 345.1865 35.2077 344.9004 35.09346 344.625C 34.97924 344.3496 34.81659 344.1064 34.60552 343.8936C 34.39445 343.6846 34.15103 343.5215 33.87526 343.4053C 33.59949 343.293 33.31236 343.2344 33.01387 343.2324L33.01387 343.2324L21.75914 343.2324C 21.46065 343.2344 21.17351 343.293 20.89774 343.4053C 20.62197 343.5215 20.37855 343.6846 20.16748 343.8936C 19.95641 344.1064 19.79376 344.3496 19.67953 344.625C 19.56531 344.9004 19.50819 345.1865 19.50819 345.4834z" stroke="none" fill="#333333" fill-rule="winding" /></g><g clip-path="url(#10)"><path transform="matrix(1 0 0 -1 0 841)" d="M307.6292 720.6416L307.6292 729.6455C 307.6292 729.9453 307.6863 730.2324 307.8005 730.5078C 307.9148 730.7842 308.0774 731.0273 308.2885 731.2383C 308.4995 731.4492 308.743 731.6113 309.0187 731.7266C 309.2945 731.8389 309.5817 731.8965 309.8802 731.8965L309.8802 731.8965L321.1349 731.8965C 321.4334 731.8965 321.7205 731.8389 321.9963 731.7266C 322.2721 731.6113 322.5155 731.4492 322.7266 731.2383C 322.9376 731.0273 323.1003 730.7842 323.2145 730.5078C 323.3287 730.2324 323.3858 729.9453 323.3858 729.6455L323.3858 729.6455L323.3858 720.6416C 323.3858 720.3438 323.3287 720.0576 323.2145 719.7813C 323.1003 719.5039 322.9376 719.2607 322.7266 719.0498C 322.5155 718.8389 322.2721 718.6758 321.9963 718.5615C 321.7205 718.4492 321.4334 718.3916 321.1349 718.3906L321.1349 718.3906L309.8802 718.3906C 309.5817 718.3916 309.2945 718.4492 309.0187 718.5615C 308.743 718.6758 308.4995 718.8389 308.2885 719.0498C 308.0774 719.2607 307.9148 719.5039 307.8005 719.7813C 307.6863 720.0576 307.6292 720.3438 307.6292 720.6416z" stroke="none" fill="#333333" fill-rule="winding" /><path transform="matrix(1 0 0 -1 0 841)" d="M307.6292 444.5254L307.6292 453.5293C 307.6292 453.8281 307.6863 454.1152 307.8005 454.3926C 307.9148 454.668 308.0774 454.9111 308.2885 455.1211C 308.4995 455.333 308.743 455.4961 309.0187 455.6104C 309.2945 455.7227 309.5817 455.7803 309.8802 455.7803L309.8802 455.7803L321.1349 455.7803C 321.4334 455.7803 321.7205 455.7227 321.9963 455.6104C 322.2721 455.4961 322.5155 455.333 322.7266 455.1211C 322.9376 454.9111 323.1003 454.668 323.2145 454.3926C 323.3287 454.1152 323.3858 453.8281 323.3858 453.5293L323.3858 453.5293L323.3858 444.5254C 323.3858 444.2275 323.3287 443.9404 323.2145 443.665C 323.1003 443.3896 322.9376 443.1465 322.7266 442.9336C 322.5155 442.7246 322.2721 442.5615 321.9963 442.4473C 321.7205 442.333 321.4334 442.2754 321.1349 442.2744L321.1349 442.2744L309.8802 442.2744C 309.5817 442.2754 309.2945 442.333 309.0187 442.4473C 308.743 442.5615 308.4995 442.7246 308.2885 442.9336C 308.0774 443.1465 307.9148 443.3896 307.8005 443.665C 307.6863 443.9404 307.6292 444.2275 307.6292 444.5254z" stroke="none" fill="#333333" fill-rule="winding" /><path transform="matrix(1 0 0 -1 0 841)" d="M307.6292 368.7432L318.1336 368.7432L318.1336 368.7432L318.1336 358.2393L318.1336 358.2393L307.6292 358.2393z" stroke="none" fill="#FFFFFF" fill-rule="winding" /><path transform="matrix(1 0 0 -1 0 841)" d="M307.6292 286.209L318.1336 286.209L318.1336 286.209L318.1336 275.7041L318.1336 275.7041L307.6292 275.7041z" stroke="none" fill="#FFFFFF" fill-rule="winding" /><path transform="matrix(1 0 0 -1 0 841)" d="M307.6292 181.915L307.6292 190.9189C 307.6292 191.2178 307.6863 191.5049 307.8005 191.7822C 307.9148 192.0576 308.0774 192.3008 308.2885 192.5117C 308.4995 192.7227 308.743 192.8857 309.0187 193C 309.2945 193.1123 309.5817 193.1699 309.8802 193.1699L309.8802 193.1699L321.1349 193.1699C 321.4334 193.1699 321.7205 193.1123 321.9963 193C 322.2721 192.8857 322.5155 192.7227 322.7266 192.5117C 322.9376 192.3008 323.1003 192.0576 323.2145 191.7822C 323.3287 191.5049 323.3858 191.2178 323.3858 190.9189L323.3858 190.9189L323.3858 181.915C 323.3858 181.6172 323.3287 181.332 323.2145 181.0566C 323.1003 180.7803 322.9376 180.5371 322.7266 180.3252C 322.5155 180.1143 322.2721 179.9512 321.9963 179.8369C 321.7205 179.7246 321.4334 179.665 321.1349 179.6641L321.1349 179.6641L309.8802 179.6641C 309.5817 179.665 309.2945 179.7246 309.0187 179.8369C 308.743 179.9512 308.4995 180.1143 308.2885 180.3252C 308.0774 180.5371 307.9148 180.7803 307.8005 181.0566C 307.6863 181.332 307.6292 181.6172 307.6292 181.915z" stroke="none" fill="#333333" fill-rule="winding" /></g><g clip-path="url(#11)"></g><g clip-path="url(#12)"></g></g></g></g></svg>