<svg xmlns="http://www.w3.org/2000/svg" xmlns:xlink="http://www.w3.org/1999/xlink" id="body_14" preserveAspectRatio="xMinYMin meet" viewBox="0 0 792 1121"><defs><clipPath id="1"><path d="M0 841L0 -0.9199829L0 -0.9199829L594.96 -0.9199829L594.96 -0.9199829L594.96 841L594.96 841L0 841z" /></clipPath><clipPath id="2"><path d="M0 -0.9199829L595.2 -0.9199829L595.2 -0.9199829L595.2 841.24L595.2 841.24L0 841.24z" /></clipPath><clipPath id="3"><path d="M0 55.07971L594.9999 55.07971L594.9999 55.07971L594.9999 790.3881L594.9999 790.3881L0 790.3881z" /></clipPath><clipPath id="4"><path d="M19.5082 470.0041L98.29129 470.0041L98.29129 470.0041L98.29129 470.7541L98.29129 470.7541L19.5082 470.7541z" /></clipPath><clipPath id="5"><path d="M0 55.07971L594.9999 55.07971L594.9999 55.07971L594.9999 790.3881L594.9999 790.3881L0 790.3881z" /></clipPath><clipPath id="6"><path d="M19.5082 542.7841L98.29129 542.7841L98.29129 542.7841L98.29129 543.535L98.29129 543.535L19.5082 543.535z" /></clipPath><clipPath id="7"><path d="M0 55.07971L594.9999 55.07971L594.9999 55.07971L594.9999 790.3881L594.9999 790.3881L0 790.3881z" /></clipPath></defs><g transform="matrix(1.333333 0 0 1.333333 0 0)"><g><g clip-path="url(#1)"><g clip-path="url(#2)"><path transform="matrix(1 0 0 -1 0 841)" d="M0 841.92L792.9999 841.92L792.9999 841.92L792.9999 -280.0799L792.9999 -280.0799L0 -280.0799z" stroke="none" fill="#FFFFFF" fill-rule="winding" /><path transform="matrix(1 0 0 -1 0 841)" d="M0 796.92L594.9999 796.92L594.9999 796.92L594.9999 795.92L594.9999 795.92L0 795.92z" stroke="none" fill="#B7B5B5" fill-rule="winding" /><g transform="matrix(0.1840659 0 0 0.1886792 510 12.08002)"><g transform="matrix(1 0 0 1 0 0)"><image x="0" y="0" xlink:href="img_01.png" width="364" height="106" /></g></g></g><g clip-path="url(#3)"><path transform="matrix(1 0 0 -1 0 841)" d="M0 10344.94L594.9999 10344.94L594.9999 10344.94L594.9999 -9881.313L594.9999 -9881.313L0 -9881.313z" stroke="none" fill="#FFFFFF" fill-rule="winding" /><path transform="matrix(1 0 0 -1 0 841)" d="M107.2951 1272.874L108.0454 1272.874L108.0454 1272.874L108.0454 431.7705L108.0454 431.7705L107.2951 431.7705z" stroke="none" fill="#B5B6B5" fill-rule="winding" /></g><g clip-path="url(#4)"><path transform="matrix(1 0 0 -1 0 841)" d="M96.04034 370.9951L98.29129 370.9951L98.29129 370.9951L98.29129 370.2441L98.29129 370.2441L96.04034 370.2441M92.21374 370.9951L94.46468 370.9951L94.46468 370.9951L94.46468 370.2441L94.46468 370.2441L92.21374 370.2441M88.38712 370.9951L90.63807 370.9951L90.63807 370.9951L90.63807 370.2441L90.63807 370.2441L88.38712 370.2441M84.56052 370.9951L86.81146 370.9951L86.81146 370.9951L86.81146 370.2441L86.81146 370.2441L84.56052 370.2441M80.73391 370.9951L82.98486 370.9951L82.98486 370.9951L82.98486 370.2441L82.98486 370.2441L80.73391 370.2441M76.90731 370.9951L79.15825 370.9951L79.15825 370.9951L79.15825 370.2441L79.15825 370.2441L76.90731 370.2441M73.0807 370.9951L75.33165 370.9951L75.33165 370.9951L75.33165 370.2441L75.33165 370.2441L73.0807 370.2441M69.25409 370.9951L71.50504 370.9951L71.50504 370.9951L71.50504 370.2441L71.50504 370.2441L69.25409 370.2441M65.42748 370.9951L67.67843 370.9951L67.67843 370.9951L67.67843 370.2441L67.67843 370.2441L65.42748 370.2441M61.60088 370.9951L63.85182 370.9951L63.85182 370.9951L63.85182 370.2441L63.85182 370.2441L61.60088 370.2441M57.77427 370.9951L60.02522 370.9951L60.02522 370.9951L60.02522 370.2441L60.02522 370.2441L57.77427 370.2441M53.94766 370.9951L56.1986 370.9951L56.1986 370.9951L56.1986 370.2441L56.1986 370.2441L53.94766 370.2441M50.12106 370.9951L52.372 370.9951L52.372 370.9951L52.372 370.2441L52.372 370.2441L50.12106 370.2441M46.29445 370.9951L48.54539 370.9951L48.54539 370.9951L48.54539 370.2441L48.54539 370.2441L46.29445 370.2441M42.46784 370.9951L44.71878 370.9951L44.71878 370.9951L44.71878 370.2441L44.71878 370.2441L42.46784 370.2441M38.64123 370.9951L40.89218 370.9951L40.89218 370.9951L40.89218 370.2441L40.89218 370.2441L38.64123 370.2441M34.81462 370.9951L37.06557 370.9951L37.06557 370.9951L37.06557 370.2441L37.06557 370.2441L34.81462 370.2441M30.98802 370.9951L33.23896 370.9951L33.23896 370.9951L33.23896 370.2441L33.23896 370.2441L30.98802 370.2441M27.16141 370.9951L29.41236 370.9951L29.41236 370.9951L29.41236 370.2441L29.41236 370.2441L27.16141 370.2441M23.3348 370.9951L25.58575 370.9951L25.58575 370.9951L25.58575 370.2441L25.58575 370.2441L23.3348 370.2441M19.50819 370.9951L21.75914 370.9951L21.75914 370.9951L21.75914 370.2441L21.75914 370.2441L19.50819 370.2441" stroke="none" fill="#B5B6B5" fill-rule="winding" /></g><g clip-path="url(#5)"><path transform="matrix(1 0 0 -1 0 841)" d="M29.63745 383.75C 29.63745 383.4307 29.60621 383.1143 29.54374 382.7998C 29.48126 382.4863 29.38875 382.1816 29.2662 381.8867C 29.14366 381.5898 28.99343 381.3086 28.81552 381.042C 28.6376 380.7764 28.43543 380.5293 28.20899 380.3027C 27.98255 380.0762 27.7362 379.875 27.46994 379.6973C 27.20368 379.5186 26.92262 379.3682 26.62676 379.2461C 26.33091 379.123 26.02594 379.0303 25.71186 378.9678C 25.39779 378.9043 25.08063 378.873 24.7604 378.873C 24.44017 378.873 24.12301 378.9043 23.80893 378.9668C 23.49485 379.0303 23.18989 379.123 22.89403 379.2461C 22.59818 379.3682 22.31712 379.5195 22.05085 379.6973C 21.78459 379.875 21.53824 380.0762 21.3118 380.3027C 21.08537 380.5293 20.88319 380.7764 20.70528 381.042C 20.52737 381.3086 20.37714 381.5898 20.25459 381.8867C 20.13205 382.1816 20.03954 382.4863 19.97706 382.7998C 19.91459 383.1143 19.88335 383.4307 19.88335 383.75C 19.88335 384.0703 19.91459 384.3877 19.97706 384.7021C 20.03953 385.0166 20.13204 385.3213 20.25459 385.6182C 20.37714 385.9131 20.52737 386.1943 20.70528 386.4609C 20.88319 386.7275 21.08537 386.9736 21.3118 387.2002C 21.53824 387.4268 21.78459 387.6289 22.05085 387.8066C 22.31712 387.9844 22.59818 388.1348 22.89403 388.2568C 23.18989 388.3799 23.49485 388.4717 23.80893 388.5342C 24.12301 388.5967 24.44017 388.627 24.7604 388.627C 25.08063 388.627 25.39779 388.5967 25.71186 388.5342C 26.02594 388.4717 26.33091 388.3799 26.62676 388.2568C 26.92262 388.1348 27.20368 387.9844 27.46994 387.8066C 27.7362 387.6289 27.98255 387.4268 28.20899 387.2002C 28.43543 386.9736 28.6376 386.7275 28.81552 386.4609C 28.99343 386.1943 29.14366 385.9141 29.2662 385.6191C 29.38875 385.3223 29.48126 385.0176 29.54374 384.7031C 29.60621 384.3887 29.63745 384.0703 29.63745 383.75z" stroke="#C3C4C3" stroke-width="0.7503152" fill="none" /><path transform="matrix(1 0 0 -1 0 841)" d="M58.14943 383.75C 58.14943 383.4307 58.11819 383.1143 58.05572 382.7998C 57.99325 382.4863 57.90073 382.1816 57.77819 381.8867C 57.65564 381.5898 57.50541 381.3086 57.32749 381.042C 57.14958 380.7764 56.94741 380.5293 56.72097 380.3027C 56.49453 380.0762 56.24818 379.875 55.98191 379.6973C 55.71565 379.5186 55.43459 379.3682 55.13874 379.2461C 54.84288 379.123 54.53791 379.0303 54.22384 378.9678C 53.90976 378.9043 53.59261 378.873 53.27238 378.873C 52.95215 378.873 52.63499 378.9043 52.32091 378.9668C 52.00683 379.0303 51.70186 379.123 51.40601 379.2461C 51.11015 379.3682 50.82909 379.5195 50.56283 379.6973C 50.29657 379.875 50.05022 380.0762 49.82378 380.3027C 49.59734 380.5293 49.39516 380.7764 49.21725 381.042C 49.03934 381.3086 48.88911 381.5898 48.76657 381.8867C 48.64402 382.1816 48.55151 382.4863 48.48903 382.7998C 48.42656 383.1143 48.39533 383.4307 48.39533 383.75C 48.39533 384.0703 48.42657 384.3877 48.48904 384.7021C 48.55151 385.0166 48.64402 385.3213 48.76657 385.6182C 48.88911 385.9131 49.03934 386.1943 49.21725 386.4609C 49.39516 386.7275 49.59734 386.9736 49.82378 387.2002C 50.05022 387.4268 50.29657 387.6289 50.56283 387.8066C 50.82909 387.9844 51.11015 388.1348 51.40601 388.2568C 51.70186 388.3799 52.00683 388.4717 52.32091 388.5342C 52.63499 388.5967 52.95215 388.627 53.27238 388.627C 53.59261 388.627 53.90976 388.5967 54.22384 388.5342C 54.53791 388.4717 54.84288 388.3799 55.13874 388.2568C 55.43459 388.1348 55.71565 387.9844 55.98191 387.8066C 56.24818 387.6289 56.49453 387.4268 56.72097 387.2002C 56.94741 386.9736 57.14958 386.7275 57.32749 386.4609C 57.50541 386.1943 57.65564 385.9141 57.77819 385.6191C 57.90073 385.3223 57.99325 385.0176 58.05572 384.7031C 58.11819 384.3887 58.14943 384.0703 58.14943 383.75z" stroke="#C3C4C3" stroke-width="0.7503152" fill="none" /><path transform="matrix(1 0 0 -1 0 841)" d="M86.66141 383.75C 86.66141 383.4307 86.63017 383.1143 86.56768 382.7998C 86.5052 382.4863 86.4127 382.1816 86.29015 381.8867C 86.1676 381.5898 86.01737 381.3086 85.83946 381.042C 85.66155 380.7764 85.45938 380.5293 85.23295 380.3027C 85.00651 380.0762 84.76015 379.875 84.49389 379.6973C 84.22762 379.5186 83.94656 379.3682 83.65071 379.2461C 83.35485 379.123 83.04989 379.0303 82.73581 378.9678C 82.42174 378.9043 82.10458 378.873 81.78436 378.873C 81.46413 378.873 81.14697 378.9043 80.83289 378.9668C 80.51881 379.0303 80.21384 379.123 79.91798 379.2461C 79.62213 379.3682 79.34107 379.5195 79.07481 379.6973C 78.80855 379.875 78.5622 380.0762 78.33576 380.3027C 78.10932 380.5293 77.90714 380.7764 77.72923 381.042C 77.55132 381.3086 77.40109 381.5898 77.27855 381.8867C 77.156 382.1816 77.06349 382.4863 77.00102 382.7998C 76.93854 383.1143 76.9073 383.4307 76.90731 383.75C 76.9073 384.0703 76.93854 384.3877 77.00102 384.7021C 77.06348 385.0166 77.156 385.3213 77.27855 385.6182C 77.40109 385.9131 77.55132 386.1943 77.72923 386.4609C 77.90715 386.7275 78.10932 386.9736 78.33576 387.2002C 78.5622 387.4268 78.80855 387.6289 79.07481 387.8066C 79.34107 387.9844 79.62213 388.1348 79.91798 388.2568C 80.21384 388.3799 80.51881 388.4717 80.83289 388.5342C 81.14697 388.5967 81.46413 388.627 81.78436 388.627C 82.10458 388.627 82.42174 388.5967 82.73581 388.5342C 83.04989 388.4717 83.35485 388.3799 83.65071 388.2568C 83.94656 388.1348 84.22762 387.9844 84.49389 387.8066C 84.76015 387.6289 85.00651 387.4268 85.23295 387.2002C 85.45938 386.9736 85.66155 386.7275 85.83946 386.4609C 86.01737 386.1943 86.1676 385.9141 86.29015 385.6191C 86.4127 385.3223 86.5052 385.0176 86.56768 384.7031C 86.63017 384.3887 86.66141 384.0703 86.66141 383.75z" stroke="#C3C4C3" stroke-width="0.7503152" fill="none" /></g><g clip-path="url(#6)"><path transform="matrix(1 0 0 -1 0 841)" d="M96.04034 298.2148L98.29129 298.2148L98.29129 298.2148L98.29129 297.4639L98.29129 297.4639L96.04034 297.4639M92.21374 298.2148L94.46468 298.2148L94.46468 298.2148L94.46468 297.4639L94.46468 297.4639L92.21374 297.4639M88.38712 298.2148L90.63807 298.2148L90.63807 298.2148L90.63807 297.4639L90.63807 297.4639L88.38712 297.4639M84.56052 298.2148L86.81146 298.2148L86.81146 298.2148L86.81146 297.4639L86.81146 297.4639L84.56052 297.4639M80.73391 298.2148L82.98486 298.2148L82.98486 298.2148L82.98486 297.4639L82.98486 297.4639L80.73391 297.4639M76.90731 298.2148L79.15825 298.2148L79.15825 298.2148L79.15825 297.4639L79.15825 297.4639L76.90731 297.4639M73.0807 298.2148L75.33165 298.2148L75.33165 298.2148L75.33165 297.4639L75.33165 297.4639L73.0807 297.4639M69.25409 298.2148L71.50504 298.2148L71.50504 298.2148L71.50504 297.4639L71.50504 297.4639L69.25409 297.4639M65.42748 298.2148L67.67843 298.2148L67.67843 298.2148L67.67843 297.4639L67.67843 297.4639L65.42748 297.4639M61.60088 298.2148L63.85182 298.2148L63.85182 298.2148L63.85182 297.4639L63.85182 297.4639L61.60088 297.4639M57.77427 298.2148L60.02522 298.2148L60.02522 298.2148L60.02522 297.4639L60.02522 297.4639L57.77427 297.4639M53.94766 298.2148L56.1986 298.2148L56.1986 298.2148L56.1986 297.4639L56.1986 297.4639L53.94766 297.4639M50.12106 298.2148L52.372 298.2148L52.372 298.2148L52.372 297.4639L52.372 297.4639L50.12106 297.4639M46.29445 298.2148L48.54539 298.2148L48.54539 298.2148L48.54539 297.4639L48.54539 297.4639L46.29445 297.4639M42.46784 298.2148L44.71878 298.2148L44.71878 298.2148L44.71878 297.4639L44.71878 297.4639L42.46784 297.4639M38.64123 298.2148L40.89218 298.2148L40.89218 298.2148L40.89218 297.4639L40.89218 297.4639L38.64123 297.4639M34.81462 298.2148L37.06557 298.2148L37.06557 298.2148L37.06557 297.4639L37.06557 297.4639L34.81462 297.4639M30.98802 298.2148L33.23896 298.2148L33.23896 298.2148L33.23896 297.4639L33.23896 297.4639L30.98802 297.4639M27.16141 298.2148L29.41236 298.2148L29.41236 298.2148L29.41236 297.4639L29.41236 297.4639L27.16141 297.4639M23.3348 298.2148L25.58575 298.2148L25.58575 298.2148L25.58575 297.4639L25.58575 297.4639L23.3348 297.4639M19.50819 298.2148L21.75914 298.2148L21.75914 298.2148L21.75914 297.4639L21.75914 297.4639L19.50819 297.4639" stroke="none" fill="#B5B6B5" fill-rule="winding" /></g><g clip-path="url(#7)"><path transform="matrix(1 0 0 -1 0 841)" d="M107.2951 431.7705L594.9999 431.7705L594.9999 431.7705L594.9999 431.0205L594.9999 431.0205L107.2951 431.0205z" stroke="none" fill="#B5B6B5" fill-rule="winding" /><path transform="matrix(1 0 0 -1 0 841)" d="M0 431.7705L107.2951 431.7705L107.2951 431.7705L107.2951 431.0205L107.2951 431.0205L0 431.0205z" stroke="none" fill="#B5B6B5" fill-rule="winding" /><path transform="matrix(1 0 0 -1 0 841)" d="M107.2951 431.7705L108.0454 431.7705L108.0454 431.7705L108.0454 -572.9014L108.0454 -572.9014L107.2951 -572.9014z" stroke="none" fill="#B5B6B5" fill-rule="winding" /><g transform="matrix(0.7503151 0 0 0.7503152 402.1689 165.3757)"><g transform="matrix(1 0 0 1 0 0)"><image x="0" y="0" xlink:href="img_40.png" width="200" height="190" /></g></g><g transform="matrix(0.4991227 0 0 0.454953 122.3014 507.5191)"><g transform="matrix(1 0 0 1 0 0)"><image x="0" y="0" xlink:href="img_44.png" width="460" height="315" /></g></g></g></g></g></g></svg>