<svg xmlns="http://www.w3.org/2000/svg" xmlns:xlink="http://www.w3.org/1999/xlink" id="body_15" preserveAspectRatio="xMinYMin meet" viewBox="0 0 792 1121"><defs><clipPath id="1"><path d="M0 841L0 -0.9199829L0 -0.9199829L594.96 -0.9199829L594.96 -0.9199829L594.96 841L594.96 841L0 841z" /></clipPath><clipPath id="2"><path d="M0 -0.9199829L595.2 -0.9199829L595.2 -0.9199829L595.2 841.24L595.2 841.24L0 841.24z" /></clipPath><clipPath id="3"><path d="M0 55.07971L594.9999 55.07971L594.9999 55.07971L594.9999 790.389L594.9999 790.389L0 790.389z" /></clipPath><clipPath id="4"><path d="M14.25599 162.3747L473.4489 162.3747L473.4489 162.3747L473.4489 163.1256L473.4489 163.1256L14.25599 163.1256z" /></clipPath><clipPath id="5"><path d="M0 55.07971L594.9999 55.07971L594.9999 55.07971L594.9999 790.389L594.9999 790.389L0 790.389z" /></clipPath><clipPath id="6"><path d="M493.7074 445.9937L571.7402 445.9937L571.7402 445.9937L571.7402 446.7447L571.7402 446.7447L493.7074 446.7447z" /></clipPath><clipPath id="7"><path d="M0 55.07971L594.9999 55.07971L594.9999 55.07971L594.9999 790.389L594.9999 790.389L0 790.389z" /></clipPath><clipPath id="8"><path d="M493.7074 545.7859L571.7402 545.7859L571.7402 545.7859L571.7402 546.5359L571.7402 546.5359L493.7074 546.5359z" /></clipPath><clipPath id="9"><path d="M0 55.07971L594.9999 55.07971L594.9999 55.07971L594.9999 790.389L594.9999 790.389L0 790.389z" /></clipPath></defs><g transform="matrix(1.333333 0 0 1.333333 0 0)"><g><g clip-path="url(#1)"><g clip-path="url(#2)"><path transform="matrix(1 0 0 -1 0 841)" d="M0 841.92L792.9999 841.92L792.9999 841.92L792.9999 -280.0799L792.9999 -280.0799L0 -280.0799z" stroke="none" fill="#FFFFFF" fill-rule="winding" /><path transform="matrix(1 0 0 -1 0 841)" d="M0 796.92L594.9999 796.92L594.9999 796.92L594.9999 795.92L594.9999 795.92L0 795.92z" stroke="none" fill="#B7B5B5" fill-rule="winding" /><g transform="matrix(0.1840659 0 0 0.1886792 510 12.08002)"><g transform="matrix(1 0 0 1 0 0)"><image x="0" y="0" xlink:href="img_01.png" width="364" height="106" /></g></g></g><g clip-path="url(#3)"><path transform="matrix(1 0 0 -1 0 841)" d="M0 11080.24L594.9999 11080.24L594.9999 11080.24L594.9999 -8410.695L594.9999 -8410.695L0 -8410.695z" stroke="none" fill="#FFFFFF" fill-rule="winding" /></g><g clip-path="url(#4)"><path transform="matrix(1 0 0 -1 0 841)" d="M471.1979 678.624L473.4489 678.624L473.4489 678.624L473.4489 677.873L473.4489 677.873L471.1979 677.873M467.4525 678.624L469.7034 678.624L469.7034 678.624L469.7034 677.873L469.7034 677.873L467.4525 677.873M463.7071 678.624L465.958 678.624L465.958 678.624L465.958 677.873L465.958 677.873L463.7071 677.873M459.9617 678.624L462.2126 678.624L462.2126 678.624L462.2126 677.873L462.2126 677.873L459.9617 677.873M456.2162 678.624L458.4672 678.624L458.4672 678.624L458.4672 677.873L458.4672 677.873L456.2162 677.873M452.4708 678.624L454.7217 678.624L454.7217 678.624L454.7217 677.873L454.7217 677.873L452.4708 677.873M448.7254 678.624L450.9763 678.624L450.9763 678.624L450.9763 677.873L450.9763 677.873L448.7254 677.873M444.9799 678.624L447.2309 678.624L447.2309 678.624L447.2309 677.873L447.2309 677.873L444.9799 677.873M441.2345 678.624L443.4855 678.624L443.4855 678.624L443.4855 677.873L443.4855 677.873L441.2345 677.873M437.4891 678.624L439.7401 678.624L439.7401 678.624L439.7401 677.873L439.7401 677.873L437.4891 677.873M433.7437 678.624L435.9946 678.624L435.9946 678.624L435.9946 677.873L435.9946 677.873L433.7437 677.873M429.9982 678.624L432.2492 678.624L432.2492 678.624L432.2492 677.873L432.2492 677.873L429.9982 677.873M426.2528 678.624L428.5038 678.624L428.5038 678.624L428.5038 677.873L428.5038 677.873L426.2528 677.873M422.5074 678.624L424.7584 678.624L424.7584 678.624L424.7584 677.873L424.7584 677.873L422.5074 677.873M418.762 678.624L421.0129 678.624L421.0129 678.624L421.0129 677.873L421.0129 677.873L418.762 677.873M415.0165 678.624L417.2675 678.624L417.2675 678.624L417.2675 677.873L417.2675 677.873L415.0165 677.873M411.2711 678.624L413.5221 678.624L413.5221 678.624L413.5221 677.873L413.5221 677.873L411.2711 677.873M407.5257 678.624L409.7766 678.624L409.7766 678.624L409.7766 677.873L409.7766 677.873L407.5257 677.873M403.7803 678.624L406.0312 678.624L406.0312 678.624L406.0312 677.873L406.0312 677.873L403.7803 677.873M400.0349 678.624L402.2858 678.624L402.2858 678.624L402.2858 677.873L402.2858 677.873L400.0349 677.873M396.2894 678.624L398.5404 678.624L398.5404 678.624L398.5404 677.873L398.5404 677.873L396.2894 677.873M392.544 678.624L394.7949 678.624L394.7949 678.624L394.7949 677.873L394.7949 677.873L392.544 677.873M388.7986 678.624L391.0495 678.624L391.0495 678.624L391.0495 677.873L391.0495 677.873L388.7986 677.873M385.0532 678.624L387.3041 678.624L387.3041 678.624L387.3041 677.873L387.3041 677.873L385.0532 677.873M381.3077 678.624L383.5587 678.624L383.5587 678.624L383.5587 677.873L383.5587 677.873L381.3077 677.873M377.5623 678.624L379.8132 678.624L379.8132 678.624L379.8132 677.873L379.8132 677.873L377.5623 677.873M373.8169 678.624L376.0678 678.624L376.0678 678.624L376.0678 677.873L376.0678 677.873L373.8169 677.873M370.0714 678.624L372.3224 678.624L372.3224 678.624L372.3224 677.873L372.3224 677.873L370.0714 677.873M366.326 678.624L368.577 678.624L368.577 678.624L368.577 677.873L368.577 677.873L366.326 677.873M362.5806 678.624L364.8315 678.624L364.8315 678.624L364.8315 677.873L364.8315 677.873L362.5806 677.873M358.8352 678.624L361.0861 678.624L361.0861 678.624L361.0861 677.873L361.0861 677.873L358.8352 677.873M355.0897 678.624L357.3407 678.624L357.3407 678.624L357.3407 677.873L357.3407 677.873L355.0897 677.873M351.3443 678.624L353.5953 678.624L353.5953 678.624L353.5953 677.873L353.5953 677.873L351.3443 677.873M347.5989 678.624L349.8499 678.624L349.8499 678.624L349.8499 677.873L349.8499 677.873L347.5989 677.873M343.8535 678.624L346.1044 678.624L346.1044 678.624L346.1044 677.873L346.1044 677.873L343.8535 677.873M340.108 678.624L342.359 678.624L342.359 678.624L342.359 677.873L342.359 677.873L340.108 677.873M336.3626 678.624L338.6136 678.624L338.6136 678.624L338.6136 677.873L338.6136 677.873L336.3626 677.873M332.6172 678.624L334.8681 678.624L334.8681 678.624L334.8681 677.873L334.8681 677.873L332.6172 677.873M328.8717 678.624L331.1227 678.624L331.1227 678.624L331.1227 677.873L331.1227 677.873L328.8717 677.873M325.1263 678.624L327.3773 678.624L327.3773 678.624L327.3773 677.873L327.3773 677.873L325.1263 677.873M321.3809 678.624L323.6319 678.624L323.6319 678.624L323.6319 677.873L323.6319 677.873L321.3809 677.873M317.6355 678.624L319.8864 678.624L319.8864 678.624L319.8864 677.873L319.8864 677.873L317.6355 677.873M313.89 678.624L316.141 678.624L316.141 678.624L316.141 677.873L316.141 677.873L313.89 677.873M310.1446 678.624L312.3956 678.624L312.3956 678.624L312.3956 677.873L312.3956 677.873L310.1446 677.873M306.3992 678.624L308.6501 678.624L308.6501 678.624L308.6501 677.873L308.6501 677.873L306.3992 677.873M302.6538 678.624L304.9047 678.624L304.9047 678.624L304.9047 677.873L304.9047 677.873L302.6538 677.873M298.9084 678.624L301.1593 678.624L301.1593 678.624L301.1593 677.873L301.1593 677.873L298.9084 677.873M295.1629 678.624L297.4139 678.624L297.4139 678.624L297.4139 677.873L297.4139 677.873L295.1629 677.873M291.4175 678.624L293.6684 678.624L293.6684 678.624L293.6684 677.873L293.6684 677.873L291.4175 677.873M287.6721 678.624L289.923 678.624L289.923 678.624L289.923 677.873L289.923 677.873L287.6721 677.873M283.9267 678.624L286.1776 678.624L286.1776 678.624L286.1776 677.873L286.1776 677.873L283.9267 677.873M280.1812 678.624L282.4322 678.624L282.4322 678.624L282.4322 677.873L282.4322 677.873L280.1812 677.873M276.4358 678.624L278.6867 678.624L278.6867 678.624L278.6867 677.873L278.6867 677.873L276.4358 677.873M272.6904 678.624L274.9413 678.624L274.9413 678.624L274.9413 677.873L274.9413 677.873L272.6904 677.873M268.9449 678.624L271.1959 678.624L271.1959 678.624L271.1959 677.873L271.1959 677.873L268.9449 677.873M265.1995 678.624L267.4504 678.624L267.4504 678.624L267.4504 677.873L267.4504 677.873L265.1995 677.873M261.4541 678.624L263.705 678.624L263.705 678.624L263.705 677.873L263.705 677.873L261.4541 677.873M257.7087 678.624L259.9596 678.624L259.9596 678.624L259.9596 677.873L259.9596 677.873L257.7087 677.873M253.9632 678.624L256.2142 678.624L256.2142 678.624L256.2142 677.873L256.2142 677.873L253.9632 677.873M250.2178 678.624L252.4688 678.624L252.4688 678.624L252.4688 677.873L252.4688 677.873L250.2178 677.873M246.4724 678.624L248.7233 678.624L248.7233 678.624L248.7233 677.873L248.7233 677.873L246.4724 677.873M242.727 678.624L244.9779 678.624L244.9779 678.624L244.9779 677.873L244.9779 677.873L242.727 677.873M238.9816 678.624L241.2325 678.624L241.2325 678.624L241.2325 677.873L241.2325 677.873L238.9816 677.873M235.2361 678.624L237.4871 678.624L237.4871 678.624L237.4871 677.873L237.4871 677.873L235.2361 677.873M231.4907 678.624L233.7416 678.624L233.7416 678.624L233.7416 677.873L233.7416 677.873L231.4907 677.873M227.7453 678.624L229.9962 678.624L229.9962 678.624L229.9962 677.873L229.9962 677.873L227.7453 677.873M223.9998 678.624L226.2508 678.624L226.2508 678.624L226.2508 677.873L226.2508 677.873L223.9998 677.873M220.2544 678.624L222.5054 678.624L222.5054 678.624L222.5054 677.873L222.5054 677.873L220.2544 677.873M216.509 678.624L218.7599 678.624L218.7599 678.624L218.7599 677.873L218.7599 677.873L216.509 677.873M212.7636 678.624L215.0145 678.624L215.0145 678.624L215.0145 677.873L215.0145 677.873L212.7636 677.873M209.0181 678.624L211.2691 678.624L211.2691 678.624L211.2691 677.873L211.2691 677.873L209.0181 677.873M205.2727 678.624L207.5237 678.624L207.5237 678.624L207.5237 677.873L207.5237 677.873L205.2727 677.873M201.5273 678.624L203.7782 678.624L203.7782 678.624L203.7782 677.873L203.7782 677.873L201.5273 677.873M197.7818 678.624L200.0328 678.624L200.0328 678.624L200.0328 677.873L200.0328 677.873L197.7818 677.873M194.0364 678.624L196.2874 678.624L196.2874 678.624L196.2874 677.873L196.2874 677.873L194.0364 677.873M190.291 678.624L192.5419 678.624L192.5419 678.624L192.5419 677.873L192.5419 677.873L190.291 677.873M186.5456 678.624L188.7965 678.624L188.7965 678.624L188.7965 677.873L188.7965 677.873L186.5456 677.873M182.8002 678.624L185.0511 678.624L185.0511 678.624L185.0511 677.873L185.0511 677.873L182.8002 677.873M179.0547 678.624L181.3057 678.624L181.3057 678.624L181.3057 677.873L181.3057 677.873L179.0547 677.873M175.3093 678.624L177.5602 678.624L177.5602 678.624L177.5602 677.873L177.5602 677.873L175.3093 677.873M171.5639 678.624L173.8148 678.624L173.8148 678.624L173.8148 677.873L173.8148 677.873L171.5639 677.873M167.8185 678.624L170.0694 678.624L170.0694 678.624L170.0694 677.873L170.0694 677.873L167.8185 677.873M164.073 678.624L166.324 678.624L166.324 678.624L166.324 677.873L166.324 677.873L164.073 677.873M160.3276 678.624L162.5785 678.624L162.5785 678.624L162.5785 677.873L162.5785 677.873L160.3276 677.873M156.5822 678.624L158.8331 678.624L158.8331 678.624L158.8331 677.873L158.8331 677.873L156.5822 677.873M152.8367 678.624L155.0877 678.624L155.0877 678.624L155.0877 677.873L155.0877 677.873L152.8367 677.873M149.0913 678.624L151.3423 678.624L151.3423 678.624L151.3423 677.873L151.3423 677.873L149.0913 677.873M145.3459 678.624L147.5968 678.624L147.5968 678.624L147.5968 677.873L147.5968 677.873L145.3459 677.873M141.6005 678.624L143.8514 678.624L143.8514 678.624L143.8514 677.873L143.8514 677.873L141.6005 677.873M137.855 678.624L140.106 678.624L140.106 678.624L140.106 677.873L140.106 677.873L137.855 677.873M134.1096 678.624L136.3606 678.624L136.3606 678.624L136.3606 677.873L136.3606 677.873L134.1096 677.873M130.3642 678.624L132.6151 678.624L132.6151 678.624L132.6151 677.873L132.6151 677.873L130.3642 677.873M126.6188 678.624L128.8697 678.624L128.8697 678.624L128.8697 677.873L128.8697 677.873L126.6188 677.873M122.8733 678.624L125.1243 678.624L125.1243 678.624L125.1243 677.873L125.1243 677.873L122.8733 677.873M119.1279 678.624L121.3789 678.624L121.3789 678.624L121.3789 677.873L121.3789 677.873L119.1279 677.873M115.3825 678.624L117.6334 678.624L117.6334 678.624L117.6334 677.873L117.6334 677.873L115.3825 677.873M111.6371 678.624L113.888 678.624L113.888 678.624L113.888 677.873L113.888 677.873L111.6371 677.873M107.8916 678.624L110.1426 678.624L110.1426 678.624L110.1426 677.873L110.1426 677.873L107.8916 677.873M104.1462 678.624L106.3972 678.624L106.3972 678.624L106.3972 677.873L106.3972 677.873L104.1462 677.873M100.4008 678.624L102.6517 678.624L102.6517 678.624L102.6517 677.873L102.6517 677.873L100.4008 677.873M96.65536 678.624L98.9063 678.624L98.9063 678.624L98.9063 677.873L98.9063 677.873L96.65536 677.873M92.90993 678.624L95.16087 678.624L95.16087 678.624L95.16087 677.873L95.16087 677.873L92.90993 677.873M89.16451 678.624L91.41545 678.624L91.41545 678.624L91.41545 677.873L91.41545 677.873L89.16451 677.873M85.41908 678.624L87.67002 678.624L87.67002 678.624L87.67002 677.873L87.67002 677.873L85.41908 677.873M81.67365 678.624L83.9246 678.624L83.9246 678.624L83.9246 677.873L83.9246 677.873L81.67365 677.873M77.92823 678.624L80.17918 678.624L80.17918 678.624L80.17918 677.873L80.17918 677.873L77.92823 677.873M74.1828 678.624L76.43375 678.624L76.43375 678.624L76.43375 677.873L76.43375 677.873L74.1828 677.873M70.43738 678.624L72.68832 678.624L72.68832 678.624L72.68832 677.873L72.68832 677.873L70.43738 677.873M66.69195 678.624L68.94289 678.624L68.94289 678.624L68.94289 677.873L68.94289 677.873L66.69195 677.873M62.94652 678.624L65.19747 678.624L65.19747 678.624L65.19747 677.873L65.19747 677.873L62.94652 677.873M59.2011 678.624L61.45205 678.624L61.45205 678.624L61.45205 677.873L61.45205 677.873L59.2011 677.873M55.45567 678.624L57.70662 678.624L57.70662 678.624L57.70662 677.873L57.70662 677.873L55.45567 677.873M51.71024 678.624L53.96119 678.624L53.96119 678.624L53.96119 677.873L53.96119 677.873L51.71024 677.873M47.96482 678.624L50.21577 678.624L50.21577 678.624L50.21577 677.873L50.21577 677.873L47.96482 677.873M44.21939 678.624L46.47034 678.624L46.47034 678.624L46.47034 677.873L46.47034 677.873L44.21939 677.873M40.47397 678.624L42.72491 678.624L42.72491 678.624L42.72491 677.873L42.72491 677.873L40.47397 677.873M36.72855 678.624L38.97949 678.624L38.97949 678.624L38.97949 677.873L38.97949 677.873L36.72855 677.873M32.98312 678.624L35.23406 678.624L35.23406 678.624L35.23406 677.873L35.23406 677.873L32.98312 677.873M29.23769 678.624L31.48864 678.624L31.48864 678.624L31.48864 677.873L31.48864 677.873L29.23769 677.873M25.49227 678.624L27.74321 678.624L27.74321 678.624L27.74321 677.873L27.74321 677.873L25.49227 677.873M21.74684 678.624L23.99779 678.624L23.99779 678.624L23.99779 677.873L23.99779 677.873L21.74684 677.873M18.00141 678.624L20.25236 678.624L20.25236 678.624L20.25236 677.873L20.25236 677.873L18.00141 677.873M14.25599 678.624L16.50694 678.624L16.50694 678.624L16.50694 677.873L16.50694 677.873L14.25599 677.873" stroke="none" fill="#C3C4C3" fill-rule="winding" /></g><g clip-path="url(#5)"><path transform="matrix(1 0 0 -1 0 841)" d="M487.7049 1476.209L488.4552 1476.209L488.4552 1476.209L488.4552 455.7803L488.4552 455.7803L487.7049 455.7803z" stroke="none" fill="#B5B6B5" fill-rule="winding" /></g><g clip-path="url(#6)"><path transform="matrix(1 0 0 -1 0 841)" d="M569.4893 395.0049L571.7402 395.0049L571.7402 395.0049L571.7402 394.2539L571.7402 394.2539L569.4893 394.2539M565.7001 395.0049L567.9511 395.0049L567.9511 395.0049L567.9511 394.2539L567.9511 394.2539L565.7001 394.2539M561.9111 395.0049L564.162 395.0049L564.162 395.0049L564.162 394.2539L564.162 394.2539L561.9111 394.2539M558.1219 395.0049L560.3729 395.0049L560.3729 395.0049L560.3729 394.2539L560.3729 394.2539L558.1219 394.2539M554.3328 395.0049L556.5838 395.0049L556.5838 395.0049L556.5838 394.2539L556.5838 394.2539L554.3328 394.2539M550.5438 395.0049L552.7947 395.0049L552.7947 395.0049L552.7947 394.2539L552.7947 394.2539L550.5438 394.2539M546.7547 395.0049L549.0056 395.0049L549.0056 395.0049L549.0056 394.2539L549.0056 394.2539L546.7547 394.2539M542.9656 395.0049L545.2166 395.0049L545.2166 395.0049L545.2166 394.2539L545.2166 394.2539L542.9656 394.2539M539.1765 395.0049L541.4274 395.0049L541.4274 395.0049L541.4274 394.2539L541.4274 394.2539L539.1765 394.2539M535.3874 395.0049L537.6384 395.0049L537.6384 395.0049L537.6384 394.2539L537.6384 394.2539L535.3874 394.2539M531.5983 395.0049L533.8492 395.0049L533.8492 395.0049L533.8492 394.2539L533.8492 394.2539L531.5983 394.2539M527.8092 395.0049L530.0602 395.0049L530.0602 395.0049L530.0602 394.2539L530.0602 394.2539L527.8092 394.2539M524.0201 395.0049L526.2711 395.0049L526.2711 395.0049L526.2711 394.2539L526.2711 394.2539L524.0201 394.2539M520.231 395.0049L522.4819 395.0049L522.4819 395.0049L522.4819 394.2539L522.4819 394.2539L520.231 394.2539M516.442 395.0049L518.6929 395.0049L518.6929 395.0049L518.6929 394.2539L518.6929 394.2539L516.442 394.2539M512.6528 395.0049L514.9038 395.0049L514.9038 395.0049L514.9038 394.2539L514.9038 394.2539L512.6528 394.2539M508.8638 395.0049L511.1147 395.0049L511.1147 395.0049L511.1147 394.2539L511.1147 394.2539L508.8638 394.2539M505.0747 395.0049L507.3256 395.0049L507.3256 395.0049L507.3256 394.2539L507.3256 394.2539L505.0747 394.2539M501.2856 395.0049L503.5365 395.0049L503.5365 395.0049L503.5365 394.2539L503.5365 394.2539L501.2856 394.2539M497.4965 395.0049L499.7474 395.0049L499.7474 395.0049L499.7474 394.2539L499.7474 394.2539L497.4965 394.2539M493.7074 395.0049L495.9583 395.0049L495.9583 395.0049L495.9583 394.2539L495.9583 394.2539L493.7074 394.2539" stroke="none" fill="#B5B6B5" fill-rule="winding" /></g><g clip-path="url(#7)"><path transform="matrix(1 0 0 -1 0 841)" d="M503.8366 407.7598C 503.8366 407.4395 503.8054 407.123 503.7429 406.8096C 503.6805 406.4961 503.5879 406.1914 503.4654 405.8955C 503.3428 405.5996 503.1926 405.3184 503.0147 405.0527C 502.8368 404.7861 502.6346 404.5391 502.4082 404.3125C 502.1818 404.0859 501.9355 403.8838 501.6692 403.7061C 501.4028 403.5283 501.1218 403.3779 500.826 403.2559C 500.5301 403.1338 500.2252 403.04 499.911 402.9775C 499.5969 402.915 499.2798 402.8838 498.9596 402.8838C 498.6393 402.8838 498.3222 402.915 498.0081 402.9775C 497.694 403.04 497.389 403.1338 497.0932 403.2559C 496.7974 403.3779 496.5163 403.5283 496.25 403.7061C 495.9838 403.8848 495.7374 404.0859 495.511 404.3125C 495.2845 404.5391 495.0824 404.7861 494.9045 405.0527C 494.7266 405.3184 494.5764 405.5996 494.4538 405.8955C 494.3312 406.1914 494.2387 406.4961 494.1762 406.8096C 494.1138 407.123 494.0826 407.4395 494.0826 407.7598C 494.0826 408.0811 494.1138 408.3984 494.1762 408.7129C 494.2387 409.0273 494.3312 409.332 494.4538 409.6289C 494.5764 409.9248 494.7266 410.2051 494.9045 410.4707C 495.0824 410.7373 495.2845 410.9834 495.511 411.21C 495.7374 411.4365 495.9838 411.6387 496.25 411.8174C 496.5163 411.9941 496.7974 412.1445 497.0932 412.2666C 497.389 412.3896 497.694 412.4814 498.0081 412.543C 498.3222 412.6055 498.6393 412.6367 498.9596 412.6367C 499.2798 412.6367 499.5969 412.6055 499.911 412.543C 500.2252 412.4814 500.5301 412.3896 500.826 412.2666C 501.1218 412.1445 501.4028 411.9941 501.6692 411.8164C 501.9355 411.6387 502.1818 411.4365 502.4082 411.21C 502.6346 410.9834 502.8368 410.7373 503.0147 410.4717C 503.1926 410.2061 503.3428 409.9248 503.4654 409.6289C 503.5879 409.332 503.6805 409.0273 503.7429 408.7129C 503.8054 408.3984 503.8366 408.0811 503.8366 407.7598z" stroke="#C3C4C3" stroke-width="0.7503152" fill="none" /><path transform="matrix(1 0 0 -1 0 841)" d="M531.5983 407.7598C 531.5983 407.4395 531.5671 407.123 531.5046 406.8096C 531.4421 406.4961 531.3495 406.1914 531.227 405.8955C 531.1044 405.5996 530.9542 405.3184 530.7763 405.0527C 530.5984 404.7861 530.3962 404.5391 530.1698 404.3125C 529.9434 404.0859 529.697 403.8838 529.4307 403.7061C 529.1644 403.5283 528.8834 403.3779 528.5875 403.2559C 528.2917 403.1338 527.9868 403.04 527.6727 402.9775C 527.3586 402.915 527.0414 402.8838 526.7213 402.8838C 526.401 402.8838 526.0839 402.915 525.7698 402.9775C 525.4556 403.04 525.1507 403.1338 524.8548 403.2559C 524.559 403.3779 524.2779 403.5283 524.0117 403.7061C 523.7454 403.8848 523.499 404.0859 523.2726 404.3125C 523.0461 404.5391 522.844 404.7861 522.6661 405.0527C 522.4882 405.3184 522.338 405.5996 522.2154 405.8955C 522.0928 406.1914 522.0003 406.4961 521.9379 406.8096C 521.8754 407.123 521.8442 407.4395 521.8442 407.7598C 521.8442 408.0811 521.8754 408.3984 521.9378 408.7129C 522.0003 409.0273 522.0928 409.332 522.2154 409.6289C 522.338 409.9248 522.4882 410.2051 522.6661 410.4707C 522.844 410.7373 523.0461 410.9834 523.2726 411.21C 523.499 411.4365 523.7454 411.6387 524.0117 411.8174C 524.2779 411.9941 524.559 412.1445 524.8548 412.2666C 525.1507 412.3896 525.4556 412.4814 525.7697 412.543C 526.0839 412.6055 526.401 412.6367 526.7213 412.6367C 527.0414 412.6367 527.3586 412.6055 527.6727 412.543C 527.9868 412.4814 528.2917 412.3896 528.5875 412.2666C 528.8834 412.1445 529.1644 411.9941 529.4307 411.8164C 529.697 411.6387 529.9434 411.4365 530.1698 411.21C 530.3962 410.9834 530.5984 410.7373 530.7763 410.4717C 530.9542 410.2061 531.1044 409.9248 531.227 409.6289C 531.3495 409.332 531.4421 409.0273 531.5046 408.7129C 531.5671 408.3984 531.5983 408.0811 531.5983 407.7598z" stroke="#C3C4C3" stroke-width="0.7503152" fill="none" /><path transform="matrix(1 0 0 -1 0 841)" d="M560.1103 407.7598C 560.1103 407.4395 560.079 407.123 560.0165 406.8096C 559.9541 406.4961 559.8616 406.1914 559.739 405.8955C 559.6165 405.5996 559.4662 405.3184 559.2883 405.0527C 559.1104 404.7861 558.9083 404.5391 558.6818 404.3125C 558.4553 404.0859 558.2089 403.8838 557.9427 403.7061C 557.6765 403.5283 557.3954 403.3779 557.0995 403.2559C 556.8036 403.1338 556.4987 403.04 556.1846 402.9775C 555.8706 402.915 555.5535 402.8838 555.2332 402.8838C 554.913 402.8838 554.5958 402.915 554.2817 402.9775C 553.9676 403.04 553.6627 403.1338 553.3668 403.2559C 553.0709 403.3779 552.7899 403.5283 552.5236 403.7061C 552.2573 403.8848 552.011 404.0859 551.7846 404.3125C 551.5582 404.5391 551.356 404.7861 551.178 405.0527C 551.0001 405.3184 550.8499 405.5996 550.7274 405.8955C 550.6048 406.1914 550.5123 406.4961 550.4498 406.8096C 550.3874 407.123 550.3561 407.4395 550.3562 407.7598C 550.3561 408.0811 550.3874 408.3984 550.4498 408.7129C 550.5123 409.0273 550.6048 409.332 550.7274 409.6289C 550.8499 409.9248 551.0001 410.2051 551.178 410.4707C 551.356 410.7373 551.5582 410.9834 551.7846 411.21C 552.011 411.4365 552.2573 411.6387 552.5236 411.8174C 552.7899 411.9941 553.0709 412.1445 553.3668 412.2666C 553.6627 412.3896 553.9676 412.4814 554.2817 412.543C 554.5958 412.6055 554.913 412.6367 555.2332 412.6367C 555.5535 412.6367 555.8706 412.6055 556.1846 412.543C 556.4987 412.4814 556.8036 412.3896 557.0995 412.2666C 557.3954 412.1445 557.6765 411.9941 557.9427 411.8164C 558.2089 411.6387 558.4553 411.4365 558.6818 411.21C 558.9083 410.9834 559.1104 410.7373 559.2883 410.4717C 559.4662 410.2061 559.6165 409.9248 559.739 409.6289C 559.8616 409.332 559.9541 409.0273 560.0165 408.7129C 560.079 408.3984 560.1103 408.0811 560.1103 407.7598z" stroke="#C3C4C3" stroke-width="0.7503152" fill="none" /></g><g clip-path="url(#8)"><path transform="matrix(1 0 0 -1 0 841)" d="M569.4893 295.2129L571.7402 295.2129L571.7402 295.2129L571.7402 294.4629L571.7402 294.4629L569.4893 294.4629M565.7001 295.2129L567.9511 295.2129L567.9511 295.2129L567.9511 294.4629L567.9511 294.4629L565.7001 294.4629M561.9111 295.2129L564.162 295.2129L564.162 295.2129L564.162 294.4629L564.162 294.4629L561.9111 294.4629M558.1219 295.2129L560.3729 295.2129L560.3729 295.2129L560.3729 294.4629L560.3729 294.4629L558.1219 294.4629M554.3328 295.2129L556.5838 295.2129L556.5838 295.2129L556.5838 294.4629L556.5838 294.4629L554.3328 294.4629M550.5438 295.2129L552.7947 295.2129L552.7947 295.2129L552.7947 294.4629L552.7947 294.4629L550.5438 294.4629M546.7547 295.2129L549.0056 295.2129L549.0056 295.2129L549.0056 294.4629L549.0056 294.4629L546.7547 294.4629M542.9656 295.2129L545.2166 295.2129L545.2166 295.2129L545.2166 294.4629L545.2166 294.4629L542.9656 294.4629M539.1765 295.2129L541.4274 295.2129L541.4274 295.2129L541.4274 294.4629L541.4274 294.4629L539.1765 294.4629M535.3874 295.2129L537.6384 295.2129L537.6384 295.2129L537.6384 294.4629L537.6384 294.4629L535.3874 294.4629M531.5983 295.2129L533.8492 295.2129L533.8492 295.2129L533.8492 294.4629L533.8492 294.4629L531.5983 294.4629M527.8092 295.2129L530.0602 295.2129L530.0602 295.2129L530.0602 294.4629L530.0602 294.4629L527.8092 294.4629M524.0201 295.2129L526.2711 295.2129L526.2711 295.2129L526.2711 294.4629L526.2711 294.4629L524.0201 294.4629M520.231 295.2129L522.4819 295.2129L522.4819 295.2129L522.4819 294.4629L522.4819 294.4629L520.231 294.4629M516.442 295.2129L518.6929 295.2129L518.6929 295.2129L518.6929 294.4629L518.6929 294.4629L516.442 294.4629M512.6528 295.2129L514.9038 295.2129L514.9038 295.2129L514.9038 294.4629L514.9038 294.4629L512.6528 294.4629M508.8638 295.2129L511.1147 295.2129L511.1147 295.2129L511.1147 294.4629L511.1147 294.4629L508.8638 294.4629M505.0747 295.2129L507.3256 295.2129L507.3256 295.2129L507.3256 294.4629L507.3256 294.4629L505.0747 294.4629M501.2856 295.2129L503.5365 295.2129L503.5365 295.2129L503.5365 294.4629L503.5365 294.4629L501.2856 294.4629M497.4965 295.2129L499.7474 295.2129L499.7474 295.2129L499.7474 294.4629L499.7474 294.4629L497.4965 294.4629M493.7074 295.2129L495.9583 295.2129L495.9583 295.2129L495.9583 294.4629L495.9583 294.4629L493.7074 294.4629" stroke="none" fill="#B5B6B5" fill-rule="winding" /></g><g clip-path="url(#9)"><path transform="matrix(1 0 0 -1 0 841)" d="M487.7049 455.7803L594.9999 455.7803L594.9999 455.7803L594.9999 455.0303L594.9999 455.0303L487.7049 455.0303z" stroke="none" fill="#B5B6B5" fill-rule="winding" /><path transform="matrix(1 0 0 -1 0 841)" d="M0 455.7803L487.7049 455.7803L487.7049 455.7803L487.7049 455.0303L487.7049 455.0303L0 455.0303z" stroke="none" fill="#B5B6B5" fill-rule="winding" /><path transform="matrix(1 0 0 -1 0 841)" d="M487.7049 455.7803L488.4552 455.7803L488.4552 455.7803L488.4552 -563.1475L488.4552 -563.1475L487.7049 -563.1475z" stroke="none" fill="#B5B6B5" fill-rule="winding" /><g transform="matrix(0.7503152 0 0 0.7503151 14.25599 220.1491)"><g transform="matrix(1 0 0 1 0 0)"><image x="0" y="0" xlink:href="img_46.png" width="385" height="140" /></g></g><g transform="matrix(0.3932573 0 0 0.4360239 14.25599 442.9928)"><g transform="matrix(1 0 0 1 0 0)"><image x="0" y="0" xlink:href="img_47.png" width="912" height="339" /></g></g><g transform="matrix(0.3421706 0 0 0.345145 14.25599 55.07971)"><g transform="matrix(1 0 0 1 0 0)"><image x="0" y="0" xlink:href="img_48.png" width="1342" height="50" /></g></g><g transform="matrix(0.3421706 0 0 0.345145 14.25599 72.33722)"><g transform="matrix(1 0 0 1 0 0)"><image x="0" y="0" xlink:href="img_49.png" width="1342" height="50" /></g></g><g transform="matrix(0.3421706 0 0 0.3301387 14.25599 89.59473)"><g transform="matrix(1 0 0 1 0 0)"><image x="0" y="0" xlink:href="img_50.png" width="1342" height="50" /></g></g><g transform="matrix(0.3421706 0 0 0.345145 14.25599 106.1013)"><g transform="matrix(1 0 0 1 0 0)"><image x="0" y="0" xlink:href="img_51.png" width="1342" height="50" /></g></g><g transform="matrix(0.3421706 0 0 0.345145 14.25599 123.3588)"><g transform="matrix(1 0 0 1 0 0)"><image x="0" y="0" xlink:href="img_52.png" width="1342" height="50" /></g></g><g transform="matrix(0.3421706 0 0 0.3447394 14.25599 140.6163)"><g transform="matrix(1 0 0 1 0 0)"><image x="0" y="0" xlink:href="img_53.png" width="1342" height="37" /></g></g></g></g></g></g></svg>