<svg xmlns="http://www.w3.org/2000/svg" xmlns:xlink="http://www.w3.org/1999/xlink" id="body_13" preserveAspectRatio="xMinYMin meet" viewBox="0 0 792 1121"><defs><clipPath id="1"><path d="M0 841L0 -0.9199829L0 -0.9199829L594.96 -0.9199829L594.96 -0.9199829L594.96 841L594.96 841L0 841z" /></clipPath><clipPath id="2"><path d="M0 -0.9199829L595.2 -0.9199829L595.2 -0.9199829L595.2 841.24L595.2 841.24L0 841.24z" /></clipPath><clipPath id="3"><path d="M0 55.07971L594.9999 55.07971L594.9999 55.07971L594.9999 790.389L594.9999 790.389L0 790.389z" /></clipPath><clipPath id="4"><path d="M14.25599 343.9516L473.4489 343.9516L473.4489 343.9516L473.4489 344.7016L473.4489 344.7016L14.25599 344.7016z" /></clipPath><clipPath id="5"><path d="M493.7074 105.3513L571.7402 105.3513L571.7402 105.3513L571.7402 106.1013L571.7402 106.1013L493.7074 106.1013z" /></clipPath><clipPath id="6"><path d="M0 55.07971L594.9999 55.07971L594.9999 55.07971L594.9999 790.389L594.9999 790.389L0 790.389z" /></clipPath></defs><g transform="matrix(1.333333 0 0 1.333333 0 0)"><g><g clip-path="url(#1)"><g clip-path="url(#2)"><path transform="matrix(1 0 0 -1 0 841)" d="M0 841.92L792.9999 841.92L792.9999 841.92L792.9999 -280.0799L792.9999 -280.0799L0 -280.0799z" stroke="none" fill="#FFFFFF" fill-rule="winding" /><path transform="matrix(1 0 0 -1 0 841)" d="M0 796.92L594.9999 796.92L594.9999 796.92L594.9999 795.92L594.9999 795.92L0 795.92z" stroke="none" fill="#B7B5B5" fill-rule="winding" /><g transform="matrix(0.1840659 0 0 0.1886792 510 12.08002)"><g transform="matrix(1 0 0 1 0 0)"><image x="0" y="0" xlink:href="img_01.png" width="364" height="106" /></g></g></g><g clip-path="url(#3)"><path transform="matrix(1 0 0 -1 0 841)" d="M0 9609.627L594.9999 9609.627L594.9999 9609.627L594.9999 -9881.313L594.9999 -9881.313L0 -9881.313z" stroke="none" fill="#FFFFFF" fill-rule="winding" /></g><g clip-path="url(#4)"><path transform="matrix(1 0 0 -1 0 841)" d="M471.1979 497.0479L473.4489 497.0479L473.4489 497.0479L473.4489 496.2979L473.4489 496.2979L471.1979 496.2979M467.4525 497.0479L469.7034 497.0479L469.7034 497.0479L469.7034 496.2979L469.7034 496.2979L467.4525 496.2979M463.7071 497.0479L465.958 497.0479L465.958 497.0479L465.958 496.2979L465.958 496.2979L463.7071 496.2979M459.9617 497.0479L462.2126 497.0479L462.2126 497.0479L462.2126 496.2979L462.2126 496.2979L459.9617 496.2979M456.2162 497.0479L458.4672 497.0479L458.4672 497.0479L458.4672 496.2979L458.4672 496.2979L456.2162 496.2979M452.4708 497.0479L454.7217 497.0479L454.7217 497.0479L454.7217 496.2979L454.7217 496.2979L452.4708 496.2979M448.7254 497.0479L450.9763 497.0479L450.9763 497.0479L450.9763 496.2979L450.9763 496.2979L448.7254 496.2979M444.9799 497.0479L447.2309 497.0479L447.2309 497.0479L447.2309 496.2979L447.2309 496.2979L444.9799 496.2979M441.2345 497.0479L443.4855 497.0479L443.4855 497.0479L443.4855 496.2979L443.4855 496.2979L441.2345 496.2979M437.4891 497.0479L439.7401 497.0479L439.7401 497.0479L439.7401 496.2979L439.7401 496.2979L437.4891 496.2979M433.7437 497.0479L435.9946 497.0479L435.9946 497.0479L435.9946 496.2979L435.9946 496.2979L433.7437 496.2979M429.9982 497.0479L432.2492 497.0479L432.2492 497.0479L432.2492 496.2979L432.2492 496.2979L429.9982 496.2979M426.2528 497.0479L428.5038 497.0479L428.5038 497.0479L428.5038 496.2979L428.5038 496.2979L426.2528 496.2979M422.5074 497.0479L424.7584 497.0479L424.7584 497.0479L424.7584 496.2979L424.7584 496.2979L422.5074 496.2979M418.762 497.0479L421.0129 497.0479L421.0129 497.0479L421.0129 496.2979L421.0129 496.2979L418.762 496.2979M415.0165 497.0479L417.2675 497.0479L417.2675 497.0479L417.2675 496.2979L417.2675 496.2979L415.0165 496.2979M411.2711 497.0479L413.5221 497.0479L413.5221 497.0479L413.5221 496.2979L413.5221 496.2979L411.2711 496.2979M407.5257 497.0479L409.7766 497.0479L409.7766 497.0479L409.7766 496.2979L409.7766 496.2979L407.5257 496.2979M403.7803 497.0479L406.0312 497.0479L406.0312 497.0479L406.0312 496.2979L406.0312 496.2979L403.7803 496.2979M400.0349 497.0479L402.2858 497.0479L402.2858 497.0479L402.2858 496.2979L402.2858 496.2979L400.0349 496.2979M396.2894 497.0479L398.5404 497.0479L398.5404 497.0479L398.5404 496.2979L398.5404 496.2979L396.2894 496.2979M392.544 497.0479L394.7949 497.0479L394.7949 497.0479L394.7949 496.2979L394.7949 496.2979L392.544 496.2979M388.7986 497.0479L391.0495 497.0479L391.0495 497.0479L391.0495 496.2979L391.0495 496.2979L388.7986 496.2979M385.0532 497.0479L387.3041 497.0479L387.3041 497.0479L387.3041 496.2979L387.3041 496.2979L385.0532 496.2979M381.3077 497.0479L383.5587 497.0479L383.5587 497.0479L383.5587 496.2979L383.5587 496.2979L381.3077 496.2979M377.5623 497.0479L379.8132 497.0479L379.8132 497.0479L379.8132 496.2979L379.8132 496.2979L377.5623 496.2979M373.8169 497.0479L376.0678 497.0479L376.0678 497.0479L376.0678 496.2979L376.0678 496.2979L373.8169 496.2979M370.0714 497.0479L372.3224 497.0479L372.3224 497.0479L372.3224 496.2979L372.3224 496.2979L370.0714 496.2979M366.326 497.0479L368.577 497.0479L368.577 497.0479L368.577 496.2979L368.577 496.2979L366.326 496.2979M362.5806 497.0479L364.8315 497.0479L364.8315 497.0479L364.8315 496.2979L364.8315 496.2979L362.5806 496.2979M358.8352 497.0479L361.0861 497.0479L361.0861 497.0479L361.0861 496.2979L361.0861 496.2979L358.8352 496.2979M355.0897 497.0479L357.3407 497.0479L357.3407 497.0479L357.3407 496.2979L357.3407 496.2979L355.0897 496.2979M351.3443 497.0479L353.5953 497.0479L353.5953 497.0479L353.5953 496.2979L353.5953 496.2979L351.3443 496.2979M347.5989 497.0479L349.8499 497.0479L349.8499 497.0479L349.8499 496.2979L349.8499 496.2979L347.5989 496.2979M343.8535 497.0479L346.1044 497.0479L346.1044 497.0479L346.1044 496.2979L346.1044 496.2979L343.8535 496.2979M340.108 497.0479L342.359 497.0479L342.359 497.0479L342.359 496.2979L342.359 496.2979L340.108 496.2979M336.3626 497.0479L338.6136 497.0479L338.6136 497.0479L338.6136 496.2979L338.6136 496.2979L336.3626 496.2979M332.6172 497.0479L334.8681 497.0479L334.8681 497.0479L334.8681 496.2979L334.8681 496.2979L332.6172 496.2979M328.8717 497.0479L331.1227 497.0479L331.1227 497.0479L331.1227 496.2979L331.1227 496.2979L328.8717 496.2979M325.1263 497.0479L327.3773 497.0479L327.3773 497.0479L327.3773 496.2979L327.3773 496.2979L325.1263 496.2979M321.3809 497.0479L323.6319 497.0479L323.6319 497.0479L323.6319 496.2979L323.6319 496.2979L321.3809 496.2979M317.6355 497.0479L319.8864 497.0479L319.8864 497.0479L319.8864 496.2979L319.8864 496.2979L317.6355 496.2979M313.89 497.0479L316.141 497.0479L316.141 497.0479L316.141 496.2979L316.141 496.2979L313.89 496.2979M310.1446 497.0479L312.3956 497.0479L312.3956 497.0479L312.3956 496.2979L312.3956 496.2979L310.1446 496.2979M306.3992 497.0479L308.6501 497.0479L308.6501 497.0479L308.6501 496.2979L308.6501 496.2979L306.3992 496.2979M302.6538 497.0479L304.9047 497.0479L304.9047 497.0479L304.9047 496.2979L304.9047 496.2979L302.6538 496.2979M298.9084 497.0479L301.1593 497.0479L301.1593 497.0479L301.1593 496.2979L301.1593 496.2979L298.9084 496.2979M295.1629 497.0479L297.4139 497.0479L297.4139 497.0479L297.4139 496.2979L297.4139 496.2979L295.1629 496.2979M291.4175 497.0479L293.6684 497.0479L293.6684 497.0479L293.6684 496.2979L293.6684 496.2979L291.4175 496.2979M287.6721 497.0479L289.923 497.0479L289.923 497.0479L289.923 496.2979L289.923 496.2979L287.6721 496.2979M283.9267 497.0479L286.1776 497.0479L286.1776 497.0479L286.1776 496.2979L286.1776 496.2979L283.9267 496.2979M280.1812 497.0479L282.4322 497.0479L282.4322 497.0479L282.4322 496.2979L282.4322 496.2979L280.1812 496.2979M276.4358 497.0479L278.6867 497.0479L278.6867 497.0479L278.6867 496.2979L278.6867 496.2979L276.4358 496.2979M272.6904 497.0479L274.9413 497.0479L274.9413 497.0479L274.9413 496.2979L274.9413 496.2979L272.6904 496.2979M268.9449 497.0479L271.1959 497.0479L271.1959 497.0479L271.1959 496.2979L271.1959 496.2979L268.9449 496.2979M265.1995 497.0479L267.4504 497.0479L267.4504 497.0479L267.4504 496.2979L267.4504 496.2979L265.1995 496.2979M261.4541 497.0479L263.705 497.0479L263.705 497.0479L263.705 496.2979L263.705 496.2979L261.4541 496.2979M257.7087 497.0479L259.9596 497.0479L259.9596 497.0479L259.9596 496.2979L259.9596 496.2979L257.7087 496.2979M253.9632 497.0479L256.2142 497.0479L256.2142 497.0479L256.2142 496.2979L256.2142 496.2979L253.9632 496.2979M250.2178 497.0479L252.4688 497.0479L252.4688 497.0479L252.4688 496.2979L252.4688 496.2979L250.2178 496.2979M246.4724 497.0479L248.7233 497.0479L248.7233 497.0479L248.7233 496.2979L248.7233 496.2979L246.4724 496.2979M242.727 497.0479L244.9779 497.0479L244.9779 497.0479L244.9779 496.2979L244.9779 496.2979L242.727 496.2979M238.9816 497.0479L241.2325 497.0479L241.2325 497.0479L241.2325 496.2979L241.2325 496.2979L238.9816 496.2979M235.2361 497.0479L237.4871 497.0479L237.4871 497.0479L237.4871 496.2979L237.4871 496.2979L235.2361 496.2979M231.4907 497.0479L233.7416 497.0479L233.7416 497.0479L233.7416 496.2979L233.7416 496.2979L231.4907 496.2979M227.7453 497.0479L229.9962 497.0479L229.9962 497.0479L229.9962 496.2979L229.9962 496.2979L227.7453 496.2979M223.9998 497.0479L226.2508 497.0479L226.2508 497.0479L226.2508 496.2979L226.2508 496.2979L223.9998 496.2979M220.2544 497.0479L222.5054 497.0479L222.5054 497.0479L222.5054 496.2979L222.5054 496.2979L220.2544 496.2979M216.509 497.0479L218.7599 497.0479L218.7599 497.0479L218.7599 496.2979L218.7599 496.2979L216.509 496.2979M212.7636 497.0479L215.0145 497.0479L215.0145 497.0479L215.0145 496.2979L215.0145 496.2979L212.7636 496.2979M209.0181 497.0479L211.2691 497.0479L211.2691 497.0479L211.2691 496.2979L211.2691 496.2979L209.0181 496.2979M205.2727 497.0479L207.5237 497.0479L207.5237 497.0479L207.5237 496.2979L207.5237 496.2979L205.2727 496.2979M201.5273 497.0479L203.7782 497.0479L203.7782 497.0479L203.7782 496.2979L203.7782 496.2979L201.5273 496.2979M197.7818 497.0479L200.0328 497.0479L200.0328 497.0479L200.0328 496.2979L200.0328 496.2979L197.7818 496.2979M194.0364 497.0479L196.2874 497.0479L196.2874 497.0479L196.2874 496.2979L196.2874 496.2979L194.0364 496.2979M190.291 497.0479L192.5419 497.0479L192.5419 497.0479L192.5419 496.2979L192.5419 496.2979L190.291 496.2979M186.5456 497.0479L188.7965 497.0479L188.7965 497.0479L188.7965 496.2979L188.7965 496.2979L186.5456 496.2979M182.8002 497.0479L185.0511 497.0479L185.0511 497.0479L185.0511 496.2979L185.0511 496.2979L182.8002 496.2979M179.0547 497.0479L181.3057 497.0479L181.3057 497.0479L181.3057 496.2979L181.3057 496.2979L179.0547 496.2979M175.3093 497.0479L177.5602 497.0479L177.5602 497.0479L177.5602 496.2979L177.5602 496.2979L175.3093 496.2979M171.5639 497.0479L173.8148 497.0479L173.8148 497.0479L173.8148 496.2979L173.8148 496.2979L171.5639 496.2979M167.8185 497.0479L170.0694 497.0479L170.0694 497.0479L170.0694 496.2979L170.0694 496.2979L167.8185 496.2979M164.073 497.0479L166.324 497.0479L166.324 497.0479L166.324 496.2979L166.324 496.2979L164.073 496.2979M160.3276 497.0479L162.5785 497.0479L162.5785 497.0479L162.5785 496.2979L162.5785 496.2979L160.3276 496.2979M156.5822 497.0479L158.8331 497.0479L158.8331 497.0479L158.8331 496.2979L158.8331 496.2979L156.5822 496.2979M152.8367 497.0479L155.0877 497.0479L155.0877 497.0479L155.0877 496.2979L155.0877 496.2979L152.8367 496.2979M149.0913 497.0479L151.3423 497.0479L151.3423 497.0479L151.3423 496.2979L151.3423 496.2979L149.0913 496.2979M145.3459 497.0479L147.5968 497.0479L147.5968 497.0479L147.5968 496.2979L147.5968 496.2979L145.3459 496.2979M141.6005 497.0479L143.8514 497.0479L143.8514 497.0479L143.8514 496.2979L143.8514 496.2979L141.6005 496.2979M137.855 497.0479L140.106 497.0479L140.106 497.0479L140.106 496.2979L140.106 496.2979L137.855 496.2979M134.1096 497.0479L136.3606 497.0479L136.3606 497.0479L136.3606 496.2979L136.3606 496.2979L134.1096 496.2979M130.3642 497.0479L132.6151 497.0479L132.6151 497.0479L132.6151 496.2979L132.6151 496.2979L130.3642 496.2979M126.6188 497.0479L128.8697 497.0479L128.8697 497.0479L128.8697 496.2979L128.8697 496.2979L126.6188 496.2979M122.8733 497.0479L125.1243 497.0479L125.1243 497.0479L125.1243 496.2979L125.1243 496.2979L122.8733 496.2979M119.1279 497.0479L121.3789 497.0479L121.3789 497.0479L121.3789 496.2979L121.3789 496.2979L119.1279 496.2979M115.3825 497.0479L117.6334 497.0479L117.6334 497.0479L117.6334 496.2979L117.6334 496.2979L115.3825 496.2979M111.6371 497.0479L113.888 497.0479L113.888 497.0479L113.888 496.2979L113.888 496.2979L111.6371 496.2979M107.8916 497.0479L110.1426 497.0479L110.1426 497.0479L110.1426 496.2979L110.1426 496.2979L107.8916 496.2979M104.1462 497.0479L106.3972 497.0479L106.3972 497.0479L106.3972 496.2979L106.3972 496.2979L104.1462 496.2979M100.4008 497.0479L102.6517 497.0479L102.6517 497.0479L102.6517 496.2979L102.6517 496.2979L100.4008 496.2979M96.65536 497.0479L98.9063 497.0479L98.9063 497.0479L98.9063 496.2979L98.9063 496.2979L96.65536 496.2979M92.90993 497.0479L95.16087 497.0479L95.16087 497.0479L95.16087 496.2979L95.16087 496.2979L92.90993 496.2979M89.16451 497.0479L91.41545 497.0479L91.41545 497.0479L91.41545 496.2979L91.41545 496.2979L89.16451 496.2979M85.41908 497.0479L87.67002 497.0479L87.67002 497.0479L87.67002 496.2979L87.67002 496.2979L85.41908 496.2979M81.67365 497.0479L83.9246 497.0479L83.9246 497.0479L83.9246 496.2979L83.9246 496.2979L81.67365 496.2979M77.92823 497.0479L80.17918 497.0479L80.17918 497.0479L80.17918 496.2979L80.17918 496.2979L77.92823 496.2979M74.1828 497.0479L76.43375 497.0479L76.43375 497.0479L76.43375 496.2979L76.43375 496.2979L74.1828 496.2979M70.43738 497.0479L72.68832 497.0479L72.68832 497.0479L72.68832 496.2979L72.68832 496.2979L70.43738 496.2979M66.69195 497.0479L68.94289 497.0479L68.94289 497.0479L68.94289 496.2979L68.94289 496.2979L66.69195 496.2979M62.94652 497.0479L65.19747 497.0479L65.19747 497.0479L65.19747 496.2979L65.19747 496.2979L62.94652 496.2979M59.2011 497.0479L61.45205 497.0479L61.45205 497.0479L61.45205 496.2979L61.45205 496.2979L59.2011 496.2979M55.45567 497.0479L57.70662 497.0479L57.70662 497.0479L57.70662 496.2979L57.70662 496.2979L55.45567 496.2979M51.71024 497.0479L53.96119 497.0479L53.96119 497.0479L53.96119 496.2979L53.96119 496.2979L51.71024 496.2979M47.96482 497.0479L50.21577 497.0479L50.21577 497.0479L50.21577 496.2979L50.21577 496.2979L47.96482 496.2979M44.21939 497.0479L46.47034 497.0479L46.47034 497.0479L46.47034 496.2979L46.47034 496.2979L44.21939 496.2979M40.47397 497.0479L42.72491 497.0479L42.72491 497.0479L42.72491 496.2979L42.72491 496.2979L40.47397 496.2979M36.72855 497.0479L38.97949 497.0479L38.97949 497.0479L38.97949 496.2979L38.97949 496.2979L36.72855 496.2979M32.98312 497.0479L35.23406 497.0479L35.23406 497.0479L35.23406 496.2979L35.23406 496.2979L32.98312 496.2979M29.23769 497.0479L31.48864 497.0479L31.48864 497.0479L31.48864 496.2979L31.48864 496.2979L29.23769 496.2979M25.49227 497.0479L27.74321 497.0479L27.74321 497.0479L27.74321 496.2979L27.74321 496.2979L25.49227 496.2979M21.74684 497.0479L23.99779 497.0479L23.99779 497.0479L23.99779 496.2979L23.99779 496.2979L21.74684 496.2979M18.00141 497.0479L20.25236 497.0479L20.25236 497.0479L20.25236 496.2979L20.25236 496.2979L18.00141 496.2979M14.25599 497.0479L16.50694 497.0479L16.50694 497.0479L16.50694 496.2979L16.50694 496.2979L14.25599 496.2979" stroke="none" fill="#C3C4C3" fill-rule="winding" /></g><g clip-path="url(#5)"><path transform="matrix(1 0 0 -1 0 841)" d="M569.4893 735.6484L571.7402 735.6484L571.7402 735.6484L571.7402 734.8984L571.7402 734.8984L569.4893 734.8984M565.7001 735.6484L567.9511 735.6484L567.9511 735.6484L567.9511 734.8984L567.9511 734.8984L565.7001 734.8984M561.9111 735.6484L564.162 735.6484L564.162 735.6484L564.162 734.8984L564.162 734.8984L561.9111 734.8984M558.1219 735.6484L560.3729 735.6484L560.3729 735.6484L560.3729 734.8984L560.3729 734.8984L558.1219 734.8984M554.3328 735.6484L556.5838 735.6484L556.5838 735.6484L556.5838 734.8984L556.5838 734.8984L554.3328 734.8984M550.5438 735.6484L552.7947 735.6484L552.7947 735.6484L552.7947 734.8984L552.7947 734.8984L550.5438 734.8984M546.7547 735.6484L549.0056 735.6484L549.0056 735.6484L549.0056 734.8984L549.0056 734.8984L546.7547 734.8984M542.9656 735.6484L545.2166 735.6484L545.2166 735.6484L545.2166 734.8984L545.2166 734.8984L542.9656 734.8984M539.1765 735.6484L541.4274 735.6484L541.4274 735.6484L541.4274 734.8984L541.4274 734.8984L539.1765 734.8984M535.3874 735.6484L537.6384 735.6484L537.6384 735.6484L537.6384 734.8984L537.6384 734.8984L535.3874 734.8984M531.5983 735.6484L533.8492 735.6484L533.8492 735.6484L533.8492 734.8984L533.8492 734.8984L531.5983 734.8984M527.8092 735.6484L530.0602 735.6484L530.0602 735.6484L530.0602 734.8984L530.0602 734.8984L527.8092 734.8984M524.0201 735.6484L526.2711 735.6484L526.2711 735.6484L526.2711 734.8984L526.2711 734.8984L524.0201 734.8984M520.231 735.6484L522.4819 735.6484L522.4819 735.6484L522.4819 734.8984L522.4819 734.8984L520.231 734.8984M516.442 735.6484L518.6929 735.6484L518.6929 735.6484L518.6929 734.8984L518.6929 734.8984L516.442 734.8984M512.6528 735.6484L514.9038 735.6484L514.9038 735.6484L514.9038 734.8984L514.9038 734.8984L512.6528 734.8984M508.8638 735.6484L511.1147 735.6484L511.1147 735.6484L511.1147 734.8984L511.1147 734.8984L508.8638 734.8984M505.0747 735.6484L507.3256 735.6484L507.3256 735.6484L507.3256 734.8984L507.3256 734.8984L505.0747 734.8984M501.2856 735.6484L503.5365 735.6484L503.5365 735.6484L503.5365 734.8984L503.5365 734.8984L501.2856 734.8984M497.4965 735.6484L499.7474 735.6484L499.7474 735.6484L499.7474 734.8984L499.7474 734.8984L497.4965 734.8984M493.7074 735.6484L495.9583 735.6484L495.9583 735.6484L495.9583 734.8984L495.9583 734.8984L493.7074 734.8984" stroke="none" fill="#B5B6B5" fill-rule="winding" /></g><g clip-path="url(#6)"><path transform="matrix(1 0 0 -1 0 841)" d="M487.7049 863.9521L488.4552 863.9521L488.4552 863.9521L488.4552 5.591797L488.4552 5.591797L487.7049 5.591797z" stroke="none" fill="#B5B6B5" fill-rule="winding" /><g transform="matrix(0.7503151 0 0 0.7503152 294.8739 582.5519)"><g transform="matrix(1 0 0 1 0 0)"><image x="0" y="0" xlink:href="img_40.png" width="200" height="190" /></g></g><g transform="matrix(0.7308265 0 0 0.6483306 14.25599 55.07977)"><g transform="matrix(1 0 0 1 0 0)"><image x="0" y="0" xlink:href="img_41.png" width="231" height="206" /></g></g><g transform="matrix(0.7503152 0 0 0.7503152 14.25599 409.2288)"><g transform="matrix(1 0 0 1 0 0)"><image x="0" y="0" xlink:href="img_42.png" width="226" height="84" /></g></g></g></g></g></g></svg>