<svg xmlns="http://www.w3.org/2000/svg" xmlns:xlink="http://www.w3.org/1999/xlink" id="body_2" preserveAspectRatio="xMinYMin meet" viewBox="0 0 792 1121"><defs><clipPath id="1"><path d="M0 841L0 -0.9199829L0 -0.9199829L594.96 -0.9199829L594.96 -0.9199829L594.96 841L594.96 841L0 841z" /></clipPath><clipPath id="2"><path d="M0 -0.9199829L595.2 -0.9199829L595.2 -0.9199829L595.2 841.24L595.2 841.24L0 841.24z" /></clipPath><clipPath id="3"><path d="M0 55.08002L594.9999 55.08002L594.9999 55.08002L594.9999 790.3889L594.9999 790.3889L0 790.3889z" /></clipPath><clipPath id="4"><path d="M19.5082 574.2982L98.29129 574.2982L98.29129 574.2982L98.29129 575.0484L98.29129 575.0484L19.5082 575.0484z" /></clipPath><clipPath id="5"><path d="M0 55.08002L594.9999 55.08002L594.9999 55.08002L594.9999 790.3889L594.9999 790.3889L0 790.3889z" /></clipPath><clipPath id="6"><path d="M19.5082 634.3234L98.29129 634.3234L98.29129 634.3234L98.29129 635.0736L98.29129 635.0736L19.5082 635.0736z" /></clipPath><clipPath id="7"><path d="M0 55.08002L594.9999 55.08002L594.9999 55.08002L594.9999 790.3889L594.9999 790.3889L0 790.3889z" /></clipPath></defs><g transform="matrix(1.333333 0 0 1.333333 0 0)"><g><g clip-path="url(#1)"><g clip-path="url(#2)"><path transform="matrix(1 0 0 -1 0 841)" d="M0 841.92L792.9999 841.92L792.9999 841.92L792.9999 -280.0799L792.9999 -280.0799L0 -280.0799z" stroke="none" fill="#FFFFFF" fill-rule="winding" /><path transform="matrix(1 0 0 -1 0 841)" d="M0 796.92L594.9999 796.92L594.9999 796.92L594.9999 795.92L594.9999 795.92L0 795.92z" stroke="none" fill="#B7B5B5" fill-rule="winding" /><g transform="matrix(0.1840659 0 0 0.1886792 510 12.08002)"><g transform="matrix(1 0 0 1 0 0)"><image x="0" y="0" xlink:href="img_01.png" width="364" height="106" /></g></g></g><g clip-path="url(#3)"><path transform="matrix(1 0 0 -1 0 841)" d="M0 1521.229L594.9999 1521.229L594.9999 1521.229L594.9999 -18705.02L594.9999 -18705.02L0 -18705.02z" stroke="none" fill="#FFFFFF" fill-rule="winding" /><path transform="matrix(1 0 0 -1 0 841)" d="M107.2951 1521.229L108.0454 1521.229L108.0454 1521.229L108.0454 327.4773L108.0454 327.4773L107.2951 327.4773z" stroke="none" fill="#B5B6B5" fill-rule="winding" /></g><g clip-path="url(#4)"><path transform="matrix(1 0 0 -1 0 841)" d="M96.04034 266.7018L98.29129 266.7018L98.29129 266.7018L98.29129 265.9514L98.29129 265.9514L96.04034 265.9514M92.21374 266.7018L94.46468 266.7018L94.46468 266.7018L94.46468 265.9514L94.46468 265.9514L92.21374 265.9514M88.38712 266.7018L90.63807 266.7018L90.63807 266.7018L90.63807 265.9514L90.63807 265.9514L88.38712 265.9514M84.56052 266.7018L86.81146 266.7018L86.81146 266.7018L86.81146 265.9514L86.81146 265.9514L84.56052 265.9514M80.73391 266.7018L82.98486 266.7018L82.98486 266.7018L82.98486 265.9514L82.98486 265.9514L80.73391 265.9514M76.90731 266.7018L79.15825 266.7018L79.15825 266.7018L79.15825 265.9514L79.15825 265.9514L76.90731 265.9514M73.0807 266.7018L75.33165 266.7018L75.33165 266.7018L75.33165 265.9514L75.33165 265.9514L73.0807 265.9514M69.25409 266.7018L71.50504 266.7018L71.50504 266.7018L71.50504 265.9514L71.50504 265.9514L69.25409 265.9514M65.42748 266.7018L67.67843 266.7018L67.67843 266.7018L67.67843 265.9514L67.67843 265.9514L65.42748 265.9514M61.60088 266.7018L63.85182 266.7018L63.85182 266.7018L63.85182 265.9514L63.85182 265.9514L61.60088 265.9514M57.77427 266.7018L60.02522 266.7018L60.02522 266.7018L60.02522 265.9514L60.02522 265.9514L57.77427 265.9514M53.94766 266.7018L56.1986 266.7018L56.1986 266.7018L56.1986 265.9514L56.1986 265.9514L53.94766 265.9514M50.12106 266.7018L52.372 266.7018L52.372 266.7018L52.372 265.9514L52.372 265.9514L50.12106 265.9514M46.29445 266.7018L48.54539 266.7018L48.54539 266.7018L48.54539 265.9514L48.54539 265.9514L46.29445 265.9514M42.46784 266.7018L44.71878 266.7018L44.71878 266.7018L44.71878 265.9514L44.71878 265.9514L42.46784 265.9514M38.64123 266.7018L40.89218 266.7018L40.89218 266.7018L40.89218 265.9514L40.89218 265.9514L38.64123 265.9514M34.81462 266.7018L37.06557 266.7018L37.06557 266.7018L37.06557 265.9514L37.06557 265.9514L34.81462 265.9514M30.98802 266.7018L33.23896 266.7018L33.23896 266.7018L33.23896 265.9514L33.23896 265.9514L30.98802 265.9514M27.16141 266.7018L29.41236 266.7018L29.41236 266.7018L29.41236 265.9514L29.41236 265.9514L27.16141 265.9514M23.3348 266.7018L25.58575 266.7018L25.58575 266.7018L25.58575 265.9514L25.58575 265.9514L23.3348 265.9514M19.50819 266.7018L21.75914 266.7018L21.75914 266.7018L21.75914 265.9514L21.75914 265.9514L19.50819 265.9514" stroke="none" fill="#B5B6B5" fill-rule="winding" /></g><g clip-path="url(#5)"><path transform="matrix(1 0 0 -1 0 841)" d="M29.63745 279.4572C 29.63745 279.1371 29.60621 278.8198 29.54374 278.5057C 29.48126 278.1918 29.38875 277.8868 29.2662 277.5909C 29.14366 277.2952 28.99343 277.014 28.81552 276.7478C 28.6376 276.4816 28.43543 276.2351 28.20899 276.0087C 27.98255 275.7822 27.7362 275.5801 27.46994 275.4022C 27.20368 275.2244 26.92262 275.0741 26.62676 274.9515C 26.33091 274.829 26.02594 274.7365 25.71186 274.6738C 25.39779 274.6113 25.08063 274.5801 24.7604 274.5801C 24.44017 274.5801 24.12301 274.6113 23.80893 274.6738C 23.49485 274.7363 23.18989 274.829 22.89403 274.9514C 22.59818 275.0741 22.31712 275.2242 22.05085 275.4022C 21.78459 275.5801 21.53824 275.7822 21.3118 276.0087C 21.08537 276.2351 20.88319 276.4816 20.70528 276.7478C 20.52737 277.014 20.37714 277.2952 20.25459 277.5909C 20.13205 277.8868 20.03954 278.1918 19.97706 278.5057C 19.91459 278.8198 19.88335 279.1371 19.88335 279.4572C 19.88335 279.7775 19.91459 280.0946 19.97706 280.4088C 20.03953 280.7229 20.13204 281.0277 20.25459 281.3236C 20.37714 281.6195 20.52737 281.9006 20.70528 282.1669C 20.88319 282.4331 21.08537 282.6796 21.3118 282.9059C 21.53824 283.1322 21.78459 283.3344 22.05085 283.5123C 22.31712 283.6903 22.59818 283.8406 22.89403 283.963C 23.18989 284.0856 23.49485 284.178 23.80893 284.2406C 24.12301 284.303 24.44017 284.3342 24.7604 284.3342C 25.08063 284.3342 25.39779 284.303 25.71186 284.2405C 26.02594 284.178 26.33091 284.0856 26.62676 283.963C 26.92262 283.8406 27.20368 283.6903 27.46994 283.5123C 27.7362 283.3344 27.98255 283.1322 28.20899 282.9059C 28.43543 282.6796 28.6376 282.4331 28.81552 282.1669C 28.99343 281.9006 29.14366 281.6195 29.2662 281.3237C 29.38875 281.0277 29.48126 280.7229 29.54374 280.4088C 29.60621 280.0946 29.63745 279.7775 29.63745 279.4572z" stroke="#C3C4C3" stroke-width="0.7503152" fill="none" /><path transform="matrix(1 0 0 -1 0 841)" d="M58.14943 279.4572C 58.14943 279.1371 58.11819 278.8198 58.05572 278.5057C 57.99325 278.1918 57.90073 277.8868 57.77819 277.5909C 57.65564 277.2952 57.50541 277.014 57.32749 276.7478C 57.14958 276.4816 56.94741 276.2351 56.72097 276.0087C 56.49453 275.7822 56.24818 275.5801 55.98191 275.4022C 55.71565 275.2244 55.43459 275.0741 55.13874 274.9515C 54.84288 274.829 54.53791 274.7365 54.22384 274.6738C 53.90976 274.6113 53.59261 274.5801 53.27238 274.5801C 52.95215 274.5801 52.63499 274.6113 52.32091 274.6738C 52.00683 274.7363 51.70186 274.829 51.40601 274.9514C 51.11015 275.0741 50.82909 275.2242 50.56283 275.4022C 50.29657 275.5801 50.05022 275.7822 49.82378 276.0087C 49.59734 276.2351 49.39516 276.4816 49.21725 276.7478C 49.03934 277.014 48.88911 277.2952 48.76657 277.5909C 48.64402 277.8868 48.55151 278.1918 48.48903 278.5057C 48.42656 278.8198 48.39533 279.1371 48.39533 279.4572C 48.39533 279.7775 48.42657 280.0946 48.48904 280.4088C 48.55151 280.7229 48.64402 281.0277 48.76657 281.3236C 48.88911 281.6195 49.03934 281.9006 49.21725 282.1669C 49.39516 282.4331 49.59734 282.6796 49.82378 282.9059C 50.05022 283.1322 50.29657 283.3344 50.56283 283.5123C 50.82909 283.6903 51.11015 283.8406 51.40601 283.963C 51.70186 284.0856 52.00683 284.178 52.32091 284.2406C 52.63499 284.303 52.95215 284.3342 53.27238 284.3342C 53.59261 284.3342 53.90976 284.303 54.22384 284.2405C 54.53791 284.178 54.84288 284.0856 55.13874 283.963C 55.43459 283.8406 55.71565 283.6903 55.98191 283.5123C 56.24818 283.3344 56.49453 283.1322 56.72097 282.9059C 56.94741 282.6796 57.14958 282.4331 57.32749 282.1669C 57.50541 281.9006 57.65564 281.6195 57.77819 281.3237C 57.90073 281.0277 57.99325 280.7229 58.05572 280.4088C 58.11819 280.0946 58.14943 279.7775 58.14943 279.4572z" stroke="#C3C4C3" stroke-width="0.7503152" fill="none" /><path transform="matrix(1 0 0 -1 0 841)" d="M86.66141 279.4572C 86.66141 279.1371 86.63017 278.8198 86.56768 278.5057C 86.5052 278.1918 86.4127 277.8868 86.29015 277.5909C 86.1676 277.2952 86.01737 277.014 85.83946 276.7478C 85.66155 276.4816 85.45938 276.2351 85.23295 276.0087C 85.00651 275.7822 84.76015 275.5801 84.49389 275.4022C 84.22762 275.2244 83.94656 275.0741 83.65071 274.9515C 83.35485 274.829 83.04989 274.7365 82.73581 274.6738C 82.42174 274.6113 82.10458 274.5801 81.78436 274.5801C 81.46413 274.5801 81.14697 274.6113 80.83289 274.6738C 80.51881 274.7363 80.21384 274.829 79.91798 274.9514C 79.62213 275.0741 79.34107 275.2242 79.07481 275.4022C 78.80855 275.5801 78.5622 275.7822 78.33576 276.0087C 78.10932 276.2351 77.90714 276.4816 77.72923 276.7478C 77.55132 277.014 77.40109 277.2952 77.27855 277.5909C 77.156 277.8868 77.06349 278.1918 77.00102 278.5057C 76.93854 278.8198 76.9073 279.1371 76.90731 279.4572C 76.9073 279.7775 76.93854 280.0946 77.00102 280.4088C 77.06348 280.7229 77.156 281.0277 77.27855 281.3236C 77.40109 281.6195 77.55132 281.9006 77.72923 282.1669C 77.90715 282.4331 78.10932 282.6796 78.33576 282.9059C 78.5622 283.1322 78.80855 283.3344 79.07481 283.5123C 79.34107 283.6903 79.62213 283.8406 79.91798 283.963C 80.21384 284.0856 80.51881 284.178 80.83289 284.2406C 81.14697 284.303 81.46413 284.3342 81.78436 284.3342C 82.10458 284.3342 82.42174 284.303 82.73581 284.2405C 83.04989 284.178 83.35485 284.0856 83.65071 283.963C 83.94656 283.8406 84.22762 283.6903 84.49389 283.5123C 84.76015 283.3344 85.00651 283.1322 85.23295 282.9059C 85.45938 282.6796 85.66155 282.4331 85.83946 282.1669C 86.01737 281.9006 86.1676 281.6195 86.29015 281.3237C 86.4127 281.0277 86.5052 280.7229 86.56768 280.4088C 86.63017 280.0946 86.66141 279.7775 86.66141 279.4572z" stroke="#C3C4C3" stroke-width="0.7503152" fill="none" /></g><g clip-path="url(#6)"><path transform="matrix(1 0 0 -1 0 841)" d="M96.04034 206.6765L98.29129 206.6765L98.29129 206.6765L98.29129 205.9263L98.29129 205.9263L96.04034 205.9263M92.21374 206.6765L94.46468 206.6765L94.46468 206.6765L94.46468 205.9263L94.46468 205.9263L92.21374 205.9263M88.38712 206.6765L90.63807 206.6765L90.63807 206.6765L90.63807 205.9263L90.63807 205.9263L88.38712 205.9263M84.56052 206.6765L86.81146 206.6765L86.81146 206.6765L86.81146 205.9263L86.81146 205.9263L84.56052 205.9263M80.73391 206.6765L82.98486 206.6765L82.98486 206.6765L82.98486 205.9263L82.98486 205.9263L80.73391 205.9263M76.90731 206.6765L79.15825 206.6765L79.15825 206.6765L79.15825 205.9263L79.15825 205.9263L76.90731 205.9263M73.0807 206.6765L75.33165 206.6765L75.33165 206.6765L75.33165 205.9263L75.33165 205.9263L73.0807 205.9263M69.25409 206.6765L71.50504 206.6765L71.50504 206.6765L71.50504 205.9263L71.50504 205.9263L69.25409 205.9263M65.42748 206.6765L67.67843 206.6765L67.67843 206.6765L67.67843 205.9263L67.67843 205.9263L65.42748 205.9263M61.60088 206.6765L63.85182 206.6765L63.85182 206.6765L63.85182 205.9263L63.85182 205.9263L61.60088 205.9263M57.77427 206.6765L60.02522 206.6765L60.02522 206.6765L60.02522 205.9263L60.02522 205.9263L57.77427 205.9263M53.94766 206.6765L56.1986 206.6765L56.1986 206.6765L56.1986 205.9263L56.1986 205.9263L53.94766 205.9263M50.12106 206.6765L52.372 206.6765L52.372 206.6765L52.372 205.9263L52.372 205.9263L50.12106 205.9263M46.29445 206.6765L48.54539 206.6765L48.54539 206.6765L48.54539 205.9263L48.54539 205.9263L46.29445 205.9263M42.46784 206.6765L44.71878 206.6765L44.71878 206.6765L44.71878 205.9263L44.71878 205.9263L42.46784 205.9263M38.64123 206.6765L40.89218 206.6765L40.89218 206.6765L40.89218 205.9263L40.89218 205.9263L38.64123 205.9263M34.81462 206.6765L37.06557 206.6765L37.06557 206.6765L37.06557 205.9263L37.06557 205.9263L34.81462 205.9263M30.98802 206.6765L33.23896 206.6765L33.23896 206.6765L33.23896 205.9263L33.23896 205.9263L30.98802 205.9263M27.16141 206.6765L29.41236 206.6765L29.41236 206.6765L29.41236 205.9263L29.41236 205.9263L27.16141 205.9263M23.3348 206.6765L25.58575 206.6765L25.58575 206.6765L25.58575 205.9263L25.58575 205.9263L23.3348 205.9263M19.50819 206.6765L21.75914 206.6765L21.75914 206.6765L21.75914 205.9263L21.75914 205.9263L19.50819 205.9263" stroke="none" fill="#B5B6B5" fill-rule="winding" /></g><g clip-path="url(#7)"><path transform="matrix(1 0 0 -1 0 841)" d="M107.2951 327.4773L594.9999 327.4773L594.9999 327.4773L594.9999 326.7271L594.9999 326.7271L107.2951 326.7271z" stroke="none" fill="#B5B6B5" fill-rule="winding" /><path transform="matrix(1 0 0 -1 0 841)" d="M0 327.4773L107.2951 327.4773L107.2951 327.4773L107.2951 326.7271L107.2951 326.7271L0 326.7271z" stroke="none" fill="#B5B6B5" fill-rule="winding" /><path transform="matrix(1 0 0 -1 0 841)" d="M107.2951 327.4773L108.0454 327.4773L108.0454 327.4773L108.0454 -617.9198L108.0454 -617.9198L107.2951 -617.9198z" stroke="none" fill="#B5B6B5" fill-rule="winding" /><g transform="matrix(0.4701546 0 0 0.5685779 122.3014 55.08002)"><g transform="matrix(1 0 0 1 0 0)"><image x="0" y="0" xlink:href="img_05.png" width="466" height="289" /></g></g><g transform="matrix(0.7503152 0 0 0.7503152 122.3014 285.4268)"><g transform="matrix(1 0 0 1 0 0)"><image x="0" y="0" xlink:href="img_06.png" width="184" height="160" /></g></g><g transform="matrix(0.4463081 0 0 0.5436606 122.3014 557.7911)"><g transform="matrix(1 0 0 1 0 0)"><image x="0" y="0" xlink:href="img_07.png" width="696" height="236" /></g></g></g></g></g></g></svg>