<svg xmlns="http://www.w3.org/2000/svg" xmlns:xlink="http://www.w3.org/1999/xlink" id="body_1" preserveAspectRatio="xMinYMin meet" viewBox="0 0 792 1121"><defs><clipPath id="1"><path d="M0 841L0 -0.9199829L0 -0.9199829L594.96 -0.9199829L594.96 -0.9199829L594.96 841L594.96 841L0 841z" /></clipPath><clipPath id="2"><path d="M0 -0.9199829L595.2 -0.9199829L595.2 -0.9199829L595.2 841.24L595.2 841.24L0 841.24z" /></clipPath><clipPath id="3"><path d="M0 55.08002L594.9999 55.08002L594.9999 55.08002L594.9999 790.3889L594.9999 790.3889L0 790.3889z" /></clipPath><clipPath id="4"><path d="M14.25599 356.7067L473.4489 356.7067L473.4489 356.7067L473.4489 357.457L473.4489 357.457L14.25599 357.457z" /></clipPath><clipPath id="5"><path d="M493.7074 115.1052L571.7402 115.1052L571.7402 115.1052L571.7402 115.8555L571.7402 115.8555L493.7074 115.8555z" /></clipPath><clipPath id="6"><path d="M0 55.08002L594.9999 55.08002L594.9999 55.08002L594.9999 790.3889L594.9999 790.3889L0 790.3889z" /></clipPath><clipPath id="7"><path d="M493.7074 187.8858L571.7402 187.8858L571.7402 187.8858L571.7402 188.6361L571.7402 188.6361L493.7074 188.6361z" /></clipPath><clipPath id="8"><path d="M0 55.08002L594.9999 55.08002L594.9999 55.08002L594.9999 790.3889L594.9999 790.3889L0 790.3889z" /></clipPath></defs><g transform="matrix(1.333333 0 0 1.333333 0 0)"><g><g clip-path="url(#1)"><g clip-path="url(#2)"><path transform="matrix(1 0 0 -1 0 841)" d="M0 841.92L792.9999 841.92L792.9999 841.92L792.9999 -280.0799L792.9999 -280.0799L0 -280.0799z" stroke="none" fill="#FFFFFF" fill-rule="winding" /><path transform="matrix(1 0 0 -1 0 841)" d="M0 796.92L594.9999 796.92L594.9999 796.92L594.9999 795.92L594.9999 795.92L0 795.92z" stroke="none" fill="#B7B5B5" fill-rule="winding" /><g transform="matrix(0.1840659 0 0 0.1886792 510 12.08002)"><g transform="matrix(1 0 0 1 0 0)"><image x="0" y="0" xlink:href="img_01.png" width="364" height="106" /></g></g></g><g clip-path="url(#3)"><path transform="matrix(1 0 0 -1 0 841)" d="M0 785.92L594.9999 785.92L594.9999 785.92L594.9999 -18705.02L594.9999 -18705.02L0 -18705.02z" stroke="none" fill="#FFFFFF" fill-rule="winding" /></g><g clip-path="url(#4)"><path transform="matrix(1 0 0 -1 0 841)" d="M471.1979 484.2932L473.4489 484.2932L473.4489 484.2932L473.4489 483.5429L473.4489 483.5429L471.1979 483.5429M467.4525 484.2932L469.7034 484.2932L469.7034 484.2932L469.7034 483.5429L469.7034 483.5429L467.4525 483.5429M463.7071 484.2932L465.958 484.2932L465.958 484.2932L465.958 483.5429L465.958 483.5429L463.7071 483.5429M459.9617 484.2932L462.2126 484.2932L462.2126 484.2932L462.2126 483.5429L462.2126 483.5429L459.9617 483.5429M456.2162 484.2932L458.4672 484.2932L458.4672 484.2932L458.4672 483.5429L458.4672 483.5429L456.2162 483.5429M452.4708 484.2932L454.7217 484.2932L454.7217 484.2932L454.7217 483.5429L454.7217 483.5429L452.4708 483.5429M448.7254 484.2932L450.9763 484.2932L450.9763 484.2932L450.9763 483.5429L450.9763 483.5429L448.7254 483.5429M444.9799 484.2932L447.2309 484.2932L447.2309 484.2932L447.2309 483.5429L447.2309 483.5429L444.9799 483.5429M441.2345 484.2932L443.4855 484.2932L443.4855 484.2932L443.4855 483.5429L443.4855 483.5429L441.2345 483.5429M437.4891 484.2932L439.7401 484.2932L439.7401 484.2932L439.7401 483.5429L439.7401 483.5429L437.4891 483.5429M433.7437 484.2932L435.9946 484.2932L435.9946 484.2932L435.9946 483.5429L435.9946 483.5429L433.7437 483.5429M429.9982 484.2932L432.2492 484.2932L432.2492 484.2932L432.2492 483.5429L432.2492 483.5429L429.9982 483.5429M426.2528 484.2932L428.5038 484.2932L428.5038 484.2932L428.5038 483.5429L428.5038 483.5429L426.2528 483.5429M422.5074 484.2932L424.7584 484.2932L424.7584 484.2932L424.7584 483.5429L424.7584 483.5429L422.5074 483.5429M418.762 484.2932L421.0129 484.2932L421.0129 484.2932L421.0129 483.5429L421.0129 483.5429L418.762 483.5429M415.0165 484.2932L417.2675 484.2932L417.2675 484.2932L417.2675 483.5429L417.2675 483.5429L415.0165 483.5429M411.2711 484.2932L413.5221 484.2932L413.5221 484.2932L413.5221 483.5429L413.5221 483.5429L411.2711 483.5429M407.5257 484.2932L409.7766 484.2932L409.7766 484.2932L409.7766 483.5429L409.7766 483.5429L407.5257 483.5429M403.7803 484.2932L406.0312 484.2932L406.0312 484.2932L406.0312 483.5429L406.0312 483.5429L403.7803 483.5429M400.0349 484.2932L402.2858 484.2932L402.2858 484.2932L402.2858 483.5429L402.2858 483.5429L400.0349 483.5429M396.2894 484.2932L398.5404 484.2932L398.5404 484.2932L398.5404 483.5429L398.5404 483.5429L396.2894 483.5429M392.544 484.2932L394.7949 484.2932L394.7949 484.2932L394.7949 483.5429L394.7949 483.5429L392.544 483.5429M388.7986 484.2932L391.0495 484.2932L391.0495 484.2932L391.0495 483.5429L391.0495 483.5429L388.7986 483.5429M385.0532 484.2932L387.3041 484.2932L387.3041 484.2932L387.3041 483.5429L387.3041 483.5429L385.0532 483.5429M381.3077 484.2932L383.5587 484.2932L383.5587 484.2932L383.5587 483.5429L383.5587 483.5429L381.3077 483.5429M377.5623 484.2932L379.8132 484.2932L379.8132 484.2932L379.8132 483.5429L379.8132 483.5429L377.5623 483.5429M373.8169 484.2932L376.0678 484.2932L376.0678 484.2932L376.0678 483.5429L376.0678 483.5429L373.8169 483.5429M370.0714 484.2932L372.3224 484.2932L372.3224 484.2932L372.3224 483.5429L372.3224 483.5429L370.0714 483.5429M366.326 484.2932L368.577 484.2932L368.577 484.2932L368.577 483.5429L368.577 483.5429L366.326 483.5429M362.5806 484.2932L364.8315 484.2932L364.8315 484.2932L364.8315 483.5429L364.8315 483.5429L362.5806 483.5429M358.8352 484.2932L361.0861 484.2932L361.0861 484.2932L361.0861 483.5429L361.0861 483.5429L358.8352 483.5429M355.0897 484.2932L357.3407 484.2932L357.3407 484.2932L357.3407 483.5429L357.3407 483.5429L355.0897 483.5429M351.3443 484.2932L353.5953 484.2932L353.5953 484.2932L353.5953 483.5429L353.5953 483.5429L351.3443 483.5429M347.5989 484.2932L349.8499 484.2932L349.8499 484.2932L349.8499 483.5429L349.8499 483.5429L347.5989 483.5429M343.8535 484.2932L346.1044 484.2932L346.1044 484.2932L346.1044 483.5429L346.1044 483.5429L343.8535 483.5429M340.108 484.2932L342.359 484.2932L342.359 484.2932L342.359 483.5429L342.359 483.5429L340.108 483.5429M336.3626 484.2932L338.6136 484.2932L338.6136 484.2932L338.6136 483.5429L338.6136 483.5429L336.3626 483.5429M332.6172 484.2932L334.8681 484.2932L334.8681 484.2932L334.8681 483.5429L334.8681 483.5429L332.6172 483.5429M328.8717 484.2932L331.1227 484.2932L331.1227 484.2932L331.1227 483.5429L331.1227 483.5429L328.8717 483.5429M325.1263 484.2932L327.3773 484.2932L327.3773 484.2932L327.3773 483.5429L327.3773 483.5429L325.1263 483.5429M321.3809 484.2932L323.6319 484.2932L323.6319 484.2932L323.6319 483.5429L323.6319 483.5429L321.3809 483.5429M317.6355 484.2932L319.8864 484.2932L319.8864 484.2932L319.8864 483.5429L319.8864 483.5429L317.6355 483.5429M313.89 484.2932L316.141 484.2932L316.141 484.2932L316.141 483.5429L316.141 483.5429L313.89 483.5429M310.1446 484.2932L312.3956 484.2932L312.3956 484.2932L312.3956 483.5429L312.3956 483.5429L310.1446 483.5429M306.3992 484.2932L308.6501 484.2932L308.6501 484.2932L308.6501 483.5429L308.6501 483.5429L306.3992 483.5429M302.6538 484.2932L304.9047 484.2932L304.9047 484.2932L304.9047 483.5429L304.9047 483.5429L302.6538 483.5429M298.9084 484.2932L301.1593 484.2932L301.1593 484.2932L301.1593 483.5429L301.1593 483.5429L298.9084 483.5429M295.1629 484.2932L297.4139 484.2932L297.4139 484.2932L297.4139 483.5429L297.4139 483.5429L295.1629 483.5429M291.4175 484.2932L293.6684 484.2932L293.6684 484.2932L293.6684 483.5429L293.6684 483.5429L291.4175 483.5429M287.6721 484.2932L289.923 484.2932L289.923 484.2932L289.923 483.5429L289.923 483.5429L287.6721 483.5429M283.9267 484.2932L286.1776 484.2932L286.1776 484.2932L286.1776 483.5429L286.1776 483.5429L283.9267 483.5429M280.1812 484.2932L282.4322 484.2932L282.4322 484.2932L282.4322 483.5429L282.4322 483.5429L280.1812 483.5429M276.4358 484.2932L278.6867 484.2932L278.6867 484.2932L278.6867 483.5429L278.6867 483.5429L276.4358 483.5429M272.6904 484.2932L274.9413 484.2932L274.9413 484.2932L274.9413 483.5429L274.9413 483.5429L272.6904 483.5429M268.9449 484.2932L271.1959 484.2932L271.1959 484.2932L271.1959 483.5429L271.1959 483.5429L268.9449 483.5429M265.1995 484.2932L267.4504 484.2932L267.4504 484.2932L267.4504 483.5429L267.4504 483.5429L265.1995 483.5429M261.4541 484.2932L263.705 484.2932L263.705 484.2932L263.705 483.5429L263.705 483.5429L261.4541 483.5429M257.7087 484.2932L259.9596 484.2932L259.9596 484.2932L259.9596 483.5429L259.9596 483.5429L257.7087 483.5429M253.9632 484.2932L256.2142 484.2932L256.2142 484.2932L256.2142 483.5429L256.2142 483.5429L253.9632 483.5429M250.2178 484.2932L252.4688 484.2932L252.4688 484.2932L252.4688 483.5429L252.4688 483.5429L250.2178 483.5429M246.4724 484.2932L248.7233 484.2932L248.7233 484.2932L248.7233 483.5429L248.7233 483.5429L246.4724 483.5429M242.727 484.2932L244.9779 484.2932L244.9779 484.2932L244.9779 483.5429L244.9779 483.5429L242.727 483.5429M238.9816 484.2932L241.2325 484.2932L241.2325 484.2932L241.2325 483.5429L241.2325 483.5429L238.9816 483.5429M235.2361 484.2932L237.4871 484.2932L237.4871 484.2932L237.4871 483.5429L237.4871 483.5429L235.2361 483.5429M231.4907 484.2932L233.7416 484.2932L233.7416 484.2932L233.7416 483.5429L233.7416 483.5429L231.4907 483.5429M227.7453 484.2932L229.9962 484.2932L229.9962 484.2932L229.9962 483.5429L229.9962 483.5429L227.7453 483.5429M223.9998 484.2932L226.2508 484.2932L226.2508 484.2932L226.2508 483.5429L226.2508 483.5429L223.9998 483.5429M220.2544 484.2932L222.5054 484.2932L222.5054 484.2932L222.5054 483.5429L222.5054 483.5429L220.2544 483.5429M216.509 484.2932L218.7599 484.2932L218.7599 484.2932L218.7599 483.5429L218.7599 483.5429L216.509 483.5429M212.7636 484.2932L215.0145 484.2932L215.0145 484.2932L215.0145 483.5429L215.0145 483.5429L212.7636 483.5429M209.0181 484.2932L211.2691 484.2932L211.2691 484.2932L211.2691 483.5429L211.2691 483.5429L209.0181 483.5429M205.2727 484.2932L207.5237 484.2932L207.5237 484.2932L207.5237 483.5429L207.5237 483.5429L205.2727 483.5429M201.5273 484.2932L203.7782 484.2932L203.7782 484.2932L203.7782 483.5429L203.7782 483.5429L201.5273 483.5429M197.7818 484.2932L200.0328 484.2932L200.0328 484.2932L200.0328 483.5429L200.0328 483.5429L197.7818 483.5429M194.0364 484.2932L196.2874 484.2932L196.2874 484.2932L196.2874 483.5429L196.2874 483.5429L194.0364 483.5429M190.291 484.2932L192.5419 484.2932L192.5419 484.2932L192.5419 483.5429L192.5419 483.5429L190.291 483.5429M186.5456 484.2932L188.7965 484.2932L188.7965 484.2932L188.7965 483.5429L188.7965 483.5429L186.5456 483.5429M182.8002 484.2932L185.0511 484.2932L185.0511 484.2932L185.0511 483.5429L185.0511 483.5429L182.8002 483.5429M179.0547 484.2932L181.3057 484.2932L181.3057 484.2932L181.3057 483.5429L181.3057 483.5429L179.0547 483.5429M175.3093 484.2932L177.5602 484.2932L177.5602 484.2932L177.5602 483.5429L177.5602 483.5429L175.3093 483.5429M171.5639 484.2932L173.8148 484.2932L173.8148 484.2932L173.8148 483.5429L173.8148 483.5429L171.5639 483.5429M167.8185 484.2932L170.0694 484.2932L170.0694 484.2932L170.0694 483.5429L170.0694 483.5429L167.8185 483.5429M164.073 484.2932L166.324 484.2932L166.324 484.2932L166.324 483.5429L166.324 483.5429L164.073 483.5429M160.3276 484.2932L162.5785 484.2932L162.5785 484.2932L162.5785 483.5429L162.5785 483.5429L160.3276 483.5429M156.5822 484.2932L158.8331 484.2932L158.8331 484.2932L158.8331 483.5429L158.8331 483.5429L156.5822 483.5429M152.8367 484.2932L155.0877 484.2932L155.0877 484.2932L155.0877 483.5429L155.0877 483.5429L152.8367 483.5429M149.0913 484.2932L151.3423 484.2932L151.3423 484.2932L151.3423 483.5429L151.3423 483.5429L149.0913 483.5429M145.3459 484.2932L147.5968 484.2932L147.5968 484.2932L147.5968 483.5429L147.5968 483.5429L145.3459 483.5429M141.6005 484.2932L143.8514 484.2932L143.8514 484.2932L143.8514 483.5429L143.8514 483.5429L141.6005 483.5429M137.855 484.2932L140.106 484.2932L140.106 484.2932L140.106 483.5429L140.106 483.5429L137.855 483.5429M134.1096 484.2932L136.3606 484.2932L136.3606 484.2932L136.3606 483.5429L136.3606 483.5429L134.1096 483.5429M130.3642 484.2932L132.6151 484.2932L132.6151 484.2932L132.6151 483.5429L132.6151 483.5429L130.3642 483.5429M126.6188 484.2932L128.8697 484.2932L128.8697 484.2932L128.8697 483.5429L128.8697 483.5429L126.6188 483.5429M122.8733 484.2932L125.1243 484.2932L125.1243 484.2932L125.1243 483.5429L125.1243 483.5429L122.8733 483.5429M119.1279 484.2932L121.3789 484.2932L121.3789 484.2932L121.3789 483.5429L121.3789 483.5429L119.1279 483.5429M115.3825 484.2932L117.6334 484.2932L117.6334 484.2932L117.6334 483.5429L117.6334 483.5429L115.3825 483.5429M111.6371 484.2932L113.888 484.2932L113.888 484.2932L113.888 483.5429L113.888 483.5429L111.6371 483.5429M107.8916 484.2932L110.1426 484.2932L110.1426 484.2932L110.1426 483.5429L110.1426 483.5429L107.8916 483.5429M104.1462 484.2932L106.3972 484.2932L106.3972 484.2932L106.3972 483.5429L106.3972 483.5429L104.1462 483.5429M100.4008 484.2932L102.6517 484.2932L102.6517 484.2932L102.6517 483.5429L102.6517 483.5429L100.4008 483.5429M96.65536 484.2932L98.9063 484.2932L98.9063 484.2932L98.9063 483.5429L98.9063 483.5429L96.65536 483.5429M92.90993 484.2932L95.16087 484.2932L95.16087 484.2932L95.16087 483.5429L95.16087 483.5429L92.90993 483.5429M89.16451 484.2932L91.41545 484.2932L91.41545 484.2932L91.41545 483.5429L91.41545 483.5429L89.16451 483.5429M85.41908 484.2932L87.67002 484.2932L87.67002 484.2932L87.67002 483.5429L87.67002 483.5429L85.41908 483.5429M81.67365 484.2932L83.9246 484.2932L83.9246 484.2932L83.9246 483.5429L83.9246 483.5429L81.67365 483.5429M77.92823 484.2932L80.17918 484.2932L80.17918 484.2932L80.17918 483.5429L80.17918 483.5429L77.92823 483.5429M74.1828 484.2932L76.43375 484.2932L76.43375 484.2932L76.43375 483.5429L76.43375 483.5429L74.1828 483.5429M70.43738 484.2932L72.68832 484.2932L72.68832 484.2932L72.68832 483.5429L72.68832 483.5429L70.43738 483.5429M66.69195 484.2932L68.94289 484.2932L68.94289 484.2932L68.94289 483.5429L68.94289 483.5429L66.69195 483.5429M62.94652 484.2932L65.19747 484.2932L65.19747 484.2932L65.19747 483.5429L65.19747 483.5429L62.94652 483.5429M59.2011 484.2932L61.45205 484.2932L61.45205 484.2932L61.45205 483.5429L61.45205 483.5429L59.2011 483.5429M55.45567 484.2932L57.70662 484.2932L57.70662 484.2932L57.70662 483.5429L57.70662 483.5429L55.45567 483.5429M51.71024 484.2932L53.96119 484.2932L53.96119 484.2932L53.96119 483.5429L53.96119 483.5429L51.71024 483.5429M47.96482 484.2932L50.21577 484.2932L50.21577 484.2932L50.21577 483.5429L50.21577 483.5429L47.96482 483.5429M44.21939 484.2932L46.47034 484.2932L46.47034 484.2932L46.47034 483.5429L46.47034 483.5429L44.21939 483.5429M40.47397 484.2932L42.72491 484.2932L42.72491 484.2932L42.72491 483.5429L42.72491 483.5429L40.47397 483.5429M36.72855 484.2932L38.97949 484.2932L38.97949 484.2932L38.97949 483.5429L38.97949 483.5429L36.72855 483.5429M32.98312 484.2932L35.23406 484.2932L35.23406 484.2932L35.23406 483.5429L35.23406 483.5429L32.98312 483.5429M29.23769 484.2932L31.48864 484.2932L31.48864 484.2932L31.48864 483.5429L31.48864 483.5429L29.23769 483.5429M25.49227 484.2932L27.74321 484.2932L27.74321 484.2932L27.74321 483.5429L27.74321 483.5429L25.49227 483.5429M21.74684 484.2932L23.99779 484.2932L23.99779 484.2932L23.99779 483.5429L23.99779 483.5429L21.74684 483.5429M18.00141 484.2932L20.25236 484.2932L20.25236 484.2932L20.25236 483.5429L20.25236 483.5429L18.00141 483.5429M14.25599 484.2932L16.50694 484.2932L16.50694 484.2932L16.50694 483.5429L16.50694 483.5429L14.25599 483.5429" stroke="none" fill="#C3C4C3" fill-rule="winding" /></g><g clip-path="url(#5)"><path transform="matrix(1 0 0 -1 0 841)" d="M569.4893 725.8948L571.7402 725.8948L571.7402 725.8948L571.7402 725.1445L571.7402 725.1445L569.4893 725.1445M565.7001 725.8948L567.9511 725.8948L567.9511 725.8948L567.9511 725.1445L567.9511 725.1445L565.7001 725.1445M561.9111 725.8948L564.162 725.8948L564.162 725.8948L564.162 725.1445L564.162 725.1445L561.9111 725.1445M558.1219 725.8948L560.3729 725.8948L560.3729 725.8948L560.3729 725.1445L560.3729 725.1445L558.1219 725.1445M554.3328 725.8948L556.5838 725.8948L556.5838 725.8948L556.5838 725.1445L556.5838 725.1445L554.3328 725.1445M550.5438 725.8948L552.7947 725.8948L552.7947 725.8948L552.7947 725.1445L552.7947 725.1445L550.5438 725.1445M546.7547 725.8948L549.0056 725.8948L549.0056 725.8948L549.0056 725.1445L549.0056 725.1445L546.7547 725.1445M542.9656 725.8948L545.2166 725.8948L545.2166 725.8948L545.2166 725.1445L545.2166 725.1445L542.9656 725.1445M539.1765 725.8948L541.4274 725.8948L541.4274 725.8948L541.4274 725.1445L541.4274 725.1445L539.1765 725.1445M535.3874 725.8948L537.6384 725.8948L537.6384 725.8948L537.6384 725.1445L537.6384 725.1445L535.3874 725.1445M531.5983 725.8948L533.8492 725.8948L533.8492 725.8948L533.8492 725.1445L533.8492 725.1445L531.5983 725.1445M527.8092 725.8948L530.0602 725.8948L530.0602 725.8948L530.0602 725.1445L530.0602 725.1445L527.8092 725.1445M524.0201 725.8948L526.2711 725.8948L526.2711 725.8948L526.2711 725.1445L526.2711 725.1445L524.0201 725.1445M520.231 725.8948L522.4819 725.8948L522.4819 725.8948L522.4819 725.1445L522.4819 725.1445L520.231 725.1445M516.442 725.8948L518.6929 725.8948L518.6929 725.8948L518.6929 725.1445L518.6929 725.1445L516.442 725.1445M512.6528 725.8948L514.9038 725.8948L514.9038 725.8948L514.9038 725.1445L514.9038 725.1445L512.6528 725.1445M508.8638 725.8948L511.1147 725.8948L511.1147 725.8948L511.1147 725.1445L511.1147 725.1445L508.8638 725.1445M505.0747 725.8948L507.3256 725.8948L507.3256 725.8948L507.3256 725.1445L507.3256 725.1445L505.0747 725.1445M501.2856 725.8948L503.5365 725.8948L503.5365 725.8948L503.5365 725.1445L503.5365 725.1445L501.2856 725.1445M497.4965 725.8948L499.7474 725.8948L499.7474 725.8948L499.7474 725.1445L499.7474 725.1445L497.4965 725.1445M493.7074 725.8948L495.9583 725.8948L495.9583 725.8948L495.9583 725.1445L495.9583 725.1445L493.7074 725.1445" stroke="none" fill="#B5B6B5" fill-rule="winding" /></g><g clip-path="url(#6)"><path transform="matrix(1 0 0 -1 0 841)" d="M503.8366 738.6501C 503.8366 738.3299 503.8054 738.0128 503.7429 737.6987C 503.6805 737.3846 503.5879 737.0796 503.4654 736.7838C 503.3428 736.4879 503.1926 736.2068 503.0147 735.9406C 502.8368 735.6743 502.6346 735.428 502.4082 735.2015C 502.1818 734.9751 501.9355 734.7729 501.6692 734.595C 501.4028 734.4171 501.1218 734.2668 500.826 734.1443C 500.5301 734.0218 500.2252 733.9293 499.911 733.8668C 499.5969 733.8043 499.2798 733.7731 498.9596 733.7731C 498.6393 733.7731 498.3222 733.8043 498.0081 733.8668C 497.694 733.9293 497.389 734.0218 497.0932 734.1443C 496.7974 734.2668 496.5163 734.4171 496.25 734.595C 495.9838 734.7729 495.7374 734.9751 495.511 735.2015C 495.2845 735.428 495.0824 735.6743 494.9045 735.9406C 494.7266 736.2068 494.5764 736.4879 494.4538 736.7838C 494.3312 737.0796 494.2387 737.3846 494.1762 737.6987C 494.1138 738.0128 494.0826 738.3299 494.0826 738.6501C 494.0826 738.9703 494.1138 739.2875 494.1762 739.6016C 494.2387 739.9156 494.3312 740.2206 494.4538 740.5165C 494.5764 740.8124 494.7266 741.0934 494.9045 741.3597C 495.0824 741.6259 495.2845 741.8723 495.511 742.0987C 495.7374 742.3251 495.9838 742.5273 496.25 742.7053C 496.5163 742.8832 496.7974 743.0334 497.0932 743.1559C 497.389 743.2785 497.694 743.371 498.0081 743.4335C 498.3222 743.4959 498.6393 743.5272 498.9596 743.5272C 499.2798 743.5272 499.5969 743.4959 499.911 743.4335C 500.2252 743.371 500.5301 743.2785 500.826 743.1559C 501.1218 743.0334 501.4028 742.8832 501.6692 742.7053C 501.9355 742.5273 502.1818 742.3251 502.4082 742.0987C 502.6346 741.8723 502.8368 741.6259 503.0147 741.3597C 503.1926 741.0934 503.3428 740.8124 503.4654 740.5165C 503.5879 740.2206 503.6805 739.9156 503.7429 739.6016C 503.8054 739.2875 503.8366 738.9703 503.8366 738.6501z" stroke="#C3C4C3" stroke-width="0.7503152" fill="none" /><path transform="matrix(1 0 0 -1 0 841)" d="M531.5983 738.6501C 531.5983 738.3299 531.5671 738.0128 531.5046 737.6987C 531.4421 737.3846 531.3495 737.0796 531.227 736.7838C 531.1044 736.4879 530.9542 736.2068 530.7763 735.9406C 530.5984 735.6743 530.3962 735.428 530.1698 735.2015C 529.9434 734.9751 529.697 734.7729 529.4307 734.595C 529.1644 734.4171 528.8834 734.2668 528.5875 734.1443C 528.2917 734.0218 527.9868 733.9293 527.6727 733.8668C 527.3586 733.8043 527.0414 733.7731 526.7213 733.7731C 526.401 733.7731 526.0839 733.8043 525.7698 733.8668C 525.4556 733.9293 525.1507 734.0218 524.8548 734.1443C 524.559 734.2668 524.2779 734.4171 524.0117 734.595C 523.7454 734.7729 523.499 734.9751 523.2726 735.2015C 523.0461 735.428 522.844 735.6743 522.6661 735.9406C 522.4882 736.2068 522.338 736.4879 522.2154 736.7838C 522.0928 737.0796 522.0003 737.3846 521.9379 737.6987C 521.8754 738.0128 521.8442 738.3299 521.8442 738.6501C 521.8442 738.9703 521.8754 739.2875 521.9378 739.6016C 522.0003 739.9156 522.0928 740.2206 522.2154 740.5165C 522.338 740.8124 522.4882 741.0934 522.6661 741.3597C 522.844 741.6259 523.0461 741.8723 523.2726 742.0987C 523.499 742.3251 523.7454 742.5273 524.0117 742.7053C 524.2779 742.8832 524.559 743.0334 524.8548 743.1559C 525.1507 743.2785 525.4556 743.371 525.7697 743.4335C 526.0839 743.4959 526.401 743.5272 526.7213 743.5272C 527.0414 743.5272 527.3586 743.4959 527.6727 743.4335C 527.9868 743.371 528.2917 743.2785 528.5875 743.1559C 528.8834 743.0334 529.1644 742.8832 529.4307 742.7053C 529.697 742.5273 529.9434 742.3251 530.1698 742.0987C 530.3962 741.8723 530.5984 741.6259 530.7763 741.3597C 530.9542 741.0934 531.1044 740.8124 531.227 740.5165C 531.3495 740.2206 531.4421 739.9156 531.5046 739.6016C 531.5671 739.2875 531.5983 738.9703 531.5983 738.6501z" stroke="#C3C4C3" stroke-width="0.7503152" fill="none" /><path transform="matrix(1 0 0 -1 0 841)" d="M560.1103 738.6501C 560.1103 738.3299 560.079 738.0128 560.0165 737.6987C 559.9541 737.3846 559.8616 737.0796 559.739 736.7838C 559.6165 736.4879 559.4662 736.2068 559.2883 735.9406C 559.1104 735.6743 558.9083 735.428 558.6818 735.2015C 558.4553 734.9751 558.2089 734.7729 557.9427 734.595C 557.6765 734.4171 557.3954 734.2668 557.0995 734.1443C 556.8036 734.0218 556.4987 733.9293 556.1846 733.8668C 555.8706 733.8043 555.5535 733.7731 555.2332 733.7731C 554.913 733.7731 554.5958 733.8043 554.2817 733.8668C 553.9676 733.9293 553.6627 734.0218 553.3668 734.1443C 553.0709 734.2668 552.7899 734.4171 552.5236 734.595C 552.2573 734.7729 552.011 734.9751 551.7846 735.2015C 551.5582 735.428 551.356 735.6743 551.178 735.9406C 551.0001 736.2068 550.8499 736.4879 550.7274 736.7838C 550.6048 737.0796 550.5123 737.3846 550.4498 737.6987C 550.3874 738.0128 550.3561 738.3299 550.3562 738.6501C 550.3561 738.9703 550.3874 739.2875 550.4498 739.6016C 550.5123 739.9156 550.6048 740.2206 550.7274 740.5165C 550.8499 740.8124 551.0001 741.0934 551.178 741.3597C 551.356 741.6259 551.5582 741.8723 551.7846 742.0987C 552.011 742.3251 552.2573 742.5273 552.5236 742.7053C 552.7899 742.8832 553.0709 743.0334 553.3668 743.1559C 553.6627 743.2785 553.9676 743.371 554.2817 743.4335C 554.5958 743.4959 554.913 743.5272 555.2332 743.5272C 555.5535 743.5272 555.8706 743.4959 556.1846 743.4335C 556.4987 743.371 556.8036 743.2785 557.0995 743.1559C 557.3954 743.0334 557.6765 742.8832 557.9427 742.7053C 558.2089 742.5273 558.4553 742.3251 558.6818 742.0987C 558.9083 741.8723 559.1104 741.6259 559.2883 741.3597C 559.4662 741.0934 559.6165 740.8124 559.739 740.5165C 559.8616 740.2206 559.9541 739.9156 560.0165 739.6016C 560.079 739.2875 560.1103 738.9703 560.1103 738.6501z" stroke="#C3C4C3" stroke-width="0.7503152" fill="none" /></g><g clip-path="url(#7)"><path transform="matrix(1 0 0 -1 0 841)" d="M569.4893 653.1142L571.7402 653.1142L571.7402 653.1142L571.7402 652.3639L571.7402 652.3639L569.4893 652.3639M565.7001 653.1142L567.9511 653.1142L567.9511 653.1142L567.9511 652.3639L567.9511 652.3639L565.7001 652.3639M561.9111 653.1142L564.162 653.1142L564.162 653.1142L564.162 652.3639L564.162 652.3639L561.9111 652.3639M558.1219 653.1142L560.3729 653.1142L560.3729 653.1142L560.3729 652.3639L560.3729 652.3639L558.1219 652.3639M554.3328 653.1142L556.5838 653.1142L556.5838 653.1142L556.5838 652.3639L556.5838 652.3639L554.3328 652.3639M550.5438 653.1142L552.7947 653.1142L552.7947 653.1142L552.7947 652.3639L552.7947 652.3639L550.5438 652.3639M546.7547 653.1142L549.0056 653.1142L549.0056 653.1142L549.0056 652.3639L549.0056 652.3639L546.7547 652.3639M542.9656 653.1142L545.2166 653.1142L545.2166 653.1142L545.2166 652.3639L545.2166 652.3639L542.9656 652.3639M539.1765 653.1142L541.4274 653.1142L541.4274 653.1142L541.4274 652.3639L541.4274 652.3639L539.1765 652.3639M535.3874 653.1142L537.6384 653.1142L537.6384 653.1142L537.6384 652.3639L537.6384 652.3639L535.3874 652.3639M531.5983 653.1142L533.8492 653.1142L533.8492 653.1142L533.8492 652.3639L533.8492 652.3639L531.5983 652.3639M527.8092 653.1142L530.0602 653.1142L530.0602 653.1142L530.0602 652.3639L530.0602 652.3639L527.8092 652.3639M524.0201 653.1142L526.2711 653.1142L526.2711 653.1142L526.2711 652.3639L526.2711 652.3639L524.0201 652.3639M520.231 653.1142L522.4819 653.1142L522.4819 653.1142L522.4819 652.3639L522.4819 652.3639L520.231 652.3639M516.442 653.1142L518.6929 653.1142L518.6929 653.1142L518.6929 652.3639L518.6929 652.3639L516.442 652.3639M512.6528 653.1142L514.9038 653.1142L514.9038 653.1142L514.9038 652.3639L514.9038 652.3639L512.6528 652.3639M508.8638 653.1142L511.1147 653.1142L511.1147 653.1142L511.1147 652.3639L511.1147 652.3639L508.8638 652.3639M505.0747 653.1142L507.3256 653.1142L507.3256 653.1142L507.3256 652.3639L507.3256 652.3639L505.0747 652.3639M501.2856 653.1142L503.5365 653.1142L503.5365 653.1142L503.5365 652.3639L503.5365 652.3639L501.2856 652.3639M497.4965 653.1142L499.7474 653.1142L499.7474 653.1142L499.7474 652.3639L499.7474 652.3639L497.4965 652.3639M493.7074 653.1142L495.9583 653.1142L495.9583 653.1142L495.9583 652.3639L495.9583 652.3639L493.7074 652.3639" stroke="none" fill="#B5B6B5" fill-rule="winding" /></g><g clip-path="url(#8)"><path transform="matrix(1 0 0 -1 0 841)" d="M487.7049 785.92L488.4552 785.92L488.4552 785.92L488.4552 -407.8316L488.4552 -407.8316L487.7049 -407.8316z" stroke="none" fill="#B5B6B5" fill-rule="winding" /><g transform="matrix(0.6060238 0 0 0.5955417 14.25599 106.8518)"><g transform="matrix(1 0 0 1 0 0)"><image x="0" y="0" xlink:href="img_02.png" width="234" height="223" /></g></g><g transform="matrix(0.7503151 0 0 0.7503151 14.25599 448.9955)"><g transform="matrix(1 0 0 1 0 0)"><image x="0" y="0" xlink:href="img_03.png" width="274" height="216" /></g></g></g></g></g></g></svg>