<svg xmlns="http://www.w3.org/2000/svg" xmlns:xlink="http://www.w3.org/1999/xlink" id="body_4" preserveAspectRatio="xMinYMin meet" viewBox="0 0 792 1121"><defs><clipPath id="1"><path d="M0 841L0 -0.9199829L0 -0.9199829L594.96 -0.9199829L594.96 -0.9199829L594.96 841L594.96 841L0 841z" /></clipPath><clipPath id="2"><path d="M0 -0.9199829L595.2 -0.9199829L595.2 -0.9199829L595.2 841.24L595.2 841.24L0 841.24z" /></clipPath><clipPath id="3"><path d="M0 55.07996L594.9999 55.07996L594.9999 55.07996L594.9999 790.3889L594.9999 790.3889L0 790.3889z" /></clipPath><clipPath id="4"><path d="M19.5082 118.1064L98.29129 118.1064L98.29129 118.1064L98.29129 118.8569L98.29129 118.8569L19.5082 118.8569z" /></clipPath><clipPath id="5"><path d="M122.3014 226.1519L580.744 226.1519L580.744 226.1519L580.744 226.9021L580.744 226.9021L122.3014 226.9021z" /></clipPath><clipPath id="6"><path d="M0 55.07996L594.9999 55.07996L594.9999 55.07996L594.9999 790.3889L594.9999 790.3889L0 790.3889z" /></clipPath></defs><g transform="matrix(1.333333 0 0 1.333333 0 0)"><g><g clip-path="url(#1)"><g clip-path="url(#2)"><path transform="matrix(1 0 0 -1 0 841)" d="M0 841.92L792.9999 841.92L792.9999 841.92L792.9999 -280.0799L792.9999 -280.0799L0 -280.0799z" stroke="none" fill="#FFFFFF" fill-rule="winding" /><path transform="matrix(1 0 0 -1 0 841)" d="M0 796.92L594.9999 796.92L594.9999 796.92L594.9999 795.92L594.9999 795.92L0 795.92z" stroke="none" fill="#B7B5B5" fill-rule="winding" /><g transform="matrix(0.1840659 0 0 0.1886792 510 12.08002)"><g transform="matrix(1 0 0 1 0 0)"><image x="0" y="0" xlink:href="img_01.png" width="364" height="106" /></g></g></g><g clip-path="url(#3)"><path transform="matrix(1 0 0 -1 0 841)" d="M0 2991.847L594.9999 2991.847L594.9999 2991.847L594.9999 -17234.4L594.9999 -17234.4L0 -17234.4z" stroke="none" fill="#FFFFFF" fill-rule="winding" /></g><g clip-path="url(#4)"><path transform="matrix(1 0 0 -1 0 841)" d="M96.04034 722.8933L98.29129 722.8933L98.29129 722.8933L98.29129 722.1431L98.29129 722.1431L96.04034 722.1431M92.21374 722.8933L94.46468 722.8933L94.46468 722.8933L94.46468 722.1431L94.46468 722.1431L92.21374 722.1431M88.38712 722.8933L90.63807 722.8933L90.63807 722.8933L90.63807 722.1431L90.63807 722.1431L88.38712 722.1431M84.56052 722.8933L86.81146 722.8933L86.81146 722.8933L86.81146 722.1431L86.81146 722.1431L84.56052 722.1431M80.73391 722.8933L82.98486 722.8933L82.98486 722.8933L82.98486 722.1431L82.98486 722.1431L80.73391 722.1431M76.90731 722.8933L79.15825 722.8933L79.15825 722.8933L79.15825 722.1431L79.15825 722.1431L76.90731 722.1431M73.0807 722.8933L75.33165 722.8933L75.33165 722.8933L75.33165 722.1431L75.33165 722.1431L73.0807 722.1431M69.25409 722.8933L71.50504 722.8933L71.50504 722.8933L71.50504 722.1431L71.50504 722.1431L69.25409 722.1431M65.42748 722.8933L67.67843 722.8933L67.67843 722.8933L67.67843 722.1431L67.67843 722.1431L65.42748 722.1431M61.60088 722.8933L63.85182 722.8933L63.85182 722.8933L63.85182 722.1431L63.85182 722.1431L61.60088 722.1431M57.77427 722.8933L60.02522 722.8933L60.02522 722.8933L60.02522 722.1431L60.02522 722.1431L57.77427 722.1431M53.94766 722.8933L56.1986 722.8933L56.1986 722.8933L56.1986 722.1431L56.1986 722.1431L53.94766 722.1431M50.12106 722.8933L52.372 722.8933L52.372 722.8933L52.372 722.1431L52.372 722.1431L50.12106 722.1431M46.29445 722.8933L48.54539 722.8933L48.54539 722.8933L48.54539 722.1431L48.54539 722.1431L46.29445 722.1431M42.46784 722.8933L44.71878 722.8933L44.71878 722.8933L44.71878 722.1431L44.71878 722.1431L42.46784 722.1431M38.64123 722.8933L40.89218 722.8933L40.89218 722.8933L40.89218 722.1431L40.89218 722.1431L38.64123 722.1431M34.81462 722.8933L37.06557 722.8933L37.06557 722.8933L37.06557 722.1431L37.06557 722.1431L34.81462 722.1431M30.98802 722.8933L33.23896 722.8933L33.23896 722.8933L33.23896 722.1431L33.23896 722.1431L30.98802 722.1431M27.16141 722.8933L29.41236 722.8933L29.41236 722.8933L29.41236 722.1431L29.41236 722.1431L27.16141 722.1431M23.3348 722.8933L25.58575 722.8933L25.58575 722.8933L25.58575 722.1431L25.58575 722.1431L23.3348 722.1431M19.50819 722.8933L21.75914 722.8933L21.75914 722.8933L21.75914 722.1431L21.75914 722.1431L19.50819 722.1431" stroke="none" fill="#B5B6B5" fill-rule="winding" /></g><g clip-path="url(#5)"><path transform="matrix(1 0 0 -1 0 841)" d="M578.493 614.8479L580.744 614.8479L580.744 614.8479L580.744 614.0977L580.744 614.0977L578.493 614.0977M574.7538 614.8479L577.0047 614.8479L577.0047 614.8479L577.0047 614.0977L577.0047 614.0977L574.7538 614.0977M571.0145 614.8479L573.2654 614.8479L573.2654 614.8479L573.2654 614.0977L573.2654 614.0977L571.0145 614.0977M567.2752 614.8479L569.5261 614.8479L569.5261 614.8479L569.5261 614.0977L569.5261 614.0977L567.2752 614.0977M563.5359 614.8479L565.7869 614.8479L565.7869 614.8479L565.7869 614.0977L565.7869 614.0977L563.5359 614.0977M559.7966 614.8479L562.0476 614.8479L562.0476 614.8479L562.0476 614.0977L562.0476 614.0977L559.7966 614.0977M556.0574 614.8479L558.3083 614.8479L558.3083 614.8479L558.3083 614.0977L558.3083 614.0977L556.0574 614.0977M552.3181 614.8479L554.569 614.8479L554.569 614.8479L554.569 614.0977L554.569 614.0977L552.3181 614.0977M548.5788 614.8479L550.8298 614.8479L550.8298 614.8479L550.8298 614.0977L550.8298 614.0977L548.5788 614.0977M544.8395 614.8479L547.0905 614.8479L547.0905 614.8479L547.0905 614.0977L547.0905 614.0977L544.8395 614.0977M541.1003 614.8479L543.3512 614.8479L543.3512 614.8479L543.3512 614.0977L543.3512 614.0977L541.1003 614.0977M537.361 614.8479L539.6119 614.8479L539.6119 614.8479L539.6119 614.0977L539.6119 614.0977L537.361 614.0977M533.6217 614.8479L535.8726 614.8479L535.8726 614.8479L535.8726 614.0977L535.8726 614.0977L533.6217 614.0977M529.8824 614.8479L532.1334 614.8479L532.1334 614.8479L532.1334 614.0977L532.1334 614.0977L529.8824 614.0977M526.1431 614.8479L528.3941 614.8479L528.3941 614.8479L528.3941 614.0977L528.3941 614.0977L526.1431 614.0977M522.4039 614.8479L524.6548 614.8479L524.6548 614.8479L524.6548 614.0977L524.6548 614.0977L522.4039 614.0977M518.6646 614.8479L520.9155 614.8479L520.9155 614.8479L520.9155 614.0977L520.9155 614.0977L518.6646 614.0977M514.9253 614.8479L517.1763 614.8479L517.1763 614.8479L517.1763 614.0977L517.1763 614.0977L514.9253 614.0977M511.1861 614.8479L513.437 614.8479L513.437 614.8479L513.437 614.0977L513.437 614.0977L511.1861 614.0977M507.4468 614.8479L509.6977 614.8479L509.6977 614.8479L509.6977 614.0977L509.6977 614.0977L507.4468 614.0977M503.7075 614.8479L505.9585 614.8479L505.9585 614.8479L505.9585 614.0977L505.9585 614.0977L503.7075 614.0977M499.9682 614.8479L502.2191 614.8479L502.2191 614.8479L502.2191 614.0977L502.2191 614.0977L499.9682 614.0977M496.2289 614.8479L498.4799 614.8479L498.4799 614.8479L498.4799 614.0977L498.4799 614.0977L496.2289 614.0977M492.4897 614.8479L494.7406 614.8479L494.7406 614.8479L494.7406 614.0977L494.7406 614.0977L492.4897 614.0977M488.7504 614.8479L491.0013 614.8479L491.0013 614.8479L491.0013 614.0977L491.0013 614.0977L488.7504 614.0977M485.0111 614.8479L487.2621 614.8479L487.2621 614.8479L487.2621 614.0977L487.2621 614.0977L485.0111 614.0977M481.2719 614.8479L483.5228 614.8479L483.5228 614.8479L483.5228 614.0977L483.5228 614.0977L481.2719 614.0977M477.5326 614.8479L479.7835 614.8479L479.7835 614.8479L479.7835 614.0977L479.7835 614.0977L477.5326 614.0977M473.7933 614.8479L476.0442 614.8479L476.0442 614.8479L476.0442 614.0977L476.0442 614.0977L473.7933 614.0977M470.054 614.8479L472.305 614.8479L472.305 614.8479L472.305 614.0977L472.305 614.0977L470.054 614.0977M466.3148 614.8479L468.5657 614.8479L468.5657 614.8479L468.5657 614.0977L468.5657 614.0977L466.3148 614.0977M462.5754 614.8479L464.8264 614.8479L464.8264 614.8479L464.8264 614.0977L464.8264 614.0977L462.5754 614.0977M458.8362 614.8479L461.0871 614.8479L461.0871 614.8479L461.0871 614.0977L461.0871 614.0977L458.8362 614.0977M455.0969 614.8479L457.3479 614.8479L457.3479 614.8479L457.3479 614.0977L457.3479 614.0977L455.0969 614.0977M451.3576 614.8479L453.6086 614.8479L453.6086 614.8479L453.6086 614.0977L453.6086 614.0977L451.3576 614.0977M447.6183 614.8479L449.8693 614.8479L449.8693 614.8479L449.8693 614.0977L449.8693 614.0977L447.6183 614.0977M443.8791 614.8479L446.1301 614.8479L446.1301 614.8479L446.1301 614.0977L446.1301 614.0977L443.8791 614.0977M440.1398 614.8479L442.3908 614.8479L442.3908 614.8479L442.3908 614.0977L442.3908 614.0977L440.1398 614.0977M436.4005 614.8479L438.6515 614.8479L438.6515 614.8479L438.6515 614.0977L438.6515 614.0977L436.4005 614.0977M432.6613 614.8479L434.9122 614.8479L434.9122 614.8479L434.9122 614.0977L434.9122 614.0977L432.6613 614.0977M428.922 614.8479L431.1729 614.8479L431.1729 614.8479L431.1729 614.0977L431.1729 614.0977L428.922 614.0977M425.1827 614.8479L427.4337 614.8479L427.4337 614.8479L427.4337 614.0977L427.4337 614.0977L425.1827 614.0977M421.4435 614.8479L423.6944 614.8479L423.6944 614.8479L423.6944 614.0977L423.6944 614.0977L421.4435 614.0977M417.7042 614.8479L419.9551 614.8479L419.9551 614.8479L419.9551 614.0977L419.9551 614.0977L417.7042 614.0977M413.9649 614.8479L416.2158 614.8479L416.2158 614.8479L416.2158 614.0977L416.2158 614.0977L413.9649 614.0977M410.2256 614.8479L412.4765 614.8479L412.4765 614.8479L412.4765 614.0977L412.4765 614.0977L410.2256 614.0977M406.4863 614.8479L408.7373 614.8479L408.7373 614.8479L408.7373 614.0977L408.7373 614.0977L406.4863 614.0977M402.7471 614.8479L404.998 614.8479L404.998 614.8479L404.998 614.0977L404.998 614.0977L402.7471 614.0977M399.0078 614.8479L401.2587 614.8479L401.2587 614.8479L401.2587 614.0977L401.2587 614.0977L399.0078 614.0977M395.2685 614.8479L397.5194 614.8479L397.5194 614.8479L397.5194 614.0977L397.5194 614.0977L395.2685 614.0977M391.5292 614.8479L393.7802 614.8479L393.7802 614.8479L393.7802 614.0977L393.7802 614.0977L391.5292 614.0977M387.7899 614.8479L390.0409 614.8479L390.0409 614.8479L390.0409 614.0977L390.0409 614.0977L387.7899 614.0977M384.0507 614.8479L386.3016 614.8479L386.3016 614.8479L386.3016 614.0977L386.3016 614.0977L384.0507 614.0977M380.3114 614.8479L382.5623 614.8479L382.5623 614.8479L382.5623 614.0977L382.5623 614.0977L380.3114 614.0977M376.5721 614.8479L378.8231 614.8479L378.8231 614.8479L378.8231 614.0977L378.8231 614.0977L376.5721 614.0977M372.8329 614.8479L375.0838 614.8479L375.0838 614.8479L375.0838 614.0977L375.0838 614.0977L372.8329 614.0977M369.0936 614.8479L371.3445 614.8479L371.3445 614.8479L371.3445 614.0977L371.3445 614.0977L369.0936 614.0977M365.3543 614.8479L367.6052 614.8479L367.6052 614.8479L367.6052 614.0977L367.6052 614.0977L365.3543 614.0977M361.615 614.8479L363.866 614.8479L363.866 614.8479L363.866 614.0977L363.866 614.0977L361.615 614.0977M357.8758 614.8479L360.1267 614.8479L360.1267 614.8479L360.1267 614.0977L360.1267 614.0977L357.8758 614.0977M354.1365 614.8479L356.3874 614.8479L356.3874 614.8479L356.3874 614.0977L356.3874 614.0977L354.1365 614.0977M350.3972 614.8479L352.6481 614.8479L352.6481 614.8479L352.6481 614.0977L352.6481 614.0977L350.3972 614.0977M346.6579 614.8479L348.9088 614.8479L348.9088 614.8479L348.9088 614.0977L348.9088 614.0977L346.6579 614.0977M342.9186 614.8479L345.1696 614.8479L345.1696 614.8479L345.1696 614.0977L345.1696 614.0977L342.9186 614.0977M339.1794 614.8479L341.4303 614.8479L341.4303 614.8479L341.4303 614.0977L341.4303 614.0977L339.1794 614.0977M335.4401 614.8479L337.691 614.8479L337.691 614.8479L337.691 614.0977L337.691 614.0977L335.4401 614.0977M331.7008 614.8479L333.9518 614.8479L333.9518 614.8479L333.9518 614.0977L333.9518 614.0977L331.7008 614.0977M327.9615 614.8479L330.2125 614.8479L330.2125 614.8479L330.2125 614.0977L330.2125 614.0977L327.9615 614.0977M324.2223 614.8479L326.4732 614.8479L326.4732 614.8479L326.4732 614.0977L326.4732 614.0977L324.2223 614.0977M320.483 614.8479L322.7339 614.8479L322.7339 614.8479L322.7339 614.0977L322.7339 614.0977L320.483 614.0977M316.7437 614.8479L318.9947 614.8479L318.9947 614.8479L318.9947 614.0977L318.9947 614.0977L316.7437 614.0977M313.0045 614.8479L315.2554 614.8479L315.2554 614.8479L315.2554 614.0977L315.2554 614.0977L313.0045 614.0977M309.2652 614.8479L311.5161 614.8479L311.5161 614.8479L311.5161 614.0977L311.5161 614.0977L309.2652 614.0977M305.5259 614.8479L307.7768 614.8479L307.7768 614.8479L307.7768 614.0977L307.7768 614.0977L305.5259 614.0977M301.7866 614.8479L304.0376 614.8479L304.0376 614.8479L304.0376 614.0977L304.0376 614.0977L301.7866 614.0977M298.0473 614.8479L300.2983 614.8479L300.2983 614.8479L300.2983 614.0977L300.2983 614.0977L298.0473 614.0977M294.3081 614.8479L296.559 614.8479L296.559 614.8479L296.559 614.0977L296.559 614.0977L294.3081 614.0977M290.5688 614.8479L292.8197 614.8479L292.8197 614.8479L292.8197 614.0977L292.8197 614.0977L290.5688 614.0977M286.8295 614.8479L289.0804 614.8479L289.0804 614.8479L289.0804 614.0977L289.0804 614.0977L286.8295 614.0977M283.0902 614.8479L285.3412 614.8479L285.3412 614.8479L285.3412 614.0977L285.3412 614.0977L283.0902 614.0977M279.351 614.8479L281.6019 614.8479L281.6019 614.8479L281.6019 614.0977L281.6019 614.0977L279.351 614.0977M275.6117 614.8479L277.8626 614.8479L277.8626 614.8479L277.8626 614.0977L277.8626 614.0977L275.6117 614.0977M271.8724 614.8479L274.1234 614.8479L274.1234 614.8479L274.1234 614.0977L274.1234 614.0977L271.8724 614.0977M268.1331 614.8479L270.3841 614.8479L270.3841 614.8479L270.3841 614.0977L270.3841 614.0977L268.1331 614.0977M264.3939 614.8479L266.6448 614.8479L266.6448 614.8479L266.6448 614.0977L266.6448 614.0977L264.3939 614.0977M260.6546 614.8479L262.9055 614.8479L262.9055 614.8479L262.9055 614.0977L262.9055 614.0977L260.6546 614.0977M256.9153 614.8479L259.1663 614.8479L259.1663 614.8479L259.1663 614.0977L259.1663 614.0977L256.9153 614.0977M253.176 614.8479L255.427 614.8479L255.427 614.8479L255.427 614.0977L255.427 614.0977L253.176 614.0977M249.4368 614.8479L251.6877 614.8479L251.6877 614.8479L251.6877 614.0977L251.6877 614.0977L249.4368 614.0977M245.6975 614.8479L247.9484 614.8479L247.9484 614.8479L247.9484 614.0977L247.9484 614.0977L245.6975 614.0977M241.9582 614.8479L244.2091 614.8479L244.2091 614.8479L244.2091 614.0977L244.2091 614.0977L241.9582 614.0977M238.2189 614.8479L240.4699 614.8479L240.4699 614.8479L240.4699 614.0977L240.4699 614.0977L238.2189 614.0977M234.4796 614.8479L236.7306 614.8479L236.7306 614.8479L236.7306 614.0977L236.7306 614.0977L234.4796 614.0977M230.7404 614.8479L232.9913 614.8479L232.9913 614.8479L232.9913 614.0977L232.9913 614.0977L230.7404 614.0977M227.0011 614.8479L229.252 614.8479L229.252 614.8479L229.252 614.0977L229.252 614.0977L227.0011 614.0977M223.2618 614.8479L225.5128 614.8479L225.5128 614.8479L225.5128 614.0977L225.5128 614.0977L223.2618 614.0977M219.5226 614.8479L221.7735 614.8479L221.7735 614.8479L221.7735 614.0977L221.7735 614.0977L219.5226 614.0977M215.7833 614.8479L218.0342 614.8479L218.0342 614.8479L218.0342 614.0977L218.0342 614.0977L215.7833 614.0977M212.044 614.8479L214.295 614.8479L214.295 614.8479L214.295 614.0977L214.295 614.0977L212.044 614.0977M208.3047 614.8479L210.5557 614.8479L210.5557 614.8479L210.5557 614.0977L210.5557 614.0977L208.3047 614.0977M204.5654 614.8479L206.8164 614.8479L206.8164 614.8479L206.8164 614.0977L206.8164 614.0977L204.5654 614.0977M200.8262 614.8479L203.0771 614.8479L203.0771 614.8479L203.0771 614.0977L203.0771 614.0977L200.8262 614.0977M197.0869 614.8479L199.3378 614.8479L199.3378 614.8479L199.3378 614.0977L199.3378 614.0977L197.0869 614.0977M193.3476 614.8479L195.5986 614.8479L195.5986 614.8479L195.5986 614.0977L195.5986 614.0977L193.3476 614.0977M189.6083 614.8479L191.8593 614.8479L191.8593 614.8479L191.8593 614.0977L191.8593 614.0977L189.6083 614.0977M185.8691 614.8479L188.12 614.8479L188.12 614.8479L188.12 614.0977L188.12 614.0977L185.8691 614.0977M182.1298 614.8479L184.3807 614.8479L184.3807 614.8479L184.3807 614.0977L184.3807 614.0977L182.1298 614.0977M178.3905 614.8479L180.6414 614.8479L180.6414 614.8479L180.6414 614.0977L180.6414 614.0977L178.3905 614.0977M174.6512 614.8479L176.9022 614.8479L176.9022 614.8479L176.9022 614.0977L176.9022 614.0977L174.6512 614.0977M170.912 614.8479L173.1629 614.8479L173.1629 614.8479L173.1629 614.0977L173.1629 614.0977L170.912 614.0977M167.1727 614.8479L169.4236 614.8479L169.4236 614.8479L169.4236 614.0977L169.4236 614.0977L167.1727 614.0977M163.4334 614.8479L165.6844 614.8479L165.6844 614.8479L165.6844 614.0977L165.6844 614.0977L163.4334 614.0977M159.6941 614.8479L161.9451 614.8479L161.9451 614.8479L161.9451 614.0977L161.9451 614.0977L159.6941 614.0977M155.9549 614.8479L158.2058 614.8479L158.2058 614.8479L158.2058 614.0977L158.2058 614.0977L155.9549 614.0977M152.2156 614.8479L154.4665 614.8479L154.4665 614.8479L154.4665 614.0977L154.4665 614.0977L152.2156 614.0977M148.4763 614.8479L150.7273 614.8479L150.7273 614.8479L150.7273 614.0977L150.7273 614.0977L148.4763 614.0977M144.737 614.8479L146.988 614.8479L146.988 614.8479L146.988 614.0977L146.988 614.0977L144.737 614.0977M140.9978 614.8479L143.2487 614.8479L143.2487 614.8479L143.2487 614.0977L143.2487 614.0977L140.9978 614.0977M137.2585 614.8479L139.5094 614.8479L139.5094 614.8479L139.5094 614.0977L139.5094 614.0977L137.2585 614.0977M133.5192 614.8479L135.7702 614.8479L135.7702 614.8479L135.7702 614.0977L135.7702 614.0977L133.5192 614.0977M129.7799 614.8479L132.0309 614.8479L132.0309 614.8479L132.0309 614.0977L132.0309 614.0977L129.7799 614.0977M126.0407 614.8479L128.2916 614.8479L128.2916 614.8479L128.2916 614.0977L128.2916 614.0977L126.0407 614.0977M122.3014 614.8479L124.5523 614.8479L124.5523 614.8479L124.5523 614.0977L124.5523 614.0977L122.3014 614.0977" stroke="none" fill="#C3C4C3" fill-rule="winding" /></g><g clip-path="url(#6)"><path transform="matrix(1 0 0 -1 0 841)" d="M107.2951 852.698L108.0454 852.698L108.0454 852.698L108.0454 -19.16846L108.0454 -19.16846L107.2951 -19.16846z" stroke="none" fill="#B5B6B5" fill-rule="winding" /><g transform="matrix(0.7503152 0 0 0.7503152 359.401 600.5591)"><g transform="matrix(1 0 0 1 0 0)"><image x="0" y="0" xlink:href="img_13.png" width="257" height="239" /></g></g><g transform="matrix(0.7503152 0 0 0.7503152 122.3014 353.7056)"><g transform="matrix(1 0 0 1 0 0)"><image x="0" y="0" xlink:href="img_14.png" width="198" height="152" /></g></g></g></g></g></g></svg>