<svg xmlns="http://www.w3.org/2000/svg" xmlns:xlink="http://www.w3.org/1999/xlink" id="body_16" preserveAspectRatio="xMinYMin meet" viewBox="0 0 792 1121"><defs><clipPath id="1"><path d="M0 841L0 -0.9199829L0 -0.9199829L594.96 -0.9199829L594.96 -0.9199829L594.96 841L594.96 841L0 841z" /></clipPath><clipPath id="2"><path d="M0 -0.9199829L595.2 -0.9199829L595.2 -0.9199829L595.2 841.24L595.2 841.24L0 841.24z" /></clipPath><clipPath id="3"><path d="M0 55.07971L594.9999 55.07971L594.9999 55.07971L594.9999 790.3881L594.9999 790.3881L0 790.3881z" /></clipPath><clipPath id="4"><path d="M19.5082 122.6078L98.29129 122.6078L98.29129 122.6078L98.29129 123.3578L98.29129 123.3578L19.5082 123.3578z" /></clipPath><clipPath id="5"><path d="M122.3014 737.1156L580.744 737.1156L580.744 737.1156L580.744 737.8666L580.744 737.8666L122.3014 737.8666z" /></clipPath><clipPath id="6"><path d="M0 55.07971L594.9999 55.07971L594.9999 55.07971L594.9999 790.3881L594.9999 790.3881L0 790.3881z" /></clipPath></defs><g transform="matrix(1.333333 0 0 1.333333 0 0)"><g><g clip-path="url(#1)"><g clip-path="url(#2)"><path transform="matrix(1 0 0 -1 0 841)" d="M0 841.92L792.9999 841.92L792.9999 841.92L792.9999 -280.0799L792.9999 -280.0799L0 -280.0799z" stroke="none" fill="#FFFFFF" fill-rule="winding" /><path transform="matrix(1 0 0 -1 0 841)" d="M0 796.92L594.9999 796.92L594.9999 796.92L594.9999 795.92L594.9999 795.92L0 795.92z" stroke="none" fill="#B7B5B5" fill-rule="winding" /><g transform="matrix(0.1840659 0 0 0.1886792 510 12.08002)"><g transform="matrix(1 0 0 1 0 0)"><image x="0" y="0" xlink:href="img_01.png" width="364" height="106" /></g></g></g><g clip-path="url(#3)"><path transform="matrix(1 0 0 -1 0 841)" d="M0 11815.55L594.9999 11815.55L594.9999 11815.55L594.9999 -8410.694L594.9999 -8410.694L0 -8410.694z" stroke="none" fill="#FFFFFF" fill-rule="winding" /></g><g clip-path="url(#4)"><path transform="matrix(1 0 0 -1 0 841)" d="M96.04034 718.3916L98.29129 718.3916L98.29129 718.3916L98.29129 717.6406L98.29129 717.6406L96.04034 717.6406M92.21374 718.3916L94.46468 718.3916L94.46468 718.3916L94.46468 717.6406L94.46468 717.6406L92.21374 717.6406M88.38712 718.3916L90.63807 718.3916L90.63807 718.3916L90.63807 717.6406L90.63807 717.6406L88.38712 717.6406M84.56052 718.3916L86.81146 718.3916L86.81146 718.3916L86.81146 717.6406L86.81146 717.6406L84.56052 717.6406M80.73391 718.3916L82.98486 718.3916L82.98486 718.3916L82.98486 717.6406L82.98486 717.6406L80.73391 717.6406M76.90731 718.3916L79.15825 718.3916L79.15825 718.3916L79.15825 717.6406L79.15825 717.6406L76.90731 717.6406M73.0807 718.3916L75.33165 718.3916L75.33165 718.3916L75.33165 717.6406L75.33165 717.6406L73.0807 717.6406M69.25409 718.3916L71.50504 718.3916L71.50504 718.3916L71.50504 717.6406L71.50504 717.6406L69.25409 717.6406M65.42748 718.3916L67.67843 718.3916L67.67843 718.3916L67.67843 717.6406L67.67843 717.6406L65.42748 717.6406M61.60088 718.3916L63.85182 718.3916L63.85182 718.3916L63.85182 717.6406L63.85182 717.6406L61.60088 717.6406M57.77427 718.3916L60.02522 718.3916L60.02522 718.3916L60.02522 717.6406L60.02522 717.6406L57.77427 717.6406M53.94766 718.3916L56.1986 718.3916L56.1986 718.3916L56.1986 717.6406L56.1986 717.6406L53.94766 717.6406M50.12106 718.3916L52.372 718.3916L52.372 718.3916L52.372 717.6406L52.372 717.6406L50.12106 717.6406M46.29445 718.3916L48.54539 718.3916L48.54539 718.3916L48.54539 717.6406L48.54539 717.6406L46.29445 717.6406M42.46784 718.3916L44.71878 718.3916L44.71878 718.3916L44.71878 717.6406L44.71878 717.6406L42.46784 717.6406M38.64123 718.3916L40.89218 718.3916L40.89218 718.3916L40.89218 717.6406L40.89218 717.6406L38.64123 717.6406M34.81462 718.3916L37.06557 718.3916L37.06557 718.3916L37.06557 717.6406L37.06557 717.6406L34.81462 717.6406M30.98802 718.3916L33.23896 718.3916L33.23896 718.3916L33.23896 717.6406L33.23896 717.6406L30.98802 717.6406M27.16141 718.3916L29.41236 718.3916L29.41236 718.3916L29.41236 717.6406L29.41236 717.6406L27.16141 717.6406M23.3348 718.3916L25.58575 718.3916L25.58575 718.3916L25.58575 717.6406L25.58575 717.6406L23.3348 717.6406M19.50819 718.3916L21.75914 718.3916L21.75914 718.3916L21.75914 717.6406L21.75914 717.6406L19.50819 717.6406" stroke="none" fill="#B5B6B5" fill-rule="winding" /></g><g clip-path="url(#5)"><path transform="matrix(1 0 0 -1 0 841)" d="M578.493 103.8828L580.744 103.8828L580.744 103.8828L580.744 103.1328L580.744 103.1328L578.493 103.1328M574.7538 103.8828L577.0047 103.8828L577.0047 103.8828L577.0047 103.1328L577.0047 103.1328L574.7538 103.1328M571.0145 103.8828L573.2654 103.8828L573.2654 103.8828L573.2654 103.1328L573.2654 103.1328L571.0145 103.1328M567.2752 103.8828L569.5261 103.8828L569.5261 103.8828L569.5261 103.1328L569.5261 103.1328L567.2752 103.1328M563.5359 103.8828L565.7869 103.8828L565.7869 103.8828L565.7869 103.1328L565.7869 103.1328L563.5359 103.1328M559.7966 103.8828L562.0476 103.8828L562.0476 103.8828L562.0476 103.1328L562.0476 103.1328L559.7966 103.1328M556.0574 103.8828L558.3083 103.8828L558.3083 103.8828L558.3083 103.1328L558.3083 103.1328L556.0574 103.1328M552.3181 103.8828L554.569 103.8828L554.569 103.8828L554.569 103.1328L554.569 103.1328L552.3181 103.1328M548.5788 103.8828L550.8298 103.8828L550.8298 103.8828L550.8298 103.1328L550.8298 103.1328L548.5788 103.1328M544.8395 103.8828L547.0905 103.8828L547.0905 103.8828L547.0905 103.1328L547.0905 103.1328L544.8395 103.1328M541.1003 103.8828L543.3512 103.8828L543.3512 103.8828L543.3512 103.1328L543.3512 103.1328L541.1003 103.1328M537.361 103.8828L539.6119 103.8828L539.6119 103.8828L539.6119 103.1328L539.6119 103.1328L537.361 103.1328M533.6217 103.8828L535.8726 103.8828L535.8726 103.8828L535.8726 103.1328L535.8726 103.1328L533.6217 103.1328M529.8824 103.8828L532.1334 103.8828L532.1334 103.8828L532.1334 103.1328L532.1334 103.1328L529.8824 103.1328M526.1431 103.8828L528.3941 103.8828L528.3941 103.8828L528.3941 103.1328L528.3941 103.1328L526.1431 103.1328M522.4039 103.8828L524.6548 103.8828L524.6548 103.8828L524.6548 103.1328L524.6548 103.1328L522.4039 103.1328M518.6646 103.8828L520.9155 103.8828L520.9155 103.8828L520.9155 103.1328L520.9155 103.1328L518.6646 103.1328M514.9253 103.8828L517.1763 103.8828L517.1763 103.8828L517.1763 103.1328L517.1763 103.1328L514.9253 103.1328M511.1861 103.8828L513.437 103.8828L513.437 103.8828L513.437 103.1328L513.437 103.1328L511.1861 103.1328M507.4468 103.8828L509.6977 103.8828L509.6977 103.8828L509.6977 103.1328L509.6977 103.1328L507.4468 103.1328M503.7075 103.8828L505.9585 103.8828L505.9585 103.8828L505.9585 103.1328L505.9585 103.1328L503.7075 103.1328M499.9682 103.8828L502.2191 103.8828L502.2191 103.8828L502.2191 103.1328L502.2191 103.1328L499.9682 103.1328M496.2289 103.8828L498.4799 103.8828L498.4799 103.8828L498.4799 103.1328L498.4799 103.1328L496.2289 103.1328M492.4897 103.8828L494.7406 103.8828L494.7406 103.8828L494.7406 103.1328L494.7406 103.1328L492.4897 103.1328M488.7504 103.8828L491.0013 103.8828L491.0013 103.8828L491.0013 103.1328L491.0013 103.1328L488.7504 103.1328M485.0111 103.8828L487.2621 103.8828L487.2621 103.8828L487.2621 103.1328L487.2621 103.1328L485.0111 103.1328M481.2719 103.8828L483.5228 103.8828L483.5228 103.8828L483.5228 103.1328L483.5228 103.1328L481.2719 103.1328M477.5326 103.8828L479.7835 103.8828L479.7835 103.8828L479.7835 103.1328L479.7835 103.1328L477.5326 103.1328M473.7933 103.8828L476.0442 103.8828L476.0442 103.8828L476.0442 103.1328L476.0442 103.1328L473.7933 103.1328M470.054 103.8828L472.305 103.8828L472.305 103.8828L472.305 103.1328L472.305 103.1328L470.054 103.1328M466.3148 103.8828L468.5657 103.8828L468.5657 103.8828L468.5657 103.1328L468.5657 103.1328L466.3148 103.1328M462.5754 103.8828L464.8264 103.8828L464.8264 103.8828L464.8264 103.1328L464.8264 103.1328L462.5754 103.1328M458.8362 103.8828L461.0871 103.8828L461.0871 103.8828L461.0871 103.1328L461.0871 103.1328L458.8362 103.1328M455.0969 103.8828L457.3479 103.8828L457.3479 103.8828L457.3479 103.1328L457.3479 103.1328L455.0969 103.1328M451.3576 103.8828L453.6086 103.8828L453.6086 103.8828L453.6086 103.1328L453.6086 103.1328L451.3576 103.1328M447.6183 103.8828L449.8693 103.8828L449.8693 103.8828L449.8693 103.1328L449.8693 103.1328L447.6183 103.1328M443.8791 103.8828L446.1301 103.8828L446.1301 103.8828L446.1301 103.1328L446.1301 103.1328L443.8791 103.1328M440.1398 103.8828L442.3908 103.8828L442.3908 103.8828L442.3908 103.1328L442.3908 103.1328L440.1398 103.1328M436.4005 103.8828L438.6515 103.8828L438.6515 103.8828L438.6515 103.1328L438.6515 103.1328L436.4005 103.1328M432.6613 103.8828L434.9122 103.8828L434.9122 103.8828L434.9122 103.1328L434.9122 103.1328L432.6613 103.1328M428.922 103.8828L431.1729 103.8828L431.1729 103.8828L431.1729 103.1328L431.1729 103.1328L428.922 103.1328M425.1827 103.8828L427.4337 103.8828L427.4337 103.8828L427.4337 103.1328L427.4337 103.1328L425.1827 103.1328M421.4435 103.8828L423.6944 103.8828L423.6944 103.8828L423.6944 103.1328L423.6944 103.1328L421.4435 103.1328M417.7042 103.8828L419.9551 103.8828L419.9551 103.8828L419.9551 103.1328L419.9551 103.1328L417.7042 103.1328M413.9649 103.8828L416.2158 103.8828L416.2158 103.8828L416.2158 103.1328L416.2158 103.1328L413.9649 103.1328M410.2256 103.8828L412.4765 103.8828L412.4765 103.8828L412.4765 103.1328L412.4765 103.1328L410.2256 103.1328M406.4863 103.8828L408.7373 103.8828L408.7373 103.8828L408.7373 103.1328L408.7373 103.1328L406.4863 103.1328M402.7471 103.8828L404.998 103.8828L404.998 103.8828L404.998 103.1328L404.998 103.1328L402.7471 103.1328M399.0078 103.8828L401.2587 103.8828L401.2587 103.8828L401.2587 103.1328L401.2587 103.1328L399.0078 103.1328M395.2685 103.8828L397.5194 103.8828L397.5194 103.8828L397.5194 103.1328L397.5194 103.1328L395.2685 103.1328M391.5292 103.8828L393.7802 103.8828L393.7802 103.8828L393.7802 103.1328L393.7802 103.1328L391.5292 103.1328M387.7899 103.8828L390.0409 103.8828L390.0409 103.8828L390.0409 103.1328L390.0409 103.1328L387.7899 103.1328M384.0507 103.8828L386.3016 103.8828L386.3016 103.8828L386.3016 103.1328L386.3016 103.1328L384.0507 103.1328M380.3114 103.8828L382.5623 103.8828L382.5623 103.8828L382.5623 103.1328L382.5623 103.1328L380.3114 103.1328M376.5721 103.8828L378.8231 103.8828L378.8231 103.8828L378.8231 103.1328L378.8231 103.1328L376.5721 103.1328M372.8329 103.8828L375.0838 103.8828L375.0838 103.8828L375.0838 103.1328L375.0838 103.1328L372.8329 103.1328M369.0936 103.8828L371.3445 103.8828L371.3445 103.8828L371.3445 103.1328L371.3445 103.1328L369.0936 103.1328M365.3543 103.8828L367.6052 103.8828L367.6052 103.8828L367.6052 103.1328L367.6052 103.1328L365.3543 103.1328M361.615 103.8828L363.866 103.8828L363.866 103.8828L363.866 103.1328L363.866 103.1328L361.615 103.1328M357.8758 103.8828L360.1267 103.8828L360.1267 103.8828L360.1267 103.1328L360.1267 103.1328L357.8758 103.1328M354.1365 103.8828L356.3874 103.8828L356.3874 103.8828L356.3874 103.1328L356.3874 103.1328L354.1365 103.1328M350.3972 103.8828L352.6481 103.8828L352.6481 103.8828L352.6481 103.1328L352.6481 103.1328L350.3972 103.1328M346.6579 103.8828L348.9088 103.8828L348.9088 103.8828L348.9088 103.1328L348.9088 103.1328L346.6579 103.1328M342.9186 103.8828L345.1696 103.8828L345.1696 103.8828L345.1696 103.1328L345.1696 103.1328L342.9186 103.1328M339.1794 103.8828L341.4303 103.8828L341.4303 103.8828L341.4303 103.1328L341.4303 103.1328L339.1794 103.1328M335.4401 103.8828L337.691 103.8828L337.691 103.8828L337.691 103.1328L337.691 103.1328L335.4401 103.1328M331.7008 103.8828L333.9518 103.8828L333.9518 103.8828L333.9518 103.1328L333.9518 103.1328L331.7008 103.1328M327.9615 103.8828L330.2125 103.8828L330.2125 103.8828L330.2125 103.1328L330.2125 103.1328L327.9615 103.1328M324.2223 103.8828L326.4732 103.8828L326.4732 103.8828L326.4732 103.1328L326.4732 103.1328L324.2223 103.1328M320.483 103.8828L322.7339 103.8828L322.7339 103.8828L322.7339 103.1328L322.7339 103.1328L320.483 103.1328M316.7437 103.8828L318.9947 103.8828L318.9947 103.8828L318.9947 103.1328L318.9947 103.1328L316.7437 103.1328M313.0045 103.8828L315.2554 103.8828L315.2554 103.8828L315.2554 103.1328L315.2554 103.1328L313.0045 103.1328M309.2652 103.8828L311.5161 103.8828L311.5161 103.8828L311.5161 103.1328L311.5161 103.1328L309.2652 103.1328M305.5259 103.8828L307.7768 103.8828L307.7768 103.8828L307.7768 103.1328L307.7768 103.1328L305.5259 103.1328M301.7866 103.8828L304.0376 103.8828L304.0376 103.8828L304.0376 103.1328L304.0376 103.1328L301.7866 103.1328M298.0473 103.8828L300.2983 103.8828L300.2983 103.8828L300.2983 103.1328L300.2983 103.1328L298.0473 103.1328M294.3081 103.8828L296.559 103.8828L296.559 103.8828L296.559 103.1328L296.559 103.1328L294.3081 103.1328M290.5688 103.8828L292.8197 103.8828L292.8197 103.8828L292.8197 103.1328L292.8197 103.1328L290.5688 103.1328M286.8295 103.8828L289.0804 103.8828L289.0804 103.8828L289.0804 103.1328L289.0804 103.1328L286.8295 103.1328M283.0902 103.8828L285.3412 103.8828L285.3412 103.8828L285.3412 103.1328L285.3412 103.1328L283.0902 103.1328M279.351 103.8828L281.6019 103.8828L281.6019 103.8828L281.6019 103.1328L281.6019 103.1328L279.351 103.1328M275.6117 103.8828L277.8626 103.8828L277.8626 103.8828L277.8626 103.1328L277.8626 103.1328L275.6117 103.1328M271.8724 103.8828L274.1234 103.8828L274.1234 103.8828L274.1234 103.1328L274.1234 103.1328L271.8724 103.1328M268.1331 103.8828L270.3841 103.8828L270.3841 103.8828L270.3841 103.1328L270.3841 103.1328L268.1331 103.1328M264.3939 103.8828L266.6448 103.8828L266.6448 103.8828L266.6448 103.1328L266.6448 103.1328L264.3939 103.1328M260.6546 103.8828L262.9055 103.8828L262.9055 103.8828L262.9055 103.1328L262.9055 103.1328L260.6546 103.1328M256.9153 103.8828L259.1663 103.8828L259.1663 103.8828L259.1663 103.1328L259.1663 103.1328L256.9153 103.1328M253.176 103.8828L255.427 103.8828L255.427 103.8828L255.427 103.1328L255.427 103.1328L253.176 103.1328M249.4368 103.8828L251.6877 103.8828L251.6877 103.8828L251.6877 103.1328L251.6877 103.1328L249.4368 103.1328M245.6975 103.8828L247.9484 103.8828L247.9484 103.8828L247.9484 103.1328L247.9484 103.1328L245.6975 103.1328M241.9582 103.8828L244.2091 103.8828L244.2091 103.8828L244.2091 103.1328L244.2091 103.1328L241.9582 103.1328M238.2189 103.8828L240.4699 103.8828L240.4699 103.8828L240.4699 103.1328L240.4699 103.1328L238.2189 103.1328M234.4796 103.8828L236.7306 103.8828L236.7306 103.8828L236.7306 103.1328L236.7306 103.1328L234.4796 103.1328M230.7404 103.8828L232.9913 103.8828L232.9913 103.8828L232.9913 103.1328L232.9913 103.1328L230.7404 103.1328M227.0011 103.8828L229.252 103.8828L229.252 103.8828L229.252 103.1328L229.252 103.1328L227.0011 103.1328M223.2618 103.8828L225.5128 103.8828L225.5128 103.8828L225.5128 103.1328L225.5128 103.1328L223.2618 103.1328M219.5226 103.8828L221.7735 103.8828L221.7735 103.8828L221.7735 103.1328L221.7735 103.1328L219.5226 103.1328M215.7833 103.8828L218.0342 103.8828L218.0342 103.8828L218.0342 103.1328L218.0342 103.1328L215.7833 103.1328M212.044 103.8828L214.295 103.8828L214.295 103.8828L214.295 103.1328L214.295 103.1328L212.044 103.1328M208.3047 103.8828L210.5557 103.8828L210.5557 103.8828L210.5557 103.1328L210.5557 103.1328L208.3047 103.1328M204.5654 103.8828L206.8164 103.8828L206.8164 103.8828L206.8164 103.1328L206.8164 103.1328L204.5654 103.1328M200.8262 103.8828L203.0771 103.8828L203.0771 103.8828L203.0771 103.1328L203.0771 103.1328L200.8262 103.1328M197.0869 103.8828L199.3378 103.8828L199.3378 103.8828L199.3378 103.1328L199.3378 103.1328L197.0869 103.1328M193.3476 103.8828L195.5986 103.8828L195.5986 103.8828L195.5986 103.1328L195.5986 103.1328L193.3476 103.1328M189.6083 103.8828L191.8593 103.8828L191.8593 103.8828L191.8593 103.1328L191.8593 103.1328L189.6083 103.1328M185.8691 103.8828L188.12 103.8828L188.12 103.8828L188.12 103.1328L188.12 103.1328L185.8691 103.1328M182.1298 103.8828L184.3807 103.8828L184.3807 103.8828L184.3807 103.1328L184.3807 103.1328L182.1298 103.1328M178.3905 103.8828L180.6414 103.8828L180.6414 103.8828L180.6414 103.1328L180.6414 103.1328L178.3905 103.1328M174.6512 103.8828L176.9022 103.8828L176.9022 103.8828L176.9022 103.1328L176.9022 103.1328L174.6512 103.1328M170.912 103.8828L173.1629 103.8828L173.1629 103.8828L173.1629 103.1328L173.1629 103.1328L170.912 103.1328M167.1727 103.8828L169.4236 103.8828L169.4236 103.8828L169.4236 103.1328L169.4236 103.1328L167.1727 103.1328M163.4334 103.8828L165.6844 103.8828L165.6844 103.8828L165.6844 103.1328L165.6844 103.1328L163.4334 103.1328M159.6941 103.8828L161.9451 103.8828L161.9451 103.8828L161.9451 103.1328L161.9451 103.1328L159.6941 103.1328M155.9549 103.8828L158.2058 103.8828L158.2058 103.8828L158.2058 103.1328L158.2058 103.1328L155.9549 103.1328M152.2156 103.8828L154.4665 103.8828L154.4665 103.8828L154.4665 103.1328L154.4665 103.1328L152.2156 103.1328M148.4763 103.8828L150.7273 103.8828L150.7273 103.8828L150.7273 103.1328L150.7273 103.1328L148.4763 103.1328M144.737 103.8828L146.988 103.8828L146.988 103.8828L146.988 103.1328L146.988 103.1328L144.737 103.1328M140.9978 103.8828L143.2487 103.8828L143.2487 103.8828L143.2487 103.1328L143.2487 103.1328L140.9978 103.1328M137.2585 103.8828L139.5094 103.8828L139.5094 103.8828L139.5094 103.1328L139.5094 103.1328L137.2585 103.1328M133.5192 103.8828L135.7702 103.8828L135.7702 103.8828L135.7702 103.1328L135.7702 103.1328L133.5192 103.1328M129.7799 103.8828L132.0309 103.8828L132.0309 103.8828L132.0309 103.1328L132.0309 103.1328L129.7799 103.1328M126.0407 103.8828L128.2916 103.8828L128.2916 103.8828L128.2916 103.1328L128.2916 103.1328L126.0407 103.1328M122.3014 103.8828L124.5523 103.8828L124.5523 103.8828L124.5523 103.1328L124.5523 103.1328L122.3014 103.1328" stroke="none" fill="#C3C4C3" fill-rule="winding" /></g><g clip-path="url(#6)"><path transform="matrix(1 0 0 -1 0 841)" d="M107.2951 897.7168L108.0454 897.7168L108.0454 897.7168L108.0454 -180.4863L108.0454 -180.4863L107.2951 -180.4863z" stroke="none" fill="#B5B6B5" fill-rule="winding" /><g transform="matrix(0.3932573 0 0 0.4360239 122.3014 55.07971)"><g transform="matrix(1 0 0 1 0 0)"><image x="0" y="0" xlink:href="img_47.png" width="912" height="339" /></g></g><g transform="matrix(0.3380845 0 0 0.345145 122.3014 415.2307)"><g transform="matrix(1 0 0 1 0 0)"><image x="0" y="0" xlink:href="img_55.png" width="1356" height="50" /></g></g><g transform="matrix(0.3380845 0 0 0.3301387 122.3014 432.4882)"><g transform="matrix(1 0 0 1 0 0)"><image x="0" y="0" xlink:href="img_56.png" width="1356" height="50" /></g></g><g transform="matrix(0.3380845 0 0 0.345145 122.3014 448.9947)"><g transform="matrix(1 0 0 1 0 0)"><image x="0" y="0" xlink:href="img_57.png" width="1356" height="50" /></g></g><g transform="matrix(0.3380845 0 0 0.3301387 122.3014 466.2522)"><g transform="matrix(1 0 0 1 0 0)"><image x="0" y="0" xlink:href="img_58.png" width="1356" height="50" /></g></g><g transform="matrix(0.3380845 0 0 0.345145 122.3014 482.7588)"><g transform="matrix(1 0 0 1 0 0)"><image x="0" y="0" xlink:href="img_59.png" width="1356" height="50" /></g></g><g transform="matrix(0.3380845 0 0 0.3301387 122.3014 500.0163)"><g transform="matrix(1 0 0 1 0 0)"><image x="0" y="0" xlink:href="img_60.png" width="1356" height="50" /></g></g><g transform="matrix(0.3380845 0 0 0.345145 122.3014 516.5238)"><g transform="matrix(1 0 0 1 0 0)"><image x="0" y="0" xlink:href="img_61.png" width="1356" height="50" /></g></g><g transform="matrix(0.3380845 0 0 0.3301387 122.3014 533.7803)"><g transform="matrix(1 0 0 1 0 0)"><image x="0" y="0" xlink:href="img_62.png" width="1356" height="50" /></g></g><g transform="matrix(0.3380845 0 0 0.345145 122.3014 550.2878)"><g transform="matrix(1 0 0 1 0 0)"><image x="0" y="0" xlink:href="img_63.png" width="1356" height="50" /></g></g><g transform="matrix(0.3380845 0 0 0.3301387 122.3014 567.5444)"><g transform="matrix(1 0 0 1 0 0)"><image x="0" y="0" xlink:href="img_64.png" width="1356" height="50" /></g></g><g transform="matrix(0.3380845 0 0 0.345145 122.3014 584.0519)"><g transform="matrix(1 0 0 1 0 0)"><image x="0" y="0" xlink:href="img_65.png" width="1356" height="50" /></g></g><g transform="matrix(0.3380845 0 0 0.3301387 122.3014 601.3093)"><g transform="matrix(1 0 0 1 0 0)"><image x="0" y="0" xlink:href="img_66.png" width="1356" height="50" /></g></g><g transform="matrix(0.3380845 0 0 0.345145 122.3014 617.816)"><g transform="matrix(1 0 0 1 0 0)"><image x="0" y="0" xlink:href="img_67.png" width="1356" height="50" /></g></g><g transform="matrix(0.3380845 0 0 0.3301387 122.3014 635.0734)"><g transform="matrix(1 0 0 1 0 0)"><image x="0" y="0" xlink:href="img_68.png" width="1356" height="50" /></g></g><g transform="matrix(0.3380845 0 0 0.345145 122.3014 651.58)"><g transform="matrix(1 0 0 1 0 0)"><image x="0" y="0" xlink:href="img_69.png" width="1356" height="50" /></g></g><g transform="matrix(0.3380845 0 0 0.3301387 122.3014 668.8375)"><g transform="matrix(1 0 0 1 0 0)"><image x="0" y="0" xlink:href="img_70.png" width="1356" height="50" /></g></g><g transform="matrix(0.3380845 0 0 0.345145 122.3014 685.3441)"><g transform="matrix(1 0 0 1 0 0)"><image x="0" y="0" xlink:href="img_71.png" width="1356" height="50" /></g></g><g transform="matrix(0.3380845 0 0 0.3301387 122.3014 702.6016)"><g transform="matrix(1 0 0 1 0 0)"><image x="0" y="0" xlink:href="img_72.png" width="1356" height="50" /></g></g><g transform="matrix(0.3380845 0 0 0.3601512 122.3014 719.1082)"><g transform="matrix(1 0 0 1 0 0)"><image x="0" y="0" xlink:href="img_73.png" width="1356" height="25" /></g></g></g></g></g></g></svg>