<svg xmlns="http://www.w3.org/2000/svg" xmlns:xlink="http://www.w3.org/1999/xlink" id="body_9" preserveAspectRatio="xMinYMin meet" viewBox="0 0 792 1121"><defs><clipPath id="1"><path d="M0 841L0 -0.9199829L0 -0.9199829L594.96 -0.9199829L594.96 -0.9199829L594.96 841L594.96 841L0 841z" /></clipPath><clipPath id="2"><path d="M0 -0.9199829L595.2 -0.9199829L595.2 -0.9199829L595.2 841.24L595.2 841.24L0 841.24z" /></clipPath><clipPath id="3"><path d="M0 55.0802L594.9999 55.0802L594.9999 55.0802L594.9999 790.389L594.9999 790.389L0 790.389z" /></clipPath><clipPath id="4"><path d="M14.25599 750.6227L473.4489 750.6227L473.4489 750.6227L473.4489 751.3727L473.4489 751.3727L14.25599 751.3727z" /></clipPath><clipPath id="5"><path d="M493.7074 535.2822L571.7402 535.2822L571.7402 535.2822L571.7402 536.0322L571.7402 536.0322L493.7074 536.0322z" /></clipPath><clipPath id="6"><path d="M0 55.0802L594.9999 55.0802L594.9999 55.0802L594.9999 790.389L594.9999 790.389L0 790.389z" /></clipPath><clipPath id="7"><path d="M493.7074 595.307L571.7402 595.307L571.7402 595.307L571.7402 596.0575L571.7402 596.0575L493.7074 596.0575z" /></clipPath><clipPath id="8"><path d="M0 55.0802L594.9999 55.0802L594.9999 55.0802L594.9999 790.389L594.9999 790.389L0 790.389z" /></clipPath></defs><g transform="matrix(1.333333 0 0 1.333333 0 0)"><g><g clip-path="url(#1)"><g clip-path="url(#2)"><path transform="matrix(1 0 0 -1 0 841)" d="M0 841.92L792.9999 841.92L792.9999 841.92L792.9999 -280.0799L792.9999 -280.0799L0 -280.0799z" stroke="none" fill="#FFFFFF" fill-rule="winding" /><path transform="matrix(1 0 0 -1 0 841)" d="M0 796.92L594.9999 796.92L594.9999 796.92L594.9999 795.92L594.9999 795.92L0 795.92z" stroke="none" fill="#B7B5B5" fill-rule="winding" /><g transform="matrix(0.1840659 0 0 0.1886792 510 12.08002)"><g transform="matrix(1 0 0 1 0 0)"><image x="0" y="0" xlink:href="img_01.png" width="364" height="106" /></g></g></g><g clip-path="url(#3)"><path transform="matrix(1 0 0 -1 0 841)" d="M0 6668.391L594.9999 6668.391L594.9999 6668.391L594.9999 -12822.55L594.9999 -12822.55L0 -12822.55z" stroke="none" fill="#FFFFFF" fill-rule="winding" /><path transform="matrix(1 0 0 -1 0 841)" d="M487.7049 1570.749L488.4552 1570.749L488.4552 1570.749L488.4552 366.4927L488.4552 366.4927L487.7049 366.4927z" stroke="none" fill="#B5B6B5" fill-rule="winding" /></g><g clip-path="url(#4)"><path transform="matrix(1 0 0 -1 0 841)" d="M471.1979 90.37695L473.4489 90.37695L473.4489 90.37695L473.4489 89.62646L473.4489 89.62646L471.1979 89.62646M467.4525 90.37695L469.7034 90.37695L469.7034 90.37695L469.7034 89.62646L469.7034 89.62646L467.4525 89.62646M463.7071 90.37695L465.958 90.37695L465.958 90.37695L465.958 89.62646L465.958 89.62646L463.7071 89.62646M459.9617 90.37695L462.2126 90.37695L462.2126 90.37695L462.2126 89.62646L462.2126 89.62646L459.9617 89.62646M456.2162 90.37695L458.4672 90.37695L458.4672 90.37695L458.4672 89.62646L458.4672 89.62646L456.2162 89.62646M452.4708 90.37695L454.7217 90.37695L454.7217 90.37695L454.7217 89.62646L454.7217 89.62646L452.4708 89.62646M448.7254 90.37695L450.9763 90.37695L450.9763 90.37695L450.9763 89.62646L450.9763 89.62646L448.7254 89.62646M444.9799 90.37695L447.2309 90.37695L447.2309 90.37695L447.2309 89.62646L447.2309 89.62646L444.9799 89.62646M441.2345 90.37695L443.4855 90.37695L443.4855 90.37695L443.4855 89.62646L443.4855 89.62646L441.2345 89.62646M437.4891 90.37695L439.7401 90.37695L439.7401 90.37695L439.7401 89.62646L439.7401 89.62646L437.4891 89.62646M433.7437 90.37695L435.9946 90.37695L435.9946 90.37695L435.9946 89.62646L435.9946 89.62646L433.7437 89.62646M429.9982 90.37695L432.2492 90.37695L432.2492 90.37695L432.2492 89.62646L432.2492 89.62646L429.9982 89.62646M426.2528 90.37695L428.5038 90.37695L428.5038 90.37695L428.5038 89.62646L428.5038 89.62646L426.2528 89.62646M422.5074 90.37695L424.7584 90.37695L424.7584 90.37695L424.7584 89.62646L424.7584 89.62646L422.5074 89.62646M418.762 90.37695L421.0129 90.37695L421.0129 90.37695L421.0129 89.62646L421.0129 89.62646L418.762 89.62646M415.0165 90.37695L417.2675 90.37695L417.2675 90.37695L417.2675 89.62646L417.2675 89.62646L415.0165 89.62646M411.2711 90.37695L413.5221 90.37695L413.5221 90.37695L413.5221 89.62646L413.5221 89.62646L411.2711 89.62646M407.5257 90.37695L409.7766 90.37695L409.7766 90.37695L409.7766 89.62646L409.7766 89.62646L407.5257 89.62646M403.7803 90.37695L406.0312 90.37695L406.0312 90.37695L406.0312 89.62646L406.0312 89.62646L403.7803 89.62646M400.0349 90.37695L402.2858 90.37695L402.2858 90.37695L402.2858 89.62646L402.2858 89.62646L400.0349 89.62646M396.2894 90.37695L398.5404 90.37695L398.5404 90.37695L398.5404 89.62646L398.5404 89.62646L396.2894 89.62646M392.544 90.37695L394.7949 90.37695L394.7949 90.37695L394.7949 89.62646L394.7949 89.62646L392.544 89.62646M388.7986 90.37695L391.0495 90.37695L391.0495 90.37695L391.0495 89.62646L391.0495 89.62646L388.7986 89.62646M385.0532 90.37695L387.3041 90.37695L387.3041 90.37695L387.3041 89.62646L387.3041 89.62646L385.0532 89.62646M381.3077 90.37695L383.5587 90.37695L383.5587 90.37695L383.5587 89.62646L383.5587 89.62646L381.3077 89.62646M377.5623 90.37695L379.8132 90.37695L379.8132 90.37695L379.8132 89.62646L379.8132 89.62646L377.5623 89.62646M373.8169 90.37695L376.0678 90.37695L376.0678 90.37695L376.0678 89.62646L376.0678 89.62646L373.8169 89.62646M370.0714 90.37695L372.3224 90.37695L372.3224 90.37695L372.3224 89.62646L372.3224 89.62646L370.0714 89.62646M366.326 90.37695L368.577 90.37695L368.577 90.37695L368.577 89.62646L368.577 89.62646L366.326 89.62646M362.5806 90.37695L364.8315 90.37695L364.8315 90.37695L364.8315 89.62646L364.8315 89.62646L362.5806 89.62646M358.8352 90.37695L361.0861 90.37695L361.0861 90.37695L361.0861 89.62646L361.0861 89.62646L358.8352 89.62646M355.0897 90.37695L357.3407 90.37695L357.3407 90.37695L357.3407 89.62646L357.3407 89.62646L355.0897 89.62646M351.3443 90.37695L353.5953 90.37695L353.5953 90.37695L353.5953 89.62646L353.5953 89.62646L351.3443 89.62646M347.5989 90.37695L349.8499 90.37695L349.8499 90.37695L349.8499 89.62646L349.8499 89.62646L347.5989 89.62646M343.8535 90.37695L346.1044 90.37695L346.1044 90.37695L346.1044 89.62646L346.1044 89.62646L343.8535 89.62646M340.108 90.37695L342.359 90.37695L342.359 90.37695L342.359 89.62646L342.359 89.62646L340.108 89.62646M336.3626 90.37695L338.6136 90.37695L338.6136 90.37695L338.6136 89.62646L338.6136 89.62646L336.3626 89.62646M332.6172 90.37695L334.8681 90.37695L334.8681 90.37695L334.8681 89.62646L334.8681 89.62646L332.6172 89.62646M328.8717 90.37695L331.1227 90.37695L331.1227 90.37695L331.1227 89.62646L331.1227 89.62646L328.8717 89.62646M325.1263 90.37695L327.3773 90.37695L327.3773 90.37695L327.3773 89.62646L327.3773 89.62646L325.1263 89.62646M321.3809 90.37695L323.6319 90.37695L323.6319 90.37695L323.6319 89.62646L323.6319 89.62646L321.3809 89.62646M317.6355 90.37695L319.8864 90.37695L319.8864 90.37695L319.8864 89.62646L319.8864 89.62646L317.6355 89.62646M313.89 90.37695L316.141 90.37695L316.141 90.37695L316.141 89.62646L316.141 89.62646L313.89 89.62646M310.1446 90.37695L312.3956 90.37695L312.3956 90.37695L312.3956 89.62646L312.3956 89.62646L310.1446 89.62646M306.3992 90.37695L308.6501 90.37695L308.6501 90.37695L308.6501 89.62646L308.6501 89.62646L306.3992 89.62646M302.6538 90.37695L304.9047 90.37695L304.9047 90.37695L304.9047 89.62646L304.9047 89.62646L302.6538 89.62646M298.9084 90.37695L301.1593 90.37695L301.1593 90.37695L301.1593 89.62646L301.1593 89.62646L298.9084 89.62646M295.1629 90.37695L297.4139 90.37695L297.4139 90.37695L297.4139 89.62646L297.4139 89.62646L295.1629 89.62646M291.4175 90.37695L293.6684 90.37695L293.6684 90.37695L293.6684 89.62646L293.6684 89.62646L291.4175 89.62646M287.6721 90.37695L289.923 90.37695L289.923 90.37695L289.923 89.62646L289.923 89.62646L287.6721 89.62646M283.9267 90.37695L286.1776 90.37695L286.1776 90.37695L286.1776 89.62646L286.1776 89.62646L283.9267 89.62646M280.1812 90.37695L282.4322 90.37695L282.4322 90.37695L282.4322 89.62646L282.4322 89.62646L280.1812 89.62646M276.4358 90.37695L278.6867 90.37695L278.6867 90.37695L278.6867 89.62646L278.6867 89.62646L276.4358 89.62646M272.6904 90.37695L274.9413 90.37695L274.9413 90.37695L274.9413 89.62646L274.9413 89.62646L272.6904 89.62646M268.9449 90.37695L271.1959 90.37695L271.1959 90.37695L271.1959 89.62646L271.1959 89.62646L268.9449 89.62646M265.1995 90.37695L267.4504 90.37695L267.4504 90.37695L267.4504 89.62646L267.4504 89.62646L265.1995 89.62646M261.4541 90.37695L263.705 90.37695L263.705 90.37695L263.705 89.62646L263.705 89.62646L261.4541 89.62646M257.7087 90.37695L259.9596 90.37695L259.9596 90.37695L259.9596 89.62646L259.9596 89.62646L257.7087 89.62646M253.9632 90.37695L256.2142 90.37695L256.2142 90.37695L256.2142 89.62646L256.2142 89.62646L253.9632 89.62646M250.2178 90.37695L252.4688 90.37695L252.4688 90.37695L252.4688 89.62646L252.4688 89.62646L250.2178 89.62646M246.4724 90.37695L248.7233 90.37695L248.7233 90.37695L248.7233 89.62646L248.7233 89.62646L246.4724 89.62646M242.727 90.37695L244.9779 90.37695L244.9779 90.37695L244.9779 89.62646L244.9779 89.62646L242.727 89.62646M238.9816 90.37695L241.2325 90.37695L241.2325 90.37695L241.2325 89.62646L241.2325 89.62646L238.9816 89.62646M235.2361 90.37695L237.4871 90.37695L237.4871 90.37695L237.4871 89.62646L237.4871 89.62646L235.2361 89.62646M231.4907 90.37695L233.7416 90.37695L233.7416 90.37695L233.7416 89.62646L233.7416 89.62646L231.4907 89.62646M227.7453 90.37695L229.9962 90.37695L229.9962 90.37695L229.9962 89.62646L229.9962 89.62646L227.7453 89.62646M223.9998 90.37695L226.2508 90.37695L226.2508 90.37695L226.2508 89.62646L226.2508 89.62646L223.9998 89.62646M220.2544 90.37695L222.5054 90.37695L222.5054 90.37695L222.5054 89.62646L222.5054 89.62646L220.2544 89.62646M216.509 90.37695L218.7599 90.37695L218.7599 90.37695L218.7599 89.62646L218.7599 89.62646L216.509 89.62646M212.7636 90.37695L215.0145 90.37695L215.0145 90.37695L215.0145 89.62646L215.0145 89.62646L212.7636 89.62646M209.0181 90.37695L211.2691 90.37695L211.2691 90.37695L211.2691 89.62646L211.2691 89.62646L209.0181 89.62646M205.2727 90.37695L207.5237 90.37695L207.5237 90.37695L207.5237 89.62646L207.5237 89.62646L205.2727 89.62646M201.5273 90.37695L203.7782 90.37695L203.7782 90.37695L203.7782 89.62646L203.7782 89.62646L201.5273 89.62646M197.7818 90.37695L200.0328 90.37695L200.0328 90.37695L200.0328 89.62646L200.0328 89.62646L197.7818 89.62646M194.0364 90.37695L196.2874 90.37695L196.2874 90.37695L196.2874 89.62646L196.2874 89.62646L194.0364 89.62646M190.291 90.37695L192.5419 90.37695L192.5419 90.37695L192.5419 89.62646L192.5419 89.62646L190.291 89.62646M186.5456 90.37695L188.7965 90.37695L188.7965 90.37695L188.7965 89.62646L188.7965 89.62646L186.5456 89.62646M182.8002 90.37695L185.0511 90.37695L185.0511 90.37695L185.0511 89.62646L185.0511 89.62646L182.8002 89.62646M179.0547 90.37695L181.3057 90.37695L181.3057 90.37695L181.3057 89.62646L181.3057 89.62646L179.0547 89.62646M175.3093 90.37695L177.5602 90.37695L177.5602 90.37695L177.5602 89.62646L177.5602 89.62646L175.3093 89.62646M171.5639 90.37695L173.8148 90.37695L173.8148 90.37695L173.8148 89.62646L173.8148 89.62646L171.5639 89.62646M167.8185 90.37695L170.0694 90.37695L170.0694 90.37695L170.0694 89.62646L170.0694 89.62646L167.8185 89.62646M164.073 90.37695L166.324 90.37695L166.324 90.37695L166.324 89.62646L166.324 89.62646L164.073 89.62646M160.3276 90.37695L162.5785 90.37695L162.5785 90.37695L162.5785 89.62646L162.5785 89.62646L160.3276 89.62646M156.5822 90.37695L158.8331 90.37695L158.8331 90.37695L158.8331 89.62646L158.8331 89.62646L156.5822 89.62646M152.8367 90.37695L155.0877 90.37695L155.0877 90.37695L155.0877 89.62646L155.0877 89.62646L152.8367 89.62646M149.0913 90.37695L151.3423 90.37695L151.3423 90.37695L151.3423 89.62646L151.3423 89.62646L149.0913 89.62646M145.3459 90.37695L147.5968 90.37695L147.5968 90.37695L147.5968 89.62646L147.5968 89.62646L145.3459 89.62646M141.6005 90.37695L143.8514 90.37695L143.8514 90.37695L143.8514 89.62646L143.8514 89.62646L141.6005 89.62646M137.855 90.37695L140.106 90.37695L140.106 90.37695L140.106 89.62646L140.106 89.62646L137.855 89.62646M134.1096 90.37695L136.3606 90.37695L136.3606 90.37695L136.3606 89.62646L136.3606 89.62646L134.1096 89.62646M130.3642 90.37695L132.6151 90.37695L132.6151 90.37695L132.6151 89.62646L132.6151 89.62646L130.3642 89.62646M126.6188 90.37695L128.8697 90.37695L128.8697 90.37695L128.8697 89.62646L128.8697 89.62646L126.6188 89.62646M122.8733 90.37695L125.1243 90.37695L125.1243 90.37695L125.1243 89.62646L125.1243 89.62646L122.8733 89.62646M119.1279 90.37695L121.3789 90.37695L121.3789 90.37695L121.3789 89.62646L121.3789 89.62646L119.1279 89.62646M115.3825 90.37695L117.6334 90.37695L117.6334 90.37695L117.6334 89.62646L117.6334 89.62646L115.3825 89.62646M111.6371 90.37695L113.888 90.37695L113.888 90.37695L113.888 89.62646L113.888 89.62646L111.6371 89.62646M107.8916 90.37695L110.1426 90.37695L110.1426 90.37695L110.1426 89.62646L110.1426 89.62646L107.8916 89.62646M104.1462 90.37695L106.3972 90.37695L106.3972 90.37695L106.3972 89.62646L106.3972 89.62646L104.1462 89.62646M100.4008 90.37695L102.6517 90.37695L102.6517 90.37695L102.6517 89.62646L102.6517 89.62646L100.4008 89.62646M96.65536 90.37695L98.9063 90.37695L98.9063 90.37695L98.9063 89.62646L98.9063 89.62646L96.65536 89.62646M92.90993 90.37695L95.16087 90.37695L95.16087 90.37695L95.16087 89.62646L95.16087 89.62646L92.90993 89.62646M89.16451 90.37695L91.41545 90.37695L91.41545 90.37695L91.41545 89.62646L91.41545 89.62646L89.16451 89.62646M85.41908 90.37695L87.67002 90.37695L87.67002 90.37695L87.67002 89.62646L87.67002 89.62646L85.41908 89.62646M81.67365 90.37695L83.9246 90.37695L83.9246 90.37695L83.9246 89.62646L83.9246 89.62646L81.67365 89.62646M77.92823 90.37695L80.17918 90.37695L80.17918 90.37695L80.17918 89.62646L80.17918 89.62646L77.92823 89.62646M74.1828 90.37695L76.43375 90.37695L76.43375 90.37695L76.43375 89.62646L76.43375 89.62646L74.1828 89.62646M70.43738 90.37695L72.68832 90.37695L72.68832 90.37695L72.68832 89.62646L72.68832 89.62646L70.43738 89.62646M66.69195 90.37695L68.94289 90.37695L68.94289 90.37695L68.94289 89.62646L68.94289 89.62646L66.69195 89.62646M62.94652 90.37695L65.19747 90.37695L65.19747 90.37695L65.19747 89.62646L65.19747 89.62646L62.94652 89.62646M59.2011 90.37695L61.45205 90.37695L61.45205 90.37695L61.45205 89.62646L61.45205 89.62646L59.2011 89.62646M55.45567 90.37695L57.70662 90.37695L57.70662 90.37695L57.70662 89.62646L57.70662 89.62646L55.45567 89.62646M51.71024 90.37695L53.96119 90.37695L53.96119 90.37695L53.96119 89.62646L53.96119 89.62646L51.71024 89.62646M47.96482 90.37695L50.21577 90.37695L50.21577 90.37695L50.21577 89.62646L50.21577 89.62646L47.96482 89.62646M44.21939 90.37695L46.47034 90.37695L46.47034 90.37695L46.47034 89.62646L46.47034 89.62646L44.21939 89.62646M40.47397 90.37695L42.72491 90.37695L42.72491 90.37695L42.72491 89.62646L42.72491 89.62646L40.47397 89.62646M36.72855 90.37695L38.97949 90.37695L38.97949 90.37695L38.97949 89.62646L38.97949 89.62646L36.72855 89.62646M32.98312 90.37695L35.23406 90.37695L35.23406 90.37695L35.23406 89.62646L35.23406 89.62646L32.98312 89.62646M29.23769 90.37695L31.48864 90.37695L31.48864 90.37695L31.48864 89.62646L31.48864 89.62646L29.23769 89.62646M25.49227 90.37695L27.74321 90.37695L27.74321 90.37695L27.74321 89.62646L27.74321 89.62646L25.49227 89.62646M21.74684 90.37695L23.99779 90.37695L23.99779 90.37695L23.99779 89.62646L23.99779 89.62646L21.74684 89.62646M18.00141 90.37695L20.25236 90.37695L20.25236 90.37695L20.25236 89.62646L20.25236 89.62646L18.00141 89.62646M14.25599 90.37695L16.50694 90.37695L16.50694 90.37695L16.50694 89.62646L16.50694 89.62646L14.25599 89.62646" stroke="none" fill="#C3C4C3" fill-rule="winding" /></g><g clip-path="url(#5)"><path transform="matrix(1 0 0 -1 0 841)" d="M569.4893 305.7173L571.7402 305.7173L571.7402 305.7173L571.7402 304.9668L571.7402 304.9668L569.4893 304.9668M565.7001 305.7173L567.9511 305.7173L567.9511 305.7173L567.9511 304.9668L567.9511 304.9668L565.7001 304.9668M561.9111 305.7173L564.162 305.7173L564.162 305.7173L564.162 304.9668L564.162 304.9668L561.9111 304.9668M558.1219 305.7173L560.3729 305.7173L560.3729 305.7173L560.3729 304.9668L560.3729 304.9668L558.1219 304.9668M554.3328 305.7173L556.5838 305.7173L556.5838 305.7173L556.5838 304.9668L556.5838 304.9668L554.3328 304.9668M550.5438 305.7173L552.7947 305.7173L552.7947 305.7173L552.7947 304.9668L552.7947 304.9668L550.5438 304.9668M546.7547 305.7173L549.0056 305.7173L549.0056 305.7173L549.0056 304.9668L549.0056 304.9668L546.7547 304.9668M542.9656 305.7173L545.2166 305.7173L545.2166 305.7173L545.2166 304.9668L545.2166 304.9668L542.9656 304.9668M539.1765 305.7173L541.4274 305.7173L541.4274 305.7173L541.4274 304.9668L541.4274 304.9668L539.1765 304.9668M535.3874 305.7173L537.6384 305.7173L537.6384 305.7173L537.6384 304.9668L537.6384 304.9668L535.3874 304.9668M531.5983 305.7173L533.8492 305.7173L533.8492 305.7173L533.8492 304.9668L533.8492 304.9668L531.5983 304.9668M527.8092 305.7173L530.0602 305.7173L530.0602 305.7173L530.0602 304.9668L530.0602 304.9668L527.8092 304.9668M524.0201 305.7173L526.2711 305.7173L526.2711 305.7173L526.2711 304.9668L526.2711 304.9668L524.0201 304.9668M520.231 305.7173L522.4819 305.7173L522.4819 305.7173L522.4819 304.9668L522.4819 304.9668L520.231 304.9668M516.442 305.7173L518.6929 305.7173L518.6929 305.7173L518.6929 304.9668L518.6929 304.9668L516.442 304.9668M512.6528 305.7173L514.9038 305.7173L514.9038 305.7173L514.9038 304.9668L514.9038 304.9668L512.6528 304.9668M508.8638 305.7173L511.1147 305.7173L511.1147 305.7173L511.1147 304.9668L511.1147 304.9668L508.8638 304.9668M505.0747 305.7173L507.3256 305.7173L507.3256 305.7173L507.3256 304.9668L507.3256 304.9668L505.0747 304.9668M501.2856 305.7173L503.5365 305.7173L503.5365 305.7173L503.5365 304.9668L503.5365 304.9668L501.2856 304.9668M497.4965 305.7173L499.7474 305.7173L499.7474 305.7173L499.7474 304.9668L499.7474 304.9668L497.4965 304.9668M493.7074 305.7173L495.9583 305.7173L495.9583 305.7173L495.9583 304.9668L495.9583 304.9668L493.7074 304.9668" stroke="none" fill="#B5B6B5" fill-rule="winding" /></g><g clip-path="url(#6)"><path transform="matrix(1 0 0 -1 0 841)" d="M503.8366 318.4727C 503.8366 318.1523 503.8054 317.8359 503.7429 317.5215C 503.6805 317.207 503.5879 316.9023 503.4654 316.6069C 503.3428 316.311 503.1926 316.0298 503.0147 315.7637C 502.8368 315.4976 502.6346 315.251 502.4082 315.0244C 502.1818 314.7979 501.9355 314.5967 501.6692 314.4185C 501.4028 314.2402 501.1218 314.0903 500.826 313.9678C 500.5301 313.8457 500.2252 313.7524 499.911 313.6899C 499.5969 313.6279 499.2798 313.5962 498.9596 313.5957C 498.6393 313.5962 498.3222 313.6279 498.0081 313.6899C 497.694 313.7524 497.389 313.8457 497.0932 313.9678C 496.7974 314.0903 496.5163 314.2402 496.25 314.4185C 495.9838 314.5967 495.7374 314.7979 495.511 315.0244C 495.2845 315.251 495.0824 315.4976 494.9045 315.7637C 494.7266 316.0298 494.5764 316.311 494.4538 316.6069C 494.3312 316.9023 494.2387 317.207 494.1762 317.5215C 494.1138 317.8359 494.0826 318.1523 494.0826 318.4727C 494.0826 318.793 494.1138 319.1104 494.1762 319.4243C 494.2387 319.7388 494.3312 320.0435 494.4538 320.3398C 494.5764 320.6357 494.7266 320.917 494.9045 321.1831C 495.0824 321.4492 495.2845 321.6953 495.511 321.9219C 495.7374 322.1479 495.9838 322.3501 496.25 322.5283C 496.5163 322.7056 496.7974 322.856 497.0932 322.979C 497.389 323.1016 497.694 323.1938 498.0081 323.2559C 498.3222 323.3184 498.6393 323.3496 498.9596 323.3496C 499.2798 323.3496 499.5969 323.3184 499.911 323.2559C 500.2252 323.1938 500.5301 323.1021 500.826 322.9795C 501.1218 322.8564 501.4028 322.7065 501.6692 322.5283C 501.9355 322.3501 502.1818 322.1479 502.4082 321.9219C 502.6346 321.6953 502.8368 321.4492 503.0147 321.1831C 503.1926 320.917 503.3428 320.6357 503.4654 320.3398C 503.5879 320.0435 503.6805 319.7388 503.7429 319.4243C 503.8054 319.1104 503.8366 318.793 503.8366 318.4727z" stroke="#C3C4C3" stroke-width="0.7503152" fill="none" /><path transform="matrix(1 0 0 -1 0 841)" d="M531.5983 318.4727C 531.5983 318.1523 531.5671 317.8359 531.5046 317.5215C 531.4421 317.207 531.3495 316.9023 531.227 316.6069C 531.1044 316.311 530.9542 316.0298 530.7763 315.7637C 530.5984 315.4976 530.3962 315.251 530.1698 315.0244C 529.9434 314.7979 529.697 314.5967 529.4307 314.4185C 529.1644 314.2402 528.8834 314.0903 528.5875 313.9678C 528.2917 313.8457 527.9868 313.7524 527.6727 313.6899C 527.3586 313.6279 527.0414 313.5962 526.7213 313.5957C 526.401 313.5962 526.0839 313.6279 525.7698 313.6899C 525.4556 313.7524 525.1507 313.8457 524.8548 313.9678C 524.559 314.0903 524.2779 314.2402 524.0117 314.4185C 523.7454 314.5967 523.499 314.7979 523.2726 315.0244C 523.0461 315.251 522.844 315.4976 522.6661 315.7637C 522.4882 316.0298 522.338 316.311 522.2154 316.6069C 522.0928 316.9023 522.0003 317.207 521.9379 317.5215C 521.8754 317.8359 521.8442 318.1523 521.8442 318.4727C 521.8442 318.793 521.8754 319.1104 521.9378 319.4243C 522.0003 319.7388 522.0928 320.0435 522.2154 320.3398C 522.338 320.6357 522.4882 320.917 522.6661 321.1831C 522.844 321.4492 523.0461 321.6953 523.2726 321.9219C 523.499 322.1479 523.7454 322.3501 524.0117 322.5283C 524.2779 322.7056 524.559 322.856 524.8548 322.979C 525.1507 323.1016 525.4556 323.1938 525.7697 323.2559C 526.0839 323.3184 526.401 323.3496 526.7213 323.3496C 527.0414 323.3496 527.3586 323.3184 527.6727 323.2559C 527.9868 323.1938 528.2917 323.1021 528.5875 322.9795C 528.8834 322.8564 529.1644 322.7065 529.4307 322.5283C 529.697 322.3501 529.9434 322.1479 530.1698 321.9219C 530.3962 321.6953 530.5984 321.4492 530.7763 321.1831C 530.9542 320.917 531.1044 320.6357 531.227 320.3398C 531.3495 320.0435 531.4421 319.7388 531.5046 319.4243C 531.5671 319.1104 531.5983 318.793 531.5983 318.4727z" stroke="#C3C4C3" stroke-width="0.7503152" fill="none" /><path transform="matrix(1 0 0 -1 0 841)" d="M560.1103 318.4727C 560.1103 318.1523 560.079 317.8359 560.0165 317.5215C 559.9541 317.207 559.8616 316.9023 559.739 316.6069C 559.6165 316.311 559.4662 316.0298 559.2883 315.7637C 559.1104 315.4976 558.9083 315.251 558.6818 315.0244C 558.4553 314.7979 558.2089 314.5967 557.9427 314.4185C 557.6765 314.2402 557.3954 314.0903 557.0995 313.9678C 556.8036 313.8457 556.4987 313.7524 556.1846 313.6899C 555.8706 313.6279 555.5535 313.5962 555.2332 313.5957C 554.913 313.5962 554.5958 313.6279 554.2817 313.6899C 553.9676 313.7524 553.6627 313.8457 553.3668 313.9678C 553.0709 314.0903 552.7899 314.2402 552.5236 314.4185C 552.2573 314.5967 552.011 314.7979 551.7846 315.0244C 551.5582 315.251 551.356 315.4976 551.178 315.7637C 551.0001 316.0298 550.8499 316.311 550.7274 316.6069C 550.6048 316.9023 550.5123 317.207 550.4498 317.5215C 550.3874 317.8359 550.3561 318.1523 550.3562 318.4727C 550.3561 318.793 550.3874 319.1104 550.4498 319.4243C 550.5123 319.7388 550.6048 320.0435 550.7274 320.3398C 550.8499 320.6357 551.0001 320.917 551.178 321.1831C 551.356 321.4492 551.5582 321.6953 551.7846 321.9219C 552.011 322.1479 552.2573 322.3501 552.5236 322.5283C 552.7899 322.7056 553.0709 322.856 553.3668 322.979C 553.6627 323.1016 553.9676 323.1938 554.2817 323.2559C 554.5958 323.3184 554.913 323.3496 555.2332 323.3496C 555.5535 323.3496 555.8706 323.3184 556.1846 323.2559C 556.4987 323.1938 556.8036 323.1021 557.0995 322.9795C 557.3954 322.8564 557.6765 322.7065 557.9427 322.5283C 558.2089 322.3501 558.4553 322.1479 558.6818 321.9219C 558.9083 321.6953 559.1104 321.4492 559.2883 321.1831C 559.4662 320.917 559.6165 320.6357 559.739 320.3398C 559.8616 320.0435 559.9541 319.7388 560.0165 319.4243C 560.079 319.1104 560.1103 318.793 560.1103 318.4727z" stroke="#C3C4C3" stroke-width="0.7503152" fill="none" /></g><g clip-path="url(#7)"><path transform="matrix(1 0 0 -1 0 841)" d="M569.4893 245.6919L571.7402 245.6919L571.7402 245.6919L571.7402 244.9419L571.7402 244.9419L569.4893 244.9419M565.7001 245.6919L567.9511 245.6919L567.9511 245.6919L567.9511 244.9419L567.9511 244.9419L565.7001 244.9419M561.9111 245.6919L564.162 245.6919L564.162 245.6919L564.162 244.9419L564.162 244.9419L561.9111 244.9419M558.1219 245.6919L560.3729 245.6919L560.3729 245.6919L560.3729 244.9419L560.3729 244.9419L558.1219 244.9419M554.3328 245.6919L556.5838 245.6919L556.5838 245.6919L556.5838 244.9419L556.5838 244.9419L554.3328 244.9419M550.5438 245.6919L552.7947 245.6919L552.7947 245.6919L552.7947 244.9419L552.7947 244.9419L550.5438 244.9419M546.7547 245.6919L549.0056 245.6919L549.0056 245.6919L549.0056 244.9419L549.0056 244.9419L546.7547 244.9419M542.9656 245.6919L545.2166 245.6919L545.2166 245.6919L545.2166 244.9419L545.2166 244.9419L542.9656 244.9419M539.1765 245.6919L541.4274 245.6919L541.4274 245.6919L541.4274 244.9419L541.4274 244.9419L539.1765 244.9419M535.3874 245.6919L537.6384 245.6919L537.6384 245.6919L537.6384 244.9419L537.6384 244.9419L535.3874 244.9419M531.5983 245.6919L533.8492 245.6919L533.8492 245.6919L533.8492 244.9419L533.8492 244.9419L531.5983 244.9419M527.8092 245.6919L530.0602 245.6919L530.0602 245.6919L530.0602 244.9419L530.0602 244.9419L527.8092 244.9419M524.0201 245.6919L526.2711 245.6919L526.2711 245.6919L526.2711 244.9419L526.2711 244.9419L524.0201 244.9419M520.231 245.6919L522.4819 245.6919L522.4819 245.6919L522.4819 244.9419L522.4819 244.9419L520.231 244.9419M516.442 245.6919L518.6929 245.6919L518.6929 245.6919L518.6929 244.9419L518.6929 244.9419L516.442 244.9419M512.6528 245.6919L514.9038 245.6919L514.9038 245.6919L514.9038 244.9419L514.9038 244.9419L512.6528 244.9419M508.8638 245.6919L511.1147 245.6919L511.1147 245.6919L511.1147 244.9419L511.1147 244.9419L508.8638 244.9419M505.0747 245.6919L507.3256 245.6919L507.3256 245.6919L507.3256 244.9419L507.3256 244.9419L505.0747 244.9419M501.2856 245.6919L503.5365 245.6919L503.5365 245.6919L503.5365 244.9419L503.5365 244.9419L501.2856 244.9419M497.4965 245.6919L499.7474 245.6919L499.7474 245.6919L499.7474 244.9419L499.7474 244.9419L497.4965 244.9419M493.7074 245.6919L495.9583 245.6919L495.9583 245.6919L495.9583 244.9419L495.9583 244.9419L493.7074 244.9419" stroke="none" fill="#B5B6B5" fill-rule="winding" /></g><g clip-path="url(#8)"><path transform="matrix(1 0 0 -1 0 841)" d="M487.7049 366.4927L594.9999 366.4927L594.9999 366.4927L594.9999 365.7427L594.9999 365.7427L487.7049 365.7427z" stroke="none" fill="#B5B6B5" fill-rule="winding" /><path transform="matrix(1 0 0 -1 0 841)" d="M0 366.4927L487.7049 366.4927L487.7049 366.4927L487.7049 365.7427L487.7049 365.7427L0 365.7427z" stroke="none" fill="#B5B6B5" fill-rule="winding" /><path transform="matrix(1 0 0 -1 0 841)" d="M487.7049 366.4927L488.4552 366.4927L488.4552 366.4927L488.4552 -291.5337L488.4552 -291.5337L487.7049 -291.5337z" stroke="none" fill="#B5B6B5" fill-rule="winding" /><g transform="matrix(0.7503152 0 0 0.7503152 14.25599 155.6224)"><g transform="matrix(1 0 0 1 0 0)"><image x="0" y="0" xlink:href="img_30.png" width="430" height="281" /></g></g><g transform="matrix(0.7503152 0 0 0.7503152 14.25599 532.2808)"><g transform="matrix(1 0 0 1 0 0)"><image x="0" y="0" xlink:href="img_31.png" width="229" height="135" /></g></g></g></g></g></g></svg>