<svg xmlns="http://www.w3.org/2000/svg" xmlns:xlink="http://www.w3.org/1999/xlink" id="body_17" preserveAspectRatio="xMinYMin meet" viewBox="0 0 792 1121"><defs><clipPath id="1"><path d="M0 841L0 -0.9199829L0 -0.9199829L594.96 -0.9199829L594.96 -0.9199829L594.96 841L594.96 841L0 841z" /></clipPath><clipPath id="2"><path d="M0 -0.9199829L595.2 -0.9199829L595.2 -0.9199829L595.2 841.24L595.2 841.24L0 841.24z" /></clipPath><clipPath id="3"><path d="M0 55.07971L594.9999 55.07971L594.9999 55.07971L594.9999 790.389L594.9999 790.389L0 790.389z" /></clipPath><clipPath id="4"><path d="M14.25599 453.4975L473.4489 453.4975L473.4489 453.4975L473.4489 454.2475L473.4489 454.2475L14.25599 454.2475z" /></clipPath><clipPath id="5"><path d="M0 55.07971L594.9999 55.07971L594.9999 55.07971L594.9999 790.389L594.9999 790.389L0 790.389z" /></clipPath></defs><g transform="matrix(1.333333 0 0 1.333333 0 0)"><g><g clip-path="url(#1)"><g clip-path="url(#2)"><path transform="matrix(1 0 0 -1 0 841)" d="M0 841.92L792.9999 841.92L792.9999 841.92L792.9999 -280.0799L792.9999 -280.0799L0 -280.0799z" stroke="none" fill="#FFFFFF" fill-rule="winding" /><path transform="matrix(1 0 0 -1 0 841)" d="M0 796.92L594.9999 796.92L594.9999 796.92L594.9999 795.92L594.9999 795.92L0 795.92z" stroke="none" fill="#B7B5B5" fill-rule="winding" /><g transform="matrix(0.1840659 0 0 0.1886792 510 12.08002)"><g transform="matrix(1 0 0 1 0 0)"><image x="0" y="0" xlink:href="img_01.png" width="364" height="106" /></g></g></g><g clip-path="url(#3)"><path transform="matrix(1 0 0 -1 0 841)" d="M0 12550.86L594.9999 12550.86L594.9999 12550.86L594.9999 -6940.077L594.9999 -6940.077L0 -6940.077z" stroke="none" fill="#FFFFFF" fill-rule="winding" /></g><g clip-path="url(#4)"><path transform="matrix(1 0 0 -1 0 841)" d="M471.1979 387.502L473.4489 387.502L473.4489 387.502L473.4489 386.752L473.4489 386.752L471.1979 386.752M467.4525 387.502L469.7034 387.502L469.7034 387.502L469.7034 386.752L469.7034 386.752L467.4525 386.752M463.7071 387.502L465.958 387.502L465.958 387.502L465.958 386.752L465.958 386.752L463.7071 386.752M459.9617 387.502L462.2126 387.502L462.2126 387.502L462.2126 386.752L462.2126 386.752L459.9617 386.752M456.2162 387.502L458.4672 387.502L458.4672 387.502L458.4672 386.752L458.4672 386.752L456.2162 386.752M452.4708 387.502L454.7217 387.502L454.7217 387.502L454.7217 386.752L454.7217 386.752L452.4708 386.752M448.7254 387.502L450.9763 387.502L450.9763 387.502L450.9763 386.752L450.9763 386.752L448.7254 386.752M444.9799 387.502L447.2309 387.502L447.2309 387.502L447.2309 386.752L447.2309 386.752L444.9799 386.752M441.2345 387.502L443.4855 387.502L443.4855 387.502L443.4855 386.752L443.4855 386.752L441.2345 386.752M437.4891 387.502L439.7401 387.502L439.7401 387.502L439.7401 386.752L439.7401 386.752L437.4891 386.752M433.7437 387.502L435.9946 387.502L435.9946 387.502L435.9946 386.752L435.9946 386.752L433.7437 386.752M429.9982 387.502L432.2492 387.502L432.2492 387.502L432.2492 386.752L432.2492 386.752L429.9982 386.752M426.2528 387.502L428.5038 387.502L428.5038 387.502L428.5038 386.752L428.5038 386.752L426.2528 386.752M422.5074 387.502L424.7584 387.502L424.7584 387.502L424.7584 386.752L424.7584 386.752L422.5074 386.752M418.762 387.502L421.0129 387.502L421.0129 387.502L421.0129 386.752L421.0129 386.752L418.762 386.752M415.0165 387.502L417.2675 387.502L417.2675 387.502L417.2675 386.752L417.2675 386.752L415.0165 386.752M411.2711 387.502L413.5221 387.502L413.5221 387.502L413.5221 386.752L413.5221 386.752L411.2711 386.752M407.5257 387.502L409.7766 387.502L409.7766 387.502L409.7766 386.752L409.7766 386.752L407.5257 386.752M403.7803 387.502L406.0312 387.502L406.0312 387.502L406.0312 386.752L406.0312 386.752L403.7803 386.752M400.0349 387.502L402.2858 387.502L402.2858 387.502L402.2858 386.752L402.2858 386.752L400.0349 386.752M396.2894 387.502L398.5404 387.502L398.5404 387.502L398.5404 386.752L398.5404 386.752L396.2894 386.752M392.544 387.502L394.7949 387.502L394.7949 387.502L394.7949 386.752L394.7949 386.752L392.544 386.752M388.7986 387.502L391.0495 387.502L391.0495 387.502L391.0495 386.752L391.0495 386.752L388.7986 386.752M385.0532 387.502L387.3041 387.502L387.3041 387.502L387.3041 386.752L387.3041 386.752L385.0532 386.752M381.3077 387.502L383.5587 387.502L383.5587 387.502L383.5587 386.752L383.5587 386.752L381.3077 386.752M377.5623 387.502L379.8132 387.502L379.8132 387.502L379.8132 386.752L379.8132 386.752L377.5623 386.752M373.8169 387.502L376.0678 387.502L376.0678 387.502L376.0678 386.752L376.0678 386.752L373.8169 386.752M370.0714 387.502L372.3224 387.502L372.3224 387.502L372.3224 386.752L372.3224 386.752L370.0714 386.752M366.326 387.502L368.577 387.502L368.577 387.502L368.577 386.752L368.577 386.752L366.326 386.752M362.5806 387.502L364.8315 387.502L364.8315 387.502L364.8315 386.752L364.8315 386.752L362.5806 386.752M358.8352 387.502L361.0861 387.502L361.0861 387.502L361.0861 386.752L361.0861 386.752L358.8352 386.752M355.0897 387.502L357.3407 387.502L357.3407 387.502L357.3407 386.752L357.3407 386.752L355.0897 386.752M351.3443 387.502L353.5953 387.502L353.5953 387.502L353.5953 386.752L353.5953 386.752L351.3443 386.752M347.5989 387.502L349.8499 387.502L349.8499 387.502L349.8499 386.752L349.8499 386.752L347.5989 386.752M343.8535 387.502L346.1044 387.502L346.1044 387.502L346.1044 386.752L346.1044 386.752L343.8535 386.752M340.108 387.502L342.359 387.502L342.359 387.502L342.359 386.752L342.359 386.752L340.108 386.752M336.3626 387.502L338.6136 387.502L338.6136 387.502L338.6136 386.752L338.6136 386.752L336.3626 386.752M332.6172 387.502L334.8681 387.502L334.8681 387.502L334.8681 386.752L334.8681 386.752L332.6172 386.752M328.8717 387.502L331.1227 387.502L331.1227 387.502L331.1227 386.752L331.1227 386.752L328.8717 386.752M325.1263 387.502L327.3773 387.502L327.3773 387.502L327.3773 386.752L327.3773 386.752L325.1263 386.752M321.3809 387.502L323.6319 387.502L323.6319 387.502L323.6319 386.752L323.6319 386.752L321.3809 386.752M317.6355 387.502L319.8864 387.502L319.8864 387.502L319.8864 386.752L319.8864 386.752L317.6355 386.752M313.89 387.502L316.141 387.502L316.141 387.502L316.141 386.752L316.141 386.752L313.89 386.752M310.1446 387.502L312.3956 387.502L312.3956 387.502L312.3956 386.752L312.3956 386.752L310.1446 386.752M306.3992 387.502L308.6501 387.502L308.6501 387.502L308.6501 386.752L308.6501 386.752L306.3992 386.752M302.6538 387.502L304.9047 387.502L304.9047 387.502L304.9047 386.752L304.9047 386.752L302.6538 386.752M298.9084 387.502L301.1593 387.502L301.1593 387.502L301.1593 386.752L301.1593 386.752L298.9084 386.752M295.1629 387.502L297.4139 387.502L297.4139 387.502L297.4139 386.752L297.4139 386.752L295.1629 386.752M291.4175 387.502L293.6684 387.502L293.6684 387.502L293.6684 386.752L293.6684 386.752L291.4175 386.752M287.6721 387.502L289.923 387.502L289.923 387.502L289.923 386.752L289.923 386.752L287.6721 386.752M283.9267 387.502L286.1776 387.502L286.1776 387.502L286.1776 386.752L286.1776 386.752L283.9267 386.752M280.1812 387.502L282.4322 387.502L282.4322 387.502L282.4322 386.752L282.4322 386.752L280.1812 386.752M276.4358 387.502L278.6867 387.502L278.6867 387.502L278.6867 386.752L278.6867 386.752L276.4358 386.752M272.6904 387.502L274.9413 387.502L274.9413 387.502L274.9413 386.752L274.9413 386.752L272.6904 386.752M268.9449 387.502L271.1959 387.502L271.1959 387.502L271.1959 386.752L271.1959 386.752L268.9449 386.752M265.1995 387.502L267.4504 387.502L267.4504 387.502L267.4504 386.752L267.4504 386.752L265.1995 386.752M261.4541 387.502L263.705 387.502L263.705 387.502L263.705 386.752L263.705 386.752L261.4541 386.752M257.7087 387.502L259.9596 387.502L259.9596 387.502L259.9596 386.752L259.9596 386.752L257.7087 386.752M253.9632 387.502L256.2142 387.502L256.2142 387.502L256.2142 386.752L256.2142 386.752L253.9632 386.752M250.2178 387.502L252.4688 387.502L252.4688 387.502L252.4688 386.752L252.4688 386.752L250.2178 386.752M246.4724 387.502L248.7233 387.502L248.7233 387.502L248.7233 386.752L248.7233 386.752L246.4724 386.752M242.727 387.502L244.9779 387.502L244.9779 387.502L244.9779 386.752L244.9779 386.752L242.727 386.752M238.9816 387.502L241.2325 387.502L241.2325 387.502L241.2325 386.752L241.2325 386.752L238.9816 386.752M235.2361 387.502L237.4871 387.502L237.4871 387.502L237.4871 386.752L237.4871 386.752L235.2361 386.752M231.4907 387.502L233.7416 387.502L233.7416 387.502L233.7416 386.752L233.7416 386.752L231.4907 386.752M227.7453 387.502L229.9962 387.502L229.9962 387.502L229.9962 386.752L229.9962 386.752L227.7453 386.752M223.9998 387.502L226.2508 387.502L226.2508 387.502L226.2508 386.752L226.2508 386.752L223.9998 386.752M220.2544 387.502L222.5054 387.502L222.5054 387.502L222.5054 386.752L222.5054 386.752L220.2544 386.752M216.509 387.502L218.7599 387.502L218.7599 387.502L218.7599 386.752L218.7599 386.752L216.509 386.752M212.7636 387.502L215.0145 387.502L215.0145 387.502L215.0145 386.752L215.0145 386.752L212.7636 386.752M209.0181 387.502L211.2691 387.502L211.2691 387.502L211.2691 386.752L211.2691 386.752L209.0181 386.752M205.2727 387.502L207.5237 387.502L207.5237 387.502L207.5237 386.752L207.5237 386.752L205.2727 386.752M201.5273 387.502L203.7782 387.502L203.7782 387.502L203.7782 386.752L203.7782 386.752L201.5273 386.752M197.7818 387.502L200.0328 387.502L200.0328 387.502L200.0328 386.752L200.0328 386.752L197.7818 386.752M194.0364 387.502L196.2874 387.502L196.2874 387.502L196.2874 386.752L196.2874 386.752L194.0364 386.752M190.291 387.502L192.5419 387.502L192.5419 387.502L192.5419 386.752L192.5419 386.752L190.291 386.752M186.5456 387.502L188.7965 387.502L188.7965 387.502L188.7965 386.752L188.7965 386.752L186.5456 386.752M182.8002 387.502L185.0511 387.502L185.0511 387.502L185.0511 386.752L185.0511 386.752L182.8002 386.752M179.0547 387.502L181.3057 387.502L181.3057 387.502L181.3057 386.752L181.3057 386.752L179.0547 386.752M175.3093 387.502L177.5602 387.502L177.5602 387.502L177.5602 386.752L177.5602 386.752L175.3093 386.752M171.5639 387.502L173.8148 387.502L173.8148 387.502L173.8148 386.752L173.8148 386.752L171.5639 386.752M167.8185 387.502L170.0694 387.502L170.0694 387.502L170.0694 386.752L170.0694 386.752L167.8185 386.752M164.073 387.502L166.324 387.502L166.324 387.502L166.324 386.752L166.324 386.752L164.073 386.752M160.3276 387.502L162.5785 387.502L162.5785 387.502L162.5785 386.752L162.5785 386.752L160.3276 386.752M156.5822 387.502L158.8331 387.502L158.8331 387.502L158.8331 386.752L158.8331 386.752L156.5822 386.752M152.8367 387.502L155.0877 387.502L155.0877 387.502L155.0877 386.752L155.0877 386.752L152.8367 386.752M149.0913 387.502L151.3423 387.502L151.3423 387.502L151.3423 386.752L151.3423 386.752L149.0913 386.752M145.3459 387.502L147.5968 387.502L147.5968 387.502L147.5968 386.752L147.5968 386.752L145.3459 386.752M141.6005 387.502L143.8514 387.502L143.8514 387.502L143.8514 386.752L143.8514 386.752L141.6005 386.752M137.855 387.502L140.106 387.502L140.106 387.502L140.106 386.752L140.106 386.752L137.855 386.752M134.1096 387.502L136.3606 387.502L136.3606 387.502L136.3606 386.752L136.3606 386.752L134.1096 386.752M130.3642 387.502L132.6151 387.502L132.6151 387.502L132.6151 386.752L132.6151 386.752L130.3642 386.752M126.6188 387.502L128.8697 387.502L128.8697 387.502L128.8697 386.752L128.8697 386.752L126.6188 386.752M122.8733 387.502L125.1243 387.502L125.1243 387.502L125.1243 386.752L125.1243 386.752L122.8733 386.752M119.1279 387.502L121.3789 387.502L121.3789 387.502L121.3789 386.752L121.3789 386.752L119.1279 386.752M115.3825 387.502L117.6334 387.502L117.6334 387.502L117.6334 386.752L117.6334 386.752L115.3825 386.752M111.6371 387.502L113.888 387.502L113.888 387.502L113.888 386.752L113.888 386.752L111.6371 386.752M107.8916 387.502L110.1426 387.502L110.1426 387.502L110.1426 386.752L110.1426 386.752L107.8916 386.752M104.1462 387.502L106.3972 387.502L106.3972 387.502L106.3972 386.752L106.3972 386.752L104.1462 386.752M100.4008 387.502L102.6517 387.502L102.6517 387.502L102.6517 386.752L102.6517 386.752L100.4008 386.752M96.65536 387.502L98.9063 387.502L98.9063 387.502L98.9063 386.752L98.9063 386.752L96.65536 386.752M92.90993 387.502L95.16087 387.502L95.16087 387.502L95.16087 386.752L95.16087 386.752L92.90993 386.752M89.16451 387.502L91.41545 387.502L91.41545 387.502L91.41545 386.752L91.41545 386.752L89.16451 386.752M85.41908 387.502L87.67002 387.502L87.67002 387.502L87.67002 386.752L87.67002 386.752L85.41908 386.752M81.67365 387.502L83.9246 387.502L83.9246 387.502L83.9246 386.752L83.9246 386.752L81.67365 386.752M77.92823 387.502L80.17918 387.502L80.17918 387.502L80.17918 386.752L80.17918 386.752L77.92823 386.752M74.1828 387.502L76.43375 387.502L76.43375 387.502L76.43375 386.752L76.43375 386.752L74.1828 386.752M70.43738 387.502L72.68832 387.502L72.68832 387.502L72.68832 386.752L72.68832 386.752L70.43738 386.752M66.69195 387.502L68.94289 387.502L68.94289 387.502L68.94289 386.752L68.94289 386.752L66.69195 386.752M62.94652 387.502L65.19747 387.502L65.19747 387.502L65.19747 386.752L65.19747 386.752L62.94652 386.752M59.2011 387.502L61.45205 387.502L61.45205 387.502L61.45205 386.752L61.45205 386.752L59.2011 386.752M55.45567 387.502L57.70662 387.502L57.70662 387.502L57.70662 386.752L57.70662 386.752L55.45567 386.752M51.71024 387.502L53.96119 387.502L53.96119 387.502L53.96119 386.752L53.96119 386.752L51.71024 386.752M47.96482 387.502L50.21577 387.502L50.21577 387.502L50.21577 386.752L50.21577 386.752L47.96482 386.752M44.21939 387.502L46.47034 387.502L46.47034 387.502L46.47034 386.752L46.47034 386.752L44.21939 386.752M40.47397 387.502L42.72491 387.502L42.72491 387.502L42.72491 386.752L42.72491 386.752L40.47397 386.752M36.72855 387.502L38.97949 387.502L38.97949 387.502L38.97949 386.752L38.97949 386.752L36.72855 386.752M32.98312 387.502L35.23406 387.502L35.23406 387.502L35.23406 386.752L35.23406 386.752L32.98312 386.752M29.23769 387.502L31.48864 387.502L31.48864 387.502L31.48864 386.752L31.48864 386.752L29.23769 386.752M25.49227 387.502L27.74321 387.502L27.74321 387.502L27.74321 386.752L27.74321 386.752L25.49227 386.752M21.74684 387.502L23.99779 387.502L23.99779 387.502L23.99779 386.752L23.99779 386.752L21.74684 386.752M18.00141 387.502L20.25236 387.502L20.25236 387.502L20.25236 386.752L20.25236 386.752L18.00141 386.752M14.25599 387.502L16.50694 387.502L16.50694 387.502L16.50694 386.752L16.50694 386.752L14.25599 386.752" stroke="none" fill="#C3C4C3" fill-rule="winding" /></g><g clip-path="url(#5)"><path transform="matrix(1 0 0 -1 0 841)" d="M487.7049 907.4707L488.4552 907.4707L488.4552 907.4707L488.4552 115.1377L488.4552 115.1377L487.7049 115.1377z" stroke="none" fill="#B5B6B5" fill-rule="winding" /><g transform="matrix(0.7503152 0 0 0.7503152 14.25599 55.07971)"><g transform="matrix(1 0 0 1 0 0)"><image x="0" y="0" xlink:href="img_75.png" width="239" height="219" /></g></g><g transform="matrix(0.7503151 0 0 0.7503152 14.25599 559.2916)"><g transform="matrix(1 0 0 1 0 0)"><image x="0" y="0" xlink:href="img_76.png" width="411" height="180" /></g></g><g transform="matrix(0.3414073 0 0 0.345145 14.25599 293.68)"><g transform="matrix(1 0 0 1 0 0)"><image x="0" y="0" xlink:href="img_77.png" width="1345" height="50" /></g></g><g transform="matrix(0.3414073 0 0 0.345145 14.25599 310.9375)"><g transform="matrix(1 0 0 1 0 0)"><image x="0" y="0" xlink:href="img_78.png" width="1345" height="50" /></g></g><g transform="matrix(0.3414073 0 0 0.3301387 14.25599 328.195)"><g transform="matrix(1 0 0 1 0 0)"><image x="0" y="0" xlink:href="img_79.png" width="1345" height="50" /></g></g><g transform="matrix(0.3414073 0 0 0.345145 14.25599 344.7016)"><g transform="matrix(1 0 0 1 0 0)"><image x="0" y="0" xlink:href="img_80.png" width="1345" height="50" /></g></g><g transform="matrix(0.3414073 0 0 0.345145 14.25599 361.959)"><g transform="matrix(1 0 0 1 0 0)"><image x="0" y="0" xlink:href="img_81.png" width="1345" height="50" /></g></g><g transform="matrix(0.3414073 0 0 0.345145 14.25599 379.2166)"><g transform="matrix(1 0 0 1 0 0)"><image x="0" y="0" xlink:href="img_82.png" width="1345" height="50" /></g></g><g transform="matrix(0.3414073 0 0 0.3301387 14.25599 396.4732)"><g transform="matrix(1 0 0 1 0 0)"><image x="0" y="0" xlink:href="img_83.png" width="1345" height="50" /></g></g><g transform="matrix(0.3414073 0 0 0.345145 14.25599 412.9807)"><g transform="matrix(1 0 0 1 0 0)"><image x="0" y="0" xlink:href="img_84.png" width="1345" height="50" /></g></g><g transform="matrix(0.3414073 0 0 0.3394283 14.25599 430.2372)"><g transform="matrix(1 0 0 1 0 0)"><image x="0" y="0" xlink:href="img_85.png" width="1345" height="42" /></g></g></g></g></g></g></svg>