<svg xmlns="http://www.w3.org/2000/svg" xmlns:xlink="http://www.w3.org/1999/xlink" id="body_8" preserveAspectRatio="xMinYMin meet" viewBox="0 0 792 1121"><defs><clipPath id="1"><path d="M0 841L0 -0.9199829L0 -0.9199829L594.96 -0.9199829L594.96 -0.9199829L594.96 841L594.96 841L0 841z" /></clipPath><clipPath id="2"><path d="M0 -0.9199829L595.2 -0.9199829L595.2 -0.9199829L595.2 841.24L595.2 841.24L0 841.24z" /></clipPath><clipPath id="3"><path d="M0 55.0802L594.9999 55.0802L594.9999 55.0802L594.9999 790.389L594.9999 790.389L0 790.389z" /></clipPath><clipPath id="4"><path d="M19.5082 66.33484L98.29129 66.33484L98.29129 66.33484L98.29129 67.08533L98.29129 67.08533L19.5082 67.08533z" /></clipPath><clipPath id="5"><path d="M0 55.0802L594.9999 55.0802L594.9999 55.0802L594.9999 790.389L594.9999 790.389L0 790.389z" /></clipPath><clipPath id="6"><path d="M19.5082 139.1158L98.29129 139.1158L98.29129 139.1158L98.29129 139.8658L98.29129 139.8658L19.5082 139.8658z" /></clipPath><clipPath id="7"><path d="M122.3014 374.7147L580.744 374.7147L580.744 374.7147L580.744 375.4647L580.744 375.4647L122.3014 375.4647z" /></clipPath><clipPath id="8"><path d="M0 55.0802L594.9999 55.0802L594.9999 55.0802L594.9999 790.389L594.9999 790.389L0 790.389z" /></clipPath></defs><g transform="matrix(1.333333 0 0 1.333333 0 0)"><g><g clip-path="url(#1)"><g clip-path="url(#2)"><path transform="matrix(1 0 0 -1 0 841)" d="M0 841.92L792.9999 841.92L792.9999 841.92L792.9999 -280.0799L792.9999 -280.0799L0 -280.0799z" stroke="none" fill="#FFFFFF" fill-rule="winding" /><path transform="matrix(1 0 0 -1 0 841)" d="M0 796.92L594.9999 796.92L594.9999 796.92L594.9999 795.92L594.9999 795.92L0 795.92z" stroke="none" fill="#B7B5B5" fill-rule="winding" /><g transform="matrix(0.1840659 0 0 0.1886792 510 12.08002)"><g transform="matrix(1 0 0 1 0 0)"><image x="0" y="0" xlink:href="img_01.png" width="364" height="106" /></g></g></g><g clip-path="url(#3)"><path transform="matrix(1 0 0 -1 0 841)" d="M0 5933.082L594.9999 5933.082L594.9999 5933.082L594.9999 -14293.17L594.9999 -14293.17L0 -14293.17z" stroke="none" fill="#FFFFFF" fill-rule="winding" /></g><g clip-path="url(#4)"><path transform="matrix(1 0 0 -1 0 841)" d="M96.04034 774.6646L98.29129 774.6646L98.29129 774.6646L98.29129 773.9146L98.29129 773.9146L96.04034 773.9146M92.21374 774.6646L94.46468 774.6646L94.46468 774.6646L94.46468 773.9146L94.46468 773.9146L92.21374 773.9146M88.38712 774.6646L90.63807 774.6646L90.63807 774.6646L90.63807 773.9146L90.63807 773.9146L88.38712 773.9146M84.56052 774.6646L86.81146 774.6646L86.81146 774.6646L86.81146 773.9146L86.81146 773.9146L84.56052 773.9146M80.73391 774.6646L82.98486 774.6646L82.98486 774.6646L82.98486 773.9146L82.98486 773.9146L80.73391 773.9146M76.90731 774.6646L79.15825 774.6646L79.15825 774.6646L79.15825 773.9146L79.15825 773.9146L76.90731 773.9146M73.0807 774.6646L75.33165 774.6646L75.33165 774.6646L75.33165 773.9146L75.33165 773.9146L73.0807 773.9146M69.25409 774.6646L71.50504 774.6646L71.50504 774.6646L71.50504 773.9146L71.50504 773.9146L69.25409 773.9146M65.42748 774.6646L67.67843 774.6646L67.67843 774.6646L67.67843 773.9146L67.67843 773.9146L65.42748 773.9146M61.60088 774.6646L63.85182 774.6646L63.85182 774.6646L63.85182 773.9146L63.85182 773.9146L61.60088 773.9146M57.77427 774.6646L60.02522 774.6646L60.02522 774.6646L60.02522 773.9146L60.02522 773.9146L57.77427 773.9146M53.94766 774.6646L56.1986 774.6646L56.1986 774.6646L56.1986 773.9146L56.1986 773.9146L53.94766 773.9146M50.12106 774.6646L52.372 774.6646L52.372 774.6646L52.372 773.9146L52.372 773.9146L50.12106 773.9146M46.29445 774.6646L48.54539 774.6646L48.54539 774.6646L48.54539 773.9146L48.54539 773.9146L46.29445 773.9146M42.46784 774.6646L44.71878 774.6646L44.71878 774.6646L44.71878 773.9146L44.71878 773.9146L42.46784 773.9146M38.64123 774.6646L40.89218 774.6646L40.89218 774.6646L40.89218 773.9146L40.89218 773.9146L38.64123 773.9146M34.81462 774.6646L37.06557 774.6646L37.06557 774.6646L37.06557 773.9146L37.06557 773.9146L34.81462 773.9146M30.98802 774.6646L33.23896 774.6646L33.23896 774.6646L33.23896 773.9146L33.23896 773.9146L30.98802 773.9146M27.16141 774.6646L29.41236 774.6646L29.41236 774.6646L29.41236 773.9146L29.41236 773.9146L27.16141 773.9146M23.3348 774.6646L25.58575 774.6646L25.58575 774.6646L25.58575 773.9146L25.58575 773.9146L23.3348 773.9146M19.50819 774.6646L21.75914 774.6646L21.75914 774.6646L21.75914 773.9146L21.75914 773.9146L19.50819 773.9146" stroke="none" fill="#B5B6B5" fill-rule="winding" /></g><g clip-path="url(#5)"><path transform="matrix(1 0 0 -1 0 841)" d="M29.63745 787.4199C 29.63745 787.1001 29.60621 786.7827 29.54374 786.4688C 29.48126 786.1548 29.38875 785.8496 29.2662 785.5542C 29.14366 785.2583 28.99343 784.9775 28.81552 784.7109C 28.6376 784.4448 28.43543 784.1987 28.20899 783.9717C 27.98255 783.7456 27.7362 783.5435 27.46994 783.3657C 27.20368 783.188 26.92262 783.0376 26.62676 782.915C 26.33091 782.7925 26.02594 782.7002 25.71186 782.6377C 25.39779 782.5747 25.08063 782.5435 24.7604 782.5435C 24.44017 782.5435 24.12301 782.5747 23.80893 782.6377C 23.49485 782.7002 23.18989 782.7925 22.89403 782.915C 22.59818 783.0376 22.31712 783.188 22.05085 783.3657C 21.78459 783.5435 21.53824 783.7456 21.3118 783.9717C 21.08537 784.1987 20.88319 784.4448 20.70528 784.7109C 20.52737 784.9775 20.37714 785.2583 20.25459 785.5542C 20.13205 785.8496 20.03954 786.1548 19.97706 786.4688C 19.91459 786.7827 19.88335 787.1001 19.88335 787.4199C 19.88335 787.7407 19.91459 788.0581 19.97706 788.3721C 20.03953 788.686 20.13204 788.9912 20.25459 789.2871C 20.37714 789.583 20.52737 789.8643 20.70528 790.1304C 20.88319 790.397 21.08537 790.6431 21.3118 790.8691C 21.53824 791.0952 21.78459 791.2979 22.05085 791.4756C 22.31712 791.6533 22.59818 791.8037 22.89403 791.9263C 23.18989 792.0488 23.49485 792.1411 23.80893 792.2036C 24.12301 792.2661 24.44017 792.2969 24.7604 792.2969C 25.08063 792.2969 25.39779 792.2661 25.71186 792.2036C 26.02594 792.1411 26.33091 792.0488 26.62676 791.9263C 26.92262 791.8037 27.20368 791.6533 27.46994 791.4756C 27.7362 791.2979 27.98255 791.0952 28.20899 790.8691C 28.43543 790.6431 28.6376 790.397 28.81552 790.1304C 28.99343 789.8643 29.14366 789.583 29.2662 789.2871C 29.38875 788.9912 29.48126 788.686 29.54374 788.3721C 29.60621 788.0581 29.63745 787.7407 29.63745 787.4199z" stroke="#C3C4C3" stroke-width="0.7503152" fill="none" /><path transform="matrix(1 0 0 -1 0 841)" d="M58.14943 787.4199C 58.14943 787.1001 58.11819 786.7827 58.05572 786.4688C 57.99325 786.1548 57.90073 785.8496 57.77819 785.5542C 57.65564 785.2583 57.50541 784.9775 57.32749 784.7109C 57.14958 784.4448 56.94741 784.1987 56.72097 783.9717C 56.49453 783.7456 56.24818 783.5435 55.98191 783.3657C 55.71565 783.188 55.43459 783.0376 55.13874 782.915C 54.84288 782.7925 54.53791 782.7002 54.22384 782.6377C 53.90976 782.5747 53.59261 782.5435 53.27238 782.5435C 52.95215 782.5435 52.63499 782.5747 52.32091 782.6377C 52.00683 782.7002 51.70186 782.7925 51.40601 782.915C 51.11015 783.0376 50.82909 783.188 50.56283 783.3657C 50.29657 783.5435 50.05022 783.7456 49.82378 783.9717C 49.59734 784.1987 49.39516 784.4448 49.21725 784.7109C 49.03934 784.9775 48.88911 785.2583 48.76657 785.5542C 48.64402 785.8496 48.55151 786.1548 48.48903 786.4688C 48.42656 786.7827 48.39533 787.1001 48.39533 787.4199C 48.39533 787.7407 48.42657 788.0581 48.48904 788.3721C 48.55151 788.686 48.64402 788.9912 48.76657 789.2871C 48.88911 789.583 49.03934 789.8643 49.21725 790.1304C 49.39516 790.397 49.59734 790.6431 49.82378 790.8691C 50.05022 791.0952 50.29657 791.2979 50.56283 791.4756C 50.82909 791.6533 51.11015 791.8037 51.40601 791.9263C 51.70186 792.0488 52.00683 792.1411 52.32091 792.2036C 52.63499 792.2661 52.95215 792.2969 53.27238 792.2969C 53.59261 792.2969 53.90976 792.2661 54.22384 792.2036C 54.53791 792.1411 54.84288 792.0488 55.13874 791.9263C 55.43459 791.8037 55.71565 791.6533 55.98191 791.4756C 56.24818 791.2979 56.49453 791.0952 56.72097 790.8691C 56.94741 790.6431 57.14958 790.397 57.32749 790.1304C 57.50541 789.8643 57.65564 789.583 57.77819 789.2871C 57.90073 788.9912 57.99325 788.686 58.05572 788.3721C 58.11819 788.0581 58.14943 787.7407 58.14943 787.4199z" stroke="#C3C4C3" stroke-width="0.7503152" fill="none" /><path transform="matrix(1 0 0 -1 0 841)" d="M86.66141 787.4199C 86.66141 787.1001 86.63017 786.7827 86.56768 786.4688C 86.5052 786.1548 86.4127 785.8496 86.29015 785.5542C 86.1676 785.2583 86.01737 784.9775 85.83946 784.7109C 85.66155 784.4448 85.45938 784.1987 85.23295 783.9717C 85.00651 783.7456 84.76015 783.5435 84.49389 783.3657C 84.22762 783.188 83.94656 783.0376 83.65071 782.915C 83.35485 782.7925 83.04989 782.7002 82.73581 782.6377C 82.42174 782.5747 82.10458 782.5435 81.78436 782.5435C 81.46413 782.5435 81.14697 782.5747 80.83289 782.6377C 80.51881 782.7002 80.21384 782.7925 79.91798 782.915C 79.62213 783.0376 79.34107 783.188 79.07481 783.3657C 78.80855 783.5435 78.5622 783.7456 78.33576 783.9717C 78.10932 784.1987 77.90714 784.4448 77.72923 784.7109C 77.55132 784.9775 77.40109 785.2583 77.27855 785.5542C 77.156 785.8496 77.06349 786.1548 77.00102 786.4688C 76.93854 786.7827 76.9073 787.1001 76.90731 787.4199C 76.9073 787.7407 76.93854 788.0581 77.00102 788.3721C 77.06348 788.686 77.156 788.9912 77.27855 789.2871C 77.40109 789.583 77.55132 789.8643 77.72923 790.1304C 77.90715 790.397 78.10932 790.6431 78.33576 790.8691C 78.5622 791.0952 78.80855 791.2979 79.07481 791.4756C 79.34107 791.6533 79.62213 791.8037 79.91798 791.9263C 80.21384 792.0488 80.51881 792.1411 80.83289 792.2036C 81.14697 792.2661 81.46413 792.2969 81.78436 792.2969C 82.10458 792.2969 82.42174 792.2661 82.73581 792.2036C 83.04989 792.1411 83.35485 792.0488 83.65071 791.9263C 83.94656 791.8037 84.22762 791.6533 84.49389 791.4756C 84.76015 791.2979 85.00651 791.0952 85.23295 790.8691C 85.45938 790.6431 85.66155 790.397 85.83946 790.1304C 86.01737 789.8643 86.1676 789.583 86.29015 789.2871C 86.4127 788.9912 86.5052 788.686 86.56768 788.3721C 86.63017 788.0581 86.66141 787.7407 86.66141 787.4199z" stroke="#C3C4C3" stroke-width="0.7503152" fill="none" /></g><g clip-path="url(#6)"><path transform="matrix(1 0 0 -1 0 841)" d="M96.04034 701.8843L98.29129 701.8843L98.29129 701.8843L98.29129 701.1338L98.29129 701.1338L96.04034 701.1338M92.21374 701.8843L94.46468 701.8843L94.46468 701.8843L94.46468 701.1338L94.46468 701.1338L92.21374 701.1338M88.38712 701.8843L90.63807 701.8843L90.63807 701.8843L90.63807 701.1338L90.63807 701.1338L88.38712 701.1338M84.56052 701.8843L86.81146 701.8843L86.81146 701.8843L86.81146 701.1338L86.81146 701.1338L84.56052 701.1338M80.73391 701.8843L82.98486 701.8843L82.98486 701.8843L82.98486 701.1338L82.98486 701.1338L80.73391 701.1338M76.90731 701.8843L79.15825 701.8843L79.15825 701.8843L79.15825 701.1338L79.15825 701.1338L76.90731 701.1338M73.0807 701.8843L75.33165 701.8843L75.33165 701.8843L75.33165 701.1338L75.33165 701.1338L73.0807 701.1338M69.25409 701.8843L71.50504 701.8843L71.50504 701.8843L71.50504 701.1338L71.50504 701.1338L69.25409 701.1338M65.42748 701.8843L67.67843 701.8843L67.67843 701.8843L67.67843 701.1338L67.67843 701.1338L65.42748 701.1338M61.60088 701.8843L63.85182 701.8843L63.85182 701.8843L63.85182 701.1338L63.85182 701.1338L61.60088 701.1338M57.77427 701.8843L60.02522 701.8843L60.02522 701.8843L60.02522 701.1338L60.02522 701.1338L57.77427 701.1338M53.94766 701.8843L56.1986 701.8843L56.1986 701.8843L56.1986 701.1338L56.1986 701.1338L53.94766 701.1338M50.12106 701.8843L52.372 701.8843L52.372 701.8843L52.372 701.1338L52.372 701.1338L50.12106 701.1338M46.29445 701.8843L48.54539 701.8843L48.54539 701.8843L48.54539 701.1338L48.54539 701.1338L46.29445 701.1338M42.46784 701.8843L44.71878 701.8843L44.71878 701.8843L44.71878 701.1338L44.71878 701.1338L42.46784 701.1338M38.64123 701.8843L40.89218 701.8843L40.89218 701.8843L40.89218 701.1338L40.89218 701.1338L38.64123 701.1338M34.81462 701.8843L37.06557 701.8843L37.06557 701.8843L37.06557 701.1338L37.06557 701.1338L34.81462 701.1338M30.98802 701.8843L33.23896 701.8843L33.23896 701.8843L33.23896 701.1338L33.23896 701.1338L30.98802 701.1338M27.16141 701.8843L29.41236 701.8843L29.41236 701.8843L29.41236 701.1338L29.41236 701.1338L27.16141 701.1338M23.3348 701.8843L25.58575 701.8843L25.58575 701.8843L25.58575 701.1338L25.58575 701.1338L23.3348 701.1338M19.50819 701.8843L21.75914 701.8843L21.75914 701.8843L21.75914 701.1338L21.75914 701.1338L19.50819 701.1338" stroke="none" fill="#B5B6B5" fill-rule="winding" /></g><g clip-path="url(#7)"><path transform="matrix(1 0 0 -1 0 841)" d="M578.493 466.2852L580.744 466.2852L580.744 466.2852L580.744 465.5347L580.744 465.5347L578.493 465.5347M574.7538 466.2852L577.0047 466.2852L577.0047 466.2852L577.0047 465.5347L577.0047 465.5347L574.7538 465.5347M571.0145 466.2852L573.2654 466.2852L573.2654 466.2852L573.2654 465.5347L573.2654 465.5347L571.0145 465.5347M567.2752 466.2852L569.5261 466.2852L569.5261 466.2852L569.5261 465.5347L569.5261 465.5347L567.2752 465.5347M563.5359 466.2852L565.7869 466.2852L565.7869 466.2852L565.7869 465.5347L565.7869 465.5347L563.5359 465.5347M559.7966 466.2852L562.0476 466.2852L562.0476 466.2852L562.0476 465.5347L562.0476 465.5347L559.7966 465.5347M556.0574 466.2852L558.3083 466.2852L558.3083 466.2852L558.3083 465.5347L558.3083 465.5347L556.0574 465.5347M552.3181 466.2852L554.569 466.2852L554.569 466.2852L554.569 465.5347L554.569 465.5347L552.3181 465.5347M548.5788 466.2852L550.8298 466.2852L550.8298 466.2852L550.8298 465.5347L550.8298 465.5347L548.5788 465.5347M544.8395 466.2852L547.0905 466.2852L547.0905 466.2852L547.0905 465.5347L547.0905 465.5347L544.8395 465.5347M541.1003 466.2852L543.3512 466.2852L543.3512 466.2852L543.3512 465.5347L543.3512 465.5347L541.1003 465.5347M537.361 466.2852L539.6119 466.2852L539.6119 466.2852L539.6119 465.5347L539.6119 465.5347L537.361 465.5347M533.6217 466.2852L535.8726 466.2852L535.8726 466.2852L535.8726 465.5347L535.8726 465.5347L533.6217 465.5347M529.8824 466.2852L532.1334 466.2852L532.1334 466.2852L532.1334 465.5347L532.1334 465.5347L529.8824 465.5347M526.1431 466.2852L528.3941 466.2852L528.3941 466.2852L528.3941 465.5347L528.3941 465.5347L526.1431 465.5347M522.4039 466.2852L524.6548 466.2852L524.6548 466.2852L524.6548 465.5347L524.6548 465.5347L522.4039 465.5347M518.6646 466.2852L520.9155 466.2852L520.9155 466.2852L520.9155 465.5347L520.9155 465.5347L518.6646 465.5347M514.9253 466.2852L517.1763 466.2852L517.1763 466.2852L517.1763 465.5347L517.1763 465.5347L514.9253 465.5347M511.1861 466.2852L513.437 466.2852L513.437 466.2852L513.437 465.5347L513.437 465.5347L511.1861 465.5347M507.4468 466.2852L509.6977 466.2852L509.6977 466.2852L509.6977 465.5347L509.6977 465.5347L507.4468 465.5347M503.7075 466.2852L505.9585 466.2852L505.9585 466.2852L505.9585 465.5347L505.9585 465.5347L503.7075 465.5347M499.9682 466.2852L502.2191 466.2852L502.2191 466.2852L502.2191 465.5347L502.2191 465.5347L499.9682 465.5347M496.2289 466.2852L498.4799 466.2852L498.4799 466.2852L498.4799 465.5347L498.4799 465.5347L496.2289 465.5347M492.4897 466.2852L494.7406 466.2852L494.7406 466.2852L494.7406 465.5347L494.7406 465.5347L492.4897 465.5347M488.7504 466.2852L491.0013 466.2852L491.0013 466.2852L491.0013 465.5347L491.0013 465.5347L488.7504 465.5347M485.0111 466.2852L487.2621 466.2852L487.2621 466.2852L487.2621 465.5347L487.2621 465.5347L485.0111 465.5347M481.2719 466.2852L483.5228 466.2852L483.5228 466.2852L483.5228 465.5347L483.5228 465.5347L481.2719 465.5347M477.5326 466.2852L479.7835 466.2852L479.7835 466.2852L479.7835 465.5347L479.7835 465.5347L477.5326 465.5347M473.7933 466.2852L476.0442 466.2852L476.0442 466.2852L476.0442 465.5347L476.0442 465.5347L473.7933 465.5347M470.054 466.2852L472.305 466.2852L472.305 466.2852L472.305 465.5347L472.305 465.5347L470.054 465.5347M466.3148 466.2852L468.5657 466.2852L468.5657 466.2852L468.5657 465.5347L468.5657 465.5347L466.3148 465.5347M462.5754 466.2852L464.8264 466.2852L464.8264 466.2852L464.8264 465.5347L464.8264 465.5347L462.5754 465.5347M458.8362 466.2852L461.0871 466.2852L461.0871 466.2852L461.0871 465.5347L461.0871 465.5347L458.8362 465.5347M455.0969 466.2852L457.3479 466.2852L457.3479 466.2852L457.3479 465.5347L457.3479 465.5347L455.0969 465.5347M451.3576 466.2852L453.6086 466.2852L453.6086 466.2852L453.6086 465.5347L453.6086 465.5347L451.3576 465.5347M447.6183 466.2852L449.8693 466.2852L449.8693 466.2852L449.8693 465.5347L449.8693 465.5347L447.6183 465.5347M443.8791 466.2852L446.1301 466.2852L446.1301 466.2852L446.1301 465.5347L446.1301 465.5347L443.8791 465.5347M440.1398 466.2852L442.3908 466.2852L442.3908 466.2852L442.3908 465.5347L442.3908 465.5347L440.1398 465.5347M436.4005 466.2852L438.6515 466.2852L438.6515 466.2852L438.6515 465.5347L438.6515 465.5347L436.4005 465.5347M432.6613 466.2852L434.9122 466.2852L434.9122 466.2852L434.9122 465.5347L434.9122 465.5347L432.6613 465.5347M428.922 466.2852L431.1729 466.2852L431.1729 466.2852L431.1729 465.5347L431.1729 465.5347L428.922 465.5347M425.1827 466.2852L427.4337 466.2852L427.4337 466.2852L427.4337 465.5347L427.4337 465.5347L425.1827 465.5347M421.4435 466.2852L423.6944 466.2852L423.6944 466.2852L423.6944 465.5347L423.6944 465.5347L421.4435 465.5347M417.7042 466.2852L419.9551 466.2852L419.9551 466.2852L419.9551 465.5347L419.9551 465.5347L417.7042 465.5347M413.9649 466.2852L416.2158 466.2852L416.2158 466.2852L416.2158 465.5347L416.2158 465.5347L413.9649 465.5347M410.2256 466.2852L412.4765 466.2852L412.4765 466.2852L412.4765 465.5347L412.4765 465.5347L410.2256 465.5347M406.4863 466.2852L408.7373 466.2852L408.7373 466.2852L408.7373 465.5347L408.7373 465.5347L406.4863 465.5347M402.7471 466.2852L404.998 466.2852L404.998 466.2852L404.998 465.5347L404.998 465.5347L402.7471 465.5347M399.0078 466.2852L401.2587 466.2852L401.2587 466.2852L401.2587 465.5347L401.2587 465.5347L399.0078 465.5347M395.2685 466.2852L397.5194 466.2852L397.5194 466.2852L397.5194 465.5347L397.5194 465.5347L395.2685 465.5347M391.5292 466.2852L393.7802 466.2852L393.7802 466.2852L393.7802 465.5347L393.7802 465.5347L391.5292 465.5347M387.7899 466.2852L390.0409 466.2852L390.0409 466.2852L390.0409 465.5347L390.0409 465.5347L387.7899 465.5347M384.0507 466.2852L386.3016 466.2852L386.3016 466.2852L386.3016 465.5347L386.3016 465.5347L384.0507 465.5347M380.3114 466.2852L382.5623 466.2852L382.5623 466.2852L382.5623 465.5347L382.5623 465.5347L380.3114 465.5347M376.5721 466.2852L378.8231 466.2852L378.8231 466.2852L378.8231 465.5347L378.8231 465.5347L376.5721 465.5347M372.8329 466.2852L375.0838 466.2852L375.0838 466.2852L375.0838 465.5347L375.0838 465.5347L372.8329 465.5347M369.0936 466.2852L371.3445 466.2852L371.3445 466.2852L371.3445 465.5347L371.3445 465.5347L369.0936 465.5347M365.3543 466.2852L367.6052 466.2852L367.6052 466.2852L367.6052 465.5347L367.6052 465.5347L365.3543 465.5347M361.615 466.2852L363.866 466.2852L363.866 466.2852L363.866 465.5347L363.866 465.5347L361.615 465.5347M357.8758 466.2852L360.1267 466.2852L360.1267 466.2852L360.1267 465.5347L360.1267 465.5347L357.8758 465.5347M354.1365 466.2852L356.3874 466.2852L356.3874 466.2852L356.3874 465.5347L356.3874 465.5347L354.1365 465.5347M350.3972 466.2852L352.6481 466.2852L352.6481 466.2852L352.6481 465.5347L352.6481 465.5347L350.3972 465.5347M346.6579 466.2852L348.9088 466.2852L348.9088 466.2852L348.9088 465.5347L348.9088 465.5347L346.6579 465.5347M342.9186 466.2852L345.1696 466.2852L345.1696 466.2852L345.1696 465.5347L345.1696 465.5347L342.9186 465.5347M339.1794 466.2852L341.4303 466.2852L341.4303 466.2852L341.4303 465.5347L341.4303 465.5347L339.1794 465.5347M335.4401 466.2852L337.691 466.2852L337.691 466.2852L337.691 465.5347L337.691 465.5347L335.4401 465.5347M331.7008 466.2852L333.9518 466.2852L333.9518 466.2852L333.9518 465.5347L333.9518 465.5347L331.7008 465.5347M327.9615 466.2852L330.2125 466.2852L330.2125 466.2852L330.2125 465.5347L330.2125 465.5347L327.9615 465.5347M324.2223 466.2852L326.4732 466.2852L326.4732 466.2852L326.4732 465.5347L326.4732 465.5347L324.2223 465.5347M320.483 466.2852L322.7339 466.2852L322.7339 466.2852L322.7339 465.5347L322.7339 465.5347L320.483 465.5347M316.7437 466.2852L318.9947 466.2852L318.9947 466.2852L318.9947 465.5347L318.9947 465.5347L316.7437 465.5347M313.0045 466.2852L315.2554 466.2852L315.2554 466.2852L315.2554 465.5347L315.2554 465.5347L313.0045 465.5347M309.2652 466.2852L311.5161 466.2852L311.5161 466.2852L311.5161 465.5347L311.5161 465.5347L309.2652 465.5347M305.5259 466.2852L307.7768 466.2852L307.7768 466.2852L307.7768 465.5347L307.7768 465.5347L305.5259 465.5347M301.7866 466.2852L304.0376 466.2852L304.0376 466.2852L304.0376 465.5347L304.0376 465.5347L301.7866 465.5347M298.0473 466.2852L300.2983 466.2852L300.2983 466.2852L300.2983 465.5347L300.2983 465.5347L298.0473 465.5347M294.3081 466.2852L296.559 466.2852L296.559 466.2852L296.559 465.5347L296.559 465.5347L294.3081 465.5347M290.5688 466.2852L292.8197 466.2852L292.8197 466.2852L292.8197 465.5347L292.8197 465.5347L290.5688 465.5347M286.8295 466.2852L289.0804 466.2852L289.0804 466.2852L289.0804 465.5347L289.0804 465.5347L286.8295 465.5347M283.0902 466.2852L285.3412 466.2852L285.3412 466.2852L285.3412 465.5347L285.3412 465.5347L283.0902 465.5347M279.351 466.2852L281.6019 466.2852L281.6019 466.2852L281.6019 465.5347L281.6019 465.5347L279.351 465.5347M275.6117 466.2852L277.8626 466.2852L277.8626 466.2852L277.8626 465.5347L277.8626 465.5347L275.6117 465.5347M271.8724 466.2852L274.1234 466.2852L274.1234 466.2852L274.1234 465.5347L274.1234 465.5347L271.8724 465.5347M268.1331 466.2852L270.3841 466.2852L270.3841 466.2852L270.3841 465.5347L270.3841 465.5347L268.1331 465.5347M264.3939 466.2852L266.6448 466.2852L266.6448 466.2852L266.6448 465.5347L266.6448 465.5347L264.3939 465.5347M260.6546 466.2852L262.9055 466.2852L262.9055 466.2852L262.9055 465.5347L262.9055 465.5347L260.6546 465.5347M256.9153 466.2852L259.1663 466.2852L259.1663 466.2852L259.1663 465.5347L259.1663 465.5347L256.9153 465.5347M253.176 466.2852L255.427 466.2852L255.427 466.2852L255.427 465.5347L255.427 465.5347L253.176 465.5347M249.4368 466.2852L251.6877 466.2852L251.6877 466.2852L251.6877 465.5347L251.6877 465.5347L249.4368 465.5347M245.6975 466.2852L247.9484 466.2852L247.9484 466.2852L247.9484 465.5347L247.9484 465.5347L245.6975 465.5347M241.9582 466.2852L244.2091 466.2852L244.2091 466.2852L244.2091 465.5347L244.2091 465.5347L241.9582 465.5347M238.2189 466.2852L240.4699 466.2852L240.4699 466.2852L240.4699 465.5347L240.4699 465.5347L238.2189 465.5347M234.4796 466.2852L236.7306 466.2852L236.7306 466.2852L236.7306 465.5347L236.7306 465.5347L234.4796 465.5347M230.7404 466.2852L232.9913 466.2852L232.9913 466.2852L232.9913 465.5347L232.9913 465.5347L230.7404 465.5347M227.0011 466.2852L229.252 466.2852L229.252 466.2852L229.252 465.5347L229.252 465.5347L227.0011 465.5347M223.2618 466.2852L225.5128 466.2852L225.5128 466.2852L225.5128 465.5347L225.5128 465.5347L223.2618 465.5347M219.5226 466.2852L221.7735 466.2852L221.7735 466.2852L221.7735 465.5347L221.7735 465.5347L219.5226 465.5347M215.7833 466.2852L218.0342 466.2852L218.0342 466.2852L218.0342 465.5347L218.0342 465.5347L215.7833 465.5347M212.044 466.2852L214.295 466.2852L214.295 466.2852L214.295 465.5347L214.295 465.5347L212.044 465.5347M208.3047 466.2852L210.5557 466.2852L210.5557 466.2852L210.5557 465.5347L210.5557 465.5347L208.3047 465.5347M204.5654 466.2852L206.8164 466.2852L206.8164 466.2852L206.8164 465.5347L206.8164 465.5347L204.5654 465.5347M200.8262 466.2852L203.0771 466.2852L203.0771 466.2852L203.0771 465.5347L203.0771 465.5347L200.8262 465.5347M197.0869 466.2852L199.3378 466.2852L199.3378 466.2852L199.3378 465.5347L199.3378 465.5347L197.0869 465.5347M193.3476 466.2852L195.5986 466.2852L195.5986 466.2852L195.5986 465.5347L195.5986 465.5347L193.3476 465.5347M189.6083 466.2852L191.8593 466.2852L191.8593 466.2852L191.8593 465.5347L191.8593 465.5347L189.6083 465.5347M185.8691 466.2852L188.12 466.2852L188.12 466.2852L188.12 465.5347L188.12 465.5347L185.8691 465.5347M182.1298 466.2852L184.3807 466.2852L184.3807 466.2852L184.3807 465.5347L184.3807 465.5347L182.1298 465.5347M178.3905 466.2852L180.6414 466.2852L180.6414 466.2852L180.6414 465.5347L180.6414 465.5347L178.3905 465.5347M174.6512 466.2852L176.9022 466.2852L176.9022 466.2852L176.9022 465.5347L176.9022 465.5347L174.6512 465.5347M170.912 466.2852L173.1629 466.2852L173.1629 466.2852L173.1629 465.5347L173.1629 465.5347L170.912 465.5347M167.1727 466.2852L169.4236 466.2852L169.4236 466.2852L169.4236 465.5347L169.4236 465.5347L167.1727 465.5347M163.4334 466.2852L165.6844 466.2852L165.6844 466.2852L165.6844 465.5347L165.6844 465.5347L163.4334 465.5347M159.6941 466.2852L161.9451 466.2852L161.9451 466.2852L161.9451 465.5347L161.9451 465.5347L159.6941 465.5347M155.9549 466.2852L158.2058 466.2852L158.2058 466.2852L158.2058 465.5347L158.2058 465.5347L155.9549 465.5347M152.2156 466.2852L154.4665 466.2852L154.4665 466.2852L154.4665 465.5347L154.4665 465.5347L152.2156 465.5347M148.4763 466.2852L150.7273 466.2852L150.7273 466.2852L150.7273 465.5347L150.7273 465.5347L148.4763 465.5347M144.737 466.2852L146.988 466.2852L146.988 466.2852L146.988 465.5347L146.988 465.5347L144.737 465.5347M140.9978 466.2852L143.2487 466.2852L143.2487 466.2852L143.2487 465.5347L143.2487 465.5347L140.9978 465.5347M137.2585 466.2852L139.5094 466.2852L139.5094 466.2852L139.5094 465.5347L139.5094 465.5347L137.2585 465.5347M133.5192 466.2852L135.7702 466.2852L135.7702 466.2852L135.7702 465.5347L135.7702 465.5347L133.5192 465.5347M129.7799 466.2852L132.0309 466.2852L132.0309 466.2852L132.0309 465.5347L132.0309 465.5347L129.7799 465.5347M126.0407 466.2852L128.2916 466.2852L128.2916 466.2852L128.2916 465.5347L128.2916 465.5347L126.0407 465.5347M122.3014 466.2852L124.5523 466.2852L124.5523 466.2852L124.5523 465.5347L124.5523 465.5347L122.3014 465.5347" stroke="none" fill="#C3C4C3" fill-rule="winding" /></g><g clip-path="url(#8)"><path transform="matrix(1 0 0 -1 0 841)" d="M107.2951 835.4404L108.0454 835.4404L108.0454 835.4404L108.0454 -562.397L108.0454 -562.397L107.2951 -562.397z" stroke="none" fill="#B5B6B5" fill-rule="winding" /><g transform="matrix(0.7503152 0 0 0.7503152 122.3014 82.09149)"><g transform="matrix(1 0 0 1 0 0)"><image x="0" y="0" xlink:href="img_27.png" width="240" height="165" /></g></g><g transform="matrix(0.7503152 0 0 0.7503151 122.3014 439.9919)"><g transform="matrix(1 0 0 1 0 0)"><image x="0" y="0" xlink:href="img_28.png" width="264" height="170" /></g></g></g></g></g></g></svg>