<svg xmlns="http://www.w3.org/2000/svg" xmlns:xlink="http://www.w3.org/1999/xlink" id="body_10" preserveAspectRatio="xMinYMin meet" viewBox="0 0 792 1121"><defs><clipPath id="1"><path d="M0 841L0 -0.9199829L0 -0.9199829L594.96 -0.9199829L594.96 -0.9199829L594.96 841L594.96 841L0 841z" /></clipPath><clipPath id="2"><path d="M0 -0.9199829L595.2 -0.9199829L595.2 -0.9199829L595.2 841.24L595.2 841.24L0 841.24z" /></clipPath><clipPath id="3"><path d="M0 55.0802L594.9999 55.0802L594.9999 55.0802L594.9999 790.389L594.9999 790.389L0 790.389z" /></clipPath><clipPath id="4"><path d="M122.3014 273.422L580.744 273.422L580.744 273.422L580.744 274.1725L580.744 274.1725L122.3014 274.1725z" /></clipPath><clipPath id="5"><path d="M0 55.0802L594.9999 55.0802L594.9999 55.0802L594.9999 790.389L594.9999 790.389L0 790.389z" /></clipPath><clipPath id="6"><path d="M19.5082 707.1044L98.29129 707.1044L98.29129 707.1044L98.29129 707.8544L98.29129 707.8544L19.5082 707.8544z" /></clipPath><clipPath id="7"><path d="M0 55.0802L594.9999 55.0802L594.9999 55.0802L594.9999 790.389L594.9999 790.389L0 790.389z" /></clipPath><clipPath id="8"><path d="M19.5082 767.1297L98.29129 767.1297L98.29129 767.1297L98.29129 767.8797L98.29129 767.8797L19.5082 767.8797z" /></clipPath><clipPath id="9"><path d="M0 55.0802L594.9999 55.0802L594.9999 55.0802L594.9999 790.389L594.9999 790.389L0 790.389z" /></clipPath></defs><g transform="matrix(1.333333 0 0 1.333333 0 0)"><g><g clip-path="url(#1)"><g clip-path="url(#2)"><path transform="matrix(1 0 0 -1 0 841)" d="M0 841.92L792.9999 841.92L792.9999 841.92L792.9999 -280.0799L792.9999 -280.0799L0 -280.0799z" stroke="none" fill="#FFFFFF" fill-rule="winding" /><path transform="matrix(1 0 0 -1 0 841)" d="M0 796.92L594.9999 796.92L594.9999 796.92L594.9999 795.92L594.9999 795.92L0 795.92z" stroke="none" fill="#B7B5B5" fill-rule="winding" /><g transform="matrix(0.1840659 0 0 0.1886792 510 12.08002)"><g transform="matrix(1 0 0 1 0 0)"><image x="0" y="0" xlink:href="img_01.png" width="364" height="106" /></g></g></g><g clip-path="url(#3)"><path transform="matrix(1 0 0 -1 0 841)" d="M0 7403.7L594.9999 7403.7L594.9999 7403.7L594.9999 -12822.55L594.9999 -12822.55L0 -12822.55z" stroke="none" fill="#FFFFFF" fill-rule="winding" /></g><g clip-path="url(#4)"><path transform="matrix(1 0 0 -1 0 841)" d="M578.493 567.5776L580.744 567.5776L580.744 567.5776L580.744 566.8271L580.744 566.8271L578.493 566.8271M574.7538 567.5776L577.0047 567.5776L577.0047 567.5776L577.0047 566.8271L577.0047 566.8271L574.7538 566.8271M571.0145 567.5776L573.2654 567.5776L573.2654 567.5776L573.2654 566.8271L573.2654 566.8271L571.0145 566.8271M567.2752 567.5776L569.5261 567.5776L569.5261 567.5776L569.5261 566.8271L569.5261 566.8271L567.2752 566.8271M563.5359 567.5776L565.7869 567.5776L565.7869 567.5776L565.7869 566.8271L565.7869 566.8271L563.5359 566.8271M559.7966 567.5776L562.0476 567.5776L562.0476 567.5776L562.0476 566.8271L562.0476 566.8271L559.7966 566.8271M556.0574 567.5776L558.3083 567.5776L558.3083 567.5776L558.3083 566.8271L558.3083 566.8271L556.0574 566.8271M552.3181 567.5776L554.569 567.5776L554.569 567.5776L554.569 566.8271L554.569 566.8271L552.3181 566.8271M548.5788 567.5776L550.8298 567.5776L550.8298 567.5776L550.8298 566.8271L550.8298 566.8271L548.5788 566.8271M544.8395 567.5776L547.0905 567.5776L547.0905 567.5776L547.0905 566.8271L547.0905 566.8271L544.8395 566.8271M541.1003 567.5776L543.3512 567.5776L543.3512 567.5776L543.3512 566.8271L543.3512 566.8271L541.1003 566.8271M537.361 567.5776L539.6119 567.5776L539.6119 567.5776L539.6119 566.8271L539.6119 566.8271L537.361 566.8271M533.6217 567.5776L535.8726 567.5776L535.8726 567.5776L535.8726 566.8271L535.8726 566.8271L533.6217 566.8271M529.8824 567.5776L532.1334 567.5776L532.1334 567.5776L532.1334 566.8271L532.1334 566.8271L529.8824 566.8271M526.1431 567.5776L528.3941 567.5776L528.3941 567.5776L528.3941 566.8271L528.3941 566.8271L526.1431 566.8271M522.4039 567.5776L524.6548 567.5776L524.6548 567.5776L524.6548 566.8271L524.6548 566.8271L522.4039 566.8271M518.6646 567.5776L520.9155 567.5776L520.9155 567.5776L520.9155 566.8271L520.9155 566.8271L518.6646 566.8271M514.9253 567.5776L517.1763 567.5776L517.1763 567.5776L517.1763 566.8271L517.1763 566.8271L514.9253 566.8271M511.1861 567.5776L513.437 567.5776L513.437 567.5776L513.437 566.8271L513.437 566.8271L511.1861 566.8271M507.4468 567.5776L509.6977 567.5776L509.6977 567.5776L509.6977 566.8271L509.6977 566.8271L507.4468 566.8271M503.7075 567.5776L505.9585 567.5776L505.9585 567.5776L505.9585 566.8271L505.9585 566.8271L503.7075 566.8271M499.9682 567.5776L502.2191 567.5776L502.2191 567.5776L502.2191 566.8271L502.2191 566.8271L499.9682 566.8271M496.2289 567.5776L498.4799 567.5776L498.4799 567.5776L498.4799 566.8271L498.4799 566.8271L496.2289 566.8271M492.4897 567.5776L494.7406 567.5776L494.7406 567.5776L494.7406 566.8271L494.7406 566.8271L492.4897 566.8271M488.7504 567.5776L491.0013 567.5776L491.0013 567.5776L491.0013 566.8271L491.0013 566.8271L488.7504 566.8271M485.0111 567.5776L487.2621 567.5776L487.2621 567.5776L487.2621 566.8271L487.2621 566.8271L485.0111 566.8271M481.2719 567.5776L483.5228 567.5776L483.5228 567.5776L483.5228 566.8271L483.5228 566.8271L481.2719 566.8271M477.5326 567.5776L479.7835 567.5776L479.7835 567.5776L479.7835 566.8271L479.7835 566.8271L477.5326 566.8271M473.7933 567.5776L476.0442 567.5776L476.0442 567.5776L476.0442 566.8271L476.0442 566.8271L473.7933 566.8271M470.054 567.5776L472.305 567.5776L472.305 567.5776L472.305 566.8271L472.305 566.8271L470.054 566.8271M466.3148 567.5776L468.5657 567.5776L468.5657 567.5776L468.5657 566.8271L468.5657 566.8271L466.3148 566.8271M462.5754 567.5776L464.8264 567.5776L464.8264 567.5776L464.8264 566.8271L464.8264 566.8271L462.5754 566.8271M458.8362 567.5776L461.0871 567.5776L461.0871 567.5776L461.0871 566.8271L461.0871 566.8271L458.8362 566.8271M455.0969 567.5776L457.3479 567.5776L457.3479 567.5776L457.3479 566.8271L457.3479 566.8271L455.0969 566.8271M451.3576 567.5776L453.6086 567.5776L453.6086 567.5776L453.6086 566.8271L453.6086 566.8271L451.3576 566.8271M447.6183 567.5776L449.8693 567.5776L449.8693 567.5776L449.8693 566.8271L449.8693 566.8271L447.6183 566.8271M443.8791 567.5776L446.1301 567.5776L446.1301 567.5776L446.1301 566.8271L446.1301 566.8271L443.8791 566.8271M440.1398 567.5776L442.3908 567.5776L442.3908 567.5776L442.3908 566.8271L442.3908 566.8271L440.1398 566.8271M436.4005 567.5776L438.6515 567.5776L438.6515 567.5776L438.6515 566.8271L438.6515 566.8271L436.4005 566.8271M432.6613 567.5776L434.9122 567.5776L434.9122 567.5776L434.9122 566.8271L434.9122 566.8271L432.6613 566.8271M428.922 567.5776L431.1729 567.5776L431.1729 567.5776L431.1729 566.8271L431.1729 566.8271L428.922 566.8271M425.1827 567.5776L427.4337 567.5776L427.4337 567.5776L427.4337 566.8271L427.4337 566.8271L425.1827 566.8271M421.4435 567.5776L423.6944 567.5776L423.6944 567.5776L423.6944 566.8271L423.6944 566.8271L421.4435 566.8271M417.7042 567.5776L419.9551 567.5776L419.9551 567.5776L419.9551 566.8271L419.9551 566.8271L417.7042 566.8271M413.9649 567.5776L416.2158 567.5776L416.2158 567.5776L416.2158 566.8271L416.2158 566.8271L413.9649 566.8271M410.2256 567.5776L412.4765 567.5776L412.4765 567.5776L412.4765 566.8271L412.4765 566.8271L410.2256 566.8271M406.4863 567.5776L408.7373 567.5776L408.7373 567.5776L408.7373 566.8271L408.7373 566.8271L406.4863 566.8271M402.7471 567.5776L404.998 567.5776L404.998 567.5776L404.998 566.8271L404.998 566.8271L402.7471 566.8271M399.0078 567.5776L401.2587 567.5776L401.2587 567.5776L401.2587 566.8271L401.2587 566.8271L399.0078 566.8271M395.2685 567.5776L397.5194 567.5776L397.5194 567.5776L397.5194 566.8271L397.5194 566.8271L395.2685 566.8271M391.5292 567.5776L393.7802 567.5776L393.7802 567.5776L393.7802 566.8271L393.7802 566.8271L391.5292 566.8271M387.7899 567.5776L390.0409 567.5776L390.0409 567.5776L390.0409 566.8271L390.0409 566.8271L387.7899 566.8271M384.0507 567.5776L386.3016 567.5776L386.3016 567.5776L386.3016 566.8271L386.3016 566.8271L384.0507 566.8271M380.3114 567.5776L382.5623 567.5776L382.5623 567.5776L382.5623 566.8271L382.5623 566.8271L380.3114 566.8271M376.5721 567.5776L378.8231 567.5776L378.8231 567.5776L378.8231 566.8271L378.8231 566.8271L376.5721 566.8271M372.8329 567.5776L375.0838 567.5776L375.0838 567.5776L375.0838 566.8271L375.0838 566.8271L372.8329 566.8271M369.0936 567.5776L371.3445 567.5776L371.3445 567.5776L371.3445 566.8271L371.3445 566.8271L369.0936 566.8271M365.3543 567.5776L367.6052 567.5776L367.6052 567.5776L367.6052 566.8271L367.6052 566.8271L365.3543 566.8271M361.615 567.5776L363.866 567.5776L363.866 567.5776L363.866 566.8271L363.866 566.8271L361.615 566.8271M357.8758 567.5776L360.1267 567.5776L360.1267 567.5776L360.1267 566.8271L360.1267 566.8271L357.8758 566.8271M354.1365 567.5776L356.3874 567.5776L356.3874 567.5776L356.3874 566.8271L356.3874 566.8271L354.1365 566.8271M350.3972 567.5776L352.6481 567.5776L352.6481 567.5776L352.6481 566.8271L352.6481 566.8271L350.3972 566.8271M346.6579 567.5776L348.9088 567.5776L348.9088 567.5776L348.9088 566.8271L348.9088 566.8271L346.6579 566.8271M342.9186 567.5776L345.1696 567.5776L345.1696 567.5776L345.1696 566.8271L345.1696 566.8271L342.9186 566.8271M339.1794 567.5776L341.4303 567.5776L341.4303 567.5776L341.4303 566.8271L341.4303 566.8271L339.1794 566.8271M335.4401 567.5776L337.691 567.5776L337.691 567.5776L337.691 566.8271L337.691 566.8271L335.4401 566.8271M331.7008 567.5776L333.9518 567.5776L333.9518 567.5776L333.9518 566.8271L333.9518 566.8271L331.7008 566.8271M327.9615 567.5776L330.2125 567.5776L330.2125 567.5776L330.2125 566.8271L330.2125 566.8271L327.9615 566.8271M324.2223 567.5776L326.4732 567.5776L326.4732 567.5776L326.4732 566.8271L326.4732 566.8271L324.2223 566.8271M320.483 567.5776L322.7339 567.5776L322.7339 567.5776L322.7339 566.8271L322.7339 566.8271L320.483 566.8271M316.7437 567.5776L318.9947 567.5776L318.9947 567.5776L318.9947 566.8271L318.9947 566.8271L316.7437 566.8271M313.0045 567.5776L315.2554 567.5776L315.2554 567.5776L315.2554 566.8271L315.2554 566.8271L313.0045 566.8271M309.2652 567.5776L311.5161 567.5776L311.5161 567.5776L311.5161 566.8271L311.5161 566.8271L309.2652 566.8271M305.5259 567.5776L307.7768 567.5776L307.7768 567.5776L307.7768 566.8271L307.7768 566.8271L305.5259 566.8271M301.7866 567.5776L304.0376 567.5776L304.0376 567.5776L304.0376 566.8271L304.0376 566.8271L301.7866 566.8271M298.0473 567.5776L300.2983 567.5776L300.2983 567.5776L300.2983 566.8271L300.2983 566.8271L298.0473 566.8271M294.3081 567.5776L296.559 567.5776L296.559 567.5776L296.559 566.8271L296.559 566.8271L294.3081 566.8271M290.5688 567.5776L292.8197 567.5776L292.8197 567.5776L292.8197 566.8271L292.8197 566.8271L290.5688 566.8271M286.8295 567.5776L289.0804 567.5776L289.0804 567.5776L289.0804 566.8271L289.0804 566.8271L286.8295 566.8271M283.0902 567.5776L285.3412 567.5776L285.3412 567.5776L285.3412 566.8271L285.3412 566.8271L283.0902 566.8271M279.351 567.5776L281.6019 567.5776L281.6019 567.5776L281.6019 566.8271L281.6019 566.8271L279.351 566.8271M275.6117 567.5776L277.8626 567.5776L277.8626 567.5776L277.8626 566.8271L277.8626 566.8271L275.6117 566.8271M271.8724 567.5776L274.1234 567.5776L274.1234 567.5776L274.1234 566.8271L274.1234 566.8271L271.8724 566.8271M268.1331 567.5776L270.3841 567.5776L270.3841 567.5776L270.3841 566.8271L270.3841 566.8271L268.1331 566.8271M264.3939 567.5776L266.6448 567.5776L266.6448 567.5776L266.6448 566.8271L266.6448 566.8271L264.3939 566.8271M260.6546 567.5776L262.9055 567.5776L262.9055 567.5776L262.9055 566.8271L262.9055 566.8271L260.6546 566.8271M256.9153 567.5776L259.1663 567.5776L259.1663 567.5776L259.1663 566.8271L259.1663 566.8271L256.9153 566.8271M253.176 567.5776L255.427 567.5776L255.427 567.5776L255.427 566.8271L255.427 566.8271L253.176 566.8271M249.4368 567.5776L251.6877 567.5776L251.6877 567.5776L251.6877 566.8271L251.6877 566.8271L249.4368 566.8271M245.6975 567.5776L247.9484 567.5776L247.9484 567.5776L247.9484 566.8271L247.9484 566.8271L245.6975 566.8271M241.9582 567.5776L244.2091 567.5776L244.2091 567.5776L244.2091 566.8271L244.2091 566.8271L241.9582 566.8271M238.2189 567.5776L240.4699 567.5776L240.4699 567.5776L240.4699 566.8271L240.4699 566.8271L238.2189 566.8271M234.4796 567.5776L236.7306 567.5776L236.7306 567.5776L236.7306 566.8271L236.7306 566.8271L234.4796 566.8271M230.7404 567.5776L232.9913 567.5776L232.9913 567.5776L232.9913 566.8271L232.9913 566.8271L230.7404 566.8271M227.0011 567.5776L229.252 567.5776L229.252 567.5776L229.252 566.8271L229.252 566.8271L227.0011 566.8271M223.2618 567.5776L225.5128 567.5776L225.5128 567.5776L225.5128 566.8271L225.5128 566.8271L223.2618 566.8271M219.5226 567.5776L221.7735 567.5776L221.7735 567.5776L221.7735 566.8271L221.7735 566.8271L219.5226 566.8271M215.7833 567.5776L218.0342 567.5776L218.0342 567.5776L218.0342 566.8271L218.0342 566.8271L215.7833 566.8271M212.044 567.5776L214.295 567.5776L214.295 567.5776L214.295 566.8271L214.295 566.8271L212.044 566.8271M208.3047 567.5776L210.5557 567.5776L210.5557 567.5776L210.5557 566.8271L210.5557 566.8271L208.3047 566.8271M204.5654 567.5776L206.8164 567.5776L206.8164 567.5776L206.8164 566.8271L206.8164 566.8271L204.5654 566.8271M200.8262 567.5776L203.0771 567.5776L203.0771 567.5776L203.0771 566.8271L203.0771 566.8271L200.8262 566.8271M197.0869 567.5776L199.3378 567.5776L199.3378 567.5776L199.3378 566.8271L199.3378 566.8271L197.0869 566.8271M193.3476 567.5776L195.5986 567.5776L195.5986 567.5776L195.5986 566.8271L195.5986 566.8271L193.3476 566.8271M189.6083 567.5776L191.8593 567.5776L191.8593 567.5776L191.8593 566.8271L191.8593 566.8271L189.6083 566.8271M185.8691 567.5776L188.12 567.5776L188.12 567.5776L188.12 566.8271L188.12 566.8271L185.8691 566.8271M182.1298 567.5776L184.3807 567.5776L184.3807 567.5776L184.3807 566.8271L184.3807 566.8271L182.1298 566.8271M178.3905 567.5776L180.6414 567.5776L180.6414 567.5776L180.6414 566.8271L180.6414 566.8271L178.3905 566.8271M174.6512 567.5776L176.9022 567.5776L176.9022 567.5776L176.9022 566.8271L176.9022 566.8271L174.6512 566.8271M170.912 567.5776L173.1629 567.5776L173.1629 567.5776L173.1629 566.8271L173.1629 566.8271L170.912 566.8271M167.1727 567.5776L169.4236 567.5776L169.4236 567.5776L169.4236 566.8271L169.4236 566.8271L167.1727 566.8271M163.4334 567.5776L165.6844 567.5776L165.6844 567.5776L165.6844 566.8271L165.6844 566.8271L163.4334 566.8271M159.6941 567.5776L161.9451 567.5776L161.9451 567.5776L161.9451 566.8271L161.9451 566.8271L159.6941 566.8271M155.9549 567.5776L158.2058 567.5776L158.2058 567.5776L158.2058 566.8271L158.2058 566.8271L155.9549 566.8271M152.2156 567.5776L154.4665 567.5776L154.4665 567.5776L154.4665 566.8271L154.4665 566.8271L152.2156 566.8271M148.4763 567.5776L150.7273 567.5776L150.7273 567.5776L150.7273 566.8271L150.7273 566.8271L148.4763 566.8271M144.737 567.5776L146.988 567.5776L146.988 567.5776L146.988 566.8271L146.988 566.8271L144.737 566.8271M140.9978 567.5776L143.2487 567.5776L143.2487 567.5776L143.2487 566.8271L143.2487 566.8271L140.9978 566.8271M137.2585 567.5776L139.5094 567.5776L139.5094 567.5776L139.5094 566.8271L139.5094 566.8271L137.2585 566.8271M133.5192 567.5776L135.7702 567.5776L135.7702 567.5776L135.7702 566.8271L135.7702 566.8271L133.5192 566.8271M129.7799 567.5776L132.0309 567.5776L132.0309 567.5776L132.0309 566.8271L132.0309 566.8271L129.7799 566.8271M126.0407 567.5776L128.2916 567.5776L128.2916 567.5776L128.2916 566.8271L128.2916 566.8271L126.0407 566.8271M122.3014 567.5776L124.5523 567.5776L124.5523 567.5776L124.5523 566.8271L124.5523 566.8271L122.3014 566.8271" stroke="none" fill="#C3C4C3" fill-rule="winding" /></g><g clip-path="url(#5)"><path transform="matrix(1 0 0 -1 0 841)" d="M107.2951 908.2207L108.0454 908.2207L108.0454 908.2207L108.0454 194.6709L108.0454 194.6709L107.2951 194.6709z" stroke="none" fill="#B5B6B5" fill-rule="winding" /></g><g clip-path="url(#6)"><path transform="matrix(1 0 0 -1 0 841)" d="M96.04034 133.895L98.29129 133.895L98.29129 133.895L98.29129 133.145L98.29129 133.145L96.04034 133.145M92.21374 133.895L94.46468 133.895L94.46468 133.895L94.46468 133.145L94.46468 133.145L92.21374 133.145M88.38712 133.895L90.63807 133.895L90.63807 133.895L90.63807 133.145L90.63807 133.145L88.38712 133.145M84.56052 133.895L86.81146 133.895L86.81146 133.895L86.81146 133.145L86.81146 133.145L84.56052 133.145M80.73391 133.895L82.98486 133.895L82.98486 133.895L82.98486 133.145L82.98486 133.145L80.73391 133.145M76.90731 133.895L79.15825 133.895L79.15825 133.895L79.15825 133.145L79.15825 133.145L76.90731 133.145M73.0807 133.895L75.33165 133.895L75.33165 133.895L75.33165 133.145L75.33165 133.145L73.0807 133.145M69.25409 133.895L71.50504 133.895L71.50504 133.895L71.50504 133.145L71.50504 133.145L69.25409 133.145M65.42748 133.895L67.67843 133.895L67.67843 133.895L67.67843 133.145L67.67843 133.145L65.42748 133.145M61.60088 133.895L63.85182 133.895L63.85182 133.895L63.85182 133.145L63.85182 133.145L61.60088 133.145M57.77427 133.895L60.02522 133.895L60.02522 133.895L60.02522 133.145L60.02522 133.145L57.77427 133.145M53.94766 133.895L56.1986 133.895L56.1986 133.895L56.1986 133.145L56.1986 133.145L53.94766 133.145M50.12106 133.895L52.372 133.895L52.372 133.895L52.372 133.145L52.372 133.145L50.12106 133.145M46.29445 133.895L48.54539 133.895L48.54539 133.895L48.54539 133.145L48.54539 133.145L46.29445 133.145M42.46784 133.895L44.71878 133.895L44.71878 133.895L44.71878 133.145L44.71878 133.145L42.46784 133.145M38.64123 133.895L40.89218 133.895L40.89218 133.895L40.89218 133.145L40.89218 133.145L38.64123 133.145M34.81462 133.895L37.06557 133.895L37.06557 133.895L37.06557 133.145L37.06557 133.145L34.81462 133.145M30.98802 133.895L33.23896 133.895L33.23896 133.895L33.23896 133.145L33.23896 133.145L30.98802 133.145M27.16141 133.895L29.41236 133.895L29.41236 133.895L29.41236 133.145L29.41236 133.145L27.16141 133.145M23.3348 133.895L25.58575 133.895L25.58575 133.895L25.58575 133.145L25.58575 133.145L23.3348 133.145M19.50819 133.895L21.75914 133.895L21.75914 133.895L21.75914 133.145L21.75914 133.145L19.50819 133.145" stroke="none" fill="#B5B6B5" fill-rule="winding" /></g><g clip-path="url(#7)"><path transform="matrix(1 0 0 -1 0 841)" d="M29.63745 146.6504C 29.63745 146.3306 29.60621 146.0137 29.54374 145.6997C 29.48126 145.3857 29.38875 145.0811 29.2662 144.7856C 29.14366 144.4897 28.99343 144.2085 28.81552 143.9424C 28.6376 143.6758 28.43543 143.4287 28.20899 143.2026C 27.98255 142.9761 27.7362 142.7744 27.46994 142.5962C 27.20368 142.4185 26.92262 142.2681 26.62676 142.145C 26.33091 142.0225 26.02594 141.9302 25.71186 141.8682C 25.39779 141.8057 25.08063 141.7744 24.7604 141.7734C 24.44017 141.7744 24.12301 141.8057 23.80893 141.8682C 23.49485 141.9302 23.18989 142.0225 22.89403 142.145C 22.59818 142.2681 22.31712 142.4185 22.05085 142.5962C 21.78459 142.7744 21.53824 142.9761 21.3118 143.2026C 21.08537 143.4287 20.88319 143.6758 20.70528 143.9419C 20.52737 144.2085 20.37714 144.4897 20.25459 144.7856C 20.13205 145.0811 20.03954 145.3857 19.97706 145.6997C 19.91459 146.0137 19.88335 146.3306 19.88335 146.6504C 19.88335 146.9707 19.91459 147.2881 19.97706 147.6025C 20.03953 147.917 20.13204 148.2217 20.25459 148.5176C 20.37714 148.8135 20.52737 149.0942 20.70528 149.3604C 20.88319 149.6265 21.08537 149.873 21.3118 150.0996C 21.53824 150.3262 21.78459 150.5283 22.05085 150.7061C 22.31712 150.8843 22.59818 151.0347 22.89403 151.1567C 23.18989 151.2793 23.49485 151.3716 23.80893 151.4341C 24.12301 151.4961 24.44017 151.5278 24.7604 151.5278C 25.08063 151.5278 25.39779 151.4961 25.71186 151.4341C 26.02594 151.3716 26.33091 151.2793 26.62676 151.1567C 26.92262 151.0347 27.20368 150.8843 27.46994 150.7061C 27.7362 150.5283 27.98255 150.3262 28.20899 150.0996C 28.43543 149.873 28.6376 149.6265 28.81552 149.3604C 28.99343 149.0942 29.14366 148.8135 29.2662 148.5176C 29.38875 148.2217 29.48126 147.917 29.54374 147.6025C 29.60621 147.2881 29.63745 146.9707 29.63745 146.6504z" stroke="#C3C4C3" stroke-width="0.7503152" fill="none" /><path transform="matrix(1 0 0 -1 0 841)" d="M58.14943 146.6504C 58.14943 146.3306 58.11819 146.0137 58.05572 145.6997C 57.99325 145.3857 57.90073 145.0811 57.77819 144.7856C 57.65564 144.4897 57.50541 144.2085 57.32749 143.9424C 57.14958 143.6758 56.94741 143.4287 56.72097 143.2026C 56.49453 142.9761 56.24818 142.7744 55.98191 142.5962C 55.71565 142.4185 55.43459 142.2681 55.13874 142.145C 54.84288 142.0225 54.53791 141.9302 54.22384 141.8682C 53.90976 141.8057 53.59261 141.7744 53.27238 141.7734C 52.95215 141.7744 52.63499 141.8057 52.32091 141.8682C 52.00683 141.9302 51.70186 142.0225 51.40601 142.145C 51.11015 142.2681 50.82909 142.4185 50.56283 142.5962C 50.29657 142.7744 50.05022 142.9761 49.82378 143.2026C 49.59734 143.4287 49.39516 143.6758 49.21725 143.9419C 49.03934 144.2085 48.88911 144.4897 48.76657 144.7856C 48.64402 145.0811 48.55151 145.3857 48.48903 145.6997C 48.42656 146.0137 48.39533 146.3306 48.39533 146.6504C 48.39533 146.9707 48.42657 147.2881 48.48904 147.6025C 48.55151 147.917 48.64402 148.2217 48.76657 148.5176C 48.88911 148.8135 49.03934 149.0942 49.21725 149.3604C 49.39516 149.6265 49.59734 149.873 49.82378 150.0996C 50.05022 150.3262 50.29657 150.5283 50.56283 150.7061C 50.82909 150.8843 51.11015 151.0347 51.40601 151.1567C 51.70186 151.2793 52.00683 151.3716 52.32091 151.4341C 52.63499 151.4961 52.95215 151.5278 53.27238 151.5278C 53.59261 151.5278 53.90976 151.4961 54.22384 151.4341C 54.53791 151.3716 54.84288 151.2793 55.13874 151.1567C 55.43459 151.0347 55.71565 150.8843 55.98191 150.7061C 56.24818 150.5283 56.49453 150.3262 56.72097 150.0996C 56.94741 149.873 57.14958 149.6265 57.32749 149.3604C 57.50541 149.0942 57.65564 148.8135 57.77819 148.5176C 57.90073 148.2217 57.99325 147.917 58.05572 147.6025C 58.11819 147.2881 58.14943 146.9707 58.14943 146.6504z" stroke="#C3C4C3" stroke-width="0.7503152" fill="none" /><path transform="matrix(1 0 0 -1 0 841)" d="M86.66141 146.6504C 86.66141 146.3306 86.63017 146.0137 86.56768 145.6997C 86.5052 145.3857 86.4127 145.0811 86.29015 144.7856C 86.1676 144.4897 86.01737 144.2085 85.83946 143.9424C 85.66155 143.6758 85.45938 143.4287 85.23295 143.2026C 85.00651 142.9761 84.76015 142.7744 84.49389 142.5962C 84.22762 142.4185 83.94656 142.2681 83.65071 142.145C 83.35485 142.0225 83.04989 141.9302 82.73581 141.8682C 82.42174 141.8057 82.10458 141.7744 81.78436 141.7734C 81.46413 141.7744 81.14697 141.8057 80.83289 141.8682C 80.51881 141.9302 80.21384 142.0225 79.91798 142.145C 79.62213 142.2681 79.34107 142.4185 79.07481 142.5962C 78.80855 142.7744 78.5622 142.9761 78.33576 143.2026C 78.10932 143.4287 77.90714 143.6758 77.72923 143.9419C 77.55132 144.2085 77.40109 144.4897 77.27855 144.7856C 77.156 145.0811 77.06349 145.3857 77.00102 145.6997C 76.93854 146.0137 76.9073 146.3306 76.90731 146.6504C 76.9073 146.9707 76.93854 147.2881 77.00102 147.6025C 77.06348 147.917 77.156 148.2217 77.27855 148.5176C 77.40109 148.8135 77.55132 149.0942 77.72923 149.3604C 77.90715 149.6265 78.10932 149.873 78.33576 150.0996C 78.5622 150.3262 78.80855 150.5283 79.07481 150.7061C 79.34107 150.8843 79.62213 151.0347 79.91798 151.1567C 80.21384 151.2793 80.51881 151.3716 80.83289 151.4341C 81.14697 151.4961 81.46413 151.5278 81.78436 151.5278C 82.10458 151.5278 82.42174 151.4961 82.73581 151.4341C 83.04989 151.3716 83.35485 151.2793 83.65071 151.1567C 83.94656 151.0347 84.22762 150.8843 84.49389 150.7061C 84.76015 150.5283 85.00651 150.3262 85.23295 150.0996C 85.45938 149.873 85.66155 149.6265 85.83946 149.3604C 86.01737 149.0942 86.1676 148.8135 86.29015 148.5176C 86.4127 148.2217 86.5052 147.917 86.56768 147.6025C 86.63017 147.2881 86.66141 146.9707 86.66141 146.6504z" stroke="#C3C4C3" stroke-width="0.7503152" fill="none" /></g><g clip-path="url(#8)"><path transform="matrix(1 0 0 -1 0 841)" d="M96.04034 73.87012L98.29129 73.87012L98.29129 73.87012L98.29129 73.11963L98.29129 73.11963L96.04034 73.11963M92.21374 73.87012L94.46468 73.87012L94.46468 73.87012L94.46468 73.11963L94.46468 73.11963L92.21374 73.11963M88.38712 73.87012L90.63807 73.87012L90.63807 73.87012L90.63807 73.11963L90.63807 73.11963L88.38712 73.11963M84.56052 73.87012L86.81146 73.87012L86.81146 73.87012L86.81146 73.11963L86.81146 73.11963L84.56052 73.11963M80.73391 73.87012L82.98486 73.87012L82.98486 73.87012L82.98486 73.11963L82.98486 73.11963L80.73391 73.11963M76.90731 73.87012L79.15825 73.87012L79.15825 73.87012L79.15825 73.11963L79.15825 73.11963L76.90731 73.11963M73.0807 73.87012L75.33165 73.87012L75.33165 73.87012L75.33165 73.11963L75.33165 73.11963L73.0807 73.11963M69.25409 73.87012L71.50504 73.87012L71.50504 73.87012L71.50504 73.11963L71.50504 73.11963L69.25409 73.11963M65.42748 73.87012L67.67843 73.87012L67.67843 73.87012L67.67843 73.11963L67.67843 73.11963L65.42748 73.11963M61.60088 73.87012L63.85182 73.87012L63.85182 73.87012L63.85182 73.11963L63.85182 73.11963L61.60088 73.11963M57.77427 73.87012L60.02522 73.87012L60.02522 73.87012L60.02522 73.11963L60.02522 73.11963L57.77427 73.11963M53.94766 73.87012L56.1986 73.87012L56.1986 73.87012L56.1986 73.11963L56.1986 73.11963L53.94766 73.11963M50.12106 73.87012L52.372 73.87012L52.372 73.87012L52.372 73.11963L52.372 73.11963L50.12106 73.11963M46.29445 73.87012L48.54539 73.87012L48.54539 73.87012L48.54539 73.11963L48.54539 73.11963L46.29445 73.11963M42.46784 73.87012L44.71878 73.87012L44.71878 73.87012L44.71878 73.11963L44.71878 73.11963L42.46784 73.11963M38.64123 73.87012L40.89218 73.87012L40.89218 73.87012L40.89218 73.11963L40.89218 73.11963L38.64123 73.11963M34.81462 73.87012L37.06557 73.87012L37.06557 73.87012L37.06557 73.11963L37.06557 73.11963L34.81462 73.11963M30.98802 73.87012L33.23896 73.87012L33.23896 73.87012L33.23896 73.11963L33.23896 73.11963L30.98802 73.11963M27.16141 73.87012L29.41236 73.87012L29.41236 73.87012L29.41236 73.11963L29.41236 73.11963L27.16141 73.11963M23.3348 73.87012L25.58575 73.87012L25.58575 73.87012L25.58575 73.11963L25.58575 73.11963L23.3348 73.11963M19.50819 73.87012L21.75914 73.87012L21.75914 73.87012L21.75914 73.11963L21.75914 73.11963L19.50819 73.11963" stroke="none" fill="#B5B6B5" fill-rule="winding" /></g><g clip-path="url(#9)"><path transform="matrix(1 0 0 -1 0 841)" d="M107.2951 194.6709L594.9999 194.6709L594.9999 194.6709L594.9999 193.9204L594.9999 193.9204L107.2951 193.9204z" stroke="none" fill="#B5B6B5" fill-rule="winding" /><path transform="matrix(1 0 0 -1 0 841)" d="M0 194.6709L107.2951 194.6709L107.2951 194.6709L107.2951 193.9204L107.2951 193.9204L0 193.9204z" stroke="none" fill="#B5B6B5" fill-rule="winding" /><path transform="matrix(1 0 0 -1 0 841)" d="M107.2951 194.6709L108.0454 194.6709L108.0454 194.6709L108.0454 -684.6987L108.0454 -684.6987L107.2951 -684.6987z" stroke="none" fill="#B5B6B5" fill-rule="winding" /><g transform="matrix(0.7503152 0 0 0.7503152 336.8915 325.1936)"><g transform="matrix(1 0 0 1 0 0)"><image x="0" y="0" xlink:href="img_33.png" width="287" height="182" /></g></g><g transform="matrix(0.7503152 0 0 0.7503152 122.3014 55.0802)"><g transform="matrix(1 0 0 1 0 0)"><image x="0" y="0" xlink:href="img_31.png" width="229" height="135" /></g></g></g></g></g></g></svg>