<svg xmlns="http://www.w3.org/2000/svg" xmlns:xlink="http://www.w3.org/1999/xlink" id="body_6" preserveAspectRatio="xMinYMin meet" viewBox="0 0 792 1121"><defs><clipPath id="1"><path d="M0 841L0 -0.9199829L0 -0.9199829L594.96 -0.9199829L594.96 -0.9199829L594.96 841L594.96 841L0 841z" /></clipPath><clipPath id="2"><path d="M0 -0.9199829L595.2 -0.9199829L595.2 -0.9199829L595.2 841.24L595.2 841.24L0 841.24z" /></clipPath><clipPath id="3"><path d="M0 55.07996L594.9999 55.07996L594.9999 55.07996L594.9999 790.3889L594.9999 790.3889L0 790.3889z" /></clipPath><clipPath id="4"><path d="M19.5082 321.442L98.29129 321.442L98.29129 321.442L98.29129 322.1924L98.29129 322.1924L19.5082 322.1924z" /></clipPath><clipPath id="5"><path d="M0 55.07996L594.9999 55.07996L594.9999 55.07996L594.9999 790.3889L594.9999 790.3889L0 790.3889z" /></clipPath><clipPath id="6"><path d="M19.5082 381.4673L98.29129 381.4673L98.29129 381.4673L98.29129 382.2173L98.29129 382.2173L19.5082 382.2173z" /></clipPath><clipPath id="7"><path d="M122.3014 594.5568L580.744 594.5568L580.744 594.5568L580.744 595.3068L580.744 595.3068L122.3014 595.3068z" /></clipPath><clipPath id="8"><path d="M0 55.07996L594.9999 55.07996L594.9999 55.07996L594.9999 790.3889L594.9999 790.3889L0 790.3889z" /></clipPath></defs><g transform="matrix(1.333333 0 0 1.333333 0 0)"><g><g clip-path="url(#1)"><g clip-path="url(#2)"><path transform="matrix(1 0 0 -1 0 841)" d="M0 841.92L792.9999 841.92L792.9999 841.92L792.9999 -280.0799L792.9999 -280.0799L0 -280.0799z" stroke="none" fill="#FFFFFF" fill-rule="winding" /><path transform="matrix(1 0 0 -1 0 841)" d="M0 796.92L594.9999 796.92L594.9999 796.92L594.9999 795.92L594.9999 795.92L0 795.92z" stroke="none" fill="#B7B5B5" fill-rule="winding" /><g transform="matrix(0.1840659 0 0 0.1886792 510 12.08002)"><g transform="matrix(1 0 0 1 0 0)"><image x="0" y="0" xlink:href="img_01.png" width="364" height="106" /></g></g></g><g clip-path="url(#3)"><path transform="matrix(1 0 0 -1 0 841)" d="M0 4462.464L594.9999 4462.464L594.9999 4462.464L594.9999 -15763.78L594.9999 -15763.78L0 -15763.78z" stroke="none" fill="#FFFFFF" fill-rule="winding" /><path transform="matrix(1 0 0 -1 0 841)" d="M107.2951 1451.449L108.0454 1451.449L108.0454 1451.449L108.0454 580.3333L108.0454 580.3333L107.2951 580.3333z" stroke="none" fill="#B5B6B5" fill-rule="winding" /></g><g clip-path="url(#4)"><path transform="matrix(1 0 0 -1 0 841)" d="M96.04034 519.5576L98.29129 519.5576L98.29129 519.5576L98.29129 518.8074L98.29129 518.8074L96.04034 518.8074M92.21374 519.5576L94.46468 519.5576L94.46468 519.5576L94.46468 518.8074L94.46468 518.8074L92.21374 518.8074M88.38712 519.5576L90.63807 519.5576L90.63807 519.5576L90.63807 518.8074L90.63807 518.8074L88.38712 518.8074M84.56052 519.5576L86.81146 519.5576L86.81146 519.5576L86.81146 518.8074L86.81146 518.8074L84.56052 518.8074M80.73391 519.5576L82.98486 519.5576L82.98486 519.5576L82.98486 518.8074L82.98486 518.8074L80.73391 518.8074M76.90731 519.5576L79.15825 519.5576L79.15825 519.5576L79.15825 518.8074L79.15825 518.8074L76.90731 518.8074M73.0807 519.5576L75.33165 519.5576L75.33165 519.5576L75.33165 518.8074L75.33165 518.8074L73.0807 518.8074M69.25409 519.5576L71.50504 519.5576L71.50504 519.5576L71.50504 518.8074L71.50504 518.8074L69.25409 518.8074M65.42748 519.5576L67.67843 519.5576L67.67843 519.5576L67.67843 518.8074L67.67843 518.8074L65.42748 518.8074M61.60088 519.5576L63.85182 519.5576L63.85182 519.5576L63.85182 518.8074L63.85182 518.8074L61.60088 518.8074M57.77427 519.5576L60.02522 519.5576L60.02522 519.5576L60.02522 518.8074L60.02522 518.8074L57.77427 518.8074M53.94766 519.5576L56.1986 519.5576L56.1986 519.5576L56.1986 518.8074L56.1986 518.8074L53.94766 518.8074M50.12106 519.5576L52.372 519.5576L52.372 519.5576L52.372 518.8074L52.372 518.8074L50.12106 518.8074M46.29445 519.5576L48.54539 519.5576L48.54539 519.5576L48.54539 518.8074L48.54539 518.8074L46.29445 518.8074M42.46784 519.5576L44.71878 519.5576L44.71878 519.5576L44.71878 518.8074L44.71878 518.8074L42.46784 518.8074M38.64123 519.5576L40.89218 519.5576L40.89218 519.5576L40.89218 518.8074L40.89218 518.8074L38.64123 518.8074M34.81462 519.5576L37.06557 519.5576L37.06557 519.5576L37.06557 518.8074L37.06557 518.8074L34.81462 518.8074M30.98802 519.5576L33.23896 519.5576L33.23896 519.5576L33.23896 518.8074L33.23896 518.8074L30.98802 518.8074M27.16141 519.5576L29.41236 519.5576L29.41236 519.5576L29.41236 518.8074L29.41236 518.8074L27.16141 518.8074M23.3348 519.5576L25.58575 519.5576L25.58575 519.5576L25.58575 518.8074L25.58575 518.8074L23.3348 518.8074M19.50819 519.5576L21.75914 519.5576L21.75914 519.5576L21.75914 518.8074L21.75914 518.8074L19.50819 518.8074" stroke="none" fill="#B5B6B5" fill-rule="winding" /></g><g clip-path="url(#5)"><path transform="matrix(1 0 0 -1 0 841)" d="M29.63745 532.313C 29.63745 531.9929 29.60621 531.676 29.54374 531.3621C 29.48126 531.0481 29.38875 530.7432 29.2662 530.4473C 29.14366 530.1511 28.99343 529.8701 28.81552 529.6038C 28.6376 529.3374 28.43543 529.0908 28.20899 528.8645C 27.98255 528.6384 27.7362 528.4363 27.46994 528.2585C 27.20368 528.0808 26.92262 527.9307 26.62676 527.8079C 26.33091 527.6851 26.02594 527.5928 25.71186 527.5303C 25.39779 527.4675 25.08063 527.436 24.7604 527.436C 24.44017 527.436 24.12301 527.4675 23.80893 527.5303C 23.49485 527.5928 23.18989 527.6851 22.89403 527.8079C 22.59818 527.9307 22.31712 528.0808 22.05085 528.2585C 21.78459 528.4363 21.53824 528.6384 21.3118 528.8645C 21.08537 529.0908 20.88319 529.3374 20.70528 529.6038C 20.52737 529.8701 20.37714 530.1511 20.25459 530.4473C 20.13205 530.7432 20.03954 531.0481 19.97706 531.3621C 19.91459 531.676 19.88335 531.9929 19.88335 532.313C 19.88335 532.6335 19.91459 532.9509 19.97706 533.2649C 20.03953 533.5789 20.13204 533.884 20.25459 534.1802C 20.37714 534.4758 20.52737 534.7568 20.70528 535.0232C 20.88319 535.2896 21.08537 535.5359 21.3118 535.762C 21.53824 535.9885 21.78459 536.1907 22.05085 536.3684C 22.31712 536.5461 22.59818 536.6965 22.89403 536.8193C 23.18989 536.9417 23.49485 537.0342 23.80893 537.0964C 24.12301 537.1589 24.44017 537.1902 24.7604 537.1902C 25.08063 537.1902 25.39779 537.1589 25.71186 537.0964C 26.02594 537.0342 26.33091 536.9417 26.62676 536.8193C 26.92262 536.6965 27.20368 536.5461 27.46994 536.3684C 27.7362 536.1907 27.98255 535.9885 28.20899 535.762C 28.43543 535.5359 28.6376 535.2896 28.81552 535.0232C 28.99343 534.7568 29.14366 534.4758 29.2662 534.1802C 29.38875 533.884 29.48126 533.5789 29.54374 533.2649C 29.60621 532.9509 29.63745 532.6335 29.63745 532.313z" stroke="#C3C4C3" stroke-width="0.7503152" fill="none" /><path transform="matrix(1 0 0 -1 0 841)" d="M58.14943 532.313C 58.14943 531.9929 58.11819 531.676 58.05572 531.3621C 57.99325 531.0481 57.90073 530.7432 57.77819 530.4473C 57.65564 530.1511 57.50541 529.8701 57.32749 529.6038C 57.14958 529.3374 56.94741 529.0908 56.72097 528.8645C 56.49453 528.6384 56.24818 528.4363 55.98191 528.2585C 55.71565 528.0808 55.43459 527.9307 55.13874 527.8079C 54.84288 527.6851 54.53791 527.5928 54.22384 527.5303C 53.90976 527.4675 53.59261 527.436 53.27238 527.436C 52.95215 527.436 52.63499 527.4675 52.32091 527.5303C 52.00683 527.5928 51.70186 527.6851 51.40601 527.8079C 51.11015 527.9307 50.82909 528.0808 50.56283 528.2585C 50.29657 528.4363 50.05022 528.6384 49.82378 528.8645C 49.59734 529.0908 49.39516 529.3374 49.21725 529.6038C 49.03934 529.8701 48.88911 530.1511 48.76657 530.4473C 48.64402 530.7432 48.55151 531.0481 48.48903 531.3621C 48.42656 531.676 48.39533 531.9929 48.39533 532.313C 48.39533 532.6335 48.42657 532.9509 48.48904 533.2649C 48.55151 533.5789 48.64402 533.884 48.76657 534.1802C 48.88911 534.4758 49.03934 534.7568 49.21725 535.0232C 49.39516 535.2896 49.59734 535.5359 49.82378 535.762C 50.05022 535.9885 50.29657 536.1907 50.56283 536.3684C 50.82909 536.5461 51.11015 536.6965 51.40601 536.8193C 51.70186 536.9417 52.00683 537.0342 52.32091 537.0964C 52.63499 537.1589 52.95215 537.1902 53.27238 537.1902C 53.59261 537.1902 53.90976 537.1589 54.22384 537.0964C 54.53791 537.0342 54.84288 536.9417 55.13874 536.8193C 55.43459 536.6965 55.71565 536.5461 55.98191 536.3684C 56.24818 536.1907 56.49453 535.9885 56.72097 535.762C 56.94741 535.5359 57.14958 535.2896 57.32749 535.0232C 57.50541 534.7568 57.65564 534.4758 57.77819 534.1802C 57.90073 533.884 57.99325 533.5789 58.05572 533.2649C 58.11819 532.9509 58.14943 532.6335 58.14943 532.313z" stroke="#C3C4C3" stroke-width="0.7503152" fill="none" /><path transform="matrix(1 0 0 -1 0 841)" d="M86.66141 532.313C 86.66141 531.9929 86.63017 531.676 86.56768 531.3621C 86.5052 531.0481 86.4127 530.7432 86.29015 530.4473C 86.1676 530.1511 86.01737 529.8701 85.83946 529.6038C 85.66155 529.3374 85.45938 529.0908 85.23295 528.8645C 85.00651 528.6384 84.76015 528.4363 84.49389 528.2585C 84.22762 528.0808 83.94656 527.9307 83.65071 527.8079C 83.35485 527.6851 83.04989 527.5928 82.73581 527.5303C 82.42174 527.4675 82.10458 527.436 81.78436 527.436C 81.46413 527.436 81.14697 527.4675 80.83289 527.5303C 80.51881 527.5928 80.21384 527.6851 79.91798 527.8079C 79.62213 527.9307 79.34107 528.0808 79.07481 528.2585C 78.80855 528.4363 78.5622 528.6384 78.33576 528.8645C 78.10932 529.0908 77.90714 529.3374 77.72923 529.6038C 77.55132 529.8701 77.40109 530.1511 77.27855 530.4473C 77.156 530.7432 77.06349 531.0481 77.00102 531.3621C 76.93854 531.676 76.9073 531.9929 76.90731 532.313C 76.9073 532.6335 76.93854 532.9509 77.00102 533.2649C 77.06348 533.5789 77.156 533.884 77.27855 534.1802C 77.40109 534.4758 77.55132 534.7568 77.72923 535.0232C 77.90715 535.2896 78.10932 535.5359 78.33576 535.762C 78.5622 535.9885 78.80855 536.1907 79.07481 536.3684C 79.34107 536.5461 79.62213 536.6965 79.91798 536.8193C 80.21384 536.9417 80.51881 537.0342 80.83289 537.0964C 81.14697 537.1589 81.46413 537.1902 81.78436 537.1902C 82.10458 537.1902 82.42174 537.1589 82.73581 537.0964C 83.04989 537.0342 83.35485 536.9417 83.65071 536.8193C 83.94656 536.6965 84.22762 536.5461 84.49389 536.3684C 84.76015 536.1907 85.00651 535.9885 85.23295 535.762C 85.45938 535.5359 85.66155 535.2896 85.83946 535.0232C 86.01737 534.7568 86.1676 534.4758 86.29015 534.1802C 86.4127 533.884 86.5052 533.5789 86.56768 533.2649C 86.63017 532.9509 86.66141 532.6335 86.66141 532.313z" stroke="#C3C4C3" stroke-width="0.7503152" fill="none" /></g><g clip-path="url(#6)"><path transform="matrix(1 0 0 -1 0 841)" d="M96.04034 459.5325L98.29129 459.5325L98.29129 459.5325L98.29129 458.7822L98.29129 458.7822L96.04034 458.7822M92.21374 459.5325L94.46468 459.5325L94.46468 459.5325L94.46468 458.7822L94.46468 458.7822L92.21374 458.7822M88.38712 459.5325L90.63807 459.5325L90.63807 459.5325L90.63807 458.7822L90.63807 458.7822L88.38712 458.7822M84.56052 459.5325L86.81146 459.5325L86.81146 459.5325L86.81146 458.7822L86.81146 458.7822L84.56052 458.7822M80.73391 459.5325L82.98486 459.5325L82.98486 459.5325L82.98486 458.7822L82.98486 458.7822L80.73391 458.7822M76.90731 459.5325L79.15825 459.5325L79.15825 459.5325L79.15825 458.7822L79.15825 458.7822L76.90731 458.7822M73.0807 459.5325L75.33165 459.5325L75.33165 459.5325L75.33165 458.7822L75.33165 458.7822L73.0807 458.7822M69.25409 459.5325L71.50504 459.5325L71.50504 459.5325L71.50504 458.7822L71.50504 458.7822L69.25409 458.7822M65.42748 459.5325L67.67843 459.5325L67.67843 459.5325L67.67843 458.7822L67.67843 458.7822L65.42748 458.7822M61.60088 459.5325L63.85182 459.5325L63.85182 459.5325L63.85182 458.7822L63.85182 458.7822L61.60088 458.7822M57.77427 459.5325L60.02522 459.5325L60.02522 459.5325L60.02522 458.7822L60.02522 458.7822L57.77427 458.7822M53.94766 459.5325L56.1986 459.5325L56.1986 459.5325L56.1986 458.7822L56.1986 458.7822L53.94766 458.7822M50.12106 459.5325L52.372 459.5325L52.372 459.5325L52.372 458.7822L52.372 458.7822L50.12106 458.7822M46.29445 459.5325L48.54539 459.5325L48.54539 459.5325L48.54539 458.7822L48.54539 458.7822L46.29445 458.7822M42.46784 459.5325L44.71878 459.5325L44.71878 459.5325L44.71878 458.7822L44.71878 458.7822L42.46784 458.7822M38.64123 459.5325L40.89218 459.5325L40.89218 459.5325L40.89218 458.7822L40.89218 458.7822L38.64123 458.7822M34.81462 459.5325L37.06557 459.5325L37.06557 459.5325L37.06557 458.7822L37.06557 458.7822L34.81462 458.7822M30.98802 459.5325L33.23896 459.5325L33.23896 459.5325L33.23896 458.7822L33.23896 458.7822L30.98802 458.7822M27.16141 459.5325L29.41236 459.5325L29.41236 459.5325L29.41236 458.7822L29.41236 458.7822L27.16141 458.7822M23.3348 459.5325L25.58575 459.5325L25.58575 459.5325L25.58575 458.7822L25.58575 458.7822L23.3348 458.7822M19.50819 459.5325L21.75914 459.5325L21.75914 459.5325L21.75914 458.7822L21.75914 458.7822L19.50819 458.7822" stroke="none" fill="#B5B6B5" fill-rule="winding" /></g><g clip-path="url(#7)"><path transform="matrix(1 0 0 -1 0 841)" d="M578.493 246.4429L580.744 246.4429L580.744 246.4429L580.744 245.6929L580.744 245.6929L578.493 245.6929M574.7538 246.4429L577.0047 246.4429L577.0047 246.4429L577.0047 245.6929L577.0047 245.6929L574.7538 245.6929M571.0145 246.4429L573.2654 246.4429L573.2654 246.4429L573.2654 245.6929L573.2654 245.6929L571.0145 245.6929M567.2752 246.4429L569.5261 246.4429L569.5261 246.4429L569.5261 245.6929L569.5261 245.6929L567.2752 245.6929M563.5359 246.4429L565.7869 246.4429L565.7869 246.4429L565.7869 245.6929L565.7869 245.6929L563.5359 245.6929M559.7966 246.4429L562.0476 246.4429L562.0476 246.4429L562.0476 245.6929L562.0476 245.6929L559.7966 245.6929M556.0574 246.4429L558.3083 246.4429L558.3083 246.4429L558.3083 245.6929L558.3083 245.6929L556.0574 245.6929M552.3181 246.4429L554.569 246.4429L554.569 246.4429L554.569 245.6929L554.569 245.6929L552.3181 245.6929M548.5788 246.4429L550.8298 246.4429L550.8298 246.4429L550.8298 245.6929L550.8298 245.6929L548.5788 245.6929M544.8395 246.4429L547.0905 246.4429L547.0905 246.4429L547.0905 245.6929L547.0905 245.6929L544.8395 245.6929M541.1003 246.4429L543.3512 246.4429L543.3512 246.4429L543.3512 245.6929L543.3512 245.6929L541.1003 245.6929M537.361 246.4429L539.6119 246.4429L539.6119 246.4429L539.6119 245.6929L539.6119 245.6929L537.361 245.6929M533.6217 246.4429L535.8726 246.4429L535.8726 246.4429L535.8726 245.6929L535.8726 245.6929L533.6217 245.6929M529.8824 246.4429L532.1334 246.4429L532.1334 246.4429L532.1334 245.6929L532.1334 245.6929L529.8824 245.6929M526.1431 246.4429L528.3941 246.4429L528.3941 246.4429L528.3941 245.6929L528.3941 245.6929L526.1431 245.6929M522.4039 246.4429L524.6548 246.4429L524.6548 246.4429L524.6548 245.6929L524.6548 245.6929L522.4039 245.6929M518.6646 246.4429L520.9155 246.4429L520.9155 246.4429L520.9155 245.6929L520.9155 245.6929L518.6646 245.6929M514.9253 246.4429L517.1763 246.4429L517.1763 246.4429L517.1763 245.6929L517.1763 245.6929L514.9253 245.6929M511.1861 246.4429L513.437 246.4429L513.437 246.4429L513.437 245.6929L513.437 245.6929L511.1861 245.6929M507.4468 246.4429L509.6977 246.4429L509.6977 246.4429L509.6977 245.6929L509.6977 245.6929L507.4468 245.6929M503.7075 246.4429L505.9585 246.4429L505.9585 246.4429L505.9585 245.6929L505.9585 245.6929L503.7075 245.6929M499.9682 246.4429L502.2191 246.4429L502.2191 246.4429L502.2191 245.6929L502.2191 245.6929L499.9682 245.6929M496.2289 246.4429L498.4799 246.4429L498.4799 246.4429L498.4799 245.6929L498.4799 245.6929L496.2289 245.6929M492.4897 246.4429L494.7406 246.4429L494.7406 246.4429L494.7406 245.6929L494.7406 245.6929L492.4897 245.6929M488.7504 246.4429L491.0013 246.4429L491.0013 246.4429L491.0013 245.6929L491.0013 245.6929L488.7504 245.6929M485.0111 246.4429L487.2621 246.4429L487.2621 246.4429L487.2621 245.6929L487.2621 245.6929L485.0111 245.6929M481.2719 246.4429L483.5228 246.4429L483.5228 246.4429L483.5228 245.6929L483.5228 245.6929L481.2719 245.6929M477.5326 246.4429L479.7835 246.4429L479.7835 246.4429L479.7835 245.6929L479.7835 245.6929L477.5326 245.6929M473.7933 246.4429L476.0442 246.4429L476.0442 246.4429L476.0442 245.6929L476.0442 245.6929L473.7933 245.6929M470.054 246.4429L472.305 246.4429L472.305 246.4429L472.305 245.6929L472.305 245.6929L470.054 245.6929M466.3148 246.4429L468.5657 246.4429L468.5657 246.4429L468.5657 245.6929L468.5657 245.6929L466.3148 245.6929M462.5754 246.4429L464.8264 246.4429L464.8264 246.4429L464.8264 245.6929L464.8264 245.6929L462.5754 245.6929M458.8362 246.4429L461.0871 246.4429L461.0871 246.4429L461.0871 245.6929L461.0871 245.6929L458.8362 245.6929M455.0969 246.4429L457.3479 246.4429L457.3479 246.4429L457.3479 245.6929L457.3479 245.6929L455.0969 245.6929M451.3576 246.4429L453.6086 246.4429L453.6086 246.4429L453.6086 245.6929L453.6086 245.6929L451.3576 245.6929M447.6183 246.4429L449.8693 246.4429L449.8693 246.4429L449.8693 245.6929L449.8693 245.6929L447.6183 245.6929M443.8791 246.4429L446.1301 246.4429L446.1301 246.4429L446.1301 245.6929L446.1301 245.6929L443.8791 245.6929M440.1398 246.4429L442.3908 246.4429L442.3908 246.4429L442.3908 245.6929L442.3908 245.6929L440.1398 245.6929M436.4005 246.4429L438.6515 246.4429L438.6515 246.4429L438.6515 245.6929L438.6515 245.6929L436.4005 245.6929M432.6613 246.4429L434.9122 246.4429L434.9122 246.4429L434.9122 245.6929L434.9122 245.6929L432.6613 245.6929M428.922 246.4429L431.1729 246.4429L431.1729 246.4429L431.1729 245.6929L431.1729 245.6929L428.922 245.6929M425.1827 246.4429L427.4337 246.4429L427.4337 246.4429L427.4337 245.6929L427.4337 245.6929L425.1827 245.6929M421.4435 246.4429L423.6944 246.4429L423.6944 246.4429L423.6944 245.6929L423.6944 245.6929L421.4435 245.6929M417.7042 246.4429L419.9551 246.4429L419.9551 246.4429L419.9551 245.6929L419.9551 245.6929L417.7042 245.6929M413.9649 246.4429L416.2158 246.4429L416.2158 246.4429L416.2158 245.6929L416.2158 245.6929L413.9649 245.6929M410.2256 246.4429L412.4765 246.4429L412.4765 246.4429L412.4765 245.6929L412.4765 245.6929L410.2256 245.6929M406.4863 246.4429L408.7373 246.4429L408.7373 246.4429L408.7373 245.6929L408.7373 245.6929L406.4863 245.6929M402.7471 246.4429L404.998 246.4429L404.998 246.4429L404.998 245.6929L404.998 245.6929L402.7471 245.6929M399.0078 246.4429L401.2587 246.4429L401.2587 246.4429L401.2587 245.6929L401.2587 245.6929L399.0078 245.6929M395.2685 246.4429L397.5194 246.4429L397.5194 246.4429L397.5194 245.6929L397.5194 245.6929L395.2685 245.6929M391.5292 246.4429L393.7802 246.4429L393.7802 246.4429L393.7802 245.6929L393.7802 245.6929L391.5292 245.6929M387.7899 246.4429L390.0409 246.4429L390.0409 246.4429L390.0409 245.6929L390.0409 245.6929L387.7899 245.6929M384.0507 246.4429L386.3016 246.4429L386.3016 246.4429L386.3016 245.6929L386.3016 245.6929L384.0507 245.6929M380.3114 246.4429L382.5623 246.4429L382.5623 246.4429L382.5623 245.6929L382.5623 245.6929L380.3114 245.6929M376.5721 246.4429L378.8231 246.4429L378.8231 246.4429L378.8231 245.6929L378.8231 245.6929L376.5721 245.6929M372.8329 246.4429L375.0838 246.4429L375.0838 246.4429L375.0838 245.6929L375.0838 245.6929L372.8329 245.6929M369.0936 246.4429L371.3445 246.4429L371.3445 246.4429L371.3445 245.6929L371.3445 245.6929L369.0936 245.6929M365.3543 246.4429L367.6052 246.4429L367.6052 246.4429L367.6052 245.6929L367.6052 245.6929L365.3543 245.6929M361.615 246.4429L363.866 246.4429L363.866 246.4429L363.866 245.6929L363.866 245.6929L361.615 245.6929M357.8758 246.4429L360.1267 246.4429L360.1267 246.4429L360.1267 245.6929L360.1267 245.6929L357.8758 245.6929M354.1365 246.4429L356.3874 246.4429L356.3874 246.4429L356.3874 245.6929L356.3874 245.6929L354.1365 245.6929M350.3972 246.4429L352.6481 246.4429L352.6481 246.4429L352.6481 245.6929L352.6481 245.6929L350.3972 245.6929M346.6579 246.4429L348.9088 246.4429L348.9088 246.4429L348.9088 245.6929L348.9088 245.6929L346.6579 245.6929M342.9186 246.4429L345.1696 246.4429L345.1696 246.4429L345.1696 245.6929L345.1696 245.6929L342.9186 245.6929M339.1794 246.4429L341.4303 246.4429L341.4303 246.4429L341.4303 245.6929L341.4303 245.6929L339.1794 245.6929M335.4401 246.4429L337.691 246.4429L337.691 246.4429L337.691 245.6929L337.691 245.6929L335.4401 245.6929M331.7008 246.4429L333.9518 246.4429L333.9518 246.4429L333.9518 245.6929L333.9518 245.6929L331.7008 245.6929M327.9615 246.4429L330.2125 246.4429L330.2125 246.4429L330.2125 245.6929L330.2125 245.6929L327.9615 245.6929M324.2223 246.4429L326.4732 246.4429L326.4732 246.4429L326.4732 245.6929L326.4732 245.6929L324.2223 245.6929M320.483 246.4429L322.7339 246.4429L322.7339 246.4429L322.7339 245.6929L322.7339 245.6929L320.483 245.6929M316.7437 246.4429L318.9947 246.4429L318.9947 246.4429L318.9947 245.6929L318.9947 245.6929L316.7437 245.6929M313.0045 246.4429L315.2554 246.4429L315.2554 246.4429L315.2554 245.6929L315.2554 245.6929L313.0045 245.6929M309.2652 246.4429L311.5161 246.4429L311.5161 246.4429L311.5161 245.6929L311.5161 245.6929L309.2652 245.6929M305.5259 246.4429L307.7768 246.4429L307.7768 246.4429L307.7768 245.6929L307.7768 245.6929L305.5259 245.6929M301.7866 246.4429L304.0376 246.4429L304.0376 246.4429L304.0376 245.6929L304.0376 245.6929L301.7866 245.6929M298.0473 246.4429L300.2983 246.4429L300.2983 246.4429L300.2983 245.6929L300.2983 245.6929L298.0473 245.6929M294.3081 246.4429L296.559 246.4429L296.559 246.4429L296.559 245.6929L296.559 245.6929L294.3081 245.6929M290.5688 246.4429L292.8197 246.4429L292.8197 246.4429L292.8197 245.6929L292.8197 245.6929L290.5688 245.6929M286.8295 246.4429L289.0804 246.4429L289.0804 246.4429L289.0804 245.6929L289.0804 245.6929L286.8295 245.6929M283.0902 246.4429L285.3412 246.4429L285.3412 246.4429L285.3412 245.6929L285.3412 245.6929L283.0902 245.6929M279.351 246.4429L281.6019 246.4429L281.6019 246.4429L281.6019 245.6929L281.6019 245.6929L279.351 245.6929M275.6117 246.4429L277.8626 246.4429L277.8626 246.4429L277.8626 245.6929L277.8626 245.6929L275.6117 245.6929M271.8724 246.4429L274.1234 246.4429L274.1234 246.4429L274.1234 245.6929L274.1234 245.6929L271.8724 245.6929M268.1331 246.4429L270.3841 246.4429L270.3841 246.4429L270.3841 245.6929L270.3841 245.6929L268.1331 245.6929M264.3939 246.4429L266.6448 246.4429L266.6448 246.4429L266.6448 245.6929L266.6448 245.6929L264.3939 245.6929M260.6546 246.4429L262.9055 246.4429L262.9055 246.4429L262.9055 245.6929L262.9055 245.6929L260.6546 245.6929M256.9153 246.4429L259.1663 246.4429L259.1663 246.4429L259.1663 245.6929L259.1663 245.6929L256.9153 245.6929M253.176 246.4429L255.427 246.4429L255.427 246.4429L255.427 245.6929L255.427 245.6929L253.176 245.6929M249.4368 246.4429L251.6877 246.4429L251.6877 246.4429L251.6877 245.6929L251.6877 245.6929L249.4368 245.6929M245.6975 246.4429L247.9484 246.4429L247.9484 246.4429L247.9484 245.6929L247.9484 245.6929L245.6975 245.6929M241.9582 246.4429L244.2091 246.4429L244.2091 246.4429L244.2091 245.6929L244.2091 245.6929L241.9582 245.6929M238.2189 246.4429L240.4699 246.4429L240.4699 246.4429L240.4699 245.6929L240.4699 245.6929L238.2189 245.6929M234.4796 246.4429L236.7306 246.4429L236.7306 246.4429L236.7306 245.6929L236.7306 245.6929L234.4796 245.6929M230.7404 246.4429L232.9913 246.4429L232.9913 246.4429L232.9913 245.6929L232.9913 245.6929L230.7404 245.6929M227.0011 246.4429L229.252 246.4429L229.252 246.4429L229.252 245.6929L229.252 245.6929L227.0011 245.6929M223.2618 246.4429L225.5128 246.4429L225.5128 246.4429L225.5128 245.6929L225.5128 245.6929L223.2618 245.6929M219.5226 246.4429L221.7735 246.4429L221.7735 246.4429L221.7735 245.6929L221.7735 245.6929L219.5226 245.6929M215.7833 246.4429L218.0342 246.4429L218.0342 246.4429L218.0342 245.6929L218.0342 245.6929L215.7833 245.6929M212.044 246.4429L214.295 246.4429L214.295 246.4429L214.295 245.6929L214.295 245.6929L212.044 245.6929M208.3047 246.4429L210.5557 246.4429L210.5557 246.4429L210.5557 245.6929L210.5557 245.6929L208.3047 245.6929M204.5654 246.4429L206.8164 246.4429L206.8164 246.4429L206.8164 245.6929L206.8164 245.6929L204.5654 245.6929M200.8262 246.4429L203.0771 246.4429L203.0771 246.4429L203.0771 245.6929L203.0771 245.6929L200.8262 245.6929M197.0869 246.4429L199.3378 246.4429L199.3378 246.4429L199.3378 245.6929L199.3378 245.6929L197.0869 245.6929M193.3476 246.4429L195.5986 246.4429L195.5986 246.4429L195.5986 245.6929L195.5986 245.6929L193.3476 245.6929M189.6083 246.4429L191.8593 246.4429L191.8593 246.4429L191.8593 245.6929L191.8593 245.6929L189.6083 245.6929M185.8691 246.4429L188.12 246.4429L188.12 246.4429L188.12 245.6929L188.12 245.6929L185.8691 245.6929M182.1298 246.4429L184.3807 246.4429L184.3807 246.4429L184.3807 245.6929L184.3807 245.6929L182.1298 245.6929M178.3905 246.4429L180.6414 246.4429L180.6414 246.4429L180.6414 245.6929L180.6414 245.6929L178.3905 245.6929M174.6512 246.4429L176.9022 246.4429L176.9022 246.4429L176.9022 245.6929L176.9022 245.6929L174.6512 245.6929M170.912 246.4429L173.1629 246.4429L173.1629 246.4429L173.1629 245.6929L173.1629 245.6929L170.912 245.6929M167.1727 246.4429L169.4236 246.4429L169.4236 246.4429L169.4236 245.6929L169.4236 245.6929L167.1727 245.6929M163.4334 246.4429L165.6844 246.4429L165.6844 246.4429L165.6844 245.6929L165.6844 245.6929L163.4334 245.6929M159.6941 246.4429L161.9451 246.4429L161.9451 246.4429L161.9451 245.6929L161.9451 245.6929L159.6941 245.6929M155.9549 246.4429L158.2058 246.4429L158.2058 246.4429L158.2058 245.6929L158.2058 245.6929L155.9549 245.6929M152.2156 246.4429L154.4665 246.4429L154.4665 246.4429L154.4665 245.6929L154.4665 245.6929L152.2156 245.6929M148.4763 246.4429L150.7273 246.4429L150.7273 246.4429L150.7273 245.6929L150.7273 245.6929L148.4763 245.6929M144.737 246.4429L146.988 246.4429L146.988 246.4429L146.988 245.6929L146.988 245.6929L144.737 245.6929M140.9978 246.4429L143.2487 246.4429L143.2487 246.4429L143.2487 245.6929L143.2487 245.6929L140.9978 245.6929M137.2585 246.4429L139.5094 246.4429L139.5094 246.4429L139.5094 245.6929L139.5094 245.6929L137.2585 245.6929M133.5192 246.4429L135.7702 246.4429L135.7702 246.4429L135.7702 245.6929L135.7702 245.6929L133.5192 245.6929M129.7799 246.4429L132.0309 246.4429L132.0309 246.4429L132.0309 245.6929L132.0309 245.6929L129.7799 245.6929M126.0407 246.4429L128.2916 246.4429L128.2916 246.4429L128.2916 245.6929L128.2916 245.6929L126.0407 245.6929M122.3014 246.4429L124.5523 246.4429L124.5523 246.4429L124.5523 245.6929L124.5523 245.6929L122.3014 245.6929" stroke="none" fill="#C3C4C3" fill-rule="winding" /></g><g clip-path="url(#8)"><path transform="matrix(1 0 0 -1 0 841)" d="M107.2951 580.3333L594.9999 580.3333L594.9999 580.3333L594.9999 579.583L594.9999 579.583L107.2951 579.583z" stroke="none" fill="#B5B6B5" fill-rule="winding" /><path transform="matrix(1 0 0 -1 0 841)" d="M0 580.3333L107.2951 580.3333L107.2951 580.3333L107.2951 579.583L107.2951 579.583L0 579.583z" stroke="none" fill="#B5B6B5" fill-rule="winding" /><path transform="matrix(1 0 0 -1 0 841)" d="M107.2951 580.3333L108.0454 580.3333L108.0454 580.3333L108.0454 -635.1772L108.0454 -635.1772L107.2951 -635.1772z" stroke="none" fill="#B5B6B5" fill-rule="winding" /><g transform="matrix(0.7503152 0 0 0.7503152 122.3014 121.1078)"><g transform="matrix(1 0 0 1 0 0)"><image x="0" y="0" xlink:href="img_20.png" width="184" height="139" /></g></g><g transform="matrix(0.4254365 0 0 0.4179957 122.3014 318.4406)"><g transform="matrix(1 0 0 1 0 0)"><image x="0" y="0" xlink:href="img_21.png" width="582" height="289" /></g></g></g></g></g></g></svg>