<svg xmlns="http://www.w3.org/2000/svg" xmlns:xlink="http://www.w3.org/1999/xlink" id="body_11" preserveAspectRatio="xMinYMin meet" viewBox="0 0 792 1121"><defs><clipPath id="1"><path d="M0 841L0 -0.9199829L0 -0.9199829L594.96 -0.9199829L594.96 -0.9199829L594.96 841L594.96 841L0 841z" /></clipPath><clipPath id="2"><path d="M0 -0.9199829L595.2 -0.9199829L595.2 -0.9199829L595.2 841.24L595.2 841.24L0 841.24z" /></clipPath><clipPath id="3"><path d="M0 55.0802L594.9999 55.0802L594.9999 55.0802L594.9999 790.3895L594.9999 790.3895L0 790.3895z" /></clipPath><clipPath id="4"><path d="M493.7074 532.2808L571.7402 532.2808L571.7402 532.2808L571.7402 533.0313L571.7402 533.0313L493.7074 533.0313z" /></clipPath><clipPath id="5"><path d="M0 55.0802L594.9999 55.0802L594.9999 55.0802L594.9999 790.3895L594.9999 790.3895L0 790.3895z" /></clipPath><clipPath id="6"><path d="M493.7074 592.3061L571.7402 592.3061L571.7402 592.3061L571.7402 593.0561L571.7402 593.0561L493.7074 593.0561z" /></clipPath><clipPath id="7"><path d="M0 55.0802L594.9999 55.0802L594.9999 55.0802L594.9999 790.3895L594.9999 790.3895L0 790.3895z" /></clipPath></defs><g transform="matrix(1.333333 0 0 1.333333 0 0)"><g><g clip-path="url(#1)"><g clip-path="url(#2)"><path transform="matrix(1 0 0 -1 0 841)" d="M0 841.92L792.9999 841.92L792.9999 841.92L792.9999 -280.0799L792.9999 -280.0799L0 -280.0799z" stroke="none" fill="#FFFFFF" fill-rule="winding" /><path transform="matrix(1 0 0 -1 0 841)" d="M0 796.92L594.9999 796.92L594.9999 796.92L594.9999 795.92L594.9999 795.92L0 795.92z" stroke="none" fill="#B7B5B5" fill-rule="winding" /><g transform="matrix(0.1840659 0 0 0.1886792 510 12.08002)"><g transform="matrix(1 0 0 1 0 0)"><image x="0" y="0" xlink:href="img_01.png" width="364" height="106" /></g></g></g><g clip-path="url(#3)"><path transform="matrix(1 0 0 -1 0 841)" d="M0 8139.008L594.9999 8139.008L594.9999 8139.008L594.9999 -11351.93L594.9999 -11351.93L0 -11351.93z" stroke="none" fill="#FFFFFF" fill-rule="winding" /><path transform="matrix(1 0 0 -1 0 841)" d="M487.7049 1179.084L488.4552 1179.084L488.4552 1179.084L488.4552 369.4941L488.4552 369.4941L487.7049 369.4941z" stroke="none" fill="#B5B6B5" fill-rule="winding" /></g><g clip-path="url(#4)"><path transform="matrix(1 0 0 -1 0 841)" d="M569.4893 308.7183L571.7402 308.7183L571.7402 308.7183L571.7402 307.9683L571.7402 307.9683L569.4893 307.9683M565.7001 308.7183L567.9511 308.7183L567.9511 308.7183L567.9511 307.9683L567.9511 307.9683L565.7001 307.9683M561.9111 308.7183L564.162 308.7183L564.162 308.7183L564.162 307.9683L564.162 307.9683L561.9111 307.9683M558.1219 308.7183L560.3729 308.7183L560.3729 308.7183L560.3729 307.9683L560.3729 307.9683L558.1219 307.9683M554.3328 308.7183L556.5838 308.7183L556.5838 308.7183L556.5838 307.9683L556.5838 307.9683L554.3328 307.9683M550.5438 308.7183L552.7947 308.7183L552.7947 308.7183L552.7947 307.9683L552.7947 307.9683L550.5438 307.9683M546.7547 308.7183L549.0056 308.7183L549.0056 308.7183L549.0056 307.9683L549.0056 307.9683L546.7547 307.9683M542.9656 308.7183L545.2166 308.7183L545.2166 308.7183L545.2166 307.9683L545.2166 307.9683L542.9656 307.9683M539.1765 308.7183L541.4274 308.7183L541.4274 308.7183L541.4274 307.9683L541.4274 307.9683L539.1765 307.9683M535.3874 308.7183L537.6384 308.7183L537.6384 308.7183L537.6384 307.9683L537.6384 307.9683L535.3874 307.9683M531.5983 308.7183L533.8492 308.7183L533.8492 308.7183L533.8492 307.9683L533.8492 307.9683L531.5983 307.9683M527.8092 308.7183L530.0602 308.7183L530.0602 308.7183L530.0602 307.9683L530.0602 307.9683L527.8092 307.9683M524.0201 308.7183L526.2711 308.7183L526.2711 308.7183L526.2711 307.9683L526.2711 307.9683L524.0201 307.9683M520.231 308.7183L522.4819 308.7183L522.4819 308.7183L522.4819 307.9683L522.4819 307.9683L520.231 307.9683M516.442 308.7183L518.6929 308.7183L518.6929 308.7183L518.6929 307.9683L518.6929 307.9683L516.442 307.9683M512.6528 308.7183L514.9038 308.7183L514.9038 308.7183L514.9038 307.9683L514.9038 307.9683L512.6528 307.9683M508.8638 308.7183L511.1147 308.7183L511.1147 308.7183L511.1147 307.9683L511.1147 307.9683L508.8638 307.9683M505.0747 308.7183L507.3256 308.7183L507.3256 308.7183L507.3256 307.9683L507.3256 307.9683L505.0747 307.9683M501.2856 308.7183L503.5365 308.7183L503.5365 308.7183L503.5365 307.9683L503.5365 307.9683L501.2856 307.9683M497.4965 308.7183L499.7474 308.7183L499.7474 308.7183L499.7474 307.9683L499.7474 307.9683L497.4965 307.9683M493.7074 308.7183L495.9583 308.7183L495.9583 308.7183L495.9583 307.9683L495.9583 307.9683L493.7074 307.9683" stroke="none" fill="#B5B6B5" fill-rule="winding" /></g><g clip-path="url(#5)"><path transform="matrix(1 0 0 -1 0 841)" d="M503.8366 321.4736C 503.8366 321.1533 503.8054 320.8369 503.7429 320.5225C 503.6805 320.209 503.5879 319.9043 503.4654 319.6084C 503.3428 319.312 503.1926 319.0308 503.0147 318.7646C 502.8368 318.499 502.6346 318.252 502.4082 318.0254C 502.1818 317.7993 501.9355 317.5977 501.6692 317.4204C 501.4028 317.2422 501.1218 317.0913 500.826 316.9688C 500.5301 316.8467 500.2252 316.7534 499.911 316.6904C 499.5969 316.6284 499.2798 316.5972 498.9596 316.5967C 498.6393 316.5972 498.3222 316.6284 498.0081 316.6904C 497.694 316.7534 497.389 316.8467 497.0932 316.9688C 496.7974 317.0913 496.5163 317.2422 496.25 317.4204C 495.9838 317.5977 495.7374 317.7993 495.511 318.0254C 495.2845 318.252 495.0824 318.499 494.9045 318.7646C 494.7266 319.0308 494.5764 319.312 494.4538 319.6084C 494.3312 319.9043 494.2387 320.209 494.1762 320.5225C 494.1138 320.8369 494.0826 321.1533 494.0826 321.4736C 494.0826 321.7939 494.1138 322.1113 494.1762 322.4258C 494.2387 322.7397 494.3312 323.0449 494.4538 323.3408C 494.5764 323.6367 494.7266 323.918 494.9045 324.1841C 495.0824 324.4502 495.2845 324.6963 495.511 324.9229C 495.7374 325.1489 495.9838 325.3516 496.25 325.5303C 496.5163 325.7075 496.7974 325.8574 497.0932 325.98C 497.389 326.1025 497.694 326.1948 498.0081 326.2568C 498.3222 326.3193 498.6393 326.3506 498.9596 326.3506C 499.2798 326.3506 499.5969 326.3193 499.911 326.2568C 500.2252 326.1948 500.5301 326.1025 500.826 325.98C 501.1218 325.8574 501.4028 325.7075 501.6692 325.5293C 501.9355 325.3516 502.1818 325.1489 502.4082 324.9229C 502.6346 324.6963 502.8368 324.4502 503.0147 324.1841C 503.1926 323.918 503.3428 323.6367 503.4654 323.3408C 503.5879 323.0449 503.6805 322.7397 503.7429 322.4258C 503.8054 322.1113 503.8366 321.7939 503.8366 321.4736z" stroke="#C3C4C3" stroke-width="0.7503152" fill="none" /><path transform="matrix(1 0 0 -1 0 841)" d="M531.5983 321.4736C 531.5983 321.1533 531.5671 320.8369 531.5046 320.5225C 531.4421 320.209 531.3495 319.9043 531.227 319.6084C 531.1044 319.312 530.9542 319.0308 530.7763 318.7646C 530.5984 318.499 530.3962 318.252 530.1698 318.0254C 529.9434 317.7993 529.697 317.5977 529.4307 317.4204C 529.1644 317.2422 528.8834 317.0913 528.5875 316.9688C 528.2917 316.8467 527.9868 316.7534 527.6727 316.6904C 527.3586 316.6284 527.0414 316.5972 526.7213 316.5967C 526.401 316.5972 526.0839 316.6284 525.7698 316.6904C 525.4556 316.7534 525.1507 316.8467 524.8548 316.9688C 524.559 317.0913 524.2779 317.2422 524.0117 317.4204C 523.7454 317.5977 523.499 317.7993 523.2726 318.0254C 523.0461 318.252 522.844 318.499 522.6661 318.7646C 522.4882 319.0308 522.338 319.312 522.2154 319.6084C 522.0928 319.9043 522.0003 320.209 521.9379 320.5225C 521.8754 320.8369 521.8442 321.1533 521.8442 321.4736C 521.8442 321.7939 521.8754 322.1113 521.9378 322.4258C 522.0003 322.7397 522.0928 323.0449 522.2154 323.3408C 522.338 323.6367 522.4882 323.918 522.6661 324.1841C 522.844 324.4502 523.0461 324.6963 523.2726 324.9229C 523.499 325.1489 523.7454 325.3516 524.0117 325.5303C 524.2779 325.7075 524.559 325.8574 524.8548 325.98C 525.1507 326.1025 525.4556 326.1948 525.7697 326.2568C 526.0839 326.3193 526.401 326.3506 526.7213 326.3506C 527.0414 326.3506 527.3586 326.3193 527.6727 326.2568C 527.9868 326.1948 528.2917 326.1025 528.5875 325.98C 528.8834 325.8574 529.1644 325.7075 529.4307 325.5293C 529.697 325.3516 529.9434 325.1489 530.1698 324.9229C 530.3962 324.6963 530.5984 324.4502 530.7763 324.1841C 530.9542 323.918 531.1044 323.6367 531.227 323.3408C 531.3495 323.0449 531.4421 322.7397 531.5046 322.4258C 531.5671 322.1113 531.5983 321.7939 531.5983 321.4736z" stroke="#C3C4C3" stroke-width="0.7503152" fill="none" /><path transform="matrix(1 0 0 -1 0 841)" d="M560.1103 321.4736C 560.1103 321.1533 560.079 320.8369 560.0165 320.5225C 559.9541 320.209 559.8616 319.9043 559.739 319.6084C 559.6165 319.312 559.4662 319.0308 559.2883 318.7646C 559.1104 318.499 558.9083 318.252 558.6818 318.0254C 558.4553 317.7993 558.2089 317.5977 557.9427 317.4204C 557.6765 317.2422 557.3954 317.0913 557.0995 316.9688C 556.8036 316.8467 556.4987 316.7534 556.1846 316.6904C 555.8706 316.6284 555.5535 316.5972 555.2332 316.5967C 554.913 316.5972 554.5958 316.6284 554.2817 316.6904C 553.9676 316.7534 553.6627 316.8467 553.3668 316.9688C 553.0709 317.0913 552.7899 317.2422 552.5236 317.4204C 552.2573 317.5977 552.011 317.7993 551.7846 318.0254C 551.5582 318.252 551.356 318.499 551.178 318.7646C 551.0001 319.0308 550.8499 319.312 550.7274 319.6084C 550.6048 319.9043 550.5123 320.209 550.4498 320.5225C 550.3874 320.8369 550.3561 321.1533 550.3562 321.4736C 550.3561 321.7939 550.3874 322.1113 550.4498 322.4258C 550.5123 322.7397 550.6048 323.0449 550.7274 323.3408C 550.8499 323.6367 551.0001 323.918 551.178 324.1841C 551.356 324.4502 551.5582 324.6963 551.7846 324.9229C 552.011 325.1489 552.2573 325.3516 552.5236 325.5303C 552.7899 325.7075 553.0709 325.8574 553.3668 325.98C 553.6627 326.1025 553.9676 326.1948 554.2817 326.2568C 554.5958 326.3193 554.913 326.3506 555.2332 326.3506C 555.5535 326.3506 555.8706 326.3193 556.1846 326.2568C 556.4987 326.1948 556.8036 326.1025 557.0995 325.98C 557.3954 325.8574 557.6765 325.7075 557.9427 325.5293C 558.2089 325.3516 558.4553 325.1489 558.6818 324.9229C 558.9083 324.6963 559.1104 324.4502 559.2883 324.1841C 559.4662 323.918 559.6165 323.6367 559.739 323.3408C 559.8616 323.0449 559.9541 322.7397 560.0165 322.4258C 560.079 322.1113 560.1103 321.7939 560.1103 321.4736z" stroke="#C3C4C3" stroke-width="0.7503152" fill="none" /></g><g clip-path="url(#6)"><path transform="matrix(1 0 0 -1 0 841)" d="M569.4893 248.6934L571.7402 248.6934L571.7402 248.6934L571.7402 247.9429L571.7402 247.9429L569.4893 247.9429M565.7001 248.6934L567.9511 248.6934L567.9511 248.6934L567.9511 247.9429L567.9511 247.9429L565.7001 247.9429M561.9111 248.6934L564.162 248.6934L564.162 248.6934L564.162 247.9429L564.162 247.9429L561.9111 247.9429M558.1219 248.6934L560.3729 248.6934L560.3729 248.6934L560.3729 247.9429L560.3729 247.9429L558.1219 247.9429M554.3328 248.6934L556.5838 248.6934L556.5838 248.6934L556.5838 247.9429L556.5838 247.9429L554.3328 247.9429M550.5438 248.6934L552.7947 248.6934L552.7947 248.6934L552.7947 247.9429L552.7947 247.9429L550.5438 247.9429M546.7547 248.6934L549.0056 248.6934L549.0056 248.6934L549.0056 247.9429L549.0056 247.9429L546.7547 247.9429M542.9656 248.6934L545.2166 248.6934L545.2166 248.6934L545.2166 247.9429L545.2166 247.9429L542.9656 247.9429M539.1765 248.6934L541.4274 248.6934L541.4274 248.6934L541.4274 247.9429L541.4274 247.9429L539.1765 247.9429M535.3874 248.6934L537.6384 248.6934L537.6384 248.6934L537.6384 247.9429L537.6384 247.9429L535.3874 247.9429M531.5983 248.6934L533.8492 248.6934L533.8492 248.6934L533.8492 247.9429L533.8492 247.9429L531.5983 247.9429M527.8092 248.6934L530.0602 248.6934L530.0602 248.6934L530.0602 247.9429L530.0602 247.9429L527.8092 247.9429M524.0201 248.6934L526.2711 248.6934L526.2711 248.6934L526.2711 247.9429L526.2711 247.9429L524.0201 247.9429M520.231 248.6934L522.4819 248.6934L522.4819 248.6934L522.4819 247.9429L522.4819 247.9429L520.231 247.9429M516.442 248.6934L518.6929 248.6934L518.6929 248.6934L518.6929 247.9429L518.6929 247.9429L516.442 247.9429M512.6528 248.6934L514.9038 248.6934L514.9038 248.6934L514.9038 247.9429L514.9038 247.9429L512.6528 247.9429M508.8638 248.6934L511.1147 248.6934L511.1147 248.6934L511.1147 247.9429L511.1147 247.9429L508.8638 247.9429M505.0747 248.6934L507.3256 248.6934L507.3256 248.6934L507.3256 247.9429L507.3256 247.9429L505.0747 247.9429M501.2856 248.6934L503.5365 248.6934L503.5365 248.6934L503.5365 247.9429L503.5365 247.9429L501.2856 247.9429M497.4965 248.6934L499.7474 248.6934L499.7474 248.6934L499.7474 247.9429L499.7474 247.9429L497.4965 247.9429M493.7074 248.6934L495.9583 248.6934L495.9583 248.6934L495.9583 247.9429L495.9583 247.9429L493.7074 247.9429" stroke="none" fill="#B5B6B5" fill-rule="winding" /></g><g clip-path="url(#7)"><path transform="matrix(1 0 0 -1 0 841)" d="M487.7049 369.4941L594.9999 369.4941L594.9999 369.4941L594.9999 368.7437L594.9999 368.7437L487.7049 368.7437z" stroke="none" fill="#B5B6B5" fill-rule="winding" /><path transform="matrix(1 0 0 -1 0 841)" d="M0 369.4941L487.7049 369.4941L487.7049 369.4941L487.7049 368.7437L487.7049 368.7437L0 368.7437z" stroke="none" fill="#B5B6B5" fill-rule="winding" /><path transform="matrix(1 0 0 -1 0 841)" d="M487.7049 369.4941L488.4552 369.4941L488.4552 369.4941L488.4552 -606.6665L488.4552 -606.6665L487.7049 -606.6665z" stroke="none" fill="#B5B6B5" fill-rule="winding" /><g transform="matrix(0.7503151 0 0 0.7503152 14.25599 55.0802)"><g transform="matrix(1 0 0 1 0 0)"><image x="0" y="0" xlink:href="img_35.png" width="436" height="69" /></g></g><g transform="matrix(0.7503152 0 0 0.7503152 14.25599 529.2794)"><g transform="matrix(1 0 0 1 0 0)"><image x="0" y="0" xlink:href="img_36.png" width="286" height="183" /></g></g></g></g></g></g></svg>