<svg xmlns="http://www.w3.org/2000/svg" xmlns:xlink="http://www.w3.org/1999/xlink" id="body_23" preserveAspectRatio="xMinYMin meet" viewBox="0 0 792 1121"><defs><clipPath id="1"><path d="M0 841L0 -0.9199829L0 -0.9199829L594.96 -0.9199829L594.96 -0.9199829L594.96 841L594.96 841L0 841z" /></clipPath><clipPath id="2"><path d="M0 -0.9199829L595.2 -0.9199829L595.2 -0.9199829L595.2 841.24L595.2 841.24L0 841.24z" /></clipPath><clipPath id="3"><path d="M0 55.08063L594.9999 55.08063L594.9999 55.08063L594.9999 790.3881L594.9999 790.3881L0 790.3881z" /></clipPath><clipPath id="4"><path d="M14.25599 72.33813L293.3733 72.33813L293.3733 72.33813L293.3733 73.08813L293.3733 73.08813L14.25599 73.08813z" /></clipPath><clipPath id="5"><path d="M14.25599 334.9469L293.3733 334.9469L293.3733 334.9469L293.3733 335.6988L293.3733 335.6988L14.25599 335.6988z" /></clipPath><clipPath id="6"><path d="M14.25599 678.5912L293.3733 678.5912L293.3733 678.5912L293.3733 679.3431L293.3733 679.3431L14.25599 679.3431z" /></clipPath><clipPath id="7"><path d="M302.377 262.9169L580.744 262.9169L580.744 262.9169L580.744 263.6669L580.744 263.6669L302.377 263.6669z" /></clipPath><clipPath id="8"><path d="M302.377 512.0219L580.744 512.0219L580.744 512.0219L580.744 512.7719L580.744 512.7719L302.377 512.7719z" /></clipPath><clipPath id="9"><path d="M302.377 720.61L580.744 720.61L580.744 720.61L580.744 721.36L580.744 721.36L302.377 721.36z" /></clipPath><clipPath id="10"><path d="M0 55.08063L297.8752 55.08063L297.8752 55.08063L297.8752 790.3881L297.8752 790.3881L0 790.3881z" /></clipPath><clipPath id="11"><path d="M297.8752 55.08063L594.9999 55.08063L594.9999 55.08063L594.9999 790.3881L594.9999 790.3881L297.8752 790.3881z" /></clipPath><clipPath id="12"><path d="M0 55.08063L297.8752 55.08063L297.8752 55.08063L297.8752 790.3881L297.8752 790.3881L0 790.3881z" /></clipPath><clipPath id="13"><path d="M297.8752 55.08063L594.9999 55.08063L594.9999 55.08063L594.9999 790.3881L594.9999 790.3881L297.8752 790.3881z" /></clipPath></defs><g transform="matrix(1.333333 0 0 1.333333 0 0)"><g><g clip-path="url(#1)"><g clip-path="url(#2)"><path transform="matrix(1 0 0 -1 0 841)" d="M0 841.92L792.9999 841.92L792.9999 841.92L792.9999 -280.0799L792.9999 -280.0799L0 -280.0799z" stroke="none" fill="#FFFFFF" fill-rule="winding" /><path transform="matrix(1 0 0 -1 0 841)" d="M0 796.92L594.9999 796.92L594.9999 796.92L594.9999 795.92L594.9999 795.92L0 795.92z" stroke="none" fill="#B7B5B5" fill-rule="winding" /><g transform="matrix(0.1840659 0 0 0.1886792 510 12.08002)"><g transform="matrix(1 0 0 1 0 0)"><image x="0" y="0" xlink:href="img_01.png" width="364" height="106" /></g></g></g><g clip-path="url(#3)"><path transform="matrix(1 0 0 -1 0 841)" d="M0 16962.71L594.9999 16962.71L594.9999 16962.71L594.9999 -2528.225L594.9999 -2528.225L0 -2528.225z" stroke="none" fill="#FFFFFF" fill-rule="winding" /><path transform="matrix(1 0 0 -1 0 841)" d="M297.1248 2211.517L297.8751 2211.517L297.8751 2211.517L297.8751 -2528.225L297.8751 -2528.225L297.1248 -2528.225z" stroke="none" fill="#767D71" fill-rule="winding" /></g><g clip-path="url(#4)"><path transform="matrix(1 0 0 -1 0 841)" d="M291.1223 768.6611L293.3732 768.6611L293.3732 768.6611L293.3732 767.9102L293.3732 767.9102L291.1223 767.9102M287.3809 768.6611L289.6318 768.6611L289.6318 768.6611L289.6318 767.9102L289.6318 767.9102L287.3809 767.9102M283.6394 768.6611L285.8904 768.6611L285.8904 768.6611L285.8904 767.9102L285.8904 767.9102L283.6394 767.9102M279.898 768.6611L282.1489 768.6611L282.1489 768.6611L282.1489 767.9102L282.1489 767.9102L279.898 767.9102M276.1566 768.6611L278.4075 768.6611L278.4075 768.6611L278.4075 767.9102L278.4075 767.9102L276.1566 767.9102M272.4151 768.6611L274.666 768.6611L274.666 768.6611L274.666 767.9102L274.666 767.9102L272.4151 767.9102M268.6737 768.6611L270.9246 768.6611L270.9246 768.6611L270.9246 767.9102L270.9246 767.9102L268.6737 767.9102M264.9323 768.6611L267.1832 768.6611L267.1832 768.6611L267.1832 767.9102L267.1832 767.9102L264.9323 767.9102M261.1908 768.6611L263.4417 768.6611L263.4417 768.6611L263.4417 767.9102L263.4417 767.9102L261.1908 767.9102M257.4494 768.6611L259.7003 768.6611L259.7003 768.6611L259.7003 767.9102L259.7003 767.9102L257.4494 767.9102M253.7079 768.6611L255.9589 768.6611L255.9589 768.6611L255.9589 767.9102L255.9589 767.9102L253.7079 767.9102M249.9665 768.6611L252.2174 768.6611L252.2174 768.6611L252.2174 767.9102L252.2174 767.9102L249.9665 767.9102M246.2251 768.6611L248.476 768.6611L248.476 768.6611L248.476 767.9102L248.476 767.9102L246.2251 767.9102M242.4836 768.6611L244.7346 768.6611L244.7346 768.6611L244.7346 767.9102L244.7346 767.9102L242.4836 767.9102M238.7422 768.6611L240.9931 768.6611L240.9931 768.6611L240.9931 767.9102L240.9931 767.9102L238.7422 767.9102M235.0007 768.6611L237.2517 768.6611L237.2517 768.6611L237.2517 767.9102L237.2517 767.9102L235.0007 767.9102M231.2593 768.6611L233.5103 768.6611L233.5103 768.6611L233.5103 767.9102L233.5103 767.9102L231.2593 767.9102M227.5179 768.6611L229.7688 768.6611L229.7688 768.6611L229.7688 767.9102L229.7688 767.9102L227.5179 767.9102M223.7764 768.6611L226.0274 768.6611L226.0274 768.6611L226.0274 767.9102L226.0274 767.9102L223.7764 767.9102M220.035 768.6611L222.2859 768.6611L222.2859 768.6611L222.2859 767.9102L222.2859 767.9102L220.035 767.9102M216.2936 768.6611L218.5445 768.6611L218.5445 768.6611L218.5445 767.9102L218.5445 767.9102L216.2936 767.9102M212.5521 768.6611L214.8031 768.6611L214.8031 768.6611L214.8031 767.9102L214.8031 767.9102L212.5521 767.9102M208.8107 768.6611L211.0616 768.6611L211.0616 768.6611L211.0616 767.9102L211.0616 767.9102L208.8107 767.9102M205.0692 768.6611L207.3202 768.6611L207.3202 768.6611L207.3202 767.9102L207.3202 767.9102L205.0692 767.9102M201.3278 768.6611L203.5788 768.6611L203.5788 768.6611L203.5788 767.9102L203.5788 767.9102L201.3278 767.9102M197.5864 768.6611L199.8373 768.6611L199.8373 768.6611L199.8373 767.9102L199.8373 767.9102L197.5864 767.9102M193.8449 768.6611L196.0959 768.6611L196.0959 768.6611L196.0959 767.9102L196.0959 767.9102L193.8449 767.9102M190.1035 768.6611L192.3545 768.6611L192.3545 768.6611L192.3545 767.9102L192.3545 767.9102L190.1035 767.9102M186.3621 768.6611L188.613 768.6611L188.613 768.6611L188.613 767.9102L188.613 767.9102L186.3621 767.9102M182.6206 768.6611L184.8716 768.6611L184.8716 768.6611L184.8716 767.9102L184.8716 767.9102L182.6206 767.9102M178.8792 768.6611L181.1301 768.6611L181.1301 768.6611L181.1301 767.9102L181.1301 767.9102L178.8792 767.9102M175.1378 768.6611L177.3887 768.6611L177.3887 768.6611L177.3887 767.9102L177.3887 767.9102L175.1378 767.9102M171.3963 768.6611L173.6473 768.6611L173.6473 768.6611L173.6473 767.9102L173.6473 767.9102L171.3963 767.9102M167.6549 768.6611L169.9058 768.6611L169.9058 768.6611L169.9058 767.9102L169.9058 767.9102L167.6549 767.9102M163.9135 768.6611L166.1644 768.6611L166.1644 768.6611L166.1644 767.9102L166.1644 767.9102L163.9135 767.9102M160.172 768.6611L162.423 768.6611L162.423 768.6611L162.423 767.9102L162.423 767.9102L160.172 767.9102M156.4306 768.6611L158.6815 768.6611L158.6815 768.6611L158.6815 767.9102L158.6815 767.9102L156.4306 767.9102M152.6891 768.6611L154.9401 768.6611L154.9401 768.6611L154.9401 767.9102L154.9401 767.9102L152.6891 767.9102M148.9477 768.6611L151.1987 768.6611L151.1987 768.6611L151.1987 767.9102L151.1987 767.9102L148.9477 767.9102M145.2063 768.6611L147.4572 768.6611L147.4572 768.6611L147.4572 767.9102L147.4572 767.9102L145.2063 767.9102M141.4648 768.6611L143.7158 768.6611L143.7158 768.6611L143.7158 767.9102L143.7158 767.9102L141.4648 767.9102M137.7234 768.6611L139.9743 768.6611L139.9743 768.6611L139.9743 767.9102L139.9743 767.9102L137.7234 767.9102M133.982 768.6611L136.2329 768.6611L136.2329 768.6611L136.2329 767.9102L136.2329 767.9102L133.982 767.9102M130.2405 768.6611L132.4915 768.6611L132.4915 768.6611L132.4915 767.9102L132.4915 767.9102L130.2405 767.9102M126.4991 768.6611L128.75 768.6611L128.75 768.6611L128.75 767.9102L128.75 767.9102L126.4991 767.9102M122.7577 768.6611L125.0086 768.6611L125.0086 768.6611L125.0086 767.9102L125.0086 767.9102L122.7577 767.9102M119.0162 768.6611L121.2672 768.6611L121.2672 768.6611L121.2672 767.9102L121.2672 767.9102L119.0162 767.9102M115.2748 768.6611L117.5257 768.6611L117.5257 768.6611L117.5257 767.9102L117.5257 767.9102L115.2748 767.9102M111.5333 768.6611L113.7843 768.6611L113.7843 768.6611L113.7843 767.9102L113.7843 767.9102L111.5333 767.9102M107.7919 768.6611L110.0429 768.6611L110.0429 768.6611L110.0429 767.9102L110.0429 767.9102L107.7919 767.9102M104.0505 768.6611L106.3014 768.6611L106.3014 768.6611L106.3014 767.9102L106.3014 767.9102L104.0505 767.9102M100.309 768.6611L102.56 768.6611L102.56 768.6611L102.56 767.9102L102.56 767.9102L100.309 767.9102M96.56759 768.6611L98.81853 768.6611L98.81853 768.6611L98.81853 767.9102L98.81853 767.9102L96.56759 767.9102M92.82616 768.6611L95.0771 768.6611L95.0771 768.6611L95.0771 767.9102L95.0771 767.9102L92.82616 767.9102M89.08472 768.6611L91.33566 768.6611L91.33566 768.6611L91.33566 767.9102L91.33566 767.9102L89.08472 767.9102M85.34328 768.6611L87.59422 768.6611L87.59422 768.6611L87.59422 767.9102L87.59422 767.9102L85.34328 767.9102M81.60185 768.6611L83.85279 768.6611L83.85279 768.6611L83.85279 767.9102L83.85279 767.9102L81.60185 767.9102M77.86041 768.6611L80.11136 768.6611L80.11136 768.6611L80.11136 767.9102L80.11136 767.9102L77.86041 767.9102M74.11897 768.6611L76.36992 768.6611L76.36992 768.6611L76.36992 767.9102L76.36992 767.9102L74.11897 767.9102M70.37753 768.6611L72.62848 768.6611L72.62848 768.6611L72.62848 767.9102L72.62848 767.9102L70.37753 767.9102M66.63609 768.6611L68.88704 768.6611L68.88704 768.6611L68.88704 767.9102L68.88704 767.9102L66.63609 767.9102M62.89466 768.6611L65.14561 768.6611L65.14561 768.6611L65.14561 767.9102L65.14561 767.9102L62.89466 767.9102M59.15322 768.6611L61.40417 768.6611L61.40417 768.6611L61.40417 767.9102L61.40417 767.9102L59.15322 767.9102M55.41179 768.6611L57.66273 768.6611L57.66273 768.6611L57.66273 767.9102L57.66273 767.9102L55.41179 767.9102M51.67036 768.6611L53.9213 768.6611L53.9213 768.6611L53.9213 767.9102L53.9213 767.9102L51.67036 767.9102M47.92892 768.6611L50.17986 768.6611L50.17986 768.6611L50.17986 767.9102L50.17986 767.9102L47.92892 767.9102M44.18748 768.6611L46.43843 768.6611L46.43843 768.6611L46.43843 767.9102L46.43843 767.9102L44.18748 767.9102M40.44604 768.6611L42.69699 768.6611L42.69699 768.6611L42.69699 767.9102L42.69699 767.9102L40.44604 767.9102M36.70461 768.6611L38.95555 768.6611L38.95555 768.6611L38.95555 767.9102L38.95555 767.9102L36.70461 767.9102M32.96317 768.6611L35.21412 768.6611L35.21412 768.6611L35.21412 767.9102L35.21412 767.9102L32.96317 767.9102M29.22174 768.6611L31.47268 768.6611L31.47268 768.6611L31.47268 767.9102L31.47268 767.9102L29.22174 767.9102M25.4803 768.6611L27.73124 768.6611L27.73124 768.6611L27.73124 767.9102L27.73124 767.9102L25.4803 767.9102M21.73886 768.6611L23.98981 768.6611L23.98981 768.6611L23.98981 767.9102L23.98981 767.9102L21.73886 767.9102M17.99743 768.6611L20.24837 768.6611L20.24837 768.6611L20.24837 767.9102L20.24837 767.9102L17.99743 767.9102M14.25599 768.6611L16.50694 768.6611L16.50694 768.6611L16.50694 767.9102L16.50694 767.9102L14.25599 767.9102" stroke="none" fill="#E3E4E3" fill-rule="winding" /></g><g clip-path="url(#5)"><path transform="matrix(1 0 0 -1 0 841)" d="M291.1223 506.0508L293.3732 506.0508L293.3732 506.0508L293.3732 505.3008L293.3732 505.3008L291.1223 505.3008M287.3809 506.0508L289.6318 506.0508L289.6318 506.0508L289.6318 505.3008L289.6318 505.3008L287.3809 505.3008M283.6394 506.0508L285.8904 506.0508L285.8904 506.0508L285.8904 505.3008L285.8904 505.3008L283.6394 505.3008M279.898 506.0508L282.1489 506.0508L282.1489 506.0508L282.1489 505.3008L282.1489 505.3008L279.898 505.3008M276.1566 506.0508L278.4075 506.0508L278.4075 506.0508L278.4075 505.3008L278.4075 505.3008L276.1566 505.3008M272.4151 506.0508L274.666 506.0508L274.666 506.0508L274.666 505.3008L274.666 505.3008L272.4151 505.3008M268.6737 506.0508L270.9246 506.0508L270.9246 506.0508L270.9246 505.3008L270.9246 505.3008L268.6737 505.3008M264.9323 506.0508L267.1832 506.0508L267.1832 506.0508L267.1832 505.3008L267.1832 505.3008L264.9323 505.3008M261.1908 506.0508L263.4417 506.0508L263.4417 506.0508L263.4417 505.3008L263.4417 505.3008L261.1908 505.3008M257.4494 506.0508L259.7003 506.0508L259.7003 506.0508L259.7003 505.3008L259.7003 505.3008L257.4494 505.3008M253.7079 506.0508L255.9589 506.0508L255.9589 506.0508L255.9589 505.3008L255.9589 505.3008L253.7079 505.3008M249.9665 506.0508L252.2174 506.0508L252.2174 506.0508L252.2174 505.3008L252.2174 505.3008L249.9665 505.3008M246.2251 506.0508L248.476 506.0508L248.476 506.0508L248.476 505.3008L248.476 505.3008L246.2251 505.3008M242.4836 506.0508L244.7346 506.0508L244.7346 506.0508L244.7346 505.3008L244.7346 505.3008L242.4836 505.3008M238.7422 506.0508L240.9931 506.0508L240.9931 506.0508L240.9931 505.3008L240.9931 505.3008L238.7422 505.3008M235.0007 506.0508L237.2517 506.0508L237.2517 506.0508L237.2517 505.3008L237.2517 505.3008L235.0007 505.3008M231.2593 506.0508L233.5103 506.0508L233.5103 506.0508L233.5103 505.3008L233.5103 505.3008L231.2593 505.3008M227.5179 506.0508L229.7688 506.0508L229.7688 506.0508L229.7688 505.3008L229.7688 505.3008L227.5179 505.3008M223.7764 506.0508L226.0274 506.0508L226.0274 506.0508L226.0274 505.3008L226.0274 505.3008L223.7764 505.3008M220.035 506.0508L222.2859 506.0508L222.2859 506.0508L222.2859 505.3008L222.2859 505.3008L220.035 505.3008M216.2936 506.0508L218.5445 506.0508L218.5445 506.0508L218.5445 505.3008L218.5445 505.3008L216.2936 505.3008M212.5521 506.0508L214.8031 506.0508L214.8031 506.0508L214.8031 505.3008L214.8031 505.3008L212.5521 505.3008M208.8107 506.0508L211.0616 506.0508L211.0616 506.0508L211.0616 505.3008L211.0616 505.3008L208.8107 505.3008M205.0692 506.0508L207.3202 506.0508L207.3202 506.0508L207.3202 505.3008L207.3202 505.3008L205.0692 505.3008M201.3278 506.0508L203.5788 506.0508L203.5788 506.0508L203.5788 505.3008L203.5788 505.3008L201.3278 505.3008M197.5864 506.0508L199.8373 506.0508L199.8373 506.0508L199.8373 505.3008L199.8373 505.3008L197.5864 505.3008M193.8449 506.0508L196.0959 506.0508L196.0959 506.0508L196.0959 505.3008L196.0959 505.3008L193.8449 505.3008M190.1035 506.0508L192.3545 506.0508L192.3545 506.0508L192.3545 505.3008L192.3545 505.3008L190.1035 505.3008M186.3621 506.0508L188.613 506.0508L188.613 506.0508L188.613 505.3008L188.613 505.3008L186.3621 505.3008M182.6206 506.0508L184.8716 506.0508L184.8716 506.0508L184.8716 505.3008L184.8716 505.3008L182.6206 505.3008M178.8792 506.0508L181.1301 506.0508L181.1301 506.0508L181.1301 505.3008L181.1301 505.3008L178.8792 505.3008M175.1378 506.0508L177.3887 506.0508L177.3887 506.0508L177.3887 505.3008L177.3887 505.3008L175.1378 505.3008M171.3963 506.0508L173.6473 506.0508L173.6473 506.0508L173.6473 505.3008L173.6473 505.3008L171.3963 505.3008M167.6549 506.0508L169.9058 506.0508L169.9058 506.0508L169.9058 505.3008L169.9058 505.3008L167.6549 505.3008M163.9135 506.0508L166.1644 506.0508L166.1644 506.0508L166.1644 505.3008L166.1644 505.3008L163.9135 505.3008M160.172 506.0508L162.423 506.0508L162.423 506.0508L162.423 505.3008L162.423 505.3008L160.172 505.3008M156.4306 506.0508L158.6815 506.0508L158.6815 506.0508L158.6815 505.3008L158.6815 505.3008L156.4306 505.3008M152.6891 506.0508L154.9401 506.0508L154.9401 506.0508L154.9401 505.3008L154.9401 505.3008L152.6891 505.3008M148.9477 506.0508L151.1987 506.0508L151.1987 506.0508L151.1987 505.3008L151.1987 505.3008L148.9477 505.3008M145.2063 506.0508L147.4572 506.0508L147.4572 506.0508L147.4572 505.3008L147.4572 505.3008L145.2063 505.3008M141.4648 506.0508L143.7158 506.0508L143.7158 506.0508L143.7158 505.3008L143.7158 505.3008L141.4648 505.3008M137.7234 506.0508L139.9743 506.0508L139.9743 506.0508L139.9743 505.3008L139.9743 505.3008L137.7234 505.3008M133.982 506.0508L136.2329 506.0508L136.2329 506.0508L136.2329 505.3008L136.2329 505.3008L133.982 505.3008M130.2405 506.0508L132.4915 506.0508L132.4915 506.0508L132.4915 505.3008L132.4915 505.3008L130.2405 505.3008M126.4991 506.0508L128.75 506.0508L128.75 506.0508L128.75 505.3008L128.75 505.3008L126.4991 505.3008M122.7577 506.0508L125.0086 506.0508L125.0086 506.0508L125.0086 505.3008L125.0086 505.3008L122.7577 505.3008M119.0162 506.0508L121.2672 506.0508L121.2672 506.0508L121.2672 505.3008L121.2672 505.3008L119.0162 505.3008M115.2748 506.0508L117.5257 506.0508L117.5257 506.0508L117.5257 505.3008L117.5257 505.3008L115.2748 505.3008M111.5333 506.0508L113.7843 506.0508L113.7843 506.0508L113.7843 505.3008L113.7843 505.3008L111.5333 505.3008M107.7919 506.0508L110.0429 506.0508L110.0429 506.0508L110.0429 505.3008L110.0429 505.3008L107.7919 505.3008M104.0505 506.0508L106.3014 506.0508L106.3014 506.0508L106.3014 505.3008L106.3014 505.3008L104.0505 505.3008M100.309 506.0508L102.56 506.0508L102.56 506.0508L102.56 505.3008L102.56 505.3008L100.309 505.3008M96.56759 506.0508L98.81853 506.0508L98.81853 506.0508L98.81853 505.3008L98.81853 505.3008L96.56759 505.3008M92.82616 506.0508L95.0771 506.0508L95.0771 506.0508L95.0771 505.3008L95.0771 505.3008L92.82616 505.3008M89.08472 506.0508L91.33566 506.0508L91.33566 506.0508L91.33566 505.3008L91.33566 505.3008L89.08472 505.3008M85.34328 506.0508L87.59422 506.0508L87.59422 506.0508L87.59422 505.3008L87.59422 505.3008L85.34328 505.3008M81.60185 506.0508L83.85279 506.0508L83.85279 506.0508L83.85279 505.3008L83.85279 505.3008L81.60185 505.3008M77.86041 506.0508L80.11136 506.0508L80.11136 506.0508L80.11136 505.3008L80.11136 505.3008L77.86041 505.3008M74.11897 506.0508L76.36992 506.0508L76.36992 506.0508L76.36992 505.3008L76.36992 505.3008L74.11897 505.3008M70.37753 506.0508L72.62848 506.0508L72.62848 506.0508L72.62848 505.3008L72.62848 505.3008L70.37753 505.3008M66.63609 506.0508L68.88704 506.0508L68.88704 506.0508L68.88704 505.3008L68.88704 505.3008L66.63609 505.3008M62.89466 506.0508L65.14561 506.0508L65.14561 506.0508L65.14561 505.3008L65.14561 505.3008L62.89466 505.3008M59.15322 506.0508L61.40417 506.0508L61.40417 506.0508L61.40417 505.3008L61.40417 505.3008L59.15322 505.3008M55.41179 506.0508L57.66273 506.0508L57.66273 506.0508L57.66273 505.3008L57.66273 505.3008L55.41179 505.3008M51.67036 506.0508L53.9213 506.0508L53.9213 506.0508L53.9213 505.3008L53.9213 505.3008L51.67036 505.3008M47.92892 506.0508L50.17986 506.0508L50.17986 506.0508L50.17986 505.3008L50.17986 505.3008L47.92892 505.3008M44.18748 506.0508L46.43843 506.0508L46.43843 506.0508L46.43843 505.3008L46.43843 505.3008L44.18748 505.3008M40.44604 506.0508L42.69699 506.0508L42.69699 506.0508L42.69699 505.3008L42.69699 505.3008L40.44604 505.3008M36.70461 506.0508L38.95555 506.0508L38.95555 506.0508L38.95555 505.3008L38.95555 505.3008L36.70461 505.3008M32.96317 506.0508L35.21412 506.0508L35.21412 506.0508L35.21412 505.3008L35.21412 505.3008L32.96317 505.3008M29.22174 506.0508L31.47268 506.0508L31.47268 506.0508L31.47268 505.3008L31.47268 505.3008L29.22174 505.3008M25.4803 506.0508L27.73124 506.0508L27.73124 506.0508L27.73124 505.3008L27.73124 505.3008L25.4803 505.3008M21.73886 506.0508L23.98981 506.0508L23.98981 506.0508L23.98981 505.3008L23.98981 505.3008L21.73886 505.3008M17.99743 506.0508L20.24837 506.0508L20.24837 506.0508L20.24837 505.3008L20.24837 505.3008L17.99743 505.3008M14.25599 506.0508L16.50694 506.0508L16.50694 506.0508L16.50694 505.3008L16.50694 505.3008L14.25599 505.3008" stroke="none" fill="#E3E4E3" fill-rule="winding" /></g><g clip-path="url(#6)"><path transform="matrix(1 0 0 -1 0 841)" d="M291.1223 162.4063L293.3732 162.4063L293.3732 162.4063L293.3732 161.6563L293.3732 161.6563L291.1223 161.6563M287.3809 162.4063L289.6318 162.4063L289.6318 162.4063L289.6318 161.6563L289.6318 161.6563L287.3809 161.6563M283.6394 162.4063L285.8904 162.4063L285.8904 162.4063L285.8904 161.6563L285.8904 161.6563L283.6394 161.6563M279.898 162.4063L282.1489 162.4063L282.1489 162.4063L282.1489 161.6563L282.1489 161.6563L279.898 161.6563M276.1566 162.4063L278.4075 162.4063L278.4075 162.4063L278.4075 161.6563L278.4075 161.6563L276.1566 161.6563M272.4151 162.4063L274.666 162.4063L274.666 162.4063L274.666 161.6563L274.666 161.6563L272.4151 161.6563M268.6737 162.4063L270.9246 162.4063L270.9246 162.4063L270.9246 161.6563L270.9246 161.6563L268.6737 161.6563M264.9323 162.4063L267.1832 162.4063L267.1832 162.4063L267.1832 161.6563L267.1832 161.6563L264.9323 161.6563M261.1908 162.4063L263.4417 162.4063L263.4417 162.4063L263.4417 161.6563L263.4417 161.6563L261.1908 161.6563M257.4494 162.4063L259.7003 162.4063L259.7003 162.4063L259.7003 161.6563L259.7003 161.6563L257.4494 161.6563M253.7079 162.4063L255.9589 162.4063L255.9589 162.4063L255.9589 161.6563L255.9589 161.6563L253.7079 161.6563M249.9665 162.4063L252.2174 162.4063L252.2174 162.4063L252.2174 161.6563L252.2174 161.6563L249.9665 161.6563M246.2251 162.4063L248.476 162.4063L248.476 162.4063L248.476 161.6563L248.476 161.6563L246.2251 161.6563M242.4836 162.4063L244.7346 162.4063L244.7346 162.4063L244.7346 161.6563L244.7346 161.6563L242.4836 161.6563M238.7422 162.4063L240.9931 162.4063L240.9931 162.4063L240.9931 161.6563L240.9931 161.6563L238.7422 161.6563M235.0007 162.4063L237.2517 162.4063L237.2517 162.4063L237.2517 161.6563L237.2517 161.6563L235.0007 161.6563M231.2593 162.4063L233.5103 162.4063L233.5103 162.4063L233.5103 161.6563L233.5103 161.6563L231.2593 161.6563M227.5179 162.4063L229.7688 162.4063L229.7688 162.4063L229.7688 161.6563L229.7688 161.6563L227.5179 161.6563M223.7764 162.4063L226.0274 162.4063L226.0274 162.4063L226.0274 161.6563L226.0274 161.6563L223.7764 161.6563M220.035 162.4063L222.2859 162.4063L222.2859 162.4063L222.2859 161.6563L222.2859 161.6563L220.035 161.6563M216.2936 162.4063L218.5445 162.4063L218.5445 162.4063L218.5445 161.6563L218.5445 161.6563L216.2936 161.6563M212.5521 162.4063L214.8031 162.4063L214.8031 162.4063L214.8031 161.6563L214.8031 161.6563L212.5521 161.6563M208.8107 162.4063L211.0616 162.4063L211.0616 162.4063L211.0616 161.6563L211.0616 161.6563L208.8107 161.6563M205.0692 162.4063L207.3202 162.4063L207.3202 162.4063L207.3202 161.6563L207.3202 161.6563L205.0692 161.6563M201.3278 162.4063L203.5788 162.4063L203.5788 162.4063L203.5788 161.6563L203.5788 161.6563L201.3278 161.6563M197.5864 162.4063L199.8373 162.4063L199.8373 162.4063L199.8373 161.6563L199.8373 161.6563L197.5864 161.6563M193.8449 162.4063L196.0959 162.4063L196.0959 162.4063L196.0959 161.6563L196.0959 161.6563L193.8449 161.6563M190.1035 162.4063L192.3545 162.4063L192.3545 162.4063L192.3545 161.6563L192.3545 161.6563L190.1035 161.6563M186.3621 162.4063L188.613 162.4063L188.613 162.4063L188.613 161.6563L188.613 161.6563L186.3621 161.6563M182.6206 162.4063L184.8716 162.4063L184.8716 162.4063L184.8716 161.6563L184.8716 161.6563L182.6206 161.6563M178.8792 162.4063L181.1301 162.4063L181.1301 162.4063L181.1301 161.6563L181.1301 161.6563L178.8792 161.6563M175.1378 162.4063L177.3887 162.4063L177.3887 162.4063L177.3887 161.6563L177.3887 161.6563L175.1378 161.6563M171.3963 162.4063L173.6473 162.4063L173.6473 162.4063L173.6473 161.6563L173.6473 161.6563L171.3963 161.6563M167.6549 162.4063L169.9058 162.4063L169.9058 162.4063L169.9058 161.6563L169.9058 161.6563L167.6549 161.6563M163.9135 162.4063L166.1644 162.4063L166.1644 162.4063L166.1644 161.6563L166.1644 161.6563L163.9135 161.6563M160.172 162.4063L162.423 162.4063L162.423 162.4063L162.423 161.6563L162.423 161.6563L160.172 161.6563M156.4306 162.4063L158.6815 162.4063L158.6815 162.4063L158.6815 161.6563L158.6815 161.6563L156.4306 161.6563M152.6891 162.4063L154.9401 162.4063L154.9401 162.4063L154.9401 161.6563L154.9401 161.6563L152.6891 161.6563M148.9477 162.4063L151.1987 162.4063L151.1987 162.4063L151.1987 161.6563L151.1987 161.6563L148.9477 161.6563M145.2063 162.4063L147.4572 162.4063L147.4572 162.4063L147.4572 161.6563L147.4572 161.6563L145.2063 161.6563M141.4648 162.4063L143.7158 162.4063L143.7158 162.4063L143.7158 161.6563L143.7158 161.6563L141.4648 161.6563M137.7234 162.4063L139.9743 162.4063L139.9743 162.4063L139.9743 161.6563L139.9743 161.6563L137.7234 161.6563M133.982 162.4063L136.2329 162.4063L136.2329 162.4063L136.2329 161.6563L136.2329 161.6563L133.982 161.6563M130.2405 162.4063L132.4915 162.4063L132.4915 162.4063L132.4915 161.6563L132.4915 161.6563L130.2405 161.6563M126.4991 162.4063L128.75 162.4063L128.75 162.4063L128.75 161.6563L128.75 161.6563L126.4991 161.6563M122.7577 162.4063L125.0086 162.4063L125.0086 162.4063L125.0086 161.6563L125.0086 161.6563L122.7577 161.6563M119.0162 162.4063L121.2672 162.4063L121.2672 162.4063L121.2672 161.6563L121.2672 161.6563L119.0162 161.6563M115.2748 162.4063L117.5257 162.4063L117.5257 162.4063L117.5257 161.6563L117.5257 161.6563L115.2748 161.6563M111.5333 162.4063L113.7843 162.4063L113.7843 162.4063L113.7843 161.6563L113.7843 161.6563L111.5333 161.6563M107.7919 162.4063L110.0429 162.4063L110.0429 162.4063L110.0429 161.6563L110.0429 161.6563L107.7919 161.6563M104.0505 162.4063L106.3014 162.4063L106.3014 162.4063L106.3014 161.6563L106.3014 161.6563L104.0505 161.6563M100.309 162.4063L102.56 162.4063L102.56 162.4063L102.56 161.6563L102.56 161.6563L100.309 161.6563M96.56759 162.4063L98.81853 162.4063L98.81853 162.4063L98.81853 161.6563L98.81853 161.6563L96.56759 161.6563M92.82616 162.4063L95.0771 162.4063L95.0771 162.4063L95.0771 161.6563L95.0771 161.6563L92.82616 161.6563M89.08472 162.4063L91.33566 162.4063L91.33566 162.4063L91.33566 161.6563L91.33566 161.6563L89.08472 161.6563M85.34328 162.4063L87.59422 162.4063L87.59422 162.4063L87.59422 161.6563L87.59422 161.6563L85.34328 161.6563M81.60185 162.4063L83.85279 162.4063L83.85279 162.4063L83.85279 161.6563L83.85279 161.6563L81.60185 161.6563M77.86041 162.4063L80.11136 162.4063L80.11136 162.4063L80.11136 161.6563L80.11136 161.6563L77.86041 161.6563M74.11897 162.4063L76.36992 162.4063L76.36992 162.4063L76.36992 161.6563L76.36992 161.6563L74.11897 161.6563M70.37753 162.4063L72.62848 162.4063L72.62848 162.4063L72.62848 161.6563L72.62848 161.6563L70.37753 161.6563M66.63609 162.4063L68.88704 162.4063L68.88704 162.4063L68.88704 161.6563L68.88704 161.6563L66.63609 161.6563M62.89466 162.4063L65.14561 162.4063L65.14561 162.4063L65.14561 161.6563L65.14561 161.6563L62.89466 161.6563M59.15322 162.4063L61.40417 162.4063L61.40417 162.4063L61.40417 161.6563L61.40417 161.6563L59.15322 161.6563M55.41179 162.4063L57.66273 162.4063L57.66273 162.4063L57.66273 161.6563L57.66273 161.6563L55.41179 161.6563M51.67036 162.4063L53.9213 162.4063L53.9213 162.4063L53.9213 161.6563L53.9213 161.6563L51.67036 161.6563M47.92892 162.4063L50.17986 162.4063L50.17986 162.4063L50.17986 161.6563L50.17986 161.6563L47.92892 161.6563M44.18748 162.4063L46.43843 162.4063L46.43843 162.4063L46.43843 161.6563L46.43843 161.6563L44.18748 161.6563M40.44604 162.4063L42.69699 162.4063L42.69699 162.4063L42.69699 161.6563L42.69699 161.6563L40.44604 161.6563M36.70461 162.4063L38.95555 162.4063L38.95555 162.4063L38.95555 161.6563L38.95555 161.6563L36.70461 161.6563M32.96317 162.4063L35.21412 162.4063L35.21412 162.4063L35.21412 161.6563L35.21412 161.6563L32.96317 161.6563M29.22174 162.4063L31.47268 162.4063L31.47268 162.4063L31.47268 161.6563L31.47268 161.6563L29.22174 161.6563M25.4803 162.4063L27.73124 162.4063L27.73124 162.4063L27.73124 161.6563L27.73124 161.6563L25.4803 161.6563M21.73886 162.4063L23.98981 162.4063L23.98981 162.4063L23.98981 161.6563L23.98981 161.6563L21.73886 161.6563M17.99743 162.4063L20.24837 162.4063L20.24837 162.4063L20.24837 161.6563L20.24837 161.6563L17.99743 161.6563M14.25599 162.4063L16.50694 162.4063L16.50694 162.4063L16.50694 161.6563L16.50694 161.6563L14.25599 161.6563" stroke="none" fill="#E3E4E3" fill-rule="winding" /></g><g clip-path="url(#7)"><path transform="matrix(1 0 0 -1 0 841)" d="M578.493 578.0801L580.744 578.0801L580.744 578.0801L580.744 577.3301L580.744 577.3301L578.493 577.3301M574.7617 578.0801L577.0127 578.0801L577.0127 578.0801L577.0127 577.3301L577.0127 577.3301L574.7617 577.3301M571.0305 578.0801L573.2814 578.0801L573.2814 578.0801L573.2814 577.3301L573.2814 577.3301L571.0305 577.3301M567.2991 578.0801L569.55 578.0801L569.55 578.0801L569.55 577.3301L569.55 577.3301L567.2991 577.3301M563.5679 578.0801L565.8188 578.0801L565.8188 578.0801L565.8188 577.3301L565.8188 577.3301L563.5679 577.3301M559.8365 578.0801L562.0875 578.0801L562.0875 578.0801L562.0875 577.3301L562.0875 577.3301L559.8365 577.3301M556.1052 578.0801L558.3562 578.0801L558.3562 578.0801L558.3562 577.3301L558.3562 577.3301L556.1052 577.3301M552.374 578.0801L554.6249 578.0801L554.6249 578.0801L554.6249 577.3301L554.6249 577.3301L552.374 577.3301M548.6426 578.0801L550.8936 578.0801L550.8936 578.0801L550.8936 577.3301L550.8936 577.3301L548.6426 577.3301M544.9114 578.0801L547.1623 578.0801L547.1623 578.0801L547.1623 577.3301L547.1623 577.3301L544.9114 577.3301M541.1801 578.0801L543.431 578.0801L543.431 578.0801L543.431 577.3301L543.431 577.3301L541.1801 577.3301M537.4487 578.0801L539.6997 578.0801L539.6997 578.0801L539.6997 577.3301L539.6997 577.3301L537.4487 577.3301M533.7175 578.0801L535.9684 578.0801L535.9684 578.0801L535.9684 577.3301L535.9684 577.3301L533.7175 577.3301M529.9861 578.0801L532.2371 578.0801L532.2371 578.0801L532.2371 577.3301L532.2371 577.3301L529.9861 577.3301M526.2549 578.0801L528.5058 578.0801L528.5058 578.0801L528.5058 577.3301L528.5058 577.3301L526.2549 577.3301M522.5236 578.0801L524.7745 578.0801L524.7745 578.0801L524.7745 577.3301L524.7745 577.3301L522.5236 577.3301M518.7922 578.0801L521.0432 578.0801L521.0432 578.0801L521.0432 577.3301L521.0432 577.3301L518.7922 577.3301M515.061 578.0801L517.3119 578.0801L517.3119 578.0801L517.3119 577.3301L517.3119 577.3301L515.061 577.3301M511.3296 578.0801L513.5806 578.0801L513.5806 578.0801L513.5806 577.3301L513.5806 577.3301L511.3296 577.3301M507.5984 578.0801L509.8493 578.0801L509.8493 578.0801L509.8493 577.3301L509.8493 577.3301L507.5984 577.3301M503.8671 578.0801L506.118 578.0801L506.118 578.0801L506.118 577.3301L506.118 577.3301L503.8671 577.3301M500.1358 578.0801L502.3867 578.0801L502.3867 578.0801L502.3867 577.3301L502.3867 577.3301L500.1358 577.3301M496.4045 578.0801L498.6554 578.0801L498.6554 578.0801L498.6554 577.3301L498.6554 577.3301L496.4045 577.3301M492.6732 578.0801L494.9241 578.0801L494.9241 578.0801L494.9241 577.3301L494.9241 577.3301L492.6732 577.3301M488.9419 578.0801L491.1928 578.0801L491.1928 578.0801L491.1928 577.3301L491.1928 577.3301L488.9419 577.3301M485.2106 578.0801L487.4615 578.0801L487.4615 578.0801L487.4615 577.3301L487.4615 577.3301L485.2106 577.3301M481.4793 578.0801L483.7302 578.0801L483.7302 578.0801L483.7302 577.3301L483.7302 577.3301L481.4793 577.3301M477.748 578.0801L479.9989 578.0801L479.9989 578.0801L479.9989 577.3301L479.9989 577.3301L477.748 577.3301M474.0167 578.0801L476.2676 578.0801L476.2676 578.0801L476.2676 577.3301L476.2676 577.3301L474.0167 577.3301M470.2854 578.0801L472.5363 578.0801L472.5363 578.0801L472.5363 577.3301L472.5363 577.3301L470.2854 577.3301M466.5541 578.0801L468.805 578.0801L468.805 578.0801L468.805 577.3301L468.805 577.3301L466.5541 577.3301M462.8228 578.0801L465.0737 578.0801L465.0737 578.0801L465.0737 577.3301L465.0737 577.3301L462.8228 577.3301M459.0915 578.0801L461.3424 578.0801L461.3424 578.0801L461.3424 577.3301L461.3424 577.3301L459.0915 577.3301M455.3602 578.0801L457.6112 578.0801L457.6112 578.0801L457.6112 577.3301L457.6112 577.3301L455.3602 577.3301M451.6289 578.0801L453.8799 578.0801L453.8799 578.0801L453.8799 577.3301L453.8799 577.3301L451.6289 577.3301M447.8976 578.0801L450.1485 578.0801L450.1485 578.0801L450.1485 577.3301L450.1485 577.3301L447.8976 577.3301M444.1663 578.0801L446.4172 578.0801L446.4172 578.0801L446.4172 577.3301L446.4172 577.3301L444.1663 577.3301M440.435 578.0801L442.686 578.0801L442.686 578.0801L442.686 577.3301L442.686 577.3301L440.435 577.3301M436.7037 578.0801L438.9547 578.0801L438.9547 578.0801L438.9547 577.3301L438.9547 577.3301L436.7037 577.3301M432.9724 578.0801L435.2234 578.0801L435.2234 578.0801L435.2234 577.3301L435.2234 577.3301L432.9724 577.3301M429.2411 578.0801L431.4921 578.0801L431.4921 578.0801L431.4921 577.3301L431.4921 577.3301L429.2411 577.3301M425.5098 578.0801L427.7608 578.0801L427.7608 578.0801L427.7608 577.3301L427.7608 577.3301L425.5098 577.3301M421.7785 578.0801L424.0295 578.0801L424.0295 578.0801L424.0295 577.3301L424.0295 577.3301L421.7785 577.3301M418.0472 578.0801L420.2982 578.0801L420.2982 578.0801L420.2982 577.3301L420.2982 577.3301L418.0472 577.3301M414.3159 578.0801L416.5669 578.0801L416.5669 578.0801L416.5669 577.3301L416.5669 577.3301L414.3159 577.3301M410.5846 578.0801L412.8356 578.0801L412.8356 578.0801L412.8356 577.3301L412.8356 577.3301L410.5846 577.3301M406.8533 578.0801L409.1043 578.0801L409.1043 578.0801L409.1043 577.3301L409.1043 577.3301L406.8533 577.3301M403.122 578.0801L405.373 578.0801L405.373 578.0801L405.373 577.3301L405.373 577.3301L403.122 577.3301M399.3907 578.0801L401.6417 578.0801L401.6417 578.0801L401.6417 577.3301L401.6417 577.3301L399.3907 577.3301M395.6595 578.0801L397.9104 578.0801L397.9104 578.0801L397.9104 577.3301L397.9104 577.3301L395.6595 577.3301M391.9281 578.0801L394.1791 578.0801L394.1791 578.0801L394.1791 577.3301L394.1791 577.3301L391.9281 577.3301M388.1968 578.0801L390.4478 578.0801L390.4478 578.0801L390.4478 577.3301L390.4478 577.3301L388.1968 577.3301M384.4655 578.0801L386.7165 578.0801L386.7165 578.0801L386.7165 577.3301L386.7165 577.3301L384.4655 577.3301M380.7343 578.0801L382.9852 578.0801L382.9852 578.0801L382.9852 577.3301L382.9852 577.3301L380.7343 577.3301M377.003 578.0801L379.2539 578.0801L379.2539 578.0801L379.2539 577.3301L379.2539 577.3301L377.003 577.3301M373.2717 578.0801L375.5226 578.0801L375.5226 578.0801L375.5226 577.3301L375.5226 577.3301L373.2717 577.3301M369.5404 578.0801L371.7913 578.0801L371.7913 578.0801L371.7913 577.3301L371.7913 577.3301L369.5404 577.3301M365.8091 578.0801L368.06 578.0801L368.06 578.0801L368.06 577.3301L368.06 577.3301L365.8091 577.3301M362.0778 578.0801L364.3287 578.0801L364.3287 578.0801L364.3287 577.3301L364.3287 577.3301L362.0778 577.3301M358.3465 578.0801L360.5974 578.0801L360.5974 578.0801L360.5974 577.3301L360.5974 577.3301L358.3465 577.3301M354.6152 578.0801L356.8661 578.0801L356.8661 578.0801L356.8661 577.3301L356.8661 577.3301L354.6152 577.3301M350.8839 578.0801L353.1348 578.0801L353.1348 578.0801L353.1348 577.3301L353.1348 577.3301L350.8839 577.3301M347.1526 578.0801L349.4035 578.0801L349.4035 578.0801L349.4035 577.3301L349.4035 577.3301L347.1526 577.3301M343.4213 578.0801L345.6722 578.0801L345.6722 578.0801L345.6722 577.3301L345.6722 577.3301L343.4213 577.3301M339.69 578.0801L341.9409 578.0801L341.9409 578.0801L341.9409 577.3301L341.9409 577.3301L339.69 577.3301M335.9587 578.0801L338.2096 578.0801L338.2096 578.0801L338.2096 577.3301L338.2096 577.3301L335.9587 577.3301M332.2274 578.0801L334.4783 578.0801L334.4783 578.0801L334.4783 577.3301L334.4783 577.3301L332.2274 577.3301M328.4961 578.0801L330.747 578.0801L330.747 578.0801L330.747 577.3301L330.747 577.3301L328.4961 577.3301M324.7648 578.0801L327.0157 578.0801L327.0157 578.0801L327.0157 577.3301L327.0157 577.3301L324.7648 577.3301M321.0335 578.0801L323.2845 578.0801L323.2845 578.0801L323.2845 577.3301L323.2845 577.3301L321.0335 577.3301M317.3022 578.0801L319.5532 578.0801L319.5532 578.0801L319.5532 577.3301L319.5532 577.3301L317.3022 577.3301M313.5709 578.0801L315.8219 578.0801L315.8219 578.0801L315.8219 577.3301L315.8219 577.3301L313.5709 577.3301M309.8396 578.0801L312.0906 578.0801L312.0906 578.0801L312.0906 577.3301L312.0906 577.3301L309.8396 577.3301M306.1083 578.0801L308.3593 578.0801L308.3593 578.0801L308.3593 577.3301L308.3593 577.3301L306.1083 577.3301M302.377 578.0801L304.628 578.0801L304.628 578.0801L304.628 577.3301L304.628 577.3301L302.377 577.3301" stroke="none" fill="#E3E4E3" fill-rule="winding" /></g><g clip-path="url(#8)"><path transform="matrix(1 0 0 -1 0 841)" d="M578.493 328.9766L580.744 328.9766L580.744 328.9766L580.744 328.2266L580.744 328.2266L578.493 328.2266M574.7617 328.9766L577.0127 328.9766L577.0127 328.9766L577.0127 328.2266L577.0127 328.2266L574.7617 328.2266M571.0305 328.9766L573.2814 328.9766L573.2814 328.9766L573.2814 328.2266L573.2814 328.2266L571.0305 328.2266M567.2991 328.9766L569.55 328.9766L569.55 328.9766L569.55 328.2266L569.55 328.2266L567.2991 328.2266M563.5679 328.9766L565.8188 328.9766L565.8188 328.9766L565.8188 328.2266L565.8188 328.2266L563.5679 328.2266M559.8365 328.9766L562.0875 328.9766L562.0875 328.9766L562.0875 328.2266L562.0875 328.2266L559.8365 328.2266M556.1052 328.9766L558.3562 328.9766L558.3562 328.9766L558.3562 328.2266L558.3562 328.2266L556.1052 328.2266M552.374 328.9766L554.6249 328.9766L554.6249 328.9766L554.6249 328.2266L554.6249 328.2266L552.374 328.2266M548.6426 328.9766L550.8936 328.9766L550.8936 328.9766L550.8936 328.2266L550.8936 328.2266L548.6426 328.2266M544.9114 328.9766L547.1623 328.9766L547.1623 328.9766L547.1623 328.2266L547.1623 328.2266L544.9114 328.2266M541.1801 328.9766L543.431 328.9766L543.431 328.9766L543.431 328.2266L543.431 328.2266L541.1801 328.2266M537.4487 328.9766L539.6997 328.9766L539.6997 328.9766L539.6997 328.2266L539.6997 328.2266L537.4487 328.2266M533.7175 328.9766L535.9684 328.9766L535.9684 328.9766L535.9684 328.2266L535.9684 328.2266L533.7175 328.2266M529.9861 328.9766L532.2371 328.9766L532.2371 328.9766L532.2371 328.2266L532.2371 328.2266L529.9861 328.2266M526.2549 328.9766L528.5058 328.9766L528.5058 328.9766L528.5058 328.2266L528.5058 328.2266L526.2549 328.2266M522.5236 328.9766L524.7745 328.9766L524.7745 328.9766L524.7745 328.2266L524.7745 328.2266L522.5236 328.2266M518.7922 328.9766L521.0432 328.9766L521.0432 328.9766L521.0432 328.2266L521.0432 328.2266L518.7922 328.2266M515.061 328.9766L517.3119 328.9766L517.3119 328.9766L517.3119 328.2266L517.3119 328.2266L515.061 328.2266M511.3296 328.9766L513.5806 328.9766L513.5806 328.9766L513.5806 328.2266L513.5806 328.2266L511.3296 328.2266M507.5984 328.9766L509.8493 328.9766L509.8493 328.9766L509.8493 328.2266L509.8493 328.2266L507.5984 328.2266M503.8671 328.9766L506.118 328.9766L506.118 328.9766L506.118 328.2266L506.118 328.2266L503.8671 328.2266M500.1358 328.9766L502.3867 328.9766L502.3867 328.9766L502.3867 328.2266L502.3867 328.2266L500.1358 328.2266M496.4045 328.9766L498.6554 328.9766L498.6554 328.9766L498.6554 328.2266L498.6554 328.2266L496.4045 328.2266M492.6732 328.9766L494.9241 328.9766L494.9241 328.9766L494.9241 328.2266L494.9241 328.2266L492.6732 328.2266M488.9419 328.9766L491.1928 328.9766L491.1928 328.9766L491.1928 328.2266L491.1928 328.2266L488.9419 328.2266M485.2106 328.9766L487.4615 328.9766L487.4615 328.9766L487.4615 328.2266L487.4615 328.2266L485.2106 328.2266M481.4793 328.9766L483.7302 328.9766L483.7302 328.9766L483.7302 328.2266L483.7302 328.2266L481.4793 328.2266M477.748 328.9766L479.9989 328.9766L479.9989 328.9766L479.9989 328.2266L479.9989 328.2266L477.748 328.2266M474.0167 328.9766L476.2676 328.9766L476.2676 328.9766L476.2676 328.2266L476.2676 328.2266L474.0167 328.2266M470.2854 328.9766L472.5363 328.9766L472.5363 328.9766L472.5363 328.2266L472.5363 328.2266L470.2854 328.2266M466.5541 328.9766L468.805 328.9766L468.805 328.9766L468.805 328.2266L468.805 328.2266L466.5541 328.2266M462.8228 328.9766L465.0737 328.9766L465.0737 328.9766L465.0737 328.2266L465.0737 328.2266L462.8228 328.2266M459.0915 328.9766L461.3424 328.9766L461.3424 328.9766L461.3424 328.2266L461.3424 328.2266L459.0915 328.2266M455.3602 328.9766L457.6112 328.9766L457.6112 328.9766L457.6112 328.2266L457.6112 328.2266L455.3602 328.2266M451.6289 328.9766L453.8799 328.9766L453.8799 328.9766L453.8799 328.2266L453.8799 328.2266L451.6289 328.2266M447.8976 328.9766L450.1485 328.9766L450.1485 328.9766L450.1485 328.2266L450.1485 328.2266L447.8976 328.2266M444.1663 328.9766L446.4172 328.9766L446.4172 328.9766L446.4172 328.2266L446.4172 328.2266L444.1663 328.2266M440.435 328.9766L442.686 328.9766L442.686 328.9766L442.686 328.2266L442.686 328.2266L440.435 328.2266M436.7037 328.9766L438.9547 328.9766L438.9547 328.9766L438.9547 328.2266L438.9547 328.2266L436.7037 328.2266M432.9724 328.9766L435.2234 328.9766L435.2234 328.9766L435.2234 328.2266L435.2234 328.2266L432.9724 328.2266M429.2411 328.9766L431.4921 328.9766L431.4921 328.9766L431.4921 328.2266L431.4921 328.2266L429.2411 328.2266M425.5098 328.9766L427.7608 328.9766L427.7608 328.9766L427.7608 328.2266L427.7608 328.2266L425.5098 328.2266M421.7785 328.9766L424.0295 328.9766L424.0295 328.9766L424.0295 328.2266L424.0295 328.2266L421.7785 328.2266M418.0472 328.9766L420.2982 328.9766L420.2982 328.9766L420.2982 328.2266L420.2982 328.2266L418.0472 328.2266M414.3159 328.9766L416.5669 328.9766L416.5669 328.9766L416.5669 328.2266L416.5669 328.2266L414.3159 328.2266M410.5846 328.9766L412.8356 328.9766L412.8356 328.9766L412.8356 328.2266L412.8356 328.2266L410.5846 328.2266M406.8533 328.9766L409.1043 328.9766L409.1043 328.9766L409.1043 328.2266L409.1043 328.2266L406.8533 328.2266M403.122 328.9766L405.373 328.9766L405.373 328.9766L405.373 328.2266L405.373 328.2266L403.122 328.2266M399.3907 328.9766L401.6417 328.9766L401.6417 328.9766L401.6417 328.2266L401.6417 328.2266L399.3907 328.2266M395.6595 328.9766L397.9104 328.9766L397.9104 328.9766L397.9104 328.2266L397.9104 328.2266L395.6595 328.2266M391.9281 328.9766L394.1791 328.9766L394.1791 328.9766L394.1791 328.2266L394.1791 328.2266L391.9281 328.2266M388.1968 328.9766L390.4478 328.9766L390.4478 328.9766L390.4478 328.2266L390.4478 328.2266L388.1968 328.2266M384.4655 328.9766L386.7165 328.9766L386.7165 328.9766L386.7165 328.2266L386.7165 328.2266L384.4655 328.2266M380.7343 328.9766L382.9852 328.9766L382.9852 328.9766L382.9852 328.2266L382.9852 328.2266L380.7343 328.2266M377.003 328.9766L379.2539 328.9766L379.2539 328.9766L379.2539 328.2266L379.2539 328.2266L377.003 328.2266M373.2717 328.9766L375.5226 328.9766L375.5226 328.9766L375.5226 328.2266L375.5226 328.2266L373.2717 328.2266M369.5404 328.9766L371.7913 328.9766L371.7913 328.9766L371.7913 328.2266L371.7913 328.2266L369.5404 328.2266M365.8091 328.9766L368.06 328.9766L368.06 328.9766L368.06 328.2266L368.06 328.2266L365.8091 328.2266M362.0778 328.9766L364.3287 328.9766L364.3287 328.9766L364.3287 328.2266L364.3287 328.2266L362.0778 328.2266M358.3465 328.9766L360.5974 328.9766L360.5974 328.9766L360.5974 328.2266L360.5974 328.2266L358.3465 328.2266M354.6152 328.9766L356.8661 328.9766L356.8661 328.9766L356.8661 328.2266L356.8661 328.2266L354.6152 328.2266M350.8839 328.9766L353.1348 328.9766L353.1348 328.9766L353.1348 328.2266L353.1348 328.2266L350.8839 328.2266M347.1526 328.9766L349.4035 328.9766L349.4035 328.9766L349.4035 328.2266L349.4035 328.2266L347.1526 328.2266M343.4213 328.9766L345.6722 328.9766L345.6722 328.9766L345.6722 328.2266L345.6722 328.2266L343.4213 328.2266M339.69 328.9766L341.9409 328.9766L341.9409 328.9766L341.9409 328.2266L341.9409 328.2266L339.69 328.2266M335.9587 328.9766L338.2096 328.9766L338.2096 328.9766L338.2096 328.2266L338.2096 328.2266L335.9587 328.2266M332.2274 328.9766L334.4783 328.9766L334.4783 328.9766L334.4783 328.2266L334.4783 328.2266L332.2274 328.2266M328.4961 328.9766L330.747 328.9766L330.747 328.9766L330.747 328.2266L330.747 328.2266L328.4961 328.2266M324.7648 328.9766L327.0157 328.9766L327.0157 328.9766L327.0157 328.2266L327.0157 328.2266L324.7648 328.2266M321.0335 328.9766L323.2845 328.9766L323.2845 328.9766L323.2845 328.2266L323.2845 328.2266L321.0335 328.2266M317.3022 328.9766L319.5532 328.9766L319.5532 328.9766L319.5532 328.2266L319.5532 328.2266L317.3022 328.2266M313.5709 328.9766L315.8219 328.9766L315.8219 328.9766L315.8219 328.2266L315.8219 328.2266L313.5709 328.2266M309.8396 328.9766L312.0906 328.9766L312.0906 328.9766L312.0906 328.2266L312.0906 328.2266L309.8396 328.2266M306.1083 328.9766L308.3593 328.9766L308.3593 328.9766L308.3593 328.2266L308.3593 328.2266L306.1083 328.2266M302.377 328.9766L304.628 328.9766L304.628 328.9766L304.628 328.2266L304.628 328.2266L302.377 328.2266" stroke="none" fill="#E3E4E3" fill-rule="winding" /></g><g clip-path="url(#9)"><path transform="matrix(1 0 0 -1 0 841)" d="M578.493 120.3887L580.744 120.3887L580.744 120.3887L580.744 119.6387L580.744 119.6387L578.493 119.6387M574.7617 120.3887L577.0127 120.3887L577.0127 120.3887L577.0127 119.6387L577.0127 119.6387L574.7617 119.6387M571.0305 120.3887L573.2814 120.3887L573.2814 120.3887L573.2814 119.6387L573.2814 119.6387L571.0305 119.6387M567.2991 120.3887L569.55 120.3887L569.55 120.3887L569.55 119.6387L569.55 119.6387L567.2991 119.6387M563.5679 120.3887L565.8188 120.3887L565.8188 120.3887L565.8188 119.6387L565.8188 119.6387L563.5679 119.6387M559.8365 120.3887L562.0875 120.3887L562.0875 120.3887L562.0875 119.6387L562.0875 119.6387L559.8365 119.6387M556.1052 120.3887L558.3562 120.3887L558.3562 120.3887L558.3562 119.6387L558.3562 119.6387L556.1052 119.6387M552.374 120.3887L554.6249 120.3887L554.6249 120.3887L554.6249 119.6387L554.6249 119.6387L552.374 119.6387M548.6426 120.3887L550.8936 120.3887L550.8936 120.3887L550.8936 119.6387L550.8936 119.6387L548.6426 119.6387M544.9114 120.3887L547.1623 120.3887L547.1623 120.3887L547.1623 119.6387L547.1623 119.6387L544.9114 119.6387M541.1801 120.3887L543.431 120.3887L543.431 120.3887L543.431 119.6387L543.431 119.6387L541.1801 119.6387M537.4487 120.3887L539.6997 120.3887L539.6997 120.3887L539.6997 119.6387L539.6997 119.6387L537.4487 119.6387M533.7175 120.3887L535.9684 120.3887L535.9684 120.3887L535.9684 119.6387L535.9684 119.6387L533.7175 119.6387M529.9861 120.3887L532.2371 120.3887L532.2371 120.3887L532.2371 119.6387L532.2371 119.6387L529.9861 119.6387M526.2549 120.3887L528.5058 120.3887L528.5058 120.3887L528.5058 119.6387L528.5058 119.6387L526.2549 119.6387M522.5236 120.3887L524.7745 120.3887L524.7745 120.3887L524.7745 119.6387L524.7745 119.6387L522.5236 119.6387M518.7922 120.3887L521.0432 120.3887L521.0432 120.3887L521.0432 119.6387L521.0432 119.6387L518.7922 119.6387M515.061 120.3887L517.3119 120.3887L517.3119 120.3887L517.3119 119.6387L517.3119 119.6387L515.061 119.6387M511.3296 120.3887L513.5806 120.3887L513.5806 120.3887L513.5806 119.6387L513.5806 119.6387L511.3296 119.6387M507.5984 120.3887L509.8493 120.3887L509.8493 120.3887L509.8493 119.6387L509.8493 119.6387L507.5984 119.6387M503.8671 120.3887L506.118 120.3887L506.118 120.3887L506.118 119.6387L506.118 119.6387L503.8671 119.6387M500.1358 120.3887L502.3867 120.3887L502.3867 120.3887L502.3867 119.6387L502.3867 119.6387L500.1358 119.6387M496.4045 120.3887L498.6554 120.3887L498.6554 120.3887L498.6554 119.6387L498.6554 119.6387L496.4045 119.6387M492.6732 120.3887L494.9241 120.3887L494.9241 120.3887L494.9241 119.6387L494.9241 119.6387L492.6732 119.6387M488.9419 120.3887L491.1928 120.3887L491.1928 120.3887L491.1928 119.6387L491.1928 119.6387L488.9419 119.6387M485.2106 120.3887L487.4615 120.3887L487.4615 120.3887L487.4615 119.6387L487.4615 119.6387L485.2106 119.6387M481.4793 120.3887L483.7302 120.3887L483.7302 120.3887L483.7302 119.6387L483.7302 119.6387L481.4793 119.6387M477.748 120.3887L479.9989 120.3887L479.9989 120.3887L479.9989 119.6387L479.9989 119.6387L477.748 119.6387M474.0167 120.3887L476.2676 120.3887L476.2676 120.3887L476.2676 119.6387L476.2676 119.6387L474.0167 119.6387M470.2854 120.3887L472.5363 120.3887L472.5363 120.3887L472.5363 119.6387L472.5363 119.6387L470.2854 119.6387M466.5541 120.3887L468.805 120.3887L468.805 120.3887L468.805 119.6387L468.805 119.6387L466.5541 119.6387M462.8228 120.3887L465.0737 120.3887L465.0737 120.3887L465.0737 119.6387L465.0737 119.6387L462.8228 119.6387M459.0915 120.3887L461.3424 120.3887L461.3424 120.3887L461.3424 119.6387L461.3424 119.6387L459.0915 119.6387M455.3602 120.3887L457.6112 120.3887L457.6112 120.3887L457.6112 119.6387L457.6112 119.6387L455.3602 119.6387M451.6289 120.3887L453.8799 120.3887L453.8799 120.3887L453.8799 119.6387L453.8799 119.6387L451.6289 119.6387M447.8976 120.3887L450.1485 120.3887L450.1485 120.3887L450.1485 119.6387L450.1485 119.6387L447.8976 119.6387M444.1663 120.3887L446.4172 120.3887L446.4172 120.3887L446.4172 119.6387L446.4172 119.6387L444.1663 119.6387M440.435 120.3887L442.686 120.3887L442.686 120.3887L442.686 119.6387L442.686 119.6387L440.435 119.6387M436.7037 120.3887L438.9547 120.3887L438.9547 120.3887L438.9547 119.6387L438.9547 119.6387L436.7037 119.6387M432.9724 120.3887L435.2234 120.3887L435.2234 120.3887L435.2234 119.6387L435.2234 119.6387L432.9724 119.6387M429.2411 120.3887L431.4921 120.3887L431.4921 120.3887L431.4921 119.6387L431.4921 119.6387L429.2411 119.6387M425.5098 120.3887L427.7608 120.3887L427.7608 120.3887L427.7608 119.6387L427.7608 119.6387L425.5098 119.6387M421.7785 120.3887L424.0295 120.3887L424.0295 120.3887L424.0295 119.6387L424.0295 119.6387L421.7785 119.6387M418.0472 120.3887L420.2982 120.3887L420.2982 120.3887L420.2982 119.6387L420.2982 119.6387L418.0472 119.6387M414.3159 120.3887L416.5669 120.3887L416.5669 120.3887L416.5669 119.6387L416.5669 119.6387L414.3159 119.6387M410.5846 120.3887L412.8356 120.3887L412.8356 120.3887L412.8356 119.6387L412.8356 119.6387L410.5846 119.6387M406.8533 120.3887L409.1043 120.3887L409.1043 120.3887L409.1043 119.6387L409.1043 119.6387L406.8533 119.6387M403.122 120.3887L405.373 120.3887L405.373 120.3887L405.373 119.6387L405.373 119.6387L403.122 119.6387M399.3907 120.3887L401.6417 120.3887L401.6417 120.3887L401.6417 119.6387L401.6417 119.6387L399.3907 119.6387M395.6595 120.3887L397.9104 120.3887L397.9104 120.3887L397.9104 119.6387L397.9104 119.6387L395.6595 119.6387M391.9281 120.3887L394.1791 120.3887L394.1791 120.3887L394.1791 119.6387L394.1791 119.6387L391.9281 119.6387M388.1968 120.3887L390.4478 120.3887L390.4478 120.3887L390.4478 119.6387L390.4478 119.6387L388.1968 119.6387M384.4655 120.3887L386.7165 120.3887L386.7165 120.3887L386.7165 119.6387L386.7165 119.6387L384.4655 119.6387M380.7343 120.3887L382.9852 120.3887L382.9852 120.3887L382.9852 119.6387L382.9852 119.6387L380.7343 119.6387M377.003 120.3887L379.2539 120.3887L379.2539 120.3887L379.2539 119.6387L379.2539 119.6387L377.003 119.6387M373.2717 120.3887L375.5226 120.3887L375.5226 120.3887L375.5226 119.6387L375.5226 119.6387L373.2717 119.6387M369.5404 120.3887L371.7913 120.3887L371.7913 120.3887L371.7913 119.6387L371.7913 119.6387L369.5404 119.6387M365.8091 120.3887L368.06 120.3887L368.06 120.3887L368.06 119.6387L368.06 119.6387L365.8091 119.6387M362.0778 120.3887L364.3287 120.3887L364.3287 120.3887L364.3287 119.6387L364.3287 119.6387L362.0778 119.6387M358.3465 120.3887L360.5974 120.3887L360.5974 120.3887L360.5974 119.6387L360.5974 119.6387L358.3465 119.6387M354.6152 120.3887L356.8661 120.3887L356.8661 120.3887L356.8661 119.6387L356.8661 119.6387L354.6152 119.6387M350.8839 120.3887L353.1348 120.3887L353.1348 120.3887L353.1348 119.6387L353.1348 119.6387L350.8839 119.6387M347.1526 120.3887L349.4035 120.3887L349.4035 120.3887L349.4035 119.6387L349.4035 119.6387L347.1526 119.6387M343.4213 120.3887L345.6722 120.3887L345.6722 120.3887L345.6722 119.6387L345.6722 119.6387L343.4213 119.6387M339.69 120.3887L341.9409 120.3887L341.9409 120.3887L341.9409 119.6387L341.9409 119.6387L339.69 119.6387M335.9587 120.3887L338.2096 120.3887L338.2096 120.3887L338.2096 119.6387L338.2096 119.6387L335.9587 119.6387M332.2274 120.3887L334.4783 120.3887L334.4783 120.3887L334.4783 119.6387L334.4783 119.6387L332.2274 119.6387M328.4961 120.3887L330.747 120.3887L330.747 120.3887L330.747 119.6387L330.747 119.6387L328.4961 119.6387M324.7648 120.3887L327.0157 120.3887L327.0157 120.3887L327.0157 119.6387L327.0157 119.6387L324.7648 119.6387M321.0335 120.3887L323.2845 120.3887L323.2845 120.3887L323.2845 119.6387L323.2845 119.6387L321.0335 119.6387M317.3022 120.3887L319.5532 120.3887L319.5532 120.3887L319.5532 119.6387L319.5532 119.6387L317.3022 119.6387M313.5709 120.3887L315.8219 120.3887L315.8219 120.3887L315.8219 119.6387L315.8219 119.6387L313.5709 119.6387M309.8396 120.3887L312.0906 120.3887L312.0906 120.3887L312.0906 119.6387L312.0906 119.6387L309.8396 119.6387M306.1083 120.3887L308.3593 120.3887L308.3593 120.3887L308.3593 119.6387L308.3593 119.6387L306.1083 119.6387M302.377 120.3887L304.628 120.3887L304.628 120.3887L304.628 119.6387L304.628 119.6387L302.377 119.6387" stroke="none" fill="#E3E4E3" fill-rule="winding" /></g><g clip-path="url(#10)"><path transform="matrix(1 0 0 -1 0 841)" d="M19.50819 747.6523L19.50819 756.6563C 19.50819 756.9551 19.56531 757.2422 19.67953 757.5186C 19.79376 757.7949 19.95641 758.0381 20.16748 758.2471C 20.37855 758.458 20.62197 758.6211 20.89774 758.7363C 21.17351 758.8496 21.46065 758.9063 21.75914 758.9063L21.75914 758.9063L33.01387 758.9063C 33.31236 758.9063 33.59949 758.8496 33.87526 758.7363C 34.15103 758.6211 34.39445 758.458 34.60552 758.2471C 34.81659 758.0381 34.97924 757.7949 35.09347 757.5186C 35.2077 757.2422 35.26481 756.9551 35.26481 756.6563L35.26481 756.6563L35.26481 747.6523C 35.26481 747.3545 35.2077 747.0674 35.09346 746.79C 34.97924 746.5166 34.81659 746.2734 34.60552 746.0605C 34.39445 745.8506 34.15103 745.6885 33.87526 745.5752C 33.59949 745.46 33.31236 745.4023 33.01387 745.4023L33.01387 745.4023L21.75914 745.4023C 21.46065 745.4023 21.17351 745.46 20.89774 745.5752C 20.62197 745.6885 20.37855 745.8506 20.16748 746.0605C 19.95641 746.2734 19.79376 746.5166 19.67953 746.79C 19.56531 747.0674 19.50819 747.3545 19.50819 747.6523z" stroke="none" fill="#333333" fill-rule="winding" /><path transform="matrix(1 0 0 -1 0 841)" d="M19.50819 485.041L19.50819 494.0449C 19.50819 494.3438 19.56531 494.6309 19.67953 494.9082C 19.79376 495.1836 19.95641 495.4277 20.16748 495.6387C 20.37855 495.8516 20.62197 496.0137 20.89774 496.127C 21.17351 496.2383 21.46065 496.2969 21.75914 496.2969L21.75914 496.2969L33.01387 496.2969C 33.31236 496.2969 33.59949 496.2383 33.87526 496.127C 34.15103 496.0137 34.39445 495.8516 34.60552 495.6387C 34.81659 495.4277 34.97924 495.1836 35.09347 494.9082C 35.2077 494.6309 35.26481 494.3438 35.26481 494.0449L35.26481 494.0449L35.26481 485.041C 35.26481 484.7441 35.2077 484.457 35.09346 484.1816C 34.97924 483.9063 34.81659 483.6621 34.60552 483.4492C 34.39445 483.2402 34.15103 483.0781 33.87526 482.9629C 33.59949 482.8496 33.31236 482.793 33.01387 482.791L33.01387 482.791L21.75914 482.791C 21.46065 482.793 21.17351 482.8496 20.89774 482.9629C 20.62197 483.0781 20.37855 483.2402 20.16748 483.4492C 19.95641 483.6621 19.79376 483.9063 19.67953 484.1816C 19.56531 484.457 19.50819 484.7441 19.50819 485.041z" stroke="none" fill="#333333" fill-rule="winding" /><path transform="matrix(1 0 0 -1 0 841)" d="M19.50819 141.3965L19.50819 150.4004C 19.50819 150.7012 19.56531 150.9883 19.67953 151.2637C 19.79376 151.541 19.95641 151.7852 20.16748 151.9941C 20.37855 152.2051 20.62197 152.3672 20.89774 152.4824C 21.17351 152.5957 21.46065 152.6523 21.75914 152.6523L21.75914 152.6523L33.01387 152.6523C 33.31236 152.6523 33.59949 152.5957 33.87526 152.4824C 34.15103 152.3672 34.39445 152.2051 34.60552 151.9941C 34.81659 151.7852 34.97924 151.541 35.09347 151.2637C 35.2077 150.9883 35.26481 150.7012 35.26481 150.4004L35.26481 150.4004L35.26481 141.3965C 35.26481 141.0996 35.2077 140.8145 35.09346 140.5371C 34.97924 140.2598 34.81659 140.0176 34.60552 139.8066C 34.39445 139.5957 34.15103 139.4316 33.87526 139.3184C 33.59949 139.2051 33.31236 139.1484 33.01387 139.1465L33.01387 139.1465L21.75914 139.1465C 21.46065 139.1484 21.17351 139.2051 20.89774 139.3184C 20.62197 139.4316 20.37855 139.5957 20.16748 139.8066C 19.95641 140.0176 19.79376 140.2598 19.67953 140.5371C 19.56531 140.8145 19.50819 141.0996 19.50819 141.3965z" stroke="none" fill="#333333" fill-rule="winding" /></g><g clip-path="url(#11)"><path transform="matrix(1 0 0 -1 0 841)" d="M307.6292 557.0723L307.6292 566.0762C 307.6292 566.377 307.6863 566.6641 307.8005 566.9395C 307.9148 567.2168 308.0774 567.459 308.2885 567.668C 308.4995 567.8809 308.743 568.043 309.0187 568.1563C 309.2945 568.2695 309.5817 568.3262 309.8802 568.3262L309.8802 568.3262L321.1349 568.3262C 321.4334 568.3262 321.7205 568.2695 321.9963 568.1563C 322.2721 568.043 322.5155 567.8809 322.7266 567.668C 322.9376 567.459 323.1003 567.2168 323.2145 566.9395C 323.3287 566.6641 323.3858 566.377 323.3858 566.0762L323.3858 566.0762L323.3858 557.0723C 323.3858 556.7754 323.3287 556.4883 323.2145 556.2109C 323.1003 555.9355 322.9376 555.6934 322.7266 555.4805C 322.5155 555.2715 322.2721 555.1074 321.9963 554.9922C 321.7205 554.8789 321.4334 554.8223 321.1349 554.8223L321.1349 554.8223L309.8802 554.8223C 309.5817 554.8223 309.2945 554.8789 309.0187 554.9922C 308.743 555.1074 308.4995 555.2715 308.2885 555.4805C 308.0774 555.6934 307.9148 555.9355 307.8005 556.2109C 307.6863 556.4883 307.6292 556.7754 307.6292 557.0723z" stroke="none" fill="#333333" fill-rule="winding" /><path transform="matrix(1 0 0 -1 0 841)" d="M307.6292 307.9668L307.6292 316.9707C 307.6292 317.2715 307.6863 317.5586 307.8005 317.834C 307.9148 318.1113 308.0774 318.3535 308.2885 318.5645C 308.4995 318.7754 308.743 318.9375 309.0187 319.0527C 309.2945 319.1641 309.5817 319.2227 309.8802 319.2227L309.8802 319.2227L321.1349 319.2227C 321.4334 319.2227 321.7205 319.1641 321.9963 319.0527C 322.2721 318.9375 322.5155 318.7754 322.7266 318.5645C 322.9376 318.3535 323.1003 318.1113 323.2145 317.834C 323.3287 317.5586 323.3858 317.2715 323.3858 316.9707L323.3858 316.9707L323.3858 307.9668C 323.3858 307.6699 323.3287 307.3848 323.2145 307.1094C 323.1003 306.834 322.9376 306.5898 322.7266 306.377C 322.5155 306.168 322.2721 306.0059 321.9963 305.8906C 321.7205 305.7754 321.4334 305.7188 321.1349 305.7168L321.1349 305.7168L309.8802 305.7168C 309.5817 305.7188 309.2945 305.7754 309.0187 305.8906C 308.743 306.0059 308.4995 306.168 308.2885 306.377C 308.0774 306.5898 307.9148 306.834 307.8005 307.1094C 307.6863 307.3848 307.6292 307.6699 307.6292 307.9668z" stroke="none" fill="#333333" fill-rule="winding" /><path transform="matrix(1 0 0 -1 0 841)" d="M307.6292 99.37891L307.6292 108.3828C 307.6292 108.6836 307.6863 108.9707 307.8005 109.248C 307.9148 109.5215 308.0774 109.7656 308.2885 109.9766C 308.4995 110.1895 308.743 110.3516 309.0187 110.4648C 309.2945 110.5781 309.5817 110.6348 309.8802 110.6348L309.8802 110.6348L321.1349 110.6348C 321.4334 110.6348 321.7205 110.5781 321.9963 110.4648C 322.2721 110.3516 322.5155 110.1895 322.7266 109.9766C 322.9376 109.7656 323.1003 109.5215 323.2145 109.248C 323.3287 108.9707 323.3858 108.6836 323.3858 108.3828L323.3858 108.3828L323.3858 99.37891C 323.3858 99.08203 323.3287 98.79688 323.2145 98.52148C 323.1003 98.24414 322.9376 98 322.7266 97.78906C 322.5155 97.58008 322.2721 97.41797 321.9963 97.30078C 321.7205 97.18945 321.4334 97.13086 321.1349 97.12891L321.1349 97.12891L309.8802 97.12891C 309.5817 97.13086 309.2945 97.18945 309.0187 97.30078C 308.743 97.41797 308.4995 97.58008 308.2885 97.78906C 308.0774 98 307.9148 98.24414 307.8005 98.52148C 307.6863 98.79688 307.6292 99.08203 307.6292 99.37891z" stroke="none" fill="#333333" fill-rule="winding" /></g><g clip-path="url(#12)"></g><g clip-path="url(#13)"></g></g></g></g></svg>