<svg xmlns="http://www.w3.org/2000/svg" xmlns:xlink="http://www.w3.org/1999/xlink" id="body_3" preserveAspectRatio="xMinYMin meet" viewBox="0 0 792 1121"><defs><clipPath id="1"><path d="M0 841L0 -0.9199829L0 -0.9199829L594.96 -0.9199829L594.96 -0.9199829L594.96 841L594.96 841L0 841z" /></clipPath><clipPath id="2"><path d="M0 -0.9199829L595.2 -0.9199829L595.2 -0.9199829L595.2 841.24L595.2 841.24L0 841.24z" /></clipPath><clipPath id="3"><path d="M0 55.08008L594.9999 55.08008L594.9999 55.08008L594.9999 790.3889L594.9999 790.3889L0 790.3889z" /></clipPath><clipPath id="4"><path d="M14.25599 106.1015L473.4489 106.1015L473.4489 106.1015L473.4489 106.8519L473.4489 106.8519L14.25599 106.8519z" /></clipPath><clipPath id="5"><path d="M0 55.08008L594.9999 55.08008L594.9999 55.08008L594.9999 790.3889L594.9999 790.3889L0 790.3889z" /></clipPath><clipPath id="6"><path d="M493.7074 784.3864L571.7402 784.3864L571.7402 784.3864L571.7402 785.1368L571.7402 785.1368L493.7074 785.1368z" /></clipPath><clipPath id="7"><path d="M0 55.08008L594.9999 55.08008L594.9999 55.08008L594.9999 790.3889L594.9999 790.3889L0 790.3889z" /></clipPath></defs><g transform="matrix(1.333333 0 0 1.333333 0 0)"><g><g clip-path="url(#1)"><g clip-path="url(#2)"><path transform="matrix(1 0 0 -1 0 841)" d="M0 841.92L792.9999 841.92L792.9999 841.92L792.9999 -280.0799L792.9999 -280.0799L0 -280.0799z" stroke="none" fill="#FFFFFF" fill-rule="winding" /><path transform="matrix(1 0 0 -1 0 841)" d="M0 796.92L594.9999 796.92L594.9999 796.92L594.9999 795.92L594.9999 795.92L0 795.92z" stroke="none" fill="#B7B5B5" fill-rule="winding" /><g transform="matrix(0.1840659 0 0 0.1886792 510 12.08002)"><g transform="matrix(1 0 0 1 0 0)"><image x="0" y="0" xlink:href="img_01.png" width="364" height="106" /></g></g></g><g clip-path="url(#3)"><path transform="matrix(1 0 0 -1 0 841)" d="M0 2256.538L594.9999 2256.538L594.9999 2256.538L594.9999 -17234.4L594.9999 -17234.4L0 -17234.4z" stroke="none" fill="#FFFFFF" fill-rule="winding" /></g><g clip-path="url(#4)"><path transform="matrix(1 0 0 -1 0 841)" d="M471.1979 734.8983L473.4489 734.8983L473.4489 734.8983L473.4489 734.1479L473.4489 734.1479L471.1979 734.1479M467.4525 734.8983L469.7034 734.8983L469.7034 734.8983L469.7034 734.1479L469.7034 734.1479L467.4525 734.1479M463.7071 734.8983L465.958 734.8983L465.958 734.8983L465.958 734.1479L465.958 734.1479L463.7071 734.1479M459.9617 734.8983L462.2126 734.8983L462.2126 734.8983L462.2126 734.1479L462.2126 734.1479L459.9617 734.1479M456.2162 734.8983L458.4672 734.8983L458.4672 734.8983L458.4672 734.1479L458.4672 734.1479L456.2162 734.1479M452.4708 734.8983L454.7217 734.8983L454.7217 734.8983L454.7217 734.1479L454.7217 734.1479L452.4708 734.1479M448.7254 734.8983L450.9763 734.8983L450.9763 734.8983L450.9763 734.1479L450.9763 734.1479L448.7254 734.1479M444.9799 734.8983L447.2309 734.8983L447.2309 734.8983L447.2309 734.1479L447.2309 734.1479L444.9799 734.1479M441.2345 734.8983L443.4855 734.8983L443.4855 734.8983L443.4855 734.1479L443.4855 734.1479L441.2345 734.1479M437.4891 734.8983L439.7401 734.8983L439.7401 734.8983L439.7401 734.1479L439.7401 734.1479L437.4891 734.1479M433.7437 734.8983L435.9946 734.8983L435.9946 734.8983L435.9946 734.1479L435.9946 734.1479L433.7437 734.1479M429.9982 734.8983L432.2492 734.8983L432.2492 734.8983L432.2492 734.1479L432.2492 734.1479L429.9982 734.1479M426.2528 734.8983L428.5038 734.8983L428.5038 734.8983L428.5038 734.1479L428.5038 734.1479L426.2528 734.1479M422.5074 734.8983L424.7584 734.8983L424.7584 734.8983L424.7584 734.1479L424.7584 734.1479L422.5074 734.1479M418.762 734.8983L421.0129 734.8983L421.0129 734.8983L421.0129 734.1479L421.0129 734.1479L418.762 734.1479M415.0165 734.8983L417.2675 734.8983L417.2675 734.8983L417.2675 734.1479L417.2675 734.1479L415.0165 734.1479M411.2711 734.8983L413.5221 734.8983L413.5221 734.8983L413.5221 734.1479L413.5221 734.1479L411.2711 734.1479M407.5257 734.8983L409.7766 734.8983L409.7766 734.8983L409.7766 734.1479L409.7766 734.1479L407.5257 734.1479M403.7803 734.8983L406.0312 734.8983L406.0312 734.8983L406.0312 734.1479L406.0312 734.1479L403.7803 734.1479M400.0349 734.8983L402.2858 734.8983L402.2858 734.8983L402.2858 734.1479L402.2858 734.1479L400.0349 734.1479M396.2894 734.8983L398.5404 734.8983L398.5404 734.8983L398.5404 734.1479L398.5404 734.1479L396.2894 734.1479M392.544 734.8983L394.7949 734.8983L394.7949 734.8983L394.7949 734.1479L394.7949 734.1479L392.544 734.1479M388.7986 734.8983L391.0495 734.8983L391.0495 734.8983L391.0495 734.1479L391.0495 734.1479L388.7986 734.1479M385.0532 734.8983L387.3041 734.8983L387.3041 734.8983L387.3041 734.1479L387.3041 734.1479L385.0532 734.1479M381.3077 734.8983L383.5587 734.8983L383.5587 734.8983L383.5587 734.1479L383.5587 734.1479L381.3077 734.1479M377.5623 734.8983L379.8132 734.8983L379.8132 734.8983L379.8132 734.1479L379.8132 734.1479L377.5623 734.1479M373.8169 734.8983L376.0678 734.8983L376.0678 734.8983L376.0678 734.1479L376.0678 734.1479L373.8169 734.1479M370.0714 734.8983L372.3224 734.8983L372.3224 734.8983L372.3224 734.1479L372.3224 734.1479L370.0714 734.1479M366.326 734.8983L368.577 734.8983L368.577 734.8983L368.577 734.1479L368.577 734.1479L366.326 734.1479M362.5806 734.8983L364.8315 734.8983L364.8315 734.8983L364.8315 734.1479L364.8315 734.1479L362.5806 734.1479M358.8352 734.8983L361.0861 734.8983L361.0861 734.8983L361.0861 734.1479L361.0861 734.1479L358.8352 734.1479M355.0897 734.8983L357.3407 734.8983L357.3407 734.8983L357.3407 734.1479L357.3407 734.1479L355.0897 734.1479M351.3443 734.8983L353.5953 734.8983L353.5953 734.8983L353.5953 734.1479L353.5953 734.1479L351.3443 734.1479M347.5989 734.8983L349.8499 734.8983L349.8499 734.8983L349.8499 734.1479L349.8499 734.1479L347.5989 734.1479M343.8535 734.8983L346.1044 734.8983L346.1044 734.8983L346.1044 734.1479L346.1044 734.1479L343.8535 734.1479M340.108 734.8983L342.359 734.8983L342.359 734.8983L342.359 734.1479L342.359 734.1479L340.108 734.1479M336.3626 734.8983L338.6136 734.8983L338.6136 734.8983L338.6136 734.1479L338.6136 734.1479L336.3626 734.1479M332.6172 734.8983L334.8681 734.8983L334.8681 734.8983L334.8681 734.1479L334.8681 734.1479L332.6172 734.1479M328.8717 734.8983L331.1227 734.8983L331.1227 734.8983L331.1227 734.1479L331.1227 734.1479L328.8717 734.1479M325.1263 734.8983L327.3773 734.8983L327.3773 734.8983L327.3773 734.1479L327.3773 734.1479L325.1263 734.1479M321.3809 734.8983L323.6319 734.8983L323.6319 734.8983L323.6319 734.1479L323.6319 734.1479L321.3809 734.1479M317.6355 734.8983L319.8864 734.8983L319.8864 734.8983L319.8864 734.1479L319.8864 734.1479L317.6355 734.1479M313.89 734.8983L316.141 734.8983L316.141 734.8983L316.141 734.1479L316.141 734.1479L313.89 734.1479M310.1446 734.8983L312.3956 734.8983L312.3956 734.8983L312.3956 734.1479L312.3956 734.1479L310.1446 734.1479M306.3992 734.8983L308.6501 734.8983L308.6501 734.8983L308.6501 734.1479L308.6501 734.1479L306.3992 734.1479M302.6538 734.8983L304.9047 734.8983L304.9047 734.8983L304.9047 734.1479L304.9047 734.1479L302.6538 734.1479M298.9084 734.8983L301.1593 734.8983L301.1593 734.8983L301.1593 734.1479L301.1593 734.1479L298.9084 734.1479M295.1629 734.8983L297.4139 734.8983L297.4139 734.8983L297.4139 734.1479L297.4139 734.1479L295.1629 734.1479M291.4175 734.8983L293.6684 734.8983L293.6684 734.8983L293.6684 734.1479L293.6684 734.1479L291.4175 734.1479M287.6721 734.8983L289.923 734.8983L289.923 734.8983L289.923 734.1479L289.923 734.1479L287.6721 734.1479M283.9267 734.8983L286.1776 734.8983L286.1776 734.8983L286.1776 734.1479L286.1776 734.1479L283.9267 734.1479M280.1812 734.8983L282.4322 734.8983L282.4322 734.8983L282.4322 734.1479L282.4322 734.1479L280.1812 734.1479M276.4358 734.8983L278.6867 734.8983L278.6867 734.8983L278.6867 734.1479L278.6867 734.1479L276.4358 734.1479M272.6904 734.8983L274.9413 734.8983L274.9413 734.8983L274.9413 734.1479L274.9413 734.1479L272.6904 734.1479M268.9449 734.8983L271.1959 734.8983L271.1959 734.8983L271.1959 734.1479L271.1959 734.1479L268.9449 734.1479M265.1995 734.8983L267.4504 734.8983L267.4504 734.8983L267.4504 734.1479L267.4504 734.1479L265.1995 734.1479M261.4541 734.8983L263.705 734.8983L263.705 734.8983L263.705 734.1479L263.705 734.1479L261.4541 734.1479M257.7087 734.8983L259.9596 734.8983L259.9596 734.8983L259.9596 734.1479L259.9596 734.1479L257.7087 734.1479M253.9632 734.8983L256.2142 734.8983L256.2142 734.8983L256.2142 734.1479L256.2142 734.1479L253.9632 734.1479M250.2178 734.8983L252.4688 734.8983L252.4688 734.8983L252.4688 734.1479L252.4688 734.1479L250.2178 734.1479M246.4724 734.8983L248.7233 734.8983L248.7233 734.8983L248.7233 734.1479L248.7233 734.1479L246.4724 734.1479M242.727 734.8983L244.9779 734.8983L244.9779 734.8983L244.9779 734.1479L244.9779 734.1479L242.727 734.1479M238.9816 734.8983L241.2325 734.8983L241.2325 734.8983L241.2325 734.1479L241.2325 734.1479L238.9816 734.1479M235.2361 734.8983L237.4871 734.8983L237.4871 734.8983L237.4871 734.1479L237.4871 734.1479L235.2361 734.1479M231.4907 734.8983L233.7416 734.8983L233.7416 734.8983L233.7416 734.1479L233.7416 734.1479L231.4907 734.1479M227.7453 734.8983L229.9962 734.8983L229.9962 734.8983L229.9962 734.1479L229.9962 734.1479L227.7453 734.1479M223.9998 734.8983L226.2508 734.8983L226.2508 734.8983L226.2508 734.1479L226.2508 734.1479L223.9998 734.1479M220.2544 734.8983L222.5054 734.8983L222.5054 734.8983L222.5054 734.1479L222.5054 734.1479L220.2544 734.1479M216.509 734.8983L218.7599 734.8983L218.7599 734.8983L218.7599 734.1479L218.7599 734.1479L216.509 734.1479M212.7636 734.8983L215.0145 734.8983L215.0145 734.8983L215.0145 734.1479L215.0145 734.1479L212.7636 734.1479M209.0181 734.8983L211.2691 734.8983L211.2691 734.8983L211.2691 734.1479L211.2691 734.1479L209.0181 734.1479M205.2727 734.8983L207.5237 734.8983L207.5237 734.8983L207.5237 734.1479L207.5237 734.1479L205.2727 734.1479M201.5273 734.8983L203.7782 734.8983L203.7782 734.8983L203.7782 734.1479L203.7782 734.1479L201.5273 734.1479M197.7818 734.8983L200.0328 734.8983L200.0328 734.8983L200.0328 734.1479L200.0328 734.1479L197.7818 734.1479M194.0364 734.8983L196.2874 734.8983L196.2874 734.8983L196.2874 734.1479L196.2874 734.1479L194.0364 734.1479M190.291 734.8983L192.5419 734.8983L192.5419 734.8983L192.5419 734.1479L192.5419 734.1479L190.291 734.1479M186.5456 734.8983L188.7965 734.8983L188.7965 734.8983L188.7965 734.1479L188.7965 734.1479L186.5456 734.1479M182.8002 734.8983L185.0511 734.8983L185.0511 734.8983L185.0511 734.1479L185.0511 734.1479L182.8002 734.1479M179.0547 734.8983L181.3057 734.8983L181.3057 734.8983L181.3057 734.1479L181.3057 734.1479L179.0547 734.1479M175.3093 734.8983L177.5602 734.8983L177.5602 734.8983L177.5602 734.1479L177.5602 734.1479L175.3093 734.1479M171.5639 734.8983L173.8148 734.8983L173.8148 734.8983L173.8148 734.1479L173.8148 734.1479L171.5639 734.1479M167.8185 734.8983L170.0694 734.8983L170.0694 734.8983L170.0694 734.1479L170.0694 734.1479L167.8185 734.1479M164.073 734.8983L166.324 734.8983L166.324 734.8983L166.324 734.1479L166.324 734.1479L164.073 734.1479M160.3276 734.8983L162.5785 734.8983L162.5785 734.8983L162.5785 734.1479L162.5785 734.1479L160.3276 734.1479M156.5822 734.8983L158.8331 734.8983L158.8331 734.8983L158.8331 734.1479L158.8331 734.1479L156.5822 734.1479M152.8367 734.8983L155.0877 734.8983L155.0877 734.8983L155.0877 734.1479L155.0877 734.1479L152.8367 734.1479M149.0913 734.8983L151.3423 734.8983L151.3423 734.8983L151.3423 734.1479L151.3423 734.1479L149.0913 734.1479M145.3459 734.8983L147.5968 734.8983L147.5968 734.8983L147.5968 734.1479L147.5968 734.1479L145.3459 734.1479M141.6005 734.8983L143.8514 734.8983L143.8514 734.8983L143.8514 734.1479L143.8514 734.1479L141.6005 734.1479M137.855 734.8983L140.106 734.8983L140.106 734.8983L140.106 734.1479L140.106 734.1479L137.855 734.1479M134.1096 734.8983L136.3606 734.8983L136.3606 734.8983L136.3606 734.1479L136.3606 734.1479L134.1096 734.1479M130.3642 734.8983L132.6151 734.8983L132.6151 734.8983L132.6151 734.1479L132.6151 734.1479L130.3642 734.1479M126.6188 734.8983L128.8697 734.8983L128.8697 734.8983L128.8697 734.1479L128.8697 734.1479L126.6188 734.1479M122.8733 734.8983L125.1243 734.8983L125.1243 734.8983L125.1243 734.1479L125.1243 734.1479L122.8733 734.1479M119.1279 734.8983L121.3789 734.8983L121.3789 734.8983L121.3789 734.1479L121.3789 734.1479L119.1279 734.1479M115.3825 734.8983L117.6334 734.8983L117.6334 734.8983L117.6334 734.1479L117.6334 734.1479L115.3825 734.1479M111.6371 734.8983L113.888 734.8983L113.888 734.8983L113.888 734.1479L113.888 734.1479L111.6371 734.1479M107.8916 734.8983L110.1426 734.8983L110.1426 734.8983L110.1426 734.1479L110.1426 734.1479L107.8916 734.1479M104.1462 734.8983L106.3972 734.8983L106.3972 734.8983L106.3972 734.1479L106.3972 734.1479L104.1462 734.1479M100.4008 734.8983L102.6517 734.8983L102.6517 734.8983L102.6517 734.1479L102.6517 734.1479L100.4008 734.1479M96.65536 734.8983L98.9063 734.8983L98.9063 734.8983L98.9063 734.1479L98.9063 734.1479L96.65536 734.1479M92.90993 734.8983L95.16087 734.8983L95.16087 734.8983L95.16087 734.1479L95.16087 734.1479L92.90993 734.1479M89.16451 734.8983L91.41545 734.8983L91.41545 734.8983L91.41545 734.1479L91.41545 734.1479L89.16451 734.1479M85.41908 734.8983L87.67002 734.8983L87.67002 734.8983L87.67002 734.1479L87.67002 734.1479L85.41908 734.1479M81.67365 734.8983L83.9246 734.8983L83.9246 734.8983L83.9246 734.1479L83.9246 734.1479L81.67365 734.1479M77.92823 734.8983L80.17918 734.8983L80.17918 734.8983L80.17918 734.1479L80.17918 734.1479L77.92823 734.1479M74.1828 734.8983L76.43375 734.8983L76.43375 734.8983L76.43375 734.1479L76.43375 734.1479L74.1828 734.1479M70.43738 734.8983L72.68832 734.8983L72.68832 734.8983L72.68832 734.1479L72.68832 734.1479L70.43738 734.1479M66.69195 734.8983L68.94289 734.8983L68.94289 734.8983L68.94289 734.1479L68.94289 734.1479L66.69195 734.1479M62.94652 734.8983L65.19747 734.8983L65.19747 734.8983L65.19747 734.1479L65.19747 734.1479L62.94652 734.1479M59.2011 734.8983L61.45205 734.8983L61.45205 734.8983L61.45205 734.1479L61.45205 734.1479L59.2011 734.1479M55.45567 734.8983L57.70662 734.8983L57.70662 734.8983L57.70662 734.1479L57.70662 734.1479L55.45567 734.1479M51.71024 734.8983L53.96119 734.8983L53.96119 734.8983L53.96119 734.1479L53.96119 734.1479L51.71024 734.1479M47.96482 734.8983L50.21577 734.8983L50.21577 734.8983L50.21577 734.1479L50.21577 734.1479L47.96482 734.1479M44.21939 734.8983L46.47034 734.8983L46.47034 734.8983L46.47034 734.1479L46.47034 734.1479L44.21939 734.1479M40.47397 734.8983L42.72491 734.8983L42.72491 734.8983L42.72491 734.1479L42.72491 734.1479L40.47397 734.1479M36.72855 734.8983L38.97949 734.8983L38.97949 734.8983L38.97949 734.1479L38.97949 734.1479L36.72855 734.1479M32.98312 734.8983L35.23406 734.8983L35.23406 734.8983L35.23406 734.1479L35.23406 734.1479L32.98312 734.1479M29.23769 734.8983L31.48864 734.8983L31.48864 734.8983L31.48864 734.1479L31.48864 734.1479L29.23769 734.1479M25.49227 734.8983L27.74321 734.8983L27.74321 734.8983L27.74321 734.1479L27.74321 734.1479L25.49227 734.1479M21.74684 734.8983L23.99779 734.8983L23.99779 734.8983L23.99779 734.1479L23.99779 734.1479L21.74684 734.1479M18.00141 734.8983L20.25236 734.8983L20.25236 734.8983L20.25236 734.1479L20.25236 734.1479L18.00141 734.1479M14.25599 734.8983L16.50694 734.8983L16.50694 734.8983L16.50694 734.1479L16.50694 734.1479L14.25599 734.1479" stroke="none" fill="#C3C4C3" fill-rule="winding" /></g><g clip-path="url(#5)"><path transform="matrix(1 0 0 -1 0 841)" d="M487.7049 1062.786L488.4552 1062.786L488.4552 1062.786L488.4552 117.3889L488.4552 117.3889L487.7049 117.3889z" stroke="none" fill="#B5B6B5" fill-rule="winding" /></g><g clip-path="url(#6)"><path transform="matrix(1 0 0 -1 0 841)" d="M569.4893 56.61328L571.7402 56.61328L571.7402 56.61328L571.7402 55.86304L571.7402 55.86304L569.4893 55.86304M565.7001 56.61328L567.9511 56.61328L567.9511 56.61328L567.9511 55.86304L567.9511 55.86304L565.7001 55.86304M561.9111 56.61328L564.162 56.61328L564.162 56.61328L564.162 55.86304L564.162 55.86304L561.9111 55.86304M558.1219 56.61328L560.3729 56.61328L560.3729 56.61328L560.3729 55.86304L560.3729 55.86304L558.1219 55.86304M554.3328 56.61328L556.5838 56.61328L556.5838 56.61328L556.5838 55.86304L556.5838 55.86304L554.3328 55.86304M550.5438 56.61328L552.7947 56.61328L552.7947 56.61328L552.7947 55.86304L552.7947 55.86304L550.5438 55.86304M546.7547 56.61328L549.0056 56.61328L549.0056 56.61328L549.0056 55.86304L549.0056 55.86304L546.7547 55.86304M542.9656 56.61328L545.2166 56.61328L545.2166 56.61328L545.2166 55.86304L545.2166 55.86304L542.9656 55.86304M539.1765 56.61328L541.4274 56.61328L541.4274 56.61328L541.4274 55.86304L541.4274 55.86304L539.1765 55.86304M535.3874 56.61328L537.6384 56.61328L537.6384 56.61328L537.6384 55.86304L537.6384 55.86304L535.3874 55.86304M531.5983 56.61328L533.8492 56.61328L533.8492 56.61328L533.8492 55.86304L533.8492 55.86304L531.5983 55.86304M527.8092 56.61328L530.0602 56.61328L530.0602 56.61328L530.0602 55.86304L530.0602 55.86304L527.8092 55.86304M524.0201 56.61328L526.2711 56.61328L526.2711 56.61328L526.2711 55.86304L526.2711 55.86304L524.0201 55.86304M520.231 56.61328L522.4819 56.61328L522.4819 56.61328L522.4819 55.86304L522.4819 55.86304L520.231 55.86304M516.442 56.61328L518.6929 56.61328L518.6929 56.61328L518.6929 55.86304L518.6929 55.86304L516.442 55.86304M512.6528 56.61328L514.9038 56.61328L514.9038 56.61328L514.9038 55.86304L514.9038 55.86304L512.6528 55.86304M508.8638 56.61328L511.1147 56.61328L511.1147 56.61328L511.1147 55.86304L511.1147 55.86304L508.8638 55.86304M505.0747 56.61328L507.3256 56.61328L507.3256 56.61328L507.3256 55.86304L507.3256 55.86304L505.0747 55.86304M501.2856 56.61328L503.5365 56.61328L503.5365 56.61328L503.5365 55.86304L503.5365 55.86304L501.2856 55.86304M497.4965 56.61328L499.7474 56.61328L499.7474 56.61328L499.7474 55.86304L499.7474 55.86304L497.4965 55.86304M493.7074 56.61328L495.9583 56.61328L495.9583 56.61328L495.9583 55.86304L495.9583 55.86304L493.7074 55.86304" stroke="none" fill="#B5B6B5" fill-rule="winding" /></g><g clip-path="url(#7)"><path transform="matrix(1 0 0 -1 0 841)" d="M503.8366 69.36865C 503.8366 69.04858 503.8054 68.73145 503.7429 68.41748C 503.6805 68.10327 503.5879 67.79834 503.4654 67.50269C 503.3428 67.20679 503.1926 66.92578 503.0147 66.65942C 502.8368 66.39307 502.6346 66.14673 502.4082 65.92017C 502.1818 65.69385 501.9355 65.4917 501.6692 65.31372C 501.4028 65.13574 501.1218 64.9856 500.826 64.86304C 500.5301 64.74048 500.2252 64.64795 499.911 64.58545C 499.5969 64.52295 499.2798 64.4917 498.9596 64.4917C 498.6393 64.4917 498.3222 64.52295 498.0081 64.58545C 497.694 64.64795 497.389 64.74048 497.0932 64.86304C 496.7974 64.9856 496.5163 65.13574 496.25 65.31396C 495.9838 65.4917 495.7374 65.69385 495.511 65.92017C 495.2845 66.14673 495.0824 66.39307 494.9045 66.65942C 494.7266 66.92578 494.5764 67.20679 494.4538 67.50269C 494.3312 67.79834 494.2387 68.10327 494.1762 68.41748C 494.1138 68.73145 494.0826 69.04858 494.0826 69.36865C 494.0826 69.68896 494.1138 70.00635 494.1762 70.32056C 494.2387 70.63452 494.3312 70.9397 494.4538 71.23535C 494.5764 71.53125 494.7266 71.81226 494.9045 72.07861C 495.0824 72.34473 495.2845 72.59106 495.511 72.81738C 495.7374 73.04395 495.9838 73.24634 496.25 73.42407C 496.5163 73.60205 496.7974 73.75195 497.0932 73.87451C 497.389 73.99707 497.694 74.0896 498.0081 74.1521C 498.3222 74.2146 498.6393 74.24561 498.9596 74.24561C 499.2798 74.24561 499.5969 74.2146 499.911 74.1521C 500.2252 74.0896 500.5301 73.99731 500.826 73.87476C 501.1218 73.7522 501.4028 73.60205 501.6692 73.42407C 501.9355 73.24634 502.1818 73.04395 502.4082 72.81738C 502.6346 72.59106 502.8368 72.34473 503.0147 72.07861C 503.1926 71.81226 503.3428 71.53101 503.4654 71.23535C 503.5879 70.9397 503.6805 70.63452 503.7429 70.32056C 503.8054 70.00635 503.8366 69.68896 503.8366 69.36865z" stroke="#C3C4C3" stroke-width="0.7503152" fill="none" /><path transform="matrix(1 0 0 -1 0 841)" d="M531.5983 69.36865C 531.5983 69.04858 531.5671 68.73145 531.5046 68.41748C 531.4421 68.10327 531.3495 67.79834 531.227 67.50269C 531.1044 67.20679 530.9542 66.92578 530.7763 66.65942C 530.5984 66.39307 530.3962 66.14673 530.1698 65.92017C 529.9434 65.69385 529.697 65.4917 529.4307 65.31372C 529.1644 65.13574 528.8834 64.9856 528.5875 64.86304C 528.2917 64.74048 527.9868 64.64795 527.6727 64.58545C 527.3586 64.52295 527.0414 64.4917 526.7213 64.4917C 526.401 64.4917 526.0839 64.52295 525.7698 64.58545C 525.4556 64.64795 525.1507 64.74048 524.8548 64.86304C 524.559 64.9856 524.2779 65.13574 524.0117 65.31396C 523.7454 65.4917 523.499 65.69385 523.2726 65.92017C 523.0461 66.14673 522.844 66.39307 522.6661 66.65942C 522.4882 66.92578 522.338 67.20679 522.2154 67.50269C 522.0928 67.79834 522.0003 68.10327 521.9379 68.41748C 521.8754 68.73145 521.8442 69.04858 521.8442 69.36865C 521.8442 69.68896 521.8754 70.00635 521.9378 70.32056C 522.0003 70.63452 522.0928 70.9397 522.2154 71.23535C 522.338 71.53125 522.4882 71.81226 522.6661 72.07861C 522.844 72.34473 523.0461 72.59106 523.2726 72.81738C 523.499 73.04395 523.7454 73.24634 524.0117 73.42407C 524.2779 73.60205 524.559 73.75195 524.8548 73.87451C 525.1507 73.99707 525.4556 74.0896 525.7697 74.1521C 526.0839 74.2146 526.401 74.24561 526.7213 74.24561C 527.0414 74.24561 527.3586 74.2146 527.6727 74.1521C 527.9868 74.0896 528.2917 73.99731 528.5875 73.87476C 528.8834 73.7522 529.1644 73.60205 529.4307 73.42407C 529.697 73.24634 529.9434 73.04395 530.1698 72.81738C 530.3962 72.59106 530.5984 72.34473 530.7763 72.07861C 530.9542 71.81226 531.1044 71.53101 531.227 71.23535C 531.3495 70.9397 531.4421 70.63452 531.5046 70.32056C 531.5671 70.00635 531.5983 69.68896 531.5983 69.36865z" stroke="#C3C4C3" stroke-width="0.7503152" fill="none" /><path transform="matrix(1 0 0 -1 0 841)" d="M560.1103 69.36865C 560.1103 69.04858 560.079 68.73145 560.0165 68.41748C 559.9541 68.10327 559.8616 67.79834 559.739 67.50269C 559.6165 67.20679 559.4662 66.92578 559.2883 66.65942C 559.1104 66.39307 558.9083 66.14673 558.6818 65.92017C 558.4553 65.69385 558.2089 65.4917 557.9427 65.31372C 557.6765 65.13574 557.3954 64.9856 557.0995 64.86304C 556.8036 64.74048 556.4987 64.64795 556.1846 64.58545C 555.8706 64.52295 555.5535 64.4917 555.2332 64.4917C 554.913 64.4917 554.5958 64.52295 554.2817 64.58545C 553.9676 64.64795 553.6627 64.74048 553.3668 64.86304C 553.0709 64.9856 552.7899 65.13574 552.5236 65.31396C 552.2573 65.4917 552.011 65.69385 551.7846 65.92017C 551.5582 66.14673 551.356 66.39307 551.178 66.65942C 551.0001 66.92578 550.8499 67.20679 550.7274 67.50269C 550.6048 67.79834 550.5123 68.10327 550.4498 68.41748C 550.3874 68.73145 550.3561 69.04858 550.3562 69.36865C 550.3561 69.68896 550.3874 70.00635 550.4498 70.32056C 550.5123 70.63452 550.6048 70.9397 550.7274 71.23535C 550.8499 71.53125 551.0001 71.81226 551.178 72.07861C 551.356 72.34473 551.5582 72.59106 551.7846 72.81738C 552.011 73.04395 552.2573 73.24634 552.5236 73.42407C 552.7899 73.60205 553.0709 73.75195 553.3668 73.87451C 553.6627 73.99707 553.9676 74.0896 554.2817 74.1521C 554.5958 74.2146 554.913 74.24561 555.2332 74.24561C 555.5535 74.24561 555.8706 74.2146 556.1846 74.1521C 556.4987 74.0896 556.8036 73.99731 557.0995 73.87476C 557.3954 73.7522 557.6765 73.60205 557.9427 73.42407C 558.2089 73.24634 558.4553 73.04395 558.6818 72.81738C 558.9083 72.59106 559.1104 72.34473 559.2883 72.07861C 559.4662 71.81226 559.6165 71.53101 559.739 71.23535C 559.8616 70.9397 559.9541 70.63452 560.0165 70.32056C 560.079 70.00635 560.1103 69.68896 560.1103 69.36865z" stroke="#C3C4C3" stroke-width="0.7503152" fill="none" /><path transform="matrix(1 0 0 -1 0 841)" d="M487.7049 117.3889L594.9999 117.3889L594.9999 117.3889L594.9999 116.6384L594.9999 116.6384L487.7049 116.6384z" stroke="none" fill="#B5B6B5" fill-rule="winding" /><path transform="matrix(1 0 0 -1 0 841)" d="M0 117.3889L487.7049 117.3889L487.7049 117.3889L487.7049 116.6384L487.7049 116.6384L0 116.6384z" stroke="none" fill="#B5B6B5" fill-rule="winding" /><path transform="matrix(1 0 0 -1 0 841)" d="M487.7049 117.3889L488.4552 117.3889L488.4552 117.3889L488.4552 -754.4775L488.4552 -754.4775L487.7049 -754.4775z" stroke="none" fill="#B5B6B5" fill-rule="winding" /><g transform="matrix(0.7503151 0 0 0.7503152 14.25599 150.3702)"><g transform="matrix(1 0 0 1 0 0)"><image x="0" y="0" xlink:href="img_09.png" width="179" height="105" /></g></g><g transform="matrix(0.7503151 0 0 0.7503152 14.25599 358.2074)"><g transform="matrix(1 0 0 1 0 0)"><image x="0" y="0" xlink:href="img_10.png" width="188" height="103" /></g></g><g transform="matrix(0.7503152 0 0 0.7503152 14.25599 518.775)"><g transform="matrix(1 0 0 1 0 0)"><image x="0" y="0" xlink:href="img_11.png" width="177" height="226" /></g></g></g></g></g></g></svg>