<svg xmlns="http://www.w3.org/2000/svg" xmlns:xlink="http://www.w3.org/1999/xlink" id="body_27" preserveAspectRatio="xMinYMin meet" viewBox="0 0 792 1121"><defs><clipPath id="1"><path d="M0 841L0 -0.9199829L0 -0.9199829L594.96 -0.9199829L594.96 -0.9199829L594.96 841L594.96 841L0 841z" /></clipPath><clipPath id="2"><path d="M0 -0.9199829L595.2 -0.9199829L595.2 -0.9199829L595.2 841.24L595.2 841.24L0 841.24z" /></clipPath><clipPath id="3"><path d="M0 55.08063L594.9999 55.08063L594.9999 55.08063L594.9999 790.3881L594.9999 790.3881L0 790.3881z" /></clipPath><clipPath id="4"><path d="M302.377 234.4056L580.744 234.4056L580.744 234.4056L580.744 235.1556L580.744 235.1556L302.377 235.1556z" /></clipPath><clipPath id="5"><path d="M0 55.08063L297.8752 55.08063L297.8752 55.08063L297.8752 427.9863L297.8752 427.9863L0 427.9863z" /></clipPath><clipPath id="6"><path d="M297.8752 55.08063L594.9999 55.08063L594.9999 55.08063L594.9999 790.3881L594.9999 790.3881L297.8752 790.3881z" /></clipPath><clipPath id="7"><path d="M0 55.08063L297.8752 55.08063L297.8752 55.08063L297.8752 427.9863L297.8752 427.9863L0 427.9863z" /></clipPath><clipPath id="8"><path d="M297.8752 55.08063L594.9999 55.08063L594.9999 55.08063L594.9999 790.3881L594.9999 790.3881L297.8752 790.3881z" /></clipPath></defs><g transform="matrix(1.333333 0 0 1.333333 0 0)"><g><g clip-path="url(#1)"><g clip-path="url(#2)"><path transform="matrix(1 0 0 -1 0 841)" d="M0 841.92L792.9999 841.92L792.9999 841.92L792.9999 -280.0799L792.9999 -280.0799L0 -280.0799z" stroke="none" fill="#FFFFFF" fill-rule="winding" /><path transform="matrix(1 0 0 -1 0 841)" d="M0 796.92L594.9999 796.92L594.9999 796.92L594.9999 795.92L594.9999 795.92L0 795.92z" stroke="none" fill="#B7B5B5" fill-rule="winding" /><g transform="matrix(0.1840659 0 0 0.1886792 510 12.08002)"><g transform="matrix(1 0 0 1 0 0)"><image x="0" y="0" xlink:href="img_01.png" width="364" height="106" /></g></g></g><g clip-path="url(#3)"><path transform="matrix(1 0 0 -1 0 841)" d="M0 19903.95L594.9999 19903.95L594.9999 19903.95L594.9999 413.0117L594.9999 413.0117L0 413.0117z" stroke="none" fill="#FFFFFF" fill-rule="winding" /><path transform="matrix(1 0 0 -1 0 841)" d="M297.1248 5152.753L297.8751 5152.753L297.8751 5152.753L297.8751 413.0117L297.8751 413.0117L297.1248 413.0117z" stroke="none" fill="#767D71" fill-rule="winding" /></g><g clip-path="url(#4)"><path transform="matrix(1 0 0 -1 0 841)" d="M578.493 606.5938L580.744 606.5938L580.744 606.5938L580.744 605.8438L580.744 605.8438L578.493 605.8438M574.7617 606.5938L577.0127 606.5938L577.0127 606.5938L577.0127 605.8438L577.0127 605.8438L574.7617 605.8438M571.0305 606.5938L573.2814 606.5938L573.2814 606.5938L573.2814 605.8438L573.2814 605.8438L571.0305 605.8438M567.2991 606.5938L569.55 606.5938L569.55 606.5938L569.55 605.8438L569.55 605.8438L567.2991 605.8438M563.5679 606.5938L565.8188 606.5938L565.8188 606.5938L565.8188 605.8438L565.8188 605.8438L563.5679 605.8438M559.8365 606.5938L562.0875 606.5938L562.0875 606.5938L562.0875 605.8438L562.0875 605.8438L559.8365 605.8438M556.1052 606.5938L558.3562 606.5938L558.3562 606.5938L558.3562 605.8438L558.3562 605.8438L556.1052 605.8438M552.374 606.5938L554.6249 606.5938L554.6249 606.5938L554.6249 605.8438L554.6249 605.8438L552.374 605.8438M548.6426 606.5938L550.8936 606.5938L550.8936 606.5938L550.8936 605.8438L550.8936 605.8438L548.6426 605.8438M544.9114 606.5938L547.1623 606.5938L547.1623 606.5938L547.1623 605.8438L547.1623 605.8438L544.9114 605.8438M541.1801 606.5938L543.431 606.5938L543.431 606.5938L543.431 605.8438L543.431 605.8438L541.1801 605.8438M537.4487 606.5938L539.6997 606.5938L539.6997 606.5938L539.6997 605.8438L539.6997 605.8438L537.4487 605.8438M533.7175 606.5938L535.9684 606.5938L535.9684 606.5938L535.9684 605.8438L535.9684 605.8438L533.7175 605.8438M529.9861 606.5938L532.2371 606.5938L532.2371 606.5938L532.2371 605.8438L532.2371 605.8438L529.9861 605.8438M526.2549 606.5938L528.5058 606.5938L528.5058 606.5938L528.5058 605.8438L528.5058 605.8438L526.2549 605.8438M522.5236 606.5938L524.7745 606.5938L524.7745 606.5938L524.7745 605.8438L524.7745 605.8438L522.5236 605.8438M518.7922 606.5938L521.0432 606.5938L521.0432 606.5938L521.0432 605.8438L521.0432 605.8438L518.7922 605.8438M515.061 606.5938L517.3119 606.5938L517.3119 606.5938L517.3119 605.8438L517.3119 605.8438L515.061 605.8438M511.3296 606.5938L513.5806 606.5938L513.5806 606.5938L513.5806 605.8438L513.5806 605.8438L511.3296 605.8438M507.5984 606.5938L509.8493 606.5938L509.8493 606.5938L509.8493 605.8438L509.8493 605.8438L507.5984 605.8438M503.8671 606.5938L506.118 606.5938L506.118 606.5938L506.118 605.8438L506.118 605.8438L503.8671 605.8438M500.1358 606.5938L502.3867 606.5938L502.3867 606.5938L502.3867 605.8438L502.3867 605.8438L500.1358 605.8438M496.4045 606.5938L498.6554 606.5938L498.6554 606.5938L498.6554 605.8438L498.6554 605.8438L496.4045 605.8438M492.6732 606.5938L494.9241 606.5938L494.9241 606.5938L494.9241 605.8438L494.9241 605.8438L492.6732 605.8438M488.9419 606.5938L491.1928 606.5938L491.1928 606.5938L491.1928 605.8438L491.1928 605.8438L488.9419 605.8438M485.2106 606.5938L487.4615 606.5938L487.4615 606.5938L487.4615 605.8438L487.4615 605.8438L485.2106 605.8438M481.4793 606.5938L483.7302 606.5938L483.7302 606.5938L483.7302 605.8438L483.7302 605.8438L481.4793 605.8438M477.748 606.5938L479.9989 606.5938L479.9989 606.5938L479.9989 605.8438L479.9989 605.8438L477.748 605.8438M474.0167 606.5938L476.2676 606.5938L476.2676 606.5938L476.2676 605.8438L476.2676 605.8438L474.0167 605.8438M470.2854 606.5938L472.5363 606.5938L472.5363 606.5938L472.5363 605.8438L472.5363 605.8438L470.2854 605.8438M466.5541 606.5938L468.805 606.5938L468.805 606.5938L468.805 605.8438L468.805 605.8438L466.5541 605.8438M462.8228 606.5938L465.0737 606.5938L465.0737 606.5938L465.0737 605.8438L465.0737 605.8438L462.8228 605.8438M459.0915 606.5938L461.3424 606.5938L461.3424 606.5938L461.3424 605.8438L461.3424 605.8438L459.0915 605.8438M455.3602 606.5938L457.6112 606.5938L457.6112 606.5938L457.6112 605.8438L457.6112 605.8438L455.3602 605.8438M451.6289 606.5938L453.8799 606.5938L453.8799 606.5938L453.8799 605.8438L453.8799 605.8438L451.6289 605.8438M447.8976 606.5938L450.1485 606.5938L450.1485 606.5938L450.1485 605.8438L450.1485 605.8438L447.8976 605.8438M444.1663 606.5938L446.4172 606.5938L446.4172 606.5938L446.4172 605.8438L446.4172 605.8438L444.1663 605.8438M440.435 606.5938L442.686 606.5938L442.686 606.5938L442.686 605.8438L442.686 605.8438L440.435 605.8438M436.7037 606.5938L438.9547 606.5938L438.9547 606.5938L438.9547 605.8438L438.9547 605.8438L436.7037 605.8438M432.9724 606.5938L435.2234 606.5938L435.2234 606.5938L435.2234 605.8438L435.2234 605.8438L432.9724 605.8438M429.2411 606.5938L431.4921 606.5938L431.4921 606.5938L431.4921 605.8438L431.4921 605.8438L429.2411 605.8438M425.5098 606.5938L427.7608 606.5938L427.7608 606.5938L427.7608 605.8438L427.7608 605.8438L425.5098 605.8438M421.7785 606.5938L424.0295 606.5938L424.0295 606.5938L424.0295 605.8438L424.0295 605.8438L421.7785 605.8438M418.0472 606.5938L420.2982 606.5938L420.2982 606.5938L420.2982 605.8438L420.2982 605.8438L418.0472 605.8438M414.3159 606.5938L416.5669 606.5938L416.5669 606.5938L416.5669 605.8438L416.5669 605.8438L414.3159 605.8438M410.5846 606.5938L412.8356 606.5938L412.8356 606.5938L412.8356 605.8438L412.8356 605.8438L410.5846 605.8438M406.8533 606.5938L409.1043 606.5938L409.1043 606.5938L409.1043 605.8438L409.1043 605.8438L406.8533 605.8438M403.122 606.5938L405.373 606.5938L405.373 606.5938L405.373 605.8438L405.373 605.8438L403.122 605.8438M399.3907 606.5938L401.6417 606.5938L401.6417 606.5938L401.6417 605.8438L401.6417 605.8438L399.3907 605.8438M395.6595 606.5938L397.9104 606.5938L397.9104 606.5938L397.9104 605.8438L397.9104 605.8438L395.6595 605.8438M391.9281 606.5938L394.1791 606.5938L394.1791 606.5938L394.1791 605.8438L394.1791 605.8438L391.9281 605.8438M388.1968 606.5938L390.4478 606.5938L390.4478 606.5938L390.4478 605.8438L390.4478 605.8438L388.1968 605.8438M384.4655 606.5938L386.7165 606.5938L386.7165 606.5938L386.7165 605.8438L386.7165 605.8438L384.4655 605.8438M380.7343 606.5938L382.9852 606.5938L382.9852 606.5938L382.9852 605.8438L382.9852 605.8438L380.7343 605.8438M377.003 606.5938L379.2539 606.5938L379.2539 606.5938L379.2539 605.8438L379.2539 605.8438L377.003 605.8438M373.2717 606.5938L375.5226 606.5938L375.5226 606.5938L375.5226 605.8438L375.5226 605.8438L373.2717 605.8438M369.5404 606.5938L371.7913 606.5938L371.7913 606.5938L371.7913 605.8438L371.7913 605.8438L369.5404 605.8438M365.8091 606.5938L368.06 606.5938L368.06 606.5938L368.06 605.8438L368.06 605.8438L365.8091 605.8438M362.0778 606.5938L364.3287 606.5938L364.3287 606.5938L364.3287 605.8438L364.3287 605.8438L362.0778 605.8438M358.3465 606.5938L360.5974 606.5938L360.5974 606.5938L360.5974 605.8438L360.5974 605.8438L358.3465 605.8438M354.6152 606.5938L356.8661 606.5938L356.8661 606.5938L356.8661 605.8438L356.8661 605.8438L354.6152 605.8438M350.8839 606.5938L353.1348 606.5938L353.1348 606.5938L353.1348 605.8438L353.1348 605.8438L350.8839 605.8438M347.1526 606.5938L349.4035 606.5938L349.4035 606.5938L349.4035 605.8438L349.4035 605.8438L347.1526 605.8438M343.4213 606.5938L345.6722 606.5938L345.6722 606.5938L345.6722 605.8438L345.6722 605.8438L343.4213 605.8438M339.69 606.5938L341.9409 606.5938L341.9409 606.5938L341.9409 605.8438L341.9409 605.8438L339.69 605.8438M335.9587 606.5938L338.2096 606.5938L338.2096 606.5938L338.2096 605.8438L338.2096 605.8438L335.9587 605.8438M332.2274 606.5938L334.4783 606.5938L334.4783 606.5938L334.4783 605.8438L334.4783 605.8438L332.2274 605.8438M328.4961 606.5938L330.747 606.5938L330.747 606.5938L330.747 605.8438L330.747 605.8438L328.4961 605.8438M324.7648 606.5938L327.0157 606.5938L327.0157 606.5938L327.0157 605.8438L327.0157 605.8438L324.7648 605.8438M321.0335 606.5938L323.2845 606.5938L323.2845 606.5938L323.2845 605.8438L323.2845 605.8438L321.0335 605.8438M317.3022 606.5938L319.5532 606.5938L319.5532 606.5938L319.5532 605.8438L319.5532 605.8438L317.3022 605.8438M313.5709 606.5938L315.8219 606.5938L315.8219 606.5938L315.8219 605.8438L315.8219 605.8438L313.5709 605.8438M309.8396 606.5938L312.0906 606.5938L312.0906 606.5938L312.0906 605.8438L312.0906 605.8438L309.8396 605.8438M306.1083 606.5938L308.3593 606.5938L308.3593 606.5938L308.3593 605.8438L308.3593 605.8438L306.1083 605.8438M302.377 606.5938L304.628 606.5938L304.628 606.5938L304.628 605.8438L304.628 605.8438L302.377 605.8438" stroke="none" fill="#E3E4E3" fill-rule="winding" /></g><g clip-path="url(#5)"><g transform="matrix(0.7503152 0 0 0.7503151 30.76292 55.08069)"><g transform="matrix(1 0 0 1 0 0)"><image x="0" y="0" xlink:href="img_96.png" width="334" height="187" /></g></g></g><g clip-path="url(#6)"><path transform="matrix(1 0 0 -1 0 841)" d="M307.6292 585.584L307.6292 594.5879C 307.6292 594.8887 307.6863 595.1758 307.8005 595.4531C 307.9148 595.7266 308.0774 595.9707 308.2885 596.1797C 308.4995 596.3926 308.743 596.5547 309.0187 596.668C 309.2945 596.7813 309.5817 596.8398 309.8802 596.8398L309.8802 596.8398L326.3871 596.8398C 326.6856 596.8398 326.9727 596.7813 327.2485 596.668C 327.5243 596.5547 327.7677 596.3926 327.9788 596.1797C 328.1898 595.9707 328.3524 595.7266 328.4667 595.4531C 328.5809 595.1758 328.638 594.8887 328.6381 594.5879L328.6381 594.5879L328.6381 585.584C 328.638 585.2871 328.5809 585.002 328.4667 584.7266C 328.3524 584.4492 328.1898 584.2051 327.9788 583.9941C 327.7677 583.7852 327.5243 583.623 327.2485 583.5059C 326.9727 583.3926 326.6856 583.3359 326.3871 583.3359L326.3871 583.3359L309.8802 583.3359C 309.5817 583.3359 309.2945 583.3926 309.0187 583.5059C 308.743 583.623 308.4995 583.7852 308.2885 583.9941C 308.0774 584.2051 307.9148 584.4492 307.8005 584.7246C 307.6863 585.002 307.6292 585.2871 307.6292 585.584z" stroke="none" fill="#333333" fill-rule="winding" /></g><g clip-path="url(#7)"></g><g clip-path="url(#8)"></g></g></g></g></svg>