<svg xmlns="http://www.w3.org/2000/svg" xmlns:xlink="http://www.w3.org/1999/xlink" id="body_25" preserveAspectRatio="xMinYMin meet" viewBox="0 0 792 1121"><defs><clipPath id="1"><path d="M0 841L0 -0.9199829L0 -0.9199829L594.96 -0.9199829L594.96 -0.9199829L594.96 841L594.96 841L0 841z" /></clipPath><clipPath id="2"><path d="M0 -0.9199829L595.2 -0.9199829L595.2 -0.9199829L595.2 841.24L595.2 841.24L0 841.24z" /></clipPath><clipPath id="3"><path d="M0 55.08063L594.9999 55.08063L594.9999 55.08063L594.9999 790.39L594.9999 790.39L0 790.39z" /></clipPath><clipPath id="4"><path d="M14.25599 351.4563L293.3733 351.4563L293.3733 351.4563L293.3733 352.2063L293.3733 352.2063L14.25599 352.2063z" /></clipPath><clipPath id="5"><path d="M14.25599 600.5594L293.3733 600.5594L293.3733 600.5594L293.3733 601.3113L293.3733 601.3113L14.25599 601.3113z" /></clipPath><clipPath id="6"><path d="M302.377 222.4019L580.744 222.4019L580.744 222.4019L580.744 223.1519L580.744 223.1519L302.377 223.1519z" /></clipPath><clipPath id="7"><path d="M302.377 633.5744L580.744 633.5744L580.744 633.5744L580.744 634.3244L580.744 634.3244L302.377 634.3244z" /></clipPath><clipPath id="8"><path d="M0 55.08063L297.8752 55.08063L297.8752 55.08063L297.8752 790.39L297.8752 790.39L0 790.39z" /></clipPath><clipPath id="9"><path d="M297.8752 55.08063L594.9999 55.08063L594.9999 55.08063L594.9999 790.39L594.9999 790.39L297.8752 790.39z" /></clipPath><clipPath id="10"><path d="M0 55.08063L297.8752 55.08063L297.8752 55.08063L297.8752 790.39L297.8752 790.39L0 790.39z" /></clipPath><clipPath id="11"><path d="M297.8752 55.08063L594.9999 55.08063L594.9999 55.08063L594.9999 790.39L594.9999 790.39L297.8752 790.39z" /></clipPath></defs><g transform="matrix(1.333333 0 0 1.333333 0 0)"><g><g clip-path="url(#1)"><g clip-path="url(#2)"><path transform="matrix(1 0 0 -1 0 841)" d="M0 841.92L792.9999 841.92L792.9999 841.92L792.9999 -280.0799L792.9999 -280.0799L0 -280.0799z" stroke="none" fill="#FFFFFF" fill-rule="winding" /><path transform="matrix(1 0 0 -1 0 841)" d="M0 796.92L594.9999 796.92L594.9999 796.92L594.9999 795.92L594.9999 795.92L0 795.92z" stroke="none" fill="#B7B5B5" fill-rule="winding" /><g transform="matrix(0.1840659 0 0 0.1886792 510 12.08002)"><g transform="matrix(1 0 0 1 0 0)"><image x="0" y="0" xlink:href="img_01.png" width="364" height="106" /></g></g></g><g clip-path="url(#3)"><path transform="matrix(1 0 0 -1 0 841)" d="M0 18433.33L594.9999 18433.33L594.9999 18433.33L594.9999 -1057.607L594.9999 -1057.607L0 -1057.607z" stroke="none" fill="#FFFFFF" fill-rule="winding" /><path transform="matrix(1 0 0 -1 0 841)" d="M297.1248 3682.134L297.8751 3682.134L297.8751 3682.134L297.8751 -1057.607L297.8751 -1057.607L297.1248 -1057.607z" stroke="none" fill="#767D71" fill-rule="winding" /></g><g clip-path="url(#4)"><path transform="matrix(1 0 0 -1 0 841)" d="M291.1223 489.543L293.3732 489.543L293.3732 489.543L293.3732 488.793L293.3732 488.793L291.1223 488.793M287.3809 489.543L289.6318 489.543L289.6318 489.543L289.6318 488.793L289.6318 488.793L287.3809 488.793M283.6394 489.543L285.8904 489.543L285.8904 489.543L285.8904 488.793L285.8904 488.793L283.6394 488.793M279.898 489.543L282.1489 489.543L282.1489 489.543L282.1489 488.793L282.1489 488.793L279.898 488.793M276.1566 489.543L278.4075 489.543L278.4075 489.543L278.4075 488.793L278.4075 488.793L276.1566 488.793M272.4151 489.543L274.666 489.543L274.666 489.543L274.666 488.793L274.666 488.793L272.4151 488.793M268.6737 489.543L270.9246 489.543L270.9246 489.543L270.9246 488.793L270.9246 488.793L268.6737 488.793M264.9323 489.543L267.1832 489.543L267.1832 489.543L267.1832 488.793L267.1832 488.793L264.9323 488.793M261.1908 489.543L263.4417 489.543L263.4417 489.543L263.4417 488.793L263.4417 488.793L261.1908 488.793M257.4494 489.543L259.7003 489.543L259.7003 489.543L259.7003 488.793L259.7003 488.793L257.4494 488.793M253.7079 489.543L255.9589 489.543L255.9589 489.543L255.9589 488.793L255.9589 488.793L253.7079 488.793M249.9665 489.543L252.2174 489.543L252.2174 489.543L252.2174 488.793L252.2174 488.793L249.9665 488.793M246.2251 489.543L248.476 489.543L248.476 489.543L248.476 488.793L248.476 488.793L246.2251 488.793M242.4836 489.543L244.7346 489.543L244.7346 489.543L244.7346 488.793L244.7346 488.793L242.4836 488.793M238.7422 489.543L240.9931 489.543L240.9931 489.543L240.9931 488.793L240.9931 488.793L238.7422 488.793M235.0007 489.543L237.2517 489.543L237.2517 489.543L237.2517 488.793L237.2517 488.793L235.0007 488.793M231.2593 489.543L233.5103 489.543L233.5103 489.543L233.5103 488.793L233.5103 488.793L231.2593 488.793M227.5179 489.543L229.7688 489.543L229.7688 489.543L229.7688 488.793L229.7688 488.793L227.5179 488.793M223.7764 489.543L226.0274 489.543L226.0274 489.543L226.0274 488.793L226.0274 488.793L223.7764 488.793M220.035 489.543L222.2859 489.543L222.2859 489.543L222.2859 488.793L222.2859 488.793L220.035 488.793M216.2936 489.543L218.5445 489.543L218.5445 489.543L218.5445 488.793L218.5445 488.793L216.2936 488.793M212.5521 489.543L214.8031 489.543L214.8031 489.543L214.8031 488.793L214.8031 488.793L212.5521 488.793M208.8107 489.543L211.0616 489.543L211.0616 489.543L211.0616 488.793L211.0616 488.793L208.8107 488.793M205.0692 489.543L207.3202 489.543L207.3202 489.543L207.3202 488.793L207.3202 488.793L205.0692 488.793M201.3278 489.543L203.5788 489.543L203.5788 489.543L203.5788 488.793L203.5788 488.793L201.3278 488.793M197.5864 489.543L199.8373 489.543L199.8373 489.543L199.8373 488.793L199.8373 488.793L197.5864 488.793M193.8449 489.543L196.0959 489.543L196.0959 489.543L196.0959 488.793L196.0959 488.793L193.8449 488.793M190.1035 489.543L192.3545 489.543L192.3545 489.543L192.3545 488.793L192.3545 488.793L190.1035 488.793M186.3621 489.543L188.613 489.543L188.613 489.543L188.613 488.793L188.613 488.793L186.3621 488.793M182.6206 489.543L184.8716 489.543L184.8716 489.543L184.8716 488.793L184.8716 488.793L182.6206 488.793M178.8792 489.543L181.1301 489.543L181.1301 489.543L181.1301 488.793L181.1301 488.793L178.8792 488.793M175.1378 489.543L177.3887 489.543L177.3887 489.543L177.3887 488.793L177.3887 488.793L175.1378 488.793M171.3963 489.543L173.6473 489.543L173.6473 489.543L173.6473 488.793L173.6473 488.793L171.3963 488.793M167.6549 489.543L169.9058 489.543L169.9058 489.543L169.9058 488.793L169.9058 488.793L167.6549 488.793M163.9135 489.543L166.1644 489.543L166.1644 489.543L166.1644 488.793L166.1644 488.793L163.9135 488.793M160.172 489.543L162.423 489.543L162.423 489.543L162.423 488.793L162.423 488.793L160.172 488.793M156.4306 489.543L158.6815 489.543L158.6815 489.543L158.6815 488.793L158.6815 488.793L156.4306 488.793M152.6891 489.543L154.9401 489.543L154.9401 489.543L154.9401 488.793L154.9401 488.793L152.6891 488.793M148.9477 489.543L151.1987 489.543L151.1987 489.543L151.1987 488.793L151.1987 488.793L148.9477 488.793M145.2063 489.543L147.4572 489.543L147.4572 489.543L147.4572 488.793L147.4572 488.793L145.2063 488.793M141.4648 489.543L143.7158 489.543L143.7158 489.543L143.7158 488.793L143.7158 488.793L141.4648 488.793M137.7234 489.543L139.9743 489.543L139.9743 489.543L139.9743 488.793L139.9743 488.793L137.7234 488.793M133.982 489.543L136.2329 489.543L136.2329 489.543L136.2329 488.793L136.2329 488.793L133.982 488.793M130.2405 489.543L132.4915 489.543L132.4915 489.543L132.4915 488.793L132.4915 488.793L130.2405 488.793M126.4991 489.543L128.75 489.543L128.75 489.543L128.75 488.793L128.75 488.793L126.4991 488.793M122.7577 489.543L125.0086 489.543L125.0086 489.543L125.0086 488.793L125.0086 488.793L122.7577 488.793M119.0162 489.543L121.2672 489.543L121.2672 489.543L121.2672 488.793L121.2672 488.793L119.0162 488.793M115.2748 489.543L117.5257 489.543L117.5257 489.543L117.5257 488.793L117.5257 488.793L115.2748 488.793M111.5333 489.543L113.7843 489.543L113.7843 489.543L113.7843 488.793L113.7843 488.793L111.5333 488.793M107.7919 489.543L110.0429 489.543L110.0429 489.543L110.0429 488.793L110.0429 488.793L107.7919 488.793M104.0505 489.543L106.3014 489.543L106.3014 489.543L106.3014 488.793L106.3014 488.793L104.0505 488.793M100.309 489.543L102.56 489.543L102.56 489.543L102.56 488.793L102.56 488.793L100.309 488.793M96.56759 489.543L98.81853 489.543L98.81853 489.543L98.81853 488.793L98.81853 488.793L96.56759 488.793M92.82616 489.543L95.0771 489.543L95.0771 489.543L95.0771 488.793L95.0771 488.793L92.82616 488.793M89.08472 489.543L91.33566 489.543L91.33566 489.543L91.33566 488.793L91.33566 488.793L89.08472 488.793M85.34328 489.543L87.59422 489.543L87.59422 489.543L87.59422 488.793L87.59422 488.793L85.34328 488.793M81.60185 489.543L83.85279 489.543L83.85279 489.543L83.85279 488.793L83.85279 488.793L81.60185 488.793M77.86041 489.543L80.11136 489.543L80.11136 489.543L80.11136 488.793L80.11136 488.793L77.86041 488.793M74.11897 489.543L76.36992 489.543L76.36992 489.543L76.36992 488.793L76.36992 488.793L74.11897 488.793M70.37753 489.543L72.62848 489.543L72.62848 489.543L72.62848 488.793L72.62848 488.793L70.37753 488.793M66.63609 489.543L68.88704 489.543L68.88704 489.543L68.88704 488.793L68.88704 488.793L66.63609 488.793M62.89466 489.543L65.14561 489.543L65.14561 489.543L65.14561 488.793L65.14561 488.793L62.89466 488.793M59.15322 489.543L61.40417 489.543L61.40417 489.543L61.40417 488.793L61.40417 488.793L59.15322 488.793M55.41179 489.543L57.66273 489.543L57.66273 489.543L57.66273 488.793L57.66273 488.793L55.41179 488.793M51.67036 489.543L53.9213 489.543L53.9213 489.543L53.9213 488.793L53.9213 488.793L51.67036 488.793M47.92892 489.543L50.17986 489.543L50.17986 489.543L50.17986 488.793L50.17986 488.793L47.92892 488.793M44.18748 489.543L46.43843 489.543L46.43843 489.543L46.43843 488.793L46.43843 488.793L44.18748 488.793M40.44604 489.543L42.69699 489.543L42.69699 489.543L42.69699 488.793L42.69699 488.793L40.44604 488.793M36.70461 489.543L38.95555 489.543L38.95555 489.543L38.95555 488.793L38.95555 488.793L36.70461 488.793M32.96317 489.543L35.21412 489.543L35.21412 489.543L35.21412 488.793L35.21412 488.793L32.96317 488.793M29.22174 489.543L31.47268 489.543L31.47268 489.543L31.47268 488.793L31.47268 488.793L29.22174 488.793M25.4803 489.543L27.73124 489.543L27.73124 489.543L27.73124 488.793L27.73124 488.793L25.4803 488.793M21.73886 489.543L23.98981 489.543L23.98981 489.543L23.98981 488.793L23.98981 488.793L21.73886 488.793M17.99743 489.543L20.24837 489.543L20.24837 489.543L20.24837 488.793L20.24837 488.793L17.99743 488.793M14.25599 489.543L16.50694 489.543L16.50694 489.543L16.50694 488.793L16.50694 488.793L14.25599 488.793" stroke="none" fill="#E3E4E3" fill-rule="winding" /></g><g clip-path="url(#5)"><path transform="matrix(1 0 0 -1 0 841)" d="M291.1223 240.4375L293.3732 240.4375L293.3732 240.4375L293.3732 239.6875L293.3732 239.6875L291.1223 239.6875M287.3809 240.4375L289.6318 240.4375L289.6318 240.4375L289.6318 239.6875L289.6318 239.6875L287.3809 239.6875M283.6394 240.4375L285.8904 240.4375L285.8904 240.4375L285.8904 239.6875L285.8904 239.6875L283.6394 239.6875M279.898 240.4375L282.1489 240.4375L282.1489 240.4375L282.1489 239.6875L282.1489 239.6875L279.898 239.6875M276.1566 240.4375L278.4075 240.4375L278.4075 240.4375L278.4075 239.6875L278.4075 239.6875L276.1566 239.6875M272.4151 240.4375L274.666 240.4375L274.666 240.4375L274.666 239.6875L274.666 239.6875L272.4151 239.6875M268.6737 240.4375L270.9246 240.4375L270.9246 240.4375L270.9246 239.6875L270.9246 239.6875L268.6737 239.6875M264.9323 240.4375L267.1832 240.4375L267.1832 240.4375L267.1832 239.6875L267.1832 239.6875L264.9323 239.6875M261.1908 240.4375L263.4417 240.4375L263.4417 240.4375L263.4417 239.6875L263.4417 239.6875L261.1908 239.6875M257.4494 240.4375L259.7003 240.4375L259.7003 240.4375L259.7003 239.6875L259.7003 239.6875L257.4494 239.6875M253.7079 240.4375L255.9589 240.4375L255.9589 240.4375L255.9589 239.6875L255.9589 239.6875L253.7079 239.6875M249.9665 240.4375L252.2174 240.4375L252.2174 240.4375L252.2174 239.6875L252.2174 239.6875L249.9665 239.6875M246.2251 240.4375L248.476 240.4375L248.476 240.4375L248.476 239.6875L248.476 239.6875L246.2251 239.6875M242.4836 240.4375L244.7346 240.4375L244.7346 240.4375L244.7346 239.6875L244.7346 239.6875L242.4836 239.6875M238.7422 240.4375L240.9931 240.4375L240.9931 240.4375L240.9931 239.6875L240.9931 239.6875L238.7422 239.6875M235.0007 240.4375L237.2517 240.4375L237.2517 240.4375L237.2517 239.6875L237.2517 239.6875L235.0007 239.6875M231.2593 240.4375L233.5103 240.4375L233.5103 240.4375L233.5103 239.6875L233.5103 239.6875L231.2593 239.6875M227.5179 240.4375L229.7688 240.4375L229.7688 240.4375L229.7688 239.6875L229.7688 239.6875L227.5179 239.6875M223.7764 240.4375L226.0274 240.4375L226.0274 240.4375L226.0274 239.6875L226.0274 239.6875L223.7764 239.6875M220.035 240.4375L222.2859 240.4375L222.2859 240.4375L222.2859 239.6875L222.2859 239.6875L220.035 239.6875M216.2936 240.4375L218.5445 240.4375L218.5445 240.4375L218.5445 239.6875L218.5445 239.6875L216.2936 239.6875M212.5521 240.4375L214.8031 240.4375L214.8031 240.4375L214.8031 239.6875L214.8031 239.6875L212.5521 239.6875M208.8107 240.4375L211.0616 240.4375L211.0616 240.4375L211.0616 239.6875L211.0616 239.6875L208.8107 239.6875M205.0692 240.4375L207.3202 240.4375L207.3202 240.4375L207.3202 239.6875L207.3202 239.6875L205.0692 239.6875M201.3278 240.4375L203.5788 240.4375L203.5788 240.4375L203.5788 239.6875L203.5788 239.6875L201.3278 239.6875M197.5864 240.4375L199.8373 240.4375L199.8373 240.4375L199.8373 239.6875L199.8373 239.6875L197.5864 239.6875M193.8449 240.4375L196.0959 240.4375L196.0959 240.4375L196.0959 239.6875L196.0959 239.6875L193.8449 239.6875M190.1035 240.4375L192.3545 240.4375L192.3545 240.4375L192.3545 239.6875L192.3545 239.6875L190.1035 239.6875M186.3621 240.4375L188.613 240.4375L188.613 240.4375L188.613 239.6875L188.613 239.6875L186.3621 239.6875M182.6206 240.4375L184.8716 240.4375L184.8716 240.4375L184.8716 239.6875L184.8716 239.6875L182.6206 239.6875M178.8792 240.4375L181.1301 240.4375L181.1301 240.4375L181.1301 239.6875L181.1301 239.6875L178.8792 239.6875M175.1378 240.4375L177.3887 240.4375L177.3887 240.4375L177.3887 239.6875L177.3887 239.6875L175.1378 239.6875M171.3963 240.4375L173.6473 240.4375L173.6473 240.4375L173.6473 239.6875L173.6473 239.6875L171.3963 239.6875M167.6549 240.4375L169.9058 240.4375L169.9058 240.4375L169.9058 239.6875L169.9058 239.6875L167.6549 239.6875M163.9135 240.4375L166.1644 240.4375L166.1644 240.4375L166.1644 239.6875L166.1644 239.6875L163.9135 239.6875M160.172 240.4375L162.423 240.4375L162.423 240.4375L162.423 239.6875L162.423 239.6875L160.172 239.6875M156.4306 240.4375L158.6815 240.4375L158.6815 240.4375L158.6815 239.6875L158.6815 239.6875L156.4306 239.6875M152.6891 240.4375L154.9401 240.4375L154.9401 240.4375L154.9401 239.6875L154.9401 239.6875L152.6891 239.6875M148.9477 240.4375L151.1987 240.4375L151.1987 240.4375L151.1987 239.6875L151.1987 239.6875L148.9477 239.6875M145.2063 240.4375L147.4572 240.4375L147.4572 240.4375L147.4572 239.6875L147.4572 239.6875L145.2063 239.6875M141.4648 240.4375L143.7158 240.4375L143.7158 240.4375L143.7158 239.6875L143.7158 239.6875L141.4648 239.6875M137.7234 240.4375L139.9743 240.4375L139.9743 240.4375L139.9743 239.6875L139.9743 239.6875L137.7234 239.6875M133.982 240.4375L136.2329 240.4375L136.2329 240.4375L136.2329 239.6875L136.2329 239.6875L133.982 239.6875M130.2405 240.4375L132.4915 240.4375L132.4915 240.4375L132.4915 239.6875L132.4915 239.6875L130.2405 239.6875M126.4991 240.4375L128.75 240.4375L128.75 240.4375L128.75 239.6875L128.75 239.6875L126.4991 239.6875M122.7577 240.4375L125.0086 240.4375L125.0086 240.4375L125.0086 239.6875L125.0086 239.6875L122.7577 239.6875M119.0162 240.4375L121.2672 240.4375L121.2672 240.4375L121.2672 239.6875L121.2672 239.6875L119.0162 239.6875M115.2748 240.4375L117.5257 240.4375L117.5257 240.4375L117.5257 239.6875L117.5257 239.6875L115.2748 239.6875M111.5333 240.4375L113.7843 240.4375L113.7843 240.4375L113.7843 239.6875L113.7843 239.6875L111.5333 239.6875M107.7919 240.4375L110.0429 240.4375L110.0429 240.4375L110.0429 239.6875L110.0429 239.6875L107.7919 239.6875M104.0505 240.4375L106.3014 240.4375L106.3014 240.4375L106.3014 239.6875L106.3014 239.6875L104.0505 239.6875M100.309 240.4375L102.56 240.4375L102.56 240.4375L102.56 239.6875L102.56 239.6875L100.309 239.6875M96.56759 240.4375L98.81853 240.4375L98.81853 240.4375L98.81853 239.6875L98.81853 239.6875L96.56759 239.6875M92.82616 240.4375L95.0771 240.4375L95.0771 240.4375L95.0771 239.6875L95.0771 239.6875L92.82616 239.6875M89.08472 240.4375L91.33566 240.4375L91.33566 240.4375L91.33566 239.6875L91.33566 239.6875L89.08472 239.6875M85.34328 240.4375L87.59422 240.4375L87.59422 240.4375L87.59422 239.6875L87.59422 239.6875L85.34328 239.6875M81.60185 240.4375L83.85279 240.4375L83.85279 240.4375L83.85279 239.6875L83.85279 239.6875L81.60185 239.6875M77.86041 240.4375L80.11136 240.4375L80.11136 240.4375L80.11136 239.6875L80.11136 239.6875L77.86041 239.6875M74.11897 240.4375L76.36992 240.4375L76.36992 240.4375L76.36992 239.6875L76.36992 239.6875L74.11897 239.6875M70.37753 240.4375L72.62848 240.4375L72.62848 240.4375L72.62848 239.6875L72.62848 239.6875L70.37753 239.6875M66.63609 240.4375L68.88704 240.4375L68.88704 240.4375L68.88704 239.6875L68.88704 239.6875L66.63609 239.6875M62.89466 240.4375L65.14561 240.4375L65.14561 240.4375L65.14561 239.6875L65.14561 239.6875L62.89466 239.6875M59.15322 240.4375L61.40417 240.4375L61.40417 240.4375L61.40417 239.6875L61.40417 239.6875L59.15322 239.6875M55.41179 240.4375L57.66273 240.4375L57.66273 240.4375L57.66273 239.6875L57.66273 239.6875L55.41179 239.6875M51.67036 240.4375L53.9213 240.4375L53.9213 240.4375L53.9213 239.6875L53.9213 239.6875L51.67036 239.6875M47.92892 240.4375L50.17986 240.4375L50.17986 240.4375L50.17986 239.6875L50.17986 239.6875L47.92892 239.6875M44.18748 240.4375L46.43843 240.4375L46.43843 240.4375L46.43843 239.6875L46.43843 239.6875L44.18748 239.6875M40.44604 240.4375L42.69699 240.4375L42.69699 240.4375L42.69699 239.6875L42.69699 239.6875L40.44604 239.6875M36.70461 240.4375L38.95555 240.4375L38.95555 240.4375L38.95555 239.6875L38.95555 239.6875L36.70461 239.6875M32.96317 240.4375L35.21412 240.4375L35.21412 240.4375L35.21412 239.6875L35.21412 239.6875L32.96317 239.6875M29.22174 240.4375L31.47268 240.4375L31.47268 240.4375L31.47268 239.6875L31.47268 239.6875L29.22174 239.6875M25.4803 240.4375L27.73124 240.4375L27.73124 240.4375L27.73124 239.6875L27.73124 239.6875L25.4803 239.6875M21.73886 240.4375L23.98981 240.4375L23.98981 240.4375L23.98981 239.6875L23.98981 239.6875L21.73886 239.6875M17.99743 240.4375L20.24837 240.4375L20.24837 240.4375L20.24837 239.6875L20.24837 239.6875L17.99743 239.6875M14.25599 240.4375L16.50694 240.4375L16.50694 240.4375L16.50694 239.6875L16.50694 239.6875L14.25599 239.6875" stroke="none" fill="#E3E4E3" fill-rule="winding" /></g><g clip-path="url(#6)"><path transform="matrix(1 0 0 -1 0 841)" d="M578.493 618.5977L580.744 618.5977L580.744 618.5977L580.744 617.8477L580.744 617.8477L578.493 617.8477M574.7617 618.5977L577.0127 618.5977L577.0127 618.5977L577.0127 617.8477L577.0127 617.8477L574.7617 617.8477M571.0305 618.5977L573.2814 618.5977L573.2814 618.5977L573.2814 617.8477L573.2814 617.8477L571.0305 617.8477M567.2991 618.5977L569.55 618.5977L569.55 618.5977L569.55 617.8477L569.55 617.8477L567.2991 617.8477M563.5679 618.5977L565.8188 618.5977L565.8188 618.5977L565.8188 617.8477L565.8188 617.8477L563.5679 617.8477M559.8365 618.5977L562.0875 618.5977L562.0875 618.5977L562.0875 617.8477L562.0875 617.8477L559.8365 617.8477M556.1052 618.5977L558.3562 618.5977L558.3562 618.5977L558.3562 617.8477L558.3562 617.8477L556.1052 617.8477M552.374 618.5977L554.6249 618.5977L554.6249 618.5977L554.6249 617.8477L554.6249 617.8477L552.374 617.8477M548.6426 618.5977L550.8936 618.5977L550.8936 618.5977L550.8936 617.8477L550.8936 617.8477L548.6426 617.8477M544.9114 618.5977L547.1623 618.5977L547.1623 618.5977L547.1623 617.8477L547.1623 617.8477L544.9114 617.8477M541.1801 618.5977L543.431 618.5977L543.431 618.5977L543.431 617.8477L543.431 617.8477L541.1801 617.8477M537.4487 618.5977L539.6997 618.5977L539.6997 618.5977L539.6997 617.8477L539.6997 617.8477L537.4487 617.8477M533.7175 618.5977L535.9684 618.5977L535.9684 618.5977L535.9684 617.8477L535.9684 617.8477L533.7175 617.8477M529.9861 618.5977L532.2371 618.5977L532.2371 618.5977L532.2371 617.8477L532.2371 617.8477L529.9861 617.8477M526.2549 618.5977L528.5058 618.5977L528.5058 618.5977L528.5058 617.8477L528.5058 617.8477L526.2549 617.8477M522.5236 618.5977L524.7745 618.5977L524.7745 618.5977L524.7745 617.8477L524.7745 617.8477L522.5236 617.8477M518.7922 618.5977L521.0432 618.5977L521.0432 618.5977L521.0432 617.8477L521.0432 617.8477L518.7922 617.8477M515.061 618.5977L517.3119 618.5977L517.3119 618.5977L517.3119 617.8477L517.3119 617.8477L515.061 617.8477M511.3296 618.5977L513.5806 618.5977L513.5806 618.5977L513.5806 617.8477L513.5806 617.8477L511.3296 617.8477M507.5984 618.5977L509.8493 618.5977L509.8493 618.5977L509.8493 617.8477L509.8493 617.8477L507.5984 617.8477M503.8671 618.5977L506.118 618.5977L506.118 618.5977L506.118 617.8477L506.118 617.8477L503.8671 617.8477M500.1358 618.5977L502.3867 618.5977L502.3867 618.5977L502.3867 617.8477L502.3867 617.8477L500.1358 617.8477M496.4045 618.5977L498.6554 618.5977L498.6554 618.5977L498.6554 617.8477L498.6554 617.8477L496.4045 617.8477M492.6732 618.5977L494.9241 618.5977L494.9241 618.5977L494.9241 617.8477L494.9241 617.8477L492.6732 617.8477M488.9419 618.5977L491.1928 618.5977L491.1928 618.5977L491.1928 617.8477L491.1928 617.8477L488.9419 617.8477M485.2106 618.5977L487.4615 618.5977L487.4615 618.5977L487.4615 617.8477L487.4615 617.8477L485.2106 617.8477M481.4793 618.5977L483.7302 618.5977L483.7302 618.5977L483.7302 617.8477L483.7302 617.8477L481.4793 617.8477M477.748 618.5977L479.9989 618.5977L479.9989 618.5977L479.9989 617.8477L479.9989 617.8477L477.748 617.8477M474.0167 618.5977L476.2676 618.5977L476.2676 618.5977L476.2676 617.8477L476.2676 617.8477L474.0167 617.8477M470.2854 618.5977L472.5363 618.5977L472.5363 618.5977L472.5363 617.8477L472.5363 617.8477L470.2854 617.8477M466.5541 618.5977L468.805 618.5977L468.805 618.5977L468.805 617.8477L468.805 617.8477L466.5541 617.8477M462.8228 618.5977L465.0737 618.5977L465.0737 618.5977L465.0737 617.8477L465.0737 617.8477L462.8228 617.8477M459.0915 618.5977L461.3424 618.5977L461.3424 618.5977L461.3424 617.8477L461.3424 617.8477L459.0915 617.8477M455.3602 618.5977L457.6112 618.5977L457.6112 618.5977L457.6112 617.8477L457.6112 617.8477L455.3602 617.8477M451.6289 618.5977L453.8799 618.5977L453.8799 618.5977L453.8799 617.8477L453.8799 617.8477L451.6289 617.8477M447.8976 618.5977L450.1485 618.5977L450.1485 618.5977L450.1485 617.8477L450.1485 617.8477L447.8976 617.8477M444.1663 618.5977L446.4172 618.5977L446.4172 618.5977L446.4172 617.8477L446.4172 617.8477L444.1663 617.8477M440.435 618.5977L442.686 618.5977L442.686 618.5977L442.686 617.8477L442.686 617.8477L440.435 617.8477M436.7037 618.5977L438.9547 618.5977L438.9547 618.5977L438.9547 617.8477L438.9547 617.8477L436.7037 617.8477M432.9724 618.5977L435.2234 618.5977L435.2234 618.5977L435.2234 617.8477L435.2234 617.8477L432.9724 617.8477M429.2411 618.5977L431.4921 618.5977L431.4921 618.5977L431.4921 617.8477L431.4921 617.8477L429.2411 617.8477M425.5098 618.5977L427.7608 618.5977L427.7608 618.5977L427.7608 617.8477L427.7608 617.8477L425.5098 617.8477M421.7785 618.5977L424.0295 618.5977L424.0295 618.5977L424.0295 617.8477L424.0295 617.8477L421.7785 617.8477M418.0472 618.5977L420.2982 618.5977L420.2982 618.5977L420.2982 617.8477L420.2982 617.8477L418.0472 617.8477M414.3159 618.5977L416.5669 618.5977L416.5669 618.5977L416.5669 617.8477L416.5669 617.8477L414.3159 617.8477M410.5846 618.5977L412.8356 618.5977L412.8356 618.5977L412.8356 617.8477L412.8356 617.8477L410.5846 617.8477M406.8533 618.5977L409.1043 618.5977L409.1043 618.5977L409.1043 617.8477L409.1043 617.8477L406.8533 617.8477M403.122 618.5977L405.373 618.5977L405.373 618.5977L405.373 617.8477L405.373 617.8477L403.122 617.8477M399.3907 618.5977L401.6417 618.5977L401.6417 618.5977L401.6417 617.8477L401.6417 617.8477L399.3907 617.8477M395.6595 618.5977L397.9104 618.5977L397.9104 618.5977L397.9104 617.8477L397.9104 617.8477L395.6595 617.8477M391.9281 618.5977L394.1791 618.5977L394.1791 618.5977L394.1791 617.8477L394.1791 617.8477L391.9281 617.8477M388.1968 618.5977L390.4478 618.5977L390.4478 618.5977L390.4478 617.8477L390.4478 617.8477L388.1968 617.8477M384.4655 618.5977L386.7165 618.5977L386.7165 618.5977L386.7165 617.8477L386.7165 617.8477L384.4655 617.8477M380.7343 618.5977L382.9852 618.5977L382.9852 618.5977L382.9852 617.8477L382.9852 617.8477L380.7343 617.8477M377.003 618.5977L379.2539 618.5977L379.2539 618.5977L379.2539 617.8477L379.2539 617.8477L377.003 617.8477M373.2717 618.5977L375.5226 618.5977L375.5226 618.5977L375.5226 617.8477L375.5226 617.8477L373.2717 617.8477M369.5404 618.5977L371.7913 618.5977L371.7913 618.5977L371.7913 617.8477L371.7913 617.8477L369.5404 617.8477M365.8091 618.5977L368.06 618.5977L368.06 618.5977L368.06 617.8477L368.06 617.8477L365.8091 617.8477M362.0778 618.5977L364.3287 618.5977L364.3287 618.5977L364.3287 617.8477L364.3287 617.8477L362.0778 617.8477M358.3465 618.5977L360.5974 618.5977L360.5974 618.5977L360.5974 617.8477L360.5974 617.8477L358.3465 617.8477M354.6152 618.5977L356.8661 618.5977L356.8661 618.5977L356.8661 617.8477L356.8661 617.8477L354.6152 617.8477M350.8839 618.5977L353.1348 618.5977L353.1348 618.5977L353.1348 617.8477L353.1348 617.8477L350.8839 617.8477M347.1526 618.5977L349.4035 618.5977L349.4035 618.5977L349.4035 617.8477L349.4035 617.8477L347.1526 617.8477M343.4213 618.5977L345.6722 618.5977L345.6722 618.5977L345.6722 617.8477L345.6722 617.8477L343.4213 617.8477M339.69 618.5977L341.9409 618.5977L341.9409 618.5977L341.9409 617.8477L341.9409 617.8477L339.69 617.8477M335.9587 618.5977L338.2096 618.5977L338.2096 618.5977L338.2096 617.8477L338.2096 617.8477L335.9587 617.8477M332.2274 618.5977L334.4783 618.5977L334.4783 618.5977L334.4783 617.8477L334.4783 617.8477L332.2274 617.8477M328.4961 618.5977L330.747 618.5977L330.747 618.5977L330.747 617.8477L330.747 617.8477L328.4961 617.8477M324.7648 618.5977L327.0157 618.5977L327.0157 618.5977L327.0157 617.8477L327.0157 617.8477L324.7648 617.8477M321.0335 618.5977L323.2845 618.5977L323.2845 618.5977L323.2845 617.8477L323.2845 617.8477L321.0335 617.8477M317.3022 618.5977L319.5532 618.5977L319.5532 618.5977L319.5532 617.8477L319.5532 617.8477L317.3022 617.8477M313.5709 618.5977L315.8219 618.5977L315.8219 618.5977L315.8219 617.8477L315.8219 617.8477L313.5709 617.8477M309.8396 618.5977L312.0906 618.5977L312.0906 618.5977L312.0906 617.8477L312.0906 617.8477L309.8396 617.8477M306.1083 618.5977L308.3593 618.5977L308.3593 618.5977L308.3593 617.8477L308.3593 617.8477L306.1083 617.8477M302.377 618.5977L304.628 618.5977L304.628 618.5977L304.628 617.8477L304.628 617.8477L302.377 617.8477" stroke="none" fill="#E3E4E3" fill-rule="winding" /></g><g clip-path="url(#7)"><path transform="matrix(1 0 0 -1 0 841)" d="M578.493 207.4238L580.744 207.4238L580.744 207.4238L580.744 206.6738L580.744 206.6738L578.493 206.6738M574.7617 207.4238L577.0127 207.4238L577.0127 207.4238L577.0127 206.6738L577.0127 206.6738L574.7617 206.6738M571.0305 207.4238L573.2814 207.4238L573.2814 207.4238L573.2814 206.6738L573.2814 206.6738L571.0305 206.6738M567.2991 207.4238L569.55 207.4238L569.55 207.4238L569.55 206.6738L569.55 206.6738L567.2991 206.6738M563.5679 207.4238L565.8188 207.4238L565.8188 207.4238L565.8188 206.6738L565.8188 206.6738L563.5679 206.6738M559.8365 207.4238L562.0875 207.4238L562.0875 207.4238L562.0875 206.6738L562.0875 206.6738L559.8365 206.6738M556.1052 207.4238L558.3562 207.4238L558.3562 207.4238L558.3562 206.6738L558.3562 206.6738L556.1052 206.6738M552.374 207.4238L554.6249 207.4238L554.6249 207.4238L554.6249 206.6738L554.6249 206.6738L552.374 206.6738M548.6426 207.4238L550.8936 207.4238L550.8936 207.4238L550.8936 206.6738L550.8936 206.6738L548.6426 206.6738M544.9114 207.4238L547.1623 207.4238L547.1623 207.4238L547.1623 206.6738L547.1623 206.6738L544.9114 206.6738M541.1801 207.4238L543.431 207.4238L543.431 207.4238L543.431 206.6738L543.431 206.6738L541.1801 206.6738M537.4487 207.4238L539.6997 207.4238L539.6997 207.4238L539.6997 206.6738L539.6997 206.6738L537.4487 206.6738M533.7175 207.4238L535.9684 207.4238L535.9684 207.4238L535.9684 206.6738L535.9684 206.6738L533.7175 206.6738M529.9861 207.4238L532.2371 207.4238L532.2371 207.4238L532.2371 206.6738L532.2371 206.6738L529.9861 206.6738M526.2549 207.4238L528.5058 207.4238L528.5058 207.4238L528.5058 206.6738L528.5058 206.6738L526.2549 206.6738M522.5236 207.4238L524.7745 207.4238L524.7745 207.4238L524.7745 206.6738L524.7745 206.6738L522.5236 206.6738M518.7922 207.4238L521.0432 207.4238L521.0432 207.4238L521.0432 206.6738L521.0432 206.6738L518.7922 206.6738M515.061 207.4238L517.3119 207.4238L517.3119 207.4238L517.3119 206.6738L517.3119 206.6738L515.061 206.6738M511.3296 207.4238L513.5806 207.4238L513.5806 207.4238L513.5806 206.6738L513.5806 206.6738L511.3296 206.6738M507.5984 207.4238L509.8493 207.4238L509.8493 207.4238L509.8493 206.6738L509.8493 206.6738L507.5984 206.6738M503.8671 207.4238L506.118 207.4238L506.118 207.4238L506.118 206.6738L506.118 206.6738L503.8671 206.6738M500.1358 207.4238L502.3867 207.4238L502.3867 207.4238L502.3867 206.6738L502.3867 206.6738L500.1358 206.6738M496.4045 207.4238L498.6554 207.4238L498.6554 207.4238L498.6554 206.6738L498.6554 206.6738L496.4045 206.6738M492.6732 207.4238L494.9241 207.4238L494.9241 207.4238L494.9241 206.6738L494.9241 206.6738L492.6732 206.6738M488.9419 207.4238L491.1928 207.4238L491.1928 207.4238L491.1928 206.6738L491.1928 206.6738L488.9419 206.6738M485.2106 207.4238L487.4615 207.4238L487.4615 207.4238L487.4615 206.6738L487.4615 206.6738L485.2106 206.6738M481.4793 207.4238L483.7302 207.4238L483.7302 207.4238L483.7302 206.6738L483.7302 206.6738L481.4793 206.6738M477.748 207.4238L479.9989 207.4238L479.9989 207.4238L479.9989 206.6738L479.9989 206.6738L477.748 206.6738M474.0167 207.4238L476.2676 207.4238L476.2676 207.4238L476.2676 206.6738L476.2676 206.6738L474.0167 206.6738M470.2854 207.4238L472.5363 207.4238L472.5363 207.4238L472.5363 206.6738L472.5363 206.6738L470.2854 206.6738M466.5541 207.4238L468.805 207.4238L468.805 207.4238L468.805 206.6738L468.805 206.6738L466.5541 206.6738M462.8228 207.4238L465.0737 207.4238L465.0737 207.4238L465.0737 206.6738L465.0737 206.6738L462.8228 206.6738M459.0915 207.4238L461.3424 207.4238L461.3424 207.4238L461.3424 206.6738L461.3424 206.6738L459.0915 206.6738M455.3602 207.4238L457.6112 207.4238L457.6112 207.4238L457.6112 206.6738L457.6112 206.6738L455.3602 206.6738M451.6289 207.4238L453.8799 207.4238L453.8799 207.4238L453.8799 206.6738L453.8799 206.6738L451.6289 206.6738M447.8976 207.4238L450.1485 207.4238L450.1485 207.4238L450.1485 206.6738L450.1485 206.6738L447.8976 206.6738M444.1663 207.4238L446.4172 207.4238L446.4172 207.4238L446.4172 206.6738L446.4172 206.6738L444.1663 206.6738M440.435 207.4238L442.686 207.4238L442.686 207.4238L442.686 206.6738L442.686 206.6738L440.435 206.6738M436.7037 207.4238L438.9547 207.4238L438.9547 207.4238L438.9547 206.6738L438.9547 206.6738L436.7037 206.6738M432.9724 207.4238L435.2234 207.4238L435.2234 207.4238L435.2234 206.6738L435.2234 206.6738L432.9724 206.6738M429.2411 207.4238L431.4921 207.4238L431.4921 207.4238L431.4921 206.6738L431.4921 206.6738L429.2411 206.6738M425.5098 207.4238L427.7608 207.4238L427.7608 207.4238L427.7608 206.6738L427.7608 206.6738L425.5098 206.6738M421.7785 207.4238L424.0295 207.4238L424.0295 207.4238L424.0295 206.6738L424.0295 206.6738L421.7785 206.6738M418.0472 207.4238L420.2982 207.4238L420.2982 207.4238L420.2982 206.6738L420.2982 206.6738L418.0472 206.6738M414.3159 207.4238L416.5669 207.4238L416.5669 207.4238L416.5669 206.6738L416.5669 206.6738L414.3159 206.6738M410.5846 207.4238L412.8356 207.4238L412.8356 207.4238L412.8356 206.6738L412.8356 206.6738L410.5846 206.6738M406.8533 207.4238L409.1043 207.4238L409.1043 207.4238L409.1043 206.6738L409.1043 206.6738L406.8533 206.6738M403.122 207.4238L405.373 207.4238L405.373 207.4238L405.373 206.6738L405.373 206.6738L403.122 206.6738M399.3907 207.4238L401.6417 207.4238L401.6417 207.4238L401.6417 206.6738L401.6417 206.6738L399.3907 206.6738M395.6595 207.4238L397.9104 207.4238L397.9104 207.4238L397.9104 206.6738L397.9104 206.6738L395.6595 206.6738M391.9281 207.4238L394.1791 207.4238L394.1791 207.4238L394.1791 206.6738L394.1791 206.6738L391.9281 206.6738M388.1968 207.4238L390.4478 207.4238L390.4478 207.4238L390.4478 206.6738L390.4478 206.6738L388.1968 206.6738M384.4655 207.4238L386.7165 207.4238L386.7165 207.4238L386.7165 206.6738L386.7165 206.6738L384.4655 206.6738M380.7343 207.4238L382.9852 207.4238L382.9852 207.4238L382.9852 206.6738L382.9852 206.6738L380.7343 206.6738M377.003 207.4238L379.2539 207.4238L379.2539 207.4238L379.2539 206.6738L379.2539 206.6738L377.003 206.6738M373.2717 207.4238L375.5226 207.4238L375.5226 207.4238L375.5226 206.6738L375.5226 206.6738L373.2717 206.6738M369.5404 207.4238L371.7913 207.4238L371.7913 207.4238L371.7913 206.6738L371.7913 206.6738L369.5404 206.6738M365.8091 207.4238L368.06 207.4238L368.06 207.4238L368.06 206.6738L368.06 206.6738L365.8091 206.6738M362.0778 207.4238L364.3287 207.4238L364.3287 207.4238L364.3287 206.6738L364.3287 206.6738L362.0778 206.6738M358.3465 207.4238L360.5974 207.4238L360.5974 207.4238L360.5974 206.6738L360.5974 206.6738L358.3465 206.6738M354.6152 207.4238L356.8661 207.4238L356.8661 207.4238L356.8661 206.6738L356.8661 206.6738L354.6152 206.6738M350.8839 207.4238L353.1348 207.4238L353.1348 207.4238L353.1348 206.6738L353.1348 206.6738L350.8839 206.6738M347.1526 207.4238L349.4035 207.4238L349.4035 207.4238L349.4035 206.6738L349.4035 206.6738L347.1526 206.6738M343.4213 207.4238L345.6722 207.4238L345.6722 207.4238L345.6722 206.6738L345.6722 206.6738L343.4213 206.6738M339.69 207.4238L341.9409 207.4238L341.9409 207.4238L341.9409 206.6738L341.9409 206.6738L339.69 206.6738M335.9587 207.4238L338.2096 207.4238L338.2096 207.4238L338.2096 206.6738L338.2096 206.6738L335.9587 206.6738M332.2274 207.4238L334.4783 207.4238L334.4783 207.4238L334.4783 206.6738L334.4783 206.6738L332.2274 206.6738M328.4961 207.4238L330.747 207.4238L330.747 207.4238L330.747 206.6738L330.747 206.6738L328.4961 206.6738M324.7648 207.4238L327.0157 207.4238L327.0157 207.4238L327.0157 206.6738L327.0157 206.6738L324.7648 206.6738M321.0335 207.4238L323.2845 207.4238L323.2845 207.4238L323.2845 206.6738L323.2845 206.6738L321.0335 206.6738M317.3022 207.4238L319.5532 207.4238L319.5532 207.4238L319.5532 206.6738L319.5532 206.6738L317.3022 206.6738M313.5709 207.4238L315.8219 207.4238L315.8219 207.4238L315.8219 206.6738L315.8219 206.6738L313.5709 206.6738M309.8396 207.4238L312.0906 207.4238L312.0906 207.4238L312.0906 206.6738L312.0906 206.6738L309.8396 206.6738M306.1083 207.4238L308.3593 207.4238L308.3593 207.4238L308.3593 206.6738L308.3593 206.6738L306.1083 206.6738M302.377 207.4238L304.628 207.4238L304.628 207.4238L304.628 206.6738L304.628 206.6738L302.377 206.6738" stroke="none" fill="#E3E4E3" fill-rule="winding" /></g><g clip-path="url(#8)"><path transform="matrix(1 0 0 -1 0 841)" d="M19.50819 468.5332L19.50819 477.5371C 19.50819 477.8379 19.56531 478.125 19.67953 478.4023C 19.79376 478.6797 19.95641 478.9219 20.16748 479.1328C 20.37855 479.3438 20.62197 479.5059 20.89774 479.6211C 21.17351 479.7324 21.46065 479.7891 21.75914 479.7891L21.75914 479.7891L33.01387 479.7891C 33.31236 479.7891 33.59949 479.7324 33.87526 479.6211C 34.15103 479.5059 34.39445 479.3438 34.60552 479.1328C 34.81659 478.9219 34.97924 478.6797 35.09347 478.4023C 35.2077 478.125 35.26481 477.8379 35.26481 477.5371L35.26481 477.5371L35.26481 468.5332C 35.26481 468.2363 35.2077 467.9512 35.09346 467.6758C 34.97924 467.4004 34.81659 467.1563 34.60552 466.9434C 34.39445 466.7344 34.15103 466.5723 33.87526 466.457C 33.59949 466.3418 33.31236 466.2852 33.01387 466.2852L33.01387 466.2852L21.75914 466.2852C 21.46065 466.2852 21.17351 466.3418 20.89774 466.457C 20.62197 466.5723 20.37855 466.7344 20.16748 466.9434C 19.95641 467.1563 19.79376 467.4004 19.67953 467.6758C 19.56531 467.9512 19.50819 468.2363 19.50819 468.5332z" stroke="none" fill="#333333" fill-rule="winding" /><path transform="matrix(1 0 0 -1 0 841)" d="M19.50819 219.4297L19.50819 228.4336C 19.50819 228.7344 19.56531 229.0215 19.67953 229.2969C 19.79376 229.5742 19.95641 229.8164 20.16748 230.0254C 20.37855 230.2363 20.62197 230.4004 20.89774 230.5137C 21.17351 230.627 21.46065 230.6836 21.75914 230.6836L21.75914 230.6836L33.01387 230.6836C 33.31236 230.6836 33.59949 230.627 33.87526 230.5137C 34.15103 230.4004 34.39445 230.2363 34.60552 230.0254C 34.81659 229.8164 34.97924 229.5742 35.09347 229.2969C 35.2077 229.0215 35.26481 228.7344 35.26481 228.4336L35.26481 228.4336L35.26481 219.4297C 35.26481 219.1328 35.2077 218.8438 35.09346 218.5703C 34.97924 218.293 34.81659 218.0508 34.60552 217.8379C 34.39445 217.627 34.15103 217.4648 33.87526 217.3516C 33.59949 217.2383 33.31236 217.1797 33.01387 217.1797L33.01387 217.1797L21.75914 217.1797C 21.46065 217.1797 21.17351 217.2383 20.89774 217.3516C 20.62197 217.4648 20.37855 217.627 20.16748 217.8379C 19.95641 218.0508 19.79376 218.293 19.67953 218.5703C 19.56531 218.8438 19.50819 219.1328 19.50819 219.4297z" stroke="none" fill="#333333" fill-rule="winding" /></g><g clip-path="url(#9)"><path transform="matrix(1 0 0 -1 0 841)" d="M307.6292 597.5879L307.6292 606.5918C 307.6292 606.8926 307.6863 607.1797 307.8005 607.457C 307.9148 607.7305 308.0774 607.9727 308.2885 608.1836C 308.4995 608.3965 308.743 608.5586 309.0187 608.6719C 309.2945 608.7852 309.5817 608.8438 309.8802 608.8438L309.8802 608.8438L321.1349 608.8438C 321.4334 608.8438 321.7205 608.7852 321.9963 608.6719C 322.2721 608.5586 322.5155 608.3965 322.7266 608.1836C 322.9376 607.9727 323.1003 607.7305 323.2145 607.4551C 323.3287 607.1797 323.3858 606.8926 323.3858 606.5918L323.3858 606.5918L323.3858 597.5879C 323.3858 597.291 323.3287 597.0059 323.2145 596.7285C 323.1003 596.4512 322.9376 596.207 322.7266 595.9961C 322.5155 595.7871 322.2721 595.625 321.9963 595.5078C 321.7205 595.3965 321.4334 595.3379 321.1349 595.3379L321.1349 595.3379L309.8802 595.3379C 309.5817 595.3379 309.2945 595.3965 309.0187 595.5078C 308.743 595.625 308.4995 595.7871 308.2885 595.9961C 308.0774 596.207 307.9148 596.4512 307.8005 596.7285C 307.6863 597.0059 307.6292 597.291 307.6292 597.5879z" stroke="none" fill="#333333" fill-rule="winding" /><path transform="matrix(1 0 0 -1 0 841)" d="M307.6292 186.416L307.6292 195.4199C 307.6292 195.7188 307.6863 196.0059 307.8005 196.2832C 307.9148 196.5586 308.0774 196.8027 308.2885 197.0117C 308.4995 197.2246 308.743 197.3867 309.0187 197.5C 309.2945 197.6133 309.5817 197.6699 309.8802 197.6699L309.8802 197.6699L321.1349 197.6699C 321.4334 197.6699 321.7205 197.6133 321.9963 197.5C 322.2721 197.3867 322.5155 197.2246 322.7266 197.0117C 322.9376 196.8027 323.1003 196.5586 323.2145 196.2832C 323.3287 196.0059 323.3858 195.7188 323.3858 195.4199L323.3858 195.4199L323.3858 186.416C 323.3858 186.1172 323.3287 185.832 323.2145 185.5566C 323.1003 185.2813 322.9376 185.0371 322.7266 184.8262C 322.5155 184.6152 322.2721 184.4512 321.9963 184.3398C 321.7205 184.2227 321.4334 184.166 321.1349 184.1641L321.1349 184.1641L309.8802 184.1641C 309.5817 184.166 309.2945 184.2227 309.0187 184.3398C 308.743 184.4512 308.4995 184.6152 308.2885 184.8262C 308.0774 185.0371 307.9148 185.2813 307.8005 185.5566C 307.6863 185.832 307.6292 186.1172 307.6292 186.416z" stroke="none" fill="#333333" fill-rule="winding" /></g><g clip-path="url(#10)"></g><g clip-path="url(#11)"></g></g></g></g></svg>