<svg xmlns="http://www.w3.org/2000/svg" xmlns:xlink="http://www.w3.org/1999/xlink" id="body_24" preserveAspectRatio="xMinYMin meet" viewBox="0 0 792 1121"><defs><clipPath id="1"><path d="M0 841L0 -0.9199829L0 -0.9199829L594.96 -0.9199829L594.96 -0.9199829L594.96 841L594.96 841L0 841z" /></clipPath><clipPath id="2"><path d="M0 -0.9199829L595.2 -0.9199829L595.2 -0.9199829L595.2 841.24L595.2 841.24L0 841.24z" /></clipPath><clipPath id="3"><path d="M0 55.08063L594.9999 55.08063L594.9999 55.08063L594.9999 790.39L594.9999 790.39L0 790.39z" /></clipPath><clipPath id="4"><path d="M14.25599 72.33813L293.3733 72.33813L293.3733 72.33813L293.3733 73.08813L293.3733 73.08813L14.25599 73.08813z" /></clipPath><clipPath id="5"><path d="M14.25599 334.9488L293.3733 334.9488L293.3733 334.9488L293.3733 335.6988L293.3733 335.6988L14.25599 335.6988z" /></clipPath><clipPath id="6"><path d="M14.25599 678.5931L293.3733 678.5931L293.3733 678.5931L293.3733 679.3431L293.3733 679.3431L14.25599 679.3431z" /></clipPath><clipPath id="7"><path d="M302.377 262.9188L580.744 262.9188L580.744 262.9188L580.744 263.6688L580.744 263.6688L302.377 263.6688z" /></clipPath><clipPath id="8"><path d="M302.377 512.0237L580.744 512.0237L580.744 512.0237L580.744 512.7737L580.744 512.7737L302.377 512.7737z" /></clipPath><clipPath id="9"><path d="M302.377 720.6119L580.744 720.6119L580.744 720.6119L580.744 721.3619L580.744 721.3619L302.377 721.3619z" /></clipPath><clipPath id="10"><path d="M0 55.08063L297.8752 55.08063L297.8752 55.08063L297.8752 790.39L297.8752 790.39L0 790.39z" /></clipPath><clipPath id="11"><path d="M297.8752 55.08063L594.9999 55.08063L594.9999 55.08063L594.9999 790.39L594.9999 790.39L297.8752 790.39z" /></clipPath><clipPath id="12"><path d="M0 55.08063L297.8752 55.08063L297.8752 55.08063L297.8752 790.39L297.8752 790.39L0 790.39z" /></clipPath><clipPath id="13"><path d="M297.8752 55.08063L594.9999 55.08063L594.9999 55.08063L594.9999 790.39L594.9999 790.39L297.8752 790.39z" /></clipPath></defs><g transform="matrix(1.333333 0 0 1.333333 0 0)"><g><g clip-path="url(#1)"><g clip-path="url(#2)"><path transform="matrix(1 0 0 -1 0 841)" d="M0 841.92L792.9999 841.92L792.9999 841.92L792.9999 -280.0799L792.9999 -280.0799L0 -280.0799z" stroke="none" fill="#FFFFFF" fill-rule="winding" /><path transform="matrix(1 0 0 -1 0 841)" d="M0 796.92L594.9999 796.92L594.9999 796.92L594.9999 795.92L594.9999 795.92L0 795.92z" stroke="none" fill="#B7B5B5" fill-rule="winding" /><g transform="matrix(0.1840659 0 0 0.1886792 510 12.08002)"><g transform="matrix(1 0 0 1 0 0)"><image x="0" y="0" xlink:href="img_01.png" width="364" height="106" /></g></g></g><g clip-path="url(#3)"><path transform="matrix(1 0 0 -1 0 841)" d="M0 17698.02L594.9999 17698.02L594.9999 17698.02L594.9999 -2528.227L594.9999 -2528.227L0 -2528.227z" stroke="none" fill="#FFFFFF" fill-rule="winding" /><path transform="matrix(1 0 0 -1 0 841)" d="M297.1248 2211.515L297.8751 2211.515L297.8751 2211.515L297.8751 -2528.227L297.8751 -2528.227L297.1248 -2528.227z" stroke="none" fill="#767D71" fill-rule="winding" /></g><g clip-path="url(#4)"><path transform="matrix(1 0 0 -1 0 841)" d="M291.1223 768.6582L293.3732 768.6582L293.3732 768.6582L293.3732 767.9082L293.3732 767.9082L291.1223 767.9082M287.3809 768.6582L289.6318 768.6582L289.6318 768.6582L289.6318 767.9082L289.6318 767.9082L287.3809 767.9082M283.6394 768.6582L285.8904 768.6582L285.8904 768.6582L285.8904 767.9082L285.8904 767.9082L283.6394 767.9082M279.898 768.6582L282.1489 768.6582L282.1489 768.6582L282.1489 767.9082L282.1489 767.9082L279.898 767.9082M276.1566 768.6582L278.4075 768.6582L278.4075 768.6582L278.4075 767.9082L278.4075 767.9082L276.1566 767.9082M272.4151 768.6582L274.666 768.6582L274.666 768.6582L274.666 767.9082L274.666 767.9082L272.4151 767.9082M268.6737 768.6582L270.9246 768.6582L270.9246 768.6582L270.9246 767.9082L270.9246 767.9082L268.6737 767.9082M264.9323 768.6582L267.1832 768.6582L267.1832 768.6582L267.1832 767.9082L267.1832 767.9082L264.9323 767.9082M261.1908 768.6582L263.4417 768.6582L263.4417 768.6582L263.4417 767.9082L263.4417 767.9082L261.1908 767.9082M257.4494 768.6582L259.7003 768.6582L259.7003 768.6582L259.7003 767.9082L259.7003 767.9082L257.4494 767.9082M253.7079 768.6582L255.9589 768.6582L255.9589 768.6582L255.9589 767.9082L255.9589 767.9082L253.7079 767.9082M249.9665 768.6582L252.2174 768.6582L252.2174 768.6582L252.2174 767.9082L252.2174 767.9082L249.9665 767.9082M246.2251 768.6582L248.476 768.6582L248.476 768.6582L248.476 767.9082L248.476 767.9082L246.2251 767.9082M242.4836 768.6582L244.7346 768.6582L244.7346 768.6582L244.7346 767.9082L244.7346 767.9082L242.4836 767.9082M238.7422 768.6582L240.9931 768.6582L240.9931 768.6582L240.9931 767.9082L240.9931 767.9082L238.7422 767.9082M235.0007 768.6582L237.2517 768.6582L237.2517 768.6582L237.2517 767.9082L237.2517 767.9082L235.0007 767.9082M231.2593 768.6582L233.5103 768.6582L233.5103 768.6582L233.5103 767.9082L233.5103 767.9082L231.2593 767.9082M227.5179 768.6582L229.7688 768.6582L229.7688 768.6582L229.7688 767.9082L229.7688 767.9082L227.5179 767.9082M223.7764 768.6582L226.0274 768.6582L226.0274 768.6582L226.0274 767.9082L226.0274 767.9082L223.7764 767.9082M220.035 768.6582L222.2859 768.6582L222.2859 768.6582L222.2859 767.9082L222.2859 767.9082L220.035 767.9082M216.2936 768.6582L218.5445 768.6582L218.5445 768.6582L218.5445 767.9082L218.5445 767.9082L216.2936 767.9082M212.5521 768.6582L214.8031 768.6582L214.8031 768.6582L214.8031 767.9082L214.8031 767.9082L212.5521 767.9082M208.8107 768.6582L211.0616 768.6582L211.0616 768.6582L211.0616 767.9082L211.0616 767.9082L208.8107 767.9082M205.0692 768.6582L207.3202 768.6582L207.3202 768.6582L207.3202 767.9082L207.3202 767.9082L205.0692 767.9082M201.3278 768.6582L203.5788 768.6582L203.5788 768.6582L203.5788 767.9082L203.5788 767.9082L201.3278 767.9082M197.5864 768.6582L199.8373 768.6582L199.8373 768.6582L199.8373 767.9082L199.8373 767.9082L197.5864 767.9082M193.8449 768.6582L196.0959 768.6582L196.0959 768.6582L196.0959 767.9082L196.0959 767.9082L193.8449 767.9082M190.1035 768.6582L192.3545 768.6582L192.3545 768.6582L192.3545 767.9082L192.3545 767.9082L190.1035 767.9082M186.3621 768.6582L188.613 768.6582L188.613 768.6582L188.613 767.9082L188.613 767.9082L186.3621 767.9082M182.6206 768.6582L184.8716 768.6582L184.8716 768.6582L184.8716 767.9082L184.8716 767.9082L182.6206 767.9082M178.8792 768.6582L181.1301 768.6582L181.1301 768.6582L181.1301 767.9082L181.1301 767.9082L178.8792 767.9082M175.1378 768.6582L177.3887 768.6582L177.3887 768.6582L177.3887 767.9082L177.3887 767.9082L175.1378 767.9082M171.3963 768.6582L173.6473 768.6582L173.6473 768.6582L173.6473 767.9082L173.6473 767.9082L171.3963 767.9082M167.6549 768.6582L169.9058 768.6582L169.9058 768.6582L169.9058 767.9082L169.9058 767.9082L167.6549 767.9082M163.9135 768.6582L166.1644 768.6582L166.1644 768.6582L166.1644 767.9082L166.1644 767.9082L163.9135 767.9082M160.172 768.6582L162.423 768.6582L162.423 768.6582L162.423 767.9082L162.423 767.9082L160.172 767.9082M156.4306 768.6582L158.6815 768.6582L158.6815 768.6582L158.6815 767.9082L158.6815 767.9082L156.4306 767.9082M152.6891 768.6582L154.9401 768.6582L154.9401 768.6582L154.9401 767.9082L154.9401 767.9082L152.6891 767.9082M148.9477 768.6582L151.1987 768.6582L151.1987 768.6582L151.1987 767.9082L151.1987 767.9082L148.9477 767.9082M145.2063 768.6582L147.4572 768.6582L147.4572 768.6582L147.4572 767.9082L147.4572 767.9082L145.2063 767.9082M141.4648 768.6582L143.7158 768.6582L143.7158 768.6582L143.7158 767.9082L143.7158 767.9082L141.4648 767.9082M137.7234 768.6582L139.9743 768.6582L139.9743 768.6582L139.9743 767.9082L139.9743 767.9082L137.7234 767.9082M133.982 768.6582L136.2329 768.6582L136.2329 768.6582L136.2329 767.9082L136.2329 767.9082L133.982 767.9082M130.2405 768.6582L132.4915 768.6582L132.4915 768.6582L132.4915 767.9082L132.4915 767.9082L130.2405 767.9082M126.4991 768.6582L128.75 768.6582L128.75 768.6582L128.75 767.9082L128.75 767.9082L126.4991 767.9082M122.7577 768.6582L125.0086 768.6582L125.0086 768.6582L125.0086 767.9082L125.0086 767.9082L122.7577 767.9082M119.0162 768.6582L121.2672 768.6582L121.2672 768.6582L121.2672 767.9082L121.2672 767.9082L119.0162 767.9082M115.2748 768.6582L117.5257 768.6582L117.5257 768.6582L117.5257 767.9082L117.5257 767.9082L115.2748 767.9082M111.5333 768.6582L113.7843 768.6582L113.7843 768.6582L113.7843 767.9082L113.7843 767.9082L111.5333 767.9082M107.7919 768.6582L110.0429 768.6582L110.0429 768.6582L110.0429 767.9082L110.0429 767.9082L107.7919 767.9082M104.0505 768.6582L106.3014 768.6582L106.3014 768.6582L106.3014 767.9082L106.3014 767.9082L104.0505 767.9082M100.309 768.6582L102.56 768.6582L102.56 768.6582L102.56 767.9082L102.56 767.9082L100.309 767.9082M96.56759 768.6582L98.81853 768.6582L98.81853 768.6582L98.81853 767.9082L98.81853 767.9082L96.56759 767.9082M92.82616 768.6582L95.0771 768.6582L95.0771 768.6582L95.0771 767.9082L95.0771 767.9082L92.82616 767.9082M89.08472 768.6582L91.33566 768.6582L91.33566 768.6582L91.33566 767.9082L91.33566 767.9082L89.08472 767.9082M85.34328 768.6582L87.59422 768.6582L87.59422 768.6582L87.59422 767.9082L87.59422 767.9082L85.34328 767.9082M81.60185 768.6582L83.85279 768.6582L83.85279 768.6582L83.85279 767.9082L83.85279 767.9082L81.60185 767.9082M77.86041 768.6582L80.11136 768.6582L80.11136 768.6582L80.11136 767.9082L80.11136 767.9082L77.86041 767.9082M74.11897 768.6582L76.36992 768.6582L76.36992 768.6582L76.36992 767.9082L76.36992 767.9082L74.11897 767.9082M70.37753 768.6582L72.62848 768.6582L72.62848 768.6582L72.62848 767.9082L72.62848 767.9082L70.37753 767.9082M66.63609 768.6582L68.88704 768.6582L68.88704 768.6582L68.88704 767.9082L68.88704 767.9082L66.63609 767.9082M62.89466 768.6582L65.14561 768.6582L65.14561 768.6582L65.14561 767.9082L65.14561 767.9082L62.89466 767.9082M59.15322 768.6582L61.40417 768.6582L61.40417 768.6582L61.40417 767.9082L61.40417 767.9082L59.15322 767.9082M55.41179 768.6582L57.66273 768.6582L57.66273 768.6582L57.66273 767.9082L57.66273 767.9082L55.41179 767.9082M51.67036 768.6582L53.9213 768.6582L53.9213 768.6582L53.9213 767.9082L53.9213 767.9082L51.67036 767.9082M47.92892 768.6582L50.17986 768.6582L50.17986 768.6582L50.17986 767.9082L50.17986 767.9082L47.92892 767.9082M44.18748 768.6582L46.43843 768.6582L46.43843 768.6582L46.43843 767.9082L46.43843 767.9082L44.18748 767.9082M40.44604 768.6582L42.69699 768.6582L42.69699 768.6582L42.69699 767.9082L42.69699 767.9082L40.44604 767.9082M36.70461 768.6582L38.95555 768.6582L38.95555 768.6582L38.95555 767.9082L38.95555 767.9082L36.70461 767.9082M32.96317 768.6582L35.21412 768.6582L35.21412 768.6582L35.21412 767.9082L35.21412 767.9082L32.96317 767.9082M29.22174 768.6582L31.47268 768.6582L31.47268 768.6582L31.47268 767.9082L31.47268 767.9082L29.22174 767.9082M25.4803 768.6582L27.73124 768.6582L27.73124 768.6582L27.73124 767.9082L27.73124 767.9082L25.4803 767.9082M21.73886 768.6582L23.98981 768.6582L23.98981 768.6582L23.98981 767.9082L23.98981 767.9082L21.73886 767.9082M17.99743 768.6582L20.24837 768.6582L20.24837 768.6582L20.24837 767.9082L20.24837 767.9082L17.99743 767.9082M14.25599 768.6582L16.50694 768.6582L16.50694 768.6582L16.50694 767.9082L16.50694 767.9082L14.25599 767.9082" stroke="none" fill="#E3E4E3" fill-rule="winding" /></g><g clip-path="url(#5)"><path transform="matrix(1 0 0 -1 0 841)" d="M291.1223 506.0488L293.3732 506.0488L293.3732 506.0488L293.3732 505.2988L293.3732 505.2988L291.1223 505.2988M287.3809 506.0488L289.6318 506.0488L289.6318 506.0488L289.6318 505.2988L289.6318 505.2988L287.3809 505.2988M283.6394 506.0488L285.8904 506.0488L285.8904 506.0488L285.8904 505.2988L285.8904 505.2988L283.6394 505.2988M279.898 506.0488L282.1489 506.0488L282.1489 506.0488L282.1489 505.2988L282.1489 505.2988L279.898 505.2988M276.1566 506.0488L278.4075 506.0488L278.4075 506.0488L278.4075 505.2988L278.4075 505.2988L276.1566 505.2988M272.4151 506.0488L274.666 506.0488L274.666 506.0488L274.666 505.2988L274.666 505.2988L272.4151 505.2988M268.6737 506.0488L270.9246 506.0488L270.9246 506.0488L270.9246 505.2988L270.9246 505.2988L268.6737 505.2988M264.9323 506.0488L267.1832 506.0488L267.1832 506.0488L267.1832 505.2988L267.1832 505.2988L264.9323 505.2988M261.1908 506.0488L263.4417 506.0488L263.4417 506.0488L263.4417 505.2988L263.4417 505.2988L261.1908 505.2988M257.4494 506.0488L259.7003 506.0488L259.7003 506.0488L259.7003 505.2988L259.7003 505.2988L257.4494 505.2988M253.7079 506.0488L255.9589 506.0488L255.9589 506.0488L255.9589 505.2988L255.9589 505.2988L253.7079 505.2988M249.9665 506.0488L252.2174 506.0488L252.2174 506.0488L252.2174 505.2988L252.2174 505.2988L249.9665 505.2988M246.2251 506.0488L248.476 506.0488L248.476 506.0488L248.476 505.2988L248.476 505.2988L246.2251 505.2988M242.4836 506.0488L244.7346 506.0488L244.7346 506.0488L244.7346 505.2988L244.7346 505.2988L242.4836 505.2988M238.7422 506.0488L240.9931 506.0488L240.9931 506.0488L240.9931 505.2988L240.9931 505.2988L238.7422 505.2988M235.0007 506.0488L237.2517 506.0488L237.2517 506.0488L237.2517 505.2988L237.2517 505.2988L235.0007 505.2988M231.2593 506.0488L233.5103 506.0488L233.5103 506.0488L233.5103 505.2988L233.5103 505.2988L231.2593 505.2988M227.5179 506.0488L229.7688 506.0488L229.7688 506.0488L229.7688 505.2988L229.7688 505.2988L227.5179 505.2988M223.7764 506.0488L226.0274 506.0488L226.0274 506.0488L226.0274 505.2988L226.0274 505.2988L223.7764 505.2988M220.035 506.0488L222.2859 506.0488L222.2859 506.0488L222.2859 505.2988L222.2859 505.2988L220.035 505.2988M216.2936 506.0488L218.5445 506.0488L218.5445 506.0488L218.5445 505.2988L218.5445 505.2988L216.2936 505.2988M212.5521 506.0488L214.8031 506.0488L214.8031 506.0488L214.8031 505.2988L214.8031 505.2988L212.5521 505.2988M208.8107 506.0488L211.0616 506.0488L211.0616 506.0488L211.0616 505.2988L211.0616 505.2988L208.8107 505.2988M205.0692 506.0488L207.3202 506.0488L207.3202 506.0488L207.3202 505.2988L207.3202 505.2988L205.0692 505.2988M201.3278 506.0488L203.5788 506.0488L203.5788 506.0488L203.5788 505.2988L203.5788 505.2988L201.3278 505.2988M197.5864 506.0488L199.8373 506.0488L199.8373 506.0488L199.8373 505.2988L199.8373 505.2988L197.5864 505.2988M193.8449 506.0488L196.0959 506.0488L196.0959 506.0488L196.0959 505.2988L196.0959 505.2988L193.8449 505.2988M190.1035 506.0488L192.3545 506.0488L192.3545 506.0488L192.3545 505.2988L192.3545 505.2988L190.1035 505.2988M186.3621 506.0488L188.613 506.0488L188.613 506.0488L188.613 505.2988L188.613 505.2988L186.3621 505.2988M182.6206 506.0488L184.8716 506.0488L184.8716 506.0488L184.8716 505.2988L184.8716 505.2988L182.6206 505.2988M178.8792 506.0488L181.1301 506.0488L181.1301 506.0488L181.1301 505.2988L181.1301 505.2988L178.8792 505.2988M175.1378 506.0488L177.3887 506.0488L177.3887 506.0488L177.3887 505.2988L177.3887 505.2988L175.1378 505.2988M171.3963 506.0488L173.6473 506.0488L173.6473 506.0488L173.6473 505.2988L173.6473 505.2988L171.3963 505.2988M167.6549 506.0488L169.9058 506.0488L169.9058 506.0488L169.9058 505.2988L169.9058 505.2988L167.6549 505.2988M163.9135 506.0488L166.1644 506.0488L166.1644 506.0488L166.1644 505.2988L166.1644 505.2988L163.9135 505.2988M160.172 506.0488L162.423 506.0488L162.423 506.0488L162.423 505.2988L162.423 505.2988L160.172 505.2988M156.4306 506.0488L158.6815 506.0488L158.6815 506.0488L158.6815 505.2988L158.6815 505.2988L156.4306 505.2988M152.6891 506.0488L154.9401 506.0488L154.9401 506.0488L154.9401 505.2988L154.9401 505.2988L152.6891 505.2988M148.9477 506.0488L151.1987 506.0488L151.1987 506.0488L151.1987 505.2988L151.1987 505.2988L148.9477 505.2988M145.2063 506.0488L147.4572 506.0488L147.4572 506.0488L147.4572 505.2988L147.4572 505.2988L145.2063 505.2988M141.4648 506.0488L143.7158 506.0488L143.7158 506.0488L143.7158 505.2988L143.7158 505.2988L141.4648 505.2988M137.7234 506.0488L139.9743 506.0488L139.9743 506.0488L139.9743 505.2988L139.9743 505.2988L137.7234 505.2988M133.982 506.0488L136.2329 506.0488L136.2329 506.0488L136.2329 505.2988L136.2329 505.2988L133.982 505.2988M130.2405 506.0488L132.4915 506.0488L132.4915 506.0488L132.4915 505.2988L132.4915 505.2988L130.2405 505.2988M126.4991 506.0488L128.75 506.0488L128.75 506.0488L128.75 505.2988L128.75 505.2988L126.4991 505.2988M122.7577 506.0488L125.0086 506.0488L125.0086 506.0488L125.0086 505.2988L125.0086 505.2988L122.7577 505.2988M119.0162 506.0488L121.2672 506.0488L121.2672 506.0488L121.2672 505.2988L121.2672 505.2988L119.0162 505.2988M115.2748 506.0488L117.5257 506.0488L117.5257 506.0488L117.5257 505.2988L117.5257 505.2988L115.2748 505.2988M111.5333 506.0488L113.7843 506.0488L113.7843 506.0488L113.7843 505.2988L113.7843 505.2988L111.5333 505.2988M107.7919 506.0488L110.0429 506.0488L110.0429 506.0488L110.0429 505.2988L110.0429 505.2988L107.7919 505.2988M104.0505 506.0488L106.3014 506.0488L106.3014 506.0488L106.3014 505.2988L106.3014 505.2988L104.0505 505.2988M100.309 506.0488L102.56 506.0488L102.56 506.0488L102.56 505.2988L102.56 505.2988L100.309 505.2988M96.56759 506.0488L98.81853 506.0488L98.81853 506.0488L98.81853 505.2988L98.81853 505.2988L96.56759 505.2988M92.82616 506.0488L95.0771 506.0488L95.0771 506.0488L95.0771 505.2988L95.0771 505.2988L92.82616 505.2988M89.08472 506.0488L91.33566 506.0488L91.33566 506.0488L91.33566 505.2988L91.33566 505.2988L89.08472 505.2988M85.34328 506.0488L87.59422 506.0488L87.59422 506.0488L87.59422 505.2988L87.59422 505.2988L85.34328 505.2988M81.60185 506.0488L83.85279 506.0488L83.85279 506.0488L83.85279 505.2988L83.85279 505.2988L81.60185 505.2988M77.86041 506.0488L80.11136 506.0488L80.11136 506.0488L80.11136 505.2988L80.11136 505.2988L77.86041 505.2988M74.11897 506.0488L76.36992 506.0488L76.36992 506.0488L76.36992 505.2988L76.36992 505.2988L74.11897 505.2988M70.37753 506.0488L72.62848 506.0488L72.62848 506.0488L72.62848 505.2988L72.62848 505.2988L70.37753 505.2988M66.63609 506.0488L68.88704 506.0488L68.88704 506.0488L68.88704 505.2988L68.88704 505.2988L66.63609 505.2988M62.89466 506.0488L65.14561 506.0488L65.14561 506.0488L65.14561 505.2988L65.14561 505.2988L62.89466 505.2988M59.15322 506.0488L61.40417 506.0488L61.40417 506.0488L61.40417 505.2988L61.40417 505.2988L59.15322 505.2988M55.41179 506.0488L57.66273 506.0488L57.66273 506.0488L57.66273 505.2988L57.66273 505.2988L55.41179 505.2988M51.67036 506.0488L53.9213 506.0488L53.9213 506.0488L53.9213 505.2988L53.9213 505.2988L51.67036 505.2988M47.92892 506.0488L50.17986 506.0488L50.17986 506.0488L50.17986 505.2988L50.17986 505.2988L47.92892 505.2988M44.18748 506.0488L46.43843 506.0488L46.43843 506.0488L46.43843 505.2988L46.43843 505.2988L44.18748 505.2988M40.44604 506.0488L42.69699 506.0488L42.69699 506.0488L42.69699 505.2988L42.69699 505.2988L40.44604 505.2988M36.70461 506.0488L38.95555 506.0488L38.95555 506.0488L38.95555 505.2988L38.95555 505.2988L36.70461 505.2988M32.96317 506.0488L35.21412 506.0488L35.21412 506.0488L35.21412 505.2988L35.21412 505.2988L32.96317 505.2988M29.22174 506.0488L31.47268 506.0488L31.47268 506.0488L31.47268 505.2988L31.47268 505.2988L29.22174 505.2988M25.4803 506.0488L27.73124 506.0488L27.73124 506.0488L27.73124 505.2988L27.73124 505.2988L25.4803 505.2988M21.73886 506.0488L23.98981 506.0488L23.98981 506.0488L23.98981 505.2988L23.98981 505.2988L21.73886 505.2988M17.99743 506.0488L20.24837 506.0488L20.24837 506.0488L20.24837 505.2988L20.24837 505.2988L17.99743 505.2988M14.25599 506.0488L16.50694 506.0488L16.50694 506.0488L16.50694 505.2988L16.50694 505.2988L14.25599 505.2988" stroke="none" fill="#E3E4E3" fill-rule="winding" /></g><g clip-path="url(#6)"><path transform="matrix(1 0 0 -1 0 841)" d="M291.1223 162.4043L293.3732 162.4043L293.3732 162.4043L293.3732 161.6543L293.3732 161.6543L291.1223 161.6543M287.3809 162.4043L289.6318 162.4043L289.6318 162.4043L289.6318 161.6543L289.6318 161.6543L287.3809 161.6543M283.6394 162.4043L285.8904 162.4043L285.8904 162.4043L285.8904 161.6543L285.8904 161.6543L283.6394 161.6543M279.898 162.4043L282.1489 162.4043L282.1489 162.4043L282.1489 161.6543L282.1489 161.6543L279.898 161.6543M276.1566 162.4043L278.4075 162.4043L278.4075 162.4043L278.4075 161.6543L278.4075 161.6543L276.1566 161.6543M272.4151 162.4043L274.666 162.4043L274.666 162.4043L274.666 161.6543L274.666 161.6543L272.4151 161.6543M268.6737 162.4043L270.9246 162.4043L270.9246 162.4043L270.9246 161.6543L270.9246 161.6543L268.6737 161.6543M264.9323 162.4043L267.1832 162.4043L267.1832 162.4043L267.1832 161.6543L267.1832 161.6543L264.9323 161.6543M261.1908 162.4043L263.4417 162.4043L263.4417 162.4043L263.4417 161.6543L263.4417 161.6543L261.1908 161.6543M257.4494 162.4043L259.7003 162.4043L259.7003 162.4043L259.7003 161.6543L259.7003 161.6543L257.4494 161.6543M253.7079 162.4043L255.9589 162.4043L255.9589 162.4043L255.9589 161.6543L255.9589 161.6543L253.7079 161.6543M249.9665 162.4043L252.2174 162.4043L252.2174 162.4043L252.2174 161.6543L252.2174 161.6543L249.9665 161.6543M246.2251 162.4043L248.476 162.4043L248.476 162.4043L248.476 161.6543L248.476 161.6543L246.2251 161.6543M242.4836 162.4043L244.7346 162.4043L244.7346 162.4043L244.7346 161.6543L244.7346 161.6543L242.4836 161.6543M238.7422 162.4043L240.9931 162.4043L240.9931 162.4043L240.9931 161.6543L240.9931 161.6543L238.7422 161.6543M235.0007 162.4043L237.2517 162.4043L237.2517 162.4043L237.2517 161.6543L237.2517 161.6543L235.0007 161.6543M231.2593 162.4043L233.5103 162.4043L233.5103 162.4043L233.5103 161.6543L233.5103 161.6543L231.2593 161.6543M227.5179 162.4043L229.7688 162.4043L229.7688 162.4043L229.7688 161.6543L229.7688 161.6543L227.5179 161.6543M223.7764 162.4043L226.0274 162.4043L226.0274 162.4043L226.0274 161.6543L226.0274 161.6543L223.7764 161.6543M220.035 162.4043L222.2859 162.4043L222.2859 162.4043L222.2859 161.6543L222.2859 161.6543L220.035 161.6543M216.2936 162.4043L218.5445 162.4043L218.5445 162.4043L218.5445 161.6543L218.5445 161.6543L216.2936 161.6543M212.5521 162.4043L214.8031 162.4043L214.8031 162.4043L214.8031 161.6543L214.8031 161.6543L212.5521 161.6543M208.8107 162.4043L211.0616 162.4043L211.0616 162.4043L211.0616 161.6543L211.0616 161.6543L208.8107 161.6543M205.0692 162.4043L207.3202 162.4043L207.3202 162.4043L207.3202 161.6543L207.3202 161.6543L205.0692 161.6543M201.3278 162.4043L203.5788 162.4043L203.5788 162.4043L203.5788 161.6543L203.5788 161.6543L201.3278 161.6543M197.5864 162.4043L199.8373 162.4043L199.8373 162.4043L199.8373 161.6543L199.8373 161.6543L197.5864 161.6543M193.8449 162.4043L196.0959 162.4043L196.0959 162.4043L196.0959 161.6543L196.0959 161.6543L193.8449 161.6543M190.1035 162.4043L192.3545 162.4043L192.3545 162.4043L192.3545 161.6543L192.3545 161.6543L190.1035 161.6543M186.3621 162.4043L188.613 162.4043L188.613 162.4043L188.613 161.6543L188.613 161.6543L186.3621 161.6543M182.6206 162.4043L184.8716 162.4043L184.8716 162.4043L184.8716 161.6543L184.8716 161.6543L182.6206 161.6543M178.8792 162.4043L181.1301 162.4043L181.1301 162.4043L181.1301 161.6543L181.1301 161.6543L178.8792 161.6543M175.1378 162.4043L177.3887 162.4043L177.3887 162.4043L177.3887 161.6543L177.3887 161.6543L175.1378 161.6543M171.3963 162.4043L173.6473 162.4043L173.6473 162.4043L173.6473 161.6543L173.6473 161.6543L171.3963 161.6543M167.6549 162.4043L169.9058 162.4043L169.9058 162.4043L169.9058 161.6543L169.9058 161.6543L167.6549 161.6543M163.9135 162.4043L166.1644 162.4043L166.1644 162.4043L166.1644 161.6543L166.1644 161.6543L163.9135 161.6543M160.172 162.4043L162.423 162.4043L162.423 162.4043L162.423 161.6543L162.423 161.6543L160.172 161.6543M156.4306 162.4043L158.6815 162.4043L158.6815 162.4043L158.6815 161.6543L158.6815 161.6543L156.4306 161.6543M152.6891 162.4043L154.9401 162.4043L154.9401 162.4043L154.9401 161.6543L154.9401 161.6543L152.6891 161.6543M148.9477 162.4043L151.1987 162.4043L151.1987 162.4043L151.1987 161.6543L151.1987 161.6543L148.9477 161.6543M145.2063 162.4043L147.4572 162.4043L147.4572 162.4043L147.4572 161.6543L147.4572 161.6543L145.2063 161.6543M141.4648 162.4043L143.7158 162.4043L143.7158 162.4043L143.7158 161.6543L143.7158 161.6543L141.4648 161.6543M137.7234 162.4043L139.9743 162.4043L139.9743 162.4043L139.9743 161.6543L139.9743 161.6543L137.7234 161.6543M133.982 162.4043L136.2329 162.4043L136.2329 162.4043L136.2329 161.6543L136.2329 161.6543L133.982 161.6543M130.2405 162.4043L132.4915 162.4043L132.4915 162.4043L132.4915 161.6543L132.4915 161.6543L130.2405 161.6543M126.4991 162.4043L128.75 162.4043L128.75 162.4043L128.75 161.6543L128.75 161.6543L126.4991 161.6543M122.7577 162.4043L125.0086 162.4043L125.0086 162.4043L125.0086 161.6543L125.0086 161.6543L122.7577 161.6543M119.0162 162.4043L121.2672 162.4043L121.2672 162.4043L121.2672 161.6543L121.2672 161.6543L119.0162 161.6543M115.2748 162.4043L117.5257 162.4043L117.5257 162.4043L117.5257 161.6543L117.5257 161.6543L115.2748 161.6543M111.5333 162.4043L113.7843 162.4043L113.7843 162.4043L113.7843 161.6543L113.7843 161.6543L111.5333 161.6543M107.7919 162.4043L110.0429 162.4043L110.0429 162.4043L110.0429 161.6543L110.0429 161.6543L107.7919 161.6543M104.0505 162.4043L106.3014 162.4043L106.3014 162.4043L106.3014 161.6543L106.3014 161.6543L104.0505 161.6543M100.309 162.4043L102.56 162.4043L102.56 162.4043L102.56 161.6543L102.56 161.6543L100.309 161.6543M96.56759 162.4043L98.81853 162.4043L98.81853 162.4043L98.81853 161.6543L98.81853 161.6543L96.56759 161.6543M92.82616 162.4043L95.0771 162.4043L95.0771 162.4043L95.0771 161.6543L95.0771 161.6543L92.82616 161.6543M89.08472 162.4043L91.33566 162.4043L91.33566 162.4043L91.33566 161.6543L91.33566 161.6543L89.08472 161.6543M85.34328 162.4043L87.59422 162.4043L87.59422 162.4043L87.59422 161.6543L87.59422 161.6543L85.34328 161.6543M81.60185 162.4043L83.85279 162.4043L83.85279 162.4043L83.85279 161.6543L83.85279 161.6543L81.60185 161.6543M77.86041 162.4043L80.11136 162.4043L80.11136 162.4043L80.11136 161.6543L80.11136 161.6543L77.86041 161.6543M74.11897 162.4043L76.36992 162.4043L76.36992 162.4043L76.36992 161.6543L76.36992 161.6543L74.11897 161.6543M70.37753 162.4043L72.62848 162.4043L72.62848 162.4043L72.62848 161.6543L72.62848 161.6543L70.37753 161.6543M66.63609 162.4043L68.88704 162.4043L68.88704 162.4043L68.88704 161.6543L68.88704 161.6543L66.63609 161.6543M62.89466 162.4043L65.14561 162.4043L65.14561 162.4043L65.14561 161.6543L65.14561 161.6543L62.89466 161.6543M59.15322 162.4043L61.40417 162.4043L61.40417 162.4043L61.40417 161.6543L61.40417 161.6543L59.15322 161.6543M55.41179 162.4043L57.66273 162.4043L57.66273 162.4043L57.66273 161.6543L57.66273 161.6543L55.41179 161.6543M51.67036 162.4043L53.9213 162.4043L53.9213 162.4043L53.9213 161.6543L53.9213 161.6543L51.67036 161.6543M47.92892 162.4043L50.17986 162.4043L50.17986 162.4043L50.17986 161.6543L50.17986 161.6543L47.92892 161.6543M44.18748 162.4043L46.43843 162.4043L46.43843 162.4043L46.43843 161.6543L46.43843 161.6543L44.18748 161.6543M40.44604 162.4043L42.69699 162.4043L42.69699 162.4043L42.69699 161.6543L42.69699 161.6543L40.44604 161.6543M36.70461 162.4043L38.95555 162.4043L38.95555 162.4043L38.95555 161.6543L38.95555 161.6543L36.70461 161.6543M32.96317 162.4043L35.21412 162.4043L35.21412 162.4043L35.21412 161.6543L35.21412 161.6543L32.96317 161.6543M29.22174 162.4043L31.47268 162.4043L31.47268 162.4043L31.47268 161.6543L31.47268 161.6543L29.22174 161.6543M25.4803 162.4043L27.73124 162.4043L27.73124 162.4043L27.73124 161.6543L27.73124 161.6543L25.4803 161.6543M21.73886 162.4043L23.98981 162.4043L23.98981 162.4043L23.98981 161.6543L23.98981 161.6543L21.73886 161.6543M17.99743 162.4043L20.24837 162.4043L20.24837 162.4043L20.24837 161.6543L20.24837 161.6543L17.99743 161.6543M14.25599 162.4043L16.50694 162.4043L16.50694 162.4043L16.50694 161.6543L16.50694 161.6543L14.25599 161.6543" stroke="none" fill="#E3E4E3" fill-rule="winding" /></g><g clip-path="url(#7)"><path transform="matrix(1 0 0 -1 0 841)" d="M578.493 578.0781L580.744 578.0781L580.744 578.0781L580.744 577.3281L580.744 577.3281L578.493 577.3281M574.7617 578.0781L577.0127 578.0781L577.0127 578.0781L577.0127 577.3281L577.0127 577.3281L574.7617 577.3281M571.0305 578.0781L573.2814 578.0781L573.2814 578.0781L573.2814 577.3281L573.2814 577.3281L571.0305 577.3281M567.2991 578.0781L569.55 578.0781L569.55 578.0781L569.55 577.3281L569.55 577.3281L567.2991 577.3281M563.5679 578.0781L565.8188 578.0781L565.8188 578.0781L565.8188 577.3281L565.8188 577.3281L563.5679 577.3281M559.8365 578.0781L562.0875 578.0781L562.0875 578.0781L562.0875 577.3281L562.0875 577.3281L559.8365 577.3281M556.1052 578.0781L558.3562 578.0781L558.3562 578.0781L558.3562 577.3281L558.3562 577.3281L556.1052 577.3281M552.374 578.0781L554.6249 578.0781L554.6249 578.0781L554.6249 577.3281L554.6249 577.3281L552.374 577.3281M548.6426 578.0781L550.8936 578.0781L550.8936 578.0781L550.8936 577.3281L550.8936 577.3281L548.6426 577.3281M544.9114 578.0781L547.1623 578.0781L547.1623 578.0781L547.1623 577.3281L547.1623 577.3281L544.9114 577.3281M541.1801 578.0781L543.431 578.0781L543.431 578.0781L543.431 577.3281L543.431 577.3281L541.1801 577.3281M537.4487 578.0781L539.6997 578.0781L539.6997 578.0781L539.6997 577.3281L539.6997 577.3281L537.4487 577.3281M533.7175 578.0781L535.9684 578.0781L535.9684 578.0781L535.9684 577.3281L535.9684 577.3281L533.7175 577.3281M529.9861 578.0781L532.2371 578.0781L532.2371 578.0781L532.2371 577.3281L532.2371 577.3281L529.9861 577.3281M526.2549 578.0781L528.5058 578.0781L528.5058 578.0781L528.5058 577.3281L528.5058 577.3281L526.2549 577.3281M522.5236 578.0781L524.7745 578.0781L524.7745 578.0781L524.7745 577.3281L524.7745 577.3281L522.5236 577.3281M518.7922 578.0781L521.0432 578.0781L521.0432 578.0781L521.0432 577.3281L521.0432 577.3281L518.7922 577.3281M515.061 578.0781L517.3119 578.0781L517.3119 578.0781L517.3119 577.3281L517.3119 577.3281L515.061 577.3281M511.3296 578.0781L513.5806 578.0781L513.5806 578.0781L513.5806 577.3281L513.5806 577.3281L511.3296 577.3281M507.5984 578.0781L509.8493 578.0781L509.8493 578.0781L509.8493 577.3281L509.8493 577.3281L507.5984 577.3281M503.8671 578.0781L506.118 578.0781L506.118 578.0781L506.118 577.3281L506.118 577.3281L503.8671 577.3281M500.1358 578.0781L502.3867 578.0781L502.3867 578.0781L502.3867 577.3281L502.3867 577.3281L500.1358 577.3281M496.4045 578.0781L498.6554 578.0781L498.6554 578.0781L498.6554 577.3281L498.6554 577.3281L496.4045 577.3281M492.6732 578.0781L494.9241 578.0781L494.9241 578.0781L494.9241 577.3281L494.9241 577.3281L492.6732 577.3281M488.9419 578.0781L491.1928 578.0781L491.1928 578.0781L491.1928 577.3281L491.1928 577.3281L488.9419 577.3281M485.2106 578.0781L487.4615 578.0781L487.4615 578.0781L487.4615 577.3281L487.4615 577.3281L485.2106 577.3281M481.4793 578.0781L483.7302 578.0781L483.7302 578.0781L483.7302 577.3281L483.7302 577.3281L481.4793 577.3281M477.748 578.0781L479.9989 578.0781L479.9989 578.0781L479.9989 577.3281L479.9989 577.3281L477.748 577.3281M474.0167 578.0781L476.2676 578.0781L476.2676 578.0781L476.2676 577.3281L476.2676 577.3281L474.0167 577.3281M470.2854 578.0781L472.5363 578.0781L472.5363 578.0781L472.5363 577.3281L472.5363 577.3281L470.2854 577.3281M466.5541 578.0781L468.805 578.0781L468.805 578.0781L468.805 577.3281L468.805 577.3281L466.5541 577.3281M462.8228 578.0781L465.0737 578.0781L465.0737 578.0781L465.0737 577.3281L465.0737 577.3281L462.8228 577.3281M459.0915 578.0781L461.3424 578.0781L461.3424 578.0781L461.3424 577.3281L461.3424 577.3281L459.0915 577.3281M455.3602 578.0781L457.6112 578.0781L457.6112 578.0781L457.6112 577.3281L457.6112 577.3281L455.3602 577.3281M451.6289 578.0781L453.8799 578.0781L453.8799 578.0781L453.8799 577.3281L453.8799 577.3281L451.6289 577.3281M447.8976 578.0781L450.1485 578.0781L450.1485 578.0781L450.1485 577.3281L450.1485 577.3281L447.8976 577.3281M444.1663 578.0781L446.4172 578.0781L446.4172 578.0781L446.4172 577.3281L446.4172 577.3281L444.1663 577.3281M440.435 578.0781L442.686 578.0781L442.686 578.0781L442.686 577.3281L442.686 577.3281L440.435 577.3281M436.7037 578.0781L438.9547 578.0781L438.9547 578.0781L438.9547 577.3281L438.9547 577.3281L436.7037 577.3281M432.9724 578.0781L435.2234 578.0781L435.2234 578.0781L435.2234 577.3281L435.2234 577.3281L432.9724 577.3281M429.2411 578.0781L431.4921 578.0781L431.4921 578.0781L431.4921 577.3281L431.4921 577.3281L429.2411 577.3281M425.5098 578.0781L427.7608 578.0781L427.7608 578.0781L427.7608 577.3281L427.7608 577.3281L425.5098 577.3281M421.7785 578.0781L424.0295 578.0781L424.0295 578.0781L424.0295 577.3281L424.0295 577.3281L421.7785 577.3281M418.0472 578.0781L420.2982 578.0781L420.2982 578.0781L420.2982 577.3281L420.2982 577.3281L418.0472 577.3281M414.3159 578.0781L416.5669 578.0781L416.5669 578.0781L416.5669 577.3281L416.5669 577.3281L414.3159 577.3281M410.5846 578.0781L412.8356 578.0781L412.8356 578.0781L412.8356 577.3281L412.8356 577.3281L410.5846 577.3281M406.8533 578.0781L409.1043 578.0781L409.1043 578.0781L409.1043 577.3281L409.1043 577.3281L406.8533 577.3281M403.122 578.0781L405.373 578.0781L405.373 578.0781L405.373 577.3281L405.373 577.3281L403.122 577.3281M399.3907 578.0781L401.6417 578.0781L401.6417 578.0781L401.6417 577.3281L401.6417 577.3281L399.3907 577.3281M395.6595 578.0781L397.9104 578.0781L397.9104 578.0781L397.9104 577.3281L397.9104 577.3281L395.6595 577.3281M391.9281 578.0781L394.1791 578.0781L394.1791 578.0781L394.1791 577.3281L394.1791 577.3281L391.9281 577.3281M388.1968 578.0781L390.4478 578.0781L390.4478 578.0781L390.4478 577.3281L390.4478 577.3281L388.1968 577.3281M384.4655 578.0781L386.7165 578.0781L386.7165 578.0781L386.7165 577.3281L386.7165 577.3281L384.4655 577.3281M380.7343 578.0781L382.9852 578.0781L382.9852 578.0781L382.9852 577.3281L382.9852 577.3281L380.7343 577.3281M377.003 578.0781L379.2539 578.0781L379.2539 578.0781L379.2539 577.3281L379.2539 577.3281L377.003 577.3281M373.2717 578.0781L375.5226 578.0781L375.5226 578.0781L375.5226 577.3281L375.5226 577.3281L373.2717 577.3281M369.5404 578.0781L371.7913 578.0781L371.7913 578.0781L371.7913 577.3281L371.7913 577.3281L369.5404 577.3281M365.8091 578.0781L368.06 578.0781L368.06 578.0781L368.06 577.3281L368.06 577.3281L365.8091 577.3281M362.0778 578.0781L364.3287 578.0781L364.3287 578.0781L364.3287 577.3281L364.3287 577.3281L362.0778 577.3281M358.3465 578.0781L360.5974 578.0781L360.5974 578.0781L360.5974 577.3281L360.5974 577.3281L358.3465 577.3281M354.6152 578.0781L356.8661 578.0781L356.8661 578.0781L356.8661 577.3281L356.8661 577.3281L354.6152 577.3281M350.8839 578.0781L353.1348 578.0781L353.1348 578.0781L353.1348 577.3281L353.1348 577.3281L350.8839 577.3281M347.1526 578.0781L349.4035 578.0781L349.4035 578.0781L349.4035 577.3281L349.4035 577.3281L347.1526 577.3281M343.4213 578.0781L345.6722 578.0781L345.6722 578.0781L345.6722 577.3281L345.6722 577.3281L343.4213 577.3281M339.69 578.0781L341.9409 578.0781L341.9409 578.0781L341.9409 577.3281L341.9409 577.3281L339.69 577.3281M335.9587 578.0781L338.2096 578.0781L338.2096 578.0781L338.2096 577.3281L338.2096 577.3281L335.9587 577.3281M332.2274 578.0781L334.4783 578.0781L334.4783 578.0781L334.4783 577.3281L334.4783 577.3281L332.2274 577.3281M328.4961 578.0781L330.747 578.0781L330.747 578.0781L330.747 577.3281L330.747 577.3281L328.4961 577.3281M324.7648 578.0781L327.0157 578.0781L327.0157 578.0781L327.0157 577.3281L327.0157 577.3281L324.7648 577.3281M321.0335 578.0781L323.2845 578.0781L323.2845 578.0781L323.2845 577.3281L323.2845 577.3281L321.0335 577.3281M317.3022 578.0781L319.5532 578.0781L319.5532 578.0781L319.5532 577.3281L319.5532 577.3281L317.3022 577.3281M313.5709 578.0781L315.8219 578.0781L315.8219 578.0781L315.8219 577.3281L315.8219 577.3281L313.5709 577.3281M309.8396 578.0781L312.0906 578.0781L312.0906 578.0781L312.0906 577.3281L312.0906 577.3281L309.8396 577.3281M306.1083 578.0781L308.3593 578.0781L308.3593 578.0781L308.3593 577.3281L308.3593 577.3281L306.1083 577.3281M302.377 578.0781L304.628 578.0781L304.628 578.0781L304.628 577.3281L304.628 577.3281L302.377 577.3281" stroke="none" fill="#E3E4E3" fill-rule="winding" /></g><g clip-path="url(#8)"><path transform="matrix(1 0 0 -1 0 841)" d="M578.493 328.9746L580.744 328.9746L580.744 328.9746L580.744 328.2227L580.744 328.2227L578.493 328.2227M574.7617 328.9746L577.0127 328.9746L577.0127 328.9746L577.0127 328.2227L577.0127 328.2227L574.7617 328.2227M571.0305 328.9746L573.2814 328.9746L573.2814 328.9746L573.2814 328.2227L573.2814 328.2227L571.0305 328.2227M567.2991 328.9746L569.55 328.9746L569.55 328.9746L569.55 328.2227L569.55 328.2227L567.2991 328.2227M563.5679 328.9746L565.8188 328.9746L565.8188 328.9746L565.8188 328.2227L565.8188 328.2227L563.5679 328.2227M559.8365 328.9746L562.0875 328.9746L562.0875 328.9746L562.0875 328.2227L562.0875 328.2227L559.8365 328.2227M556.1052 328.9746L558.3562 328.9746L558.3562 328.9746L558.3562 328.2227L558.3562 328.2227L556.1052 328.2227M552.374 328.9746L554.6249 328.9746L554.6249 328.9746L554.6249 328.2227L554.6249 328.2227L552.374 328.2227M548.6426 328.9746L550.8936 328.9746L550.8936 328.9746L550.8936 328.2227L550.8936 328.2227L548.6426 328.2227M544.9114 328.9746L547.1623 328.9746L547.1623 328.9746L547.1623 328.2227L547.1623 328.2227L544.9114 328.2227M541.1801 328.9746L543.431 328.9746L543.431 328.9746L543.431 328.2227L543.431 328.2227L541.1801 328.2227M537.4487 328.9746L539.6997 328.9746L539.6997 328.9746L539.6997 328.2227L539.6997 328.2227L537.4487 328.2227M533.7175 328.9746L535.9684 328.9746L535.9684 328.9746L535.9684 328.2227L535.9684 328.2227L533.7175 328.2227M529.9861 328.9746L532.2371 328.9746L532.2371 328.9746L532.2371 328.2227L532.2371 328.2227L529.9861 328.2227M526.2549 328.9746L528.5058 328.9746L528.5058 328.9746L528.5058 328.2227L528.5058 328.2227L526.2549 328.2227M522.5236 328.9746L524.7745 328.9746L524.7745 328.9746L524.7745 328.2227L524.7745 328.2227L522.5236 328.2227M518.7922 328.9746L521.0432 328.9746L521.0432 328.9746L521.0432 328.2227L521.0432 328.2227L518.7922 328.2227M515.061 328.9746L517.3119 328.9746L517.3119 328.9746L517.3119 328.2227L517.3119 328.2227L515.061 328.2227M511.3296 328.9746L513.5806 328.9746L513.5806 328.9746L513.5806 328.2227L513.5806 328.2227L511.3296 328.2227M507.5984 328.9746L509.8493 328.9746L509.8493 328.9746L509.8493 328.2227L509.8493 328.2227L507.5984 328.2227M503.8671 328.9746L506.118 328.9746L506.118 328.9746L506.118 328.2227L506.118 328.2227L503.8671 328.2227M500.1358 328.9746L502.3867 328.9746L502.3867 328.9746L502.3867 328.2227L502.3867 328.2227L500.1358 328.2227M496.4045 328.9746L498.6554 328.9746L498.6554 328.9746L498.6554 328.2227L498.6554 328.2227L496.4045 328.2227M492.6732 328.9746L494.9241 328.9746L494.9241 328.9746L494.9241 328.2227L494.9241 328.2227L492.6732 328.2227M488.9419 328.9746L491.1928 328.9746L491.1928 328.9746L491.1928 328.2227L491.1928 328.2227L488.9419 328.2227M485.2106 328.9746L487.4615 328.9746L487.4615 328.9746L487.4615 328.2227L487.4615 328.2227L485.2106 328.2227M481.4793 328.9746L483.7302 328.9746L483.7302 328.9746L483.7302 328.2227L483.7302 328.2227L481.4793 328.2227M477.748 328.9746L479.9989 328.9746L479.9989 328.9746L479.9989 328.2227L479.9989 328.2227L477.748 328.2227M474.0167 328.9746L476.2676 328.9746L476.2676 328.9746L476.2676 328.2227L476.2676 328.2227L474.0167 328.2227M470.2854 328.9746L472.5363 328.9746L472.5363 328.9746L472.5363 328.2227L472.5363 328.2227L470.2854 328.2227M466.5541 328.9746L468.805 328.9746L468.805 328.9746L468.805 328.2227L468.805 328.2227L466.5541 328.2227M462.8228 328.9746L465.0737 328.9746L465.0737 328.9746L465.0737 328.2227L465.0737 328.2227L462.8228 328.2227M459.0915 328.9746L461.3424 328.9746L461.3424 328.9746L461.3424 328.2227L461.3424 328.2227L459.0915 328.2227M455.3602 328.9746L457.6112 328.9746L457.6112 328.9746L457.6112 328.2227L457.6112 328.2227L455.3602 328.2227M451.6289 328.9746L453.8799 328.9746L453.8799 328.9746L453.8799 328.2227L453.8799 328.2227L451.6289 328.2227M447.8976 328.9746L450.1485 328.9746L450.1485 328.9746L450.1485 328.2227L450.1485 328.2227L447.8976 328.2227M444.1663 328.9746L446.4172 328.9746L446.4172 328.9746L446.4172 328.2227L446.4172 328.2227L444.1663 328.2227M440.435 328.9746L442.686 328.9746L442.686 328.9746L442.686 328.2227L442.686 328.2227L440.435 328.2227M436.7037 328.9746L438.9547 328.9746L438.9547 328.9746L438.9547 328.2227L438.9547 328.2227L436.7037 328.2227M432.9724 328.9746L435.2234 328.9746L435.2234 328.9746L435.2234 328.2227L435.2234 328.2227L432.9724 328.2227M429.2411 328.9746L431.4921 328.9746L431.4921 328.9746L431.4921 328.2227L431.4921 328.2227L429.2411 328.2227M425.5098 328.9746L427.7608 328.9746L427.7608 328.9746L427.7608 328.2227L427.7608 328.2227L425.5098 328.2227M421.7785 328.9746L424.0295 328.9746L424.0295 328.9746L424.0295 328.2227L424.0295 328.2227L421.7785 328.2227M418.0472 328.9746L420.2982 328.9746L420.2982 328.9746L420.2982 328.2227L420.2982 328.2227L418.0472 328.2227M414.3159 328.9746L416.5669 328.9746L416.5669 328.9746L416.5669 328.2227L416.5669 328.2227L414.3159 328.2227M410.5846 328.9746L412.8356 328.9746L412.8356 328.9746L412.8356 328.2227L412.8356 328.2227L410.5846 328.2227M406.8533 328.9746L409.1043 328.9746L409.1043 328.9746L409.1043 328.2227L409.1043 328.2227L406.8533 328.2227M403.122 328.9746L405.373 328.9746L405.373 328.9746L405.373 328.2227L405.373 328.2227L403.122 328.2227M399.3907 328.9746L401.6417 328.9746L401.6417 328.9746L401.6417 328.2227L401.6417 328.2227L399.3907 328.2227M395.6595 328.9746L397.9104 328.9746L397.9104 328.9746L397.9104 328.2227L397.9104 328.2227L395.6595 328.2227M391.9281 328.9746L394.1791 328.9746L394.1791 328.9746L394.1791 328.2227L394.1791 328.2227L391.9281 328.2227M388.1968 328.9746L390.4478 328.9746L390.4478 328.9746L390.4478 328.2227L390.4478 328.2227L388.1968 328.2227M384.4655 328.9746L386.7165 328.9746L386.7165 328.9746L386.7165 328.2227L386.7165 328.2227L384.4655 328.2227M380.7343 328.9746L382.9852 328.9746L382.9852 328.9746L382.9852 328.2227L382.9852 328.2227L380.7343 328.2227M377.003 328.9746L379.2539 328.9746L379.2539 328.9746L379.2539 328.2227L379.2539 328.2227L377.003 328.2227M373.2717 328.9746L375.5226 328.9746L375.5226 328.9746L375.5226 328.2227L375.5226 328.2227L373.2717 328.2227M369.5404 328.9746L371.7913 328.9746L371.7913 328.9746L371.7913 328.2227L371.7913 328.2227L369.5404 328.2227M365.8091 328.9746L368.06 328.9746L368.06 328.9746L368.06 328.2227L368.06 328.2227L365.8091 328.2227M362.0778 328.9746L364.3287 328.9746L364.3287 328.9746L364.3287 328.2227L364.3287 328.2227L362.0778 328.2227M358.3465 328.9746L360.5974 328.9746L360.5974 328.9746L360.5974 328.2227L360.5974 328.2227L358.3465 328.2227M354.6152 328.9746L356.8661 328.9746L356.8661 328.9746L356.8661 328.2227L356.8661 328.2227L354.6152 328.2227M350.8839 328.9746L353.1348 328.9746L353.1348 328.9746L353.1348 328.2227L353.1348 328.2227L350.8839 328.2227M347.1526 328.9746L349.4035 328.9746L349.4035 328.9746L349.4035 328.2227L349.4035 328.2227L347.1526 328.2227M343.4213 328.9746L345.6722 328.9746L345.6722 328.9746L345.6722 328.2227L345.6722 328.2227L343.4213 328.2227M339.69 328.9746L341.9409 328.9746L341.9409 328.9746L341.9409 328.2227L341.9409 328.2227L339.69 328.2227M335.9587 328.9746L338.2096 328.9746L338.2096 328.9746L338.2096 328.2227L338.2096 328.2227L335.9587 328.2227M332.2274 328.9746L334.4783 328.9746L334.4783 328.9746L334.4783 328.2227L334.4783 328.2227L332.2274 328.2227M328.4961 328.9746L330.747 328.9746L330.747 328.9746L330.747 328.2227L330.747 328.2227L328.4961 328.2227M324.7648 328.9746L327.0157 328.9746L327.0157 328.9746L327.0157 328.2227L327.0157 328.2227L324.7648 328.2227M321.0335 328.9746L323.2845 328.9746L323.2845 328.9746L323.2845 328.2227L323.2845 328.2227L321.0335 328.2227M317.3022 328.9746L319.5532 328.9746L319.5532 328.9746L319.5532 328.2227L319.5532 328.2227L317.3022 328.2227M313.5709 328.9746L315.8219 328.9746L315.8219 328.9746L315.8219 328.2227L315.8219 328.2227L313.5709 328.2227M309.8396 328.9746L312.0906 328.9746L312.0906 328.9746L312.0906 328.2227L312.0906 328.2227L309.8396 328.2227M306.1083 328.9746L308.3593 328.9746L308.3593 328.9746L308.3593 328.2227L308.3593 328.2227L306.1083 328.2227M302.377 328.9746L304.628 328.9746L304.628 328.9746L304.628 328.2227L304.628 328.2227L302.377 328.2227" stroke="none" fill="#E3E4E3" fill-rule="winding" /></g><g clip-path="url(#9)"><path transform="matrix(1 0 0 -1 0 841)" d="M578.493 120.3867L580.744 120.3867L580.744 120.3867L580.744 119.6367L580.744 119.6367L578.493 119.6367M574.7617 120.3867L577.0127 120.3867L577.0127 120.3867L577.0127 119.6367L577.0127 119.6367L574.7617 119.6367M571.0305 120.3867L573.2814 120.3867L573.2814 120.3867L573.2814 119.6367L573.2814 119.6367L571.0305 119.6367M567.2991 120.3867L569.55 120.3867L569.55 120.3867L569.55 119.6367L569.55 119.6367L567.2991 119.6367M563.5679 120.3867L565.8188 120.3867L565.8188 120.3867L565.8188 119.6367L565.8188 119.6367L563.5679 119.6367M559.8365 120.3867L562.0875 120.3867L562.0875 120.3867L562.0875 119.6367L562.0875 119.6367L559.8365 119.6367M556.1052 120.3867L558.3562 120.3867L558.3562 120.3867L558.3562 119.6367L558.3562 119.6367L556.1052 119.6367M552.374 120.3867L554.6249 120.3867L554.6249 120.3867L554.6249 119.6367L554.6249 119.6367L552.374 119.6367M548.6426 120.3867L550.8936 120.3867L550.8936 120.3867L550.8936 119.6367L550.8936 119.6367L548.6426 119.6367M544.9114 120.3867L547.1623 120.3867L547.1623 120.3867L547.1623 119.6367L547.1623 119.6367L544.9114 119.6367M541.1801 120.3867L543.431 120.3867L543.431 120.3867L543.431 119.6367L543.431 119.6367L541.1801 119.6367M537.4487 120.3867L539.6997 120.3867L539.6997 120.3867L539.6997 119.6367L539.6997 119.6367L537.4487 119.6367M533.7175 120.3867L535.9684 120.3867L535.9684 120.3867L535.9684 119.6367L535.9684 119.6367L533.7175 119.6367M529.9861 120.3867L532.2371 120.3867L532.2371 120.3867L532.2371 119.6367L532.2371 119.6367L529.9861 119.6367M526.2549 120.3867L528.5058 120.3867L528.5058 120.3867L528.5058 119.6367L528.5058 119.6367L526.2549 119.6367M522.5236 120.3867L524.7745 120.3867L524.7745 120.3867L524.7745 119.6367L524.7745 119.6367L522.5236 119.6367M518.7922 120.3867L521.0432 120.3867L521.0432 120.3867L521.0432 119.6367L521.0432 119.6367L518.7922 119.6367M515.061 120.3867L517.3119 120.3867L517.3119 120.3867L517.3119 119.6367L517.3119 119.6367L515.061 119.6367M511.3296 120.3867L513.5806 120.3867L513.5806 120.3867L513.5806 119.6367L513.5806 119.6367L511.3296 119.6367M507.5984 120.3867L509.8493 120.3867L509.8493 120.3867L509.8493 119.6367L509.8493 119.6367L507.5984 119.6367M503.8671 120.3867L506.118 120.3867L506.118 120.3867L506.118 119.6367L506.118 119.6367L503.8671 119.6367M500.1358 120.3867L502.3867 120.3867L502.3867 120.3867L502.3867 119.6367L502.3867 119.6367L500.1358 119.6367M496.4045 120.3867L498.6554 120.3867L498.6554 120.3867L498.6554 119.6367L498.6554 119.6367L496.4045 119.6367M492.6732 120.3867L494.9241 120.3867L494.9241 120.3867L494.9241 119.6367L494.9241 119.6367L492.6732 119.6367M488.9419 120.3867L491.1928 120.3867L491.1928 120.3867L491.1928 119.6367L491.1928 119.6367L488.9419 119.6367M485.2106 120.3867L487.4615 120.3867L487.4615 120.3867L487.4615 119.6367L487.4615 119.6367L485.2106 119.6367M481.4793 120.3867L483.7302 120.3867L483.7302 120.3867L483.7302 119.6367L483.7302 119.6367L481.4793 119.6367M477.748 120.3867L479.9989 120.3867L479.9989 120.3867L479.9989 119.6367L479.9989 119.6367L477.748 119.6367M474.0167 120.3867L476.2676 120.3867L476.2676 120.3867L476.2676 119.6367L476.2676 119.6367L474.0167 119.6367M470.2854 120.3867L472.5363 120.3867L472.5363 120.3867L472.5363 119.6367L472.5363 119.6367L470.2854 119.6367M466.5541 120.3867L468.805 120.3867L468.805 120.3867L468.805 119.6367L468.805 119.6367L466.5541 119.6367M462.8228 120.3867L465.0737 120.3867L465.0737 120.3867L465.0737 119.6367L465.0737 119.6367L462.8228 119.6367M459.0915 120.3867L461.3424 120.3867L461.3424 120.3867L461.3424 119.6367L461.3424 119.6367L459.0915 119.6367M455.3602 120.3867L457.6112 120.3867L457.6112 120.3867L457.6112 119.6367L457.6112 119.6367L455.3602 119.6367M451.6289 120.3867L453.8799 120.3867L453.8799 120.3867L453.8799 119.6367L453.8799 119.6367L451.6289 119.6367M447.8976 120.3867L450.1485 120.3867L450.1485 120.3867L450.1485 119.6367L450.1485 119.6367L447.8976 119.6367M444.1663 120.3867L446.4172 120.3867L446.4172 120.3867L446.4172 119.6367L446.4172 119.6367L444.1663 119.6367M440.435 120.3867L442.686 120.3867L442.686 120.3867L442.686 119.6367L442.686 119.6367L440.435 119.6367M436.7037 120.3867L438.9547 120.3867L438.9547 120.3867L438.9547 119.6367L438.9547 119.6367L436.7037 119.6367M432.9724 120.3867L435.2234 120.3867L435.2234 120.3867L435.2234 119.6367L435.2234 119.6367L432.9724 119.6367M429.2411 120.3867L431.4921 120.3867L431.4921 120.3867L431.4921 119.6367L431.4921 119.6367L429.2411 119.6367M425.5098 120.3867L427.7608 120.3867L427.7608 120.3867L427.7608 119.6367L427.7608 119.6367L425.5098 119.6367M421.7785 120.3867L424.0295 120.3867L424.0295 120.3867L424.0295 119.6367L424.0295 119.6367L421.7785 119.6367M418.0472 120.3867L420.2982 120.3867L420.2982 120.3867L420.2982 119.6367L420.2982 119.6367L418.0472 119.6367M414.3159 120.3867L416.5669 120.3867L416.5669 120.3867L416.5669 119.6367L416.5669 119.6367L414.3159 119.6367M410.5846 120.3867L412.8356 120.3867L412.8356 120.3867L412.8356 119.6367L412.8356 119.6367L410.5846 119.6367M406.8533 120.3867L409.1043 120.3867L409.1043 120.3867L409.1043 119.6367L409.1043 119.6367L406.8533 119.6367M403.122 120.3867L405.373 120.3867L405.373 120.3867L405.373 119.6367L405.373 119.6367L403.122 119.6367M399.3907 120.3867L401.6417 120.3867L401.6417 120.3867L401.6417 119.6367L401.6417 119.6367L399.3907 119.6367M395.6595 120.3867L397.9104 120.3867L397.9104 120.3867L397.9104 119.6367L397.9104 119.6367L395.6595 119.6367M391.9281 120.3867L394.1791 120.3867L394.1791 120.3867L394.1791 119.6367L394.1791 119.6367L391.9281 119.6367M388.1968 120.3867L390.4478 120.3867L390.4478 120.3867L390.4478 119.6367L390.4478 119.6367L388.1968 119.6367M384.4655 120.3867L386.7165 120.3867L386.7165 120.3867L386.7165 119.6367L386.7165 119.6367L384.4655 119.6367M380.7343 120.3867L382.9852 120.3867L382.9852 120.3867L382.9852 119.6367L382.9852 119.6367L380.7343 119.6367M377.003 120.3867L379.2539 120.3867L379.2539 120.3867L379.2539 119.6367L379.2539 119.6367L377.003 119.6367M373.2717 120.3867L375.5226 120.3867L375.5226 120.3867L375.5226 119.6367L375.5226 119.6367L373.2717 119.6367M369.5404 120.3867L371.7913 120.3867L371.7913 120.3867L371.7913 119.6367L371.7913 119.6367L369.5404 119.6367M365.8091 120.3867L368.06 120.3867L368.06 120.3867L368.06 119.6367L368.06 119.6367L365.8091 119.6367M362.0778 120.3867L364.3287 120.3867L364.3287 120.3867L364.3287 119.6367L364.3287 119.6367L362.0778 119.6367M358.3465 120.3867L360.5974 120.3867L360.5974 120.3867L360.5974 119.6367L360.5974 119.6367L358.3465 119.6367M354.6152 120.3867L356.8661 120.3867L356.8661 120.3867L356.8661 119.6367L356.8661 119.6367L354.6152 119.6367M350.8839 120.3867L353.1348 120.3867L353.1348 120.3867L353.1348 119.6367L353.1348 119.6367L350.8839 119.6367M347.1526 120.3867L349.4035 120.3867L349.4035 120.3867L349.4035 119.6367L349.4035 119.6367L347.1526 119.6367M343.4213 120.3867L345.6722 120.3867L345.6722 120.3867L345.6722 119.6367L345.6722 119.6367L343.4213 119.6367M339.69 120.3867L341.9409 120.3867L341.9409 120.3867L341.9409 119.6367L341.9409 119.6367L339.69 119.6367M335.9587 120.3867L338.2096 120.3867L338.2096 120.3867L338.2096 119.6367L338.2096 119.6367L335.9587 119.6367M332.2274 120.3867L334.4783 120.3867L334.4783 120.3867L334.4783 119.6367L334.4783 119.6367L332.2274 119.6367M328.4961 120.3867L330.747 120.3867L330.747 120.3867L330.747 119.6367L330.747 119.6367L328.4961 119.6367M324.7648 120.3867L327.0157 120.3867L327.0157 120.3867L327.0157 119.6367L327.0157 119.6367L324.7648 119.6367M321.0335 120.3867L323.2845 120.3867L323.2845 120.3867L323.2845 119.6367L323.2845 119.6367L321.0335 119.6367M317.3022 120.3867L319.5532 120.3867L319.5532 120.3867L319.5532 119.6367L319.5532 119.6367L317.3022 119.6367M313.5709 120.3867L315.8219 120.3867L315.8219 120.3867L315.8219 119.6367L315.8219 119.6367L313.5709 119.6367M309.8396 120.3867L312.0906 120.3867L312.0906 120.3867L312.0906 119.6367L312.0906 119.6367L309.8396 119.6367M306.1083 120.3867L308.3593 120.3867L308.3593 120.3867L308.3593 119.6367L308.3593 119.6367L306.1083 119.6367M302.377 120.3867L304.628 120.3867L304.628 120.3867L304.628 119.6367L304.628 119.6367L302.377 119.6367" stroke="none" fill="#E3E4E3" fill-rule="winding" /></g><g clip-path="url(#10)"><path transform="matrix(1 0 0 -1 0 841)" d="M19.50819 747.6504L19.50819 756.6543C 19.50819 756.9531 19.56531 757.2402 19.67953 757.5176C 19.79376 757.7949 19.95641 758.0371 20.16748 758.2461C 20.37855 758.457 20.62197 758.6211 20.89774 758.7344C 21.17351 758.8477 21.46065 758.9043 21.75914 758.9043L21.75914 758.9043L33.01387 758.9043C 33.31236 758.9043 33.59949 758.8477 33.87526 758.7344C 34.15103 758.6211 34.39445 758.457 34.60552 758.2461C 34.81659 758.0371 34.97924 757.7949 35.09347 757.5176C 35.2077 757.2402 35.26481 756.9531 35.26481 756.6543L35.26481 756.6543L35.26481 747.6504C 35.26481 747.3516 35.2077 747.0645 35.09346 746.7891C 34.97924 746.5137 34.81659 746.2715 34.60552 746.0586C 34.39445 745.8496 34.15103 745.6855 33.87526 745.5723C 33.59949 745.457 33.31236 745.4004 33.01387 745.3984L33.01387 745.3984L21.75914 745.3984C 21.46065 745.4004 21.17351 745.457 20.89774 745.5723C 20.62197 745.6855 20.37855 745.8496 20.16748 746.0586C 19.95641 746.2715 19.79376 746.5137 19.67953 746.7891C 19.56531 747.0645 19.50819 747.3516 19.50819 747.6504z" stroke="none" fill="#333333" fill-rule="winding" /><path transform="matrix(1 0 0 -1 0 841)" d="M19.50819 485.0391L19.50819 494.043C 19.50819 494.3438 19.56531 494.6309 19.67953 494.9082C 19.79376 495.1836 19.95641 495.4258 20.16748 495.6367C 20.37855 495.8477 20.62197 496.0098 20.89774 496.125C 21.17351 496.2363 21.46065 496.2949 21.75914 496.2949L21.75914 496.2949L33.01387 496.2949C 33.31236 496.2949 33.59949 496.2363 33.87526 496.125C 34.15103 496.0098 34.39445 495.8477 34.60552 495.6367C 34.81659 495.4258 34.97924 495.1836 35.09347 494.9082C 35.2077 494.6309 35.26481 494.3438 35.26481 494.043L35.26481 494.043L35.26481 485.0391C 35.26481 484.7422 35.2077 484.457 35.09346 484.1797C 34.97924 483.9023 34.81659 483.6582 34.60552 483.4473C 34.39445 483.2383 34.15103 483.0762 33.87526 482.959C 33.59949 482.8477 33.31236 482.7891 33.01387 482.7891L33.01387 482.7891L21.75914 482.7891C 21.46065 482.7891 21.17351 482.8477 20.89774 482.959C 20.62197 483.0762 20.37855 483.2383 20.16748 483.4473C 19.95641 483.6582 19.79376 483.9023 19.67953 484.1797C 19.56531 484.457 19.50819 484.7422 19.50819 485.0391z" stroke="none" fill="#333333" fill-rule="winding" /><path transform="matrix(1 0 0 -1 0 841)" d="M19.50819 141.3945L19.50819 150.3984C 19.50819 150.6992 19.56531 150.9863 19.67953 151.2637C 19.79376 151.5371 19.95641 151.7813 20.16748 151.9922C 20.37855 152.2051 20.62197 152.3672 20.89774 152.4805C 21.17351 152.5918 21.46065 152.6504 21.75914 152.6504L21.75914 152.6504L33.01387 152.6504C 33.31236 152.6504 33.59949 152.5918 33.87526 152.4805C 34.15103 152.3672 34.39445 152.2051 34.60552 151.9922C 34.81659 151.7813 34.97924 151.5371 35.09347 151.2637C 35.2077 150.9863 35.26481 150.6992 35.26481 150.3984L35.26481 150.3984L35.26481 141.3945C 35.26481 141.0977 35.2077 140.8125 35.09346 140.5371C 34.97924 140.2598 34.81659 140.0156 34.60552 139.8047C 34.39445 139.5957 34.15103 139.4336 33.87526 139.3164C 33.59949 139.2051 33.31236 139.1445 33.01387 139.1445L33.01387 139.1445L21.75914 139.1445C 21.46065 139.1445 21.17351 139.2051 20.89774 139.3203C 20.62197 139.4336 20.37855 139.5957 20.16748 139.8047C 19.95641 140.0156 19.79376 140.2598 19.67953 140.5371C 19.56531 140.8125 19.50819 141.0977 19.50819 141.3945z" stroke="none" fill="#333333" fill-rule="winding" /></g><g clip-path="url(#11)"><path transform="matrix(1 0 0 -1 0 841)" d="M307.6292 557.0703L307.6292 566.0742C 307.6292 566.373 307.6863 566.6602 307.8005 566.9375C 307.9148 567.2129 308.0774 567.4551 308.2885 567.666C 308.4995 567.8789 308.743 568.041 309.0187 568.1543C 309.2945 568.2676 309.5817 568.3242 309.8802 568.3242L309.8802 568.3242L321.1349 568.3242C 321.4334 568.3242 321.7205 568.2676 321.9963 568.1543C 322.2721 568.041 322.5155 567.8789 322.7266 567.666C 322.9376 567.4551 323.1003 567.2129 323.2145 566.9375C 323.3287 566.6602 323.3858 566.373 323.3858 566.0742L323.3858 566.0742L323.3858 557.0703C 323.3858 556.7715 323.3287 556.4863 323.2145 556.2109C 323.1003 555.9336 322.9376 555.6914 322.7266 555.4785C 322.5155 555.2695 322.2721 555.1055 321.9963 554.9922C 321.7205 554.877 321.4334 554.8203 321.1349 554.8184L321.1349 554.8184L309.8802 554.8184C 309.5817 554.8203 309.2945 554.877 309.0187 554.9922C 308.743 555.1055 308.4995 555.2695 308.2885 555.4785C 308.0774 555.6914 307.9148 555.9336 307.8005 556.2109C 307.6863 556.4863 307.6292 556.7715 307.6292 557.0703z" stroke="none" fill="#333333" fill-rule="winding" /><path transform="matrix(1 0 0 -1 0 841)" d="M307.6292 307.9648L307.6292 316.9688C 307.6292 317.2676 307.6863 317.5547 307.8005 317.832C 307.9148 318.1094 308.0774 318.3516 308.2885 318.5625C 308.4995 318.7734 308.743 318.9375 309.0187 319.0488C 309.2945 319.1621 309.5817 319.2188 309.8802 319.2188L309.8802 319.2188L321.1349 319.2188C 321.4334 319.2188 321.7205 319.1621 321.9963 319.0488C 322.2721 318.9375 322.5155 318.7734 322.7266 318.5625C 322.9376 318.3516 323.1003 318.1094 323.2145 317.832C 323.3287 317.5547 323.3858 317.2676 323.3858 316.9688L323.3858 316.9688L323.3858 307.9648C 323.3858 307.668 323.3287 307.3809 323.2145 307.1055C 323.1003 306.8301 322.9376 306.5859 322.7266 306.375C 322.5155 306.1641 322.2721 306.002 321.9963 305.8887C 321.7205 305.7734 321.4334 305.7148 321.1349 305.7148L321.1349 305.7148L309.8802 305.7148C 309.5817 305.7148 309.2945 305.7734 309.0187 305.8887C 308.743 306.002 308.4995 306.1641 308.2885 306.375C 308.0774 306.5859 307.9148 306.8301 307.8005 307.1055C 307.6863 307.3809 307.6292 307.668 307.6292 307.9648z" stroke="none" fill="#333333" fill-rule="winding" /><path transform="matrix(1 0 0 -1 0 841)" d="M307.6292 99.37695L307.6292 108.3809C 307.6292 108.6816 307.6863 108.9688 307.8005 109.2441C 307.9148 109.5215 308.0774 109.7637 308.2885 109.9746C 308.4995 110.1875 308.743 110.3496 309.0187 110.4629C 309.2945 110.5742 309.5817 110.6328 309.8802 110.6328L309.8802 110.6328L321.1349 110.6328C 321.4334 110.6328 321.7205 110.5762 321.9963 110.4629C 322.2721 110.3496 322.5155 110.1875 322.7266 109.9746C 322.9376 109.7637 323.1003 109.5215 323.2145 109.2441C 323.3287 108.9688 323.3858 108.6816 323.3858 108.3809L323.3858 108.3809L323.3858 99.37695C 323.3858 99.08008 323.3287 98.79492 323.2145 98.51758C 323.1003 98.24219 322.9376 97.99805 322.7266 97.78516C 322.5155 97.57617 322.2721 97.41406 321.9963 97.29688C 321.7205 97.18555 321.4334 97.12695 321.1349 97.12695L321.1349 97.12695L309.8802 97.12695C 309.5817 97.12695 309.2945 97.18555 309.0187 97.29688C 308.743 97.41406 308.4995 97.57617 308.2885 97.78516C 308.0774 97.99805 307.9148 98.24219 307.8005 98.51758C 307.6863 98.79492 307.6292 99.08008 307.6292 99.37695z" stroke="none" fill="#333333" fill-rule="winding" /></g><g clip-path="url(#12)"></g><g clip-path="url(#13)"></g></g></g></g></svg>