<svg xmlns="http://www.w3.org/2000/svg" xmlns:xlink="http://www.w3.org/1999/xlink" id="body_5" preserveAspectRatio="xMinYMin meet" viewBox="0 0 792 1121"><defs><clipPath id="1"><path d="M0 841L0 -0.9199829L0 -0.9199829L594.96 -0.9199829L594.96 -0.9199829L594.96 841L594.96 841L0 841z" /></clipPath><clipPath id="2"><path d="M0 -0.9199829L595.2 -0.9199829L595.2 -0.9199829L595.2 841.24L595.2 841.24L0 841.24z" /></clipPath><clipPath id="3"><path d="M0 55.07996L594.9999 55.07996L594.9999 55.07996L594.9999 790.3889L594.9999 790.3889L0 790.3889z" /></clipPath><clipPath id="4"><path d="M14.25599 388.9703L473.4489 388.9703L473.4489 388.9703L473.4489 389.7206L473.4489 389.7206L14.25599 389.7206z" /></clipPath><clipPath id="5"><path d="M493.7074 185.6348L571.7402 185.6348L571.7402 185.6348L571.7402 186.3853L571.7402 186.3853L493.7074 186.3853z" /></clipPath><clipPath id="6"><path d="M0 55.07996L594.9999 55.07996L594.9999 55.07996L594.9999 790.3889L594.9999 790.3889L0 790.3889z" /></clipPath><clipPath id="7"><path d="M493.7074 245.6601L571.7402 245.6601L571.7402 245.6601L571.7402 246.4103L571.7402 246.4103L493.7074 246.4103z" /></clipPath><clipPath id="8"><path d="M0 55.07996L594.9999 55.07996L594.9999 55.07996L594.9999 790.3889L594.9999 790.3889L0 790.3889z" /></clipPath></defs><g transform="matrix(1.333333 0 0 1.333333 0 0)"><g><g clip-path="url(#1)"><g clip-path="url(#2)"><path transform="matrix(1 0 0 -1 0 841)" d="M0 841.92L792.9999 841.92L792.9999 841.92L792.9999 -280.0799L792.9999 -280.0799L0 -280.0799z" stroke="none" fill="#FFFFFF" fill-rule="winding" /><path transform="matrix(1 0 0 -1 0 841)" d="M0 796.92L594.9999 796.92L594.9999 796.92L594.9999 795.92L594.9999 795.92L0 795.92z" stroke="none" fill="#B7B5B5" fill-rule="winding" /><g transform="matrix(0.1840659 0 0 0.1886792 510 12.08002)"><g transform="matrix(1 0 0 1 0 0)"><image x="0" y="0" xlink:href="img_01.png" width="364" height="106" /></g></g></g><g clip-path="url(#3)"><path transform="matrix(1 0 0 -1 0 841)" d="M0 3727.156L594.9999 3727.156L594.9999 3727.156L594.9999 -15763.78L594.9999 -15763.78L0 -15763.78z" stroke="none" fill="#FFFFFF" fill-rule="winding" /><path transform="matrix(1 0 0 -1 0 841)" d="M487.7049 1588.007L488.4552 1588.007L488.4552 1588.007L488.4552 716.1404L488.4552 716.1404L487.7049 716.1404z" stroke="none" fill="#B5B6B5" fill-rule="winding" /></g><g clip-path="url(#4)"><path transform="matrix(1 0 0 -1 0 841)" d="M471.1979 452.0295L473.4489 452.0295L473.4489 452.0295L473.4489 451.2791L473.4489 451.2791L471.1979 451.2791M467.4525 452.0295L469.7034 452.0295L469.7034 452.0295L469.7034 451.2791L469.7034 451.2791L467.4525 451.2791M463.7071 452.0295L465.958 452.0295L465.958 452.0295L465.958 451.2791L465.958 451.2791L463.7071 451.2791M459.9617 452.0295L462.2126 452.0295L462.2126 452.0295L462.2126 451.2791L462.2126 451.2791L459.9617 451.2791M456.2162 452.0295L458.4672 452.0295L458.4672 452.0295L458.4672 451.2791L458.4672 451.2791L456.2162 451.2791M452.4708 452.0295L454.7217 452.0295L454.7217 452.0295L454.7217 451.2791L454.7217 451.2791L452.4708 451.2791M448.7254 452.0295L450.9763 452.0295L450.9763 452.0295L450.9763 451.2791L450.9763 451.2791L448.7254 451.2791M444.9799 452.0295L447.2309 452.0295L447.2309 452.0295L447.2309 451.2791L447.2309 451.2791L444.9799 451.2791M441.2345 452.0295L443.4855 452.0295L443.4855 452.0295L443.4855 451.2791L443.4855 451.2791L441.2345 451.2791M437.4891 452.0295L439.7401 452.0295L439.7401 452.0295L439.7401 451.2791L439.7401 451.2791L437.4891 451.2791M433.7437 452.0295L435.9946 452.0295L435.9946 452.0295L435.9946 451.2791L435.9946 451.2791L433.7437 451.2791M429.9982 452.0295L432.2492 452.0295L432.2492 452.0295L432.2492 451.2791L432.2492 451.2791L429.9982 451.2791M426.2528 452.0295L428.5038 452.0295L428.5038 452.0295L428.5038 451.2791L428.5038 451.2791L426.2528 451.2791M422.5074 452.0295L424.7584 452.0295L424.7584 452.0295L424.7584 451.2791L424.7584 451.2791L422.5074 451.2791M418.762 452.0295L421.0129 452.0295L421.0129 452.0295L421.0129 451.2791L421.0129 451.2791L418.762 451.2791M415.0165 452.0295L417.2675 452.0295L417.2675 452.0295L417.2675 451.2791L417.2675 451.2791L415.0165 451.2791M411.2711 452.0295L413.5221 452.0295L413.5221 452.0295L413.5221 451.2791L413.5221 451.2791L411.2711 451.2791M407.5257 452.0295L409.7766 452.0295L409.7766 452.0295L409.7766 451.2791L409.7766 451.2791L407.5257 451.2791M403.7803 452.0295L406.0312 452.0295L406.0312 452.0295L406.0312 451.2791L406.0312 451.2791L403.7803 451.2791M400.0349 452.0295L402.2858 452.0295L402.2858 452.0295L402.2858 451.2791L402.2858 451.2791L400.0349 451.2791M396.2894 452.0295L398.5404 452.0295L398.5404 452.0295L398.5404 451.2791L398.5404 451.2791L396.2894 451.2791M392.544 452.0295L394.7949 452.0295L394.7949 452.0295L394.7949 451.2791L394.7949 451.2791L392.544 451.2791M388.7986 452.0295L391.0495 452.0295L391.0495 452.0295L391.0495 451.2791L391.0495 451.2791L388.7986 451.2791M385.0532 452.0295L387.3041 452.0295L387.3041 452.0295L387.3041 451.2791L387.3041 451.2791L385.0532 451.2791M381.3077 452.0295L383.5587 452.0295L383.5587 452.0295L383.5587 451.2791L383.5587 451.2791L381.3077 451.2791M377.5623 452.0295L379.8132 452.0295L379.8132 452.0295L379.8132 451.2791L379.8132 451.2791L377.5623 451.2791M373.8169 452.0295L376.0678 452.0295L376.0678 452.0295L376.0678 451.2791L376.0678 451.2791L373.8169 451.2791M370.0714 452.0295L372.3224 452.0295L372.3224 452.0295L372.3224 451.2791L372.3224 451.2791L370.0714 451.2791M366.326 452.0295L368.577 452.0295L368.577 452.0295L368.577 451.2791L368.577 451.2791L366.326 451.2791M362.5806 452.0295L364.8315 452.0295L364.8315 452.0295L364.8315 451.2791L364.8315 451.2791L362.5806 451.2791M358.8352 452.0295L361.0861 452.0295L361.0861 452.0295L361.0861 451.2791L361.0861 451.2791L358.8352 451.2791M355.0897 452.0295L357.3407 452.0295L357.3407 452.0295L357.3407 451.2791L357.3407 451.2791L355.0897 451.2791M351.3443 452.0295L353.5953 452.0295L353.5953 452.0295L353.5953 451.2791L353.5953 451.2791L351.3443 451.2791M347.5989 452.0295L349.8499 452.0295L349.8499 452.0295L349.8499 451.2791L349.8499 451.2791L347.5989 451.2791M343.8535 452.0295L346.1044 452.0295L346.1044 452.0295L346.1044 451.2791L346.1044 451.2791L343.8535 451.2791M340.108 452.0295L342.359 452.0295L342.359 452.0295L342.359 451.2791L342.359 451.2791L340.108 451.2791M336.3626 452.0295L338.6136 452.0295L338.6136 452.0295L338.6136 451.2791L338.6136 451.2791L336.3626 451.2791M332.6172 452.0295L334.8681 452.0295L334.8681 452.0295L334.8681 451.2791L334.8681 451.2791L332.6172 451.2791M328.8717 452.0295L331.1227 452.0295L331.1227 452.0295L331.1227 451.2791L331.1227 451.2791L328.8717 451.2791M325.1263 452.0295L327.3773 452.0295L327.3773 452.0295L327.3773 451.2791L327.3773 451.2791L325.1263 451.2791M321.3809 452.0295L323.6319 452.0295L323.6319 452.0295L323.6319 451.2791L323.6319 451.2791L321.3809 451.2791M317.6355 452.0295L319.8864 452.0295L319.8864 452.0295L319.8864 451.2791L319.8864 451.2791L317.6355 451.2791M313.89 452.0295L316.141 452.0295L316.141 452.0295L316.141 451.2791L316.141 451.2791L313.89 451.2791M310.1446 452.0295L312.3956 452.0295L312.3956 452.0295L312.3956 451.2791L312.3956 451.2791L310.1446 451.2791M306.3992 452.0295L308.6501 452.0295L308.6501 452.0295L308.6501 451.2791L308.6501 451.2791L306.3992 451.2791M302.6538 452.0295L304.9047 452.0295L304.9047 452.0295L304.9047 451.2791L304.9047 451.2791L302.6538 451.2791M298.9084 452.0295L301.1593 452.0295L301.1593 452.0295L301.1593 451.2791L301.1593 451.2791L298.9084 451.2791M295.1629 452.0295L297.4139 452.0295L297.4139 452.0295L297.4139 451.2791L297.4139 451.2791L295.1629 451.2791M291.4175 452.0295L293.6684 452.0295L293.6684 452.0295L293.6684 451.2791L293.6684 451.2791L291.4175 451.2791M287.6721 452.0295L289.923 452.0295L289.923 452.0295L289.923 451.2791L289.923 451.2791L287.6721 451.2791M283.9267 452.0295L286.1776 452.0295L286.1776 452.0295L286.1776 451.2791L286.1776 451.2791L283.9267 451.2791M280.1812 452.0295L282.4322 452.0295L282.4322 452.0295L282.4322 451.2791L282.4322 451.2791L280.1812 451.2791M276.4358 452.0295L278.6867 452.0295L278.6867 452.0295L278.6867 451.2791L278.6867 451.2791L276.4358 451.2791M272.6904 452.0295L274.9413 452.0295L274.9413 452.0295L274.9413 451.2791L274.9413 451.2791L272.6904 451.2791M268.9449 452.0295L271.1959 452.0295L271.1959 452.0295L271.1959 451.2791L271.1959 451.2791L268.9449 451.2791M265.1995 452.0295L267.4504 452.0295L267.4504 452.0295L267.4504 451.2791L267.4504 451.2791L265.1995 451.2791M261.4541 452.0295L263.705 452.0295L263.705 452.0295L263.705 451.2791L263.705 451.2791L261.4541 451.2791M257.7087 452.0295L259.9596 452.0295L259.9596 452.0295L259.9596 451.2791L259.9596 451.2791L257.7087 451.2791M253.9632 452.0295L256.2142 452.0295L256.2142 452.0295L256.2142 451.2791L256.2142 451.2791L253.9632 451.2791M250.2178 452.0295L252.4688 452.0295L252.4688 452.0295L252.4688 451.2791L252.4688 451.2791L250.2178 451.2791M246.4724 452.0295L248.7233 452.0295L248.7233 452.0295L248.7233 451.2791L248.7233 451.2791L246.4724 451.2791M242.727 452.0295L244.9779 452.0295L244.9779 452.0295L244.9779 451.2791L244.9779 451.2791L242.727 451.2791M238.9816 452.0295L241.2325 452.0295L241.2325 452.0295L241.2325 451.2791L241.2325 451.2791L238.9816 451.2791M235.2361 452.0295L237.4871 452.0295L237.4871 452.0295L237.4871 451.2791L237.4871 451.2791L235.2361 451.2791M231.4907 452.0295L233.7416 452.0295L233.7416 452.0295L233.7416 451.2791L233.7416 451.2791L231.4907 451.2791M227.7453 452.0295L229.9962 452.0295L229.9962 452.0295L229.9962 451.2791L229.9962 451.2791L227.7453 451.2791M223.9998 452.0295L226.2508 452.0295L226.2508 452.0295L226.2508 451.2791L226.2508 451.2791L223.9998 451.2791M220.2544 452.0295L222.5054 452.0295L222.5054 452.0295L222.5054 451.2791L222.5054 451.2791L220.2544 451.2791M216.509 452.0295L218.7599 452.0295L218.7599 452.0295L218.7599 451.2791L218.7599 451.2791L216.509 451.2791M212.7636 452.0295L215.0145 452.0295L215.0145 452.0295L215.0145 451.2791L215.0145 451.2791L212.7636 451.2791M209.0181 452.0295L211.2691 452.0295L211.2691 452.0295L211.2691 451.2791L211.2691 451.2791L209.0181 451.2791M205.2727 452.0295L207.5237 452.0295L207.5237 452.0295L207.5237 451.2791L207.5237 451.2791L205.2727 451.2791M201.5273 452.0295L203.7782 452.0295L203.7782 452.0295L203.7782 451.2791L203.7782 451.2791L201.5273 451.2791M197.7818 452.0295L200.0328 452.0295L200.0328 452.0295L200.0328 451.2791L200.0328 451.2791L197.7818 451.2791M194.0364 452.0295L196.2874 452.0295L196.2874 452.0295L196.2874 451.2791L196.2874 451.2791L194.0364 451.2791M190.291 452.0295L192.5419 452.0295L192.5419 452.0295L192.5419 451.2791L192.5419 451.2791L190.291 451.2791M186.5456 452.0295L188.7965 452.0295L188.7965 452.0295L188.7965 451.2791L188.7965 451.2791L186.5456 451.2791M182.8002 452.0295L185.0511 452.0295L185.0511 452.0295L185.0511 451.2791L185.0511 451.2791L182.8002 451.2791M179.0547 452.0295L181.3057 452.0295L181.3057 452.0295L181.3057 451.2791L181.3057 451.2791L179.0547 451.2791M175.3093 452.0295L177.5602 452.0295L177.5602 452.0295L177.5602 451.2791L177.5602 451.2791L175.3093 451.2791M171.5639 452.0295L173.8148 452.0295L173.8148 452.0295L173.8148 451.2791L173.8148 451.2791L171.5639 451.2791M167.8185 452.0295L170.0694 452.0295L170.0694 452.0295L170.0694 451.2791L170.0694 451.2791L167.8185 451.2791M164.073 452.0295L166.324 452.0295L166.324 452.0295L166.324 451.2791L166.324 451.2791L164.073 451.2791M160.3276 452.0295L162.5785 452.0295L162.5785 452.0295L162.5785 451.2791L162.5785 451.2791L160.3276 451.2791M156.5822 452.0295L158.8331 452.0295L158.8331 452.0295L158.8331 451.2791L158.8331 451.2791L156.5822 451.2791M152.8367 452.0295L155.0877 452.0295L155.0877 452.0295L155.0877 451.2791L155.0877 451.2791L152.8367 451.2791M149.0913 452.0295L151.3423 452.0295L151.3423 452.0295L151.3423 451.2791L151.3423 451.2791L149.0913 451.2791M145.3459 452.0295L147.5968 452.0295L147.5968 452.0295L147.5968 451.2791L147.5968 451.2791L145.3459 451.2791M141.6005 452.0295L143.8514 452.0295L143.8514 452.0295L143.8514 451.2791L143.8514 451.2791L141.6005 451.2791M137.855 452.0295L140.106 452.0295L140.106 452.0295L140.106 451.2791L140.106 451.2791L137.855 451.2791M134.1096 452.0295L136.3606 452.0295L136.3606 452.0295L136.3606 451.2791L136.3606 451.2791L134.1096 451.2791M130.3642 452.0295L132.6151 452.0295L132.6151 452.0295L132.6151 451.2791L132.6151 451.2791L130.3642 451.2791M126.6188 452.0295L128.8697 452.0295L128.8697 452.0295L128.8697 451.2791L128.8697 451.2791L126.6188 451.2791M122.8733 452.0295L125.1243 452.0295L125.1243 452.0295L125.1243 451.2791L125.1243 451.2791L122.8733 451.2791M119.1279 452.0295L121.3789 452.0295L121.3789 452.0295L121.3789 451.2791L121.3789 451.2791L119.1279 451.2791M115.3825 452.0295L117.6334 452.0295L117.6334 452.0295L117.6334 451.2791L117.6334 451.2791L115.3825 451.2791M111.6371 452.0295L113.888 452.0295L113.888 452.0295L113.888 451.2791L113.888 451.2791L111.6371 451.2791M107.8916 452.0295L110.1426 452.0295L110.1426 452.0295L110.1426 451.2791L110.1426 451.2791L107.8916 451.2791M104.1462 452.0295L106.3972 452.0295L106.3972 452.0295L106.3972 451.2791L106.3972 451.2791L104.1462 451.2791M100.4008 452.0295L102.6517 452.0295L102.6517 452.0295L102.6517 451.2791L102.6517 451.2791L100.4008 451.2791M96.65536 452.0295L98.9063 452.0295L98.9063 452.0295L98.9063 451.2791L98.9063 451.2791L96.65536 451.2791M92.90993 452.0295L95.16087 452.0295L95.16087 452.0295L95.16087 451.2791L95.16087 451.2791L92.90993 451.2791M89.16451 452.0295L91.41545 452.0295L91.41545 452.0295L91.41545 451.2791L91.41545 451.2791L89.16451 451.2791M85.41908 452.0295L87.67002 452.0295L87.67002 452.0295L87.67002 451.2791L87.67002 451.2791L85.41908 451.2791M81.67365 452.0295L83.9246 452.0295L83.9246 452.0295L83.9246 451.2791L83.9246 451.2791L81.67365 451.2791M77.92823 452.0295L80.17918 452.0295L80.17918 452.0295L80.17918 451.2791L80.17918 451.2791L77.92823 451.2791M74.1828 452.0295L76.43375 452.0295L76.43375 452.0295L76.43375 451.2791L76.43375 451.2791L74.1828 451.2791M70.43738 452.0295L72.68832 452.0295L72.68832 452.0295L72.68832 451.2791L72.68832 451.2791L70.43738 451.2791M66.69195 452.0295L68.94289 452.0295L68.94289 452.0295L68.94289 451.2791L68.94289 451.2791L66.69195 451.2791M62.94652 452.0295L65.19747 452.0295L65.19747 452.0295L65.19747 451.2791L65.19747 451.2791L62.94652 451.2791M59.2011 452.0295L61.45205 452.0295L61.45205 452.0295L61.45205 451.2791L61.45205 451.2791L59.2011 451.2791M55.45567 452.0295L57.70662 452.0295L57.70662 452.0295L57.70662 451.2791L57.70662 451.2791L55.45567 451.2791M51.71024 452.0295L53.96119 452.0295L53.96119 452.0295L53.96119 451.2791L53.96119 451.2791L51.71024 451.2791M47.96482 452.0295L50.21577 452.0295L50.21577 452.0295L50.21577 451.2791L50.21577 451.2791L47.96482 451.2791M44.21939 452.0295L46.47034 452.0295L46.47034 452.0295L46.47034 451.2791L46.47034 451.2791L44.21939 451.2791M40.47397 452.0295L42.72491 452.0295L42.72491 452.0295L42.72491 451.2791L42.72491 451.2791L40.47397 451.2791M36.72855 452.0295L38.97949 452.0295L38.97949 452.0295L38.97949 451.2791L38.97949 451.2791L36.72855 451.2791M32.98312 452.0295L35.23406 452.0295L35.23406 452.0295L35.23406 451.2791L35.23406 451.2791L32.98312 451.2791M29.23769 452.0295L31.48864 452.0295L31.48864 452.0295L31.48864 451.2791L31.48864 451.2791L29.23769 451.2791M25.49227 452.0295L27.74321 452.0295L27.74321 452.0295L27.74321 451.2791L27.74321 451.2791L25.49227 451.2791M21.74684 452.0295L23.99779 452.0295L23.99779 452.0295L23.99779 451.2791L23.99779 451.2791L21.74684 451.2791M18.00141 452.0295L20.25236 452.0295L20.25236 452.0295L20.25236 451.2791L20.25236 451.2791L18.00141 451.2791M14.25599 452.0295L16.50694 452.0295L16.50694 452.0295L16.50694 451.2791L16.50694 451.2791L14.25599 451.2791" stroke="none" fill="#C3C4C3" fill-rule="winding" /></g><g clip-path="url(#5)"><path transform="matrix(1 0 0 -1 0 841)" d="M569.4893 655.365L571.7402 655.365L571.7402 655.365L571.7402 654.6145L571.7402 654.6145L569.4893 654.6145M565.7001 655.365L567.9511 655.365L567.9511 655.365L567.9511 654.6145L567.9511 654.6145L565.7001 654.6145M561.9111 655.365L564.162 655.365L564.162 655.365L564.162 654.6145L564.162 654.6145L561.9111 654.6145M558.1219 655.365L560.3729 655.365L560.3729 655.365L560.3729 654.6145L560.3729 654.6145L558.1219 654.6145M554.3328 655.365L556.5838 655.365L556.5838 655.365L556.5838 654.6145L556.5838 654.6145L554.3328 654.6145M550.5438 655.365L552.7947 655.365L552.7947 655.365L552.7947 654.6145L552.7947 654.6145L550.5438 654.6145M546.7547 655.365L549.0056 655.365L549.0056 655.365L549.0056 654.6145L549.0056 654.6145L546.7547 654.6145M542.9656 655.365L545.2166 655.365L545.2166 655.365L545.2166 654.6145L545.2166 654.6145L542.9656 654.6145M539.1765 655.365L541.4274 655.365L541.4274 655.365L541.4274 654.6145L541.4274 654.6145L539.1765 654.6145M535.3874 655.365L537.6384 655.365L537.6384 655.365L537.6384 654.6145L537.6384 654.6145L535.3874 654.6145M531.5983 655.365L533.8492 655.365L533.8492 655.365L533.8492 654.6145L533.8492 654.6145L531.5983 654.6145M527.8092 655.365L530.0602 655.365L530.0602 655.365L530.0602 654.6145L530.0602 654.6145L527.8092 654.6145M524.0201 655.365L526.2711 655.365L526.2711 655.365L526.2711 654.6145L526.2711 654.6145L524.0201 654.6145M520.231 655.365L522.4819 655.365L522.4819 655.365L522.4819 654.6145L522.4819 654.6145L520.231 654.6145M516.442 655.365L518.6929 655.365L518.6929 655.365L518.6929 654.6145L518.6929 654.6145L516.442 654.6145M512.6528 655.365L514.9038 655.365L514.9038 655.365L514.9038 654.6145L514.9038 654.6145L512.6528 654.6145M508.8638 655.365L511.1147 655.365L511.1147 655.365L511.1147 654.6145L511.1147 654.6145L508.8638 654.6145M505.0747 655.365L507.3256 655.365L507.3256 655.365L507.3256 654.6145L507.3256 654.6145L505.0747 654.6145M501.2856 655.365L503.5365 655.365L503.5365 655.365L503.5365 654.6145L503.5365 654.6145L501.2856 654.6145M497.4965 655.365L499.7474 655.365L499.7474 655.365L499.7474 654.6145L499.7474 654.6145L497.4965 654.6145M493.7074 655.365L495.9583 655.365L495.9583 655.365L495.9583 654.6145L495.9583 654.6145L493.7074 654.6145" stroke="none" fill="#B5B6B5" fill-rule="winding" /></g><g clip-path="url(#6)"><path transform="matrix(1 0 0 -1 0 841)" d="M503.8366 668.1204C 503.8366 667.8 503.8054 667.4829 503.7429 667.1687C 503.6805 666.8547 503.5879 666.55 503.4654 666.2542C 503.3428 665.9583 503.1926 665.6772 503.0147 665.4109C 502.8368 665.1448 502.6346 664.8984 502.4082 664.6719C 502.1818 664.4456 501.9355 664.2434 501.6692 664.0654C 501.4028 663.8877 501.1218 663.7373 500.826 663.615C 500.5301 663.4924 500.2252 663.3997 499.911 663.3369C 499.5969 663.2744 499.2798 663.2432 498.9596 663.2432C 498.6393 663.2432 498.3222 663.2744 498.0081 663.3369C 497.694 663.3997 497.389 663.4924 497.0932 663.615C 496.7974 663.7373 496.5163 663.8879 496.25 664.0657C 495.9838 664.2437 495.7374 664.4456 495.511 664.6719C 495.2845 664.8984 495.0824 665.1448 494.9045 665.4109C 494.7266 665.6772 494.5764 665.9583 494.4538 666.2542C 494.3312 666.55 494.2387 666.8547 494.1762 667.1687C 494.1138 667.4829 494.0826 667.8 494.0826 668.1204C 494.0826 668.4404 494.1138 668.7578 494.1762 669.0718C 494.2387 669.386 494.3312 669.6909 494.4538 669.9868C 494.5764 670.2827 494.7266 670.5637 494.9045 670.8301C 495.0824 671.0962 495.2845 671.3425 495.511 671.5691C 495.7374 671.7957 495.9838 671.9978 496.25 672.1758C 496.5163 672.3535 496.7974 672.5039 497.0932 672.6265C 497.389 672.7488 497.694 672.8413 498.0081 672.9038C 498.3222 672.9661 498.6393 672.9973 498.9596 672.9973C 499.2798 672.9973 499.5969 672.9661 499.911 672.9038C 500.2252 672.8413 500.5301 672.7488 500.826 672.6265C 501.1218 672.5039 501.4028 672.3535 501.6692 672.1758C 501.9355 671.9978 502.1818 671.7957 502.4082 671.5691C 502.6346 671.3425 502.8368 671.0962 503.0147 670.8301C 503.1926 670.5637 503.3428 670.2827 503.4654 669.9868C 503.5879 669.6909 503.6805 669.386 503.7429 669.0718C 503.8054 668.7578 503.8366 668.4404 503.8366 668.1204z" stroke="#C3C4C3" stroke-width="0.7503152" fill="none" /><path transform="matrix(1 0 0 -1 0 841)" d="M531.5983 668.1204C 531.5983 667.8 531.5671 667.4829 531.5046 667.1687C 531.4421 666.8547 531.3495 666.55 531.227 666.2542C 531.1044 665.9583 530.9542 665.6772 530.7763 665.4109C 530.5984 665.1448 530.3962 664.8984 530.1698 664.6719C 529.9434 664.4456 529.697 664.2434 529.4307 664.0654C 529.1644 663.8877 528.8834 663.7373 528.5875 663.615C 528.2917 663.4924 527.9868 663.3997 527.6727 663.3369C 527.3586 663.2744 527.0414 663.2432 526.7213 663.2432C 526.401 663.2432 526.0839 663.2744 525.7698 663.3369C 525.4556 663.3997 525.1507 663.4924 524.8548 663.615C 524.559 663.7373 524.2779 663.8879 524.0117 664.0657C 523.7454 664.2437 523.499 664.4456 523.2726 664.6719C 523.0461 664.8984 522.844 665.1448 522.6661 665.4109C 522.4882 665.6772 522.338 665.9583 522.2154 666.2542C 522.0928 666.55 522.0003 666.8547 521.9379 667.1687C 521.8754 667.4829 521.8442 667.8 521.8442 668.1204C 521.8442 668.4404 521.8754 668.7578 521.9378 669.0718C 522.0003 669.386 522.0928 669.6909 522.2154 669.9868C 522.338 670.2827 522.4882 670.5637 522.6661 670.8301C 522.844 671.0962 523.0461 671.3425 523.2726 671.5691C 523.499 671.7957 523.7454 671.9978 524.0117 672.1758C 524.2779 672.3535 524.559 672.5039 524.8548 672.6265C 525.1507 672.7488 525.4556 672.8413 525.7697 672.9038C 526.0839 672.9661 526.401 672.9973 526.7213 672.9973C 527.0414 672.9973 527.3586 672.9661 527.6727 672.9038C 527.9868 672.8413 528.2917 672.7488 528.5875 672.6265C 528.8834 672.5039 529.1644 672.3535 529.4307 672.1758C 529.697 671.9978 529.9434 671.7957 530.1698 671.5691C 530.3962 671.3425 530.5984 671.0962 530.7763 670.8301C 530.9542 670.5637 531.1044 670.2827 531.227 669.9868C 531.3495 669.6909 531.4421 669.386 531.5046 669.0718C 531.5671 668.7578 531.5983 668.4404 531.5983 668.1204z" stroke="#C3C4C3" stroke-width="0.7503152" fill="none" /><path transform="matrix(1 0 0 -1 0 841)" d="M560.1103 668.1204C 560.1103 667.8 560.079 667.4829 560.0165 667.1687C 559.9541 666.8547 559.8616 666.55 559.739 666.2542C 559.6165 665.9583 559.4662 665.6772 559.2883 665.4109C 559.1104 665.1448 558.9083 664.8984 558.6818 664.6719C 558.4553 664.4456 558.2089 664.2434 557.9427 664.0654C 557.6765 663.8877 557.3954 663.7373 557.0995 663.615C 556.8036 663.4924 556.4987 663.3997 556.1846 663.3369C 555.8706 663.2744 555.5535 663.2432 555.2332 663.2432C 554.913 663.2432 554.5958 663.2744 554.2817 663.3369C 553.9676 663.3997 553.6627 663.4924 553.3668 663.615C 553.0709 663.7373 552.7899 663.8879 552.5236 664.0657C 552.2573 664.2437 552.011 664.4456 551.7846 664.6719C 551.5582 664.8984 551.356 665.1448 551.178 665.4109C 551.0001 665.6772 550.8499 665.9583 550.7274 666.2542C 550.6048 666.55 550.5123 666.8547 550.4498 667.1687C 550.3874 667.4829 550.3561 667.8 550.3562 668.1204C 550.3561 668.4404 550.3874 668.7578 550.4498 669.0718C 550.5123 669.386 550.6048 669.6909 550.7274 669.9868C 550.8499 670.2827 551.0001 670.5637 551.178 670.8301C 551.356 671.0962 551.5582 671.3425 551.7846 671.5691C 552.011 671.7957 552.2573 671.9978 552.5236 672.1758C 552.7899 672.3535 553.0709 672.5039 553.3668 672.6265C 553.6627 672.7488 553.9676 672.8413 554.2817 672.9038C 554.5958 672.9661 554.913 672.9973 555.2332 672.9973C 555.5535 672.9973 555.8706 672.9661 556.1846 672.9038C 556.4987 672.8413 556.8036 672.7488 557.0995 672.6265C 557.3954 672.5039 557.6765 672.3535 557.9427 672.1758C 558.2089 671.9978 558.4553 671.7957 558.6818 671.5691C 558.9083 671.3425 559.1104 671.0962 559.2883 670.8301C 559.4662 670.5637 559.6165 670.2827 559.739 669.9868C 559.8616 669.6909 559.9541 669.386 560.0165 669.0718C 560.079 668.7578 560.1103 668.4404 560.1103 668.1204z" stroke="#C3C4C3" stroke-width="0.7503152" fill="none" /></g><g clip-path="url(#7)"><path transform="matrix(1 0 0 -1 0 841)" d="M569.4893 595.3396L571.7402 595.3396L571.7402 595.3396L571.7402 594.5894L571.7402 594.5894L569.4893 594.5894M565.7001 595.3396L567.9511 595.3396L567.9511 595.3396L567.9511 594.5894L567.9511 594.5894L565.7001 594.5894M561.9111 595.3396L564.162 595.3396L564.162 595.3396L564.162 594.5894L564.162 594.5894L561.9111 594.5894M558.1219 595.3396L560.3729 595.3396L560.3729 595.3396L560.3729 594.5894L560.3729 594.5894L558.1219 594.5894M554.3328 595.3396L556.5838 595.3396L556.5838 595.3396L556.5838 594.5894L556.5838 594.5894L554.3328 594.5894M550.5438 595.3396L552.7947 595.3396L552.7947 595.3396L552.7947 594.5894L552.7947 594.5894L550.5438 594.5894M546.7547 595.3396L549.0056 595.3396L549.0056 595.3396L549.0056 594.5894L549.0056 594.5894L546.7547 594.5894M542.9656 595.3396L545.2166 595.3396L545.2166 595.3396L545.2166 594.5894L545.2166 594.5894L542.9656 594.5894M539.1765 595.3396L541.4274 595.3396L541.4274 595.3396L541.4274 594.5894L541.4274 594.5894L539.1765 594.5894M535.3874 595.3396L537.6384 595.3396L537.6384 595.3396L537.6384 594.5894L537.6384 594.5894L535.3874 594.5894M531.5983 595.3396L533.8492 595.3396L533.8492 595.3396L533.8492 594.5894L533.8492 594.5894L531.5983 594.5894M527.8092 595.3396L530.0602 595.3396L530.0602 595.3396L530.0602 594.5894L530.0602 594.5894L527.8092 594.5894M524.0201 595.3396L526.2711 595.3396L526.2711 595.3396L526.2711 594.5894L526.2711 594.5894L524.0201 594.5894M520.231 595.3396L522.4819 595.3396L522.4819 595.3396L522.4819 594.5894L522.4819 594.5894L520.231 594.5894M516.442 595.3396L518.6929 595.3396L518.6929 595.3396L518.6929 594.5894L518.6929 594.5894L516.442 594.5894M512.6528 595.3396L514.9038 595.3396L514.9038 595.3396L514.9038 594.5894L514.9038 594.5894L512.6528 594.5894M508.8638 595.3396L511.1147 595.3396L511.1147 595.3396L511.1147 594.5894L511.1147 594.5894L508.8638 594.5894M505.0747 595.3396L507.3256 595.3396L507.3256 595.3396L507.3256 594.5894L507.3256 594.5894L505.0747 594.5894M501.2856 595.3396L503.5365 595.3396L503.5365 595.3396L503.5365 594.5894L503.5365 594.5894L501.2856 594.5894M497.4965 595.3396L499.7474 595.3396L499.7474 595.3396L499.7474 594.5894L499.7474 594.5894L497.4965 594.5894M493.7074 595.3396L495.9583 595.3396L495.9583 595.3396L495.9583 594.5894L495.9583 594.5894L493.7074 594.5894" stroke="none" fill="#B5B6B5" fill-rule="winding" /></g><g clip-path="url(#8)"><path transform="matrix(1 0 0 -1 0 841)" d="M487.7049 716.1404L594.9999 716.1404L594.9999 716.1404L594.9999 715.3901L594.9999 715.3901L487.7049 715.3901z" stroke="none" fill="#B5B6B5" fill-rule="winding" /><path transform="matrix(1 0 0 -1 0 841)" d="M0 716.1404L487.7049 716.1404L487.7049 716.1404L487.7049 715.3901L487.7049 715.3901L0 715.3901z" stroke="none" fill="#B5B6B5" fill-rule="winding" /><path transform="matrix(1 0 0 -1 0 841)" d="M487.7049 716.1404L488.4552 716.1404L488.4552 716.1404L488.4552 -154.9756L488.4552 -154.9756L487.7049 -154.9756z" stroke="none" fill="#B5B6B5" fill-rule="winding" /><g transform="matrix(0.4543511 0 0 0.5727258 14.25599 182.6337)"><g transform="matrix(1 0 0 1 0 0)"><image x="0" y="0" xlink:href="img_16.png" width="649" height="169" /></g></g><g transform="matrix(0.7503152 0 0 0.7503152 14.25599 454.2478)"><g transform="matrix(1 0 0 1 0 0)"><image x="0" y="0" xlink:href="img_17.png" width="518" height="111" /></g></g><g transform="matrix(0.7503151 0 0 0.7503152 14.25599 620.8176)"><g transform="matrix(1 0 0 1 0 0)"><image x="0" y="0" xlink:href="img_18.png" width="249" height="189" /></g></g></g></g></g></g></svg>